<svg width="15" height="33" viewBox="0 0 15 33" fill="none" xmlns="http://www.w3.org/2000/svg">
<path d="M13.6634 8.98661H7.92079V25.0938C7.92079 26.8943 8.15182 28.1875 8.61386 28.9732C9.07591 29.7262 9.81848 30.1027 10.8416 30.1027C11.5017 30.1027 12.0792 29.9717 12.5743 29.7098C13.0693 29.4152 13.6469 28.8914 14.3069 28.1384L15 28.8259C13.2178 31.6086 10.9406 33 8.16832 33C4.83498 33 3.16832 30.6265 3.16832 25.8795V8.98661H0.19802C0.0660066 8.95387 0 8.83929 0 8.64286C0 8.31548 0.313531 7.95536 0.940594 7.5625C2.42574 6.71131 4.25743 4.71429 6.43564 1.57143C6.60066 1.30952 6.78218 1.06399 6.9802 0.834821C7.21122 0.572917 7.40924 0.294643 7.57426 0C7.70627 0 7.78878 0.0491071 7.82178 0.147321C7.88779 0.245536 7.92079 0.441964 7.92079 0.736607V7.21875H13.6634V8.98661Z" fill="url(#paint0_linear_220_4)"/>
<defs>
<linearGradient id="paint0_linear_220_4" x1="0.947194" y1="-3.85764" x2="19.1229" y2="30.8595" gradientUnits="userSpaceOnUse">
<stop offset="0.0385445" stop-color="#22D3EE"/>
<stop offset="1" stop-color="#F43F5E"/>
</linearGradient>
</defs>
</svg>
