<svg viewBox="0 0 99 93" fill="none" xmlns="http://www.w3.org/2000/svg" preserveAspectRatio="none"><path fill-rule="evenodd" clip-rule="evenodd" d="M52.075 2.19c.406-.237.14 1.232.217 1.835-.307-.033-.198-1.096-.217-1.835ZM12.441 15.385c2.46 1.756 5.338.32 8.112 1.83.32.508-.171 1.397.215 1.58 2.458-.435 4.656.655 6.947.696 16.654.25 36.274 3.881 54.642 2.581.48-.331.24 1.166.75.767 1.54-1.424 3.623-1.742 5.027-.23.856-2.772 2.111-4.52 2.447-8.036.272-2.844-.503-6.076-.331-9.227-1.12-.954-2.906-.25-4.174-.86-.156-.426.03-2.29-.533-2.35-4.005-2.134-8.272-.942-12.514-.766C60.001 1.918 46.927-.425 34.548.07c-3.518.143-6.688-.013-9.936.99-.945.298-1.755 1.504-2.674 2.147C19.57 4.9 16.91 4.562 14.787 6.952c-.362.15-.198 1.613-.637 1.579-.566.812-1.674.257-1.922 1.842.91 1.273 2.16 1.715 2.987 3.177-2.423-.299-4.54-1.192-6.824-.867.915 1.125 1.968.277 2.984 1.111.362.298.684 1.32 1.066 1.59ZM4.424 37.883c.17 1.401.568 1.653.75 1.898.452.58-.272-1.262-.75-1.898ZM0 29.043l.202 1.078c.417.331.314-.74.735-.435.428.908-.63-2.364-.937-.644Zm94.397 44.214c-3.463.563-7.323 1.45-11.013 1.302.364-.847.676-1.424.419-3.185-1.053-1.294-2.914-.59-3.85-2.194 3.216-.095 6.691-.34 9.625-.976.792-.17 1.747-.305 2.352-1.428-1.097-.936-1.832-2.799-2.042-5.97-.409-1.003-1.12-1.24-1.392-2.586-.915-.17-1.744-1.532-2.677-1.986-.397-.182-1.05.637-1.283-.726.735.075 1.264.19 2.14-.364-1.328-6.87-7.106-5.42-9.958-8.536 1.817-.434 2.863 1.084 4.494 1.125.335-.061.133-1.423.528-1.342 3.43-1.28 7.779.42 10.482-1.802.14-3.434 2.273-2.06 3.206-3.59-.825-.753-1.995-.624-2.572-1.99.448-.7.904.255 1.284-.32-1.37-1.192-4.29.25-4.707-2.425.54-.956 1.062-1.977 1.922-2.188-.01-1.572-1.193-.17-1.498-.997.658-.96 1.404-1.7 1.922-2.986-.338.143-.435-.313-.538-.773.23-.224.171-1.16.32-1.599.817-.197 1.53.44 1.927-.087-1.558-.345-3.51-.996-5.031-.556.202-1.077.248-1.28.423-2.656-2.073-1.464-5.03-.785-7.7-.968-4.609-.312-9.388.745-14.115.332-12.239-1.05-25.95-2.784-38.064-3.265-1.394-.054-2.717.63-4.064.867-3.785.65-7.987-1.463-11.64-1.247-.05 1.497-.007 2.188.528 2.907l-.528.528c.305.562 1 .155 1.066 1.321-2.174 1.91-4.369-3.442-6.405-1.131.516.325.96.818 1.282 1.612l-.856.243c.373.244 1.104.664.851 1.593-.267.773-.693.92-.956 1.037l.423.805c-.7.183-1.389.007-2.027-.582-.536 2.878-2.528-.976-3.513.63.184.494 1.042.25.744 1.111-.856.785-1.861-.216-2.55.053.29.264 1 .556.527 1.105.983.122 1.299 1.802 1.801 3.048-.184-.169-.72-.955-.428-.033.057.929 1.187 1.536 1.918 1.693.369.833.72 1.47 1.174 1.89 2.194 2.04 5.595 2.167 8.548 2.506 4.727.535 9.622 1.565 14.006 1.952 1.281.115 2.315.968 3.32 1.246 1.96.561 3.467.78 5.24.927 7.512.645 15.89 1.789 23.75 2.386 2.25.162 4.796-.205 7.271-.028 2.31.163 5.003-1.002 6.629-.02-6.304.76-12.617 1.491-18.824 1.016-11.061-.833-21.413-3.738-31.985-4.918-6.177-.705-12.332-.84-18.063-4.538l-.643 1.558c.32 1.944.922 3.191 1.495 4.539l.318 2.377c-2.26-.108-4.369-2.052-5.874-3.21.867.879.674 1.577.845 3.501l-.424-.047c.275.92 1.372 2.662.42 2.688.785.333.01 1.504.1 2.637-.346.195-.926-.413-.965-.082l.643 1.647c-.233.799-.685-.814-.865-.076.37.53 1.005.448 1.07 1.673-.245.075-.407-.068-.532-.305.202 1.971.423 3.903.744 5.61.482.223-.17-.738.318-.515l.215 1.598c-.441.251-1.04-.494-1.183-.08.454.852 1.303.76 1.5 2.215l-.537-.028c.358.115.448 1.119-.107.785l.64 1.891c-.276.596-.52-.38-.645.468l.428 1.36c-.252.332-.61.408-.864.727.603.324.779 1.395.86 1.652.156.846.658.896 1.077 1.118.608 2.317 1.297 4.437 2.469 5.384-.138 1.722.586 1.377.645 2.657 4.65 4.43 9.918 5.141 15.328 5.845 13.629 1.762 27.193 5.785 41.32 6.713 3.418.231 7.387.353 10.38-.154 1.661-.279 2.809-1.987 4.275-2.034 1.334-.032 2.661 1.66 3.96.617.351-2.933.906-5.358.955-9.022-.134-2.114-1.223-2.446-1.293-4.424-.167-4.75 3.587-2.297 5.67-2.893 3.6-1.063 8.119-1.178 11.017-1.598-1.242-1.281-3.004-.298-4.603-.035ZM4.002 37.07l-.533-.026.533.026Z" fill="#100F0D"/></svg>