<svg viewBox="0 0 100 98" fill="none" xmlns="http://www.w3.org/2000/svg" preserveAspectRatio="none"><path fill-rule="evenodd" clip-rule="evenodd" d="M1.658 56.862c-.392.126-.767-1.17-1.093-.379.315.092.889.895 1.093.379Zm53.362-6.529c7.456-2.294 15.087 2.456 22.412 1.229-6.9 4.038-14.894-1.171-22.412-1.228ZM100 21.047c-2.529-.478-5.094-.93-7.141-2.019 1.216-1.553 3.814.474 3.859-4.14-.493-1.033-.9-2.309-1.393-3.35.375-.338.863-.377 1.089-1.1-2.735-1.613-4.912-3.356-8.23-3.567.115-.85.645-1.667.395-2.653-2.354-2.06-5.051-2.48-7.74-2.81-2.935-.357-6.67-.324-9.808-.897-9.473-1.723-19.945 1.532-30.127.81-5.539-.411-11.153-.345-16.342.352-3.557.478-6.161 1.634-9.102 4.294-.2.513-.291 1.338-.592 1.574-.905.054-1.718.33-2.077 1.83l.095 1.055c.625.134 1.809-1.13 2.08.53-.54 1.562-2.064.482-2.869 1.298.22 2.129 1.37 1.798 2.177 2.39-.102 2.195.942 1.352 1.186 2.629-.058.58-.577.337-.298 1.053 1.064-.81 1.995.527 3.168.264.28.297.36 1.133.696 1.298 5.968 3.516 13.008 1.525 19.118 3.085 2.106.52 4.788.487 6.643.337 7.855-.71 16.497-.932 24.482.953-3.462 0-7.717.412-10.11.398-5.569-.04-11.307.798-17.247.31-5.536-.466-11.922-.573-17.738-1.187-1.924-.198-4.364-.04-5.447.594-2.106-1.034-3.7-.142-5.84.256a35.896 35.896 0 0 0-.794 5.256c.558.103 1.323-.356 1.387 1.067-.915-.023-2.378-.998-2.677 1.285.46 1.159 1.432.963 1.981 1.87-.895-.241-1.921-.379-2.573-.562-.273.24.261.505.102 1.319-.605-.298-.813.47-1.093 1.033-3.11-1.928-6.622.011-9.162-.815.786.711 1.482 1.124 2.338 2.111-.52.379-.876-1.044-1.175-.379.955.425 1.097 3.42 2.261 2.559 1.769 5.346 7.117 1.893 9.998 3.935l-.202.54c2.877-.93 6.612.481 9.713 1.525 1.15.39 2.706.735 4.063 1.251.689.264 1.316 1.033 1.986 1.285 4.813 1.87 10.252-.184 15.368 1.72-6.857 2.468-13.782.781-21.016-.825-6.301-1.434-11.685-1.825-18.04-4.337-.203.769-.228 2.03-.598 2.352.568 1.32 1.21 2.444 1.385 4.796 2.63 2.19 6.056.63 8.826 3.017-2.236-.47-4.357 1.87-6.35-.597-2.006.39-5.346-.137-7.044-2.443.386.355 1.321.642 1.692.138l-.3-.54c.362-.47.66.276.891-.218-.97-.86.818-.642.599-1.02-1.636.768-3.777-.942-4.453-1.71.224.642.6.929.884 1.434L.778 51.25c.386.253.35.368.596.597-.16-.218-.434.47-.2.493l.3.035c-.421-.092 0 .401-.004.792l-.597.206.495.837c-.326-.412-.945.39-.599.196.563-.104.986.115 1.192.906-.465.275-.044 1.411-.303 2.34.306 0 .55.184.696.597-.494.987-1.5-.069-1.897.333.239.803.59 1.308.992 1.686-.336.505-.07.54-.004 1.309-.266 1.193-.769-.712-1.002.412.594.528.87 1.859 1.195 3.04-.255-.309-.488-.7-.698-1.135.412 2.387 1.383 3.338 1.689 5.954-.284.528-.672.482-.703.735-.527.206.326.722.397 1.078.113 1.285.073 1.675.195 3.178-.56.746-1.297-.63-1.815.07 1.192.573 2.13 1.651 2.81 3.43l-.004 1.571c.614.172.842 1.343 1.101 2.421 1.064.849 1.98 2.926 3.29 3.545 2.105 1.01 4.57.941 6.866 1.664.226.39-.197.837.195.792 7.079 1.377 14.593 3.395 22.339 4.13 2.994.287 6 0 9.03.275 2.478.23 5.182 1.01 7.841 1.308 6.069.712 12.45 2.926 18.055 3.787 3.005.459 5.064.125 7.142-2.938-.105-2.008.585-1.973.784-3.19 0-1.858.397-5.873-.102-7.09.421.127.651-.23.99-.31.265-2.512 1.953-2.546 1.581-5.862 2.004.275 4.358 1.755 6.547 2.065 1.827.264 3.748.792 4.956-1.273.246-.78-.771-1.779-.598-2.34l.396-.288c-1.063-.287-1.952-1.044-2.679-2.237l-.005-1.859c-.955-1.445-1.957-2.776-2.582-5.14.382.39 1.403.413 1.785-.08-.561-.585-.905-1.779-1.293-2.834-1.183-.23-2.11-1.136-2.979-2.225l.495-1.87c-.28-2.078-.998-1.39-1.787-2.56-.297-.412-.436-1.387-.695-1.79-.244-.39-.71-.286-.996-.756-.37-.608-.436-1.308-.696-1.55-.57-.515-1.185 0-1.784-.171-1.112-.344-1.977-2.203-2.974-2.26 2.622-.436 5.377.906 7.93 1.502.306-.31-.015-.654.202-1.066 2.526.607 5.32.126 7.728-.345.213-.677.202-1.939.492-2.41.581-.309 1.18-.607 1.785-.86-.182-1.41.392-1.801.691-2.673-1.062-.413-.335-1.216-1.292-.986l.498-.803c-.259.16-.356-.104-.303-.78.295.16.492.917.696-.035-.29-.516-.714-.562-.594-1.021-.18-.276.201-2.249.69-2.937l-.692-.758c.412-.757 1.47.172 1.877-.608-.856-.676-1.8-1.101-2.877-1.181.182-1.194-.337-2.478.197-3.43.854-.242 1.862-.047 2.277-1.435-.59-.23-1.25-.287-1.782-.7.436-.24.917-.413 1.09-1.365-.41.046-.811.08-.995-.47.401.16.565-.287.89-.322.331-1.583.996-2.306 1.978-2.191l-.097-.262c-.681-.27-1.534-.06-1.882-1.216-.304-4.301 1.3-2.776 2.373-3.018-.452 0-.864-.114-1.09-.737.822-.202 1.746.695 2.478-.122ZM7.259 19.277l.884-.499c-.496.074-.585-.926-.687-1.871-.268.095-.461 1.736-.197 2.37Zm6.618-2.533v1.054h.295c.03-.688-.036-1.12-.295-1.054" fill="#100F0D"/></svg>