<svg viewBox="0 0 92 27" fill="none" xmlns="http://www.w3.org/2000/svg" preserveAspectRatio="none">
<path d="M91.0074 4.69158C90.0761 3.40834 89.5804 4.08417 88.7092 3.36217L88.6737 4.08417C88.5979 3.44226 87.5689 3.51124 87.2976 3.98127C88.8537 4.53082 89.947 4.97804 91.0074 4.69158V4.69158ZM2.61612 13.4228L2.32491 13.3199C2.11152 14.3278 2.65618 15.0726 2.77397 14.2133L2.60506 13.6748L2.61612 13.4228ZM9.70657 2.51447C9.2376 1.11664 7.65059 2.3081 6.62146 2.94955C7.51937 3.12188 8.93088 2.60579 9.70657 2.51447ZM14.2432 2.47998L15.1569 2.03287C14.9322 2.27361 14.0586 1.86145 14.2432 2.47998ZM29.9135 2.74364L29.5466 2.15902L28.9286 2.69746C29.2201 3.59134 29.6488 1.94154 29.9135 2.74364ZM81.394 13.8351L81.2606 14.5459L80.8585 14.6605L80.8983 13.9385C80.685 14.0414 80.0027 14.1104 80.2629 14.7523C81.0385 14.6372 82.1897 14.626 83.1679 13.8122C82.4542 14.0414 82.1231 13.973 81.394 13.8351V13.8351ZM56.6196 0.910275L55.5237 1.10496C55.6547 0.69222 56.2974 1.43702 56.6196 0.910275ZM89.6004 7.23526C89.9581 7.83098 90.0561 7.25806 90.3761 7.44162C91.9675 8.32381 90.3317 6.8459 89.6004 7.23526ZM78.6223 16.0238C78.3955 16.0238 78.5134 17.0779 78.6734 17.0095L78.1734 17.1241C78.4068 16.9978 78.3978 16.1501 78.5356 15.749C78.8134 15.6573 78.7089 16.2758 78.9025 16.3448L78.6223 16.0238ZM77.7489 15.7946C77.4177 14.7061 78.0602 15.6573 77.9888 14.878C78.2533 14.8668 78.2178 15.4398 78.2378 15.9209C77.9777 16.1729 77.8666 15.0956 77.7489 15.7946V15.7946ZM76.9686 9.76736L77.0041 10.9938C76.693 10.7986 76.8219 9.75613 76.8064 8.98852L77.5355 10.1455C77.3021 9.62985 77.1776 10.6956 76.9686 9.76736ZM76.9486 16.0695L76.9086 14.8435C77.1931 15.1188 77.4021 15.0042 77.4798 15.2334L76.9486 16.0695ZM75.9084 9.22881C76.3885 9.24049 76.3284 10.2834 76.5975 9.17151C76.8931 10.3519 75.6749 10.8675 75.9084 9.22881ZM75.5261 3.06413C75.7304 2.65185 75.6907 3.25927 76.0107 3.20198L75.5261 3.06413ZM75.3526 2.52558L75.1082 1.49431C75.3437 0.715595 75.6283 2.23912 75.3526 2.52558ZM73.9324 3.37385C74.3436 2.96112 74.6969 2.94955 75.2216 3.22478C74.9105 3.66032 74.299 3.58022 73.9324 3.37385V3.37385ZM73.8344 1.40311L74.0168 1.68957C74.2215 0.738399 74.4969 2.47998 74.6349 1.12776L74.6948 1.86145C74.4259 2.411 73.9835 1.5861 73.9814 2.411L73.8344 1.40311ZM72.9211 1.88425L73.2366 1.49431L73.7123 1.84976C73.4456 2.53727 73.31 2.03286 72.9211 1.88425V1.88425ZM73.2166 13.8695L72.9721 12.8271L73.1767 12.6436C73.3901 12.6436 73.1767 13.5029 73.2166 13.8695V13.8695ZM72.3142 14.1104C72.0251 13.6748 71.8919 13.9157 71.5364 13.9157C71.7963 12.8499 72.1364 13.0101 72.5587 13.1937L72.3142 14.1104ZM72.0919 10.65L71.5719 11.234C71.3918 10.4208 71.7654 10.6956 72.0919 10.65ZM70.7496 2.04444L71.1695 1.43702C71.5762 1.86145 71.1073 2.37662 70.7496 2.04444ZM70.8005 16.8604L71.2719 17.227C71.3407 18.0747 70.5317 17.7543 70.8005 16.8604ZM69.9004 17.1124C70.1248 17.3532 70.3625 17.4216 70.5961 17.0551C70.9427 17.5707 69.7869 18.1898 69.9004 17.1124ZM72.3142 2.228C72.0808 1.43702 71.5762 3.01841 71.5653 1.51723C71.8564 2.14791 72.2785 1.18505 72.3142 2.228ZM74.9147 1.43702L75.1595 2.47998L74.8794 2.15902L74.7681 2.37662C74.5437 2.25081 74.9105 1.76966 74.9147 1.43702V1.43702ZM75.6082 1.36862L75.8997 1.45994L75.7417 2.64017L75.6082 1.36862ZM78.7801 2.94955L78.6223 2.17071C78.8559 1.89536 78.9935 3.45395 79.3646 3.11019L79.1114 4.24436C78.8245 4.01519 79.227 3.76321 79.1602 3.30487C78.6469 4.08417 78.1623 3.0073 77.3731 3.55685C77.3707 2.67466 78.5178 3.20198 78.7801 2.94955V2.94955ZM79.4025 6.27297L78.8204 6.11221C79.2826 5.4019 79.0046 5.31011 78.6734 5.10374C78.8911 4.14146 79.3446 5.58546 79.4025 6.27297V6.27297ZM78.707 10.4436C78.4845 10.18 78.2844 9.928 78.1179 10.2946L78.1712 9.34339C78.569 9.91632 78.7579 8.4384 78.8711 9.04581L78.707 10.4436ZM78.4268 14.0186C78.1734 13.9385 78.3754 12.9757 77.9777 13.182C78.2089 13.1481 78.1179 12.1507 78.4135 12.3343L78.5713 13.0903L78.4623 13.3083L78.4268 14.0186ZM79.1913 12.529L78.7446 13.6175L78.5134 12.3455C78.8404 13.0903 78.7446 12.5863 79.1913 12.529ZM68.4912 17.7081C68.2021 17.3071 68.211 17.697 67.8131 17.5134L67.9421 16.8376L68.2332 16.906L68.4912 17.7081ZM64.4546 17.5935C64.8014 17.376 65.3837 16.7575 65.7484 17.4561C65.2104 17.7999 65.0504 17.6052 64.4546 17.5935ZM59.4379 17.4561C59.1068 16.6768 59.9626 17.2727 59.9691 16.6312L60.1426 17.1585L59.4379 17.4561ZM58.0932 10.7874C58.2421 10.0654 58.5157 10.8564 58.8978 10.5237C58.8669 11.257 58.5223 10.7418 58.0932 10.7874ZM51.9608 25.145C52.1186 24.8241 52.3629 24.7551 52.6631 24.8585L51.9608 25.145ZM43.6721 9.53819C41.8251 9.50415 39.609 9.32059 37.8597 9.37788L37.2441 9.91632C36.6106 8.89674 36.1371 9.58425 35.1169 9.07985C38.033 7.96837 42.5052 9.05693 45.6749 8.86225C45.9305 9.48089 44.1567 9.53819 43.6721 9.53819V9.53819ZM36.2305 24.1938C36.8729 23.3 38.0441 23.9875 39.0978 24.0336C40.1891 24.0793 41.2872 22.9218 41.725 24.7551C40.2314 24.6065 37.9331 25.0989 36.2305 24.1938V24.1938ZM38.4665 22.8761C38.7333 22.8188 39.2221 23.4029 39.3534 22.8878C39.6756 23.6666 38.3132 24.2623 38.4665 22.8761ZM38.962 20.8364C38.6556 19.7707 39.4245 20.5499 39.4866 20.2407C39.7202 20.8825 38.9665 20.7446 38.962 20.8364ZM41.516 23.0019C41.0048 23.5636 40.2781 23.701 39.838 23.0363C40.296 22.7042 41.1383 22.7042 41.516 23.0019ZM35.3525 18.132C36.7083 16.8721 38.4976 18.0291 39.9956 17.9718C38.4708 18.9341 36.8463 18.3845 35.3525 18.132ZM31.1781 8.93123C31.5094 8.01455 32.0694 8.73655 32.5629 8.82776C32.2896 9.46966 31.6782 9.02301 31.1781 8.93123ZM31.5893 24.3429C31.4361 23.6666 30.6225 25.0416 30.7381 23.6209C31.1561 23.5063 31.416 23.8273 31.8203 23.6894L31.5893 24.3429ZM24.73 23.3461C26.6815 23.3 28.8311 23.4719 30.6269 23.8384C29.0355 24.4919 26.5881 24.2968 24.73 23.3461ZM25.7369 17.0779C25.0701 16.7803 24.7233 17.0779 24.3811 16.6885L25.7369 17.0779ZM26.5728 6.3871C25.7793 5.91753 25.2479 6.84589 24.6166 6.0666C25.03 5.74565 26.2594 5.20722 26.5728 6.3871ZM26.813 19.3356C26.7971 20.6072 25.9015 19.5415 25.8858 20.0343C25.7323 19.4386 26.3438 18.9113 26.813 19.3356ZM28.9199 8.77047C28.1997 9.40068 27.1596 8.90797 26.4525 8.79338C27.2662 8.22046 28.033 8.25483 28.9199 8.77047ZM29.7088 8.74766C29.5312 9.38957 29.4378 8.95403 29.0042 9.03413C29.1221 8.57579 29.4021 8.63308 29.7088 8.74766ZM38.5533 7.37264C36.5305 8.50692 33.9542 7.91108 31.5294 7.81941C33.8166 6.8459 36.3461 7.67079 38.5533 7.37264ZM32.894 6.26128L32.1717 6.77692C31.9827 6.34138 32.6006 6.11221 32.894 6.26128ZM39.8425 7.23526C39.7424 8.14025 39.2356 7.75089 38.8333 7.6936C39.0022 7.00609 39.5534 7.53295 39.8425 7.23526ZM39.2068 6.10063C40.4647 6.05492 41.9784 6.46765 43.3144 6.75411C43.0543 7.32704 42.7898 6.90273 42.4162 6.98328C41.7962 7.10898 41.6629 7.47565 41.127 7.10898C39.1132 5.78014 36.3972 7.67079 33.8497 6.77692C35.3614 5.99762 37.3151 6.15839 39.2068 6.10063V6.10063ZM10.5023 6.15839C9.92444 6.22679 8.70643 6.49045 7.92848 6.30689C8.36624 7.25806 9.34873 6.28408 9.67552 6.8687C8.982 7.98006 7.21941 7.06338 6.53479 6.54774C6.79929 5.92876 7.45726 6.3871 7.51936 6.65064C7.79061 6.69682 7.824 5.95202 8.05062 5.86023C12.6318 6.15838 17.1395 5.20721 22.4651 5.68836C18.6177 7.02889 14.2476 5.71116 10.5023 6.15839ZM13.8897 19.1293C13.4941 17.7771 15.0367 18.1208 15.508 18.4073L13.8897 19.1293ZM11.1336 7.33815C11.596 6.42147 12.1583 6.77691 12.7251 7.10898C12.276 7.44162 11.7049 7.39544 11.1336 7.33815ZM13.6607 8.12913C13.6276 7.18919 14.1322 7.96837 14.3655 7.85378C14.3188 8.54129 13.9365 8.17474 13.6607 8.12913V8.12913ZM14.0277 8.72486L13.9741 9.68715C13.5697 8.82776 12.1985 9.97361 11.4494 8.89674L11.8516 8.78215C11.7358 8.17474 11.6314 8.33504 11.3782 8.39234C11.456 7.62462 11.8828 7.95725 12.1893 7.91108L12.1539 8.63308C12.8251 8.73655 13.5252 8.36942 14.0277 8.72486V8.72486ZM10.1534 7.26974C10.3023 6.31857 10.7002 6.77692 11.0512 7.06338C10.9136 7.6363 10.5023 7.37264 10.1534 7.26974ZM10.4556 9.05693C10.3134 8.58747 10.1178 9.17151 9.77109 8.85113L9.8088 8.12913L9.87998 8.63308L10.4556 9.05693ZM7.45726 7.85378C7.75282 7.93399 7.48831 9.07984 7.78387 9.17151L8.02407 8.27821L7.71285 8.65588C8.01957 6.98328 8.91531 8.74766 9.51775 8.03735C9.28429 8.45009 9.47553 9.07984 9.60434 8.30101C9.56436 9.87071 8.253 8.33504 8.004 8.74766L8.15735 9.53819H7.46825L7.45726 7.85378ZM8.59519 10.65C7.89068 10.6267 6.93934 11.2802 6.47027 9.69883C8.73756 11.2229 12.6739 9.38957 15.3034 10.8219C12.8808 11.3948 10.5512 10.7418 8.59519 10.65V10.65ZM5.8835 11.4404C5.62789 11.3603 5.6368 12.1279 5.36339 12.0022C5.36339 10.5699 4.18983 12.3688 3.87421 10.2373L4.04312 10.7986C4.45658 10.1344 5.39444 11.0622 6.38368 11.3715C7.95729 11.8643 10.2668 10.9938 10.9002 11.8759C11.2959 11.1428 12.0049 11.9788 12.8673 12.0133C10.7157 12.3455 7.90177 13.2049 5.8835 11.4404ZM8.59079 14.5459L8.39971 14.4769C7.33497 13.652 6.45254 13.9958 5.77458 13.583C5.8168 12.9645 6.68373 13.1592 6.9638 13.5146L7.20824 12.6208L7.26826 13.3768L7.79061 12.8039C8.1974 12.8382 7.66623 13.4228 8.04838 13.6175C8.06402 12.4834 9.04868 13.251 9.37104 12.8499C9.31977 13.6064 9.22203 13.8122 9.49102 14.3395C9.08873 14.6032 8.70643 13.6748 8.59079 14.5459V14.5459ZM5.20338 13.1481L4.95444 12.3343L4.69443 13.4573C4.33428 13.1247 4.75213 12.2309 4.87885 11.8187L5.20338 13.1481ZM6.12143 6.90273L5.77018 6.0666L6.36137 6.00931C6.64152 6.96002 6.06131 6.15839 6.12143 6.90273ZM5.67459 4.07248L6.07696 3.98127L5.91903 3.20198L6.22367 3.06413L6.15915 4.24436L5.67459 4.07248ZM8.35966 21.0199C6.97271 20.5155 6.5059 20.2407 5.55005 19.8168C5.34332 19.3356 5.77684 18.5447 5.92345 18.2582C6.07696 18.5563 5.93909 19.3813 6.15691 19.5531L6.30135 18.6365C6.3881 18.6136 6.56586 18.9802 6.98819 18.854L6.85041 19.5415C7.31938 19.4502 8.07068 21.3637 8.32402 19.7823C8.53301 19.8168 8.32402 20.6645 8.35966 21.0199V21.0199ZM4.68553 19.2895L4.68993 17.3415C5.07666 17.1352 5.43457 18.0747 5.45456 17.8456C5.75462 19.0259 5.24999 19.9654 4.68553 19.2895ZM4.26317 17.9261C4.4699 17.7081 4.2809 17.0779 4.17643 17.6508L4.08984 17.376L4.11865 16.906C4.51652 16.8143 4.75213 18.1437 4.26317 17.9261ZM4.3277 7.25806L4.47214 6.32981L4.2765 6.26128C4.14312 6.90273 3.36076 6.60504 3.44519 5.23002C3.77862 6.29577 4.79217 5.52771 5.47012 6.20399C5.05227 6.35306 4.86327 6.96002 4.3277 7.25806ZM91.9209 18.0291C91.6164 17.3643 90.7427 17.8227 90.5738 17.445L91.0808 17.0779C90.4871 16.7686 90.0339 17.5707 89.6982 17.2154L89.745 18.1898C88.2712 18.5447 86.0062 18.6938 84.5814 19.0375L84.8104 18.3612C82.879 17.8227 81.0675 18.8312 80.0227 17.5935L79.9872 18.3155C79.4158 17.9718 79.1356 18.5563 78.9179 18.0291C79.3757 17.8227 79.167 17.2042 79.5604 16.9978L79.4271 17.6853C79.7336 17.5935 79.6248 17.5707 79.9117 17.8227C79.8758 15.9437 80.3338 17.9261 80.4605 16.7575L80.0071 15.8864C79.9916 16.4938 80.1603 16.6997 79.8647 16.8376L79.4358 15.5082C79.278 16.0238 79.6448 16.471 79.3912 16.4594C79.1247 16.0811 79.4981 14.9353 78.9869 14.6605C79.7027 14.4769 79.6557 15.6685 79.8893 16.3448C79.8605 14.8324 79.6603 14.8552 79.7513 13.1592L79.507 14.0643C79.6002 13.182 79.0847 13.4685 79.3002 12.3115C79.6916 12.7008 80.0804 11.4293 80.7939 11.9677L80.9251 11.2802C81.4141 10.8792 82.7965 11.0622 82.132 10.8792C81.492 10.6956 80.665 10.65 79.8605 11.0049L79.9048 10.0538C79.5804 9.58425 79.8048 10.8564 79.5804 10.6956C79.4826 10.2145 79.6803 9.59594 79.3559 9.17151L79.4826 10.6611C79.2181 11.0967 78.9514 10.7529 78.707 10.4553C79.049 10.4553 78.978 9.85902 79.3002 10.3747L79.0647 9.09142L79.7582 9.02301L80.0027 8.12913C80.3227 8.95403 80.6338 7.6363 81.2874 7.98006C81.5431 7.7164 81.2275 7.06338 81.4341 7.04057C81.6496 7.89996 84.6817 8.07184 84.0813 7.25806C84.397 7.22357 84.4438 7.69359 84.6415 7.89996L85.3816 6.8687C84.5437 6.9371 83.5545 6.53606 82.8211 6.9143L82.852 6.20399C81.4141 7.00609 80.1492 5.55097 79.3803 6.75411L79.6315 5.60826C80.1917 5.83743 80.4249 5.21833 80.594 6.10063L80.8228 5.43638C80.5028 5.55097 80.4627 5.11543 80.3606 4.81728L79.8538 5.17272L80.0071 3.99238C80.0539 4.85177 80.1137 3.74041 80.3739 4.58811L80.3227 3.60302L79.4112 4.08417C79.5736 1.68957 80.7274 3.69481 80.9451 3.0301C80.5228 2.3081 79.7826 2.39988 79.1913 2.58287L79.227 1.84976L78.6469 1.70068C78.3911 1.95266 78.7845 2.46829 78.4999 2.64017C78.1512 2.67466 78.3044 1.73517 77.9533 1.76966C77.8553 2.74364 78.269 1.51723 78.0957 2.76644C77.9132 2.61736 77.153 2.228 76.9199 2.69746L76.8576 1.95266C76.7551 3.0757 76.1908 2.76644 75.9594 2.20474L76.1039 1.27683C76.4906 1.02486 76.0684 2.3537 76.4596 2.10173C76.4285 0.634928 77.2131 2.39988 77.4887 1.15056C70.9586 -0.0753857 64.3947 -0.361847 57.722 0.485968C58.1089 1.09327 57.7976 0.95588 57.8576 1.73517L58.44 1.89536C56.6864 2.06724 54.3148 2.56007 51.4294 2.17071L51.0896 3.06413C53.2566 3.17872 54.6725 2.86934 55.9839 3.64863C54.4212 4.25604 52.6631 2.84653 51.5162 4.39343C51.2428 4.31334 51.7808 3.7977 51.3451 3.855C50.7981 5.27562 48.2444 3.76321 47.0308 5.35583L46.4861 4.47353C45.7814 5.11543 45.6127 4.78291 45.1747 5.06937C45.5437 4.63429 44.8546 4.24436 44.7946 4.73719C43.2032 5.41358 38.6043 4.17595 37.4685 5.36741C37.1019 3.86668 36.9219 5.88304 36.5239 4.61103L36.6817 5.39021C36.2949 5.63106 36.5259 4.67989 36.2194 4.75999C35.4036 6.10063 32.7386 3.84331 31.9672 5.02365L31.1759 5.04645C31.0048 3.7977 31.0248 4.6226 30.7849 4.93187C30.8315 4.41623 30.7448 4.14146 30.5335 4.14146L30.1423 4.02687C29.8891 4.27885 30.2844 4.79448 29.9958 4.95478C30.0112 3.55685 28.771 3.48844 28.1398 4.65709C27.6394 3.72872 27.044 4.58811 26.4725 4.41623L26.4971 3.94678C25.7369 3.44226 25.0546 4.27885 24.3255 4.0381L24.5099 4.32457C23.6343 4.24436 23.5053 3.37385 22.9297 4.35894C23.0052 2.92663 22.5361 5.09263 22.6628 3.7977C20.427 4.66832 17.5884 3.55685 16.1148 4.5197C15.9746 4.33614 16.0125 4.24436 15.7525 3.92352C15.2124 4.86346 12.8608 3.75164 11.658 4.82897C11.3626 4.24436 10.2157 4.39343 9.60882 4.41623C8.79976 4.45072 7.93732 4.40512 7.39722 5.16104C7.6217 4.37063 7.34611 4.37063 7.16827 3.86668L6.93934 4.5197C7.18826 3.1558 6.21917 4.6454 6.33032 2.84653L5.94352 2.70915L5.49451 3.78602L5.35225 2.74364C5.04111 2.96112 4.56763 2.65185 4.26091 2.84653L4.20089 2.10173L3.87421 2.70915C3.70077 1.70068 2.82509 2.46829 2.24272 1.86145L1.6825 3.08739C2.1827 3.80893 2.34055 3.0757 2.64727 3.47675L2.08937 4.71438C2.56943 4.45072 2.62062 5.20721 2.98736 4.58811L3.04738 5.3218C2.65168 6.22679 2.33381 5.51648 2.10046 6.42147C2.2827 7.16627 2.72286 7.41882 3.00285 7.98006L2.5939 8.31212C2.90952 8.57579 3.28292 8.6215 3.50081 7.91108C3.72084 8.47289 3.2318 9.09142 3.62077 9.42406L3.76747 8.49569C3.78752 9.83622 3.79412 7.89996 4.06753 8.38111L3.92082 9.2861C4.272 9.67603 4.15428 8.55298 4.35875 8.484L4.50545 9.50415C5.38346 9.60705 5.59242 8.71317 6.15691 10.0771C6.35695 9.97361 6.1991 8.73655 6.42365 8.71317C6.33698 9.19443 6.4592 10.3291 6.23907 10.3403C5.04777 10.4892 3.91416 9.19443 3.7275 9.22881C3.66972 9.22881 3.62077 10.902 3.41188 9.59594C3.23846 10.2257 3.12507 12.277 3.44743 10.8219L3.39631 11.7726C3.74749 11.8531 3.96754 12.1396 4.03864 12.7353C3.76748 12.7236 2.8406 12.0022 3.14071 12.8955C3.47192 12.8616 4.63874 14.1793 4.87443 13.7549C7.47275 15.0843 11.8226 14.6833 15.4214 16.1957C14.4008 16.5856 13.483 15.9893 12.5651 16.0466C12.0982 16.0695 11.1071 16.1268 11.5314 16.9289C11.5249 16.2074 12.3005 16.9289 12.9274 16.6425L12.9895 17.3988L13.1252 16.7113C13.0897 17.4216 13.2429 17.88 13.4519 18.0291C13.1206 18.3612 12.923 17.6508 12.6584 18.0291L12.3716 17.9373L12.0161 17.0779L11.8739 18.0179C11.6493 17.628 12.0828 17.3532 11.8226 17.0206L11.5782 17.9373C11.0825 17.6737 11.0669 17.8456 10.9358 16.9862C10.8668 17.3071 10.9869 18.2582 10.778 18.1553L10.0845 18.1781C9.97108 17.2154 8.73756 18.2466 8.03297 17.7543L8.19074 18.5219C7.86622 18.1781 7.89068 18.5447 7.72393 17.8917C7.19716 19.2439 6.51032 17.4216 6.06131 17.5707L6.41699 16.471C5.96358 15.9549 6.07696 17.2614 5.86791 17.5018C5.83236 17.1469 6.04575 16.322 5.83236 16.2758C5.49677 16.723 5.58792 16.2647 5.68791 17.2154C5.42791 17.1241 5.47455 16.4594 5.34332 16.1156C4.97442 17.7543 4.14312 15.5883 3.59414 15.4966C3.55192 16.0811 3.37401 16.1729 3.64075 16.471L3.76747 16.0355L4.02082 16.8604C3.81859 17.8227 3.40964 16.5166 3.1051 17.2614C3.42963 16.4021 2.4716 16.8721 2.70721 15.4053C2.26489 15.0153 2.80945 16.0695 2.47826 16.0466C2.36486 14.7634 2.38053 15.8519 2.1827 15.932C1.8004 16.0811 1.50034 15.0042 0.95793 14.7061L1.00464 15.7029L1.39585 15.8636L1.34473 16.8143L1.74478 16.723C1.51807 17.1241 1.62698 17.1585 1.45357 16.6195C1.46695 17.9373 1.96265 17.7999 2.04484 18.5563C1.46695 18.2126 1.33141 17.2386 1.01355 17.4105L0.969093 16.4021L0.733477 17.044L0.662294 16.5279C0.535673 17.7771 1.43806 17.5479 1.14243 18.6821C0.775691 18.4762 0.326706 17.2727 0 17.6853C1.97158 22.1425 4.48104 22.9907 7.39282 24.3429L7.65725 24.9042C8.95095 26.0845 10.2712 25.4315 11.4802 25.6606C13.392 26.0156 15.2679 26.5084 17.1839 26.2107C16.9283 25.9811 16.3947 26.2792 16.3214 25.7063C26.966 26.4972 37.5952 27.677 47.1575 26.5084L47.3419 26.8065C47.2039 25.5344 46.2194 26.6574 46.0015 25.9354C46.2216 25.4082 46.5971 25.7179 46.1595 24.7668C46.5575 25.1906 47.0018 24.3769 47.0218 25.2479L46.4284 25.328C46.9861 26.0617 48.1376 25.2708 48.8512 26.2335C48.4931 26.1646 47.6419 25.9699 47.8376 26.6919C48.32 26.6118 49.28 26.8866 49.9157 26.52C50.7715 26.3593 49.0534 26.1763 49.1512 26.0845C50.2937 25.5572 51.4716 25.1333 52.3829 26.4627C52.7341 24.7323 53.9678 26.6919 54.5969 25.6145C54.3501 25.0304 53.1544 26.2219 52.9542 24.9386C53.55 24.5721 54.5745 25.3397 54.9215 24.9843L54.8904 25.6946C55.9571 25.8209 57.0441 26.0044 58.0621 25.3397L57.6841 24.9959C59.4225 24.423 61.5385 25.0304 63.2366 24.3084C64.3235 26.3593 66.7217 23.7127 68.7511 24.3313C68.7825 24.6634 68.8602 25.9471 69.1047 25.145C68.5622 24.5031 70.016 24.5031 69.8736 25.6033C70.3427 24.1594 70.9227 25.7063 71.5853 24.8353L71.9274 25.901C72.7742 24.9386 74.5369 23.5063 75.5107 25.145C74.7305 25.1333 74.0323 25.0649 73.31 25.7752C74.3704 25.6946 76.2239 26.0957 77.3707 25.397C77.1487 26.1418 77.6688 26.5084 77.7354 25.9811L77.4687 25.4315C77.9446 25.5228 78.489 25.8325 78.8404 25.546L78.4024 26.4054C78.7601 26.3938 79.069 26.2447 79.3181 25.9243L78.9379 25.5572C79.2491 25.6145 79.6803 25.1906 79.9117 25.8325C80.7363 24.9959 81.9607 25.4198 82.7766 25.6145C82.7544 25.9354 82.072 25.5689 82.3678 25.9927C82.7455 26.1874 82.9145 25.5689 83.0344 26.4054L82.9854 25.4198L83.1901 25.2363C84.3458 25.4082 85.6196 24.8814 86.5688 24.6634L86.5329 25.3742L86.8487 24.9731L86.6663 24.6866L87.1509 24.8012L87.0309 25.2708C87.3954 24.8241 87.5532 24.9959 87.76 24.4803C87.9912 25.4543 89.5094 22.8188 89.816 24.7668C89.8471 23.9759 90.4671 22.8761 91.6699 23.0708C91.6453 22.2571 91.6364 21.4093 91.3764 21.0544C91.7875 20.1489 92.17 19.7022 91.9209 18.0291V18.0291ZM4.72999 14.6833C4.31213 14.2133 4.15428 14.5459 3.76747 14.1104L4.72999 14.6833ZM52.5675 26.772C53.0521 26.6574 53.2411 27.2532 53.4653 26.52C53.0965 26.3822 52.7565 26.3481 52.5675 26.772ZM56.4062 26.8405C56.9929 26.8065 57.5997 26.8638 58.0111 26.302C57.491 26.52 56.7419 26.05 56.4062 26.8405ZM58.2909 26.623C58.6289 26.7492 58.9178 26.7259 59.0913 26.3481C58.7644 26.2447 58.4154 26.0957 58.2909 26.623ZM2.96289 10.6383L3.1095 9.72164L3.18069 10.2373L3.32513 9.30947C3.02734 9.05693 3.00727 9.65277 2.845 9.14871C2.99611 9.91632 2.65168 10.2718 2.96289 10.6383V10.6383ZM64.9993 26.4739L65.3149 26.0845C64.4947 26.0156 63.141 26.05 64.9993 26.4739ZM90.325 24.423C90.7897 24.2167 91.0963 24.8585 91.3453 23.7127C90.8207 23.3689 90.554 23.8501 90.325 24.423ZM16.6749 3.22478C16.2371 3.06413 15.8392 2.98392 15.5836 3.37385C16.1481 3.37385 16.3947 3.7749 16.6749 3.22478ZM80.5583 16.7686L80.956 16.6312C80.7274 16.356 80.7938 15.5082 80.4248 15.5199L80.3959 16.0127L80.4827 16.2647L80.5583 16.7686ZM83.2656 13.8351L83.3257 14.5915C83.4169 13.6403 83.9281 14.9469 84.1368 14.0643C83.7345 13.6748 83.8146 13.9613 83.2656 13.8351ZM41.3584 2.56007C41.6161 2.53727 41.8939 2.58287 42.065 2.27361C41.8319 2.39988 41.3229 1.63182 41.3584 2.56007ZM81.012 11.5434C81.5562 12.0133 83.5301 12.0022 84.4769 11.234C83.1835 11.3948 82.4299 11.3258 81.012 11.5434ZM57.513 0.681105L57.2219 0.600553L57.1351 0.33735L57.0885 1.27683L57.4664 1.63182L57.513 0.681105ZM84.5082 4.7027C84.2171 4.45072 84.3258 4.47353 84.0191 4.56531C83.657 4.53082 82.2453 3.91229 82.6478 4.45072C83.239 4.45072 84.0548 5.12712 84.5082 4.7027ZM86.8953 4.10697L86.8019 4.08417C85.1818 3.41946 87.5889 4.49644 86.8953 4.10697Z" fill="#100F0D"/>
</svg>
