<svg viewBox="0 0 92 27" fill="none" xmlns="http://www.w3.org/2000/svg" preserveAspectRatio="none"><path d="M91.007 4.692c-.93-1.284-1.427-.608-2.298-1.33l-.035.722c-.076-.642-1.105-.573-1.376-.103 1.556.55 2.649.997 3.71.71Zm-88.39 8.73-.292-.102c-.213 1.008.331 1.753.449.893l-.169-.538.011-.252Zm7.09-10.908c-.47-1.397-2.056-.206-3.086.436.898.172 2.31-.344 3.086-.436Zm4.536-.034.914-.447c-.225.24-1.098-.172-.914.447Zm15.67.264-.366-.585-.618.538c.291.894.72-.755.985.047Zm51.481 11.091-.133.71-.402.116.04-.723c-.214.103-.896.172-.636.814.775-.115 1.927-.126 2.905-.94-.714.23-1.045.161-1.774.023ZM56.62.91l-1.096.195c.13-.413.773.332 1.096-.195ZM89.6 7.235c.358.596.456.023.776.207 1.591.882-.044-.596-.776-.207Zm-10.978 8.789c-.227 0-.109 1.054.051.985l-.5.115c.234-.126.225-.974.363-1.375.277-.092.173.527.367.596l-.28-.321Zm-.873-.23c-.331-1.088.311-.137.24-.916.264-.011.229.562.249 1.043-.26.252-.371-.825-.49-.126Zm-.78-6.027.035 1.227c-.311-.195-.182-1.238-.198-2.005l.73 1.156c-.234-.515-.358.55-.567-.378Zm-.02 6.303-.04-1.226c.284.275.493.16.57.39l-.53.836Zm-1.04-6.841c.48.011.42 1.054.688-.057.296 1.18-.922 1.695-.689.057Zm-.383-6.165c.204-.412.165.195.485.138l-.485-.138Zm-.173-.538-.245-1.032c.236-.778.52.745.245 1.032Zm-1.42.848c.41-.413.764-.424 1.289-.15-.311.436-.923.356-1.29.15Zm-.099-1.97.183.286c.205-.952.48.79.618-.562l.06.733c-.27.55-.711-.275-.714.55l-.147-1.008Zm-.913.48.316-.39.475.356c-.266.687-.402.183-.79.034Zm.296 11.986-.245-1.043.205-.183c.213 0 0 .859.04 1.226Zm-.903.24c-.289-.435-.422-.194-.778-.194.26-1.066.6-.906 1.023-.722l-.245.916Zm-.222-3.46-.52.584c-.18-.813.193-.538.52-.584ZM70.75 2.044l.42-.607c.406.424-.063.94-.42.607Zm.05 14.816.472.367c.069.848-.74.527-.472-.367Zm-.9.252c.225.241.462.31.696-.057.347.516-.81 1.135-.696.057Zm2.414-14.884c-.233-.791-.738.79-.749-.71.291.63.713-.333.75.71Zm2.6-.791.245 1.043-.28-.321-.11.218c-.225-.126.141-.607.146-.94Zm.694-.068.292.09-.158 1.181-.134-1.271Zm3.172 1.58-.158-.778c.234-.276.371 1.283.743.94l-.254 1.133c-.287-.229.116-.48.05-.94-.514.78-.999-.297-1.788.253-.002-.882 1.145-.355 1.407-.607Zm.623 3.324-.583-.16c.463-.711.185-.803-.147-1.01.218-.962.672.482.73 1.17Zm-.696 4.17c-.222-.263-.423-.515-.59-.148l.054-.952c.398.573.587-.905.7-.297l-.164 1.398Zm-.28 3.576c-.254-.08-.052-1.043-.45-.837.232-.034.14-1.031.436-.848l.158.756-.109.218-.035.71Zm.764-1.49-.446 1.088-.232-1.272c.327.745.232.241.678.184Zm-10.7 5.18c-.289-.402-.28-.012-.678-.196l.13-.675.29.068.258.802Zm-4.036-.116c.346-.217.929-.835 1.293-.137-.538.344-.698.15-1.293.137Zm-5.017-.137c-.331-.78.525-.183.531-.825l.174.527-.705.298Zm-1.345-6.669c.15-.722.423.07.805-.263-.031.733-.376.218-.805.263Zm-6.132 14.358c.158-.32.402-.39.702-.287l-.702.287ZM43.672 9.538c-1.847-.034-4.063-.217-5.812-.16l-.616.538c-.633-1.02-1.107-.332-2.127-.836 2.916-1.112 7.388-.023 10.558-.218.256.619-1.518.676-2.003.676Zm-7.441 14.656c.642-.894 1.813-.206 2.867-.16 1.091.045 2.19-1.112 2.627.721-1.494-.148-3.792.344-5.495-.561Zm2.236-1.318c.266-.057.755.527.886.012.323.779-1.04 1.374-.886-.012Zm.495-2.04c-.306-1.065.462-.286.525-.595.233.642-.52.504-.525.595Zm2.554 2.166c-.511.562-1.238.699-1.678.034.458-.332 1.3-.332 1.678-.034Zm-6.163-4.87c1.355-1.26 3.145-.103 4.643-.16-1.525.962-3.15.412-4.644.16Zm-4.175-9.2c.331-.917.891-.195 1.385-.104-.273.642-.885.195-1.385.103Zm.411 15.41c-.153-.675-.966.7-.85-.721.417-.115.677.206 1.081.068l-.23.654Zm-6.859-.996c1.951-.046 4.101.126 5.897.492-1.591.654-4.039.459-5.897-.492Zm1.007-6.268c-.667-.298-1.014 0-1.356-.39l1.356.39Zm.836-10.69c-.794-.47-1.325.458-1.956-.321.413-.321 1.642-.86 1.956.32Zm.24 12.948c-.016 1.271-.912.206-.927.698-.154-.595.458-1.123.927-.698ZM28.92 8.77c-.72.63-1.76.138-2.468.023.814-.573 1.581-.538 2.468-.023Zm.789-.022c-.178.642-.271.206-.705.286.118-.458.398-.4.705-.286Zm8.844-1.375c-2.022 1.134-4.599.538-7.024.446 2.288-.973 4.817-.148 7.024-.446ZM32.894 6.26l-.722.516c-.19-.436.429-.665.722-.516Zm6.949.974c-.1.905-.607.516-1.01.459.17-.688.72-.161 1.01-.459Zm-.636-1.134c1.258-.046 2.771.367 4.107.653-.26.573-.524.149-.898.23-.62.125-.753.492-1.289.125-2.014-1.329-4.73.562-7.277-.332 1.511-.78 3.465-.619 5.357-.676Zm-28.705.057c-.578.069-1.796.332-2.574.149.438.951 1.42-.023 1.748.562-.694 1.111-2.457.194-3.141-.321.264-.62.922-.16.984.103.272.046.305-.699.532-.79 4.58.297 9.089-.654 14.414-.173-3.847 1.34-8.217.023-11.963.47ZM13.89 19.13c-.396-1.352 1.147-1.008 1.618-.722l-1.618.722ZM11.134 7.34c.462-.918 1.024-.562 1.591-.23-.449.333-1.02.286-1.591.23Zm2.527.79c-.033-.94.471-.16.705-.275-.047.687-.43.32-.705.275Zm.367.596-.054.962c-.404-.86-1.776.287-2.525-.79l.403-.115c-.116-.607-.22-.447-.474-.39.078-.767.505-.435.811-.48l-.035.721c.671.104 1.371-.264 1.874.092ZM10.153 7.27c.15-.951.547-.493.898-.207-.137.573-.549.31-.898.207Zm.303 1.787c-.143-.47-.338.115-.685-.206l.038-.722.071.504.576.424ZM7.457 7.854c.296.08.031 1.226.327 1.318l.24-.894-.311.378c.307-1.673 1.202.092 1.805-.619-.234.413-.042 1.043.086.264-.04 1.57-1.351.034-1.6.447l.153.79h-.689l-.01-1.684Zm1.138 2.796c-.704-.023-1.656.63-2.125-.951 2.268 1.524 6.204-.31 8.833 1.123-2.422.573-4.752-.08-6.708-.172Zm-2.712.79c-.255-.08-.246.688-.52.562 0-1.432-1.173.367-1.489-1.765l.17.562c.413-.665 1.35.263 2.34.572 1.573.493 3.883-.377 4.516.505.396-.733 1.105.103 1.967.137-2.151.332-4.965 1.192-6.984-.573Zm2.708 3.106-.191-.07c-1.065-.824-1.947-.48-2.625-.893.042-.619.909-.424 1.189-.068l.244-.894.06.756.523-.573c.406.034-.125.619.257.813.016-1.134 1-.366 1.323-.767-.051.756-.149.962.12 1.49-.402.263-.785-.665-.9.206Zm-3.388-1.398-.249-.814-.26 1.123c-.36-.332.058-1.226.185-1.638l.324 1.33Zm.918-6.245-.35-.836.59-.058c.28.951-.3.15-.24.894Zm-.446-2.83.402-.092-.158-.779.305-.138-.065 1.18-.484-.172ZM8.36 21.02c-1.387-.505-1.854-.78-2.81-1.203-.207-.481.227-1.272.373-1.559.154.298.016 1.123.234 1.295l.144-.916c.087-.023.265.343.687.217l-.138.688c.47-.092 1.22 1.822 1.474.24.209.035 0 .883.036 1.238Zm-3.674-1.73.004-1.948c.387-.207.745.733.765.504.3 1.18-.205 2.12-.77 1.444Zm-.423-1.364c.207-.218.018-.848-.087-.275l-.086-.275.029-.47c.398-.092.633 1.238.144 1.02Zm.065-10.668.144-.928-.196-.069c-.133.642-.915.344-.83-1.031.333 1.066 1.346.298 2.024.974-.418.15-.607.756-1.142 1.054ZM91.92 18.03c-.305-.665-1.178-.206-1.347-.584l.507-.367c-.594-.31-1.047.493-1.383.137l.047.975c-1.474.355-3.739.504-5.164.848l.23-.677c-1.932-.538-3.744.47-4.788-.768l-.036.723c-.571-.344-.851.24-1.07-.287.459-.206.25-.825.643-1.031l-.133.687c.307-.091.198-.114.485.138-.036-1.88.422.103.548-1.066l-.453-.87c-.015.607.153.813-.142.95l-.43-1.329c-.157.516.21.963-.044.951-.266-.378.107-1.524-.404-1.798.716-.184.669 1.008.902 1.684-.028-1.513-.229-1.49-.138-3.186l-.244.905c.093-.882-.422-.595-.207-1.752.392.389.78-.883 1.494-.344l.131-.688c.49-.4 1.871-.218 1.207-.4-.64-.184-1.467-.23-2.272.125l.045-.951c-.325-.47-.1.802-.325.642-.097-.482.1-1.1-.224-1.524l.127 1.49c-.265.435-.532.09-.776-.207.342 0 .271-.596.593-.08l-.235-1.284.693-.068.245-.894c.32.825.63-.493 1.284-.149.256-.264-.06-.917.147-.94.216.86 3.248 1.032 2.647.218.316-.034.363.436.56.642l.74-1.031c-.837.068-1.826-.333-2.56.045l.031-.71c-1.438.802-2.703-.653-3.472.55l.252-1.146c.56.23.793-.39.962.493l.229-.665c-.32.115-.36-.32-.462-.619l-.507.356.153-1.18c.047.859.107-.253.367.595l-.051-.985-.912.481c.163-2.394 1.316-.39 1.534-1.054-.422-.722-1.162-.63-1.754-.447l.036-.733-.58-.15c-.256.253.137.768-.147.94-.349.035-.196-.905-.547-.87-.098.974.316-.253.143.996-.183-.149-.943-.538-1.176-.069l-.062-.744c-.103 1.123-.667.813-.899.252l.145-.928c.387-.252-.036 1.077.356.825-.031-1.467.753.298 1.029-.951C70.959-.075 64.395-.362 57.722.486c.387.607.076.47.136 1.25l.582.16c-1.754.171-4.125.664-7.01.275l-.34.893c2.167.115 3.582-.195 4.894.585-1.563.607-3.32-.802-4.468.744-.273-.08.265-.595-.17-.538-.548 1.42-3.102-.092-4.315 1.5l-.545-.881c-.705.641-.873.309-1.311.595.369-.435-.32-.825-.38-.332-1.592.677-6.19-.561-7.327.63-.366-1.5-.546.516-.944-.756l.158.78c-.387.24-.156-.711-.463-.631-.815 1.34-3.48-.917-4.252.264l-.791.022c-.171-1.248-.151-.423-.391-.114.046-.516-.04-.79-.252-.79l-.39-.115c-.254.252.141.767-.147.928.015-1.398-1.225-1.467-1.856-.298-.5-.928-1.096-.069-1.668-.24l.025-.47c-.76-.505-1.442.332-2.171.091l.184.287c-.876-.08-1.005-.951-1.58.034.075-1.432-.394.734-.267-.561-2.236.87-5.075-.241-6.548.722-.14-.184-.102-.276-.362-.596-.54.94-2.892-.172-4.095.905-.295-.585-1.442-.436-2.05-.413-.808.035-1.67-.01-2.21.745.224-.79-.052-.79-.23-1.294l-.229.653c.25-1.364-.72.125-.609-1.673l-.386-.138-.45 1.077-.142-1.042c-.31.217-.784-.092-1.091.103l-.06-.745-.327.607c-.173-1.008-1.049-.24-1.631-.848l-.56 1.226c.5.722.658-.011.964.39L2.09 4.714c.48-.263.532.493.898-.126l.06.734c-.395.905-.713.194-.947 1.1.183.744.623.997.903 1.558l-.41.332c.317.264.69.31.908-.4.22.56-.27 1.18.12 1.512l.146-.928c.02 1.34.027-.596.3-.115l-.146.905c.351.39.233-.733.438-.802l.146 1.02c.878.103 1.087-.79 1.652.573.2-.103.042-1.34.267-1.364-.087.481.035 1.616-.185 1.627-1.191.15-2.325-1.146-2.511-1.111-.058 0-.107 1.673-.316.367-.174.63-.287 2.681.035 1.226l-.05.95c.35.081.57.368.642.963-.272-.011-1.198-.733-.898.16.33-.033 1.498 1.284 1.733.86 2.599 1.33 6.949.928 10.547 2.44-1.02.39-1.938-.206-2.856-.148-.467.023-1.458.08-1.034.882-.006-.722.77 0 1.396-.287l.063.757.135-.688c-.035.71.118 1.169.327 1.318-.331.332-.529-.378-.794 0l-.286-.092-.356-.86-.142.94c-.225-.389.209-.664-.051-.996l-.245.916c-.495-.263-.511-.091-.642-.95-.07.32.05 1.271-.158 1.168l-.694.023c-.113-.963-1.346.069-2.051-.424l.158.768c-.325-.344-.3.023-.467-.63-.527 1.352-1.214-.47-1.663-.321l.356-1.1c-.453-.516-.34.79-.55 1.03-.035-.354.179-1.179-.035-1.225-.335.447-.244-.011-.144.94-.26-.092-.213-.757-.345-1.1-.369 1.638-1.2-.528-1.749-.62-.042.585-.22.677.047.975l.126-.436.254.825c-.202.963-.611-.343-.916.401.325-.859-.633-.389-.398-1.856-.442-.39.102.665-.229.642-.113-1.284-.097-.195-.295-.115-.383.15-.683-.928-1.225-1.226l.047.997.39.16-.05.951.4-.091c-.227.401-.118.436-.291-.104.013 1.318.509 1.18.59 1.937-.577-.343-.713-1.317-1.03-1.146l-.045-1.008-.236.642-.07-.516c-.127 1.25.775 1.02.48 2.154-.367-.206-.816-1.41-1.143-.997 1.972 4.457 4.481 5.306 7.393 6.658l.264.561c1.294 1.18 2.614.527 3.823.757 1.912.355 3.788.847 5.704.55-.256-.23-.79.068-.863-.505 10.645.791 21.274 1.971 30.836.802l.185.299c-.138-1.273-1.123-.15-1.34-.872.22-.527.595-.217.157-1.168.398.424.843-.39.863.48l-.594.081c.558.734 1.71-.057 2.423.905-.358-.068-1.21-.263-1.013.459.482-.08 1.442.195 2.078-.172.856-.16-.863-.344-.765-.436 1.143-.527 2.32-.95 3.232.379.351-1.73 1.585.229 2.214-.849-.247-.584-1.443.608-1.643-.675.596-.367 1.62.4 1.968.045l-.032.71c1.067.127 2.154.31 3.172-.354l-.378-.344c1.739-.573 3.855.034 5.553-.688 1.086 2.051 3.485-.595 5.514.023.031.332.11 1.616.354.814-.543-.642.911-.642.769.458.469-1.444 1.049.103 1.711-.768l.342 1.066c.847-.962 2.61-2.395 3.584-.756-.78-.012-1.479-.08-2.201.63 1.06-.08 2.914.32 4.06-.378-.221.745.299 1.111.365.584l-.266-.55c.476.092 1.02.401 1.371.115l-.438.86c.358-.012.667-.161.916-.482l-.38-.367c.311.058.742-.366.974.276.824-.837 2.049-.413 2.865-.218-.023.32-.705-.046-.41.378.379.194.547-.424.667.412l-.049-.985.205-.184c1.156.172 2.43-.355 3.379-.573l-.036.711.316-.4-.183-.287.485.114-.12.47c.364-.447.522-.275.729-.79.231.973 1.75-1.662 2.056.286.031-.791.651-1.89 1.854-1.696-.025-.814-.034-1.662-.294-2.017.411-.905.794-1.352.545-3.025ZM4.73 14.683c-.418-.47-.576-.137-.963-.573l.963.573Zm47.838 12.089c.484-.115.673.481.897-.252-.369-.138-.709-.172-.898.252Zm3.838.069c.587-.035 1.194.023 1.605-.539-.52.218-1.27-.252-1.605.538Zm1.885-.218c.338.126.627.103.8-.275-.327-.103-.676-.252-.8.275ZM2.963 10.638l.147-.916.07.515.145-.928c-.298-.252-.318.344-.48-.16.151.767-.193 1.123.118 1.49Zm62.036 15.836.316-.39c-.82-.068-2.174-.034-.316.39Zm25.326-2.051c.465-.206.771.436 1.02-.71-.524-.344-.791.137-1.02.71ZM16.675 3.225c-.438-.16-.836-.241-1.091.149.564 0 .81.4 1.09-.15Zm63.883 13.544.398-.138c-.229-.275-.162-1.123-.531-1.111l-.03.493.088.252.075.504Zm2.708-2.934.06.756c.09-.95.602.356.81-.527-.401-.39-.321-.103-.87-.229ZM41.358 2.56c.258-.023.536.023.707-.286-.233.126-.742-.642-.707.286Zm39.654 8.983c.544.47 2.518.46 3.465-.309-1.294.16-2.047.092-3.465.31ZM57.513.681l-.291-.08-.087-.264-.046.94.377.355.047-.95Zm26.995 4.022c-.29-.252-.182-.23-.489-.138-.362-.034-1.774-.653-1.371-.114.591 0 1.407.676 1.86.252Zm2.387-.596-.093-.023c-1.62-.665.787.412.093.023Z" fill="#100F0D"/></svg>