<svg viewBox="0 0 91 33" fill="none" xmlns="http://www.w3.org/2000/svg" preserveAspectRatio="none"><path d="M2.637 15.995c.615-.533 1.928-.035 2.836-.586.449.197.449-.397 0-.253-.354-.342-.626.647-.739-.022l-.12-.245c-.458 1.126-2.08-.6-2.595.813.316.095.917-.622.618.293Zm3.329 4.794c.495.015.9 0 .985-.21-.242-.464-.763-.097-.985.21Zm43.467-2.394c-.09.33-.337-.109-.62.267-2.09-.035.927.81.62-.267Zm-32.972.307c-.71.211-.934-.102-1.36.505.461 0 1.466-.197 1.36-.505ZM.9 18.28c-.455.061-1.05-.218-.864.116.233.047.71.635.864-.116Zm1.612-1.083c.728-.03 1.412-.138 1.973-.124l-.121-.492c-.748.322-1.537-.054-1.852.616ZM80.17 14.2c-.255-.129-.856.431-.74-.457.251.129.856-.423.74.457Zm-18.15 1.76c.42-.948 1.721-.558 1.976-.558-.714.47-1.288 1.015-1.977.558ZM51.65 17.094c.022 1.062.042 2.133-.246 1.97-.288-.198.339-.622.121-1.474-.176-.852-.592.054-.866-.456.083.593.255 1.241-.245 1.227.051.532.726.3.495-.504.176.055.042.722.249.722-.47.451-.741.607-1.232.533-.08-.533.343-.785-.127-.724-.317.068.167.397 0 .963-1.324.225-2.148.109-2.964-.137-.176-.054-.853 1.025-.742-.45.636.86.757-.265 1.487.19v-.484c-.312-.409-.913.316-.992-.94v.724c-.393-.131-.382.47-.62.025.297-1.05.422-.443.125-1.221.662-.266 1.588-.006 1.85-1.05 5.095-.34 8.604-.444 12.719-.708l.369.7.866-.271c-3.366 1.507-6.52.547-10.247 1.365Zm1.852 1.637.616-.015c-.379-.158-.234-.163-.616.015ZM44 21.506c.176-.702.398-.327.983-.51-.222.804-.444.203-.983.51Zm-3.584.846c-2.764.641-5.68 2.279-7.652 2.647l.123-.477-.093-.165c.277-1.145 1.962-.948 2.558-1.12 2.678-.803 5.497-1.383 8.523-1.97-1.02 1.269-2.3.812-3.46 1.085Zm-9.26 3.18c.046-.901.8-.39 1.11-.765-.153.661-.61.764-1.11.764Zm-3.824-.635c1.388.367 2.043-1.208 3.209-.56-.808.97-2.644 1.794-3.21.56Zm20.98-9.632c.077.968-.675.314-.987.532.029-.765.618-.443.987-.532Zm11.237-.669c-1.306-.232-3.294.233-5.431.465-1.604.177-3.389.762-4.449-.083 3.813-.108 6.289-2.333 9.88-.382Zm30.495-2.081c-4.534 1.33-6.258.757-9.506 1.665-.01-.382.015-.846-.249-.716-1.123.395-2.308-.765-2.715.845l-1.357.082c-3.178-1.276-6.74 1.058-9.508-.798-1.408.71-3.237-.3-4.812.668l.365-.99c-.494-.054-.736-.626-1.11-.912-3.107 1.153-7.448.075-11.358.913-2.39.513-4.89 1.904-7.533 2.203.21.478-.005 1.809.253 2.191.378-.738 1.743-.833 2.218-.572-2.05 2.543-5.068.518-7.283 2.42l-.367-.728c.68-1.413 2.456.238 2.714-1.291-1.307.252-2.542.28-3.703.362.51-.73 2.43-.566 3.208-1.563-.913-.034-2.21.935-2.718-.409.519-.006 1.033-.035 1.113-.28-.664-.573.294-.64.494-.974l-.125-.486c1.084.383 1.814.963 2.59-.566 1.13.45 2.039-.538 2.593.15-.614.506-1.462.574-1.97 1.29 1.356-.614 3.01-.655 4.442-1.118l-.867-.942c2.056-.47 3.776-.6 5.926-1.187.357.137 1.33-.219.498-.266l-.746.034c-.53.02-.69.464-.987-.219-2.925.35-6.29.444-9.627 1.297-1.524.751-3.063.675-5.06 1.357-.321-.074-.374-.703-.741-.703-.293.09-.464.409-.866.266l.246.97c-.577-.143-1.478.362-1.852-.205.323-.266.83-.158.985-.75-1.5.17-2.612.477-4.07 1.078l.493.716c-4.06 1.131-7.207 1.985-10.74 3.348 2.172.138 4.567-1.69 6.544-.832-.776.355-1.713.398-2.098 1.509.869.143 1.535-1.386 2.221-.772-.38 2.291-1.445.634-2.713 1.254-.425 2.239-2.769 1.537-3.582 2.239-.013-.383.015-.833-.251-.723-.449-.143-.607.648-1.11.982-.585-1.166-1.47-.443-2.345-.231l-.244 1.704c3.404.532 7.833-3.465 11.237-1.834-2.313.983-4.695.32-7.408 2.052l-.495.021.495.233c.615-.096.899-.526 1.357.225.608-.983 1.976-1.12 2.964-1.248 2.77-.396 5.75-1.645 8.518-1.153 2.764-2.285 6.203-.267 8.89-2.682.133.226.038.888.37.71 1.74-.512 3.162-.826 4.2-.62-3.498.953-7.795 2.536-10.247 2.011-1.128 1.466-3.463 1.004-5.436 1.597l.25-.484c-.995.04-1.492.184-1.607 1.495v-.977c-.64.395-1.664-.007-1.972 1.017.54.496.803-.88.985.224-.3.137-.516.423-1.11.512-.304-.293.25-.927-.126-1.215.035.67-.736-.43-.37.24l.126.735c-.882.812-1.341.159-1.733-.217-.303-.055.504.887.005 1.22-.03-1.397-.086-.13-.249.009-.862.694-2.64.032-3.459 1.02 2.382.03 5.397-1.506 6.916-1.076-4.943 2.19-10.14 1.554-14.454 4.032.407.648 1.069-.54 1.487.251-2.226 1.065-4.75 1.319-6.925 1.617-1.158.172-2.935-.962-2.975.854.6-.866 2.492-.077 3.345-.116l-.37.722c7.415-.122 15.815-3.52 23.23-4.776 8.93-1.507 18.786-4.268 26.792-4.746 4.767.88 9.482.586 14.324.136 3.54-.329 8.372.095 12.473-.573 2.324-.376 4.714-.574 6.168-3.958.395-.059.523.418.987.199.339-3.348-.453-4.734-.873-6.767Zm-15.927-.225c1.055.076 2.639-.784 2.839.355-.055-2.062 1.766-.211 1.726-1.072-.585.09-.009-.457-.248-1.193-.212.43-.715.218-1.478.559.205-.776-.462-1.173-.125-.729-.691 1.5-2.283.014-3.21 1.118l-.245-.47c-.906 1.241-4.145.765-6.172.996 2.023.935 4.872.294 6.913.436Zm-51.61-1.938c-1.05.144-2.667.458-3.087 1.024.878.294 2.114-.034 3.088-1.024Zm.247.73c.323-.272.666-.422.862-.499l.348-.141c-.322.075-.852.109-.964-.348.167.696-.655.62-.246.989Zm1.21-.64c.256-.04.362-.116 0 0Zm24.96-1.276c-4.596.797-10.573 1.174-14.44 2.886 4.898-.785 10.261-1.712 14.519-1.917-.22-.226-.126-.827-.08-.969Zm.62.949-.541.02c.105.096.268.13.54-.02ZM80.04 8.362c.05.128 1.396-.67.99-.54-.308.068-1.439-.183-.99.54Zm-65.925 1.33c-.508.061-1.011.116-1.361.49.46 0 1.467-.19 1.361-.49ZM87.08 7.537c-1.164-.397-2.51-.077-3.46.654 1.14.17 1.536.272 2.222-.11l.497.465c-.271.054-.394-.184-.376-.723.34-.15.983.28 1.117-.286Zm-53.73.142.02-.233c-1.069 1.665-3.342.514-4.316 1.808.864-.136 4.866-1.167 5.16-1.33-.1.014-.63-.19-.864-.245ZM30.41 6.3c-.428.744-.998-.032-1.235.772.53.123 1.495-.157 1.236-.772Zm-9.136 8.221c-1.054 1.18-2.839.921-4.192 1.494 1.014-1.431 2.991-1.05 4.192-1.494Zm1.607-.511c-.015 1.098-.835.634-1.357.75.194-.634.722-.478 1.357-.75Zm5.922-2.797c-.611.928-2.047 1.228-2.84 1.03.55-1.127 1.967-.547 2.84-1.03Zm4.446-1.085c-.82 1.132-2.94 1.303-3.705 1.064.92-.968 2.366-.914 3.705-1.064Zm1.852-.286c-.126.62-.803.982-1.113.51.044-.812.715-.389 1.113-.51Zm6.293-1.167c-.947 1.037-2.577.75-3.7.852 1.294-1.084 2.495-.442 3.7-.852ZM69.414 3.47c3.398-.3 4.777-.26 6.914-.553l.37.962c.22-.075.28-.43.25-.988.41.204.06.456.125 1.214-.356.067-.675.067-.62-.703l-.246.02c-1.053.438-4.967.574-6.42.288-.293-.145-.898.334-.993-.213l.62-.027ZM77.07.94l.862.217c.394.832-.968.39-1.352.54-.27-.95.954-.226.49-.758Zm.249 2.421c-.121-.88.488-.354.74-.525-.01.627-.413.511-.74.525Zm8.516-.396c-1.443-.129-3.112-.103-5.678.02 1.685-.722 4.484-.96 5.678-.02Zm-.737-1.91c-.811-.477-1.79.493-2.597-.627.52.423 1.786-.464 2.597.627ZM6.83 17.891c3.268.232 6.797-2.503 10.003-1.876-1.478.846-2.953.484-4.2 1.48 3.373-.443 6.863-1.807 10-2.517.914 1.644 2.649.64 4.197.163.483-.129 1.099.58 1.235-.736-1.895-.191-3.59 1.104-4.94.573.976-.45 2.242-.511 2.968-.79.299-.329-.137-.901.12-.97.944-.198 2.11-1.23 3.084-.552-.96.927-2.195-.083-2.714 1.514 2.259-1.281 5.436-.642 7.776-2.381-1.795-.478-3.576 1.625-4.937.375 7.116-1.248 14.544-4.182 21.726-3.329l-.368.737c.973-.408 2.164-.825 3.21-.362.27-1.426 1.217-1.547 2.22-1.547-.458 1.172.88.382 1.11.927l-.987-.927c5.85-.315 12.013-.315 16.67-1.434-.589-.163-.68.178-.992-.436 1.163-.676 3.136.191 3.95-1.166 1.392.11 3.006.552 4.32-.43-.81-.068-1.875.376-2.222-.642 1.935.15 6.117-.613 8.028.846-1.034.437-3.116-.7-4.323.458 2.214-.321 5.165.62 7.037.142-.757-1.398-1.59.315-2.593-.607l.367-.981c.229 1.234 1.876.456 2.223-.116-.099 1.221.264.361.495.226-.347-.977-.378-1.072-.62-2.164.57-.498.892.77 1.11.186-.268-.343-.525-.725-.985-.684-.407.368-.206.757-.371 1.242l-.49-.463.485-.998c-.499-.319-.385.54-.741.512C85.482-.228 81.541-.2 79.162.36c.772 1.344 1.927-.62 2.844.601-1.148.218-2.056.204-2.844.374l.126-.737c-.324.009-.82.158-.493-.47-1.816.082-2.421.601-3.578 1.379l.365.239-.364-.24c-.2-.288.01-.764-.372-1.207-.073.75-.733.71-1.11.798l.369.702c-.546.138-.818.424-1.357-.177.277-.197.963.404.862-.518-1.852-.15-3.762.143-4.937.452 1.22.804 3.077-.895 3.952.558-1.198-.356-3.351.355-4.446-.047-.02-.334.629-.518.25-.737-.204.512-.785.04-1.117-.451-.178 2.155.665.061.741 1.44-.943-.13-2.218.407-2.957-.124.096-.551 1.457.069.86-1.016-.5.888-.838.04-1.727.082-.484 1.501-1.73-.532-1.977.813.803.836 2.422-.397 2.714.121-.741 1.303-1.896.704-2.835.853-8.804 1.364-16.168 2.006-25.55 4.072-.254-.04-1.42.021-.74.261 3.303-.268 5.866-.896 8.15-.738-.575.9-1.168.662-1.978.8-6.036.988-12.54 1.942-17.532 3.86-.756.27-1.581.047-2.342.265-3.604 1.051-7.08 2.552-10.988 3.22-.257.083.183.675-.246.73-2.18-.329-4.163.552-6.296 1.323 5.977-.559 13.425-3.398 19.507-4.318-6.834 2.716-14.786 5.014-21.359 5.423 1.091 1.501 2.73-.15 4.073-.054Zm-4.6 13.908c-.655.096-1.443-.865-1.871-.455.488.6 1.246.655 1.622 1.411l.249-.956Zm-.985-2.53c.54-.259 1.117.654 1.363.11-.339-.192-1.33-.819-1.363-.11Zm17.809-4.489c-.475.197-1.216-.109-1.352.751.453-.13.943-.047 1.352-.75ZM7.197 21.554c-.213-.156-.382.239-.49.239-1.704.014-.277.703.49-.239Zm9.636-.9c-.563.45-1.53.08-1.977.737.99-.131 1.47.225 1.977-.736Zm.985-.007c.469.326 1.627 0 2.223-.764-1.104.123-1.602-1.065-2.223.764Zm-.12-1.945h-.986c.455-.416.814 1.365.985 0Zm-2.222-.484c1.43 0 .944-1.241 0 0Zm26.67-1.766c-.41.51-.858.476-1.237.033-.253.663-.116.942-.25 1.474.89-.047.811-1.167 1.607-.532l-.12-.975Zm-2.719-.65c.145 1.155 1.07.528 1.357-.039-.666.087-.737.238-1.357.04Zm-18.154.91.125-.738c-.475-.21-.534.41-.741.743l.616-.006Zm-19.995-.833.371.272-.246-.995-.37.45c-1.774.518-.589.409.245.273Zm2.348-2.271c-.444.08-.827.28-1.11.66.516.097 1.029.164 1.11-.66Zm2.223-.376c-.618.144-1.431-.117-1.732.655.558-.54 1.622.204 1.732-.655Zm31.722-.547c.354.049.627-.074.741-.51-.257.17-.862-.362-.74.51Zm29.634-1.569c-.218-.402-1.272-.347-1.487.069.372.272.838-.204 1.487-.069Zm21.11-1.95.984-.764c-.42-.068-1.332.17-.985.764Zm-74.94 1.74c-2.406 1.173-5.632.886-7.405 2.578 2.718-.614 5.66-1.514 7.525-2.08l-.12-.499Zm46.047-1.42c.405.109 1.02.28 1.357-.305-.413.19-1.143-.246-1.357.305Zm-1.356.054-.992.049c-.69-.034-.143.437.246.232.625-.185 1.564.26 1.981-.313-.276-.2-.508-.232-1.114-.22l-.121.252Zm5.922-.729c-.733.955-1.639.102-2.588.602-.293-.184-.57.374-.126.244 3.353-.054 5.214.049 7.408-.798-2.133-.349-3.67.586-4.694-.048Zm-47.401 1.366c-1.042.067-2.036.216-2.718.988.937.048 2.157.292 2.718-.988Zm61.35-2.199c.364.867 1.397.293 1.856-.095-.58-.006-1.185-.525-1.855.095Zm-.123 0c-.496.062-1.007-.593-1.603.062.682-.185 1.175.982 1.603-.062Zm-52.957 2.587c.136-1.617 1.161.018 1.478-1.248-.836.08-2.204.395-2.47.77.427-.026.89-.137.992.478Zm2.463-1.276c.29.381 1.275.505 1.236-.505-.429.13-1.172-.348-1.236.505Zm-9.997 1.125c3.732-.708 7.486-1.337 11.112-3.335-3.813 1.064-7.01 1.214-11.112 3.335Zm15.059-3.676c.556.334.616-.955.987-.273.123-1.426-.912-.204-.739.027l-.253-.485.005.731Zm7.404-1.904.616.22c-.16-.029-.889-.015-.49.25.727-.086.705-.3 1.11-.756-.332.09-1.5-.186-1.236.286Zm7.16-.974c-.972.032-1.316.375-1.975.074.453.906 1.51.444 1.975-.074Zm-2.098.565-.126-.737c-.826.826-2.102.246-2.344 1.058.913.061 1.698-.123 2.47-.32Zm7.083-1.23.063-.1-.063.1Zm0 0h-.046c-.262-.441-1.74-.223-2.344.577.55-.52 1.857.127 2.39-.576Zm.063-.1.137-.395c-.41-.11-.141.217-.137.395Zm7.173-.178c1.089-.04 2.439-.04 2.964-1.091-2.893.874-7.432-.123-8.395 1.31 2.146-.396 3.767-.13 5.431-.219Zm8.022-1.05v-.743c-.358.245-.378.245-.736.04.037 1.195.413.3.736.702Z" fill="#100F0D"/></svg>