<svg viewBox="0 0 91 33" fill="none" xmlns="http://www.w3.org/2000/svg" preserveAspectRatio="none">
    <path d="M2.63663 15.995C3.25231 15.462 4.56512 15.9603 5.47328 15.4087C5.92184 15.6057 5.92184 15.0123 5.47328 15.156C5.11927 14.8142 4.84655 15.8027 4.73447 15.134L4.61348 14.8895C4.15609 16.0147 2.53327 14.2892 2.01865 15.7018C2.33535 15.7969 2.93561 15.0796 2.63663 15.995V15.995ZM5.96574 20.7892C6.46059 20.8043 6.86517 20.7892 6.95099 20.5783C6.70908 20.1148 6.18787 20.4821 5.96574 20.7892ZM49.4326 18.395C49.3425 18.7241 49.0962 18.2861 48.8125 18.6616C46.7236 18.6268 49.7404 19.4727 49.4326 18.395ZM16.4614 18.7021C15.7513 18.913 15.5269 18.6001 15.1003 19.2074C15.562 19.2074 16.5669 19.0104 16.4614 18.7021ZM0.899482 18.2791C0.444256 18.3405 -0.151655 18.0613 0.035226 18.395C0.2684 18.4425 0.745537 19.0301 0.899482 18.2791ZM2.51128 17.1956C3.23905 17.1667 3.92292 17.0577 4.48374 17.0716L4.36275 16.5803C3.61513 16.9024 2.82574 16.5258 2.51128 17.1956ZM80.1695 14.2C79.9145 14.0714 79.3141 14.6311 79.4308 13.7434C79.6815 13.872 80.286 13.3204 80.1695 14.2ZM62.0193 15.9603C62.4395 15.0123 63.7412 15.4017 63.9962 15.4017C63.2816 15.8722 62.7076 16.4169 62.0193 15.9603ZM51.6513 17.0936C51.6733 18.1563 51.6931 19.2271 51.4052 19.0648C51.1168 18.8655 51.7437 18.4425 51.526 17.5896C51.3502 16.7379 50.9344 17.6441 50.6596 17.1342C50.7431 17.7275 50.9146 18.3753 50.4153 18.3614C50.4661 18.8933 51.1411 18.6616 50.9104 17.8573C51.0862 17.9118 50.952 18.5793 51.1588 18.5793C50.6882 19.0301 50.4177 19.1865 49.9273 19.1123C49.8461 18.5793 50.2704 18.3266 49.7998 18.3881C49.4832 18.4564 49.9669 18.7855 49.7998 19.3511C48.4761 19.5759 47.6515 19.46 46.8356 19.2143C46.6597 19.1599 45.9825 20.2387 46.0945 18.7635C46.7301 19.6234 46.8509 18.4993 47.581 18.9547V18.4704C47.2687 18.0613 46.6685 18.7856 46.5893 17.5294V18.2536C46.1958 18.1227 46.2067 18.7241 45.9692 18.2791C46.2662 17.2292 46.3913 17.8364 46.0945 17.0577C46.7564 16.7923 47.6823 17.0519 47.9439 16.0078C53.039 15.6671 56.5484 15.564 60.6627 15.2997L61.032 16.0008L61.8983 15.7285C58.5318 17.2362 55.3785 16.2755 51.6513 17.0936V17.0936ZM53.5029 18.7311L54.1186 18.716C53.7404 18.5584 53.8854 18.5526 53.5029 18.7311ZM44.0011 21.5065C44.1771 20.8043 44.3991 21.1786 44.9841 20.9955C44.762 21.7997 44.5398 21.1994 44.0011 21.5065ZM40.4169 22.3525C37.6528 22.9933 34.7369 24.6308 32.7646 24.9993L32.8876 24.5219L32.7952 24.3573C33.0723 23.2123 34.7568 23.4094 35.3527 23.2379C38.031 22.4336 40.85 21.8542 43.8758 21.2678C42.8554 22.5356 41.5756 22.079 40.4169 22.3525V22.3525ZM31.157 25.5312C31.2033 24.6308 31.9576 25.1418 32.2677 24.7675C32.1137 25.4281 31.6563 25.5312 31.157 25.5312ZM27.3329 24.8973C28.7207 25.2635 29.3759 23.6886 30.5415 24.3376C29.7345 25.3064 27.8981 26.1315 27.3329 24.8973ZM48.3133 15.265C48.3902 16.2326 47.6381 15.579 47.326 15.7969C47.3545 15.032 47.9439 15.3542 48.3133 15.265ZM59.5501 14.5963C58.2438 14.3645 56.256 14.8292 54.1186 15.061C52.5154 15.2383 50.73 15.8235 49.6701 14.9776C53.4831 14.8698 55.959 12.6448 59.5501 14.5963V14.5963ZM90.0449 12.515C85.5109 13.8454 83.7867 13.2718 80.5391 14.1803C80.5281 13.7979 80.5544 13.3343 80.2905 13.4641C79.1669 13.8593 77.9816 12.6993 77.5747 14.3089L76.2179 14.3912C73.0405 13.1153 69.4783 15.4492 66.7099 13.5927C65.3024 14.3031 63.473 13.2926 61.8983 14.2614L62.2633 13.2717C61.7686 13.2173 61.5268 12.6448 61.1531 12.3586C58.0459 13.5116 53.7051 12.4339 49.7953 13.2717C47.4051 13.7851 44.905 15.1757 42.2618 15.4747C42.4729 15.9533 42.2575 17.2837 42.5146 17.6661C42.8928 16.9279 44.2583 16.8329 44.7334 17.0936C42.6839 19.6373 39.6648 17.6117 37.4504 19.5145L37.0832 18.7856C37.7627 17.3729 39.5393 19.0243 39.7969 17.4946C38.4904 17.7472 37.2548 17.775 36.0938 17.8573C36.6038 17.1272 38.5236 17.2906 39.3021 16.294C38.3894 16.2604 37.092 17.2292 36.584 15.885C37.103 15.8792 37.6175 15.8502 37.6968 15.6057C37.0328 15.032 37.9912 14.9648 38.1915 14.6311L38.066 14.1455C39.1503 14.5279 39.8802 15.1085 40.6564 13.5788C41.7869 14.0296 42.6949 13.0411 43.2491 13.7283C42.6355 14.2347 41.7869 14.3031 41.2788 15.0193C42.6355 14.4051 44.2891 14.3645 45.7209 13.901L44.8544 12.9589C46.9104 12.4884 48.6301 12.3586 50.7804 11.7722C51.1366 11.9089 52.1109 11.5532 51.2775 11.5057L50.5321 11.5404C50.002 11.5601 49.8416 12.004 49.5446 11.3214C46.6201 11.6702 43.2555 11.7653 39.9177 12.6182C38.3939 13.3691 36.8547 13.2926 34.8578 13.9752C34.5369 13.901 34.4841 13.2717 34.1169 13.2717C33.8244 13.3621 33.653 13.6808 33.2506 13.5383L33.4968 14.5071C32.9205 14.3645 32.019 14.8698 31.6453 14.3031C31.9684 14.0366 32.4742 14.1455 32.6304 13.5533C31.1308 13.7225 30.0179 14.0296 28.5601 14.6311L29.0526 15.3472C24.9933 16.4783 21.8465 17.3324 18.3129 18.6952C20.4854 18.8331 22.8801 17.0044 24.857 17.8631C24.0808 18.2177 23.1441 18.2606 22.7593 19.3719C23.6277 19.5145 24.294 17.9859 24.9802 18.6001C24.5998 20.8912 23.5355 19.234 22.2665 19.854C21.8422 22.0929 19.4983 21.3907 18.6845 22.0929C18.6715 21.7105 18.7 21.2597 18.434 21.3698C17.9854 21.2273 17.8271 22.0176 17.3233 22.3525C16.7386 21.1855 15.8545 21.9087 14.9794 22.1207L14.7352 23.8254C18.1391 24.3573 22.5678 20.3604 25.972 21.9909C23.6587 22.9736 21.2771 22.3119 18.5636 24.0432L18.0689 24.0641L18.5636 24.297C19.1794 24.2008 19.4628 23.7709 19.9205 24.5219C20.5295 23.5392 21.8974 23.4024 22.8846 23.2738C25.6552 22.8775 28.6348 21.6294 31.4034 22.1207C34.1673 19.8355 37.6065 21.8542 40.2937 19.4391C40.4257 19.6651 40.331 20.3268 40.6633 20.1484C42.4024 19.6373 43.8254 19.3233 44.8631 19.5284C41.3646 20.4821 37.0679 22.0651 34.6159 21.5401C33.4878 23.0061 31.1525 22.5437 29.1803 23.137L29.4308 22.6526C28.4347 22.6932 27.9379 22.8369 27.8235 24.1476V23.1706C27.1834 23.5658 26.1589 23.1637 25.8509 24.1881C26.3919 24.6841 26.6536 23.3074 26.836 24.4118C26.5369 24.5485 26.3196 24.8348 25.7256 24.924C25.4221 24.6308 25.9763 23.9969 25.6002 23.7095C25.6354 24.3793 24.8637 23.2796 25.2309 23.9494L25.3562 24.6841C24.4743 25.4964 24.0149 24.8429 23.6234 24.4674C23.3199 24.4118 24.1269 25.3539 23.6277 25.6876C23.5971 24.2901 23.5421 25.5579 23.3793 25.6958C22.5174 26.3899 20.7383 25.7282 19.9205 26.7167C22.302 26.7457 25.3166 25.2102 26.836 25.6401C21.8928 27.8292 16.6966 27.1942 12.3824 29.6718C12.7893 30.3196 13.4509 29.1329 13.869 29.9232C11.6435 30.9882 9.11915 31.242 6.9444 31.5398C5.78553 31.7125 4.00874 30.578 3.96913 32.3939C4.56948 31.5283 6.46059 32.3174 7.3138 32.278L6.9444 33C14.3592 32.8783 22.7593 29.4806 30.1741 28.2244C39.104 26.7167 48.9598 23.9563 56.9661 23.4777C61.7335 24.3573 66.448 24.0641 71.29 23.6145C74.8305 23.2854 79.6617 23.7095 83.7626 23.0409C86.0868 22.6654 88.477 22.4672 89.9308 19.0834C90.3264 19.0243 90.4541 19.5006 90.9178 19.2816C91.2566 15.9336 90.4651 14.5476 90.0449 12.515V12.515ZM74.118 12.2902C75.1733 12.3655 76.7569 11.5057 76.9568 12.6448C76.9019 10.5832 78.7226 12.4339 78.683 11.5729C78.0981 11.6621 78.6742 11.1163 78.4347 10.3804C78.2234 10.8104 77.7199 10.5983 76.9568 10.939C77.1616 10.1626 76.4953 9.76623 76.8317 10.2101C76.141 11.7096 74.549 10.224 73.6211 11.3284L73.3771 10.8579C72.4709 12.099 69.2321 11.6227 67.2046 11.8545C69.2276 12.7885 72.0774 12.1477 74.118 12.2902V12.2902ZM22.5086 10.3515C21.4576 10.4963 19.8412 10.8103 19.4212 11.3759C20.2987 11.6702 21.5345 11.3423 22.5086 10.3515ZM22.7548 11.0827C23.078 10.8104 23.4211 10.6597 23.6169 10.5832L23.9645 10.4418C23.6432 10.5172 23.1131 10.5508 23.0011 10.0942C23.1683 10.7895 22.3458 10.7142 22.7548 11.0827V11.0827ZM23.9645 10.4418C24.2214 10.4013 24.3272 10.326 23.9645 10.4418V10.4418ZM48.9245 9.16595C44.3287 9.96324 38.352 10.3399 34.4841 12.0515C39.3834 11.2669 44.7465 10.3398 49.0038 10.1347C48.7839 9.90876 48.8784 9.30849 48.9245 9.16595ZM49.5446 10.115L49.0038 10.1347C49.1093 10.2309 49.2719 10.2645 49.5446 10.115ZM80.0398 8.36171C80.0903 8.49035 81.4363 7.69188 81.0293 7.82283C80.7215 7.89005 79.5912 7.63859 80.0398 8.36171ZM14.1151 9.69207C13.6071 9.75349 13.1036 9.80795 12.754 10.1823C13.2136 10.1823 14.2207 9.99221 14.1151 9.69207ZM87.0788 7.5366C85.9154 7.14027 84.5697 7.4601 83.6195 8.19134C84.7588 8.36169 85.1547 8.46251 85.8407 8.08009L86.3375 8.54595C86.067 8.60042 85.9438 8.3617 85.9617 7.82283C86.3024 7.67334 86.9446 8.10212 87.0788 7.5366V7.5366ZM33.3493 7.67914L33.3691 7.44621C32.3005 9.11147 30.0266 7.95959 29.0526 9.25402C29.9167 9.11844 33.919 8.08706 34.2136 7.92483C34.1126 7.93757 33.5823 7.7336 33.3493 7.67914ZM30.4095 6.30012C29.9805 7.0441 29.411 6.26766 29.1735 7.0719C29.7035 7.19474 30.6688 6.91547 30.4095 6.30012ZM21.2728 14.521C20.2194 15.7019 18.434 15.4423 17.0815 16.0147C18.0952 14.5836 20.0721 14.9648 21.2728 14.521ZM22.8801 14.0099C22.8648 15.1085 22.0447 14.6438 21.5235 14.7597C21.7169 14.1258 22.2448 14.2823 22.8801 14.0099ZM28.802 11.2125C28.1907 12.1407 26.7546 12.4409 25.9629 12.2427C26.5128 11.1163 27.929 11.6957 28.802 11.2125ZM33.2483 10.1278C32.428 11.26 30.3083 11.4315 29.543 11.1916C30.4622 10.224 31.9091 10.2785 33.2483 10.1278ZM35.0998 9.84154C34.9745 10.4627 34.2972 10.8243 33.987 10.3515C34.0312 9.54026 34.7016 9.96322 35.0998 9.84154ZM41.3932 8.6746C40.4456 9.71177 38.8161 9.42436 37.6923 9.5275C38.9875 8.44281 40.188 9.08483 41.3932 8.6746ZM69.4143 3.47019C72.8118 3.17004 74.1906 3.2106 76.3279 2.91741L76.6973 3.87926C76.9174 3.80394 76.9788 3.44933 76.948 2.89076C77.3572 3.09472 77.0074 3.34735 77.0733 4.10523C76.7171 4.17245 76.3983 4.17247 76.4533 3.40183L76.2069 3.42268C75.1539 3.85957 71.2398 3.99631 69.7862 3.71008C69.4938 3.56522 68.8888 4.04381 68.7943 3.49684L69.4143 3.47019ZM77.0688 0.939277L77.9311 1.15713C78.3246 1.98918 76.9635 1.54768 76.5786 1.69717C76.3081 0.746913 77.5331 1.47119 77.0688 0.939277ZM77.3176 3.36126C77.1965 2.48054 77.8058 3.00665 78.0586 2.8363C78.0477 3.46324 77.6451 3.34736 77.3176 3.36126ZM85.834 2.96494C84.3914 2.83631 82.7225 2.8618 80.1564 2.9858C81.8408 2.26267 84.64 2.02512 85.834 2.96494ZM85.0974 1.05516C84.2859 0.577716 83.3075 1.54766 82.5003 0.428206C83.0193 0.851187 84.2859 -0.0364741 85.0974 1.05516ZM6.82999 17.8909C10.0976 18.1227 13.6269 15.3878 16.8331 16.0147C15.3553 16.8607 13.8798 16.4991 12.633 17.4946C16.0063 17.0519 19.496 15.6879 22.6337 14.9776C23.5465 16.622 25.2815 15.6184 26.8296 15.141C27.3133 15.0124 27.929 15.7216 28.0652 14.4051C26.1697 14.2139 24.4743 15.5095 23.1241 14.9776C24.1006 14.5279 25.3672 14.4665 26.093 14.1872C26.3919 13.8593 25.9565 13.2868 26.2138 13.2173C27.1572 13.0203 28.3225 11.9889 29.2967 12.6657C28.3378 13.5927 27.1022 12.5834 26.5832 14.1803C28.8416 12.8986 32.019 13.5383 34.3587 11.7989C32.5643 11.3214 30.7832 13.4236 29.422 12.1743C36.5379 10.9262 43.966 7.99203 51.1476 8.84495L50.7804 9.58196C51.7526 9.17404 52.9442 8.75687 53.9909 9.22041C54.2595 7.79387 55.2071 7.67334 56.2097 7.67334C55.7522 8.84493 57.0893 8.0546 57.3201 8.60042L56.3329 7.67334C62.1821 7.35813 68.3458 7.35814 73.0032 6.23869C72.414 6.07646 72.3235 6.41716 72.0113 5.80297C73.1745 5.12736 75.1471 5.99417 75.9609 4.63716C77.3527 4.74609 78.9667 5.18877 80.2817 4.20723C79.4702 4.13886 78.406 4.58269 78.0586 3.56522C79.9938 3.71471 84.1761 2.95219 86.0868 4.41119C85.0533 4.84807 82.9709 3.71008 81.7637 4.86893C83.9781 4.54792 86.9289 5.48891 88.8005 5.01146C88.0441 3.61273 87.2106 5.32551 86.2079 4.40423L86.5751 3.42268C86.8038 4.65686 88.4507 3.87927 88.7981 3.3068C88.6993 4.52823 89.062 3.66835 89.2929 3.53277C88.9457 2.55586 88.9149 2.46084 88.673 1.36921C89.2424 0.870901 89.5655 2.13982 89.7833 1.5546C89.5151 1.21159 89.2577 0.830335 88.7981 0.870895C88.3915 1.23941 88.5916 1.62762 88.4266 2.11318L87.9362 1.64964L88.4221 0.651885C87.9231 0.333201 88.0373 1.1919 87.681 1.16409C85.4823 -0.227691 81.5418 -0.199873 79.1624 0.358692C79.9343 1.70296 81.0887 -0.261299 82.0056 0.960129C80.8578 1.17799 79.9496 1.16408 79.1624 1.33443L79.2878 0.597422C78.9643 0.605534 78.4674 0.755019 78.7952 0.126923C76.9788 0.209201 76.374 0.728354 75.2175 1.50594L75.5825 1.74467L75.2175 1.50594C75.0174 1.21739 75.2287 0.741111 74.8458 0.29843C74.7734 1.04821 74.1135 1.00763 73.7355 1.0957L74.1049 1.79797C73.5593 1.93588 73.2869 2.22211 72.7482 1.62067C73.025 1.42366 73.7112 2.02511 73.6102 1.10266C71.7584 0.953173 69.8476 1.24635 68.6734 1.5546C69.8937 2.35885 71.7498 0.659981 72.625 2.11318C71.4265 1.75741 69.2737 2.4678 68.1787 2.06568C68.1589 1.73193 68.8076 1.54766 68.4292 1.32863C68.2248 1.84085 67.6444 1.36921 67.3123 0.877855C67.134 3.03332 67.9765 0.939266 68.0532 2.3183C67.11 2.18735 65.8346 2.72505 65.0959 2.19429C65.1924 1.64268 66.5535 2.26266 65.9556 1.17798C65.4564 2.06566 65.1176 1.2174 64.2294 1.26028C63.7453 2.76099 62.4987 0.72837 62.2525 2.07264C63.055 2.90932 64.6735 1.67629 64.9658 2.19429C64.2249 3.49684 63.0703 2.89773 62.1313 3.04722C53.3269 4.41118 45.9627 5.05317 36.5818 7.1194C36.3268 7.07884 35.1612 7.14026 35.8409 7.38014C39.1436 7.11245 41.7074 6.48437 43.9902 6.64197C43.4162 7.5424 42.8226 7.30366 42.0133 7.44157C35.9771 8.43007 29.4726 9.38381 24.481 11.3017C23.7246 11.5729 22.8999 11.3492 22.1392 11.5671C18.535 12.6182 15.0585 14.1189 11.1508 14.7864C10.8938 14.8698 11.3335 15.462 10.9045 15.5165C8.72554 15.1885 6.7421 16.0692 4.60902 16.8398C10.5858 16.2813 18.0338 13.4421 24.1159 12.522C17.2817 15.2383 9.33026 17.5363 2.75746 17.9454C3.8483 19.4461 5.48646 17.7959 6.82999 17.8909V17.8909ZM2.22975 31.7994C1.57454 31.8945 0.787299 30.9338 0.358515 31.344C0.846676 31.9431 1.60526 31.9988 1.98126 32.7555L2.22975 31.7994ZM1.24466 29.2697C1.78563 29.0101 2.36179 29.9233 2.60797 29.3786C2.26946 29.1874 1.2777 28.5605 1.24466 29.2697ZM19.054 24.7803C18.5791 24.9773 17.838 24.6714 17.7015 25.5312C18.1546 25.4014 18.6448 25.4837 19.054 24.7803ZM7.19724 21.554C6.98392 21.3976 6.8146 21.7928 6.70685 21.7928C5.00272 21.8067 6.42985 22.4962 7.19724 21.554ZM16.8331 20.6548C16.2703 21.1044 15.3027 20.7347 14.8562 21.3907C15.8457 21.2597 16.3251 21.6155 16.8331 20.6548ZM17.8182 20.6467C18.2867 20.9734 19.4454 20.6467 20.0415 19.883C18.9373 20.0058 18.4385 18.818 17.8182 20.6467ZM17.6974 18.7021H16.7121C17.1674 18.2861 17.5258 20.0673 17.6974 18.7021ZM15.4763 18.2177C16.9057 18.2177 16.4198 16.9766 15.4763 18.2177V18.2177ZM42.1453 16.4516C41.7361 16.9627 41.2877 16.9279 40.9093 16.4852C40.6564 17.1481 40.793 17.4274 40.6588 17.9593C41.5493 17.9118 41.4703 16.7923 42.2661 17.4274L42.1453 16.4516ZM39.4273 15.8027C39.5725 16.9569 40.4962 16.3299 40.7841 15.7633C40.1178 15.8502 40.0474 16.0008 39.4273 15.8027ZM21.2728 16.7112L21.3981 15.9742C20.9232 15.7633 20.8638 16.3833 20.657 16.717L21.2728 16.7112ZM1.2777 15.8792L1.64932 16.1515L1.40298 15.156L1.03358 15.6057C-0.740975 16.1237 0.444257 16.0147 1.2777 15.8792ZM3.62617 13.6078C3.18189 13.6878 2.79938 13.8871 2.51564 14.2684C3.0324 14.3646 3.54471 14.4317 3.62617 13.6078ZM5.84936 13.2323C5.23138 13.376 4.41777 13.1153 4.11657 13.8871C4.67499 13.3471 5.73931 14.091 5.84936 13.2323ZM37.5712 12.6854C37.9253 12.734 38.198 12.6112 38.3123 12.1743C38.0552 12.3447 37.4504 11.8127 37.5712 12.6854ZM67.2046 11.1163C66.9868 10.7142 65.9335 10.7686 65.7179 11.1847C66.0898 11.457 66.5559 10.9807 67.2046 11.1163ZM88.3144 9.16595L89.2995 8.40226C88.8797 8.33389 87.967 8.57262 88.3144 9.16595ZM13.3741 10.9054C10.9685 12.0793 7.74259 11.7919 5.97019 13.4838C8.68813 12.8696 11.6303 11.9704 13.4949 11.4037L13.3741 10.9054ZM59.4224 9.48579C59.827 9.59472 60.4426 9.76622 60.7792 9.181C60.3657 9.37105 59.6358 8.93534 59.4224 9.48579ZM58.0657 9.54026L57.074 9.58892C56.3835 9.55531 56.931 10.0258 57.3201 9.82069C57.9447 9.63643 58.8837 10.0803 59.3015 9.5078C59.0246 9.30848 58.7935 9.27605 58.1866 9.28879L58.0657 9.54026ZM63.9876 8.81133C63.2551 9.76623 62.3491 8.91331 61.3995 9.41277C61.1068 9.22851 60.8296 9.78709 61.2739 9.6573C64.6272 9.60283 66.4876 9.70596 68.6821 8.85884C66.5492 8.51002 65.0121 9.44523 63.9876 8.81133V8.81133ZM16.5867 10.1765C15.5446 10.2437 14.5506 10.3932 13.869 11.165C14.8056 11.2125 16.0261 11.457 16.5867 10.1765ZM77.9376 7.97813C78.3005 8.84495 79.3339 8.27131 79.7935 7.88309C79.213 7.8773 78.6083 7.35814 77.9376 7.97813ZM77.8144 7.97813C77.3176 8.03955 76.8073 7.3848 76.2114 8.03955C76.8931 7.85529 77.3858 9.02225 77.8144 7.97813ZM24.857 10.5647C24.9933 8.94807 26.0181 10.5832 26.3349 9.31661C25.499 9.39772 24.1314 9.71176 23.8652 10.0872C24.2921 10.0606 24.7558 9.95047 24.857 10.5647V10.5647ZM27.32 9.28879C27.6101 9.67006 28.5954 9.79404 28.5556 8.78352C28.127 8.91331 27.3835 8.43588 27.32 9.28879ZM17.3233 10.414C21.0552 9.70598 24.8087 9.07672 28.4347 7.07886C24.6216 8.14268 21.4244 8.29334 17.3233 10.414ZM32.3819 6.73817C32.9382 7.07191 32.9976 5.78326 33.3691 6.46466C33.4923 5.03928 32.4566 6.26071 32.6304 6.49248L32.3775 6.00692L32.3819 6.73817ZM39.7857 4.83415L40.4016 5.05319C40.2429 5.02538 39.513 5.03928 39.9112 5.30465C40.639 5.21774 40.617 5.00451 41.0215 4.54792C40.6896 4.63715 39.5218 4.3625 39.7857 4.83415V4.83415ZM46.9455 3.85957C45.9737 3.89202 45.6304 4.23503 44.9709 3.93373C45.4239 4.83995 46.4818 4.37758 46.9455 3.85957ZM44.8478 4.42508L44.7224 3.68807C43.8956 4.51432 42.6202 3.93373 42.3783 4.74608C43.291 4.8075 44.0759 4.62324 44.8478 4.42508ZM51.9307 3.19555L51.9944 3.09472L51.9307 3.19555ZM51.9307 3.19555H51.8846C51.6229 2.75403 50.145 2.97189 49.5405 3.7715C50.0901 3.25118 51.3983 3.89898 51.9307 3.19555ZM51.9944 3.09472L52.1306 2.69956C51.7218 2.59063 51.9899 2.91742 51.9944 3.09472ZM59.1672 2.91741C60.2556 2.87685 61.606 2.87686 62.1313 1.82579C59.2378 2.69956 54.6991 1.70295 53.7359 3.13529C55.8823 2.74012 57.5028 3.00664 59.1672 2.91741ZM67.1891 1.86636V1.12352C66.8307 1.36919 66.8109 1.3692 66.4525 1.16409C66.4898 2.35886 66.8658 1.46424 67.1891 1.86636Z" fill="#100F0D" />
</svg>