<svg viewBox="0 0 92 41" fill="none" xmlns="http://www.w3.org/2000/svg" preserveAspectRatio="none"><path d="m13.223 27.29-.332-.73c-.32-.055-.626 1.788-.969.482l-1.23.722c-.185-.398 0-.02-.217.24-1.002 1.225-2.534.056-3.465-.054-.302-.05-.649.138-.938-.042-.653-.358-1.26-.35-2.091-.818-.33-.192-.678.042-1.014-.055-.978-.33-1.92-1.546-2.967-1.3 2.36 1.713 4.972 2.924 7.59 3.212 1.536.151 3.034-.762 4.402-1.163.237-.068.568.978.722-.742.338 1.148.84.757 1.224 0-.267-.406-.486.467-.715.248Zm1.549-11.291c.153-.33.716.028.504-.51-.92.38-1.522.455-2.307.984h-.255l.146.255c.552.364.938-.942 1.3.255l-.58.24c.091.825.443-.04.758.248l.074-1.232.035 1.232.143.24.182-1.712Zm-2.85-1.479c-.264.578-.418.193-.615.481h-.178.758l.035.751c1.32-1.555 2.423.323 3.494-1.72-.342.015-1.167.063-1.693.242-.391.136-1.47 1.183-1.08 0-.265.308-.516-.27-.687.975l-.034-.729Zm-3.54 15.905.29-.481-.29.481Zm7.503-21.556.036 1.238c-.18.446-.48.158-.72.233.098-1.39.633.213.684-1.471Zm-5.007 3.184c.607-.193 1.28-.365 1.947-.722 1.042-.585 2.036.68 3.096-.737l.142-.75c.336-.68.82.139 1.158-.252l-.542-.97-.758.006c-.291.523-.705.248-.933 1.216-.476-1.244-1.53 1.095-1.877 0-.689 1.334-1.88 1.362-2.77 1.712l-.472.228c.093-.295.744.344 1.009.269ZM23.922 3.62c-.335.504-1.104-.163-1.369.75.418-.461.907.262 1.37-.75Zm-4.25 14.798.087-.048-.086.048Zm71.94.51c.362 2.738.49 9.578.066 12.39.058-1.237.154-2.448.178-3.94.053-3.267-.122-6.353-.244-8.45ZM61.41 25.804l.58-.261c-.155.748-.335.425-.58.261Zm-12.084-1.26c.682-.74 1.155-.515 1.77-.067-.45.715-1.233.282-1.77.068Zm.757.956.292-.5-.292.5Zm-3.536-.852-.144-1.23.215.241-.07.989Zm-.433-1.216.217-.013.147.981c-.029.695-.418.442-.364-.968Zm-1.41-2.166.22.473-.22-.473Zm-.864.268c.122-1.292.482-.66.687-.029-.187.413-.363.05-.687.029Zm-1.26 1.024.215.234-.215-.234Zm-.687.763-.216-.24.216.24Zm-3.86-.867.617-.266c-.229.308-.398.37-.618.266ZM35.28 1.408c.45-.11 1.194-.839 1.656.2-.575.074-1.207.2-1.656-.2Zm.623 19.137.327.728-.327-.728Zm-8.075 1.924.215-.007-.215.007Zm-1.156.269c.402-.487.591.083 1.05-.26-.199 1.25-.745.844-1.05.26Zm-4.15.805.438-.014-.438.014Zm-1.331 1.244.251-.254-.251.253Zm-.218.742.289.495-.289-.495Zm-2.485-1.939.282.248-.282-.248Zm-.111.494-.182-.246.11-.488.072.247v.487Zm-.722-.246.504-.24-.504.24Zm-3.423 1.237.215-.487-.215.487Zm-8.084-.35.327.007-.327-.006Zm-1.194.935.145.742-.145-.742Zm86.653-6.767-.05-.83c-.239-.99-.317-2.448-.51-3.411-1.21-5.962-3.263-4.93-4.95-4.669-1.956.31-3.985.295-5.877-1.204-.433-.337-.85-.172-1.264-.44-.734-.441-1.443-1.512-2.167-1.61-2.405-.336-4.863-.728-7.36-2.378-1.867-1.238-3.538-.29-5.3-.755-.93-.25-1.879-.366-2.815-.628-3.145-.872-6.51-.274-9.555-1.113-2.798-.757-5.49-.983-8.12-1.685-3.062-.804-6.392 1.567-8.832.509.016 1.417-.058.785-.178.743l.107-.495c-1.01-.22-2.503.192-3.748 1.073l.47.481c-1.139.508-2.401 1.835-3.426.577l.253-.502c-.584.214-1.182.379-2.129.543l-.035.73c-.342-.716-.63.914-.934 1.004-.249.062-.646-.564-.978-.228-.729.736-1.795.888-2.305 1.258-.789.585-1.627-.343-2.416.035-1.813.867-3.854 1.368-5.585 2.228.8 1.568 1.649-.853 2.456.254l-.18.489.393-.489-.178-.254c.6-.798 1.325-.715 2.054-.494.552.164 1.131-.688 1.55.707-.974-.061-1.79 1.053-2.67.764l.289.976c-.49.963-.967-.144-1.334 1.003.86.201 1.89-1.045 2.814-.033-.44.831-.842-.343-1.153.756l.286.248c-.433.405-1.035.584-1.551.743-.345.11-.765-.57-.938 1.237l.402-.749c.996.314 2.163-.606 3.494.474-.858 1.128-2.01.247-2.814 1.732.311.213.636-.756.903 0-.598 1.08-1.147.84-1.876.983 1.554.71 3.674-.556 5.305 1.438-.355.144-.906.13-1.396.46l.096.785c3.598.33 5.761-1.307 8.764-.88-3.187 1.286-5.801.948-9.088 2.103l.07.495c-.99.627-1.946-.261-2.958.036l-.178.975c-1.166-.296-2.762-.145-4.216 1.231l-.544.248c-2.472.666-5.001.31-7.146.556l.398.757c-.278-.151-.645.268-.867-.289l.035-.728-.469-.029v.737c-.331.165-.542-.406-.867-.303l-.035.99c-.756.048-1.494-1.932-2.167-.955.469 1.23 1.076.035 1.478 1.635.5-1.395 1.051 2.29 1.518.585l-.433-.509.613-.213c.209.186.564 1.554.58.771.213-.817-.244-.378-.253-1.238.293-.186.395.508.575.268-.042 2.009.418.983.616 1.994l.107-.722c1.173.75 1.607 1.1 2.707.812l-.182-.745c.627-.343 1.604-.17 2.707.043l.147.502.07-.743c.348-.06.639.138.828-.466l-.212-.751c.245-.137.73-.674.863 0l-.54.983c.535.75.84-.522 1.371-.729.77-.31 1.691.552 2.274-.247l.178-.984-.47-.253c.24-.414.49-.379.65-.242v.737c.17.083.19-.847.4-.495l.069.982c1.124-1.458 2.76-.06 3.612-.02l.393-.254-.142.502.284-.75c-.075 2.008.582-.88.545.976-.345.482-1.35-.288-1.912.757 1.683.219 2.572.054 4.003-.055-.27-2.207-.906.653-1.371-.963.351-1.313.682-.597 1.265-.749l.106.982.505-.012-.142.502.575.233c.016-1.326-.32-.281-.398-.983.303-1.128.551.158.796-.99.934.618 2.574-.02 3.859-1.308l-.147-.481c.335-.296.711-.742.938-.014l-.756.751c.343-.118.438-.22.611.714l.398-.501c-.255.819-.524 1.663-.867.77l.112-.503c-1.13 1.479-3.057.915-4.117 2.049 2.359.104 5.448-.804 7.61-2.13-.35-1.026-.78.88-1.044-.22.36-.9.78-1.638 1.156-.763l.11 1.223c.256.034.981.281 1.297-.77l-.647-.228c1.487-1.401 3.256-.97 4.756-.371-.795.38-1.464.179-2.198.063-.464-.084-.969.138-1.513.77 2.211.46 5.138-.715 7.681-.22-.58.955-1.731.35-2.165.804l-.215.015-.036.24c.458.192.807-.192 1.19.205l-.105.497c1.618.363 3.507 1.745 5.012-.166-.214-.35-.46.301-.545-.963l.652-.261c-.434-.22-1.018.448-1.372-.687.72-.234 1.347.027 1.805.674l-.107.246.358-.007-.071.978v-.978l-.038 1.219-.391.26c1.089-.564 2.396 2.4 3.643 1.347.487-.405 1.009-.763 1.478-.04.511-.77.96.123 1.551.433 1.747.943 3.69 1.128 5.588.783.836-.165 1.62.474 2.385.379.76-.09 1.554-1.156 2.376-1.313 1.754.11 3.512 1.037 5.27 1.504 3.45.923 6.85 4.258 10.215 5.447 1.779.62 3.559 3.459 5.31 3.92.95.26 2.285-.481 2.994.852.478-.467 1.01.517 1.696 1.142l.362.219c.414-1.69 1.088 1.329 1.225.441V41l.182-.742.11.723c.364-.433.615-2.808 1.075-3.728.778-2.743 1.396-13.03.569-18.36Zm-4.678 20.031v.99l.106-.99h-.106Zm-81.506-9.31c-.233.021-.224-.18-.398-.26l.398.26Zm21.144-2.206.216.488-.216-.488Zm-.324.24h.178c-.072-.503-.514-.07-.178 0Zm-4.981.33c.24-.021.291-.207.509-.008l-.509.008Zm-7.288-.688c.242-.158.58.33.762-.248-.209-.508-.589-.267-.762.248Zm12.447-.859-.465.247c.21.083.251.447.465-.247Zm-11.398.37.576.241-.576-.24Zm13.345-.419c.3.522.48-.867 0 0Zm-1.005.02.318-.248-.318.248Zm-11.438.159-.215.24c.306.186.782-.296.215-.24Zm1.73-.021.293-.488-.293.488Zm12.049-.44h.326-.326Zm-11.614.44h.256-.256Zm-.793-.735-.76.006.004.99c.39-.143.645-.04.95-.432l-.194-.564Zm.647-.242.286-.24-.286.24Zm15.694-.776.358.234-.358-.235Zm4.76-.627.105.248c.431-.211.156-.92-.104-.248Zm-20.923-4.482c-.254-.268-.852-.73-1.045.241.271-.4.642-.186 1.045-.24Zm-2.487.488c-.265-.213-.78.116-1.296 0l.03-.728-.253-.008.182.736c-.74 1.16-1.8.171-2.415 2.2.509-.24 1.604-.392 2.309-1.45.269.315.931-.611 1.443-.75Zm-3.641-.488-.434.488c.298-.247.627-.303.974-.247l-.54-.24Zm8.29-.522-.106-.235c-.711.082-1.46.056-2.02.509.83.063 1.32-.123 1.91-.268l.216-.006Zm-5.663-.702c-.567-.33.08 1.058.111 0h-.111Zm2.24-.502c-.6-.048-1.06.145-1.409.24.438.455.916.736 1.41-.24Zm-2.093.749h.433-.433Zm.575-1.973-.035-.255-.036.998c.331-.11.69.302.831-.494-.22-.138-.617.968-.76-.25Zm1.84-1.48c-.27.18-.689-.396-.757.504l.469-.263.288-.24Zm-7.208-1.986-.36-.014.36.014Zm1.407.51c.383-.042.907-.71 1.296-.488-.267-.647-.978-.125-1.296.487Zm1.372-.736.464-.24c.876-.146-.322-.462-.464.24Zm2.554-1.224-.393.254.393-.254Zm-.898.501.469-.247c-.223-.316-.714.138-1.085.247h.616Zm-4.041-.529c-.373.014-.198 1.196 0 0Zm8.075-.228-.54.25.54-.25Zm-.903-3.43-.106.496c.289-.07.387.027.611-.249.264-.378-.367-.22-.505-.247Zm8.218-4.77c-.367.486-.69-.133-1.01.513.27.04.77.352 1.01-.514Zm.146.24h.394-.394Zm3.279-.792c.658-.048 1.289.206 1.836-.784-.582.461-1.316-.097-1.836.784Zm2.376-1.039-.287.248.287-.248Z" fill="#100F0D"/></svg>