<svg viewBox="0 0 109 86" fill="none" xmlns="http://www.w3.org/2000/svg" preserveAspectRatio="none">
    <path fill-rule="evenodd" clip-rule="evenodd" d="M98.6472 69.7492L98.4952 69.4179H98.7531L98.6472 69.7492ZM83.7179 65.2359L84.0924 64.9068L84.4555 65.1559C84.308 65.6254 84.0657 65.1422 83.7179 65.2359ZM79.6743 67.1252C79.2362 66.7219 78.2302 67.0783 77.7259 66.7962L77.7854 66.3793C78.2918 66.5415 79.2163 66.2457 79.7314 66.6215L79.6743 67.1252ZM79.104 72.5388L78.9939 72.2098H79.2008L79.104 72.5388ZM77.4178 64.9068L77.3628 64.6578L77.6754 64.7321L77.4178 64.9068ZM76.9997 66.4672L76.6848 66.6215L76.5241 66.2993L76.9997 66.4672ZM76.8367 64.5778L76.7906 64.82L76.5241 64.4967L76.8367 64.5778ZM76.0552 58.4252C75.4897 57.8255 74.673 58.1145 74.1049 57.5171C74.237 56.9927 74.8797 57.2075 75.1063 57.4428C75.3222 57.5639 75.505 57.3149 75.7359 57.356L76.0552 57.6039C76.1762 57.6176 76.359 57.4634 76.5703 57.5171C77.0084 57.6245 77.9374 57.2075 77.9439 58.175C77.5125 58.3784 76.9072 58.2356 76.4187 58.2561C76.2732 58.2904 76.271 58.5178 76.0552 58.4252ZM74.8422 64.4967L74.314 64.242C74.9239 63.9324 75.7229 64.2671 76.4187 64.4967C76.1212 65.061 75.3618 64.6041 74.8422 64.4967ZM75.4698 67.8643C75.3222 67.5285 75.1307 67.7787 74.8974 67.6027L74.9438 67.2886C75.1924 67.5171 75.3288 67.4416 75.6216 67.5284L75.4698 67.8643ZM75.4148 73.8501L75.1572 73.5211L75.4698 73.44L75.4148 73.8501ZM73.6823 74.5024L73.7418 73.9312C74.0059 74.1734 74.4328 73.8901 74.7368 74.1734C74.6355 74.9787 73.9794 74.5092 73.6823 74.5024ZM73.2642 66.2993V66.0503H73.5764L73.2642 66.2993ZM71.2147 64.0786L70.9043 64.242C70.3758 64.0055 69.7353 64.2352 69.3237 63.8319C68.9869 63.8388 68.5971 63.9255 68.5885 63.4343C68.8858 63.0174 69.2907 63.7028 69.4778 63.3464C70.4308 63.9256 71.5556 63.3269 72.3197 64.0786C71.9917 64.2282 71.5075 64.3219 71.2147 64.0786ZM70.2702 65.8081L70.1647 66.2182L70.0061 66.2993C69.7948 66.2388 69.8256 65.8138 69.4778 65.9703L69.3743 65.4792C69.1035 65.7887 68.7799 65.2358 68.7952 66.1314C68.5333 66.1851 68.5467 65.8138 68.4255 65.639C67.4723 65.6733 66.9572 65.3969 66.1692 65.8081V65.3968C66.5323 65.4996 66.6205 65.1752 66.7503 64.9068C67.25 65.1421 67.8908 65.1821 68.4255 65.1559L68.5885 65.4792C69.4558 65.0611 70.2329 65.6859 71.0011 65.5671L71.2147 65.8881L71.8486 66.1314C71.5754 66.2719 70.7635 66.2856 70.2702 65.8081ZM71.5271 73.3589L71.5823 73.118H71.7934L71.8486 73.2789L71.5271 73.3589ZM70.7898 73.3589L70.8447 73.0288L71.1112 73.2789L70.7898 73.3589ZM69.1674 67.1252L69.6386 66.9573L69.5813 67.3605L69.1674 67.1252ZM69.8454 72.0418L69.5813 71.8808L69.6891 71.6317L69.8454 72.0418ZM68.6391 67.2886L68.5885 66.8705H68.7952L68.6391 67.2886ZM68.2187 67.1252V66.6215L68.4828 67.0384L68.2187 67.1252ZM66.9572 71.6317C67.1687 71.2353 67.598 71.4501 67.9059 71.5575C67.6793 71.9676 67.1795 71.6785 66.9572 71.6317ZM65.7973 71.5575C66.0636 71.0994 66.3673 71.5975 66.5347 71.4775C66.407 71.7997 66.0196 71.6649 65.7973 71.5575ZM64.0097 71.3827L63.9636 70.9783C64.1904 70.7773 64.3663 71.249 64.5908 71.3027C64.8374 71.0994 65.4538 71.1142 65.5396 71.6317C64.9696 71.4775 64.6966 71.5106 64.0097 71.3827ZM62.9598 62.9294L62.7506 62.3583L63.3823 62.4462L63.6971 62.7683L62.9598 62.9294ZM62.2267 31.3393C62.4292 31.1783 62.8781 31.1314 63.226 31.272L62.2267 31.3393ZM62.438 62.7683L62.4908 62.4462L62.6471 62.5318L62.438 62.7683ZM63.1204 28.6354L62.9136 28.9725L62.8541 28.6354H63.1204ZM61.7578 18.6241L61.4937 18.3887L61.1722 18.6241L60.6505 18.3887C60.4107 18.3887 60.0474 18.7714 59.8603 18.2197L59.9702 17.8895C60.1662 18.038 60.2169 17.8963 60.7033 17.8895C61.2162 17.8838 61.9538 18.2459 62.4908 18.2197L62.8541 18.0575C63.0697 18.0849 63.2722 18.3419 63.4878 18.3887L64.1154 18.3008L64.5401 18.4606L64.9077 18.2197C65.2445 18.2197 65.6916 18.6503 65.9073 18.3008C66.1955 18.7177 67.3712 17.8781 67.4326 18.7109C66.68 18.9462 66.1692 18.8251 65.4823 18.6241C65.1257 18.8857 64.2407 18.7988 64.0097 18.5498L63.8071 18.792C63.1204 18.5224 62.46 18.7783 61.7578 18.6241ZM61.7006 62.4462L62.1209 62.6884C61.8988 62.7352 61.7819 62.6141 61.7006 62.4462ZM62.3873 77.79C63.8379 77.3811 64.712 78.3292 65.8523 77.79C66.1142 78.3349 66.8516 77.6427 66.9066 78.4503C65.5836 78.4709 63.8226 78.3623 62.3873 78.039V77.79ZM64.8021 77.0578C64.5401 77.4142 63.9392 76.9356 63.4878 77.0578L63.433 76.8031C63.7409 76.7414 64.5996 76.9241 64.8021 77.0578ZM66.0084 77.1184L65.4385 77.5422C65.3064 77.3537 65.1147 77.2737 64.9077 77.2189C65.141 76.9241 65.61 77.1115 66.0084 77.1184ZM67.1181 78.039C67.9458 78.3555 68.8614 78.0128 69.6891 78.3623C68.925 78.8535 67.7849 78.5314 66.9572 78.4503L67.1181 78.039ZM69.7441 77.4543L69.7948 77.79L69.3743 77.6221L69.7441 77.4543ZM59.4396 77.6221V77.3C60.0562 77.1595 60.7076 77.6359 61.2867 77.4543L61.3835 77.8643C60.7871 77.717 60.1354 77.7501 59.4396 77.6221ZM55.5017 77.0578V76.8031C56.1577 76.8819 57.0381 76.8636 57.8151 77.0578L58.3435 77.3C58.6824 77.34 59.2174 76.8568 59.3385 77.5422C57.9869 77.5422 56.6288 77.3811 55.5017 77.0578ZM56.708 80.3317C56.2192 79.8611 55.0879 80.4003 54.7665 79.6738C55.2154 79.2237 56.195 79.8006 56.9216 79.8349L56.708 80.3317ZM52.5078 79.3437C51.8078 79.5185 50.6961 79.371 50.1371 79.0146C50.333 78.3623 50.9999 78.9529 51.4535 79.0146C51.8233 79.0614 52.2767 78.6993 52.3977 79.2705C52.9944 79.0614 54.0181 79.2362 54.7091 79.5858C54.1895 80.1032 53.0033 79.6738 52.5078 79.3437ZM50.0336 79.1026C49.5802 79.0889 48.8185 78.8467 48.4045 78.6034C49.1069 78.6708 49.49 78.4709 50.0864 78.8536L50.0336 79.1026ZM47.1434 78.2001C47.555 78.3498 47.98 77.9853 48.0393 78.6913C47.7111 78.5771 47.2271 78.6993 47.1434 78.2001ZM46.9891 78.5314C46.7689 78.2881 46.5975 78.456 46.3554 78.4503C46.0471 78.4286 45.664 77.7901 45.6265 78.2881L44.9398 77.8643C45.6463 77.629 46.3748 77.9991 47.0926 78.2001L46.9891 78.5314ZM44.4113 77.8643L44.4665 77.5422L44.8848 77.79L44.4113 77.8643ZM45.4109 75.0005C44.9266 75.2895 44.4467 74.8588 44.0418 74.7502C44.3346 74.435 45.0103 74.7994 45.4109 75.0005ZM43.8853 46.361H44.5679C44.4598 46.6569 44.1627 46.6432 43.8853 46.6969V46.361ZM43.3109 77.4543C43.445 78.3624 43.9273 77.0647 43.3109 77.4543ZM41.891 77.2189C41.6378 77.3742 41.4332 77.3537 41.2084 77.2189C41.715 76.8567 42.6042 77.1183 43.0972 77.3811L41.891 77.2189ZM38.0036 76.8031L37.9485 76.4718C38.4635 76.2776 38.8311 76.7208 39.2604 76.7208C39.1547 77.092 38.4747 76.642 38.0036 76.8031ZM37.0548 76.5598L37.7967 76.4718C37.7107 76.9104 37.2969 76.5804 37.0548 76.5598ZM33.2177 72.5388C33.3236 72.1629 33.81 72.2429 34.1116 72.3777L34.2172 72.621C34.7632 72.7535 35.4302 72.6324 36.0553 72.774L36.5309 73.1921C35.5555 73.1316 34.3779 72.7535 33.2177 72.5388ZM35.5822 76.385L35.5292 76.0628C35.8944 76.2239 35.9231 76.0023 36.1609 76.2239C36.0244 76.5392 35.8483 76.2776 35.5822 76.385ZM32.4804 75.7395C32.0578 75.6596 31.5932 75.8675 31.1682 75.6527L31.1178 75.4105C31.9345 75.2632 32.7027 75.6459 33.3236 75.7395C33.1628 76.2239 32.7576 75.7864 32.4804 75.7395ZM30.4356 75.4848L31.0671 75.4105C30.891 75.8275 30.759 75.4574 30.4356 75.4848ZM30.0633 75.4848L30.1228 75.1672L30.3802 75.4105L30.0633 75.4848ZM29.0641 9.35744V9.02847C29.3104 9.04903 29.872 8.42186 30.0128 9.19636C29.7243 9.27746 29.3149 8.98162 29.0641 9.35744ZM28.2802 75.1672C27.8005 75.3169 27.1554 75.31 26.6514 75.0005C27.0981 74.3608 27.8355 74.9593 28.4365 75.0005C28.9824 75.0267 29.5792 74.724 29.9576 75.2427C29.7487 75.7201 28.7205 75.3295 28.2802 75.1672ZM26.3827 75.0735L26.1208 74.7502H26.4377L26.3827 75.0735ZM28.2253 71.5575C28.014 71.8134 27.3469 71.9345 27.2214 71.4775C27.5694 71.1737 27.8467 71.6386 28.2253 71.5575ZM26.8055 8.94614C26.7042 8.04598 27.4922 8.42871 27.807 8.62519C27.4877 8.84566 27.1951 8.59658 26.8055 8.94614ZM29.5372 71.8808C29.2642 71.9608 28.7843 71.9345 28.5445 71.7186C28.802 71.4501 29.4404 71.417 29.5372 71.8808ZM28.802 7.63591C28.7998 7.35375 28.9076 7.25324 29.1144 7.30693L28.802 7.63591ZM30.2196 9.19636V8.77824C30.4356 8.70399 30.4356 9.27746 30.2196 9.19636ZM30.9022 9.10722C30.6689 9.10151 30.6952 9.04896 30.4858 9.10722L30.4356 8.86615L30.9022 9.10722ZM32.8501 72.2828C32.7488 72.7672 32.2426 72.2828 31.9521 72.2828H32.8501ZM27.7496 3.52808L27.9588 3.77484C29.7948 3.60692 31.8993 4.17922 34.0058 4.11297L34.2722 4.51502C33.9465 4.85201 33.2749 4.77776 32.9517 4.51502C31.5272 4.79832 30.0984 4.00442 28.6985 4.42823C27.992 3.93132 26.7922 4.11297 26.0196 3.77484C26.5983 3.33162 27.1643 3.73599 27.7496 3.52808ZM25.1809 8.20708L25.3834 8.12029V8.36816L25.1809 8.20708ZM24.549 74.6704L25.1809 74.7502C24.9695 74.9319 24.756 74.5893 24.549 74.6704ZM23.2371 74.4213C23.576 74.3813 24.2409 74.146 24.4897 74.5893C24.2474 75.1285 23.4749 74.6703 23.2371 74.4213ZM23.0763 74.6704L22.918 74.3414H23.125L23.0763 74.6704ZM22.5461 8.53606C22.7638 8.44239 22.8848 8.48918 22.918 8.86615L22.5461 8.53606ZM25.1214 3.77484L25.1809 3.44587L25.806 3.77484C25.5089 3.8708 25.4142 3.96447 25.1214 3.77484ZM35.9541 9.27746V9.60644L35.5292 9.27746C35.7383 9.21691 35.7383 9.21691 35.9541 9.27746ZM36.6408 9.52534L36.5813 9.94233L36.4184 9.60644L36.6408 9.52534ZM40.8916 9.6795C41.1889 9.76746 41.3274 9.51849 41.5695 9.84863C41.4222 10.0234 41.2855 10.2107 40.9928 10.1776L40.8916 9.6795ZM40.4688 10.0097V9.77433L40.6803 9.6795C40.7616 9.9491 40.7002 10.0565 40.4688 10.0097ZM39.3154 16.1635C39.377 15.8322 39.6038 16.2022 39.8414 16.0811L39.7358 16.4101L39.3154 16.1635ZM40.5283 73.9312C39.8768 73.9917 39.2518 73.9381 38.8928 73.5211C39.4387 73.5417 39.9978 73.6353 40.5283 73.9312ZM38.7408 73.5211C38.5383 74.018 37.8825 73.5417 37.6294 73.3589C37.9681 73.2458 38.4525 73.1921 38.7408 73.5211ZM37.4224 5.90066L37.6908 5.66538L37.7372 5.8345L37.4224 5.90066ZM37.5763 9.43855L37.9485 9.77433L37.5763 9.6795V9.43855ZM41.684 5.99548C41.8051 5.80014 41.8754 6.17028 42.1022 6.07546L41.684 5.99548ZM43.2029 10.4255L43.1479 10.0965H43.4122L43.2029 10.4255ZM44.2552 16.3314C43.9318 16.4924 43.674 16.1554 43.3594 16.4101L44.2552 16.3314ZM36.4184 4.42823C38.0036 4.51505 39.7977 4.58241 41.5279 4.67722C42.2189 4.7172 42.9563 4.63616 43.4122 5.00742C44.2242 4.76411 45.0784 4.9252 45.9393 5.08741C47.8323 5.46324 49.9829 4.99937 52.0346 5.16729C54.7136 5.40375 57.1439 5.43125 60.1265 5.73968C60.3842 5.77395 60.7011 5.76703 60.9146 6.07546C62.253 5.82072 63.662 6.17029 64.9077 6.31765C66.0084 6.4593 67.1444 6.27773 68.2187 6.40567C68.6676 6.45936 69.3612 6.83512 69.3743 7.47482C68.7909 7.35374 68.3265 6.94252 67.6903 6.98364C66.7548 7.02477 65.61 6.93683 64.5908 6.80203C63.3362 6.65353 62.09 6.49247 60.9146 6.16348L60.6505 6.40567C60.1112 6.19662 59.5323 6.26392 58.9205 6.24335C58.3588 6.21023 57.7426 5.96121 57.234 5.99548C54.8566 6.12227 51.515 5.6997 49.0364 5.73968C47.8784 5.77395 46.7338 5.40382 45.6728 5.41639C44.0418 5.44266 42.4213 5.50428 40.8321 5.16729L40.579 5.5043L40.3654 5.16729C38.1906 5.181 36.5154 4.92511 34.4285 4.67722C34.893 3.91072 35.723 4.3951 36.4184 4.42823ZM60.8091 9.27746C61.0556 9.16894 61.7334 9.29002 62.0702 9.27746L61.333 9.35744L60.8572 9.60644L60.8091 9.27746ZM59.1822 9.35744L59.5962 9.27746C59.5653 9.57903 59.3935 9.25692 59.1822 9.35744ZM57.5005 9.35744V9.02847L57.8151 9.35744H57.5005ZM51.352 6.63982H51.559L51.5085 6.98364L51.352 6.63982ZM49.349 46.1188C49.622 46.1063 49.9038 46.0789 49.9829 46.361L49.349 46.1188ZM49.666 60.3958L49.8775 60.2997V60.5556L49.666 60.3958ZM49.0364 10.2576C49.2785 10.245 49.5185 10.2108 49.514 10.5809L49.0364 10.2576ZM48.671 10.2576H48.9858L48.9286 10.5809L48.671 10.2576ZM48.3584 46.4489C48.398 45.8903 48.8273 46.0594 49.0892 46.1999C49.0211 46.5221 48.5852 46.6306 48.3584 46.4489ZM48.4045 75.6527C48.1867 75.7807 47.7883 75.9212 47.6671 75.5716C47.7993 75.021 48.1712 75.6253 48.4045 75.6527ZM47.8784 10.4255V10.0965C48.1757 10.2176 48.3584 10.0497 48.4554 10.5066C48.2637 10.743 48.1712 10.2781 47.8784 10.4255ZM47.1434 10.3318C47.2577 9.92167 47.8081 9.95602 47.5615 10.5809C47.3149 10.6688 47.2687 10.446 47.1434 10.3318ZM46.7823 75.4105L46.9343 75.1672C47.0926 75.5042 47.3129 75.31 47.5615 75.4105L46.3554 75.0005L46.7823 75.4105ZM45.1996 10.0965C45.7433 10.0828 45.9546 10.0291 46.4608 10.0097L46.9343 10.0965L46.8285 10.6688C46.628 10.2781 46.2737 10.4997 45.9393 10.5066C45.7037 10.5134 45.1996 10.6688 45.1996 10.0965ZM44.5679 22.5639C44.9749 22.0864 45.8996 22.5308 46.3554 22.4828C46.0008 23.0608 45.1929 22.6644 44.5679 22.5639ZM48.7218 73.2789H49.0892C48.7833 73.4743 48.0393 73.2995 48.7218 73.2789ZM50.2934 40.4506V40.2073H50.509L50.454 40.4506H50.2934ZM52.1866 46.361C51.9796 46.4216 51.9928 45.9715 52.1866 46.0388V46.361ZM52.8204 76.4718C52.5387 76.7002 51.7198 76.6146 51.5085 76.2239C51.8563 76.1165 52.5078 76.1028 52.8204 76.4718ZM51.297 60.7178H51.6646L51.6163 60.9669L51.297 60.7178ZM51.242 76.385V76.0628C51.4842 75.9886 51.5128 76.4992 51.242 76.385ZM51.352 73.9312C51.4997 73.3326 51.7265 74.0386 52.0346 73.9312H51.352ZM54.7665 61.2959C54.9622 61.2628 55.2792 61.1817 55.5017 61.2959V61.618C55.2089 61.6922 54.8963 61.6112 54.7665 61.2959ZM54.7091 76.7208C54.9226 76.7825 55.3145 76.5392 55.2947 76.9642C54.9226 77.0316 54.2712 76.8761 53.8704 76.7208C54.0421 76.2981 54.4912 76.5391 54.7091 76.7208ZM55.2397 74.3414C55.0217 74.8109 54.1632 74.5219 53.8221 74.2603C54.1895 73.6754 54.7863 74.3071 55.2397 74.3414ZM53.503 61.377L53.4522 60.9669L53.8704 61.1348H54.2865L54.0841 61.457L53.9166 61.2148L53.503 61.377ZM52.9283 46.5221C52.6861 45.9578 53.1156 46.072 53.3465 46.1999L53.2961 46.4489L52.9283 46.5221ZM59.7018 18.3008L59.5455 17.9786H59.7589L59.7018 18.3008ZM59.5455 23.632L59.5962 23.3099C59.9856 23.6194 60.6175 23.2425 60.9652 23.5521C60.5293 23.8491 59.9856 23.6663 59.5455 23.632ZM61.1722 46.5221L60.545 46.61C60.6571 46.032 60.8883 46.5164 61.1722 46.5221ZM61.4937 23.801L61.1261 23.632L61.5465 23.5521L61.4937 23.801ZM59.7589 46.6969L59.9109 46.361L60.0166 46.6969H59.7589ZM59.1822 75.1672C59.9549 75.0005 61.0642 75.1078 61.8591 75.4105C61.5862 75.7864 60.9542 75.4311 60.338 75.5716L60.2277 75.3238C59.552 75.5991 58.5352 75.0004 57.659 75.0735L57.6083 74.7502C58.3282 74.9205 58.687 74.5218 59.1822 75.1672ZM58.8101 70.3272L58.3897 70.2393C58.6165 70.3067 58.6031 70.2255 58.8101 70.3272ZM57.1284 74.7502L56.3955 74.5024C56.6441 74.5766 56.9611 74.556 57.1284 74.7502ZM56.1886 69.4179L56.4525 69.6612L56.1886 69.8292V69.4179ZM56.4525 61.5381L56.239 61.8739C55.9924 61.7734 55.9924 61.5244 55.766 61.786L55.6625 61.457C55.9572 61.5575 56.1422 61.1006 56.4525 61.5381ZM58.284 18.1397C57.9254 18.3682 56.9369 18.6709 56.8136 17.9786C57.5863 17.9169 58.6165 17.7148 59.3935 18.0575C59.202 18.6172 58.5505 18.3602 58.284 18.1397ZM59.1822 23.464L59.4396 23.3842L59.4903 23.5521L59.1822 23.464ZM58.4405 46.361C58.1432 46.8648 57.41 46.3347 56.9216 46.4489C56.6243 46.5163 56.3009 46.7916 55.9221 46.4489C56.7541 46.0388 57.5203 46.3142 58.4405 46.361ZM56.1886 17.8027C56.3955 17.7958 56.4348 18.078 56.708 17.9786L56.2852 18.3008L56.1886 17.8027ZM56.3955 23.3099L56.0211 23.3842L56.0782 23.142L56.3955 23.3099ZM56.9699 61.6991C57.4496 61.538 58.3698 61.6454 58.8101 62.035C58.4515 62.3857 57.3638 62.1492 56.9699 61.6991ZM62.5391 10.911C62.7461 10.7636 62.9751 10.6688 63.1711 10.5066C63.4748 10.486 63.3977 10.9716 63.6971 10.7568L64.0097 11.6569C63.5695 11.9391 63.5807 10.9373 63.226 10.999L63.0697 11.4891C62.667 11.3885 62.3322 11.5827 61.9141 11.4891V10.999C61.6918 10.951 61.7688 11.3748 61.65 11.4891C61.3044 11.2332 60.58 11.6638 60.338 11.1669C59.3959 11.2331 58.284 11.2869 57.1284 10.999C55.4974 11.039 53.0494 11.0526 51.5085 10.6688C51.0594 10.9167 50.2429 10.4461 49.8775 10.5809V10.2576C50.4342 10.2245 51.4997 9.82119 51.9796 10.4255C52.3362 10.197 52.9483 9.75379 53.1902 10.4255C53.9321 9.62585 55.4422 10.7819 56.239 10.2576C57.4257 10.5877 58.5505 10.5066 59.5962 10.2576L59.8074 10.5066L60.2831 10.1776C60.5006 10.5957 61.0467 10.1102 61.1722 10.7568C61.6565 10.5603 61.6808 10.4735 62.2772 10.5066L62.5391 10.911ZM64.1154 10.999C64.276 11.0995 64.428 11.5222 64.6458 11.2469L64.5401 10.7568L64.9586 10.6688C65.0487 11.361 65.4823 11.4959 65.9073 11.6569C65.6893 12.1207 65.1192 11.7506 64.6966 11.738C64.4897 11.7312 64.2672 11.8923 64.0692 11.6569L64.1154 10.999ZM67.4326 11.4148L67.2192 11.738L67.1181 11.328L67.4326 11.4148ZM67.5846 18.3887C68.1989 18.7314 69.1674 18.038 69.4778 18.8787L69.9047 18.6241L69.9509 19.1277C69.4315 18.8787 68.8239 19.2957 68.1702 18.792C67.9831 19.0935 67.7036 19.0067 67.4833 18.792L67.5846 18.3887ZM68.6898 14.6098C68.4255 14.9925 67.9104 15.0599 67.5846 14.6955C67.8774 14.4956 68.4608 14.4602 68.6898 14.6098ZM68.4828 24.0432V23.7199C68.7185 23.8685 68.9207 23.5715 68.9518 24.0432H68.4828ZM64.6458 47.0133C64.3312 47.1207 63.8468 46.8111 63.5408 46.8454C63.9017 46.8523 64.5908 46.2879 64.6458 47.0133ZM65.2247 46.778L64.9586 47.1001L64.8486 46.778H65.2247ZM65.9577 46.8454L65.8523 46.939L65.7973 46.4489L65.9577 46.8454ZM63.5408 31.5141L64.0692 31.272C64.428 31.2114 64.8924 31.096 65.2712 31.096C65.4935 31.1109 66.0834 30.9966 66.0636 31.5883C65.2247 31.6557 64.5996 31.5416 63.5408 31.5141ZM65.0642 64.7321C64.8486 64.8794 65.0222 65.6059 64.6458 65.31L65.0642 64.7321ZM67.3272 62.9294L67.6903 63.3464H67.3272C66.9374 63.3601 66.6556 63.6422 66.2749 63.5817C65.7115 63.5143 64.9431 63.1111 64.3312 62.9294C64.3817 62.372 64.9586 62.7147 65.1697 62.8494C65.9974 62.292 66.6334 63.5417 67.3272 62.9294ZM66.4267 54.7252L66.3803 55.0565L66.2749 54.7252H66.4267ZM67.4326 46.8454L67.9568 47.356C67.7101 47.5045 67.6198 46.9995 67.4833 47.2623L67.4326 46.8454ZM68.0622 55.1433L67.6441 54.9822C67.8002 55.0027 67.8268 55.2381 68.0622 55.1433ZM68.3772 63.4343C68.3617 63.8707 68.1702 63.5074 67.9568 63.5817C68.0227 63.1316 68.1637 63.3738 68.3772 63.4343ZM68.3242 47.0133C68.4057 47.2817 68.342 47.3766 68.1131 47.356L68.3242 47.0133ZM68.1131 32.6576C67.9632 33.2756 68.5885 32.9249 68.1131 32.6576ZM68.8502 55.1433V55.4666L68.6391 55.2176L68.8502 55.1433ZM70.1647 47.5114C69.6626 47.5319 68.9518 47.485 68.5885 47.2623C68.8899 47.2143 69.9774 46.8111 70.1647 47.5114ZM73.8936 66.1314C74.4153 65.735 74.717 66.2719 75.3178 66.0503L75.3683 66.3793C75.0559 66.5004 74.292 66.481 73.8936 66.1314ZM73.8472 67.2886H74.1049L74.0499 67.7033L73.8472 67.2886ZM76.5703 56.2936H76.7906L76.8917 56.7026L76.5703 56.8648V56.2936ZM78.7849 58.5851L78.8861 58.0071H79.104L79.4673 58.8353C79.1504 58.9564 78.7013 58.6205 78.3117 58.5851H78.7849ZM78.4635 57.107H78.7849C78.9522 57.2212 79.0646 57.5844 78.8313 57.685C78.6284 57.4828 78.5956 57.5171 78.3623 57.356L78.4635 57.107ZM83.2535 68.1076C83.0974 68.215 82.7427 68.0471 82.5159 68.0209L83.2535 68.1076ZM80.4623 73.6891C80.2905 73.8708 79.8877 73.7096 79.6191 73.7633C79.7139 73.4138 80.1894 73.736 80.4623 73.6891ZM87.403 74.5024L87.6099 74.5893L87.403 74.7502V74.5024ZM88.136 74.3414H88.4025L88.136 74.6704V74.3414ZM92.9722 75.8206C92.5431 75.9885 92.1093 75.8743 91.6604 75.7395C92.028 75.4311 92.7542 75.5453 92.9722 75.8206ZM93.133 75.4848L93.285 75.5716L93.078 75.8206L93.133 75.4848ZM70.0061 78.2001C70.3407 78.3029 70.5873 78.1396 70.6884 78.5314C70.3713 78.5029 69.8564 78.8124 70.0061 78.2001ZM70.0061 77.3L70.4817 77.4543L70.0061 77.6221V77.3ZM20.4502 74.2603V74.0181C20.8905 73.9107 21.3747 73.7964 21.5466 74.4213C21.0513 74.4418 20.809 74.4282 20.4502 74.2603ZM20.1883 11.4891L20.0759 11.1669H20.3952L20.1883 11.4891ZM19.1889 74.1734C18.1344 74.0649 17.078 73.9986 16.0894 74.0923L15.7702 73.8501H15.145L15.7702 73.6891C16.8467 73.4001 18.2996 73.6959 19.4509 73.8501C19.7327 73.8901 20.0826 73.568 20.2346 74.0923C20.0475 74.5766 19.5807 74.2271 19.1889 74.1734ZM14.5089 70.0782C14.8567 70.125 15.0593 69.9102 15.2948 70.1593L14.5089 70.0782ZM14.0335 74.2603L13.9872 73.9312H14.2469L14.0335 74.2603ZM15.6645 70.0782C15.8825 69.9776 15.8627 70.2461 16.0322 70.2393L15.6645 70.3934V70.0782ZM20.5054 11.4148L20.4502 11.2469C20.5516 10.8425 20.809 11.4148 20.5054 11.4148ZM11.5107 30.1148C11.8872 30.3638 12.1645 30.0006 12.7215 30.1148H11.5107ZM10.0403 70.0782C10.3286 69.7001 10.8085 70.0039 11.2004 70.0782C10.9891 70.4003 10.4651 70.2255 10.0403 70.0782ZM7.25781 69.9103L7.36352 69.5858C7.83011 69.917 8.80306 69.467 8.98586 69.9971C8.73272 70.1924 7.65623 70.2187 7.25781 69.9103ZM5.41532 69.5858V69.2568C5.84449 69.5469 6.65245 69.2317 7.04212 69.7492C6.6634 70.2792 5.90617 69.5058 5.41532 69.5858ZM7.51539 15.5169L7.72672 15.3489L7.78394 15.7648L7.51539 15.5169ZM7.20281 10.999L7.94027 11.1669C7.77289 11.2811 7.40968 11.0927 7.20281 10.999ZM22.918 3.69598V3.44587C23.2459 3.25167 23.7765 3.41385 24.0713 3.52808C23.869 3.81024 23.3119 3.82963 22.918 3.69598ZM22.6054 3.77484L22.4995 3.44587C22.6604 3.33164 22.6515 3.47443 22.8673 3.44587L22.6054 3.77484ZM20.9741 3.52808C21.3682 3.14312 21.9252 3.27109 22.4445 3.44587C22.0703 3.83655 21.3131 3.69601 20.9741 3.52808ZM20.602 3.61375L20.4502 3.367L20.6572 3.27786L20.602 3.61375ZM18.4009 3.44587L17.7647 3.367C17.9717 2.88836 18.4272 3.48129 18.764 3.11689L18.874 3.367C19.1426 3.21735 19.3608 3.20361 19.7547 3.27786C19.4619 3.67539 18.6165 3.97134 18.4009 3.44587ZM17.5532 3.69598L17.0337 3.27786C17.3354 3.10309 17.3772 3.4607 17.6129 3.20367L17.5532 3.69598ZM16.3007 3.52808C15.6645 3.65374 14.8723 3.80338 14.3504 3.61375C14.4935 3.00946 15.0593 3.41954 15.4577 3.367C15.9619 3.29846 16.543 2.95576 16.9765 3.367L16.3007 3.52808ZM15.2441 4.59612H15.0372L15.0879 4.34713H15.2441V4.59612ZM12.4573 5.00742L12.4067 4.75721H12.8777C12.7809 4.90571 12.6664 5.03255 12.4573 5.00742ZM70.9504 8.86615L71.5271 8.77824L70.9504 9.10722V8.86615ZM68.7952 11.4891L69.0111 11.5702L68.7448 11.8991L68.7952 11.4891ZM71.8993 13.1294L71.6834 12.6314C71.921 12.6108 71.9851 12.8666 71.8993 13.1294ZM72.6323 12.6314L72.586 13.2105C72.278 13.2847 72.1567 13.0563 72.0006 12.8884L72.6323 12.6314ZM72.7379 16.7403L73.1584 16.8282C73.8847 16.5781 74.8621 16.7278 75.6216 17.1504L76.1567 17.5605C75.1307 17.6142 73.7681 17.4063 72.6828 16.9025L72.7379 16.7403ZM69.6891 24.0432C70.4068 24.1975 69.9246 23.6663 69.6891 24.0432ZM71.1112 28.6354V28.9725C70.8844 29.025 70.7589 28.9107 70.6337 28.8033C70.7635 28.5886 70.8909 28.5486 71.1112 28.6354ZM71.8993 24.1243C71.6988 24.0295 71.3708 24.2923 71.0562 24.0432C71.2632 23.6994 71.8087 23.8285 71.8993 24.1243ZM73.0549 20.7682L72.5266 20.6814C72.7576 20.7819 72.8833 20.6951 73.0549 20.7682ZM74.5803 22.2418C74.3978 22.5571 74.1424 22.2955 73.8472 22.3286C73.9861 22.1333 74.3492 22.2955 74.5803 22.2418ZM75.7868 22.2418H74.8974C75.0845 22.2076 75.505 22.0671 75.7868 22.2418ZM76.7906 28.8844L75.9429 28.9725C76.1567 28.6092 76.4976 28.656 76.7906 28.8844ZM77.0985 24.1243C76.9424 24.6418 76.5595 24.3059 76.2622 24.2922C76.4426 24.0832 76.7706 24.0238 77.0985 24.1243ZM76.359 31.4272C76.7221 31.2856 77.2218 31.393 77.4178 31.7631C77.1559 31.7494 76.4383 31.9778 76.359 31.4272ZM78.578 29.2134C78.3425 29.1072 78.2058 28.817 78.0497 29.2134C77.8514 29.242 77.9087 28.8788 77.6754 28.9725C77.9176 28.8502 78.5583 28.5143 78.578 29.2134ZM79.6743 31.7631C79.4673 32.099 78.6043 31.8968 78.5184 31.6683C78.9171 31.5541 79.397 31.5141 79.6743 31.7631ZM79.8304 28.8844L79.7799 29.2134L79.4123 28.8844H79.8304ZM75.2583 24.2922L75.6216 24.1243V24.3722L75.2583 24.2922ZM74.4703 31.3393C74.6904 30.9692 75.3377 31.1166 75.6809 31.3393L76.3128 31.5883C75.7471 31.7357 74.9899 31.5347 74.4703 31.3393ZM83.6739 23.8753C83.2932 24.0021 82.8352 23.9096 82.4609 23.801C82.8156 23.5646 83.4605 23.3167 83.6739 23.8753ZM83.8259 24.4533H84.3035C84.2683 24.7286 84.0504 24.715 83.8259 24.7024V24.4533ZM83.194 24.7024L83.2998 24.2922L83.4605 24.7024H83.194ZM87.6649 25.6848L87.7179 26.0207L87.2971 25.6848C87.4579 25.5706 87.4448 25.7111 87.6649 25.6848ZM88.191 25.6105L88.5586 25.7637L88.191 26.1748V25.6105ZM88.5586 24.2922L88.7171 24.2111L88.7656 24.7024C88.6049 24.7561 88.4529 25.1318 88.2419 24.8634C88.1668 24.4533 88.7656 24.6486 88.5586 24.2922ZM89.1355 25.6848C89.3731 25.8721 89.4525 25.8184 89.767 25.8527C89.6243 26.2285 89.3731 25.9258 89.1355 26.0937V25.6848ZM90.6544 25.6105L90.8215 25.6848L90.762 25.9327L90.6544 25.6105ZM82.0384 28.8844H82.2498V29.2134L81.9879 29.1277L82.0384 28.8844ZM99.1227 32.0853L99.3803 32.4885L99.0722 32.4143L99.1227 32.0853ZM81.0434 47.0133V47.356C80.2355 47.1755 80.0285 47.2817 79.5135 47.1001C79.8261 46.7985 80.513 47.1001 81.0434 47.0133ZM82.4609 36.6786L82.3555 36.8465C82.0009 36.7323 81.8821 36.5427 81.4618 36.6786L81.1954 36.4353C81.4176 36.0458 82.2738 36.0458 82.4609 36.6786ZM82.5625 33.7256V34.1289L82.144 33.8067L82.5625 33.7256ZM82.7253 47.2623V47.5114C82.4655 47.4497 82.5183 47.3172 82.3003 47.5114L82.2498 47.356L82.7253 47.2623ZM87.9247 34.5459C87.6979 34.635 87.6824 34.378 87.5614 34.3037L87.9247 34.5459ZM89.186 34.2169L89.6086 34.467L89.5053 34.796L88.8184 34.2169H89.186ZM92.5496 34.876C91.9179 34.9845 91.2553 34.924 90.6544 34.796C91.0548 34.2237 92.0852 34.5813 92.5496 34.876ZM85.0365 47.4314L85.5604 47.5114L85.0365 47.8404V47.4314ZM86.56 38.3989C87.0597 38.4321 87.9226 38.2104 87.9247 38.9849C87.0795 39.1666 86.3793 38.9038 85.7169 38.5668C85.8446 38.1704 86.2165 38.3784 86.56 38.3989ZM91.7594 41.2708C89.9324 41.5393 87.929 41.2239 86.408 40.6927C88.0612 40.5785 90.0094 40.5786 91.7594 41.2708ZM92.5496 44.8817C92.4683 45.1775 92.0587 44.8485 91.7594 44.9685L92.5496 44.8817ZM91.6031 47.2623L91.6604 46.8454C91.8715 46.8248 91.8715 47.1207 92.1335 47.0133C91.9619 47.1081 91.8627 47.3091 91.6031 47.2623ZM90.4475 43.8204C90.2978 43.7782 90.3726 43.3887 90.1348 43.4892C90.5904 43.0597 91.0374 43.5703 91.447 43.5783C91.3675 44.2899 90.6654 43.464 90.4475 43.8204ZM90.0294 45.3717C90.2603 44.8817 90.9781 45.2381 91.1846 45.5409C90.7864 45.6562 90.2825 45.7144 90.0294 45.3717ZM90.5555 46.939C90.762 46.7985 90.8679 46.9996 91.0747 47.0133L90.5555 46.939ZM89.974 47.8404C90.3373 47.7935 90.5684 47.9546 90.8215 48.0894L89.974 47.8404ZM89.5559 46.778H89.8177L89.8729 47.0133C90.126 47.0133 90.3485 46.5289 90.3968 47.1001C90.2008 47.1538 89.8817 47.0612 89.6086 47.1812L89.5559 46.778ZM88.4529 48.0894C88.233 48.311 87.9687 47.9889 87.7684 47.9215L88.4529 47.8404V48.0894ZM92.2305 40.3764L92.0235 39.9605C92.2548 39.852 92.3603 40.1673 92.2305 40.3764ZM94.9205 47.356L94.5021 47.4314L94.443 47.0133C94.6541 47.0396 94.8544 47.0875 94.9205 47.356ZM96.1223 45.2998C95.7858 45.8287 95.0615 45.3718 94.5463 45.2998C95.079 44.8817 95.6073 45.1433 96.1223 45.2998ZM81.4618 49.9651L81.7786 50.0531L81.5121 50.4632L81.4066 50.1399L81.4618 49.9651ZM102.165 70.1593L102.379 69.4179H102.009V69.7492C101.337 70.0987 100.778 69.7674 100.435 69.17C100.686 69.1494 100.584 68.5851 100.697 68.3498C101.348 68.1956 101.681 68.6388 102.222 68.5988C100.287 67.6358 98.0815 67.3742 96.0762 66.7962C96.3293 67.1674 96.8135 67.1789 97.234 67.2886C97.3286 68.1077 98.097 67.9739 98.5416 68.1818C98.2421 68.4503 98.3391 68.793 98.0662 68.9278C97.8042 69.0489 97.4961 68.4915 97.1217 68.7599C96.7784 68.6525 96.7497 67.8643 96.336 68.1076L96.7542 68.5988L96.5936 69.0889C96.4196 68.9609 96.1223 69.0214 95.8647 69.0146L95.7502 68.4377C95.1582 68.1544 94.8544 68.5177 94.2886 68.5177C93.8309 68.0345 93.1638 67.9203 92.5496 67.7033L92.4968 67.2886C92.0587 67.1252 91.3213 67.4348 91.1342 66.8705L91.242 66.4672C90.9888 66.5003 90.8017 66.4273 90.6059 66.3793L90.5046 67.0384C90.1305 67.0589 89.8686 67.2269 89.767 66.7094L90.1348 66.2182C88.3475 66.0777 86.8944 65.5179 85.4593 65.31L85.3493 64.7321C85.1424 64.6315 85.2435 65.0141 85.0365 64.9068C84.451 64.1345 83.6278 64.8199 82.987 64.4167C83.2535 64.0135 83.7026 63.7233 84.0924 63.7644C84.2573 63.7701 84.4555 64.1403 84.7219 64.1677L84.8759 64.0055C85.118 64.0855 85.3955 64.3687 85.6684 64.4167C86.287 64.5241 86.6302 64.403 86.9804 64.82L87.2971 64.6578C87.4381 65.1021 87.7333 64.9536 87.9799 64.9879C88.6621 65.0884 89.8729 66.0366 90.1855 65.1559L90.4475 65.5671C91.3125 65.6139 92.0587 66.0241 92.9722 65.8881L93.4456 65.8081C91.3213 65.2564 89.12 64.9068 87.086 64.1677C86.2363 64.2203 85.8181 63.7359 85.2985 64.0055L85.0365 63.6708L84.8298 63.8319C84.4708 63.1579 83.6894 63.6422 83.194 63.2595C83.0226 63.1384 83.0885 62.6815 82.8287 62.7683C82.0317 62.8357 81.2747 62.8825 80.513 63.0173C80.3302 62.2383 79.463 62.5467 79.1504 61.9413C79.7314 61.1211 80.665 61.7676 81.4066 61.6991C82.5159 61.6111 83.5066 62.1241 84.6622 62.1241C86.0667 61.497 87.863 62.91 89.4018 62.3583C89.2677 61.8534 88.924 62.0887 88.6114 61.786C88.3826 61.5712 88.2921 61.1074 88.0304 60.9669C87.4646 60.6574 86.7318 61.0342 86.298 60.2997L86.6149 59.8166C85.9899 59.8703 85.3336 59.2386 84.6163 59.4865C84.8451 60.0851 85.7784 59.5812 85.9304 60.2997C85.424 60.4562 84.8957 60.1387 84.3543 60.1387C83.7839 60.1387 83.2097 60.3672 82.6679 60.2267L82.2498 59.9788C81.3098 59.836 80.35 60.1786 79.7799 58.9095C80.229 58.4583 80.513 59.4808 80.8323 58.9964C80.6339 58.8011 80.0596 58.4584 80.3565 58.0071C80.6076 58.2961 81.3713 58.5794 81.6136 58.3429C81.301 58.103 81.0875 58.1967 80.986 57.685C81.2152 57.557 81.279 58.0482 81.3603 57.685C81.0875 57.5639 81.1643 57.2544 81.301 57.0259C80.3015 56.7906 79.1349 56.2388 77.9945 56.3667L77.8382 56.8648C77.55 56.778 77.4883 57.0259 77.2615 57.0259V56.4467C77.0084 56.1383 76.6453 55.9897 76.359 55.7144L76.0552 55.8755C75.4698 55.2644 74.6904 55.6208 73.8936 55.4666C73.0924 55.3043 72.3703 54.7811 71.5271 54.82L71.3202 54.4099C71.6789 53.9256 72.1567 54.3356 72.586 54.4099C73.5105 54.5447 74.6574 54.7252 75.4148 54.7252C75.9584 54.7252 76.2975 54.828 76.7309 54.8954C77.2968 54.9822 77.9066 54.82 78.4635 54.8954C80.3015 55.1501 82.0716 55.7282 83.6739 55.9498L82.8794 55.2176H81.9879L82.932 55.1433L83.6168 55.0565L83.9316 54.7252C84.5169 54.7811 85.1732 55.0427 85.7741 54.82C86.3881 55.2643 87.0509 55.1239 87.8167 55.3044C88.8581 55.7282 89.6748 55.8092 90.6059 56.0434C91.3985 56.2388 92.1093 56.8317 92.8161 56.9459C93.0185 56.979 93.241 56.8854 93.4456 56.9459C93.7891 57.0533 94.1127 57.6781 94.5021 57.356C95.7327 58.2436 97.2232 58.4172 98.5416 58.8353C98.6472 58.5063 98.7617 58.1967 99.0722 58.175L99.4902 58.7462L99.7522 58.175L99.4331 57.685C99.1073 57.557 98.863 57.7455 98.7067 57.4428C98.0112 57.2143 97.3286 57.1938 96.6486 57.0259C95.9354 56.85 95.2396 56.393 94.5463 56.2056C93.8309 56.0034 93.0075 56.1714 92.3956 55.4666L92.3405 54.9822C91.1497 55.0027 89.6594 54.828 88.4529 54.491L88.136 54.7252C88.0196 54.4499 88.3012 54.2751 88.0853 54.074C86.6302 54.1003 84.3742 52.9705 83.1478 53.1739C82.9959 52.5136 82.4655 52.8906 82.0384 52.5948L81.9349 53.1739C81.6333 53.2607 81.574 52.95 81.6136 52.5137C80.7661 52.1436 79.5223 52.1378 78.7343 51.4455C79.6698 51.2171 80.9112 51.4718 81.8359 51.6203C82.3091 51.6809 82.8947 52.2578 83.1478 51.6203C82.6438 51.1965 81.6136 51.3438 81.149 51.0411C81.8997 51.1759 81.926 50.6105 82.5159 50.5431C82.5228 50.3078 82.3003 50.2415 82.5159 50.1399C83.4296 50.0999 84.3807 50.47 85.3493 50.4632C85.5516 49.9651 86.0602 49.9319 86.505 49.804C83.0819 48.9232 78.6086 48.7348 75.0492 47.9215C74.444 48.2105 73.933 47.7135 73.5764 47.6793C73.2267 47.6324 72.8479 47.8278 72.4758 47.8404C72.0905 47.8541 71.7121 47.6062 71.3708 47.5925C71.0121 47.5788 70.334 48.103 70.2174 47.2623C70.4155 47.2497 70.8096 47.356 71.1112 47.1001L71.3708 47.356C72.7136 47.2349 73.9156 47.5719 75.1063 47.6793C75.4148 47.693 75.7471 47.5514 76.0552 47.5925L77.0482 47.7523L77.2065 48.0026L77.7259 47.8404C78.7364 47.8678 79.9979 48.2847 81.1954 48.4183C82.5821 48.5463 83.4803 48.4184 84.7724 48.7348L85.0365 48.4183C85.5164 48.9233 86.6173 47.7136 87.031 49.0638L87.141 48.5805C89.6043 48.3921 92.7852 49.435 95.3916 48.9027L95.2836 48.5805C95.3718 48.3646 95.4906 48.1899 95.7041 48.1637L96.0762 48.6605C96.5913 48.2504 97.5356 48.4857 98.0198 48.4183L98.227 47.7523C98.9443 48.0151 99.6114 47.7524 100.226 48.1637L100.061 48.6605L99.4902 48.7348C99.99 48.7885 100.52 49.0432 100.963 49.0638L101.54 48.9027C101.945 48.9495 102.427 49.5561 102.746 48.9027C102.403 48.0962 101.337 48.8959 101.066 48.1637C101.894 47.8678 103.195 48.8627 104.113 48.2504C104.342 48.3989 104.382 48.4184 104.479 48.0894C103.195 48.0425 102.535 47.5456 101.17 47.4314L100.802 47.6793C100.071 47.3434 99.257 47.2075 98.5416 46.6969L98.7067 45.9509C97.8329 45.7762 97.4851 46.1394 96.9106 46.2742V45.7887C96.6462 45.8287 96.5669 45.5546 96.2851 45.622L95.8647 44.4784C96.162 44.331 96.4349 44.2363 96.5936 44.6327C96.961 44.1084 98.141 45.1776 98.7067 44.5596C99.147 44.9423 99.6929 44.6326 100.061 44.4784C100.389 44.6395 100.686 44.7881 101.009 44.5596L101.591 44.4784C100.809 43.7462 99.8031 43.9404 98.8585 43.6639C97.9209 43.3749 97.157 42.9922 96.391 42.7501C95.7174 42.5422 95.037 42.4543 94.3921 42.2669C93.8594 42.099 93.3247 41.7608 92.8711 41.6877C92.4683 41.6203 92.0434 42.0705 91.8122 41.2708C93.2212 40.8882 94.83 41.6535 96.391 41.7677L96.2325 41.1897C95.9968 41.1566 95.825 41.2171 95.7041 41.3519C95.2241 40.7396 94.4163 41.0149 93.7604 40.7865L93.3906 40.5317C93.0692 40.478 92.5739 40.8744 92.3956 40.2073C93.5819 39.9525 94.7399 40.5043 96.0762 40.4506C96.0607 39.5024 95.3649 40.0199 95.0217 39.8851C94.6849 39.7446 94.249 39.804 93.8111 39.7172C93.0384 39.5424 92.356 39.0855 91.7594 39.2271C91.1846 39.3471 90.4164 38.9782 90.0294 39.3003C89.6659 38.9039 89.0584 39.0924 88.6621 39.3003C88.3891 39.0319 88.3826 39.1529 88.0853 39.3003L87.9799 38.6492C88.3012 38.1705 88.7369 38.5463 89.186 38.3989L89.5053 38.1499C89.7452 38.1317 90.0534 38.3601 90.3461 38.3989C93.0692 38.8296 95.7834 39.3951 98.3325 39.7983C96.9369 39.0455 95.2198 38.8502 93.4961 38.4869C91.5986 38.0894 89.6086 37.9683 87.8167 37.5788L87.6099 37.8347C87.1871 37.4988 86.3905 37.1687 85.8754 37.4988C84.9595 37.075 83.8457 37.1561 82.8287 36.6786C83.3811 36.0458 84.0725 36.5427 84.9859 36.4353L85.1424 35.8572C85.4395 35.8572 85.7741 35.7968 85.8754 36.1063L85.7169 36.6786C87.3128 36.5027 88.8889 37.3434 90.1855 36.5106C90.3968 36.5495 90.8017 37.115 90.762 36.3497C90.4233 36.3816 90.0204 36.0458 89.7121 36.4353C89.5646 36.2811 89.4525 36.0857 89.241 36.0126C88.1207 36.2674 86.7229 35.6093 85.6113 35.6962L85.248 35.2861C84.5678 35.4883 84.2748 35.125 83.5661 35.0382C83.5661 35.2792 83.7179 35.6962 83.5066 35.7705H83.2998V35.1182C83.0069 35.2256 82.4303 35.3466 82.4105 34.796C82.8462 34.2168 83.6894 34.5664 84.0327 35.0382C84.308 34.9285 84.3608 34.4934 84.5105 34.2169C84.8097 34.4934 85.3955 34.9285 85.7169 34.467C86.0292 34.8097 86.5798 34.9572 87.086 34.964L87.4536 34.796C87.6649 34.836 87.8432 35.0713 88.0304 35.1182C88.3671 35.2061 88.7171 35.1044 89.034 35.2061C91.7462 36.1131 94.8809 36.2285 97.5466 36.9276C97.8131 37.0007 98.0418 37.2829 98.3325 37.0955C98.7531 37.364 99.6203 37.7204 100.12 37.3366C99.2945 36.8739 98.1785 36.4707 96.9701 36.3497L96.6991 35.6094C95.9552 36.0183 95.178 35.4883 94.443 35.3741C93.8111 35.2599 93.175 35.4746 92.7566 34.876C93.0075 34.4853 93.7537 34.8897 94.0685 34.6349C92.9722 34.1768 91.7066 33.9678 90.6544 34.1289C89.076 33.6994 86.8902 33.5246 85.6113 33.8878L85.4593 33.5577C84.2683 33.5315 83.775 33.2824 82.8287 33.3167L82.6175 32.9785C82.3708 32.9134 82.45 33.3167 82.1992 33.2288C81.9879 33.3167 82.0384 32.9786 81.8359 33.0746C80.9157 33.4778 80.0132 32.6096 79.1504 32.9785C78.7916 32.5433 78.3623 33.0072 77.9945 32.9135L77.6293 32.6576C77.2703 32.6096 76.9027 32.7455 76.5241 32.7455C75.3795 32.7318 74.1512 32.4417 72.9449 32.4143C71.2234 32.3743 69.5173 31.8967 67.9568 31.9173L67.6903 31.5883C67.4372 31.971 66.1295 32.0716 66.1142 31.272C67.3951 31.3108 69.1124 31.4524 70.4243 31.7631C72.1215 31.3999 74.5011 32.1858 75.9979 31.9173L76.3128 32.2464L76.5241 32.0853C77.4441 32.5171 78.6946 32.2932 80.0484 32.4143L80.4623 32.6576C81.0235 32.5217 81.5233 32.5902 81.9879 32.9135L81.7238 32.3286C81.2107 32.4349 80.4776 32.011 79.8304 31.8362L80.0484 31.5141C80.5416 31.77 81.028 31.5883 81.6136 31.6683C81.9724 31.722 82.3247 31.9642 82.6679 32.0042C83.2449 32.0522 83.8457 31.9505 84.4046 32.0853C85.7631 32.4212 87.5198 32.0922 88.924 32.3286C89.7121 32.4611 90.4475 32.685 91.1846 32.8106C91.4621 32.8723 91.7902 32.7045 92.0235 33.0746C92.8402 32.9318 94.346 33.0197 95.2836 33.2288L95.5986 32.9785C96.2676 33.8604 97.879 32.7512 98.3853 33.8878C98.6319 33.8341 98.7486 33.9815 98.9642 33.9678L99.0722 34.467C99.4001 34.3574 99.5564 33.9679 99.7522 33.6458C99.7785 34.2238 100.12 34.3311 100.327 34.6349L100.646 34.467C100.776 34.5059 100.758 34.7812 100.963 34.7012C101.756 34.4316 102.535 35.2061 103.114 35.0382L102.59 34.796V34.3037C102.156 34.0558 101.738 34.3448 101.54 33.8067C103.82 33.8878 106.658 34.4384 109 34.6349C108.139 34.25 106.907 34.0215 106.006 33.9678C105.13 33.0071 103.285 33.9679 102.852 32.2464C102.566 32.0922 102.16 32.2601 101.958 32.2464L102.379 32.9785C101.505 32.7318 100.226 32.9728 99.6511 32.4885V32.2464C100.369 32.099 101.04 32.3001 101.853 32.4143C101.945 31.3531 103.05 31.8637 103.428 31.272C101.802 30.7533 99.9637 30.6197 98.227 30.4449C97.4851 30.3706 96.4218 30.2896 95.966 30.1148L95.7502 30.606C95.9572 30.7602 96.4548 30.735 96.5936 30.5317C97.0623 31.393 98.2643 30.4575 98.7067 31.5141C98.5041 31.89 98.1828 31.722 97.9097 31.7631C97.3441 31.8237 96.7079 31.971 96.173 31.8362C95.9354 31.7699 95.77 31.5141 95.548 31.5141L95.1316 31.5883C94.1325 31.4204 92.926 32.3743 92.0235 31.272L91.6031 31.4272L91.1342 31.096L91.0747 31.7631L91.0285 31.1852C90.5596 31.1909 90.3461 30.8207 89.8729 30.8538C89.0385 31.6009 87.8432 30.7602 87.031 30.6814L86.8241 30.1148L86.7229 30.7671C86.2892 30.7351 86.157 31.1497 85.7169 31.096L85.3493 30.7671C85.1424 30.6871 85.1928 31.0172 84.9859 30.943C83.8082 30.3033 81.9571 30.2027 80.6229 30.0348C80.9575 29.6578 81.1292 29.3688 81.6686 29.4499L82.5625 29.6247C82.976 29.9137 83.6476 29.988 84.1428 30.0348C84.3697 30.0542 84.7724 30.1285 84.8759 29.7858C84.308 29.1609 83.2733 29.3426 82.6679 28.9725L82.7736 28.3932C82.2499 28.3201 81.6994 28.3738 81.2503 28.6354C80.9157 28.2059 80.3103 28.1923 79.9384 27.8153C80.4709 27.4589 80.9468 27.6884 81.5718 27.7421C83.6364 27.9169 85.8952 27.3104 87.9799 27.8964C88.2153 27.6462 88.5586 27.8027 88.7656 27.8153L88.9725 28.1454C89.8177 27.3103 90.8567 28.4744 91.6604 27.8153L91.5524 28.0574C92.1841 27.6884 92.882 28.0106 93.5491 27.8964C94.4406 27.7604 95.1847 27.9363 96.0212 27.9843C96.3138 27.9969 96.9039 28.038 97.0755 27.5674C96.063 27.3104 94.7399 27.8496 93.8615 26.9962C93.6591 27.0282 93.6591 27.3846 93.3906 27.3252C93.1593 27.0819 93.3247 26.6592 93.285 26.417C92.5847 26.0938 91.5326 26.2354 91.242 25.6848L92.1335 25.1182C91.7264 25.253 90.9889 24.7892 90.5555 25.2815L89.6086 25.3547L89.4525 24.9503L89.0805 25.0245L89.241 24.1243C89.5734 24.0775 89.5646 24.5471 89.767 24.7024L90.236 23.9632C89.4986 24.0021 88.9527 23.7611 88.2921 24.0432L88.5036 24.2922C88.1757 24.5607 87.8432 24.3322 87.403 24.3722L87.9247 24.8634C87.7179 25.1056 87.4646 24.9434 87.1872 25.1856C86.9252 25.1319 86.9252 24.635 86.934 24.3722C86.4961 24.1643 85.8446 23.9221 85.4593 24.1243C85.2019 23.6137 84.8892 23.5715 84.5654 23.5521C84.0152 23.5052 83.3811 22.8198 82.4609 23.054C82.1792 22.5365 81.8051 23.0003 81.4618 23.054C80.6779 23.1956 79.9712 22.8792 79.573 22.3286C79.4718 22.5308 79.2603 22.2075 79.0447 22.3286L78.9939 22.067C78.7211 22.4828 78.5383 22.0865 78.1444 22.2418V21.7369C77.6709 21.6147 77.3124 21.6638 76.7309 21.4204L76.5703 20.6814C77.277 20.6277 78.0034 20.9498 78.4173 20.3524C77.9945 20.0428 77.4685 20.1433 76.9424 20.0348L76.9997 19.531C76.4845 19.5573 76.2469 20.7545 76.2048 19.531C76.2908 20.3524 75.9386 20.6003 75.6216 21.0104C75.298 20.3524 74.3978 21.2125 74.0499 20.5203C73.4798 20.8093 72.575 20.1959 72.2647 20.7682C71.5823 20.3249 70.1999 20.9897 69.4778 20.2701L69.5813 20.0348C69.8101 20.0017 69.8101 20.3387 70.0061 20.3524C70.2592 19.8132 70.6069 20.2781 71.0011 19.86C71.2233 19.8543 71.2147 20.1959 71.4722 20.1022C72.1127 19.2283 73.6206 20.0897 74.314 19.6853H73.9488C73.2069 18.8457 71.6526 19.5105 70.4817 19.0398L70.5873 18.5498L71.0562 18.792L71.3202 18.5498C72.2998 19.0204 73.4798 18.5829 74.0499 18.9599C74.1665 18.7851 73.9596 18.5029 74.2084 18.4606V18.9599H74.6904L74.3647 18.5498C74.587 17.8107 75.4278 18.2459 75.7868 18.4606C75.9782 18.1316 76.2203 17.8781 76.6848 17.9786L76.5241 17.3183L76.8917 16.9893C76.7818 16.5107 76.5638 16.9894 76.2622 16.9025C74.7256 16.2023 72.7423 16.2354 71.1638 16.2492L70.9504 15.839L71.1638 15.5169C72.3857 15.3147 73.1122 16.0412 74.1049 15.678L74.0499 15.0188C73.7418 15.181 73.7991 14.764 73.5764 14.7777C73.3498 14.7777 73.667 15.1205 73.4246 15.0999L73.3697 14.6098C73.0197 14.6281 72.8677 14.5276 72.6323 14.9388C72.4803 14.1986 71.5075 14.7641 71.1112 14.3608L70.9043 14.6098C69.9597 13.8559 68.9121 14.4282 68.0117 13.9495C68.7799 13.2973 69.8388 13.9895 70.8447 13.9495C71.6878 13.9164 72.4561 14.0375 73.1584 13.9495C73.8651 14.0706 75.069 14.5755 75.5248 13.9495C74.8797 13.6879 73.9641 13.8628 73.5764 13.2105L72.9449 12.8884C73.2134 13.0563 73.319 12.8392 73.5303 12.7193L73.5764 13.1294C73.8142 13.1168 73.8539 12.7924 74.0499 12.7193L74.6904 12.5571C74.4791 12.2749 74.3492 12.6462 74.2612 12.8004L74.0499 12.396C72.7289 12.1276 71.1772 12.4166 69.7948 11.8991C69.5813 11.9665 69.2534 12.067 69.218 11.6569L69.7948 11.738C70.3098 11.2868 71.4193 11.7381 71.8486 11.818L72.1105 11.2469L72.3197 11.5702C72.5266 11.2926 73.046 11.5096 73.1584 11.0847L72.5266 10.7568L72.6323 10.5809C72.2074 10.4255 71.8507 10.5602 71.5271 10.3318C70.7852 10.7362 69.8739 10.622 68.9009 10.5066C68.3352 10.446 67.8597 9.95594 67.6441 10.3318C66.7393 9.82115 65.3987 10.3855 64.5401 9.77433C64.0251 10.1502 63.3735 9.86803 62.9136 9.60644C62.656 9.80749 62.4292 9.75383 62.2772 9.43855C63.3867 9.04901 64.298 9.76754 65.3812 9.35744L65.696 9.60644L65.9577 9.43855C66.8009 9.50594 67.6551 9.63268 68.5885 9.77433C68.8899 9.80746 69.2687 9.81431 69.5813 9.77433C70.2527 9.6738 71.1419 9.51848 71.8993 9.52534C72.2119 9.52534 72.6366 9.89548 72.8986 9.43855L72.3703 9.02847C72.8833 8.83998 73.5217 9.15641 74.1049 9.02847L73.7879 9.6795C75.7008 9.9491 77.7369 9.84856 79.573 10.3318L79.7799 10.0097C80.229 10.4861 81.039 10.3992 81.7786 10.4255L81.7238 9.84863C80.9377 10.0028 80.2817 9.50594 79.6743 9.43855C79.452 9.41798 79.3375 9.62587 79.3067 9.27746L78.9939 9.52534L79.1504 9.27746C78.0187 9.00673 77.3078 9.62587 76.6848 8.44926V8.03918C76.4735 7.96493 76.6606 8.50295 76.4735 8.44926L75.7359 7.95808C75.1615 7.83129 74.4593 8.2071 74.0037 8.12029C73.7724 8.07916 73.5413 7.76385 73.3123 7.71701C72.8854 7.6359 72.52 7.68959 72.0577 7.71701C71.9211 7.41315 71.5625 7.58904 71.2673 7.54221C70.7788 7.47481 69.9047 7.38691 69.8454 6.80203C70.4045 6.62726 71.5515 7.30693 71.7934 6.47874C71.1837 6.26398 70.3407 6.73457 70.0061 5.99548C70.3693 5.5454 70.6996 5.44267 71.2147 5.73968C71.0474 4.6636 69.6387 5.08055 69.2687 4.19296C67.36 3.79542 65.2555 3.02892 63.3823 3.44587C62.3983 2.88841 61.3747 2.92154 60.338 2.79359C58.5505 2.55942 56.3845 2.79361 54.2404 2.54572C51.1959 2.18931 47.7883 2.16869 44.5679 1.96764C42.0736 1.82484 40.2795 1.54265 38.1091 1.64546C37.6645 1.65117 37.398 1.48331 37.0548 1.39536C36.7268 1.30168 36.4252 1.43648 36.1148 1.39536C35.4699 1.32796 34.8028 1.0858 34.1623 1.06638C33.8893 1.05952 33.6362 1.24688 33.3807 1.22746C32.1634 1.16692 30.9461 0.871036 29.8563 0.495209L29.1144 0.656296C27.9126 0.246198 26.1606 0.177561 24.811 0.246101C23.4749 0.313499 22.3434 0.130756 21.0776 0.0782089C19.966 0.0427966 18.8345 0.0177363 17.7185 0.00402832C16.8049 -0.0165337 15.8055 0.0381966 14.9315 0.246101C14.619 0.320353 14.302 0.588898 13.9872 0.656296C11.711 1.11323 9.37981 1.28114 7.51539 2.79359C7.35024 2.79359 7.37012 2.53192 7.14773 2.6256C6.86376 3.06996 6.69861 4.1929 6.99148 4.85203L6.62827 5.5043C7.30844 5.84014 8.32979 5.86759 9.09592 5.3364C9.65718 5.4712 10.5311 5.24274 11.3016 5.2553C11.5107 5.4712 11.6142 5.86762 11.7771 6.16348C12.6444 6.01498 13.4787 5.91441 14.4539 5.66538C14.8104 6.12232 15.2111 6.12912 15.7153 5.90066C16.2193 6.63975 17.0691 5.98867 17.6129 6.55984C19.1691 6.43875 21.1766 6.35764 22.9687 6.98364C23.0808 6.8637 23.2261 6.76776 23.4441 6.80203C23.913 7.46002 25.2711 6.31769 25.599 7.38692C25.2006 7.71705 24.4897 7.80385 24.2321 7.30693L24.0713 7.71701L23.7567 7.38692C23.4001 7.6428 22.8387 7.31945 22.7022 7.54221L22.9687 8.03918L22.4995 7.95808L22.5461 7.38692C22.3391 7.4349 22.0066 7.43483 21.7072 7.54221C21.5927 7.10355 21.2691 7.21097 20.9741 7.30693C20.8883 7.30693 21.0776 7.89181 20.8708 7.8781C20.611 7.8107 20.5054 7.7296 20.3952 7.797V7.38692C20.1311 7.30695 20.2081 7.75702 20.0276 7.797C19.4509 7.54911 19.0061 7.99233 18.1894 7.8781L18.031 7.47482C17.8352 7.48853 17.89 7.89866 17.6634 7.8781H17.1371L17.5025 8.20708C19.0833 7.9649 20.82 8.29502 22.2837 8.53606C22.2574 8.95986 21.8238 8.99305 21.6061 9.02847C21.1216 9.10729 20.5317 8.93355 20.2346 8.86615V9.35744C19.5807 9.40428 19.2088 9.43856 18.874 9.94233L18.4471 9.35744C18.2886 9.66016 17.921 9.62581 17.6129 9.6795L17.5025 10.2576L17.4564 9.60644L17.0337 9.6795V10.1776C16.6529 10.2781 16.4307 10.1639 16.3007 10.5809C16.5342 10.5752 16.774 10.5534 16.7697 10.911C16.3097 11.4216 15.1297 11.5027 14.7115 11.1669C14.1545 11.7106 13.0296 10.8231 12.4573 11.4891L12.1447 11.2469L11.8278 11.4891C10.7667 11.0184 9.06502 11.7243 8.35848 10.5066C8.04144 10.3455 7.75311 10.2781 7.41414 10.3318L7.04212 11.2469C7.70685 12.2487 9.10698 11.6432 9.93456 11.8991L9.98964 12.316C11.4689 12.067 13.023 11.3611 14.1941 12.067C13.7825 12.1002 13.1507 12.316 12.5101 12.396C12.0742 12.4497 11.4491 12.1139 11.251 12.7193C11.6494 13.1031 12.5036 12.7867 12.7765 13.3648C12.1513 13.399 11.5899 13.4858 10.9891 13.5464L10.879 14.1986C9.93901 13.8685 8.80306 14.7035 7.83011 14.1106C7.65177 14.5893 7.26885 14.764 6.88579 14.9388L6.99148 15.7648C6.18354 15.6917 5.91944 15.5968 5.36692 15.0188L5.25462 15.5169C5.63318 15.4963 5.7852 15.839 5.99208 16.0811L6.30902 16.6535C5.94145 16.4102 5.78956 16.7678 5.36692 16.5781L5.20845 17.8027C4.68008 18.0106 4.02623 18.3282 3.41658 18.6241L3.84137 20.1959L4.25965 20.2701L4.04832 21.0847C4.4357 21.2994 4.51279 22.4223 4.46653 22.813C4.62946 22.8998 4.77475 23.0002 4.99266 22.974C5.26567 24.1426 7.04212 23.2961 6.6789 25.1856C6.92536 25.3546 7.29962 25.3204 7.20281 26.0207C7.1169 25.8722 6.99148 25.8047 6.78452 25.8527L6.6789 26.9962C7.46031 26.914 7.98422 27.4177 8.93959 27.1561C9.11128 27.0556 9.08489 26.625 9.30282 26.5918C9.54934 26.7323 9.88839 26.5312 10.2516 26.5038C10.672 26.4776 11.2928 26.2959 11.4072 26.9139L10.8327 27.4862L10.879 28.1454C10.6521 28.3202 10.2428 28.1854 10.201 28.6354L10.3022 28.8844C10.6103 28.5817 10.6259 28.7783 10.934 28.9725L11.0903 28.5486L11.7771 28.9725C11.4072 29.1998 11.0463 29.0192 10.672 29.3756C9.75845 29.1334 8.82953 30.1216 7.72672 30.0348C6.99148 29.9743 6.28479 29.6921 5.57387 30.1148C5.12914 29.8132 4.69987 29.9275 4.20903 29.7858L3.9977 30.2827L3.89201 29.7858L3.57712 30.8538L3.31088 30.6814C2.67466 31.1429 2.45675 32.2463 2.46779 33.7256C1.32526 36.4352 3.44734 37.532 4.3609 38.4869L4.31473 39.3003C4.17374 39.2272 4.04832 39.1129 3.84137 39.1392C3.66527 40.5923 2.71433 40.8276 2.4259 42.099C1.60922 43.1066 0.816758 44.7206 0.583413 46.61V47.4314L0.262016 48.7348C-0.0108969 50.6505 6.0541e-05 52.878 6.0541e-05 55.1433L0.156311 55.6207C0.176184 57.4896 0.700096 58.5726 0.84751 60.2267C1.246 62.2851 2.49856 63.0037 3.26025 64.4967V66.3793L3.94271 67.6027L3.62346 67.8643L4.25965 68.8467C3.87658 68.9746 3.87658 68.5177 3.57712 68.5177C3.4363 69.0558 3.6124 69.8965 3.21391 70.1593L3.41658 70.5613L3.10392 71.3827L3.41658 72.0418L3.26025 72.621C3.40109 73.1921 4.11208 73.2995 3.89201 74.1734C4.52607 74.8531 5.33385 75.7064 6.0427 76.3107C6.55778 76.7493 7.26003 76.8225 6.99148 77.7032H6.52035C6.92536 77.6564 7.14113 78.2881 7.51539 78.5314C7.8499 78.7462 8.41346 78.6445 8.98586 78.7667C9.65719 78.9209 10.3485 79.1894 10.879 79.1826C12.6664 79.1358 14.6388 80.3785 16.2414 79.5858C16.9765 79.9559 18.1983 79.5664 18.9755 79.4316C20.1993 79.5527 21.5905 79.6132 22.8673 79.5858C24.2761 79.9502 25.8433 79.7538 27.4327 79.7538C28.2869 80.157 29.5792 80.085 30.6422 80.165C30.966 80.1981 31.3247 80.1855 31.6417 80.2449C35.3444 80.9852 39.2559 81.5026 43.0972 82.3822C45.7586 82.982 48.6225 83.4789 51.352 83.8559C52.1359 84.2854 53.2014 84.1391 54.1346 84.2671C54.6496 84.3471 55.2947 84.5892 55.9221 84.6761C58.6229 85.013 61.6366 85.4494 64.2805 86H64.9077C64.5337 85.4494 62.0087 84.0649 63.433 83.3646C63.51 82.6392 63.9284 82.4645 64.3312 82.4645L65.0642 82.3092C64.5225 82.0464 64.08 81.6432 63.3823 81.6432C62.5303 80.7567 61.0666 80.7967 59.7018 80.7361L59.4396 80.4939L59.1272 80.6561C58.3545 80.2449 57.2692 80.8036 56.9699 79.8349C60.7871 80.0965 64.9321 80.8972 68.8502 80.904C68.6743 79.9033 67.664 80.3466 66.9572 80.2449C66.4838 80.1775 66.0282 80.0702 65.7507 79.7538L65.8523 79.1026C66.0437 79.0078 66.1955 79.2967 66.4267 79.0146C66.8451 79.8005 67.9458 79.122 68.5885 79.5116C69.185 78.953 70.1272 78.7794 70.8447 78.8536L70.7898 78.2881C71.5515 78.3761 72.3505 78.3212 73.1053 78.5314C72.4406 77.6564 71.2785 78.2744 70.6337 77.5422C71.1024 77.2863 71.4896 77.5959 71.7427 77.1184C70.9504 76.642 70.0567 77.0453 69.218 76.8031C68.7646 76.674 68.3153 76.7825 67.8511 76.7208L67.6903 76.4718C66.7194 76.217 65.6848 76.3918 64.6966 76.1496C64.3312 76.0491 63.8226 75.9418 63.4878 75.9886L63.3362 75.7395C62.9488 76.1028 62.3192 75.7533 62.0702 75.6527C62.0439 74.9788 62.6625 75.6665 62.9136 75.3238L63.3823 75.6527C65.0839 75.5042 66.7548 75.9417 68.1702 76.1496C68.6898 76.217 69.2599 76.0685 69.6891 76.2239L69.9509 76.4718L70.1647 76.3107C70.7984 76.2981 71.3907 76.5392 71.9497 76.2239C73.3852 76.4055 75.5511 76.7562 76.9424 76.385C78.2345 76.7962 79.441 76.385 80.416 76.385L80.6229 76.7208C81.4263 76.4854 82.1024 76.5997 82.7253 76.3107C81.8491 75.9074 80.5791 75.8812 79.4673 75.8206C78.043 75.7258 76.6298 75.3237 75.3683 75.4105L75.1063 75.1672L75.6216 74.6704V74.0181C78.1642 73.9644 80.6229 74.5424 82.5625 74.0181L82.144 73.6891C82.3708 73.7497 82.6373 73.5886 82.7253 73.6891L82.6679 74.1734C82.8287 73.9038 83.128 73.8433 83.3548 73.6891C84.0327 74.5493 84.9904 74.6029 85.9304 74.7502L86.0315 75.2427C87.3876 75.0736 89.197 75.8881 90.4475 75.6527L90.762 75.9886C91.8474 75.9886 92.4924 76.7208 93.4961 76.642L93.8111 76.9642C95.5764 77.3743 97.4851 77.3137 98.8585 76.8819C97.1768 75.9748 95.3848 76.2982 93.8111 75.6527L94.0224 75.4105C92.8249 75.4848 92.1908 75.229 91.0747 74.9137L90.9229 74.3414C90.0687 74.603 89.197 73.7028 88.6114 74.0923C88.5586 73.689 88.2418 73.6754 87.9247 73.6891L87.8167 73.9312L87.5614 73.6022C86.4961 73.6959 85.8884 73.103 84.9287 73.1921C84.4708 72.7615 82.932 72.7066 82.2498 72.621C81.1732 72.4713 80.0749 72.7467 79.3573 72.2098C79.8657 71.5175 80.6184 72.0486 81.149 71.9607L81.6686 71.6317C82.1792 71.5106 82.7229 71.7791 83.2535 71.7186C82.9564 71.3679 82.3003 71.4226 82.4105 70.4951C81.9349 70.4951 81.0522 70.4952 80.8323 69.8292C80.5416 70.3329 79.9319 69.7754 79.573 69.6612C80.2004 69.0215 81.1953 69.8142 82.0384 69.5858L81.0434 69.2568C80.9662 68.6662 80.502 69.0752 80.2004 68.7599C80.7948 68.632 81.6598 68.7325 82.144 68.8467C82.7846 68.9884 83.4406 68.7462 84.0327 68.8467C84.5061 68.921 84.9794 69.3173 85.4593 69.4179C86.1923 69.5675 86.8329 69.6418 87.4536 69.6612C87.8389 70.1649 88.7017 70.2735 89.186 69.9971L89.8729 69.8292C89.6506 69.6887 89.1554 69.8965 88.8736 69.5001C88.6666 69.5058 88.6313 69.7755 88.4025 69.7492C88.1955 69.7675 88.3387 69.2568 88.136 69.2568C86.7691 68.9278 85.248 69.2705 84.1978 68.4377C83.8611 68.3635 83.5861 68.4435 83.3548 68.3498C83.4451 67.1058 84.3742 68.0277 84.7724 68.0209C84.6933 67.4611 84.2088 67.3606 83.8259 67.2886C82.6988 67.0453 81.2305 67.2531 80.568 66.554L79.9934 66.6215C80.1454 66.0366 80.5878 66.3462 80.8849 66.0503C81.7611 66.5747 83.0355 66.2525 84.0327 66.7094C84.187 66.6557 84.178 66.3188 84.4046 66.3793C85.358 66.4204 86.1923 66.7425 86.9804 66.8705L87.031 67.5284L87.1872 67.3605C87.9754 68.175 89.109 67.6358 90.236 68.2755C91.1188 67.9602 91.9179 68.2355 92.7566 68.4377C93.0692 68.4971 93.3247 68.7804 93.6041 68.8467L93.8615 68.6788C94.1853 68.6925 94.4163 69.0489 94.7597 69.17C95.0527 69.2854 95.4509 69.1174 95.7502 69.17C96.7322 69.3448 97.7646 69.8429 98.5923 70.2393C98.9512 69.9708 99.2792 70.4677 99.5411 70.1593C99.7785 70.3066 100.021 70.4414 100.226 70.6561C102.176 70.8503 103.508 72.0418 105.639 71.3827C105.093 70.9589 104.194 71.0594 103.746 70.4951C103.008 70.535 102.665 70.3877 102.165 70.1593Z" fill="#100F0D" />
</svg>