<svg viewBox="0 0 109 86" fill="none" xmlns="http://www.w3.org/2000/svg" preserveAspectRatio="none"><path fill-rule="evenodd" clip-rule="evenodd" d="m98.647 69.75-.152-.332h.258l-.106.331Zm-14.93-4.514.375-.33.364.25c-.148.47-.39-.014-.738.08Zm-4.043 1.89c-.438-.404-1.444-.048-1.948-.33l.06-.417c.506.162 1.43-.133 1.945.242l-.057.504Zm-.57 5.413-.11-.33h.207l-.097.33Zm-1.686-7.632-.055-.25.312.075-.257.175ZM77 66.467l-.315.154-.16-.322.475.168Zm-.163-1.89-.046.243-.267-.323.313.08Zm-.782-6.152c-.565-.6-1.382-.31-1.95-.908.132-.524.775-.31 1.001-.074.216.12.399-.128.63-.087l.32.248c.12.014.303-.14.514-.087.438.107 1.367-.31 1.374.658-.431.203-1.037.06-1.525.081-.146.034-.148.262-.364.17Zm-1.213 6.072-.528-.255c.61-.31 1.409.025 2.105.255-.298.564-1.057.107-1.577 0Zm.628 3.367c-.148-.336-.34-.085-.573-.261l.047-.314c.248.228.385.153.678.24l-.152.335Zm-.055 5.986-.258-.329.313-.081-.055.41Zm-1.733.652.06-.57c.264.241.69-.042.995.241-.102.806-.758.336-1.055.33Zm-.418-8.203v-.249h.312l-.312.25Zm-2.05-2.22-.31.163c-.528-.237-1.169-.007-1.58-.41-.337.007-.727.093-.736-.398.298-.417.703.269.89-.088.953.58 2.078-.02 2.842.733-.328.15-.813.243-1.105 0Zm-.944 1.73-.105.41-.159.08c-.211-.06-.18-.485-.528-.329l-.104-.49c-.27.309-.594-.244-.579.651-.262.054-.248-.317-.37-.492-.953.034-1.468-.242-2.256.17v-.412c.363.103.452-.222.581-.49.5.235 1.14.275 1.675.249l.163.323c.868-.418 1.645.207 2.413.088l.214.321.634.243c-.274.14-1.086.155-1.579-.323Zm1.257 7.55.055-.241h.211l.056.16-.322.08Zm-.737 0 .055-.33.266.25-.321.08Zm-1.623-6.234.472-.168-.058.404-.414-.236Zm.678 4.917-.264-.161.108-.25.156.41Zm-1.206-4.753-.05-.418h.206l-.156.418Zm-.42-.164v-.504l.264.417-.264.087Zm-1.262 4.507c.212-.397.641-.182.949-.075-.227.41-.727.121-.949.075Zm-1.16-.075c.267-.458.57.04.738-.08-.128.323-.515.188-.738.08Zm-1.787-.174-.046-.405c.226-.2.402.271.627.325.246-.204.863-.189.949.329-.57-.154-.843-.121-1.53-.25Zm-1.05-8.454-.21-.57.632.087.315.322-.737.161Zm-.733-31.59c.202-.16.651-.208.999-.067l-1 .067Zm.211 31.43.053-.323.156.086-.209.236Zm.682-34.134-.206.337-.06-.337h.266Zm-1.362-10.01-.264-.236-.322.235-.521-.235c-.24 0-.604.382-.79-.17l.11-.33c.195.149.246.007.732 0 .513-.005 1.25.357 1.788.33l.363-.162c.216.028.418.285.634.332l.627-.088.425.16.368-.241c.337 0 .784.43 1 .08.287.418 1.463-.422 1.525.41-.753.236-1.264.115-1.95-.086-.357.262-1.242.175-1.473-.074l-.203.242c-.687-.27-1.347-.014-2.05-.168ZM61.7 62.445l.42.242c-.222.047-.34-.074-.42-.242Zm.686 15.344c1.45-.409 2.325.54 3.465 0 .262.545 1-.147 1.055.66-1.323.02-3.084-.088-4.52-.411v-.249Zm2.415-.732c-.262.356-.863-.122-1.314 0l-.055-.255c.308-.062 1.167.121 1.37.255Zm1.206.06-.57.424c-.132-.188-.323-.268-.53-.323.233-.295.702-.107 1.1-.1Zm1.11.921c.828.317 1.743-.026 2.571.323-.764.492-1.904.17-2.732.088l.161-.411Zm2.626-.585.05.336-.42-.168.37-.168Zm-10.304.168V77.3c.616-.14 1.268.336 1.847.154l.096.41c-.596-.147-1.248-.114-1.943-.242Zm-3.938-.564v-.255c.656.079 1.536.06 2.313.255l.529.242c.338.04.873-.443.995.242-1.352 0-2.71-.16-3.837-.484Zm1.206 3.274c-.489-.47-1.62.068-1.941-.658.448-.45 1.428.127 2.155.16l-.214.498Zm-4.2-.988c-.7.175-1.812.027-2.37-.33.195-.652.862-.061 1.316 0 .37.047.823-.315.944.257.596-.21 1.62-.035 2.311.315-.52.517-1.706.088-2.201-.242Zm-2.474-.241c-.454-.014-1.215-.256-1.63-.5.703.068 1.086-.132 1.682.25l-.052.25Zm-2.89-.903c.411.15.836-.215.895.491-.328-.114-.812.008-.896-.49Zm-.155.331c-.22-.243-.392-.075-.634-.08-.308-.022-.691-.66-.728-.163l-.687-.424c.706-.235 1.435.135 2.153.336l-.104.331Zm-2.578-.667.056-.322.418.248-.474.074Zm1-2.864c-.484.29-.964-.141-1.37-.25.294-.315.97.05 1.37.25Zm-1.526-28.639h.683c-.108.296-.405.282-.683.336v-.336Zm-.574 31.093c.134.908.616-.39 0 0Zm-1.42-.235c-.253.155-.458.135-.683 0 .507-.362 1.396-.1 1.89.162l-1.207-.162Zm-3.887-.416-.055-.331c.515-.194.882.249 1.311.249-.105.371-.785-.079-1.256.082Zm-.95-.243.743-.088c-.086.438-.5.108-.742.088Zm-3.836-4.021c.106-.376.592-.296.894-.161l.105.243c.546.133 1.213.011 1.838.153l.476.418c-.975-.06-2.153-.438-3.313-.653Zm2.364 3.846-.053-.322c.365.16.394-.06.632.16-.137.316-.313.055-.579.162Zm-3.102-.645c-.422-.08-.887.128-1.312-.087l-.05-.243c.817-.147 1.585.236 2.206.33-.161.484-.566.046-.844 0Zm-2.044-.255.631-.075c-.176.418-.308.047-.631.075Zm-.373 0 .06-.318.257.243-.317.075Zm-.999-66.128v-.329c.246.021.808-.606.949.168-.289.081-.698-.214-.949.161Zm-.784 65.81c-.48.15-1.125.143-1.629-.166.447-.64 1.184-.042 1.785 0 .546.026 1.143-.277 1.522.242-.21.477-1.237.087-1.678-.076Zm-1.897-.094-.262-.323h.317l-.055.323Zm1.842-3.515c-.211.255-.878.376-1.004-.08.348-.304.626.16 1.004.08Zm-1.42-62.612c-.1-.9.687-.517 1.002-.32-.32.22-.612-.03-1.002.32Zm2.732 62.935c-.273.08-.753.053-.992-.162.257-.269.895-.302.992.162Zm-.735-64.245c-.002-.282.106-.383.312-.33l-.312.33Zm1.418 1.56v-.418c.216-.074.216.5 0 .418Zm.682-.089c-.233-.005-.207-.058-.416 0l-.05-.24.466.24Zm1.948 63.176c-.101.484-.607 0-.898 0h.898Zm-5.1-68.755.209.247c1.836-.168 3.94.404 6.047.338l.266.402c-.325.337-.997.263-1.32 0-1.425.283-2.854-.51-4.253-.087-.707-.497-1.907-.315-2.68-.653.58-.443 1.145-.039 1.73-.247Zm-2.57 4.68.203-.088v.248l-.202-.16ZM24.55 74.67l.632.08c-.212.182-.425-.16-.632-.08Zm-1.312-.249c.339-.04 1.004-.275 1.253.168-.243.54-1.015.081-1.253-.168Zm-.16.25-.159-.33h.207l-.049.33Zm-.53-66.135c.217-.094.338-.047.371.33l-.372-.33Zm2.574-4.761.06-.33.625.33c-.297.096-.392.19-.685 0Zm10.833 5.502v.33l-.425-.33c.21-.06.21-.06.425 0Zm.687.248-.06.417-.163-.336.223-.08Zm4.25.155c.298.087.436-.162.678.169-.147.174-.284.362-.576.329l-.101-.498Zm-.422.33v-.236l.211-.094c.082.27.02.377-.211.33Zm-1.154 6.153c.062-.33.289.04.526-.082l-.105.33-.42-.248Zm1.213 57.768c-.651.06-1.276.007-1.635-.41.546.02 1.105.114 1.635.41Zm-1.787-.41c-.203.497-.858.02-1.112-.162.34-.113.824-.167 1.112.162Zm-1.319-67.62.269-.236.046.17-.315.066Zm.154 3.538.373.335-.373-.094v-.241Zm4.108-3.444c.121-.195.191.175.418.08l-.418-.08Zm1.519 4.43-.055-.329h.264l-.21.33Zm1.052 5.906c-.323.161-.581-.176-.896.08l.896-.08ZM36.418 4.428c1.586.087 3.38.154 5.11.25.69.04 1.428-.042 1.884.33.812-.244 1.666-.083 2.527.08 1.893.375 4.044-.089 6.096.08 2.679.236 5.109.263 8.092.572.257.034.574.027.788.335 1.338-.254 2.747.095 3.993.243 1.1.141 2.236-.04 3.31.088.45.053 1.143.43 1.156 1.069-.583-.121-1.047-.532-1.684-.491-.935.04-2.08-.047-3.1-.182-1.254-.148-2.5-.31-3.675-.639l-.264.243c-.54-.21-1.119-.142-1.73-.163-.562-.033-1.178-.282-1.687-.248-2.377.127-5.719-.295-8.198-.255-1.158.034-2.302-.336-3.363-.324-1.631.027-3.252.088-4.84-.249l-.254.337-.214-.337c-2.174.014-3.85-.242-5.937-.49.465-.766 1.295-.282 1.99-.249Zm24.391 4.85c.247-.11.924.012 1.261 0l-.737.08-.476.248-.048-.329Zm-1.627.08.414-.08c-.03.301-.202-.021-.414.08Zm-1.681 0v-.33l.314.33h-.314ZM51.352 6.64h.207l-.05.344-.157-.344Zm-2.003 39.479c.273-.013.555-.04.634.242l-.634-.242Zm.317 14.277.212-.096v.256l-.212-.16Zm-.63-50.138c.242-.013.483-.047.478.323l-.478-.323Zm-.365 0h.315l-.057.323-.258-.323Zm-.313 36.19c.04-.558.47-.389.731-.248-.068.322-.504.43-.73.249Zm.047 29.205c-.218.128-.617.268-.738-.081.132-.551.504.053.737.08Zm-.527-65.228v-.329c.298.122.48-.046.577.41-.191.237-.284-.228-.577-.08Zm-.735-.093c.115-.41.665-.376.419.249-.247.088-.293-.135-.419-.25Zm-.36 65.078.151-.243c.159.337.379.143.628.243L46.355 75l.427.41ZM45.2 10.097c.543-.014.755-.068 1.26-.087l.474.087-.105.572c-.201-.39-.555-.17-.89-.162-.235.006-.74.162-.74-.41Zm-.632 12.467c.407-.478 1.332-.033 1.787-.081-.354.578-1.162.181-1.787.08Zm4.154 50.715h.367c-.306.195-1.05.02-.367 0Zm1.571-32.828v-.244h.216l-.055.244h-.16Zm1.894 5.91c-.207.06-.194-.39 0-.322v.322Zm.633 30.11c-.281.23-1.1.144-1.312-.247.348-.108 1-.121 1.312.248Zm-1.523-15.753h.368l-.049.249-.319-.25Zm-.055 15.667v-.322c.242-.074.27.436 0 .322Zm.11-2.454c.148-.598.375.108.683 0h-.683Zm3.415-12.635c.195-.033.512-.114.735 0v.322c-.293.074-.606-.007-.736-.322Zm-.058 15.425c.214.061.605-.182.586.243-.372.068-1.024-.088-1.425-.243.172-.423.621-.182.84 0Zm.53-2.38c-.217.47-1.076.18-1.417-.08.367-.586.964.046 1.418.08Zm-1.736-12.964-.05-.41.417.168h.416l-.202.322-.167-.242-.414.162Zm-.575-14.855c-.242-.564.188-.45.419-.322l-.05.249-.369.073Zm6.774-28.221-.157-.322h.214l-.057.322Zm-.157 5.331.051-.322c.39.31 1.022-.067 1.37.242-.437.297-.98.114-1.42.08Zm1.627 22.89-.627.088c.112-.578.343-.094.627-.088Zm.322-22.721-.368-.169.42-.08-.052.249Zm-1.735 22.896.152-.336.106.336h-.258Zm-.577 28.47c.773-.166 1.882-.06 2.677.243-.273.376-.905.021-1.521.162l-.11-.248c-.676.275-1.693-.324-2.569-.25l-.05-.324c.72.17 1.078-.228 1.573.417Zm-.372-4.84-.42-.088c.227.068.213-.014.42.088Zm-1.682 4.423-.733-.248c.25.075.566.054.733.248Zm-.94-5.332.264.243-.263.168v-.411Zm.264-7.88-.213.336c-.247-.1-.247-.35-.473-.088l-.103-.329c.294.1.48-.356.79.081Zm1.832-43.398c-.359.228-1.347.53-1.47-.161.772-.062 1.803-.264 2.58.079-.192.56-.843.302-1.11.082Zm.898 5.324.258-.08.05.168-.308-.088Zm-.742 22.897c-.297.504-1.03-.026-1.518.088-.298.067-.621.343-1 0 .832-.41 1.598-.135 2.519-.088ZM56.19 17.803c.206-.007.246.275.519.176l-.423.322-.096-.498Zm.206 5.507-.374.074.057-.242.317.168Zm.575 38.39c.48-.162 1.4-.055 1.84.335-.358.35-1.446.114-1.84-.336Zm5.57-50.789c.206-.147.435-.242.631-.404.304-.021.227.465.526.25l.313.9c-.44.282-.43-.72-.784-.658l-.156.49c-.403-.1-.738.094-1.156 0V11c-.222-.048-.145.376-.264.49-.346-.256-1.07.175-1.312-.322-.942.066-2.054.12-3.21-.168-1.63.04-4.079.054-5.62-.33-.449.248-1.265-.223-1.63-.088v-.323c.556-.033 1.622-.437 2.102.168.356-.229.968-.672 1.21 0 .742-.8 2.252.356 3.049-.168 1.187.33 2.312.249 3.357 0l.211.249.476-.33c.218.419.764-.067.89.58.483-.197.508-.284 1.104-.25l.262.404Zm1.575.088c.161.1.313.523.53.248l-.105-.49.419-.088c.09.692.523.827.948.988-.218.464-.788.094-1.21.081-.207-.007-.43.154-.628-.081l.046-.658Zm3.318.416-.214.323-.1-.41.314.087Zm.152 6.974c.614.342 1.582-.351 1.893.49l.427-.255.046.504c-.52-.25-1.127.168-1.78-.336-.188.301-.467.215-.688 0l.102-.403Zm1.105-3.78c-.264.383-.78.45-1.105.086.292-.2.876-.235 1.105-.085Zm-.207 9.434v-.323c.236.149.438-.148.469.323h-.47Zm-3.837 22.97c-.315.108-.8-.202-1.105-.168.36.007 1.05-.557 1.105.168Zm.579-.235-.266.322-.11-.322h.376Zm.733.067-.106.094-.055-.49.16.396Zm-2.417-15.33.528-.243c.359-.06.823-.176 1.202-.176.222.015.812-.1.793.492-.84.068-1.464-.046-2.523-.074Zm1.523 33.217c-.215.147-.042.874-.418.578l.418-.578Zm2.263-1.803.363.417h-.363c-.39.014-.671.296-1.052.236-.564-.068-1.332-.47-1.944-.653.05-.557.628-.214.839-.08.827-.557 1.463.693 2.157.08Zm-.9-8.204-.047.331-.105-.33h.152Zm1.006-7.88.524.511c-.247.148-.337-.357-.474-.094l-.05-.417Zm.63 8.298-.419-.16c.156.02.183.255.418.16Zm.314 8.291c-.015.437-.207.073-.42.148.066-.45.207-.208.42-.148Zm-.053-16.42c.082.268.018.363-.21.342l.21-.343Zm-.21-14.356c-.15.618.474.267 0 0Zm.736 22.485v.324l-.21-.25.21-.074Zm1.315-7.632c-.502.02-1.213-.026-1.577-.249.302-.048 1.39-.45 1.577.25Zm3.729 18.62c.521-.396.823.14 1.424-.08l.05.328c-.312.121-1.076.102-1.474-.248Zm-.047 1.158h.258l-.055.414-.203-.414Zm2.723-10.995h.22l.102.409-.322.162v-.571Zm2.215 2.291.101-.578h.218l.363.828c-.317.121-.766-.215-1.155-.25h.473Zm-.322-1.478h.322c.167.114.28.477.046.578-.203-.202-.235-.168-.469-.329l.102-.249Zm4.79 11c-.156.108-.51-.06-.737-.086l.737.087Zm-2.79 5.582c-.172.182-.575.02-.844.074.095-.35.57-.027.843-.074Zm6.94.813.207.087-.207.161v-.248Zm.733-.16h.267l-.267.328v-.329Zm4.836 1.479c-.429.168-.863.053-1.312-.081.368-.309 1.094-.195 1.312.08Zm.161-.336.152.087-.207.249.055-.336ZM70.006 78.2c.335.103.581-.06.682.331-.317-.028-.832.281-.682-.33Zm0-.9.476.154-.476.168V77.3ZM20.45 74.26v-.242c.44-.107.925-.222 1.097.403-.496.02-.738.007-1.097-.16Zm-.262-62.77-.112-.323h.32l-.208.322Zm-1 62.683c-1.054-.108-2.11-.174-3.099-.08l-.319-.243h-.625l.625-.16c1.077-.29 2.53.006 3.68.16.283.04.633-.282.785.242-.188.485-.654.135-1.046.081Zm-4.68-4.095c.349.047.551-.168.787.081l-.786-.08Zm-.474 4.182-.047-.329h.26l-.213.33Zm1.63-4.182c.219-.1.199.168.368.161l-.367.154v-.315Zm4.841-58.663-.055-.168c.102-.405.359.168.055.168Zm-8.994 18.7c.376.249.654-.114 1.21 0h-1.21Zm-1.47 39.963c.288-.378.768-.074 1.16 0-.212.322-.736.147-1.16 0Zm-2.783-.168.106-.324c.466.331 1.44-.119 1.622.411-.253.195-1.33.222-1.728-.087Zm-1.843-.324v-.33c.43.29 1.237-.024 1.627.493-.379.53-1.136-.243-1.627-.163Zm2.1-54.07.212-.167.057.416-.269-.248ZM7.203 11l.737.168c-.167.114-.53-.074-.737-.168Zm15.715-7.303v-.25c.328-.194.858-.032 1.153.082-.202.282-.76.302-1.153.168Zm-.313.079-.105-.33c.16-.113.151.03.367 0l-.262.33Zm-1.63-.247c.393-.385.95-.257 1.47-.082-.375.39-1.132.25-1.47.082Zm-.373.086-.152-.247.207-.09-.055.337Zm-2.201-.168-.636-.079c.207-.479.662.114.999-.25l.11.25c.269-.15.487-.163.88-.09-.292.398-1.138.694-1.353.169Zm-.848.25-.52-.418c.302-.175.344.183.58-.074l-.06.492Zm-1.252-.168c-.636.126-1.429.275-1.95.086.142-.605.708-.194 1.107-.247.504-.069 1.085-.411 1.519 0l-.676.161Zm-1.057 1.068h-.207l.05-.249h.157v.25Zm-2.787.411-.05-.25h.47c-.096.149-.21.276-.42.25Zm58.493 3.86.577-.089-.577.33v-.242Zm-2.155 2.622.216.081-.266.33.05-.41Zm3.104 1.64-.216-.498c.238-.02.302.236.216.498Zm.733-.498-.046.58c-.308.074-.43-.155-.585-.323l.631-.257Zm.106 4.11.42.087c.727-.25 1.704-.1 2.464.322l.535.41c-1.026.054-2.389-.154-3.474-.657l.055-.163Zm-3.049 7.302c.718.155.236-.377 0 0Zm1.422 4.592v.337c-.227.053-.352-.061-.477-.169.13-.214.257-.254.477-.168Zm.788-4.51c-.2-.096-.528.167-.843-.082.207-.344.753-.215.843.081Zm1.156-3.357-.528-.087c.23.1.356.014.528.087Zm1.525 1.474c-.182.315-.438.053-.733.087.14-.196.502-.034.733-.087Zm1.207 0h-.89c.188-.034.608-.175.89 0Zm1.004 6.642-.848.088c.214-.363.555-.316.848-.088Zm.308-4.76c-.157.518-.54.182-.837.168.18-.209.509-.268.837-.168Zm-.74 7.303c.363-.141.863-.034 1.059.336-.262-.014-.98.215-1.059-.336Zm2.219-2.214c-.236-.106-.372-.396-.528 0-.199.029-.141-.334-.375-.24.243-.123.883-.459.903.24Zm1.096 2.55c-.207.336-1.07.134-1.156-.095.4-.114.879-.154 1.156.095Zm.156-2.879-.05.33-.368-.33h.418Zm-4.572-4.592.364-.168v.248l-.364-.08Zm-.788 7.047c.22-.37.868-.222 1.21 0l.633.25c-.566.147-1.323-.054-1.843-.25Zm9.204-7.464c-.38.127-.839.035-1.213-.074.355-.236 1-.484 1.213.074Zm.152.578h.478c-.036.276-.254.262-.478.25v-.25Zm-.632.25.106-.41.16.41h-.266Zm4.47.982.054.336-.42-.336c.16-.114.147.026.367 0Zm.527-.075.368.154-.368.41v-.564Zm.368-1.318.158-.08.049.49c-.161.054-.313.43-.524.161-.075-.41.524-.214.317-.57Zm.576 1.393c.238.187.317.133.632.168-.143.375-.394.073-.632.24v-.408Zm1.52-.075.166.075-.059.248-.108-.323Zm-8.617 3.274h.212v.33l-.262-.086.05-.244Zm17.085 3.201.257.404-.308-.075.05-.329Zm-18.08 14.928v.343c-.808-.18-1.015-.074-1.53-.256.313-.302 1 0 1.53-.087Zm1.418-10.334-.105.167c-.355-.114-.474-.303-.894-.167l-.267-.244c.223-.39 1.079-.39 1.266.244Zm.102-2.953v.403l-.419-.322.418-.081Zm.162 13.536v.25c-.26-.062-.207-.195-.425 0l-.05-.156.475-.094Zm5.2-12.716c-.227.089-.243-.168-.364-.242l.364.242Zm1.261-.33.423.251-.104.329-.687-.58h.368Zm3.364.66c-.632.108-1.295.048-1.896-.08.4-.572 1.431-.215 1.896.08Zm-7.513 12.555.523.08-.523.33v-.41ZM86.56 38.4c.5.033 1.363-.189 1.365.586-.846.182-1.546-.081-2.208-.418.128-.397.5-.189.843-.168Zm5.2 2.872c-1.828.268-3.831-.047-5.352-.578 1.653-.114 3.601-.114 5.351.578Zm.79 3.61c-.082.297-.491-.032-.79.087l.79-.086Zm-.947 2.381.057-.417c.212-.02.212.276.474.168-.172.095-.271.296-.53.25Zm-1.155-3.442c-.15-.042-.075-.431-.313-.33.455-.43.902.08 1.312.088-.08.712-.782-.114-1 .242Zm-.419 1.552c.231-.49.95-.134 1.156.169-.399.115-.903.173-1.156-.17Zm.526 1.567c.207-.14.313.06.52.074l-.52-.074Zm-.581.901c.363-.047.594.115.847.25l-.847-.25Zm-.418-1.062h.262l.055.235c.253 0 .475-.484.524.087-.196.054-.515-.039-.788.081l-.053-.403Zm-1.103 1.311c-.22.222-.484-.1-.685-.167l.685-.082v.25Zm3.778-7.713-.207-.415c.23-.109.336.206.207.415Zm2.69 6.98-.419.075-.059-.418c.211.027.411.075.478.343Zm1.201-2.056c-.336.529-1.06.072-1.576 0 .533-.418 1.061-.157 1.576 0Zm-14.66 4.665.317.088-.267.41-.105-.323.055-.175Zm20.703 20.194.214-.741h-.37v.331c-.672.35-1.231.018-1.574-.579.251-.02.149-.585.262-.82.651-.154.984.289 1.525.249-1.935-.963-4.14-1.225-6.146-1.803.253.371.738.383 1.158.493.095.819.863.685 1.308.893-.3.268-.203.611-.476.746-.262.12-.57-.436-.944-.168-.344-.108-.372-.896-.786-.652l.418.49-.16.49c-.174-.127-.472-.067-.73-.073l-.114-.577c-.592-.284-.896.08-1.461.08-.458-.484-1.125-.598-1.74-.815l-.052-.414c-.438-.164-1.176.146-1.363-.418l.108-.404c-.253.033-.44-.04-.636-.088l-.101.66c-.374.02-.636.188-.738-.33l.368-.49c-1.788-.141-3.24-.701-4.676-.909l-.11-.578c-.207-.1-.106.282-.313.175-.585-.772-1.408-.087-2.049-.49.267-.404.716-.694 1.105-.653.165.006.364.376.63.404l.154-.163c.242.08.52.364.792.412.619.107.962-.014 1.312.403l.317-.162c.141.444.436.296.683.33.682.1 1.893 1.049 2.206.168l.261.411c.865.047 1.612.457 2.525.321l.474-.08c-2.125-.552-4.326-.901-6.36-1.64-.85.052-1.268-.432-1.787-.163l-.263-.334-.206.16c-.36-.673-1.14-.189-1.636-.572-.171-.12-.106-.578-.365-.49-.797.067-1.554.114-2.316.248-.183-.779-1.05-.47-1.363-1.076.581-.82 1.515-.173 2.257-.242 1.109-.088 2.1.425 3.255.425 1.405-.627 3.201.786 4.74.234-.134-.505-.478-.27-.79-.572-.23-.215-.32-.679-.582-.82-.565-.309-1.298.068-1.732-.666l.317-.483c-.625.053-1.281-.578-1.999-.33.23.598 1.162.094 1.314.813-.506.156-1.034-.161-1.576-.161-.57 0-1.144.228-1.686.088l-.418-.248c-.94-.143-1.9.2-2.47-1.07.449-.45.733.572 1.052.087-.198-.195-.772-.538-.475-.989.25.29 1.014.572 1.257.336-.313-.24-.526-.146-.628-.658.23-.128.293.363.374 0-.272-.121-.196-.43-.059-.66-1-.234-2.166-.786-3.306-.658l-.157.498c-.288-.087-.35.16-.576.16v-.578c-.254-.309-.617-.457-.903-.733l-.304.162c-.585-.612-1.365-.255-2.161-.41-.802-.162-1.524-.685-2.367-.646l-.207-.41c.359-.484.837-.074 1.266 0 .924.135 2.071.315 2.829.315.543 0 .882.103 1.316.17.566.087 1.176-.075 1.733 0 1.838.255 3.608.833 5.21 1.055l-.795-.732h-.891l.944-.075.685-.087.315-.33c.585.055 1.241.317 1.842.094.614.444 1.277.304 2.043.484 1.041.424 1.858.505 2.789.74.793.195 1.503.788 2.21.902.203.033.425-.06.63 0 .343.107.667.732 1.056.41 1.23.888 2.721 1.061 4.04 1.48.105-.33.22-.64.53-.661l.418.571.262-.571-.319-.49c-.326-.128-.57.06-.726-.242-.696-.229-1.378-.25-2.058-.417-.714-.176-1.41-.633-2.103-.82-.715-.203-1.539-.035-2.15-.74l-.055-.484c-1.191.02-2.682-.154-3.888-.491l-.317.234c-.116-.275.165-.45-.05-.651-1.456.026-3.712-1.103-4.938-.9-.152-.66-.682-.283-1.11-.58l-.103.58c-.302.087-.361-.224-.321-.66-.848-.37-2.092-.376-2.88-1.069.936-.228 2.177.027 3.102.175.473.06 1.059.638 1.312 0-.504-.423-1.534-.276-1.999-.579.75.135.777-.43 1.367-.498.007-.235-.216-.301 0-.403.914-.04 1.865.33 2.833.323.203-.498.711-.531 1.156-.659-3.423-.88-7.896-1.07-11.456-1.883-.605.29-1.116-.207-1.473-.242-.35-.047-.728.149-1.1.161-.385.014-.764-.234-1.105-.248-.359-.013-1.037.511-1.154-.33.198-.012.593.094.894-.162l.26.256c1.343-.121 2.545.216 3.735.323.309.014.641-.128.95-.087l.992.16.159.25.519-.162c1.01.028 2.272.445 3.47.578 1.386.128 2.284 0 3.576.317l.264-.317c.48.505 1.581-.704 1.995.646l.11-.483c2.463-.189 5.644.854 8.25.322l-.107-.322c.088-.216.207-.391.42-.417l.372.496c.515-.41 1.46-.174 1.944-.242l.207-.666c.717.263 1.384 0 1.999.412l-.165.496-.57.075c.499.053 1.029.308 1.472.329l.577-.161c.405.047.887.653 1.206 0-.343-.807-1.409-.007-1.68-.74.828-.295 2.129.7 3.047.087.229.149.269.168.366-.16-1.284-.048-1.944-.544-3.309-.659l-.368.248c-.731-.336-1.545-.471-2.26-.982l.165-.746c-.874-.175-1.222.188-1.796.323v-.485c-.265.04-.344-.234-.626-.167l-.42-1.144c.297-.147.57-.242.729.155.367-.525 1.547.545 2.113-.073.44.382.986.073 1.354-.082.328.161.625.31.948.082l.582-.082c-.782-.732-1.788-.538-2.732-.814-.938-.29-1.702-.672-2.468-.914-.674-.208-1.354-.296-1.999-.483-.533-.168-1.067-.506-1.52-.58-.404-.067-.829.384-1.06-.416 1.41-.383 3.018.383 4.579.497l-.159-.578c-.235-.033-.407.027-.528.162-.48-.612-1.288-.337-1.944-.566l-.37-.254c-.32-.054-.816.342-.994-.325 1.186-.255 2.344.297 3.68.244-.015-.949-.711-.431-1.054-.566-.337-.14-.773-.081-1.21-.168-.774-.175-1.456-.631-2.053-.49-.574.12-1.343-.249-1.73.073-.363-.396-.97-.208-1.367 0-.273-.268-.28-.147-.577 0l-.105-.65c.321-.48.757-.104 1.206-.251l.32-.25c.24-.017.547.211.84.25 2.723.43 5.437.996 7.986 1.4-1.395-.754-3.112-.949-4.836-1.312-1.897-.398-3.887-.519-5.68-.908l-.206.256c-.423-.336-1.22-.666-1.735-.336-.915-.424-2.03-.343-3.046-.82.552-.633 1.244-.136 2.157-.244l.156-.578c.297 0 .632-.06.733.25l-.158.572c1.596-.176 3.172.664 4.469-.168.21.038.616.604.576-.161-.339.032-.742-.304-1.05.085-.147-.154-.26-.35-.471-.422-1.12.254-2.518-.404-3.63-.317l-.363-.41c-.68.202-.973-.161-1.682-.248 0 .241.152.658-.06.733H83.3v-.653c-.293.108-.87.229-.89-.322.436-.58 1.28-.23 1.623.242.275-.11.328-.545.477-.821.3.276.885.712 1.207.25.312.343.863.49 1.369.497l.368-.168c.21.04.39.275.576.322.337.088.687-.014 1.004.088 2.712.907 5.847 1.022 8.513 1.722.266.073.495.355.785.168.421.268 1.288.624 1.788.24a8.298 8.298 0 0 0-3.15-.986l-.27-.74c-.745.408-1.522-.122-2.257-.236-.632-.114-1.268.1-1.686-.498.25-.39.997.014 1.311-.241-1.096-.458-2.361-.667-3.414-.506-1.578-.43-3.764-.604-5.043-.241l-.152-.33c-1.19-.026-1.684-.276-2.63-.241l-.211-.339c-.247-.065-.168.339-.419.25-.211.089-.16-.25-.363-.153-.92.403-1.823-.465-2.686-.097-.358-.435-.788.03-1.156-.065l-.365-.255c-.359-.048-.726.087-1.105.087-1.145-.013-2.373-.303-3.58-.33-1.72-.04-3.427-.518-4.987-.498l-.267-.329c-.253.383-1.56.484-1.576-.316 1.281.039 2.998.18 4.31.491 1.697-.363 4.077.423 5.574.154l.315.33.211-.162c.92.432 2.17.208 3.524.33l.414.243c.561-.136 1.061-.068 1.526.255l-.264-.584c-.513.106-1.246-.318-1.894-.493l.218-.322c.494.256.98.074 1.566.154.358.054.71.296 1.054.336.577.048 1.178-.053 1.737.081 1.358.336 3.115.007 4.519.244.788.132 1.523.356 2.26.482.278.061.606-.106.84.264.816-.143 2.322-.055 3.26.154l.315-.25c.669.881 2.28-.228 2.786.909.247-.054.364.093.58.08l.107.499c.328-.11.484-.5.68-.821.026.578.368.685.575.989l.319-.168c.13.039.112.314.317.234.793-.27 1.572.505 2.151.337l-.524-.242v-.492c-.434-.248-.852.04-1.05-.497 2.28.08 5.118.631 7.46.828-.861-.385-2.093-.613-2.994-.667-.876-.96-2.721 0-3.154-1.722-.286-.154-.692.014-.894 0l.421.732c-.874-.246-2.153-.005-2.728-.49v-.242c.718-.147 1.389.054 2.202.168.092-1.06 1.197-.55 1.575-1.142-1.626-.519-3.464-.652-5.201-.827-.742-.074-1.805-.155-2.261-.33l-.216.491c.207.154.705.129.844-.074.468.861 1.67-.075 2.113.982-.203.376-.524.208-.797.25-.566.06-1.202.207-1.737.072-.238-.066-.403-.322-.625-.322l-.416.074c-1-.168-2.206.786-3.109-.316l-.42.155-.469-.331-.06.667-.046-.578c-.468.006-.682-.364-1.155-.331-.835.747-2.03-.094-2.842-.173l-.207-.566-.101.652c-.434-.032-.566.383-1.006.329l-.368-.329c-.207-.08-.156.25-.363.176-1.178-.64-3.029-.74-4.363-.908.334-.377.506-.666 1.046-.585l.894.175c.413.289 1.085.363 1.58.41.227.02.63.093.733-.25-.568-.624-1.603-.442-2.208-.813l.106-.579c-.524-.073-1.075-.02-1.524.242-.334-.43-.94-.443-1.312-.82.533-.356 1.009-.127 1.634-.073 2.064.175 4.323-.432 6.408.154.235-.25.579-.093.786-.08l.206.33c.846-.836 1.885.328 2.688-.33l-.108.241c.632-.369 1.33-.046 1.997-.16.892-.137 1.636.04 2.472.087.293.013.883.054 1.055-.417-1.013-.257-2.336.283-3.214-.57-.203.031-.203.388-.471.328-.232-.243-.066-.666-.106-.908-.7-.323-1.752-.182-2.043-.732l.891-.567c-.407.135-1.144-.329-1.578.164l-.946.073-.156-.405-.373.075.161-.9c.332-.047.324.422.526.577l.469-.739c-.737.04-1.283-.202-1.944.08l.212.25c-.328.268-.66.04-1.101.08l.522.49c-.207.243-.46.08-.738.323-.262-.054-.262-.551-.253-.814-.438-.208-1.09-.45-1.475-.248-.257-.51-.57-.552-.894-.572-.55-.047-1.184-.732-2.104-.498-.282-.517-.656-.054-1 0-.783.142-1.49-.175-1.888-.725-.101.202-.313-.122-.528 0l-.051-.262c-.273.416-.456.02-.85.175v-.505c-.473-.122-.832-.073-1.413-.317l-.16-.739c.706-.053 1.432.269 1.846-.329-.422-.31-.948-.209-1.475-.317L77 19.53c-.516.026-.753 1.224-.795 0 .086.821-.266 1.07-.583 1.48-.324-.659-1.224.201-1.572-.49-.57.288-1.475-.325-1.785.247-.683-.443-2.065.222-2.787-.498l.103-.235c.23-.033.23.304.425.317.253-.539.6-.074.995-.492.222-.006.214.336.471.242.64-.874 2.149-.012 2.842-.417h-.365c-.742-.84-2.296-.174-3.467-.645l.105-.49.47.242.263-.242c.98.47 2.16.033 2.73.41.117-.175-.09-.457.158-.5v.5h.482l-.325-.41c.222-.74 1.063-.304 1.422-.09.191-.328.433-.582.898-.481l-.16-.66.367-.33c-.11-.478-.328 0-.63-.087-1.536-.7-3.52-.667-5.098-.653l-.214-.41.214-.322c1.222-.202 1.948.524 2.94.161l-.054-.66c-.308.163-.25-.254-.474-.24-.226 0 .091.342-.151.322l-.055-.49c-.35.018-.502-.082-.738.329-.152-.74-1.125-.175-1.52-.578l-.208.249c-.944-.754-1.992-.182-2.892-.66.768-.653 1.827.04 2.833 0 .843-.034 1.611.088 2.313 0 .707.12 1.911.626 2.367 0-.645-.262-1.56-.087-1.949-.74l-.631-.322c.268.168.374-.049.585-.169l.046.41c.238-.012.278-.337.474-.41l.64-.162c-.21-.282-.34.09-.429.243l-.211-.404c-1.321-.268-2.873.02-4.255-.497-.214.068-.542.168-.577-.242l.577.081c.515-.451 1.624 0 2.054.08l.261-.571.21.323c.207-.277.726-.06.838-.485l-.631-.328.105-.176c-.425-.155-.781-.02-1.105-.25-.742.405-1.653.291-2.626.176-.566-.061-1.041-.551-1.257-.175-.905-.51-2.245.053-3.104-.558-.515.376-1.167.094-1.626-.168-.258.201-.485.148-.637-.167 1.11-.39 2.021.329 3.104-.082l.315.25.262-.168c.843.067 1.697.194 2.63.335.302.033.68.04.993 0 .672-.1 1.56-.256 2.318-.249.313 0 .738.37 1-.086l-.529-.41c.513-.189 1.152.127 1.735 0l-.317.65c1.913.27 3.949.17 5.785.653l.207-.322c.449.476 1.259.39 1.999.415l-.055-.576c-.786.154-1.442-.343-2.05-.41-.222-.021-.337.187-.367-.162l-.313.248.156-.248c-1.131-.27-1.842.349-2.465-.828v-.41c-.212-.074-.024.464-.212.41l-.737-.49c-.575-.128-1.277.248-1.732.161-.232-.04-.463-.356-.692-.403-.427-.081-.792-.027-1.254 0-.137-.304-.496-.128-.79-.175-.49-.067-1.363-.155-1.423-.74.56-.175 1.707.505 1.948-.323-.61-.215-1.452.256-1.787-.484.363-.45.694-.552 1.209-.255-.168-1.076-1.576-.66-1.946-1.547-1.909-.398-4.014-1.164-5.887-.747-.984-.558-2.007-.524-3.044-.652-1.788-.235-3.953 0-6.098-.248-3.044-.357-6.452-.377-9.672-.578-2.494-.143-4.288-.425-6.459-.323-.445.006-.711-.162-1.054-.25-.328-.093-.63.041-.94 0-.645-.067-1.312-.31-1.953-.329-.273-.006-.526.18-.781.161-1.218-.06-2.435-.356-3.525-.732l-.742.161c-1.201-.41-2.953-.478-4.303-.41-1.336.067-2.468-.115-3.733-.168a172.65 172.65 0 0 0-3.36-.074c-.913-.02-1.912.034-2.787.242-.312.074-.629.343-.944.41-2.276.457-4.607.625-6.472 2.138-.165 0-.145-.262-.367-.168-.284.444-.45 1.567-.157 2.226l-.363.652c.68.336 1.702.364 2.468-.168.561.135 1.435-.093 2.206-.08.209.215.312.612.475.907.867-.148 1.702-.249 2.677-.498.356.457.757.464 1.261.236.504.739 1.354.088 1.898.659 1.556-.121 3.564-.202 5.356.424.112-.12.257-.216.475-.182.469.658 1.827-.484 2.155.585-.398.33-1.11.417-1.367-.08l-.16.41-.315-.33c-.357.256-.918-.068-1.055.155l.267.497-.47-.08.047-.572c-.207.048-.54.048-.839.155-.114-.438-.438-.331-.733-.235-.086 0 .104.585-.103.571-.26-.067-.366-.148-.476-.081v-.41c-.264-.08-.187.37-.367.41-.577-.248-1.022.195-1.839.081l-.158-.403c-.196.014-.141.424-.368.403h-.526l.366.33c1.58-.243 3.317.087 4.78.328-.026.424-.46.457-.677.492-.484.08-1.074-.094-1.371-.162v.491c-.654.047-1.026.082-1.361.585l-.427-.585c-.158.303-.526.269-.834.323l-.11.578-.047-.652-.422.074v.498c-.381.1-.603-.014-.733.403.233-.006.473-.028.469.33-.46.51-1.64.592-2.059.256-.556.544-1.681-.344-2.254.322l-.312-.242-.317.242c-1.061-.47-2.763.235-3.47-.982-.317-.162-.605-.229-.944-.175l-.372.915c.665 1.002 2.065.396 2.893.652l.055.417c1.479-.249 3.033-.955 4.204-.249-.412.033-1.043.249-1.684.329-.436.054-1.06-.282-1.259.323.398.384 1.253.068 1.526.646-.626.034-1.187.12-1.788.181l-.11.653c-.94-.33-2.076.505-3.049-.088-.178.478-.561.653-.944.828l.105.826c-.807-.073-1.072-.168-1.624-.746l-.112.498c.378-.02.53.322.737.564l.317.573c-.368-.244-.52.114-.942-.076l-.159 1.225c-.528.208-1.182.525-1.791.821l.424 1.572.419.074-.212.815c.388.214.465 1.337.419 1.728.162.087.308.187.526.161.273 1.169 2.05.322 1.686 2.212.246.169.62.134.524.835-.086-.149-.212-.216-.418-.168l-.106 1.143c.781-.082 1.305.422 2.26.16.172-.1.146-.531.364-.564.246.14.585-.06.949-.088.42-.026 1.04-.208 1.155.41l-.574.572.046.66c-.227.174-.636.04-.678.49l.101.248c.308-.302.324-.106.632.088l.156-.423.687.424c-.37.227-.73.046-1.105.403-.914-.243-1.842.746-2.945.659-.736-.06-1.442-.343-2.153.08-.445-.302-.874-.188-1.365-.33l-.211.498-.106-.497-.315 1.068-.266-.173c-.636.462-.854 1.565-.843 3.045-1.143 2.71.98 3.806 1.893 4.76l-.046.814c-.141-.073-.267-.187-.474-.16-.176 1.452-1.127 1.688-1.415 2.959-.817 1.008-1.61 2.622-1.843 4.511v.821l-.321 1.304C-.011 50.65 0 52.878 0 55.143l.156.478c.02 1.869.544 2.952.692 4.606.398 2.058 1.65 2.777 2.412 4.27v1.882l.683 1.224-.32.261.637.983c-.383.128-.383-.33-.683-.33-.14.539.035 1.38-.363 1.642l.203.402-.313.822.313.659-.157.579c.141.571.852.678.632 1.552.634.68 1.442 1.533 2.15 2.138.516.438 1.218.511.95 1.392H6.52c.405-.047.621.585.995.828.335.215.898.113 1.47.236.672.154 1.364.422 1.894.416 1.787-.047 3.76 1.195 5.362.403.736.37 1.957-.02 2.735-.154 1.223.12 2.614.181 3.891.154 1.41.364 2.976.168 4.566.168.854.403 2.146.331 3.21.411.323.033.682.02.999.08 3.702.74 7.614 1.258 11.455 2.137 2.662.6 5.526 1.097 8.255 1.474.784.43 1.85.283 2.783.411.515.08 1.16.322 1.787.41 2.7.336 5.715.772 8.359 1.323h.627c-.374-.55-2.9-1.935-1.475-2.635.077-.726.495-.9.898-.9l.733-.156c-.541-.263-.984-.666-1.682-.666-.852-.886-2.315-.846-3.68-.907l-.262-.242-.313.162c-.773-.411-1.858.148-2.157-.821 3.817.262 7.962 1.062 11.88 1.069-.176-1-1.186-.557-1.893-.66-.473-.067-.929-.174-1.206-.49l.101-.651c.192-.095.343.194.575-.088.418.785 1.519.107 2.161.497.597-.559 1.54-.733 2.257-.658l-.055-.566c.761.088 1.56.033 2.315.243-.664-.875-1.827-.257-2.471-.989.468-.256.856.054 1.109-.424-.793-.476-1.686-.073-2.525-.315-.453-.129-.903-.02-1.367-.082l-.16-.25c-.972-.254-2.006-.08-2.994-.321-.366-.1-.874-.208-1.21-.161l-.15-.25c-.388.364-1.018.014-1.267-.086-.026-.674.593.013.844-.33l.468.33c1.702-.149 3.373.289 4.788.497.52.067 1.09-.082 1.52.074l.26.248.215-.161c.633-.013 1.226.228 1.785-.087 1.435.181 3.601.532 4.992.161 1.293.411 2.499 0 3.474 0l.207.336c.803-.236 1.48-.121 2.102-.41-.876-.404-2.146-.43-3.258-.49-1.424-.095-2.837-.497-4.099-.41l-.262-.244.516-.497v-.652c2.542-.054 5 .524 6.94 0l-.418-.329c.227.06.493-.1.581 0l-.057.484c.16-.27.46-.33.687-.484.678.86 1.635.914 2.575 1.061l.101.493c1.357-.17 3.166.645 4.416.41l.315.336c1.085 0 1.73.732 2.734.653l.315.322c1.765.41 3.674.35 5.047-.082-1.681-.907-3.473-.584-5.047-1.23l.211-.242c-1.197.075-1.831-.181-2.947-.496l-.152-.573c-.854.262-1.726-.638-2.312-.249-.052-.403-.37-.417-.686-.403l-.108.242-.256-.329c-1.065.094-1.673-.499-2.632-.41-.458-.43-1.997-.485-2.68-.571-1.076-.15-2.174.126-2.892-.411.509-.692 1.261-.161 1.792-.25l.52-.328c.51-.121 1.054.147 1.585.087-.298-.351-.954-.296-.844-1.224-.475 0-1.358 0-1.578-.666-.29.504-.9-.054-1.259-.168.627-.64 1.622.153 2.465-.075l-.995-.33c-.077-.59-.541-.18-.843-.496.595-.128 1.46-.028 1.944.087.64.141 1.297-.1 1.889 0 .473.074.946.47 1.426.57.733.15 1.374.225 1.995.244.385.504 1.248.612 1.732.336l.687-.168c-.222-.14-.718.068-1-.329-.206.006-.242.275-.47.25-.208.017-.064-.493-.267-.493-1.367-.33-2.888.013-3.938-.82-.337-.073-.612.007-.843-.087.09-1.244 1.02-.322 1.417-.33-.079-.559-.563-.66-.946-.731-1.127-.244-2.595-.036-3.258-.735l-.575.067c.152-.584.595-.275.892-.57.876.524 2.15.201 3.148.658.154-.053.145-.39.372-.33.953.041 1.787.364 2.575.492l.051.657.156-.168c.788.815 1.922.276 3.049.915.883-.315 1.682-.04 2.52.163.313.06.569.342.848.409l.258-.168c.323.013.554.37.898.491.293.115.69-.053.99 0 .982.175 2.015.673 2.842 1.07.36-.27.687.228.95-.08.236.147.479.281.684.496 1.95.194 3.282 1.386 5.413.727-.546-.424-1.445-.324-1.893-.888-.738.04-1.081-.107-1.581-.336Z" fill="#100F0D"/></svg>