<svg viewBox="0 0 111 87" fill="none" xmlns="http://www.w3.org/2000/svg" preserveAspectRatio="none">
    <path fill-rule="evenodd" clip-rule="evenodd" d="M105.995 80.38L105.755 80.7119L105.877 81.6963C105.589 82.1101 105.511 81.2007 105.211 81.3909L105.333 80.7327L105.455 81.2075L105.633 79.7483L105.995 80.0607V80.38ZM100.568 80.5955L100.149 79.9592L100.686 79.7702L100.568 80.5955ZM100.633 82.0409C100.333 82.449 100.235 82.0409 99.9062 82.0767L99.8483 80.7857C100.128 80.909 100.277 81.2341 100.506 80.909L100.633 82.0409ZM97.7905 78.2625L97.7285 77.6043C98.4106 77.5709 99.1306 78.2014 99.1774 79.3276C98.773 79.1789 98.2839 78.3789 97.7905 78.2625ZM98.1575 81.8173L98.0352 80.6854L98.3395 80.5159L98.1575 81.8173ZM95.4416 77.2043L95.7373 77.0349L95.4416 77.2043ZM94.717 79.1789L94.7727 78.2072C95.0728 78.5264 95.6949 77.9709 95.615 79.3137C95.3194 79.8428 95.1283 78.8654 94.717 79.1789ZM92.9038 75.1964C92.7994 75.4269 92.866 73.7843 92.4838 74.2316C92.6927 74.5093 92.6727 75.1745 92.6059 75.8384C92.2748 75.9353 92.2235 75.2621 92.1214 74.7399C91.5213 75.4327 91.1147 74.1025 90.6124 74.2938L90.4304 73.3371C89.9013 73.0639 89.5992 73.0639 89.2836 72.3931C89.0348 72.3527 89.0036 72.8553 88.8569 73.0639L88.5592 70.6422C87.9637 70.3909 87.9591 71.1851 87.3457 70.8462C87.7147 68.3437 89.0946 70.7033 89.7058 71.0836L89.8238 72.0473C90.0436 72.2029 89.8904 71.3487 90.0038 71.2473C90.2571 71.2473 90.4413 71.4697 90.4902 72.0196L90.8479 71.6876L90.9704 72.3262C91.8327 72.1014 92.9239 72.6109 93.2038 74.5313C92.9948 74.4552 92.8303 74.5094 92.9038 75.1964V75.1964ZM92.2393 77.3265C92.4037 76.7836 92.5658 76.2395 92.8414 75.9963L92.7837 76.1669L92.9038 76.9738C92.6015 76.9334 92.4838 77.4141 92.2393 77.3265ZM91.8215 78.153L92.2437 77.9766L91.8215 78.153ZM90.7369 77.8683V77.2239C91.1193 77.1352 91.6904 76.8654 91.7614 78.153C91.4037 78.6025 91.0679 77.9916 90.7369 77.8683ZM90.5569 77.8683L90.497 76.8977L90.6748 77.7057L90.5569 77.8683ZM90.0081 77.2447V76.6061L90.1947 77.2297L90.0081 77.2447ZM89.4013 74.9843L89.5837 74.1774L89.8279 75.1353L89.4013 74.9843ZM88.9882 76.4701C89.3948 76.4586 89.6923 76.0367 89.7058 77.2654C89.4725 77.753 89.0191 77.4349 88.9882 76.4701ZM88.9257 79.0832C88.6924 78.9553 88.3923 78.3305 88.5657 77.6251C88.8302 77.6988 88.9925 78.0873 89.0478 78.7581L88.9257 79.0832ZM88.7527 81.2075L88.8058 80.5482L89.0502 81.0243L88.7527 81.2075ZM87.9591 75.7116C88.2747 75.7727 88.5502 75.9145 88.7992 76.1519C88.7947 76.945 88.5657 77.1571 88.2547 77.1571C88.3857 77.7058 88.1125 78.6751 87.7236 78.153C87.7101 77.2366 87.8657 76.9266 88.1413 77.1571L87.9591 75.7116ZM87.6568 75.548L87.5969 76.3629C87.4167 76.356 87.4345 75.3993 87.6568 75.548ZM88.5657 81.6963L88.2658 80.2359C87.5057 80.7039 86.0322 78.229 85.5479 80.8329L85.9146 81.7966C84.8701 81.9338 83.7901 80.0872 82.7768 80.1206C82.31 79.701 81.4454 79.0025 80.7254 79.3956C80.3077 78.7651 79.5544 78.1737 79.0967 78.6428C78.6831 77.164 77.5611 77.6516 76.9231 76.7836C76.7009 76.7767 76.7098 77.3945 76.5631 77.6043C76.2876 77.2989 75.7565 77.7461 75.7787 76.6534C75.4674 76.9392 75.2942 76.5854 74.9921 76.8447C74.8919 75.5007 75.3941 75.752 75.5343 75.0316L75.7119 75.5145L76.0166 75.0246C75.6808 74.5382 75.152 73.94 74.7542 74.5855L74.9318 76.8505C74.0807 77.421 73.1385 74.6119 72.2141 76.1381C72.0075 74.8897 71.7096 75.9825 71.3119 76.0159L71.434 75.0316L71.0117 74.8829C70.783 75.0246 71.0072 75.4534 70.8894 75.7047C70.1918 75.5479 69.6116 75.0811 68.9629 74.801L69.0184 73.6552C68.6562 73.4178 68.1384 73.5746 68.2338 72.0611C68.8249 72.0945 69.7585 72.5417 70.2828 73.2829C70.7717 72.8679 71.0984 73.276 71.3119 72.5959C70.9295 71.8501 70.534 72.4473 70.1651 72.3182C69.6361 72.1349 69.1584 70.7862 68.4118 71.2323L68.1674 70.4474C67.8516 71.0894 67.196 70.3113 66.9648 69.6727C66.4672 70.2894 66.176 69.3408 65.5137 69.5644L66.1183 68.8855C66.2714 67.3662 67.2095 67.9829 67.5005 68.5051L67.6228 68.0175L67.9227 68.1662L68.1027 70.113C69.0049 69.7476 69.4561 71.0963 70.4006 70.6767L69.5584 69.8964C69.3873 68.8981 68.845 68.905 68.5294 68.3022C69.0339 67.3443 70.0073 68.3437 70.7051 68.7149L70.763 69.3534C72.0317 68.4232 73.1718 71.0963 74.5652 70.6767L74.8051 71.1586C75.5674 70.3713 75.7363 72.4876 76.5566 72.0738L76.7963 72.7124C77.0877 72.1764 78.0008 72.4945 78.1209 73.4846C77.7542 73.8108 77.2187 73.3302 76.7963 72.8749L76.6186 73.1999C76.9253 74.8702 78.1275 74.069 78.4875 75.5687L78.7854 75.0811C79.2989 76.1992 79.7077 75.4741 80.2433 75.677L80.3589 76.477L80.6033 75.82C80.9254 76.1796 81.1964 76.1669 81.3834 75.4603C81.7499 75.8384 81.8788 76.0655 82.29 76.077L82.47 77.6988L82.5921 76.885L82.9545 76.7075L83.8545 76.9876C84.4835 77.3334 85.4301 78.221 86.0256 77.557C86.5811 78.153 86.9235 78.4123 87.6015 78.9668C88.1924 79.4566 88.737 80.0065 88.5657 81.6963V81.6963ZM87.6635 81.8865C87.4391 81.7436 87.5057 81.5476 87.2391 81.7493L87.2413 80.773C87.4857 81.0243 87.3481 81.5799 87.7236 81.241L87.6635 81.8865ZM87.0567 81.7632L86.8791 80.7857L87.0567 80.7799V81.7632ZM86.2723 82.1101C86.0013 81.9464 86.3391 81.1257 86.097 80.9632H86.6434L86.2723 82.1101ZM79.4053 81.0716L79.401 80.0872C79.7033 80.0065 79.8254 81.2479 79.4053 81.0716ZM65.2116 69.252L65.0292 68.6065L65.2693 68.5869L65.2116 69.252ZM64.9717 67.629L64.7316 67.644L64.7893 66.5041C65.0449 66.5041 65.0603 67.1207 64.9717 67.629V67.629ZM64.4892 68.9523C64.2782 68.8509 64.4515 67.7662 64.6759 67.8135L64.4892 68.9523ZM64.0693 65.7087C63.647 65.092 64.1072 63.7826 64.3669 64.9018L64.0693 65.7087ZM64.1916 69.1356C63.7293 69.4618 63.8627 68.1801 63.4647 68.3437L63.5293 68.6538L63.2248 67.6982L62.9847 68.3495C62.7292 68.3437 62.7314 67.636 62.6136 67.2372C62.0982 67.9207 61.2669 66.1582 60.9957 67.629L60.9914 65.9934C61.4803 66.4971 62.1802 65.0309 62.5581 66.2666C63.1693 66.5513 64.6159 65.8862 64.1916 69.1356V69.1356ZM60.3247 67.3247L60.5646 65.6903L60.8092 67.629C60.6135 67.629 60.5781 67.176 60.3247 67.3247V67.3247ZM60.6359 72.8415C60.3447 72.279 59.6269 73.3014 59.6069 71.7349C60.1247 72.3112 60.309 71.6404 60.7535 71.7015L60.6359 72.8415ZM58.7556 66.0764L58.5714 66.7346L58.2757 65.9335C58.6666 65.2004 59.5801 65.6291 59.7891 66.8567C59.3156 67.2233 59.0335 66.8291 58.7556 66.0764ZM58.8111 63.3076C59.029 63.0494 58.8468 63.8713 58.9981 63.7895L58.8111 63.3076ZM59.9024 66.3542L60.0246 67.0054L59.9024 66.3542ZM60.2069 70.0935L59.6669 70.2825C59.5847 69.1287 60.289 68.5869 60.2069 70.0935ZM67.5005 65.1058L67.4404 66.0695C67.2249 66.1779 67.2604 65.6015 67.2604 65.1058H67.5005ZM68.2895 67.9829L68.4118 68.648H68.2338L68.2895 67.9829ZM68.3983 58.8768C68.8295 58.6935 68.8515 59.6041 69.1873 59.671C69.1473 59.7989 68.8049 59.9418 68.4649 60.0248L68.3983 58.8768ZM70.5695 60.0975C70.3451 60.9528 69.4984 61.1429 69.4871 59.6571C69.8895 59.0946 70.263 59.875 70.5695 60.0975ZM70.6963 62.0535L70.394 61.415L70.6339 61.408L70.6963 62.0535ZM71.7829 64.9306L71.725 63.4702L71.8985 63.4633C71.9806 63.7549 72.0561 65.0793 71.7829 64.9306V64.9306ZM71.4719 56.6521C71.5785 57.4244 71.6606 57.4244 72.0162 57.2827C72.0317 58.5979 71.5629 57.6492 71.3496 58.2808C71.054 57.8313 70.6874 57.1605 70.3294 57.3507L70.2118 56.5357C70.5629 56.4619 70.8605 56.6994 71.4719 56.6521V56.6521ZM71.2919 54.5485L71.0518 55.2136L70.9917 54.7168L71.2919 54.5485ZM72.6786 52.8586C72.8762 53.1918 72.861 54.0932 73.1585 54.1543C72.7807 54.2765 71.6541 53.7416 71.1695 53.0811C71.3896 51.6034 72.0075 53.5433 72.6786 52.8586V52.8586ZM72.2006 65.2476C72.5452 64.624 73.1006 65.4171 72.8074 66.5237C72.6161 66.0476 72.4341 65.9531 72.2052 65.8931L72.2006 65.2476ZM72.1386 59.0739L72.3229 59.0601L72.3784 60.1932C72.0561 60.5055 72.0117 59.4877 72.1386 59.0739V59.0739ZM72.7495 60.343C72.9809 60.2404 72.8162 61.2386 72.8675 61.6386L72.6231 61.4761L72.5005 62.7855L72.0206 60.8651C72.2561 60.4237 72.654 61.2801 72.7495 60.343ZM73.0497 60.6554L73.3474 60.811L73.2852 61.4553L73.0497 60.6554ZM73.7786 66.0003L73.7096 66.972C72.9117 67.2971 73.2251 64.7255 73.7786 66.0003ZM73.0497 63.2535V62.2841C73.4852 62.3313 73.7185 62.9411 74.0141 63.3837C73.8874 64.0477 73.4476 62.9215 73.0497 63.2535ZM75.223 67.0815C75.4098 67.0596 75.3965 67.5818 75.6453 67.3916L75.3431 67.5622V68.7091C74.9786 69.2244 74.5853 68.5385 74.503 67.7524L74.1985 67.9207C74.1676 66.9455 74.4875 66.8625 74.8608 66.9305L74.8031 67.5887C75.0787 67.7846 75.0942 67.2775 75.223 67.0815V67.0815ZM82.221 63.7295C82.4545 63.6684 82.379 62.7717 82.5144 62.4051C82.9166 62.5146 83.0811 62.4593 83.2435 63.3618L83.0034 63.6869L82.3944 64.367L82.221 63.7295ZM78.7787 64.0212L79.1988 65.1462C78.9208 65.7087 78.612 64.7059 78.7787 64.0212ZM76.3122 70.6156C76.1853 71.4571 76.0521 70.3586 75.8276 70.4658L76.3122 70.6156ZM76.6143 68.98L76.3122 68.8255L76.4343 68.1662L76.6143 68.98ZM82.7077 71.6807L82.53 72.4945L82.2299 71.8571L82.7077 71.6807ZM83.5545 72.4472L83.01 72.3182L83.5545 72.4472ZM82.8833 69.388C82.5766 69.4283 82.5877 70.3309 82.2856 70.3909V71.3626C81.6124 71.6473 81.0565 70.3113 80.2945 70.3033V69.1633C79.9812 68.98 79.6454 68.8728 79.5699 68.044C79.2788 67.9829 79.4254 69.0814 79.0233 68.723L78.9054 67.7524C78.0654 67.8734 77.3763 65.9058 76.4297 67.0319L76.0673 65.9139L76.1252 65.2626C77.0252 65.8459 78.0763 66.0084 78.9054 66.7749V67.5887C79.1764 67.5553 79.3187 67.176 79.5078 66.9167L79.9878 67.8665C80.2368 66.7207 80.9899 67.9207 80.5898 68.9869L81.0123 68.648C81.2413 68.5339 81.1655 69.2105 81.2613 69.4549C81.4922 68.7287 81.0077 68.3022 81.1965 67.6579C81.4609 67.5288 81.8877 68.2526 82.1633 68.5996C82.6922 67.8734 83.4745 68.3495 83.6634 69.5229C83.4879 70.3644 83.1323 69.388 82.8833 69.388V69.388ZM84.0301 71.4697L83.7345 71.3153L83.79 70.8185L84.0301 71.4697ZM83.7276 69.6866L83.8545 69.1978L84.0967 69.8341L83.7276 69.6866ZM84.8812 75.1675C85.0435 75.7727 84.9835 76.4585 84.6368 76.477C84.499 76.0032 84.5791 74.9912 84.8812 75.1675ZM84.3945 70.1407L84.5123 69.3269L84.879 69.4676L84.9369 70.1269L84.3945 70.1407ZM84.5791 73.2288L84.3967 73.3982L84.339 72.5902L84.5791 73.2288ZM73.2806 54.6303C73.6985 54.5612 74.2431 53.7071 74.6096 54.9151C75.3808 54.8678 76.4698 55.1847 77.0209 56.2786C77.372 55.7691 77.8408 55.9663 78.2278 56.0677L78.5921 58.1714C79.3254 58.4227 79.7634 56.9772 80.1033 59.0946C80.5633 58.4146 80.9255 59.6917 81.4898 59.5211L81.2454 58.403L81.3677 57.8924C81.5765 58.0422 81.7367 58.2935 81.9654 58.3673L81.9075 59.664C82.2455 60.4237 82.9321 60.2612 83.2389 61.0819C84.0145 60.3223 85.37 61.0346 85.9566 62.2841C85.1546 63.5324 83.6921 61.8818 82.821 61.2582C81.3834 61.4887 80.121 60.2335 78.7188 60.1263C78.4433 59.2653 77.6388 59.4877 77.1432 59.5281C77.5722 60.4444 78.3318 60.5182 78.8409 60.4375C79.7009 61.5902 81.0789 61.3539 81.9099 62.6022L81.7345 64.0684C81.43 64.2517 81.521 63.3492 81.3723 63.1037C81.0589 63.5993 80.9699 62.9077 80.71 63.4563C80.2209 60.6669 78.8564 63.1785 77.9342 61.6121C77.7032 61.6662 77.7698 62.4731 77.5143 62.4328C77.3274 61.7262 77.0008 60.7902 76.6073 61.1775C76.0231 60.0306 75.0497 59.2975 74.3696 58.984L74.1918 59.8058L73.9517 59.1684C73.7451 59.0405 73.872 59.8277 73.6476 59.664C73.3007 58.5241 72.8407 58.531 72.2561 58.2463V57.4382C72.7186 57.3633 72.7252 58.0215 73.1076 57.7368C72.9341 55.6747 71.5785 57.8048 71.5874 55.1848C71.9917 54.847 72.7652 56.1438 73.0362 54.9692C73.2386 55.2804 73.1875 56.3052 73.5808 56.0896L73.2806 54.6303ZM77.3833 53.0155L77.0163 52.8656L77.3833 53.0155ZM81.0632 54.99L81.1279 55.6332L80.8188 55.315C80.5898 55.0095 81.1078 55.3554 81.0632 54.99ZM84.3255 59.2652L84.0234 58.9517L84.3255 59.2652ZM86.8636 64.0408C86.597 64.6713 85.9901 63.9462 85.8946 63.091C86.1945 62.8604 86.5302 63.8172 86.8636 64.0408ZM87.0501 75.0811L87.4167 76.5381C86.9857 76.9876 86.7722 75.8741 86.2701 76.4159C85.7657 76.2684 85.6345 75.1076 85.059 75.1549L85.0636 74.0287C85.9035 73.8109 86.3036 75.5894 87.0501 75.0811V75.0811ZM85.1746 66.3888L85.2969 65.3906L85.5368 66.0291C85.8322 65.3099 86.2966 66.2804 86.3833 67.1426C85.9967 67.4054 85.539 66.6862 85.1746 66.3888ZM86.2657 71.2127C86.0835 70.8047 86.0835 70.7574 85.7836 70.9073L85.8434 70.0935L86.3236 70.0658L86.2657 71.2127ZM86.1436 69.2578L86.5635 69.0884L86.1436 69.2578ZM87.2347 70.8531L86.7457 70.5407L86.8057 69.5644C87.1392 69.4549 87.2857 69.8756 87.2347 70.8531ZM63.2916 76.1519C63.5315 76.0367 64.0715 76.3687 64.2582 76.9335C63.9383 77.5156 63.6982 76.5116 63.2916 76.8032V76.1519ZM55.0554 49.9609L54.76 49.6496L55.0554 49.9609ZM54.2333 64.299C54.0644 66.4833 53.3977 63.4563 54.2333 64.299V64.299ZM53.1933 48.8831L53.4288 48.4001C53.7177 48.7471 53.3509 49.5274 53.1933 48.8831ZM50.7777 46.3783L50.2332 46.5766C50.0177 46.3103 49.7953 46.0175 49.6307 45.606C49.5308 45.8296 49.4842 46.202 49.2687 46.1144L49.2642 44.8176C49.58 44.7911 49.6377 45.3813 49.8708 44.7991L49.8087 44.1387L49.3266 44.0026C49.7132 42.986 51.1243 43.59 50.7777 46.3783V46.3783ZM48.5041 62.5746L48.9842 62.555L48.5041 62.5746ZM48.3576 44.519L48.1796 43.711L48.4197 43.7053L48.3576 44.519ZM48.0109 54.2903L48.2507 54.7721L48.0109 54.2903ZM47.5264 44.3911L47.3331 43.2649C47.5264 42.7693 47.6731 43.1554 47.9996 43.0748C48.002 43.9485 47.8376 44.3911 47.5264 44.3911ZM46.9154 46.2019C46.5375 46.3518 46.353 46.7172 46.1309 46.7253L46.491 45.5715C46.7731 46.3783 47.204 45.7881 47.7042 46.0175C47.6731 47.4849 47.0641 46.8532 46.9154 46.2019V46.2019ZM45.284 43.182L45.3441 42.6805C45.9775 42.7693 46.2106 42.1987 46.5576 43.1347C46.2019 44.2551 45.6974 42.4904 45.284 43.182V43.182ZM44.3664 30.529L44.3061 30.3654C44.7754 29.985 45.0751 30.3803 45.5174 30.6431C45.2729 30.8541 44.5129 31.0985 44.3664 30.529ZM46.1795 30.6235C46.3885 30.6374 46.4461 31.065 46.6599 31.0835L46.1151 31.2737L46.1795 30.6235ZM47.273 43.4194L46.7885 42.9584C47.0109 42.9653 47.273 42.8235 47.273 43.4194ZM43.0528 46.195V45.2176C43.333 45.4296 43.5663 45.0896 43.9596 45.1853L44.0195 45.8296C43.6684 46.1005 43.4483 45.8838 43.0528 46.195V46.195ZM41.9706 45.5841L42.0283 44.919C42.1594 45.3813 42.3528 45.1853 42.5729 45.0689L42.8774 46.0325C42.5374 46.0729 42.3063 45.8907 41.9706 45.5841V45.5841ZM41.1818 45.6118L41.2484 44.9478C41.5928 44.8533 41.7018 44.7773 41.8483 45.4297C41.7107 45.9714 41.4417 45.7006 41.1818 45.6118V45.6118ZM40.0949 41.7376C40.355 41.0795 41.3594 41.31 41.7884 42.0097C41.4552 42.5446 41.1927 41.9209 41.0018 42.5249L40.0949 41.7376ZM39.9773 45.3271C40.1016 44.1606 40.6373 45.1023 41.0038 45.1231C40.9661 45.4228 40.1928 46.0729 39.9773 45.3271ZM40.0461 53.1365L40.9461 52.9324C40.7263 53.7739 40.3663 52.9543 40.0461 53.1365ZM39.7327 41.914L39.6728 40.9504L39.9127 41.2627L39.7327 41.914ZM36.2926 45.4769L36.1748 44.4925C36.9216 44.451 37.5572 44.3231 38.1681 45.0689C38.7617 44.5536 39.2593 44.8718 39.7993 45.1703C38.8971 46.2227 37.5217 45.3939 36.2926 45.4769V45.4769ZM36.0436 28.8865L36.7061 29.0213L36.0436 28.8865ZM35.1481 44.6885C35.3814 44.7369 35.677 44.3496 35.9371 44.0177C36.2636 45.3144 35.2036 46.27 35.1481 44.6885ZM34.9681 40.4882C35.2171 40.1297 35.7926 40.1296 35.7526 41.099L34.9681 40.4882ZM34.6771 44.7104L35.0347 45.1853L34.6771 44.7104ZM34.3615 35.1351C34.5859 35.1225 34.846 34.9934 34.7835 35.7737C34.5615 35.7864 34.368 35.7115 34.3615 35.1351ZM34.128 45.2257L34.1236 44.2551L34.4902 45.0551L34.128 45.2257ZM33.6437 40.706L34.1214 40.6657C34.0259 41.1267 33.8526 40.4559 33.6437 40.706ZM33.3435 45.0896C32.859 44.7496 32.6146 44.5871 32.1348 45.145V43.8413C32.5414 44.0787 32.9193 44.8245 33.3435 44.1122L33.4658 44.7496L33.3435 45.0896ZM32.1945 40.9112L31.8948 40.6045L32.1945 40.9112ZM31.3458 40.6115V39.9729C31.6146 39.7977 31.6236 40.2922 31.7724 40.4421L31.3458 40.6115ZM31.5946 44.8383L31.4103 44.6828L31.4725 44.0246L31.5946 44.8383ZM30.33 44.7162L30.448 43.4194L30.5701 44.3911C30.968 44.5121 30.8145 43.2108 31.2925 43.5427C31.3145 44.0442 31.1347 44.3842 31.3546 44.519C31.0502 45.0343 30.5969 44.73 30.33 44.7162V44.7162ZM30.2079 44.8787C29.9367 44.7427 29.4992 44.6343 29.659 43.7733C29.9478 43.5819 29.9902 44.4315 30.1457 43.7537L30.2079 44.8787ZM29.5299 28.3309L29.8303 28.7989L29.5299 28.3309ZM29.1723 32.2373L29.4703 32.4021L29.1723 32.2373ZM27.6702 41.0864C27.7212 39.981 27.2212 40.3602 27.0077 39.9729V39.4784C27.1233 39.181 27.4012 39.3424 27.6101 39.2882L27.7878 39.9395L28.0923 39.2825C28.4457 40.0282 29.1834 38.9977 29.4833 40.2034C28.8878 40.8074 28.0633 39.5994 27.6702 41.0864ZM29.0012 44.7703L28.8789 43.6384L29.3014 44.1052L29.0012 44.7703ZM27.3699 41.9071V41.099L27.6101 41.7376L27.3699 41.9071ZM27.3146 44.5122C26.6812 44.3969 25.5655 44.5329 25.6255 43.1013L25.9257 43.7537C26.1523 43.1013 26.9522 44.1536 27.0723 42.8857C27.3388 43.054 27.6078 43.6108 27.9145 43.1889L28.1589 43.99C28.4279 43.7398 28.53 43.9162 28.7544 44.1191C28.7056 44.8533 27.8433 44.6078 27.3146 44.5122V44.5122ZM24.1877 52.9198L24.3055 52.2616C24.7455 52.7307 25.55 52.6477 25.8145 52.695L25.8767 53.0269C25.5611 53.7139 24.6078 52.8253 24.1877 52.9198V52.9198ZM23.2766 52.3031C23.6544 52.1325 23.91 52.1659 24.1233 52.7572C23.8788 53.0212 23.3277 53.3267 23.2766 52.3031ZM20.2496 43.3191C19.6386 43.5819 19.2499 43.3191 18.8052 43.0471L19.4075 42.7013L19.7697 42.1987C21.1609 43.054 22.3986 42.5042 23.632 42.8638L23.5765 43.8413L23.21 43.3664C22.2786 44.0995 21.0232 43.8482 20.2496 43.3191V43.3191ZM22.6765 52.9797V52.3284L23.2165 52.3088C23.2322 53.0339 22.9497 53.0085 22.6765 52.9797ZM18.3896 52.6477L18.3341 51.8478L18.094 52.1798L18.0919 51.5285C18.6942 52.5878 19.6208 50.4231 19.7764 52.2743C19.3764 53.0696 18.894 51.9561 18.3896 52.6477V52.6477ZM17.9007 42.2598L18.083 41.9336C18.3541 42.4431 18.7608 42.6736 18.6274 43.869C18.2963 43.8482 18.1452 43.3468 17.9007 43.0817V42.2598ZM17.1342 51.8881L17.3073 50.9049C17.483 51.0121 17.5697 51.3798 17.8495 51.2103L17.9141 51.691C17.7409 52.2558 17.374 52.0114 17.1342 51.8881V51.8881ZM16.4519 42.4834C16.6918 42.0097 17.1185 42.2264 17.243 42.9387C17.0341 43.5024 16.4519 43.7249 16.4519 42.4834ZM16.3251 40.3809C16.4319 39.7285 16.6162 40.6449 16.8741 40.1838L16.3896 40.706L16.3251 40.3809ZM16.0808 32.9024L16.3807 32.7272L16.5029 33.541L16.0808 32.9024ZM15.8451 33.7312C15.5407 33.7853 15.5496 33.005 15.4229 32.5981C15.5696 32.273 15.6207 33.0257 15.8407 32.5831L15.8451 33.7312ZM15.5496 43.8274C15.2963 43.4413 14.8874 43.462 14.8251 42.5445C15.2806 42.4903 15.514 42.2264 15.8451 42.4973L15.5496 43.8274ZM15.3807 51.8005C15.1673 51.9216 15.1585 51.2369 15.2585 50.9867C15.4674 50.8703 15.474 51.5492 15.3807 51.8005ZM14.3473 50.702C14.5762 50.9786 14.6273 51.0536 14.7184 50.3551L14.8918 51.487C14.7406 52.4933 14.0918 51.7463 14.3473 50.702V50.702ZM14.234 51.5089C13.8473 52.0114 13.3384 51.5561 13.0873 51.2369C13.465 50.3954 13.6428 50.3136 14.234 50.5303V51.5089ZM13.125 30.2512L13.3673 30.2443L13.125 30.9025V30.2512ZM13.854 42.9042L13.8584 43.394L13.6183 43.0817L13.854 42.9042ZM14.6984 33.1272L14.9385 32.9439C14.414 34.6614 14.2362 31.329 14.6984 33.1272ZM17.7829 42.7624L17.5431 43.9162C17.1851 43.4805 17.5319 41.8195 17.7829 42.7624ZM17.4676 32.19L17.9498 32.1831L17.8385 32.9911L17.4676 32.6868V32.19ZM18.5564 32.4897L18.563 33.6286C18.1386 33.8257 18.5318 32.8355 18.2519 32.6523L18.5564 32.4897ZM18.8052 36.7097L18.985 37.5039L18.6853 37.2053L18.8052 36.7097ZM19.343 40.4213L18.985 40.9227L18.9254 40.5977L19.343 40.4213ZM19.2764 36.6901C19.6029 36.6555 19.3631 37.5304 19.2209 37.6664L19.2764 36.6901ZM19.5875 39.1188C19.5453 40.0006 19.0564 38.4399 19.4029 38.3119L19.4075 38.9551L19.5875 39.1188ZM20.1919 40.3994L20.2496 40.7129C20.112 41.3838 19.8874 41.0726 19.6519 40.8893C19.8099 40.6657 19.912 40.2922 20.1919 40.3994ZM21.0297 38.7453L20.6764 39.2398V38.5827L21.0297 38.7453ZM20.7276 30.7803L19.8831 30.9693C20.112 29.9377 20.3142 30.6904 20.7276 30.7803ZM21.8809 38.7049L21.6365 38.7119L21.8809 38.7049ZM21.3899 31.0835L21.4519 30.9152L21.5743 30.9083L21.6341 31.065V31.397L21.5743 31.5595H21.4476L21.3853 31.397L21.3899 31.0835ZM23.8077 38.63L24.0499 39.7574C23.6986 39.9729 23.5987 39.03 23.8077 38.63ZM23.9811 27.7257L24.2232 28.3632L23.9187 28.3781L23.9811 27.7257ZM24.7031 28.0243L24.3411 28.0312C24.5655 28.0105 24.5144 27.841 24.7031 28.0243ZM25.2033 44.0995C24.7342 43.7733 24.0144 44.4649 23.75 43.3468C24.2188 42.8165 24.9678 42.9111 25.2033 44.0995ZM25.0146 38.9078C25.2588 38.7453 25.2632 39.8715 25.0146 39.7158V38.9078ZM25.55 32.0552L25.3099 31.4108L25.55 32.0552ZM25.9076 28.1407L25.3657 28.3239C25.4521 27.5563 25.6832 28.0243 25.9076 28.1407ZM30.7434 39.8173L30.5655 40.6518V39.6686L30.7434 39.8173ZM30.8034 38.0387L30.3768 38.0606L30.8034 38.0387ZM30.8589 28.445L31.099 28.5937L30.8589 28.445ZM32.4901 40.238L33.1592 40.8754L32.6146 40.7337L32.4901 40.5769V40.238ZM34.8371 28.9406L34.4192 29.1089L34.8371 28.9406ZM35.6259 35.9017L35.3902 35.753L35.6259 35.9017ZM37.5017 41.1959L37.0792 41.2086L37.4416 40.5504L37.5017 41.1959ZM37.4949 28.9948L36.8905 28.8531L37.4949 28.9948ZM37.9749 28.9822L38.0972 29.4628L37.7881 29.4697L37.9749 28.9822ZM38.404 41.0046L38.046 41.1809L38.1638 40.6864L38.404 41.0046ZM40.7439 29.8432L40.4483 29.3683L40.7439 29.8432ZM41.1662 29.6738L40.8083 29.5239L41.1662 29.6738ZM42.3285 41.9878L42.7505 41.9682C42.5174 42.0569 42.5773 42.926 42.3285 42.9721V41.9878ZM42.9307 41.6362L43.175 41.9624L42.813 42.1318L42.9307 41.6362ZM43.2198 29.9193L43.8264 30.0611L43.2239 30.5682L43.2198 29.9193ZM12.4206 51.2564L12.5384 50.2663L12.725 51.2438L12.4206 51.2564ZM12.1251 54.0321L12.425 54.0264L12.1251 54.0321ZM11.8606 30.7918L12.2228 29.9665L12.2783 30.9348C12.0294 30.7665 12.0939 30.2293 11.8606 30.7918ZM11.8049 37.286L11.7473 36.486C11.9628 36.3154 11.8495 37.1846 11.8049 37.286ZM9.28486 50.2398L9.46483 48.9303C10.1582 50.7631 10.9472 49.7845 11.8139 49.6496C11.625 52.2962 9.86712 50.3758 9.28486 50.2398V50.2398ZM8.91819 48.618L9.10266 49.9274C8.80708 50.6329 8.29157 48.5834 8.91819 48.618ZM8.01821 49.3107L8.07372 48.5039L8.50042 48.9707L8.01821 49.3107ZM10.836 34.8919H10.5916H10.836ZM10.8916 30.1682V30.8345C10.7449 30.6904 10.6317 30.4599 10.4138 30.5221L10.8916 30.1682ZM6.20259 45.6383C5.9825 45.7213 5.85141 45.5369 5.84032 45.0021L6.20259 45.6383ZM4.74914 37.7137L4.80691 36.9068C5.24474 36.9679 5.5092 37.4981 5.65362 38.3303C5.32692 37.837 5.11581 38.033 4.74914 37.7137ZM5.41807 45.3467L5.41365 44.5329C5.66254 44.3634 5.66254 45.4896 5.41807 45.3467ZM5.09808 28.6087L5.46251 29.4086C5.24474 29.8904 4.9247 29.2668 5.09808 28.6087ZM4.16022 52.5405C4.40253 52.4172 4.50693 52.6881 4.46472 53.3405C4.22025 53.4696 4.12243 53.2045 4.16022 52.5405ZM3.24684 40.8824L3.54692 41.0253L3.24684 40.8824ZM48.0555 33.798L47.633 33.6574L48.0555 33.798ZM48.713 34.1035L48.3507 33.4661C48.562 33.4326 48.8021 33.3104 48.713 34.1035ZM49.3708 33.7588C49.5841 33.6228 49.5954 34.3075 49.4953 34.5657L49.3708 33.7588ZM49.8975 17.7931L50.2643 18.268L49.9021 18.7694L49.8975 17.7931ZM55.6444 36.1068L55.2289 35.9766L55.6444 36.1068ZM56.7934 36.2336V36.7166C56.5734 36.7373 56.3135 36.8526 56.3755 36.093L56.7934 36.2336ZM58.0068 36.8388L57.4 36.5333C57.5824 36.1725 57.7666 36.8595 58.0068 36.8388ZM58.3625 36.8249C58.618 36.9264 58.3934 37.837 58.2445 37.3206L58.3625 36.8249ZM58.6624 34.0504C59.207 34.8504 59.6203 34.953 60.1756 34.8032L60.0535 35.1351C60.9781 35.7737 61.7915 35.8763 62.767 36.486L62.8271 35.8406C63.0826 35.6919 63.1136 36.1472 63.3071 36.1402L63.1847 36.8053C64.3205 37.0555 65.3337 37.6664 66.3293 38.3119L65.8428 39.4784L65.5426 38.9897C64.7181 38.7995 63.967 38.3719 62.9492 38.1148C62.0203 37.8693 61.0136 37.0555 60.2335 36.2624L59.9357 36.4319L59.6911 35.4683C59.5401 35.5697 59.5601 36.0999 59.3269 35.9766C59.2536 35.1017 58.827 35.1835 58.5401 34.8642L58.6624 34.0504ZM66.8114 41.8667C66.696 42.2471 66.4516 41.5671 66.2071 41.725L66.8114 41.8667ZM66.5672 38.1355L66.7472 38.7787L66.5116 38.7926L66.5672 38.1355ZM67.9584 39.8715L68.0805 40.5158C68.2895 40.7947 68.7494 40.5296 68.6828 41.31C68.3628 41.718 67.7873 41.0864 67.4184 40.8685L66.8114 40.3994C66.7918 39.7435 67.5671 39.6075 67.9584 39.8715V39.8715ZM67.8983 38.7453L68.1362 38.894L67.8983 39.7158V38.7453ZM68.5004 39.1994C69.3205 39.2398 69.8606 39.3493 70.0695 40.7671C70.4473 40.9573 71.2316 40.1977 71.4518 41.1959C70.3895 43.2108 69.385 39.7032 68.4984 40.0202L68.5004 39.1994ZM73.7497 41.9336L73.9319 41.1072C74.6808 41.7377 74.9964 42.8315 75.8631 43.4667C76.6297 44.0384 77.5008 44.0995 78.2787 44.8534C77.3432 45.8562 75.8897 43.6788 74.7785 44.1664L74.294 43.6995C73.423 44.0649 72.6851 42.8315 71.8184 42.6482L71.574 40.8754C72.245 40.8074 72.8941 41.9959 73.7497 41.9336ZM73.5052 39.981L73.7497 40.9504C73.4941 41.1613 73.443 40.9711 73.2695 40.6518L73.5052 39.981ZM77.3077 40.9838C76.9386 41.0253 76.6698 40.7671 76.4608 40.3521C76.6119 39.9879 77.3833 39.6213 77.3077 40.9838ZM78.6988 45.6464C78.4875 45.7824 78.4476 45.4769 78.341 45.3271L78.6988 45.6464ZM80.3854 45.9034L80.4523 46.5547L79.7875 46.0867C80.0633 45.6256 80.1565 46.4936 80.3854 45.9034V45.9034ZM81.832 47.3085C81.3188 47.8365 80.8234 46.9697 80.5078 46.3853C80.8388 45.3144 81.7523 45.9034 81.832 47.3085ZM82.199 46.6561L82.2545 47.4515L82.4434 47.1241L82.7433 48.5765C82.3679 48.2042 81.77 48.4416 81.8945 46.663L82.199 46.6561ZM83.05 51.3256L82.3879 50.8703C81.741 51.3509 80.3944 48.7885 79.7943 50.8034C79.4567 49.6496 78.4698 50.2997 78.0454 49.4122L77.9143 47.7834C79.1409 48.4681 80.0278 49.3038 81.541 49.1136C82.0679 50.2663 82.5144 50.1245 83.05 51.3256ZM81.3634 52.5405L81.2367 52.0437L81.9034 52.1798L81.3634 52.5405ZM67.2362 42.5042L67.1183 41.8598L67.3583 42.0166L67.2362 42.5042ZM65.547 41.2627L65.9094 41.4114L65.547 41.2627ZM65.0692 41.2904L64.8849 40.638L64.9428 40.4824L65.1826 40.7879L65.0692 41.2904ZM63.4381 40.374L63.2537 39.8922C62.6023 40.2795 61.6757 38.9897 60.9004 38.6912V38.0203C62.2915 39.0231 63.6627 38.8675 64.7027 40.3337C64.3669 41.1129 63.8403 39.5741 63.4381 40.374ZM59.3979 37.7609L60.2936 38.0526C59.9024 38.6231 59.5914 38.1355 59.3979 37.7609ZM58.729 37.1373L58.9691 37.1246L58.729 37.1373ZM83.77 51.4743L83.8345 52.2743C83.4945 52.7169 83.5034 51.9642 83.23 51.8132L83.77 51.4743ZM84.6724 49.9677L84.428 49.4929L84.6724 49.9677ZM89.8658 55.1375C89.5948 55.1928 89.4213 54.9346 89.3192 54.5081L89.8658 55.1375ZM69.605 54.4471L69.6605 53.7946L70.0229 54.2765L69.605 54.4471ZM94.106 72.3735C93.8816 72.5014 93.8439 72.128 93.8659 71.5862L94.106 72.3735ZM110.527 82.1574C110.333 82.0882 110.5 82.9643 110.282 82.8225L110.22 81.6813C109.476 81.8715 108.947 81.4646 108.589 80.6024L108.591 81.7493C108.798 81.709 109.171 81.7632 108.956 82.7141C108.727 82.0698 108.391 81.8923 108.106 82.4213L108.044 80.2923L108.524 80.1206C108.489 79.3137 108.193 79.1858 107.862 79.165L107.926 80.8076C107.653 80.833 107.551 81.3159 107.504 81.9464C107.269 81.7851 107.509 80.8618 107.504 80.3246L107.264 78.704C106.973 79.165 106.882 77.753 106.838 78.5679C106.811 78.9668 107.233 80.4122 107.024 81.3228L106.413 79.3817C106.28 79.9788 105.726 79.3817 105.393 79.1028C105.4 80.0549 105.202 80.365 104.971 80.2508L104.853 81.241C104.524 80.6577 104.084 80.6647 103.462 80.3177C103.3 80.5955 103.693 81.0451 103.462 81.4577L103.162 80.9759L102.56 81.1603L102.922 81.8035C102.693 82.0698 102.54 82.5447 102.622 83.6098C102.197 83.1475 101.833 83.0322 101.775 81.3632L101.657 83.1475C101.282 83.2904 101.449 82.0825 101.353 81.8519C101.669 81.9534 101.578 81.0773 101.471 80.7188L100.995 81.3909L100.813 80.2508L100.995 79.2665C100.426 79.308 100.235 77.4349 99.7262 77.8614C100.166 78.0112 99.9107 79.9246 99.5396 79.8094L99.364 79.0083L99.5396 77.5225C98.7282 77.496 97.8371 76.0574 96.884 76.9876L96.6395 76.5116C95.7772 76.9922 94.957 74.9243 94.5905 75.9352L95.1949 77.2112C94.8839 76.7075 94.375 76.8654 94.4684 75.6159C94.1928 75.5353 94.106 75.8534 93.9284 75.6367C93.7993 75.1745 93.906 74.0691 93.566 74.1843C93.566 74.3607 93.6816 75.3381 93.4482 75.6505C93.2127 75.0315 93.4439 74.5705 93.4439 73.7094C93.1637 73.4996 93.0036 72.9763 92.9594 72.0945C93.4881 72.068 93.7083 72.8807 94.1104 73.1873L94.106 74.333C94.3149 74.4483 94.6038 74.2385 94.7727 74.7941L95.1949 74.1232C94.8284 74.0356 94.584 73.6276 94.2925 73.3486L94.5883 72.3596C95.0683 72.4876 95.7815 73.3705 96.2815 72.7942C96.4861 74.2719 97.3328 72.9498 97.664 74.1913C98.3751 72.8807 99.833 75.3312 100.624 74.4079C101.073 75.2621 101.555 75.1825 102.193 75.6505C102.006 73.7912 101.098 74.8702 100.742 73.5941L100.806 72.6028L100.257 72.4749L100.624 73.2691C100.237 73.9261 99.6972 73.1111 99.6552 71.8374C99.4151 72.0541 99.2284 71.2865 99.1152 71.7015L98.8662 72.2098C98.615 72.0945 98.9306 71.4571 98.6886 71.396L98.2685 71.0778C98.0506 71.3211 97.8772 71.6876 97.6016 71.7545L97.5417 70.6226C97.2751 70.6157 97.3572 71.5389 97.1795 71.7764C96.6883 70.6225 95.746 71.396 95.6705 68.905C95.2726 69.1632 94.8793 68.0175 94.4614 68.6273V69.2647L94.7727 70.2352C95.4239 70.588 95.7615 71.064 96.2771 71.321L96.1639 72.1348C95.635 72.1418 95.1083 71.0421 94.646 71.8709L94.5883 70.4047L94.1615 70.739L93.9839 69.9355C93.6169 70.5199 93.2704 70.1338 93.0749 69.1575C92.7704 68.9396 92.9169 69.9171 92.657 69.8341C92.4283 69.6255 92.3014 69.1633 92.1749 68.7149L91.9858 69.2047C91.7814 68.8186 91.6482 67.9207 91.2703 67.6037L91.3282 68.7426L91.0838 68.2607C90.9704 68.4786 91.2059 69.1218 90.9658 69.252L90.9038 67.6106C90.6792 67.7305 90.8237 68.8117 90.5438 68.7691L90.4193 67.1484C89.8703 67.4458 89.2526 66.5041 89.1523 65.5819L88.3102 65.2753C87.9525 65.3364 87.8768 65.2545 87.5257 65.7917L87.0412 64.0327L87.5858 63.6869C87.1746 63.2258 86.6035 63.2189 86.3169 62.4328L86.4967 61.9383C87.4635 62.1192 87.8146 62.7509 88.6724 63.1578L88.7881 64.1214C89.4971 63.5728 90.1148 64.3105 90.5368 65.3641L90.5993 64.3727L90.2972 63.5728C90.5947 62.9757 90.7369 63.1382 91.0213 63.0633C90.6814 62.4051 90.1259 62.3786 89.6923 61.9786L89.5125 62.6299C88.4991 62.4535 87.7301 60.3222 86.7968 60.9481L86.6701 60.3026L86.3125 60.479L86.25 59.8277L86.0122 60.328C85.619 59.4405 84.7367 60.4859 84.3767 58.9252C84.8612 58.4768 85.15 59.7874 85.6456 59.3724L85.8345 58.7143C86.1077 58.9045 86.3567 59.5626 86.548 58.6878C86.2346 58.3477 86.2211 57.2077 86.0681 56.4285C85.8391 56.5634 85.7836 56.2314 85.5925 56.2786L85.3435 57.1063C84.7946 56.7201 84.5144 55.3773 83.959 55.8452C83.841 55.3957 83.799 54.7721 83.5345 54.7317L83.7746 57.323C83.4211 57.2826 83.4521 56.1484 83.2344 55.7219C82.912 56.666 82.3679 55.7565 82.1478 54.7929C81.4544 54.6984 80.5432 53.6044 79.672 53.0892L80.0988 54.6983C79.421 54.2096 78.5053 54.3929 78.2853 52.6477C78.0343 52.6477 77.7764 52.6074 77.6786 52.9935C77.6943 51.7797 77.2498 51.8062 76.9543 51.4063L76.7766 52.3769C75.5852 52.0172 73.7186 53.5237 73.0965 50.5729C72.7186 50.3135 72.3475 50.0219 71.9496 49.8052L71.8275 48.9903C71.5206 49.1205 71.365 48.8485 71.2873 48.3609C70.983 48.8001 70.3185 48.8612 70.0784 47.9194L69.9585 48.5765C69.4028 48.2987 68.6673 46.2838 68.1473 47.5045L68.5093 48.2987C67.2917 49.7441 65.8894 46.1143 64.7116 48.4474C65.1759 49.5193 66.4004 48.4969 66.5872 50.3343C67.0782 50.6951 67.3028 50.4715 67.7873 50.1303L68.3961 51.902C68.6428 51.7463 68.7807 51.3037 69.0563 51.2173C69.7073 51.8005 70.4674 51.1423 70.8696 52.778C70.445 53.1699 70.1918 52.5935 69.9628 52.4863C69.4716 52.242 68.6029 52.2074 68.214 52.227C67.8984 52.2339 67.7604 51.5757 67.4848 51.427L67.0049 51.6241C66.5894 51.4478 66.4159 50.9648 66.1649 50.6732C65.7361 51.155 65.416 49.7372 65.1317 50.8772C65.4003 50.8438 65.3914 51.5896 65.5627 51.8478L66.8227 52.9198C66.2472 53.103 65.9962 52.3699 65.4982 53.1365C65.7472 54.454 66.2914 53.9848 66.8849 54.3929C67.0203 54.1335 66.8495 53.0961 67.0673 53.0811C68.1674 52.7353 68.316 54.4321 68.8206 55.9386C69.045 55.994 68.9272 55.1456 69.1205 55.111C69.314 55.8925 69.8717 55.662 70.0895 56.3801L70.0273 57.3507C69.7474 57.2688 69.7894 56.2637 69.4829 56.2441C68.5139 56.9979 67.5272 55.6943 66.2248 55.5594L66.1049 54.7387C66.0158 55.0487 65.9673 55.4637 65.7427 55.4096C64.5292 54.5612 63.2337 53.5099 62.0581 53.4419C61.7358 52.3849 61.176 53.0811 60.6714 52.9935C59.6669 52.8321 58.5913 51.8005 57.898 50.8288L58.2001 50.158C57.7446 49.9539 57.2625 49.3718 56.929 49.7303L57.5913 50.8357C57.2246 50.9521 56.771 51.2565 56.6289 50.3885L56.8089 49.4052C56.4156 48.7194 56.0734 49.6024 55.7223 48.6307L55.3669 49.9493L55.2467 48.4969C54.8245 48.4681 54.1623 49.0595 53.9732 48.0474C53.7756 48.0682 53.6778 48.339 53.4332 48.2376C52.8623 47.478 51.8288 47.7834 51.4421 47.01L51.6843 45.3686L51.3197 44.4107L51.86 44.5536V45.5369C52.1954 45.5173 52.2511 46.2988 52.4666 46.6504C52.8068 46.2227 52.8888 46.8463 53.2443 46.7795C53.1733 46.006 52.9001 45.7824 52.5223 45.8296L52.5266 44.526C52.6688 45.1634 52.9911 44.9951 53.3067 44.8245C53.6112 45.6602 54.4468 45.9103 54.8754 45.4158C55.0554 45.4954 55.0334 46.1754 55.2424 46.2089C55.2844 45.3686 55.6712 45.5841 55.9045 45.8561L55.5423 46.2019C56.0579 46.5143 56.6689 47.2947 57.2313 46.9478C58.5155 48.5627 60.4224 48.3805 61.4557 49.8871C62.0871 49.6289 63.0916 50.9106 63.387 50.7815L63.6268 50.2732L63.6871 50.9371L63.9315 49.9493C63.5093 48.89 62.7647 49.4052 62.296 48.6998C62.1069 48.6375 62.2802 49.5193 62.0559 49.3718L62.0002 48.7125C61.4115 48.9903 60.8536 48.8762 60.8536 46.9696C60.7156 47.5517 60.5957 47.9529 60.3645 48.1234L60.0646 47.8238C59.8245 47.9863 59.8491 47.75 59.5181 47.5045C59.0712 47.1852 58.5401 47.3085 58.3714 46.4198C58.198 47.3616 58.0556 46.5477 57.7755 46.9224C57.5513 45.3063 56.798 46.0464 56.5623 44.3784C55.6712 44.3024 55.1668 43.7537 54.5709 43.1555C53.6023 43.582 52.5066 42.1238 51.6201 41.9624L51.4978 41.1486C52.0421 40.7878 52.7909 41.5129 53.2443 41.0795C52.7822 39.3078 51.4242 39.9936 50.5886 39.2398L50.5288 40.049C49.8198 39.6213 49.2953 39.3228 48.4752 39.4784C48.1062 38.2093 47.1709 39.3897 46.7885 38.0745L47.5109 36.9068L47.633 37.7206L47.9332 37.8774C48.1996 36.1725 49.0955 38.2301 49.6821 37.4762C49.8355 37.7679 49.8198 38.494 50.0998 38.4318C50.3287 38.0203 49.9221 37.6872 50.1045 37.4624C50.3555 37.286 50.2066 38.2635 50.4066 38.2704C51.6597 37.1373 52.7399 38.9286 54.2089 38.6093L54.3265 39.7435C54.5709 39.8842 54.3511 38.8272 54.5689 38.9217C55.0402 38.9424 55.8044 38.7926 56.258 39.3355C57.1756 38.6508 58.1934 39.7977 59.0335 40.3809C60.5336 41.4114 62.158 41.1486 63.8003 41.9878L63.9827 41.4875C64.9626 42.6805 66.2938 43.4413 67.2362 43.8067L67.3583 42.4973C67.6848 43.265 68.0605 43.6707 68.5004 43.4263C68.1828 42.5445 67.8738 42.9929 67.6583 42.3209C68.3605 42.3751 69.4629 42.7082 70.0739 43.522C71.2274 42.9456 71.4851 46.7322 72.7896 45.7074C72.9184 46.5408 73.2497 45.9161 73.5185 46.1616C73.6052 45.8158 73.6517 45.3536 73.8762 45.334C74.3008 46.2838 75.1207 46.8463 75.8076 46.5685L76.0475 48.3529C76.2921 49.1275 76.9543 48.2445 77.1898 49.2888C76.9231 49.3107 76.9586 49.4248 76.7142 49.3038V49.9412C78.6074 50.6201 80.2209 52.0645 81.9075 53.3266L82.081 52.3434C82.919 52.3089 83.4721 53.571 84.1366 52.7572C84.2835 52.8379 84.2678 53.3878 84.4966 53.2321C84.7055 53.2321 84.59 52.3849 84.7946 52.4103C85.0679 53.0892 85.5925 53.503 85.9501 52.695C86.6547 53.4488 87.6126 53.5237 88.2392 54.8735C88.6523 54.5554 89.3079 54.9899 89.5036 55.798C89.7282 55.9663 89.5991 55.1928 89.8125 55.3081C89.8125 56.176 90.1548 56.0896 90.4147 56.2579L90.5238 55.4372C90.7168 55.8522 90.9147 55.247 91.1948 55.4096L91.2614 56.0677C92.4172 56.5011 93.6369 57.1063 94.5748 57.5604L94.9884 55.7565C94.8639 54.99 94.3149 55.2942 94.0905 55.6205L93.8459 54.6626C93.4569 54.6983 93.3104 54.0805 92.9994 53.8845L92.8214 54.6983L92.6414 53.8891L92.2814 54.7168C92.4037 55.1997 92.6969 54.9001 93.0081 54.8609L93.0036 55.6677C92.4525 56.4216 92.1014 55.4568 92.0371 54.4067C91.9237 55.4165 91.8058 54.5335 91.5526 55.0706L91.4969 53.9376C90.6792 54.779 89.8993 53.1099 89.2013 53.2114L89.0191 52.574C88.508 52.7964 88.1213 52.5405 87.7547 52.9394C86.7968 51.9769 85.6145 51.6438 84.859 50.1245L85.2212 49.6288C85.4345 49.7787 85.6613 50.7885 85.8234 49.7649C85.579 49.2289 85.3435 48.6848 85.2767 47.6682L85.4567 46.5293C85.2212 46.4936 85.0346 45.7144 84.788 46.2227L84.5501 44.9329C84.0345 45.3617 83.6967 46.338 82.9834 45.802L83.1634 47.1057C82.7433 47.3616 82.8768 46.27 82.9233 45.6464C82.47 45.3536 81.8988 44.7023 81.47 44.8856C81.2054 43.5819 80.2764 43.4667 79.7832 43.3249C79.2832 42.3624 78.4433 41.6224 77.792 41.6224L77.7343 40.638C78.0188 40.9653 78.2077 40.9435 78.2097 39.8173C77.5208 39.6951 77.0252 39.03 76.2832 39.0704L76.1607 40.2115C75.8943 39.6536 75.6252 40.0824 75.2565 39.7631L75.1919 38.2981C74.5541 37.7609 73.8141 37.5166 73.1986 36.9068C72.883 35.1697 71.6295 36.0043 71.0895 34.8781C70.3494 35.0003 69.8895 34.3697 69.5804 33.3104C68.9849 33.2966 68.5294 32.9243 68.3115 31.8915C68.8761 31.5664 69.2339 32.3733 69.7539 32.4897C70.263 32.5912 70.5318 31.8581 71.0274 31.6275C71.4051 31.4512 72.0317 31.4984 72.2918 31.5872C73.6119 31.9941 74.8765 33.7173 76.1498 33.5479C75.5231 32.8355 74.752 32.2189 74.0407 32.1647L73.9227 31.0235C73.3407 30.7192 72.7961 30.2985 72.3475 29.6265C71.2116 29.6818 70.5185 28.1603 69.5761 27.9366C69.0604 27.8283 68.6562 28.0519 68.545 26.8451C69.4004 26.4705 69.814 27.2716 70.4761 27.4145C69.8717 24.2862 67.9073 25.8872 66.9182 23.8181C64.8869 22.9698 63.0626 21.5658 61.3647 19.808C61.1514 20.5272 60.6246 20.4385 60.2825 20.805C59.6935 19.5371 58.8401 19.9233 58.107 19.4415C57.74 19.1833 57.449 18.457 57.0824 18.336C56.7779 18.2265 56.5111 18.5931 56.2379 18.3625C55.1978 17.5003 54.0357 16.3073 52.8533 15.7367C52.6644 15.7633 52.5887 16.1102 52.3778 16.0768L52.2556 15.4244C51.9622 15.5131 51.7733 15.3356 51.6488 14.9633C49.9887 15.4659 48.7753 12.5415 47.0619 13.1847C46.4662 12.643 45.9174 11.9698 45.1308 11.9582C44.7195 11.0476 43.7863 10.8044 43.1995 10.892C42.1195 8.53826 40.5994 8.23972 39.0971 7.46512C36.1149 5.95857 32.6703 4.60307 29.3812 4.91313L29.2589 4.75751L29.0813 3.29939C27.2813 2.05104 24.9787 1.86085 22.9856 0.931789C22.5121 0.707017 22.343 0.783057 22.0231 0.808416C21.3185 0.851065 20.6009 0.144471 19.8476 0.0833787C17.3585 -0.120645 15.194 0.083426 12.9717 0.333557C10.6005 0.591756 8.51156 3.65207 6.15815 3.02732C5.84032 3.48954 5.63798 3.97828 5.32025 4.04514L5.37578 5.17249C4.95799 6.69978 4.28242 7.57349 4.05577 9.61603C3.58912 10.499 3.16019 11.4477 2.85352 12.7513C3.53135 13.5328 2.86469 15.2342 3.16019 16.6462C2.98014 17.4197 2.5135 16.4491 2.25346 17.0058C2.29791 17.9153 2.52682 18.336 2.73791 18.7775L2.92021 20.2356L2.62013 22.0338C2.84912 22.6032 3.30252 22.556 3.64913 22.7992C3.7313 24.2585 3.03349 23.6752 2.62013 23.8251L2.98238 25.1138L3.22685 24.2861C3.89802 24.0487 4.24921 26.6745 3.83352 27.834L3.34905 28.3505L3.65355 29.3141C3.62467 30.7042 2.9624 30.6904 2.75131 31.133C2.92469 32.0217 3.18465 32.6522 3.17575 34.0435L3.53802 34.1991C3.52685 35.2458 3.98692 36.018 4.20467 36.9402C3.62241 37.7286 3.64023 35.7264 3.05797 35.9985L3.24242 37.7897C2.86909 38.5966 2.48686 38.0202 2.15573 38.4675C2.09572 39.181 2.46679 39.7159 2.16015 40.0963L1.73346 39.634C1.71123 41.0599 1.80912 41.3377 1.91568 42.5445L1.79796 42.8707L1.55565 42.7347L1.55341 41.582C0.351185 41.9958 1.19124 45.3755 1.38235 46.4798C1.62682 47.9195 1.74686 49.6024 1.92674 50.5118C1.26457 50.4715 0.468968 50.2732 0 51.57V52.5405C0.611225 54.5612 0.520077 58.5183 1.63574 59.1558L2.06018 60.6012L2.29791 60.5874L2.84462 62.3579C3.58686 62.7037 3.95129 64.6644 4.71585 65.0517C6.11586 65.7629 7.0225 67.4273 8.34268 68.1593C8.83146 68.4371 9.34263 68.6953 9.84266 68.9201C11.2272 69.5229 12.3539 70.1476 13.5873 70.5614C15.6474 71.2669 17.4919 71.8974 19.3165 72.6236C19.8164 72.8207 20.403 73.8109 20.8876 72.5556L20.3454 71.6069C20.8299 71.532 21.1009 70.8335 21.6099 70.7447C22.5677 70.6018 23.7056 71.5458 24.7501 71.7695C27.6811 72.3792 30.29 73.3705 32.9546 73.8996C33.6724 74.605 34.7835 75.0857 35.2437 73.6483C35.6859 73.3901 35.6526 74.469 35.8459 74.9243C36.895 76.024 37.7372 75.6978 38.8017 74.8091L39.2906 75.2771C39.3816 74.9774 39.4528 74.6454 39.7083 74.7814L39.8861 75.2563C41.2062 74.9301 42.4597 75.6297 43.7439 75.9294L43.6884 76.7363L44.1109 76.885C44.0595 77.021 43.9439 78.153 44.1775 78.025L44.4774 77.0349C44.8553 76.5312 45.3285 76.6741 45.6861 76.9876L45.922 76.3214L46.644 76.945V77.4279C45.9706 77.0475 45.5439 77.2919 45.2575 78.4665C46.3552 78.5207 48.4752 81.1465 49.3621 78.3178C51.7422 80.3177 54.7957 80.4745 57.2046 82.4018C57.0535 82.5574 56.88 82.6254 56.6646 82.5919C56.6023 83.9682 57.4956 84.0305 57.747 83.5152L57.6244 82.3799C58.0469 82.9781 58.3823 82.8767 58.8936 82.8225C60.2424 83.8069 61.6337 84.6472 63.296 84.7694C62.8537 83.7654 62.0912 83.6432 61.487 83.0461L61.5514 82.0767C61.0691 81.709 60.0491 81.9603 59.8559 80.3523C59.5335 79.9385 58.9981 80.1091 58.827 79.2515C59.1624 79.1512 59.8001 78.9011 60.3402 78.8527C60.4512 78.4123 60.5426 77.8821 60.7624 77.7196L61.4247 77.8498C60.9781 78.0331 60.8401 77.3876 60.7002 76.7432C63.0113 77.2447 65.2469 79.233 67.6339 79.565L67.5161 78.0988C67.1627 77.5651 66.8384 76.9265 66.4248 76.5185L66.1849 77.6723C66.696 77.6377 67.2872 77.3807 67.2804 78.765C66.3293 78.093 65.1204 78.1599 64.3803 76.9266C64.8914 76.5185 65.5028 77.6585 65.9982 76.8654C65.5738 75.2621 64.2093 76.2268 63.7737 74.68C63.2248 74.9047 62.6293 74.1912 62.0825 74.5855C61.7471 74.801 61.3336 75.9352 61.058 74.612L61.2358 73.6218L61.6026 74.1094L62.0825 73.276C62.0226 72.3458 61.287 73.2829 61.3581 72C61.578 71.6599 61.6446 70.9199 61.9001 70.6767C62.2714 70.7862 62.5559 71.1505 62.9847 71.1182C63.1136 71.4167 63.0315 72.3043 63.2847 72.264L63.6514 71.26C64.0336 72.1418 64.7027 72.0069 65.0383 73.3163L64.8561 73.8108C64.4271 73.8108 64.0871 73.004 63.7737 73.2149V73.8592C64.5292 74.3411 65.8138 74.2177 66.4294 74.5785L65.9403 73.1181L66.1203 72.3112C65.4717 72.1418 64.7181 72.2317 64.4892 70.9073L64.6093 70.2491C65.6515 71.0087 66.6849 71.1032 67.7495 72.2501C67.8559 73.7982 68.6428 73.4847 68.9028 74.6454C68.5204 74.8287 67.8873 74.401 67.5161 74.0414C67.5605 73.9261 67.6628 73.0639 67.4493 73.2288L67.2138 74.2178L66.6072 74.5636C67.3738 75.5076 68.4273 76.1381 69.1405 76.7432L69.5608 76.2396L69.9228 76.7213C70.1139 75.7116 70.514 76.9922 70.8274 76.1992C71.5317 77.0211 72.4072 77.4141 73.123 78.2072L73.423 77.557C73.5052 77.9443 73.6206 78.2071 73.8452 78.1818C73.9586 77.957 73.9162 77.2919 74.1452 77.3669C75.4476 78.5264 76.6186 78.5876 77.7698 79.6665L77.3474 80.0065C77.4854 80.4952 77.6743 80.8549 77.9542 80.9632L78.0763 81.9395C78.7654 82.102 80.0677 82.1643 80.7322 81.8323C80.4812 81.4381 79.9812 81.845 79.8855 80.7384C80.3232 80.0399 80.7879 80.984 81.0878 81.4923L80.7278 82.3257C81.5475 82.8294 82.5855 83.3919 83.5034 83.1879L83.6166 82.3741L84.1146 82.3476L84.2835 83.4795C84.63 83.6016 85.3435 84.1861 85.5524 83.6017L85.1345 83.6224L85.0701 82.8075C86.0524 82.4836 86.9391 83.6224 87.6679 83.8391L87.8503 83.5152C88.3881 83.5071 89.0237 84.1515 89.2927 84.2679C90.0837 84.5849 90.8637 84.3002 91.7104 84.5054C92.2949 84.6472 92.9905 85.6511 93.5148 85.7272C93.815 85.7802 93.8548 85.6661 93.9993 86.0523C95.0015 86.0119 96.1794 86.3036 97.2551 86.4119C97.804 86.4511 98.6106 87.6464 98.9461 86.5133C97.8974 86.201 96.8685 84.9999 95.8729 84.993C95.6194 84.993 95.395 85.3595 95.206 85.3388C95.0126 85.3192 94.8704 84.9318 94.6595 84.8696C94.2059 84.7624 93.5638 85.5843 93.2173 84.2818C92.4548 84.4835 91.7592 83.1879 90.9813 82.902L91.3413 81.9188C91.7037 82.985 92.0215 81.9937 92.6124 82.0294C92.1993 79.8025 91.2658 83.785 91.0969 80.4664C90.7858 79.633 90.0793 79.8901 89.8347 78.8872C90.1259 78.7039 90.2526 78.9483 90.497 78.5403C90.8949 79.5927 91.4904 79.1916 92.0617 79.4429C92.7593 79.7552 93.4014 81.105 94.1149 80.3523L94.2995 80.8272C94.6595 80.8871 95.1595 80.5229 95.2615 81.2813C95.8749 80.4341 96.455 81.8715 96.9506 81.709C96.8172 80.5632 96.2349 80.4191 96.4639 78.3178C96.695 78.4388 96.8126 78.8803 96.8306 79.5927C97.055 79.2734 97.2995 79.6468 97.3774 80.2301L97.1926 81.8577C97.7083 81.7378 98.1016 82.0479 98.6372 82.1239C98.6017 81.0992 98.2328 80.2093 98.635 79.6872L98.6372 80.9897C98.9263 80.9494 98.9818 80.2773 99.1774 79.9926L99.7262 81.105L99.4883 81.9257C99.3085 81.5003 99.3662 81.4785 99.1241 81.792L99.004 80.9701L98.7641 82.4421C99.384 82.3003 99.8596 83.4253 100.271 82.7141C100.695 84.3763 102.2 83.0795 102.744 84.4097C103.202 83.7527 103.844 85.2777 104.309 84.0224C103.966 83.8541 103.075 83.7458 102.984 81.9534C103.504 82.5631 103.693 81.649 104.246 81.5868C104.804 82.6864 105.624 82.8628 106.302 81.9937C106.353 82.4559 105.92 82.8363 106.24 82.985L106.902 83.1072C107.044 83.0599 106.933 82.3326 107.149 82.4559L107.449 83.2489C108.524 83.121 109.896 83.9406 110.822 84.4166L111 83.121C110.709 83.1683 110.684 82.4755 110.527 82.1574" fill="#100F0D" />
</svg>