<svg viewBox="0 0 111 87" fill="none" xmlns="http://www.w3.org/2000/svg" preserveAspectRatio="none"><path fill-rule="evenodd" clip-rule="evenodd" d="m105.995 80.38-.24.332.122.984c-.288.414-.366-.495-.666-.305l.122-.658.122.474.178-1.459.362.313v.319Zm-5.427.216-.419-.637.537-.189-.118.826Zm.065 1.445c-.3.408-.398 0-.727.036l-.058-1.291c.28.123.429.448.658.123l.127 1.132Zm-2.843-3.778-.062-.659c.683-.033 1.403.597 1.45 1.724-.405-.15-.894-.95-1.388-1.066Zm.367 3.554-.122-1.132.305-.17-.183 1.302Zm-2.715-4.613.295-.17-.295.17Zm-.725 1.975.056-.972c.3.32.922-.236.842 1.107-.296.529-.487-.449-.898-.135Zm-1.813-3.983c-.105.23-.038-1.412-.42-.964.209.277.189.942.122 1.606-.331.097-.382-.576-.485-1.098-.6.693-1.006-.637-1.509-.446l-.182-.957c-.529-.273-.83-.273-1.146-.944-.25-.04-.28.462-.427.67l-.298-2.42c-.595-.252-.6.542-1.213.203.369-2.502 1.749-.143 2.36.238l.118.963c.22.156.066-.698.18-.8.253 0 .437.223.486.773l.358-.332.122.638c.863-.225 1.954.285 2.234 2.205-.21-.076-.374-.022-.3.665Zm-.665 2.13c.165-.542.327-1.086.602-1.33l-.057.17.12.808c-.302-.04-.42.44-.665.352Zm-.418.827.423-.176-.422.176Zm-1.084-.285v-.644c.382-.089.953-.359 1.024.929-.357.45-.693-.161-1.024-.285Zm-.18 0-.06-.97.178.808-.118.162Zm-.549-.623v-.639l.187.624-.187.015Zm-.607-2.26.183-.808.244.958-.427-.15Zm-.413 1.485c.407-.011.704-.433.718.795-.234.488-.687.17-.718-.795Zm-.062 2.613c-.234-.128-.534-.752-.36-1.458.264.074.427.462.482 1.133l-.122.325Zm-.173 2.124.053-.659.244.476-.297.183Zm-.794-5.495c.316.06.591.203.84.44-.004.793-.233 1.005-.544 1.005.13.549-.142 1.518-.531.996-.014-.916.142-1.226.417-.996l-.182-1.445Zm-.302-.164-.06.815c-.18-.007-.162-.964.06-.815Zm.909 6.148-.3-1.46c-.76.468-2.234-2.007-2.718.597l.367.964c-1.045.137-2.125-1.71-3.138-1.676-.467-.42-1.332-1.118-2.052-.725-.417-.63-1.17-1.222-1.628-.753-.414-1.479-1.536-.991-2.174-1.86-.222-.006-.213.611-.36.821-.275-.305-.806.142-.784-.95-.312.285-.485-.069-.787.19-.1-1.343.402-1.092.542-1.812l.178.483.305-.49c-.336-.487-.865-1.085-1.263-.44l.178 2.266c-.851.57-1.794-2.24-2.718-.713-.207-1.248-.504-.156-.902-.122l.122-.984-.422-.15c-.229.143-.005.571-.123.823-.697-.157-1.277-.624-1.926-.904l.055-1.146c-.362-.237-.88-.08-.784-1.594.59.033 1.525.48 2.049 1.222.489-.415.815-.007 1.029-.687-.382-.746-.778-.149-1.147-.278-.529-.183-1.007-1.532-1.753-1.086l-.245-.785c-.315.642-.971-.136-1.202-.774-.498.616-.789-.332-1.451-.109l.604-.678c.153-1.52 1.092-.903 1.383-.38l.122-.489.3.15.18 1.946c.902-.365 1.353.983 2.298.564l-.843-.78c-.17-.999-.713-.992-1.029-1.595.505-.958 1.478.042 2.176.413l.058.638c1.269-.93 2.409 1.743 3.802 1.324l.24.482c.762-.788.931 1.329 1.752.915l.24.638c.29-.536 1.204-.218 1.324.773-.367.326-.902-.155-1.325-.61l-.177.325c.306 1.67 1.508.869 1.868 2.369l.298-.488c.514 1.118.923.393 1.458.596l.116.8.244-.657c.322.36.593.347.78-.36.367.378.496.606.907.617l.18 1.622.122-.814.362-.178.9.28c.63.346 1.576 1.234 2.172.57.555.596.898.855 1.576 1.41.59.49 1.135 1.04.964 2.73Zm-.903.19c-.224-.142-.157-.338-.424-.137l.002-.976c.245.251.107.807.483.468l-.06.645Zm-.606-.123-.178-.977.178-.006v.983Zm-.785.347c-.27-.164.067-.984-.175-1.147h.546l-.37 1.147Zm-6.867-1.038-.004-.985c.302-.08.424 1.16.004.985Zm-14.193-11.82-.183-.645.24-.02-.057.665Zm-.24-1.623-.24.015.057-1.14c.256 0 .271.617.183 1.125Zm-.483 1.323c-.21-.101-.038-1.186.187-1.138l-.187 1.138Zm-.42-3.243c-.422-.617.038-1.926.298-.807l-.298.807Zm.123 3.427c-.463.326-.33-.956-.727-.792l.064.31-.304-.956-.24.652c-.256-.006-.254-.714-.371-1.113-.516.684-1.347-1.079-1.618.392l-.005-1.636c.49.504 1.19-.962 1.567.274.611.284 2.058-.38 1.634 2.869Zm-3.867-1.811.24-1.635.244 1.939c-.195 0-.23-.453-.484-.304Zm.31 5.516c-.29-.562-1.008.46-1.028-1.106.518.576.702-.095 1.147-.034l-.118 1.14Zm-1.88-6.765-.184.659-.295-.802c.39-.733 1.304-.304 1.513.924-.473.366-.756-.028-1.033-.78Zm.056-2.768c.218-.259.036.563.187.481l-.187-.481Zm1.091 3.046.123.651-.123-.65Zm.305 3.74-.54.189c-.082-1.154.622-1.696.54-.19Zm7.294-4.988-.06.964c-.216.108-.18-.468-.18-.964h.24Zm.788 2.877.123.665h-.178l.056-.665Zm.11-9.106c.43-.184.453.727.788.794-.04.128-.382.27-.722.354l-.067-1.148Zm2.17 1.22c-.224.856-1.07 1.046-1.082-.44.403-.562.776.218 1.083.44Zm.127 1.956-.302-.638.24-.007.062.645Zm1.087 2.878-.058-1.46.174-.008c.082.292.157 1.616-.116 1.468Zm-.311-8.279c.107.772.189.772.544.63.016 1.316-.453.367-.666.999-.296-.45-.663-1.12-1.02-.93l-.118-.815c.35-.074.648.163 1.26.116Zm-.18-2.104-.24.666-.06-.497.3-.169Zm1.387-1.69c.197.334.182 1.235.48 1.296-.378.122-1.505-.412-1.99-1.073.22-1.478.838.462 1.51-.222Zm-.478 12.39c.344-.624.9.17.606 1.276-.19-.476-.373-.57-.602-.63l-.004-.646Zm-.062-6.174.184-.014.055 1.133c-.322.313-.366-.705-.24-1.12Zm.61 1.269c.232-.103.067.896.119 1.296l-.245-.163-.123 1.31-.48-1.92c.236-.442.634.414.73-.523Zm.3.312.298.156-.062.644-.235-.8ZM73.78 66l-.07.972c-.797.325-.484-2.246.07-.972Zm-.73-2.746v-.97c.436.047.67.657.965 1.1-.127.664-.566-.462-.964-.13Zm2.174 3.828c.187-.022.174.5.422.31l-.302.17v1.147c-.364.515-.758-.17-.84-.957l-.305.169c-.03-.976.29-1.059.663-.99l-.058.658c.276.196.291-.311.42-.507Zm6.998-3.352c.233-.062.158-.958.293-1.325.403.11.567.054.73.957l-.24.325-.61.68-.173-.638Zm-3.442.291.42 1.125c-.278.563-.587-.44-.42-1.125Zm-2.467 6.595c-.127.841-.26-.257-.484-.15l.484.15Zm.302-1.636-.302-.154.122-.66.18.814Zm6.094 2.7-.178.814-.3-.637.478-.176Zm.847.767-.545-.129.544.13Zm-.672-3.059c-.306.04-.295.943-.597 1.003v.972c-.674.284-1.23-1.052-1.992-1.06v-1.14c-.313-.183-.649-.29-.724-1.119-.291-.061-.145 1.037-.547.679l-.118-.97c-.84.12-1.529-1.847-2.475-.721l-.363-1.118.058-.651c.9.583 1.951.745 2.78 1.512v.814c.271-.034.414-.413.603-.672l.48.95c.249-1.146 1.002.054.602 1.12l.422-.339c.23-.114.153.563.25.807.23-.726-.254-1.153-.066-1.797.265-.13.692.595.967.942.53-.727 1.312-.25 1.5.923-.175.841-.53-.135-.78-.135Zm1.147 2.082-.296-.155.056-.496.24.65Zm-.302-1.783.127-.49.242.637-.37-.147Zm1.153 5.48c.162.606.103 1.291-.244 1.31-.138-.474-.058-1.486.244-1.31Zm-.487-5.026.118-.814.367.14.058.66-.543.014Zm.185 3.088-.182.17-.058-.809.24.639ZM73.281 54.63c.417-.069.962-.923 1.329.285.77-.047 1.86.27 2.41 1.364.352-.51.82-.313 1.208-.211l.364 2.103c.733.252 1.171-1.194 1.511.924.46-.68.823.597 1.387.426l-.245-1.118.123-.51c.209.15.369.4.597.474l-.058 1.297c.339.76 1.025.597 1.332 1.418.775-.76 2.131-.047 2.718 1.202-.802 1.248-2.265-.402-3.136-1.026-1.438.23-2.7-1.025-4.102-1.132-.276-.86-1.08-.638-1.576-.598.43.916 1.189.99 1.698.91.86 1.152 2.238.916 3.069 2.164l-.175 1.466c-.305.184-.214-.719-.363-.964-.313.495-.402-.196-.662.352-.49-2.79-1.854-.278-2.776-1.844-.23.054-.164.861-.42.82-.187-.706-.513-1.642-.907-1.255-.584-1.146-1.557-1.88-2.237-2.193l-.178.822-.24-.638c-.207-.127-.08.66-.304.496-.347-1.14-.807-1.133-1.392-1.418v-.808c.463-.075.47.584.852.299-.174-2.062-1.53.068-1.52-2.552.404-.338 1.177.959 1.448-.216.203.311.151 1.336.545 1.12l-.3-1.459Zm4.102-1.614-.367-.15.367.15Zm3.68 1.974.065.643-.31-.318c-.228-.305.29.04.245-.325Zm3.263 4.275-.303-.313.303.313Zm2.538 4.776c-.267.63-.874-.095-.97-.95.3-.23.636.726.97.95Zm.186 11.04.367 1.457c-.431.45-.645-.664-1.147-.122-.504-.148-.635-1.308-1.211-1.261l.005-1.126c.84-.218 1.24 1.56 1.986 1.052Zm-1.875-8.692.122-.998.24.638c.295-.72.76.251.846 1.114-.386.262-.844-.457-1.208-.754Zm1.09 4.824c-.181-.408-.181-.456-.481-.306l.06-.813.48-.028-.058 1.147Zm-.121-1.955.42-.17-.42.17Zm1.09 1.595-.488-.312.06-.977c.333-.11.48.312.429 1.29Zm-23.942 5.299c.24-.115.78.217.966.781-.32.583-.56-.421-.966-.13v-.651ZM55.055 49.96l-.295-.311.295.31Zm-.822 14.338c-.169 2.184-.835-.843 0 0Zm-1.04-15.416.236-.483c.289.347-.078 1.127-.236.483Zm-2.415-2.505-.545.199c-.215-.267-.438-.56-.602-.971-.1.224-.147.596-.362.508l-.005-1.296c.316-.027.374.563.607-.019l-.062-.66-.482-.136c.386-1.017 1.797-.413 1.45 2.375Zm-2.274 16.197.48-.02-.48.02Zm-.146-18.056-.178-.808.24-.006-.062.814Zm-.347 9.771.24.482-.24-.482Zm-.485-9.899-.193-1.126c.193-.496.34-.11.667-.19.002.873-.162 1.316-.474 1.316Zm-.61 1.81c-.378.15-.563.516-.785.524l.36-1.154c.282.807.713.217 1.213.447-.03 1.467-.64.835-.789.184Zm-1.632-3.019.06-.502c.633.09.867-.481 1.214.455-.356 1.12-.86-.645-1.274.047Zm-.918-12.653-.06-.164c.47-.38.77.015 1.211.278-.244.211-1.004.456-1.15-.114Zm1.813.095c.21.013.267.441.48.46l-.544.19.064-.65Zm1.094 12.795-.485-.46c.223.006.485-.136.485.46Zm-4.22 2.776v-.977c.28.212.513-.128.907-.033l.06.645c-.352.27-.572.054-.967.365Zm-1.082-.61.057-.666c.131.462.325.266.545.15l.304.963c-.34.04-.57-.141-.906-.448Zm-.79.027.067-.664c.345-.095.454-.17.6.482-.137.541-.406.27-.666.182Zm-1.086-3.874c.26-.658 1.264-.428 1.693.272-.333.535-.595-.09-.786.515l-.907-.787Zm-.118 3.59c.125-1.167.66-.226 1.027-.205-.038.3-.811.95-1.027.204Zm.07 7.808.9-.204c-.22.842-.58.022-.9.204Zm-.314-11.222-.06-.964.24.313-.18.651Zm-3.44 3.563-.118-.984c.747-.042 1.382-.17 1.993.576.594-.515 1.091-.197 1.631.101-.902 1.053-2.277.224-3.506.307Zm-.25-16.59.663.134-.662-.134Zm-.895 15.801c.233.049.529-.338.79-.67.326 1.296-.734 2.252-.79.67Zm-.18-4.2c.25-.358.825-.358.785.611l-.785-.61Zm-.29 4.222.357.475-.358-.475Zm-.316-9.575c.224-.012.484-.142.421.639-.221.012-.415-.063-.422-.639Zm-.234 10.09-.004-.97.366.8-.362.17Zm-.484-4.519.477-.04c-.095.46-.268-.21-.477.04Zm-.3 4.384c-.485-.34-.73-.503-1.21.055v-1.304c.407.238.785.983 1.21.271l.122.638-.123.34Zm-1.15-4.179-.3-.306.3.306Zm-.848-.3v-.638c.269-.175.278.32.426.47l-.426.169Zm.249 4.227-.185-.155.063-.658.122.813Zm-1.265-.122.118-1.297.122.972c.398.121.244-1.18.723-.848.021.501-.158.841.062.976-.305.515-.758.211-1.025.197Zm-.122.163c-.271-.136-.709-.245-.549-1.106.289-.191.331.658.487-.02l.062 1.126ZM29.53 28.33l.3.468-.3-.468Zm-.358 3.906.298.165-.298-.165Zm-1.502 8.85c.051-1.106-.449-.727-.662-1.114v-.495c.115-.297.393-.136.602-.19l.178.652.304-.657c.354.745 1.091-.285 1.391.92-.595.604-1.42-.604-1.813.883Zm1.331 3.683-.122-1.132.422.467-.3.665Zm-1.631-2.863V41.1l.24.639-.24.17Zm-.055 2.605c-.634-.115-1.75.02-1.69-1.41l.3.652c.227-.653 1.027.4 1.147-.868.267.168.536.725.843.303l.244.801c.269-.25.371-.074.595.13-.048.733-.91.488-1.44.392Zm-3.127 8.408.117-.658c.44.469 1.245.386 1.51.433l.062.332c-.316.687-1.27-.202-1.69-.107Zm-.911-.617c.377-.17.633-.137.846.454-.244.264-.795.57-.846-.454ZM20.25 43.32c-.611.263-1 0-1.445-.272l.602-.346.363-.502c1.39.855 2.629.305 3.862.665l-.056.977-.366-.475c-.931.733-2.187.482-2.96-.047Zm2.427 9.66v-.65l.54-.02c.015.725-.267.7-.54.67Zm-4.287-.331-.056-.8-.24.332-.002-.651c.602 1.059 1.529-1.106 1.684.745-.4.796-.882-.318-1.386.374ZM17.9 42.26l.183-.326c.271.51.678.74.544 1.935-.33-.02-.482-.522-.726-.787v-.822Zm-.766 9.628.173-.983c.176.107.263.475.543.305l.064.481c-.173.565-.54.32-.78.197Zm-.682-9.405c.24-.473.666-.257.791.456-.209.563-.791.786-.791-.456Zm-.127-2.102c.107-.653.291.264.55-.197l-.485.522-.065-.325Zm-.244-7.479.3-.175.122.814-.422-.639Zm-.236.83c-.304.053-.295-.727-.422-1.134.147-.325.198.428.418-.015l.004 1.148Zm-.295 10.095c-.254-.386-.663-.365-.725-1.282.456-.055.689-.319 1.02-.048l-.295 1.33Zm-.17 7.974c-.213.12-.222-.564-.122-.814.21-.117.216.562.123.813Zm-1.033-1.099c.23.277.28.352.371-.347l.174 1.132c-.151 1.006-.8.26-.545-.785Zm-.113.807c-.387.502-.896.047-1.147-.272.378-.842.556-.923 1.147-.707v.979ZM13.125 30.25l.242-.007-.242.659v-.652Zm.729 12.653.004.49-.24-.312.236-.178Zm.844-9.777.24-.183c-.524 1.717-.702-1.615-.24.183Zm3.085 9.635-.24 1.154c-.358-.435-.011-2.096.24-1.154Zm-.315-10.572.482-.007-.111.808-.371-.304v-.497Zm1.088.3.007 1.139c-.424.197-.031-.793-.311-.977l.304-.162Zm.25 4.22.179.794-.3-.299.12-.495Zm.537 3.711-.358.502-.06-.325.418-.177Zm-.067-3.73c.327-.035.087.84-.055.975l.055-.976Zm.311 2.428c-.042.882-.53-.68-.184-.807l.005.643.18.164Zm.605 1.28.058.314c-.138.67-.363.36-.598.176.158-.223.26-.597.54-.49Zm.838-1.654-.354.495v-.657l.354.162Zm-.302-7.965-.845.19c.229-1.032.431-.28.845-.19Zm1.153 7.925-.244.007.244-.007Zm-.491-7.621.062-.169.122-.007.06.157v.332l-.06.163h-.126l-.063-.163.005-.313Zm2.418 7.546.242 1.127c-.351.216-.451-.727-.242-1.127Zm.173-10.904.242.637-.304.015.062-.652Zm.722.298-.362.007c.224-.02.173-.19.362-.007Zm.5 16.075c-.469-.326-1.189.366-1.453-.752.469-.53 1.218-.436 1.453.752Zm-.188-5.191c.244-.163.248.963 0 .808v-.808Zm.535-6.853-.24-.644.24.644Zm.358-3.914-.542.183c.086-.768.317-.3.542-.183Zm4.835 11.676-.177.835v-.983l.177.148Zm.06-1.778-.426.022.426-.022Zm.056-9.594.24.149-.24-.149Zm1.631 11.793.67.637-.545-.141-.125-.157v-.339Zm2.347-11.297-.418.168.418-.168Zm.789 6.96-.236-.148.236.149Zm1.876 5.295-.423.013.363-.659.06.646Zm-.007-12.201-.604-.142.604.142Zm.48-.013.122.48-.309.008.187-.488Zm.429 12.023-.358.176.118-.495.24.319Zm2.34-11.162-.296-.475.296.475Zm.422-.17-.358-.15.358.15Zm1.163 12.315.422-.02c-.234.089-.174.958-.422 1.004v-.984Zm.602-.352.244.326-.362.17.118-.496Zm.289-11.717.606.142-.602.507-.004-.649Zm-30.8 21.337.118-.99.187.978-.304.012Zm-.295 2.776.3-.006-.3.006Zm-.264-23.24.362-.826.055.969c-.249-.168-.184-.706-.417-.143Zm-.056 6.494-.058-.8c.216-.17.103.699.058.8ZM9.285 50.24l.18-1.31c.693 1.833 1.482.855 2.349.72-.189 2.646-1.947.726-2.53.59Zm-.367-1.622.185 1.31c-.296.705-.811-1.345-.185-1.31Zm-.9.693.056-.807.426.467-.482.34Zm2.818-14.42h-.244.244Zm.056-4.723v.666c-.147-.144-.26-.374-.478-.312l.478-.354Zm-4.69 15.47c-.22.083-.35-.101-.362-.636l.363.636ZM4.75 37.714l.058-.807c.438.06.702.591.847 1.423-.327-.493-.538-.297-.905-.616Zm.67 7.633-.005-.814c.249-.17.249.957.004.814Zm-.32-16.738.364.8c-.218.481-.538-.142-.365-.8ZM4.16 52.54c.243-.123.347.148.305.8-.245.13-.343-.136-.305-.8Zm-.913-11.658.3.143-.3-.143Zm44.809-7.084-.423-.14.422.14Zm.657.305-.362-.637c.211-.033.451-.156.362.637Zm.658-.344c.213-.136.224.548.124.807l-.124-.807Zm.526-15.966.367.475-.362.501-.005-.976Zm5.747 18.314-.415-.13.415.13Zm1.15.127v.483c-.22.02-.48.136-.418-.624l.417.14Zm1.213.605-.607-.306c.182-.36.367.326.607.306Zm.355-.014c.256.101.031 1.012-.117.496l.117-.496Zm.3-2.775c.545.8.958.903 1.514.753l-.123.332c.925.639 1.739.741 2.714 1.351l.06-.645c.256-.15.287.306.48.3l-.122.664c1.135.25 2.149.861 3.144 1.507l-.486 1.166-.3-.488c-.825-.19-1.576-.618-2.594-.875-.929-.246-1.935-1.06-2.715-1.853l-.298.17-.245-.964c-.15.102-.13.632-.364.509-.073-.875-.5-.793-.787-1.113l.122-.814Zm8.15 7.817c-.116.38-.36-.3-.605-.142l.604.142Zm-.245-3.731.18.643-.235.014.055-.657Zm1.391 1.735.123.645c.209.279.668.014.602.794-.32.408-.896-.224-1.265-.442l-.607-.469c-.02-.656.756-.791 1.147-.528Zm-.06-1.126.238.149-.238.822v-.97Zm.602.454c.82.04 1.36.15 1.57 1.568.377.19 1.162-.57 1.382.429-1.063 2.015-2.067-1.493-2.954-1.176l.002-.82Zm5.25 2.735.182-.827c.749.63 1.064 1.724 1.931 2.36.767.571 1.638.633 2.416 1.386-.936 1.003-2.39-1.174-3.5-.687l-.485-.466c-.871.365-1.609-.869-2.476-1.052l-.244-1.773c.671-.068 1.32 1.12 2.176 1.059Zm-.245-1.953.245.97c-.256.21-.307.02-.48-.3l.235-.67Zm3.803 1.003c-.37.041-.638-.217-.847-.632.15-.364.922-.73.847.632Zm1.39 4.662c-.21.136-.25-.17-.357-.319l.358.32Zm1.687.257.067.652-.665-.468c.276-.461.37.407.598-.184Zm1.447 1.406c-.513.528-1.009-.34-1.324-.924.33-1.07 1.244-.482 1.324.924Zm.367-.653.055.796.19-.328.3 1.453c-.376-.373-.974-.135-.85-1.914l.305-.007Zm.851 4.67-.662-.456c-.647.48-1.994-2.081-2.594-.067-.337-1.153-1.324-.503-1.749-1.39l-.13-1.63c1.226.685 2.113 1.52 3.626 1.33.527 1.153.973 1.011 1.509 2.213Zm-1.687 1.215-.126-.497.666.136-.54.36ZM67.236 42.504l-.118-.644.24.157-.122.487Zm-1.689-1.241.362.148-.362-.148Zm-.478.027-.184-.652.058-.156.24.306-.114.502Zm-1.63-.916-.185-.482c-.652.387-1.578-.902-2.354-1.2v-.672c1.392 1.003 2.763.847 3.803 2.314-.336.779-.863-.76-1.265.04Zm-4.041-2.613.896.292c-.392.57-.703.083-.896-.292Zm-.669-.624.24-.012-.24.012ZM83.77 51.474l.065.8c-.34.443-.332-.31-.605-.46l.54-.34Zm.902-1.506-.244-.475.244.475Zm5.194 5.17c-.271.055-.445-.203-.547-.63l.547.63Zm-20.261-.69.055-.653.363.481-.418.171Zm24.501 17.926c-.224.127-.262-.246-.24-.788l.24.788Zm16.421 9.783c-.194-.069-.027.807-.245.666l-.062-1.142c-.744.19-1.273-.216-1.631-1.079l.002 1.147c.207-.04.58.014.365.965-.229-.644-.565-.822-.85-.293l-.062-2.129.48-.171c-.035-.807-.331-.935-.662-.956l.064 1.643c-.273.025-.375.508-.422 1.138-.235-.16.005-1.084 0-1.621l-.24-1.621c-.291.461-.382-.951-.426-.136-.027.399.395 1.844.186 2.755l-.611-1.941c-.133.597-.687 0-1.02-.28.007.953-.191 1.263-.422 1.149l-.118.99c-.329-.583-.769-.576-1.391-.923-.162.278.231.727 0 1.14l-.3-.482-.602.184.362.644c-.229.266-.382.74-.3 1.806-.425-.463-.789-.578-.847-2.247l-.118 1.784c-.375.143-.208-1.065-.304-1.295.316.101.225-.775.118-1.133l-.476.672-.182-1.14.182-.985c-.569.042-.76-1.831-1.269-1.405.44.15.185 2.064-.186 1.948l-.176-.8.176-1.487c-.812-.026-1.703-1.465-2.656-.534l-.245-.476c-.862.48-1.682-1.588-2.048-.577l.604 1.276c-.311-.504-.82-.346-.727-1.595-.275-.08-.362.237-.54.02-.129-.462-.022-1.567-.362-1.452 0 .177.116 1.154-.118 1.466-.235-.619-.004-1.08-.004-1.94-.28-.21-.44-.734-.485-1.615.53-.027.75.786 1.151 1.092l-.004 1.146c.209.115.498-.094.667.461l.422-.67c-.367-.088-.611-.496-.902-.775l.295-.99c.48.129 1.194 1.012 1.694.435.204 1.478 1.05.156 1.382 1.397.711-1.31 2.169 1.14 2.96.217.449.854.931.775 1.569 1.242-.187-1.859-1.095-.78-1.451-2.056l.064-.991-.549-.128.367.794c-.387.657-.927-.158-.969-1.432-.24.217-.427-.55-.54-.136l-.249.509c-.251-.115.065-.753-.177-.814l-.42-.318c-.218.243-.392.61-.667.676l-.06-1.131c-.267-.007-.185.916-.362 1.153-.492-1.153-1.434-.38-1.51-2.871-.397.258-.79-.888-1.209-.278v.638l.312.97c.65.353.989.829 1.504 1.086l-.113.814c-.529.007-1.056-1.093-1.518-.264l-.058-1.466-.426.334-.178-.803c-.367.584-.714.198-.91-.779-.304-.217-.157.76-.417.677-.229-.209-.356-.67-.482-1.12l-.19.49c-.204-.385-.337-1.283-.715-1.6l.058 1.139-.244-.482c-.114.218.122.86-.118.991l-.062-1.641c-.225.12-.08 1.2-.36 1.158l-.125-1.62c-.549.297-1.166-.645-1.267-1.567l-.842-.307c-.358.061-.433-.02-.784.517l-.485-1.76.545-.345c-.411-.461-.983-.468-1.27-1.254l.18-.495c.968.181 1.319.813 2.176 1.22l.116.963c.71-.548 1.327.19 1.749 1.243l.062-.991-.302-.8c.298-.597.44-.435.724-.51-.34-.658-.895-.684-1.329-1.084l-.18.65c-1.013-.175-1.782-2.307-2.715-1.68l-.127-.646-.358.176-.062-.651-.238.5c-.393-.888-1.275.158-1.635-1.403.484-.448.773.862 1.269.447l.189-.658c.273.19.522.849.713-.026-.313-.34-.327-1.48-.48-2.26-.229.135-.284-.197-.475-.15l-.25.828c-.548-.386-.829-1.729-1.384-1.26-.118-.45-.16-1.074-.425-1.114l.24 2.591c-.353-.04-.322-1.175-.54-1.601-.322.944-.866.035-1.086-.93-.694-.094-1.605-1.188-2.476-1.703l.427 1.61c-.678-.49-1.594-.306-1.814-2.051-.25 0-.509-.04-.606.345.015-1.213-.43-1.187-.725-1.587l-.177.97c-1.192-.359-3.058 1.148-3.68-1.803-.378-.26-.75-.551-1.147-.768l-.123-.815c-.306.13-.462-.142-.54-.63-.304.44-.969.501-1.209-.44l-.12.657c-.555-.278-1.29-2.293-1.81-1.072l.361.794c-1.217 1.445-2.62-2.185-3.797.148.464 1.072 1.688.05 1.875 1.887.491.361.716.137 1.2-.204l.61 1.772c.246-.156.384-.598.66-.685.65.584 1.41-.075 1.813 1.561-.425.392-.678-.184-.907-.292-.491-.244-1.36-.279-1.749-.259-.316.007-.454-.651-.73-.8l-.48.197c-.415-.176-.588-.66-.84-.95-.428.481-.748-.937-1.032.203.268-.033.26.713.43.97l1.26 1.073c-.575.183-.826-.55-1.324.216.25 1.318.793.849 1.387 1.257.135-.26-.035-1.297.182-1.312 1.1-.346 1.249 1.351 1.754 2.858.224.055.106-.793.3-.828.193.782.75.551.969 1.27l-.063.97c-.28-.082-.238-1.087-.544-1.107-.97.754-1.956-.55-3.258-.685l-.12-.82c-.09.31-.138.725-.362.67-1.214-.848-2.51-1.9-3.685-1.967-.322-1.057-.882-.36-1.387-.449-1.004-.16-2.08-1.193-2.773-2.164l.302-.671c-.455-.204-.938-.786-1.271-.428l.662 1.106c-.366.116-.82.42-.962-.447l.18-.984c-.393-.686-.736.197-1.087-.774l-.355 1.318-.12-1.452c-.422-.029-1.085.563-1.274-.45-.197.021-.295.292-.54.19-.57-.759-1.604-.454-1.99-1.227l.241-1.641-.364-.958.54.143v.983c.335-.02.391.762.607 1.113.34-.427.422.196.777.13-.07-.774-.344-.998-.722-.95l.005-1.304c.142.637.464.47.78.298.304.836 1.14 1.086 1.568.592.18.08.158.76.367.793.042-.84.43-.625.663-.353l-.363.346c.516.312 1.127 1.093 1.69.746 1.284 1.615 3.19 1.432 4.224 2.94.631-.26 1.636 1.023 1.931.894l.24-.509.06.664.245-.988c-.423-1.059-1.167-.544-1.636-1.25-.19-.061-.016.82-.24.673l-.056-.66c-.589.278-1.146.164-1.146-1.742-.138.582-.258.983-.49 1.153l-.3-.3c-.24.163-.215-.073-.546-.319-.447-.319-.978-.195-1.147-1.084-.173.942-.315.128-.596.502-.224-1.616-.977-.876-1.213-2.544-.89-.076-1.395-.624-1.991-1.222-.969.426-2.064-1.032-2.95-1.194l-.123-.813c.544-.361 1.293.364 1.746-.07-.462-1.771-1.82-1.085-2.655-1.84l-.06.81c-.71-.428-1.234-.726-2.054-.57-.369-1.27-1.304-.09-1.687-1.404l.723-1.168.122.814.3.156c.267-1.705 1.163.353 1.75-.4.153.29.137 1.017.417.955.229-.412-.178-.745.005-.97.25-.176.102.801.302.808 1.253-1.133 2.333.659 3.802.34l.117 1.133c.245.141.025-.916.243-.821.471.02 1.235-.13 1.689.414.918-.685 1.935.462 2.775 1.045 1.5 1.03 3.125.768 4.767 1.607l.183-.5c.98 1.193 2.31 1.953 3.253 2.319l.122-1.31c.327.768.703 1.174 1.142.93-.317-.883-.626-.434-.842-1.106.703.054 1.805.387 2.416 1.201 1.153-.576 1.411 3.21 2.716 2.185.128.834.46.21.728.455.087-.346.134-.808.358-.828.425.95 1.245 1.512 1.932 1.234l.24 1.785c.244.774.906-.108 1.142.936-.267.022-.231.136-.476.015v.637c1.893.68 3.507 2.123 5.194 3.386l.173-.984c.838-.034 1.391 1.228 2.056.414.147.08.13.63.36.475.209 0 .093-.847.298-.822.273.68.797 1.093 1.155.285.705.754 1.663.829 2.29 2.178.412-.318 1.068.117 1.264.925.224.168.095-.605.308-.49 0 .868.343.782.603.95l.109-.82c.193.414.39-.191.67-.028l.067.658c1.156.433 2.376 1.038 3.314 1.492l.413-1.803c-.124-.767-.673-.463-.897-.136l-.245-.958c-.39.035-.536-.582-.847-.778l-.178.813-.18-.809-.36.828c.123.483.416.183.727.144l-.004.807c-.552.754-.903-.211-.967-1.261-.113 1.01-.231.127-.484.664l-.056-1.133c-.818.841-1.598-.828-2.296-.727l-.182-.637c-.511.222-.898-.033-1.264.365-.958-.962-2.14-1.295-2.896-2.815l.362-.495c.213.15.44 1.16.602.136-.244-.536-.48-1.08-.546-2.097l.18-1.139c-.236-.035-.422-.815-.669-.306l-.238-1.29c-.516.429-.853 1.405-1.567.869l.18 1.304c-.42.256-.286-.836-.24-1.46-.453-.292-1.024-.944-1.453-.76-.265-1.304-1.194-1.42-1.687-1.561-.5-.963-1.34-1.703-1.991-1.703l-.058-.984c.285.327.474.306.476-.82-.69-.123-1.185-.788-1.927-.748l-.122 1.142c-.267-.558-.536-.13-.904-.449l-.065-1.465c-.638-.537-1.378-.781-1.993-1.391-.316-1.737-1.57-.903-2.11-2.029-.74.122-1.2-.508-1.509-1.568-.595-.013-1.05-.386-1.269-1.419.565-.325.923.482 1.443.599.509.101.778-.632 1.273-.863.378-.176 1.005-.129 1.265-.04 1.32.407 2.584 2.13 3.858 1.96-.627-.711-1.398-1.328-2.11-1.382l-.117-1.142a4.122 4.122 0 0 1-1.576-1.396c-1.135.055-1.828-1.467-2.77-1.69-.517-.109-.92.115-1.032-1.092.855-.374 1.269.427 1.931.57-.604-3.129-2.569-1.528-3.558-3.597-2.031-.848-3.855-2.252-5.553-4.01-.214.72-.74.63-1.083.997-.588-1.268-1.442-.882-2.175-1.363-.367-.259-.658-.985-1.025-1.106-.304-.11-.57.257-.844.027-1.04-.863-2.202-2.056-3.385-2.626-.189.026-.264.373-.475.34l-.122-.653c-.294.09-.483-.088-.607-.46-1.66.502-2.874-2.423-4.587-1.78-.596-.541-1.145-1.214-1.931-1.226-.412-.91-1.345-1.154-1.931-1.066-1.08-2.354-2.6-2.652-4.103-3.427-2.982-1.506-6.427-2.862-9.716-2.552l-.122-.155-.178-1.459c-1.8-1.248-4.102-1.438-6.095-2.367-.474-.225-.643-.149-.963-.124-.704.043-1.422-.664-2.175-.725-2.49-.204-4.654 0-6.876.25-2.371.259-4.46 3.32-6.814 2.694-.318.463-.52.951-.838 1.018l.056 1.127C4.958 6.7 4.282 7.573 4.056 9.616c-.467.883-.896 1.832-1.202 3.135.677.782.01 2.483.306 3.895-.18.774-.647-.197-.907.36.045.91.274 1.33.485 1.771l.182 1.459-.3 1.798c.23.57.683.522 1.03.765.081 1.46-.617.876-1.03 1.026l.362 1.289.245-.828c.671-.237 1.022 2.388.607 3.548l-.485.517.305.963c-.03 1.39-.692 1.376-.903 1.819.174.889.434 1.52.425 2.91l.362.156c-.011 1.047.449 1.819.667 2.741-.583.789-.565-1.214-1.147-.941l.184 1.79c-.373.808-.755.231-1.086.678-.06.714.31 1.249.004 1.63l-.427-.463c-.022 1.426.076 1.704.183 2.91l-.118.327-.242-.136-.003-1.153c-1.202.414-.362 3.794-.17 4.898.244 1.44.364 3.122.544 4.032-.662-.04-1.458-.239-1.927 1.058v.97c.611 2.021.52 5.978 1.636 6.616L2.06 60.6l.238-.014.547 1.77c.742.347 1.106 2.307 1.87 2.695 1.4.71 2.308 2.375 3.628 3.107.488.278 1 .536 1.5.761 1.384.603 2.51 1.228 3.744 1.641 2.06.706 3.905 1.336 5.73 2.063.5.197 1.086 1.187 1.57-.068l-.542-.95c.485-.074.756-.772 1.265-.861.958-.143 2.096.8 3.14 1.024 2.931.61 5.54 1.602 8.205 2.13.717.706 1.828 1.187 2.289-.25.442-.259.409.82.602 1.275 1.049 1.1 1.891.774 2.956-.115l.489.468c.09-.3.162-.632.417-.496l.178.475c1.32-.326 2.574.374 3.858.673l-.056.807.423.149c-.051.136-.167 1.268.067 1.14l.3-.99c.377-.504.85-.36 1.208-.047l.236-.667.722.624v.483c-.673-.38-1.1-.136-1.386 1.038 1.097.055 3.217 2.68 4.104-.148 2.38 2 5.434 2.157 7.843 4.084a.584.584 0 0 1-.54.19c-.063 1.376.83 1.439 1.082.923l-.123-1.135c.423.598.758.497 1.27.443 1.348.984 2.74 1.824 4.402 1.946-.442-1.004-1.205-1.126-1.809-1.723l.064-.97c-.482-.367-1.502-.116-1.695-1.724-.323-.413-.858-.243-1.029-1.1.335-.1.973-.35 1.513-.4.111-.44.203-.97.422-1.132l.663.13c-.447.183-.585-.462-.725-1.107 2.311.502 4.547 2.49 6.934 2.822l-.118-1.466c-.353-.534-.678-1.172-1.091-1.58l-.24 1.153c.511-.034 1.102-.291 1.095 1.093-.95-.672-2.16-.605-2.9-1.838.511-.409 1.123.731 1.618-.062-.424-1.603-1.789-.638-2.224-2.185-.55.225-1.145-.489-1.691-.095-.336.216-.75 1.35-1.025.027l.178-.99.367.487.48-.833c-.06-.93-.796.007-.725-1.276.22-.34.287-1.08.542-1.323.371.11.656.473 1.085.441.129.299.047 1.186.3 1.146l.366-1.004c.383.882 1.052.747 1.387 2.056l-.182.495c-.429 0-.769-.807-1.082-.596v.644c.755.482 2.04.359 2.655.72l-.489-1.46.18-.808c-.648-.17-1.402-.08-1.63-1.404l.12-.658c1.041.76 2.075.854 3.14 2.001.106 1.548.893 1.235 1.153 2.395-.383.184-1.016-.244-1.387-.604.044-.115.147-.977-.067-.812l-.235.989-.607.346c.767.944 1.82 1.574 2.534 2.18l.42-.504.362.481c.19-1.01.591.271.904-.522.705.822 1.58 1.215 2.296 2.008l.3-.65c.082.387.198.65.422.625.114-.225.071-.89.3-.815 1.303 1.16 2.474 1.22 3.625 2.3l-.423.34c.138.488.327.848.607.956l.122.977c.69.162 1.992.224 2.656-.108-.25-.394-.75.013-.847-1.094.438-.698.903.246 1.203.754l-.36.834c.82.503 1.858 1.066 2.775.862l.114-.814.498-.026.169 1.132c.346.122 1.06.706 1.268.122l-.418.02-.064-.814c.982-.324 1.87.814 2.598 1.031l.182-.324c.538-.008 1.174.636 1.443.753.79.317 1.57.032 2.417.237.585.142 1.28 1.146 1.805 1.222.3.053.34-.06.484.325 1.002-.04 2.18.252 3.256.36.549.04 1.356 1.234 1.691.101-1.049-.312-2.078-1.513-3.073-1.52-.254 0-.478.367-.667.346-.193-.02-.336-.407-.547-.47-.453-.107-1.095.715-1.442-.587-.762.202-1.458-1.094-2.236-1.38l.36-.983c.363 1.066.68.075 1.271.11-.413-2.227-1.346 1.756-1.515-1.563-.311-.833-1.018-.576-1.262-1.579.29-.183.418.061.662-.347.398 1.053.993.652 1.565.903.697.312 1.34 1.662 2.053.91l.184.474c.36.06.86-.304.962.454.614-.847 1.194.59 1.69.428-.134-1.146-.716-1.29-.487-3.391.231.12.349.562.367 1.275.224-.32.468.054.546.637l-.184 1.628c.515-.12.909.19 1.444.266-.035-1.025-.404-1.915-.002-2.437l.002 1.303c.29-.04.345-.713.54-.997l.55 1.112-.239.82c-.18-.425-.122-.447-.364-.133l-.12-.822-.24 1.472c.62-.142 1.096.983 1.507.272.424 1.662 1.929.365 2.473 1.696.458-.657 1.1.868 1.565-.388-.343-.168-1.234-.276-1.325-2.069.52.61.709-.304 1.262-.366.558 1.1 1.378 1.276 2.056.407.051.462-.382.842-.062.991l.662.122c.142-.047.031-.774.247-.651l.3.793c1.075-.128 2.447.692 3.373 1.168L111 83.12c-.291.047-.316-.645-.473-.964" fill="#100F0D"/></svg>