<svg viewBox="0 0 111 92" fill="none" xmlns="http://www.w3.org/2000/svg" preserveAspectRatio="none"><path fill-rule="evenodd" clip-rule="evenodd" d="m1.49 9.094.243.162-.243-.162Zm.988 30.065.3.318-.3-.318Zm.398.48.05-.48c.437.548 1.5.116 1.94 1.123-.516.148-1.26-.554-1.99-.643Zm14.032 46.134c.35-.216.776-.188.894-1.114l.099.635c.192-1.48.937-.898 1.499-1.451.047.634-.113.91.195 1.127-.73.486-2.014 1.073-2.687.803Zm2.637-1.783c.463-.606.896-.5 1.343-.316-.375.431-1.062 1.006-1.343.316Zm.498.81.398-.14-.398.14Zm.845.973.702-.478c-.093.911-.458.08-.702.478Zm.8-1.288c-.217.214-.21-.015-.35-.326-.15.412-.15.467-.4.326v-.98c.835-.317 1.964-1.222 2.785-.81-.24.546-.566-.04-.694.979l.35.316c-.615-.033-.868.115-1.396.332-.117.249-.068 1.067-.296.972v-.81Zm2.187-45.818c-.274.142-.467.608-.645 0h.645Zm.201-.491c.878.349 1.361-.563 1.942-.32l-.055.65c-.212.155-.458.06-.693.16-.446.19-1.14 1.413-1.194-.49Zm0 44.358.05-.333h.295l-.345.333Zm.197.653.252-.986c.809.129 1.409-.654 2.233-.647l-.094 1.79h-.25l-.051-.967-.3.967-.198-.81c-.22.087-.482.052-.497.81l-.497.161-.298-1.128.05.967-.35-.156Zm1.39.487.153-.98-.153.98Zm1.15-2.12c.758-.007 1.51-1.115 2.284-.48-.761.682-1.582.426-2.231 1.62l-.054-1.14Zm1.343.647c.426-.162.941-.168 1.291-.971l.35.648-.4.161-.097.825c-.341-.818-.767.141-1.145-.663Zm1.688-45.485c1.091-.444 1.913-.71 2.89-1.14l.244.653c.325-1.207 1.154-.323 1.495.32-1.341.62-2.492-.447-3.48.823-.333-.73-.785.174-1.149-.656Zm.649 4.382c.25-.014.428.223.546.648-.178-.277-.527.661-.546-.648Zm.747.5.298.317-.298-.318Zm.497.317.602.316c-.225.264-.51.068-.602-.316Zm.15 43.055.052-.485v.315l.248.17h-.3Zm.344-.17.503.17-.503-.17Zm.207-42.716c.25.188.766-.473.793.479-.307-.238-.62-.17-.793-.48Zm-3.237-.655h-.3.3Zm-.497-3.902c-.281.782-.948.533-1.248.168.286-.79.792.107 1.248-.168Zm-1.345.33c-.43-.31-.885 1.2-1.145 0 .384-.182.973-.912 1.145 0Zm-7.218 1.782-.35.162.35-.162Zm15.928 3.086.192.486-.192.169v-.655Zm.894.331h.344-.344Zm.443 0c.643.223 1.214.27 1.743.155l-.098.326c-.417.072-1.34.369-1.645-.48Zm1.645 45.007.353-.332-.353.332Zm.152-44.683c.572 0 1.154-.25 1.743.157-.45.437-1.348.654-1.743-.157Zm.891 44.683c.067-.846.653-.73.902-.494v.494c-.25.054-.619.25-.902 0Zm1-44.196.252-.487-.251.487Zm.193-29.897-.143.816c-.293-.884-.962.284-1.493-.486-.182.385-.392.108-.703.318-.296-.628-.33-.257-.691-.318.363-1.133 1.002-.702 1.439-.161.383-1.027 1.302.215 1.591-.169Zm.104 0 .69.648c-.257.067-.485.12-.69 0v-.648Zm.496 29.567c.328-.09.427-.13.648.33-.245-.054-.57.52-.648-.33Zm.305-28.594v-.973l.24.485c.27-.613.555-.35.85-.653l.05.984c-.463.157-.783-.25-1.14.157Zm1.237 28.924c.384.466 1.252-.527 1.543.491-.714.182-1.125.211-1.543-.49Zm.299 44.512.2-.492-.2.492Zm.394-.492.25.344-.25-.344Zm.9-43.529c.2.116.17-.526.396-.33l.05.48-.447-.15Zm.544 0 .447.15-.447-.15Zm.25-28.775h-.7L45.07 14.3c.673 0 1.253.224 1.744.155l-.107.973c-.33-.372-.646-.296-.892.155Zm.998 28.608.643.486.152.16c-.418-.363-.7.312-.794-.647Zm.095-29.088-.045-.648c.289.122.9-.465 1.095.488l.094-.488.3.973c-.527.095-.904.277-1.444-.325Zm.745 29.404c.92-.331 1.853.109 2.792.17.043 1.58-.782 1.41-1.043.49l-.401.488c-.262-1.45-1.003 0-1.348-1.148Zm2.492 45.339c-.04-1.25.25-.4.447-.818l-.049.818h-.398Zm.6-43.873-.202-.655c.367-.169.517-.169.849-.48l.197.817c.094-1.115.487-1.115.692-.337.296-.837.895-.29 1.4-.331l.095 1.146c-.32-.012-.684-.16-.994 0l-.248-.965-.15.965c-.324-.869-.917.054-1.292-.638l-.348.478Zm2.633 39.645c.216.128.28-.27.501-.162v1.783h-.3l-.201-1.621Zm.501-39.645v-.986l.544.331h.497c.202-.749.649-.243.895 0 1.095-.648 2.379-.122 3.587-.331l.147.508.501-.327-.3.327.245.639c.231-.823.592.371.797-.479l-.64-.669c.2-.505.61-.298.889-.149l.05 1.136c.162-1.877.864-1.06 1.494-1.466v1.318l-.444-.17-.053-.487c-.092.345-.044 1.141-.304.965l-.092-.638c-.296 1.943.657 1.24.99 1.293.25.035.511.385.85.665.523.396 1.215.032 1.592.957-.515 1.284-1.247.154-1.892 0-1.105-.265-2.342.52-3.385-.319l.103-.81c-.342.325-.87.068-1.296.172l-.148-.988h-.452l-.045.987c-.22-.433-.219-1.507-.598-.987l-.048-.81-.202.81c-1.15-.824-1.965.56-3.282-.492Zm4.327 1.309.25-.169-.25.169Zm.55 8.292.395.141-.394-.14Zm1.14 0 .403.141-.402-.14Zm.498 4.21-.197.158.197-.157Zm.053-4.21.443-.17c-.143.21-.218.014-.443.17Zm-5.425 24.69c1.47-.176 2.668-.492 3.928-.655.236-1.458.836-.493 1.296-.325.56.197 1.272.047 1.843.325 1.1.526 2.484-.756 3.684-.163.551.276 1.032.912 1.592.973.227.027.458-.183.698-.155.928.075 1.969.825 2.826.81.3-.007.502-.41.653.48-.923.54-2.817.485-4.177.324l-.05-.96c-.334-.106-.638.082-.995 0-.528-.141-1.16-.897-1.545-.823l-.4.824c.505.945 1.353.783 1.796 1.945-.878.16-1.994-.73-2.94-.986-.435-.115-.869.35-1.142-.324l-.198.485c-.951-.007-1.656.115-2.642-.161l-.398-1.29c-1.356-.149-2.82.904-3.828-.324Zm11.298 2.754.246-.484v.484h-.246Zm1.983 1.782.508-.641a3.867 3.867 0 0 1 3.379.98c-1.1.465-2.554-.014-3.534-.17l-.353-.169ZM66.37 54.918c.163-.047.235-.412.445-.33l-.445.33Zm.495-9.6-.598-.81v.478l.35-.149c-.068.945-.892.757-1.138.481h.438l.255-.81-.102-.318-.546-.162c.691-.054 1.709-.817 2.285 0l-.197.649c.276-.137.703-.69.746.49-.551.285-1.1-.106-1.493.151Zm1.347.655.445-.148-.445.148Zm.396 8.297.246-.33-.246.33Zm.204-9.102-.303-.491h.303v.49Zm-7.269 10.067c1.176-.593 3-.344 3.936-.317l-.104.485c-1.045-.301-2.587.312-3.832-.168Zm4.03-.317c.216.101.559-.209.694.155l-.694-.155Zm.448 6.651c-.11 1.034-.58.654-.896.661-.696 0-1.455-.06-1.995.162-.146-.992-.623-.897-.844-1.628 1.185-1.02 2.412.028 3.734.805Zm-1.145-16.732v.658l-.35-.177.35-1.29c.225.013.51-.16.549.48-.148.236-.3.445-.549.33Zm-.35-.81-.048 1.468h-.3l-.246-.177-.103-.96.698-.33Zm-1.542.65c.157-.258.826-.797.8.818-.27.146-.432-.4-.551.16l-.102-.818-.097.481-.05-.641Zm-.3 0 .2-.319.1 1.467-.246-.17-.055-.978ZM67.41 39.8c-2.648 1.256-5.269-1.58-7.76-2.43.204-1.29.921-.905 1.441-.823.614.127 1.255.694 1.494.322l.197.657c.195.148.084-.703.3-.481.362.904.859.384 1.292.65l.501.64.298-.16c.192.086.424.821.645.815.412-.027 1.086-.034 1.592.81ZM65.626 30.7l-.349-.163.148-.97.2 1.133Zm-.452-.66c-.142.086-.073.87-.298.66l-.051-.66h.35Zm-.549.984c-1.361 1.493-2.874.601-4.127 1.465l-.153-.485-.294.317.344-.804-.296-.98c.909-.749 2-.006 2.684-.33.384 1.1 1.037.31 1.695.493l.049-.493.099.817Zm-.55-21.768c-.565-.322-1.23.042-1.489-.971.461-.629.969.791 1.543.81.235-.088.117.29-.054.161Zm-7.311 22.26c.456.264 1.052-.457 1.291.163.14-.081.075-.85.3-.655l-.103 1.297c-.344.175-.535-.19-.74-.494l-.148.494-.6-.804Zm.497 3.412-.4.167.4-.167Zm-.1-1.303c.203-.318.802-.306 1.145-.318-.092 1.114-.46.318-.748.318h-.396Zm1.843 1.47c-.467.541-.994-.35-1.493-.167-.388-.184.172-.03.197-.325.45.419 1.054-.486 1.296.492Zm-.246-1.788h-.25.25Zm.193-3.1.25.493-.25-.493Zm.8 0h.245l-.394 2.114c-.362-.19-.928.64-1.144-.642l.3-.817.295.817.1-.655.196 1.14c.15-.148.362-1.329.15-1.627l-.096.98-.153-.98.401-.33.05.817.05-.817Zm-4.033 5.53h-.25.25Zm7.02-19.809c-2.343-.446-4.638.817-6.922 0l-.296.318c-.353-.318-.423-.123-.845 0l-.099-.818c-.214.803-.228-.035-.499.155l.5-.48c.59.054 1.392-.2 2.137.325h1.095c1.105-.054 3.57-1.187 4.93.5Zm-8.76-.662-.098.98.098-.98Zm-.201-.163c-.129 1.493-.86 1.155-1.242.65l-.15.653c-.285.076-.705-1.004-.992-.653l-.054.493-.049-.493c-.24-.183-.22.62-.498.823-.406.284-.892-.453-1.188-1.633 1.298-.258 2.54.073 4.173.16Zm-4.276.48c-.313.648-.617-.243-1.045-.155.225-1.222.609-.453.995-.485l.05.64Zm-4.578-.48c-.308.391-.004.373-.55 0l-.05-.648c.276.035.369-.255.6 0v.648Zm-.994-.964-.249.964-.147-.803.396-.161Zm30.055 69.704c.537-1.345 1.323-.405 2.03-.338.968.115 2.022-.392 2.743.98-1.28.734-2.473.803-3.784.485-.336-.082-.89-.06-.99-1.127Zm14.175 2.43.6.163c-.24-.055-.3-.09-.6-.163ZM71.091 73.275c.259-.154.363.068.55-.175l-.55.175Zm1.05.162.295-.162-.296.162Zm3.03-.647.25.31-.25-.31Zm.945.155h.6l.347.155c-.138.157-.274.157-.495 0l-.452-.155Zm2.785.33h.8-.8Zm1.695-.175.546.337-.546-.337Zm1.294-3.565h.745c-.24.137-.555.696-.745 0Zm.647 4.065.698.325-.698-.325Zm.793 0c.323.352 1.151-.169 1.595.642-.31-.29-1.313.303-1.595-.642Zm1.797.493.197.48-.197-.48Zm.197 1.937c.254-.736.548-.255.844 0 .428-.283 1.352.101 1.94.655-.497 1.256-1.416-.154-2.089-.154-.303-.014-.562.315-.695-.5Zm-1.793-6.333c.22-.033.338-.249.499.175l-.2.32-.3-.495Zm-.449.175h-.246v-.337l.103-.162.143.5Zm-7.557-20.814.345-.156-.345.156Zm.747-3.74.296-.15-.296.15Zm4.92 3.916h.2-.2Zm.397-.332h.251-.25Zm-5.867-12.186c.304-.669.906-.23 1.189.154l.152-.479c.383-.23.709-.012 1.191 0 .353 0 1.016-.6 1 .818l-.248-.66c-.365.275-.47.755-.752 0l-.198.66c-.605-.324-1.709.44-2.334-.493Zm2.932-2.276c.434-.079 1.21-.424 1.743.163-.749.242-1 .242-1.743-.163Zm-2.587.163-.242-.163.242.163Zm6.518.655.25-.33-.25.33Zm.157-20.155h.636-.636Zm.14 6.821c.225-.44.574-.218.75.33l-.75-.33Zm7.813-4.708c.17-.377.553-.06.799-.16v.802c-.348.062-.648-.033-.8-.642Zm5.326 6.172c.38-1.722 1.57-.209 1.944.65-.497.573-1.542.194-1.944-.65Zm8.311 5.206c.373.182.752-.318.991.485-.368-.025-.774.041-.991-.485ZM.391 37.857l-.15.971c.537-.357 1.162.292 1.795 1.136-.515.761-1.066-.825-1.549-.487.027 2.16.453 4.39 1.246 4.55h-.551c.216 1.798.348 3.876.996 4.221l-.3.479c.189 2.681-.26 5.415-.594 6.988l.149.83-.149-.168C.97 57.497 1.18 60.36.993 61.9c.114.904.546.79.788 1.303l-.788.31-.053.987.296.485-.4.318c.262 1.687-.216 2.7.197 4.232l-.142.811.241.824-.241.81c.192 1.68.772 3.194.241 5.029.407.352.51 2.16.197 3.086l.352 1.944c-.377-.701-1.237-.276-1.59-.81.133 1.377.604 1.262.942 1.635-.04.992-.573.29-.792.323L.04 84.97c.546.756 1.077-.4 1.591-.17.364.17.63 1.19 1.055 1.312.353.094.602-.622.936.16.276-.364.486-.451.698.164.703-.102 1.854-.008 2.438.803 1.984-.216 3.86.87 5.772-.148l.25.478c.183-.283.429-.345.694-.33-.034 1.322-.432.438-.595.492-.196.067-.383.411-.593.5-.768.283-1.687.081-2.394.148-.957.108-2.084-.607-3.036-.316-.253.08-.605-.548-.94-.663-.351-.094-.692.277-.898.169l-.447-.641c-.467-.311-.943.148-1.4-.17 1.267 2.303 2.878 3.088 4.583 3.742 1.38.526 2.8 1.032 4.227 1.289 1.052.203 2.132.35 3.287 0a21.463 21.463 0 0 0 3.93-1.62 37.675 37.675 0 0 1 5.174-2.282c.452-.136.864-.864 1.291-.96.826-.208 1.79.164 2.492-.654.298 1.168.73.391 1.292.655l.445.641c.38.379.84.379 1.246.662.616.384 1.253 1.047 1.895 1.289 1.06.392 2.142.42 3.188.501 1.117.067 2.35.58 3.475.64 1.424.068 3.217.683 4.426.156-1.783-.67-3.661-1.014-5.37-.971-.362 0-.948-.07-1.288-.326l-.206-.492c-.748.965-1.896-.196-2.682-.486-.478.682-1.178.053-1.598-.163.621-.284 1.47-.202 1.942.163.201-.182.526-.521.795-.479l.206.479.64-.311c.348.012.564.094.806.797l.24-.65c.654.198.968.614 1.65.164.267.776.72.08 1.138.167l.445.48.505-.316c.63.033 1.204.155 1.987.647l.396-.33c1.052.79 1.928.512 3.087.656.441.052.943.444 1.44.484.511.047 1.064-.35 1.444 0 .375.352.953.94 1.492.331l.251.648.448-.323c.726.135 1.733.431 2.587.48.459.033.969.1 1.241-.649-.914.122-1.515.31-2.29-.648-.27.263-.714.601-.893-.148-.291.972-.743-.265-1.093 0-.013-1.283.326-.616.448-.175.688-.683 1.474-.144 2.187-.17.56-.007 1.276.358 1.641-.967-.497-.52-1.607.595-1.74-1.781 1.258.513 2.761.682 3.782 2.43.63.007 1.53.047 2.291.162.422.06 1.168-1.046 1.091.65l.101-.98c2.73-.027 5.609-1.073 8.458-1.303l.2.492.25-.648.595.332c1.357-1.108 3.055-.899 4.677-.663-.403 2.302-1.346-.762-1.748 1.309-.441-.668-.388-.33-.942-.478l-.149.642c-.35-.513-.786-.318-.991.317-.532.276-1.235-1.243-1.543 0 1.04 1.039 2.245.088 3.184.486.353-.742 1.03-.196 1.488-.156l.1-.492.254.648c.201-.627.486-1 .495-2.276a16.192 16.192 0 0 1 5.173-.161c1.98.25 3.78.856 5.922 1.47.647.19 1.35.236 1.892 1.137.323-.94 1.032.803 1.497 0 .413.78.987.43 1.39.971 1.071-.918 2.974 2.356 4.083.337l-.797-1.308c-2.208-.797-3.935-2.648-5.873-3.25 1.066-.411 2.56-.336 3.78-.323-1.33-2.776-3.913-1.08-5.619-1.614.058-1.122.595-.304.844-.5-.585-1.141-1.486-1.175-2.342-1.782l-.05-.823c-.898-.399-1.468.628-2.181.168l.192-.648c-1.37-1.478-3.016-.716-4.428-1.465-.446-.249-.9.102-1.395 0-2.187-.431-4.646-.743-6.913-1.62l-.246-1.304c-.516.035-1.155.243-1.49-.655.375-.64.779-.331 1.19-.478l.3-.487.192.324c.384.062.969-.236 1.499-.324.89-.169 1.655-.324 2.782-.169 1.738.243 3.537.366 5.274.817 3.244.837 6.586 2.694 9.454 2.431.566-.047 1.078-.616 1.596-.493 1.754.459 3.627 2.032 5.375 2.125-2.159-1.835-4.252-1.95-6.322-2.767-.31-.115-.623-.553-.943-.64-.472-.144-.903 0-1.346-.339-.404-.296-1.13-.689-1.544-1.289-.19.48-.425.209-.693.155l-.603-2.106c-.59-.39-.933-.014-1.34.155-.252-.789-.09-1.054.049-2.274.218-.15.52.242.598 0l-.345-.799c.148-.39.512-.065.743-.175l-.053-.654c.614-1.101 1.58.424 2.146 0 .448 1.343 1.474.998 2.288 1.478.463.25.602.79 1.19.649.806-.203 1.901-.513 2.642-.648.57.472 1.14.83 1.69.972l.05-.972c1.917.236 3.574 1.054 5.371 1.788.793.312 1.518 1.224 2.286 1.29 1.6.141 3.359 1.79 5.177.81l-.147-1.788-.197.815-.251-.815c-.589-.042-1.326-.683-1.941-.643l-.251.33-.293-.505c-.49-.351-1.077-.44-1.596-.634-2.395-.939-5.008-2.18-7.464-3.261-3.012-1.31-5.799-3.37-8.907-4.058-.894-1.864-2.23-1.161-3.533-1.46-.536-.12-1.062-.343-1.588-.491-2.084-.616-4.273-1.067-6.322-.825-.803.116-1.524-.641-2.294-.796-.523-.114-1.036.473-1.44-.494.136-.708.452-.803.75-.972l-.152-.964.35-.5c-.905-.23-1.702.298-2.786.162-.991-.108-1.827.364-2.536-.317l-.3.48-.298-.825.25-.951c.687-.663 1.274.201 1.742-.183.316-.243.501-1.235.887-1.127l-.386-.318c.233-.944.646-.243.989-.33.433-.101.865-.62 1.343-.98l-.099-1.775c.3-.695.712-.655 1.046-.655 3.169-.015 6.53.29 9.552 0 .549-.055 1.06-.452 1.538-.486l.55.156c.235-.11.457-.805.75-.805.262-.02.487.353.695.479.736-1.241 1.866.38 2.735 0-.175-1.066-.638-1.066-.947-1.147-1.199-.27-2.546.014-3.63-.636-.66-.403-1.21-1.166-1.843-1.303l-.198-.815c-.66-.879-1.719-.095-2.437-.478l-.35-.658-.198.481c-.675-1.02-1.136-.243-1.99-.331l-.202-.48c-.919.582-1.982-.135-3.033 0l.05-.48-.2.48c-.566.5-1.044-.088-1.489.33-.322.015-.017-.999-.3-1.14l-.197 1.14c-.825-.039-1.49.035-1.986.33-.206.056-.099-.896-.255-.977-.319-.323-.373.498-.692 0l.5-.81c.871-.202 2.06.229 3.028-.169l-.197.817c.197.283.285-.007.495.33v-1.302c.471-.35 1.126.176 1.744 0l-.25.641c.389.843.552.479.895.17l-.493-.17v-.803c.42.284 1.71.142 2.34.162l.192.972.25-.972c.551.391 1.05-.384 1.438 0l.101.48c.186-.67.49-.271.8-.325l-.097.98c.475-.467.987-2.364 1.486-.811l-.346.487c.126.654.343.053.55.491l-.051-.978c.246-.169.216.33.25.487.353-1.351 1.067-.054 1.39-1.142.153.776-.437 1.371-.199 2.443.112-.727.426-.796.352-2.112.272-.035.569 1.363.796 0 .296.575 1.13.944 1.342.155.31 1.263.555-.014.893.817l-.096 1.467c.216-.61.343.457.447-.508h-.25v-1.12c1.32.607 2.701.505 4.228 1.12l-.143 1.478c.236.196.344-.554.242-.97l.476.1.07-.1.014.113c.873.27 1.694 1.045 2.377.526l.098.81c.354-.392.905-.593 1 .662l.246-.985.3.66c.402.23 1.102-.12 1.394.81 2.052-.018 4.233 1.675 6.466 2.758l.349-.32.398.48c1.034-.344 1.836-1.614 2.834-1.614-.507-.831-1.268-.006-1.936-.161-.198-.054-.408-.358-.699-.507-.368-.148-.741-.696-1.143-.973-.412-.262-.851-.121-1.248-.301-.208-.116-.436-.549-.644-.665a45.906 45.906 0 0 0-3.829-1.801c-.302-.115-.59-.615-.892-.797-1.308-.783-2.766-.904-4.138-1.465-.33-.129-.653-.561-.992-.642-.383-.102-.774.034-1.144-.168-1.563-.83-3.076-.985-4.482-1.459-.8-.275-1.13-.209-1.345-2.93-.334-.027-1.174.918-1.587-.317-.531-.264-1.11 1.12-1.444 0-.302.749-.778.486-.945-.493.129-.992.722-.898.995-.487.97-.458 2.116-.458 2.933.487.086-.904.479-.771.7-.81v-.648c-1.089-1.31-3.066-.13-4.426-2.283.938-.04 2.2-.722 3.335-.654.58.047 1.127.613 1.74.654.698.068 1.405.54 2.133.65 2.235.35 4 .815 5.877 1.14l-.847-1.14c-.88.377-1.808-1.136-2.838-.974l-.398.324-.498-.486c-.23-.073-.447.25-.649.162l-.494-.647-.25.317h-.592v-.642l-.452.642-.544-.804c-1.228-.101-2.458-.574-3.685-.493-1.11.082-2.458-1.007-3.488-.817-.334.062-.645.507-.99.493-.617-.007-1.3.19-1.742-.493-2.099-.48-3.834.486-5.621-.168-.915.405-1.897.29-2.737.344l-.05-.816.3.472c.206.072.037-.506.05-.791.574.264 1.405-.79 1.994.156l.147-.473.198.973.197-.825c2.594-.35 4.437-.815 6.765-.33l.197.499c.588.163 1.267-.33 1.793-.317l.403.473.496.163.25-.636c.501.312.953 1.162 1.341 0 .418.136.379.473.793 0 .213-.04.1.696.151.796.206.054-.006-.222.05-.648 1.021-.29 1.945.655 2.888.325-.275-.825-.86-.972-1.346-1.14-2.118-.71-4.527-.104-6.819-.974l-.295-.816c-.756.237-1.524-.634-2.291-.656-.594 0-1.26.797-1.69-.148.531-2.315 1.899.345 2.69-1.303-.457-.27-.833.143-1.201-.493.373-.924.943-.945 1.401-.971.87-.055 1.809.133 2.732.168 2.177.047 4.783.492 6.917.966 1.315.296 2.372.249 3.336 0-1.251-1.134-2.953-.783-4.43-1.622 1.477-.296 3.6.344 5.274 1.297v.655l.1-.493c.165.163.525-.054.795.163.98.836 2.648 1.248 3.882 1.633 1.87.574 3.577 1.6 5.519 2.594 1.447.743 2.691 1.546 3.883 1.775l.452-.635c1.661 1.31 3.302 1.094 4.975 0-.999-.945-1.799.27-2.841-.325.426-.532.943-.094 1.498-.647-1.178-.878-3.533-.54-4.779-1.31-.759-.46-1.809-1.27-2.488-2.1.79-.655 1.847-.674 2.734.317l.4-.317c2.567 1.316 5.603 1.634 7.764-.985-.395-.851-.881.412-1.395.655-1.174.581-2.556.242-3.577.33-.63-.965-2.052-.067-2.639-1.31l-.402.325-.097-.65-.646-.154c-.221-.128.039.317-.103.317-.592-1.235-1.911.304-2.484-1.295-.285.079-.512.344-.6-.495-.148.684-.561.366-.793 0l-.4.332c-.243-.102-.418-1.817-.596-.655l-.201-.81c-1.121-.298-3.115-1.944-4.477-2.423-.124.113.138.978-.102.963-.227 0 .073-.459 0-.963-.315.35-.595-.46-.895-.67l.6-.16c.756.16 1.774.83 2.686.984.424.075.808-.115 1.195-.338.225.082.282.73.496.832.626-.144 1.287-.589 1.64.64l.25-.479c.696.662 1.448 1.215 2.188.96-.242-.63-.709-.642-1.188-.806-3.154-1.019-6.655-3.727-10.053-4.712-.619-.188-1.248.311-1.647-.816.463-.973 1.243-.141 1.694.163.316-.494.836-.29 1.196-.65l.246.487c.637-.527 1.814 1.6 2.338-.156-6.864-3.341-14.263-3.173-21.196-3.579-1.066-.06-2.106-.167-3.134-.97-.664-1.521-1.626-1.263-2.436-1.636-2.412-1.073-4.758-4.644-7.36-4.387 1.128 1.795 3.153.64 3.675 4.387-.62 1.176-1.317-.174-2.187 0-.122-.775-.349-.755-.645-.64-.274-.534-.87-.992-1.193-.48-.353-1.072-1.06-.71-1.596-.662 1.081.459 2.187.865 3.036 2.438-.467.958-1.09.405-1.641.33-2.443-.377-5.384-.54-7.616-1.944.188-1.033 1.037.108 1.142-1.148-.232.582-.386-.533-.542-.64l-.498.154c-1.172-.047-2.667-.406-3.883 0l-.251-.824c-.82.142-1.454-.095-2.084 0l-.202-.64c-.54.06-1.135.574-1.34-.98.293-.546.663-.857.946-1.445.35.088 1.032.062 1.239-.817-2.176.467-4.868.216-7.364.973-2.796.85-5.656 1.086-8.406 1.938-.673.223-1.459.568-2.143.499-.477-.054-.914-.728-1.395-.81-3.31-.675-6.315.304-9.943.311-.888 0-1.793-.29-2.69-.156-2.722.398-5.45.236-7.812-.155-.225-.033-.471-.338-.697-.338-.747 0-1.377.912-2.24 1.148-.045 3.254-1.498-.014-1.745 2.593l.457.176c.026 1.796-.278 3.834-.254 6.177l.344.796h-.398c.195 2.58.348 6.779-.149 8.94l.296.648c-.086.446-.246.702-.492.648-.02 1.506-.623 3.646-.152 4.712-.7.312-.973 7.981-.294 9.757" fill="#100F0D"/></svg>