<svg viewBox="0 0 111 92" fill="none" xmlns="http://www.w3.org/2000/svg" preserveAspectRatio="none">
    <path fill-rule="evenodd" clip-rule="evenodd" d="M1.48967 9.09434L1.73268 9.25605L1.48967 9.09434ZM2.47794 39.1587L2.77808 39.4765L2.47794 39.1587ZM2.87584 39.6393L2.92532 39.1587C3.36293 39.707 4.42688 39.2746 4.86662 40.2816C4.35004 40.4296 3.60684 39.7276 2.87584 39.6393V39.6393ZM16.9079 85.7728C17.2575 85.5572 17.6839 85.5847 17.8017 84.6591L17.9006 85.2945C18.0928 83.8149 18.8382 84.3964 19.3999 83.8425C19.4472 84.4767 19.2866 84.7532 19.5945 84.9699C18.8645 85.4562 17.5805 86.0435 16.9079 85.7728V85.7728ZM19.545 83.9904C20.0077 83.3837 20.4407 83.4903 20.8883 83.6739C20.5133 84.1051 19.8265 84.6797 19.545 83.9904ZM20.043 84.8002L20.4407 84.6591L20.043 84.8002ZM20.8883 85.7728L21.5896 85.2945C21.4974 86.2063 21.1322 85.3748 20.8883 85.7728ZM21.6875 84.4847C21.4707 84.6992 21.4776 84.4698 21.3389 84.159C21.1883 84.5708 21.1883 84.6258 20.9377 84.4847V83.5052C21.7732 83.1875 22.9022 82.2826 23.7232 82.6943C23.4825 83.2414 23.1574 82.6542 23.0285 83.6739L23.3782 83.9904C22.7638 83.9572 22.5108 84.1051 21.9832 84.3219C21.8655 84.5708 21.915 85.3886 21.6875 85.2945V84.4847ZM23.875 38.6667C23.6012 38.8089 23.4078 39.2746 23.2297 38.6667H23.875ZM24.0762 38.1758C24.9544 38.5245 25.4371 37.6126 26.0176 37.8569L25.9635 38.5061C25.7514 38.661 25.5051 38.5657 25.27 38.6667C24.8236 38.8559 24.1301 40.0786 24.0762 38.1758V38.1758ZM24.0762 82.5337L24.1256 82.2011H24.4214L24.0762 82.5337ZM24.2731 83.1875L24.5247 82.2011C25.3337 82.3296 25.934 81.5474 26.7583 81.5542L26.6638 83.3435H26.4132L26.3626 82.3766L26.0625 83.3435L25.8646 82.5337C25.6448 82.6209 25.3831 82.5865 25.3678 83.3435L24.8709 83.5052L24.5732 82.3766L24.6224 83.3435L24.2731 83.1875ZM25.6634 83.6739L25.8162 82.6943L25.6634 83.6739ZM26.8123 81.5542C27.5707 81.5474 28.3226 80.4394 29.0974 81.0736C28.3359 81.7561 27.5146 81.5003 26.866 82.6943L26.8123 81.5542ZM28.1555 82.2011C28.582 82.0394 29.0974 82.0325 29.4471 81.2296L29.7968 81.8777L29.3975 82.0394L29.2998 82.8641C28.959 82.0463 28.5326 83.0052 28.1555 82.2011ZM29.8441 36.7157C30.9355 36.2718 31.7566 36.0069 32.7341 35.5756L32.9781 36.2294C33.3032 35.0216 34.1322 35.9059 34.4729 36.5482C33.1318 37.1687 31.981 36.1021 30.9937 37.3717C30.6595 36.6411 30.2079 37.5461 29.8441 36.7157V36.7157ZM30.4926 41.0983C30.7431 41.0845 30.9212 41.3208 31.0388 41.7463C30.8608 41.4687 30.5121 42.407 30.4926 41.0983ZM31.2401 41.5972L31.5378 41.9149L31.2401 41.5972ZM31.7368 41.9149L32.3393 42.2315C32.114 42.4953 31.8292 42.2991 31.7368 41.9149ZM31.8874 84.9699L31.939 84.4847V84.8002L32.1875 84.9699H31.8874ZM32.2314 84.8002L32.7341 84.9699L32.2314 84.8002ZM32.4382 42.0835C32.6888 42.2716 33.2044 41.611 33.2309 42.5629C32.9239 42.3255 32.6109 42.3932 32.4382 42.0835ZM29.2008 41.4286H28.9007H29.2008ZM28.704 37.5266C28.4226 38.3088 27.7564 38.0599 27.4563 37.6952C27.7423 36.9049 28.2479 37.8019 28.704 37.5266ZM27.3587 37.8569C26.9297 37.5461 26.4736 39.0578 26.2143 37.8569C26.5979 37.6746 27.187 36.9451 27.3587 37.8569ZM20.1409 39.6393L19.7912 39.8011L20.1409 39.6393ZM36.0689 42.7247L36.2615 43.211L36.0689 43.3796V42.7247ZM36.9628 43.0561H37.3068H36.9628ZM37.4059 43.0561C38.0487 43.2787 38.6204 43.3257 39.1492 43.211L39.0513 43.5367C38.6338 43.609 37.7102 43.906 37.4059 43.0561V43.0561ZM39.0513 88.0633L39.4043 87.7307L39.0513 88.0633ZM39.2029 43.3796C39.7746 43.3796 40.3573 43.1307 40.9464 43.5367C40.4969 43.9737 39.5977 44.1905 39.2029 43.3796ZM40.0945 88.0633C40.1606 87.2168 40.7473 87.3327 40.996 87.569V88.0633C40.7454 88.1172 40.3771 88.3122 40.0945 88.0633ZM41.0947 43.8671L41.3455 43.3796L41.0947 43.8671ZM41.2873 13.9701L41.1443 14.7856C40.8507 13.9024 40.1825 15.07 39.6505 14.3004C39.469 14.6847 39.2592 14.4082 38.948 14.6181C38.6524 13.9896 38.6183 14.3612 38.2566 14.3004C38.6204 13.1672 39.2592 13.5985 39.6956 14.1387C40.0792 13.1122 40.9982 14.3544 41.2873 13.9701V13.9701ZM41.3906 13.9701L42.0819 14.6181C41.8237 14.6847 41.5962 14.7386 41.3906 14.6181V13.9701ZM41.8874 43.5367C42.2149 43.4473 42.3138 43.4071 42.535 43.8671C42.2898 43.8132 41.9645 44.3866 41.8874 43.5367ZM42.1918 14.9427V13.9701L42.4316 14.4553C42.7019 13.8417 42.9866 14.1043 43.2824 13.8015L43.3318 14.7856C42.869 14.9427 42.5491 14.5367 42.1918 14.9427ZM43.4295 43.8671C43.8135 44.3327 44.6807 43.3395 44.972 44.358C44.2585 44.5403 43.8474 44.569 43.4295 43.8671ZM43.7276 88.3787L43.9286 87.8867L43.7276 88.3787ZM44.1222 87.8867L44.3728 88.2308L44.1222 87.8867ZM45.0214 44.358C45.2224 44.4738 45.1928 43.8315 45.4181 44.0276L45.4676 44.5071L45.0214 44.358ZM45.5656 44.358L46.013 44.5071L45.5656 44.358ZM45.8163 15.5827H45.1159L45.0708 14.3004C45.7437 14.3004 46.324 14.5241 46.8145 14.4553L46.7076 15.4279C46.3778 15.0563 46.0624 15.132 45.8163 15.5827ZM46.8145 44.1905L47.4574 44.6768L47.609 44.8374C47.1913 44.4738 46.9088 45.1494 46.8145 44.1905ZM46.9088 15.1033L46.8635 14.4553C47.153 14.5769 47.7639 13.9896 47.9587 14.9427L48.0532 14.4553L48.3533 15.4279C47.8257 15.5231 47.4486 15.7055 46.9088 15.1033V15.1033ZM47.6541 44.5071C48.5731 44.1756 49.5072 44.616 50.4463 44.6768C50.4892 46.2562 49.6635 46.0865 49.4031 45.1677L49.0016 45.6552C48.74 44.2043 47.9993 45.6552 47.6541 44.5071ZM50.146 89.8457C50.1056 88.5955 50.3968 89.4465 50.5935 89.0279L50.5441 89.8457H50.146ZM50.7453 45.9729L50.5441 45.318C50.9113 45.1494 51.0607 45.1494 51.3927 44.8374L51.5896 45.6552C51.684 44.5403 52.0766 44.5403 52.2819 45.318C52.5777 44.4807 53.1766 45.0278 53.6824 44.9865L53.7768 46.1335C53.4561 46.1209 53.0933 45.9729 52.7832 46.1335L52.5347 45.1677L52.3843 46.1335C52.0609 45.2641 51.4676 46.1874 51.0927 45.4946L50.7453 45.9729ZM53.379 85.618C53.5946 85.7464 53.6593 85.3484 53.8803 85.4562V87.2386H53.5803L53.379 85.618ZM53.8803 45.9729V44.9865L54.4244 45.318H54.9211C55.1225 44.569 55.5699 45.0748 55.816 45.318C56.911 44.6699 58.1948 45.1964 59.403 44.9865L59.5503 45.4946L60.0514 45.1677L59.7504 45.4946L59.9965 46.1335C60.2275 45.3111 60.588 46.5051 60.7935 45.6552L60.1528 44.9865C60.3538 44.4807 60.7629 44.6883 61.042 44.8374L61.0924 45.9729C61.254 44.0965 61.9565 44.9131 62.5863 44.5071V45.8249L62.1424 45.6552L62.0895 45.1677C61.9973 45.513 62.0446 46.309 61.7851 46.1335L61.6925 45.4946C61.397 47.4376 62.3499 46.7356 62.6831 46.7884C62.9338 46.8228 63.1942 47.1726 63.5329 47.4525C64.0564 47.8493 64.7475 47.4846 65.1246 48.4102C64.61 49.6937 63.8779 48.5639 63.2327 48.4102C62.1281 48.1453 60.8914 48.9298 59.8482 48.0914L59.9514 47.2816C59.6086 47.6062 59.0808 47.3493 58.6554 47.4525L58.5072 46.4649H58.0551L58.0102 47.4525C57.7894 47.0189 57.7913 45.9454 57.4122 46.4649L57.364 45.6552L57.1618 46.4649C56.0117 45.6414 55.1973 47.0247 53.8803 45.9729V45.9729ZM58.2069 47.2816L58.4576 47.113L58.2069 47.2816ZM58.7576 55.5742L59.1522 55.7153L58.7576 55.5742ZM59.8977 55.5742L60.2999 55.7153L59.8977 55.5742ZM60.3946 59.7847L60.1977 59.9419L60.3946 59.7847ZM60.4484 55.5742L60.8914 55.4033C60.7484 55.6143 60.6725 55.4182 60.4484 55.5742ZM55.0235 80.2639C56.4934 80.0884 57.6913 79.7718 58.9512 79.609C59.1865 78.1512 59.7867 79.1158 60.2473 79.2844C60.8079 79.4805 61.5192 79.3314 62.0895 79.609C63.1899 80.1354 64.5737 78.8531 65.7742 79.4461C66.3251 79.7225 66.8064 80.3579 67.3661 80.4187C67.5926 80.4463 67.8244 80.2364 68.0641 80.2639C68.9917 80.3385 70.0327 81.0886 70.8902 81.0736C71.1893 81.0668 71.3916 80.6631 71.5431 81.5542C70.6199 82.0933 68.7258 82.0394 67.3661 81.8777L67.3167 80.9188C66.9825 80.8122 66.6779 81.0003 66.3206 80.9188C65.793 80.7766 65.1609 80.0208 64.7761 80.0953L64.3751 80.9188C64.8807 81.8639 65.7291 81.7022 66.1723 82.8641C65.2941 83.0247 64.1784 82.1346 63.2327 81.8777C62.7965 81.763 62.3633 82.2287 62.0895 81.5542L61.8916 82.0394C60.9408 82.0325 60.2364 82.1541 59.2503 81.8777L58.8521 80.5873C57.4958 80.4394 56.0327 81.4923 55.0235 80.2639V80.2639ZM66.3206 83.0178L66.5669 82.5337V83.0178H66.3206ZM68.3037 84.8002L68.8117 84.159C69.9449 83.9365 71.243 84.2405 72.1906 85.1385C71.0916 85.6042 69.6372 85.1248 68.6575 84.9699L68.3037 84.8002ZM66.37 54.9181C66.5328 54.8711 66.6053 54.5064 66.8152 54.5878L66.37 54.9181ZM66.8646 45.318L66.2668 44.5071V44.9865L66.6163 44.8374C66.5493 45.7825 65.725 45.5944 65.4786 45.318H65.9172L66.1723 44.5071L66.0701 44.1905L65.5236 44.0276C66.2151 43.9737 67.2329 43.211 67.8089 44.0276L67.612 44.6768C67.8882 44.5403 68.3147 43.9875 68.3575 45.1677C67.807 45.4522 67.2582 45.061 66.8646 45.318V45.318ZM68.2124 45.9729L68.6575 45.8249L68.2124 45.9729ZM68.6081 54.2701L68.8544 53.9398L68.6081 54.2701ZM68.8117 45.1677L68.5093 44.6768H68.8117V45.1677ZM61.5431 55.2347C62.7194 54.6417 64.5422 54.8906 65.4786 54.9181L65.3753 55.4033C64.3298 55.1017 62.7877 55.7153 61.5431 55.2347ZM65.5732 54.9181C65.7887 55.0191 66.1315 54.7094 66.2668 55.073L65.5732 54.9181ZM66.0205 61.5694C65.9107 62.6028 65.4402 62.2232 65.1246 62.2301C64.4288 62.2301 63.6704 62.1704 63.1305 62.3918C62.9844 61.3997 62.5074 61.4949 62.2864 60.7642C63.4714 59.7446 64.6981 60.7918 66.0205 61.5694V61.5694ZM64.8762 44.8374V45.4946L64.5267 45.318L64.8762 44.0276C65.1015 44.0414 65.3863 43.8671 65.4249 44.5071C65.2774 44.7445 65.1246 44.9532 64.8762 44.8374ZM64.5267 44.0276L64.4784 45.4946H64.1784L63.932 45.318L63.8287 44.358L64.5267 44.0276ZM62.9844 44.6768C63.1415 44.4188 63.8101 43.8797 63.7836 45.4946C63.5141 45.6414 63.3515 45.0943 63.2327 45.6552L63.1305 44.8374L63.0338 45.318L62.9844 44.6768ZM62.6831 44.6768L62.8842 44.358L62.9844 45.8249L62.7381 45.6552L62.6831 44.6768ZM67.4112 39.8011C64.763 41.057 62.1424 38.2217 59.6513 37.3717C59.8547 36.0814 60.5725 36.4656 61.0924 36.5482C61.7059 36.6755 62.3468 37.2422 62.5863 36.8705L62.7832 37.5266C62.9777 37.6746 62.8667 36.8235 63.0832 37.046C63.4451 37.9498 63.9418 37.4303 64.3751 37.6952L64.8762 38.3364L65.1741 38.1758C65.3665 38.2618 65.5983 38.997 65.8195 38.9913C66.2306 38.9638 66.9054 38.9569 67.4112 39.8011ZM65.6257 30.6998L65.2774 30.537L65.4249 29.5666L65.6257 30.6998ZM65.1741 30.0392C65.0323 30.1263 65.1015 30.9109 64.8762 30.6998L64.8246 30.0392H65.1741ZM64.6255 31.0244C63.2637 32.5166 61.751 31.6254 60.498 32.4891L60.345 32.0039L60.0514 32.3205L60.3946 31.5165L60.0987 30.537C61.0079 29.788 62.0995 30.5312 62.7832 30.2066C63.1668 31.3077 63.8199 30.5175 64.4784 30.6998L64.5267 30.2066L64.6255 31.0244ZM64.075 9.25605C63.5098 8.93375 62.8459 9.29849 62.5863 8.28457C63.047 7.65603 63.5549 9.07599 64.1287 9.09434C64.3639 9.00717 64.2462 9.38451 64.075 9.25605V9.25605ZM56.7637 31.5165C57.2198 31.7803 57.8157 31.0588 58.0551 31.6793C58.1948 31.5979 58.13 30.8283 58.3554 31.0244L58.252 32.3205C57.908 32.496 57.7166 32.1313 57.5111 31.8273L57.364 32.3205L56.7637 31.5165ZM57.2606 34.9276L56.8617 35.095L57.2606 34.9276ZM57.1618 33.6246C57.364 33.3069 57.9629 33.3195 58.306 33.3069C58.2136 34.4206 57.8455 33.6246 57.5583 33.6246H57.1618ZM59.0039 35.095C58.5368 35.6364 58.0102 34.7441 57.5111 34.9276C57.1232 34.7441 57.6827 34.8989 57.7078 34.603C58.1585 35.0216 58.7621 34.1167 59.0039 35.095V35.095ZM58.7576 33.3069H58.5072H58.7576ZM58.9512 30.2066L59.2018 30.6998L58.9512 30.2066ZM59.7504 30.2066H59.9965L59.6019 32.3205C59.2403 32.1313 58.6741 32.9617 58.4576 31.6793L58.7576 30.8616L59.0534 31.6793L59.1522 31.0244L59.3491 32.1645C59.4997 32.0165 59.7108 30.8352 59.4997 30.537L59.403 31.5165L59.2503 30.537L59.6513 30.2066L59.7009 31.0244L59.7504 30.2066ZM55.7182 35.7373H55.4677H55.7182ZM62.7381 15.928C60.3946 15.4818 58.1002 16.7446 55.816 15.928L55.5203 16.2457C55.1674 15.928 55.0972 16.123 54.6752 16.2457L54.5761 15.4279C54.3618 16.2308 54.3477 15.3935 54.077 15.5827L54.5761 15.1033C55.1674 15.1572 55.969 14.9026 56.7142 15.4279H57.809C58.9139 15.374 61.3784 14.2408 62.7381 15.928ZM53.9782 15.2662L53.8803 16.2457L53.9782 15.2662ZM53.7768 15.1033C53.6483 16.5955 52.9162 16.2583 52.5347 15.7525L52.3843 16.4063C52.0995 16.482 51.6797 15.4015 51.3927 15.7525L51.3388 16.2457L51.2904 15.7525C51.0497 15.5701 51.0695 16.373 50.7924 16.576C50.3858 16.8605 49.8999 16.123 49.6041 14.9427C50.9024 14.6847 52.1445 15.0161 53.7768 15.1033ZM49.5008 15.5827C49.1885 16.2308 48.8842 15.3396 48.4556 15.4279C48.681 14.2064 49.0646 14.9749 49.4513 14.9427L49.5008 15.5827ZM44.9235 15.1033C44.6146 15.4944 44.9192 15.4761 44.3728 15.1033L44.3234 14.4553C44.5993 14.4897 44.6917 14.1995 44.9235 14.4553V15.1033ZM43.9286 14.1387L43.6803 15.1033L43.533 14.3004L43.9286 14.1387ZM73.9836 83.8425C74.5211 82.4982 75.307 83.4376 76.014 83.5052C76.9824 83.6199 78.0364 83.113 78.7565 84.4847C77.477 85.2188 76.2843 85.2876 74.973 84.9699C74.6366 84.8885 74.0836 84.9091 73.9836 83.8425ZM88.1585 86.2729L88.7586 86.4357C88.519 86.3807 88.4586 86.3463 88.1585 86.2729ZM71.0916 73.2754C71.3509 73.1205 71.4554 73.3431 71.6421 73.0999L71.0916 73.2754ZM72.1412 73.4371L72.4368 73.2754L72.1412 73.4371ZM75.1719 72.7902L75.4225 73.0999L75.1719 72.7902ZM76.1174 72.9451H76.7163L77.0636 73.0999C76.9261 73.257 76.7898 73.257 76.569 73.0999L76.1174 72.9451ZM78.9017 73.2754H79.7028H78.9017ZM80.5965 73.0999L81.1431 73.4371L80.5965 73.0999ZM81.8905 69.5351H82.6358C82.3961 69.6716 82.0806 70.2313 81.8905 69.5351ZM82.5379 73.6L83.2359 73.9246L82.5379 73.6ZM83.3306 73.6C83.6536 73.9521 84.4824 73.4314 84.9257 74.2423C84.6156 73.9521 83.613 74.5451 83.3306 73.6ZM85.1277 74.0932L85.3246 74.5726L85.1277 74.0932ZM85.3246 76.0304C85.5795 75.2941 85.8731 75.7746 86.1689 76.0304C86.5974 75.7471 87.5209 76.1313 88.1089 76.6853C87.6119 77.9413 86.6931 76.5305 86.0204 76.5305C85.7168 76.5167 85.4576 76.8459 85.3246 76.0304V76.0304ZM83.5317 69.6968C83.7527 69.6636 83.8702 69.448 84.0308 69.8723L83.8317 70.1912L83.5317 69.6968ZM83.0831 69.8723H82.8368V69.5351L82.9402 69.3734L83.0831 69.8723ZM75.5259 49.0583L75.871 48.9023L75.5259 49.0583ZM76.2733 45.318L76.569 45.1677L76.2733 45.318ZM81.1925 49.2337H81.3936H81.1925ZM81.5903 48.9023H81.8411H81.5903ZM75.7226 36.7157C76.0269 36.047 76.6294 36.4863 76.912 36.8705L77.0636 36.3911C77.4472 36.1617 77.7726 36.3785 78.2553 36.3911C78.6081 36.3911 79.2712 35.7912 79.2557 37.2089L79.0072 36.5482C78.6424 36.8235 78.5379 37.3041 78.2553 36.5482L78.0574 37.2089C77.4516 36.8854 76.348 37.6482 75.7226 36.7157V36.7157ZM78.6553 34.4401C79.0886 34.361 79.8656 34.0157 80.3977 34.603C79.6491 34.845 79.3984 34.845 78.6553 34.4401ZM76.0677 34.603L75.8259 34.4401L76.0677 34.603ZM82.5862 35.2579L82.8368 34.9276L82.5862 35.2579ZM82.7434 15.1033H83.3789H82.7434ZM82.8821 21.9243C83.1075 21.4839 83.4567 21.7064 83.6338 22.2547L82.8821 21.9243ZM90.6957 17.216C90.8669 16.8387 91.2486 17.1564 91.4945 17.0555V17.8583C91.1472 17.9203 90.8471 17.8251 90.6957 17.216ZM96.0215 23.3879C96.4016 21.6663 97.5911 23.1792 97.9661 24.0371C97.4691 24.6106 96.4238 24.2321 96.0215 23.3879ZM104.333 28.594C104.706 28.7764 105.085 28.2763 105.324 29.0792C104.956 29.0539 104.55 29.1205 104.333 28.594ZM0.391476 37.8569L0.240935 38.8284C0.778421 38.4706 1.40279 39.1197 2.03596 39.9639C1.52054 40.7255 0.969716 39.1392 0.487163 39.4765C0.513581 41.6373 0.940141 43.867 1.73268 44.0276H1.18194C1.39843 45.8249 1.53034 47.9032 2.17785 48.2485L1.87769 48.7268C2.06677 51.4084 1.6183 54.1416 1.28419 55.7153L1.43252 56.5457L1.28419 56.3771C0.969716 57.4965 1.1797 60.3594 0.99278 61.8997C1.10708 62.8036 1.53915 62.69 1.781 63.2027L0.99278 63.5124L0.940141 64.4999L1.23571 64.9851L0.836806 65.3028C1.09843 66.99 0.620152 68.0039 1.03345 69.5351L0.890582 70.346L1.13236 71.1696L0.890582 71.9793C1.08303 73.6608 1.66341 75.1736 1.13236 77.0088C1.53915 77.3609 1.6425 79.1697 1.32916 80.0953L1.68096 82.0394C1.30388 81.3375 0.444252 81.763 0.0914721 81.2296C0.224461 82.606 0.694992 82.4913 1.03345 82.8641C0.99278 83.8562 0.459648 83.1543 0.240935 83.1875L0.0397555 84.9699C0.586067 85.7258 1.11712 84.5708 1.63146 84.8002C1.99536 84.9699 2.26136 85.9896 2.68561 86.1123C3.03856 86.2064 3.28807 85.4895 3.62216 86.2729C3.8982 85.9081 4.1081 85.821 4.3203 86.4357C5.02273 86.3337 6.17356 86.4277 6.75839 87.2386C8.74151 87.023 10.6179 88.1092 12.5296 87.0907L12.7802 87.569C12.9627 87.2857 13.2089 87.2237 13.4738 87.2386C13.4396 88.5611 13.0418 87.6768 12.8791 87.7307C12.6834 87.7983 12.4955 88.1424 12.2855 88.2308C11.5182 88.5141 10.5992 88.3122 9.8924 88.3787C8.93494 88.4865 7.80825 87.772 6.85631 88.0633C6.60341 88.1425 6.25055 87.5151 5.91646 87.4004C5.56459 87.3063 5.22391 87.6768 5.01829 87.569L4.57089 86.9278C4.10365 86.617 3.62777 87.0758 3.17155 86.758C4.4379 89.0612 6.04937 89.8457 7.75432 90.4995C9.13397 91.0259 10.5541 91.5318 11.981 91.7887C13.033 91.9917 14.1125 92.1396 15.2678 91.7887C16.5781 91.3907 17.8555 90.8848 19.1987 90.1691C20.962 89.2286 22.7394 88.4602 24.3717 87.8867C24.8236 87.7513 25.2358 87.023 25.6634 86.9278C26.4889 86.719 27.4532 87.0907 28.1555 86.2729C28.4534 87.4405 28.8854 86.664 29.4471 86.9278L29.8923 87.569C30.2714 87.9475 30.7321 87.9475 31.1379 88.2308C31.7545 88.615 32.3909 89.2779 33.033 89.52C34.0938 89.9122 35.1752 89.9397 36.2207 90.0212C37.3376 90.0877 38.5708 90.6015 39.6956 90.6612C41.1202 90.7289 42.9129 91.3437 44.1222 90.8172C42.3393 90.1474 40.4606 89.8032 38.7512 89.8457C38.3896 89.8457 37.8036 89.7769 37.4639 89.52L37.2584 89.0279C36.5098 89.9925 35.3621 88.8318 34.5762 88.5416C34.0981 89.224 33.3978 88.5955 32.9781 88.3787C33.599 88.0954 34.4476 88.1769 34.9204 88.5416C35.1215 88.3604 35.4458 88.0209 35.7151 88.0633L35.9206 88.5416L36.5616 88.2308C36.9089 88.2434 37.1254 88.3248 37.3674 89.0279L37.6069 88.3787C38.2609 88.576 38.5753 88.9923 39.2568 88.5416C39.5242 89.3181 39.977 88.6219 40.3947 88.709L40.8399 89.1896L41.3455 88.8731C41.9753 88.9063 42.5491 89.0279 43.3318 89.52L43.7276 89.1896C44.7798 89.9799 45.6556 89.7023 46.8145 89.8457C47.256 89.8984 47.7575 90.2896 48.2542 90.3297C48.7665 90.3768 49.3195 89.9799 49.6988 90.3297C50.0736 90.6818 50.6516 91.2691 51.1915 90.6612L51.4422 91.3092L51.8897 90.9858C52.6161 91.1211 53.6232 91.417 54.4773 91.4664C54.9356 91.4985 55.4455 91.5662 55.7182 90.8172C54.8036 90.9388 54.2035 91.1269 53.4275 90.1691C53.158 90.4318 52.7142 90.7701 52.5347 90.0212C52.2435 90.9927 51.7916 89.7562 51.4422 90.0212C51.429 88.7377 51.7677 89.4052 51.8897 89.8457C52.5777 89.1632 53.3635 89.7023 54.077 89.6759C54.6367 89.6691 55.3534 90.0338 55.7182 88.709C55.2214 88.1895 54.1113 89.3043 53.9782 86.9278C55.2357 87.4405 56.7395 87.6102 57.7598 89.3582C58.3895 89.3651 59.2899 89.4053 60.0514 89.52C60.4735 89.5807 61.2189 88.4739 61.142 90.1691L61.243 89.1896C63.9724 89.1632 66.8517 88.1172 69.7009 87.8867L69.9019 88.3787L70.1504 87.7307L70.746 88.0633C72.1028 86.9553 73.8012 87.1641 75.4225 87.4004C75.0203 89.7023 74.0769 86.6376 73.6747 88.709C73.2338 88.0415 73.2866 88.3787 72.7327 88.2308L72.5841 88.8731C72.2348 88.3604 71.7982 88.5553 71.5927 89.1896C71.0606 89.466 70.3583 87.9474 70.0504 89.1896C71.0892 90.2288 72.295 89.2779 73.2338 89.6759C73.5866 88.9338 74.2638 89.4798 74.7222 89.52L74.8212 89.0279L75.0763 89.6759C75.2772 89.0485 75.5621 88.6769 75.5708 87.4004C77.124 87.1033 78.7995 86.9943 80.7438 87.2386C82.7236 87.4887 84.5232 88.0954 86.6657 88.709C87.313 88.8983 88.0155 88.9453 88.5576 89.8457C88.8806 88.9063 89.5896 90.6486 90.0548 89.8457C90.468 90.6268 91.0419 90.2758 91.4453 90.8172C92.5161 89.8985 94.4189 93.1731 95.5277 91.1544L94.7309 89.8457C92.5226 89.0485 90.7955 87.1985 88.8577 86.5963C89.924 86.1846 91.4178 86.2603 92.6381 86.2729C91.3078 83.4972 88.7247 85.1924 87.0195 84.6591C87.0767 83.5373 87.6143 84.3551 87.8628 84.159C87.2779 83.0178 86.3766 82.9845 85.5213 82.3766L85.4717 81.5542C84.5727 81.1551 84.0033 82.1816 83.2898 81.7217L83.4822 81.0736C82.1116 79.5963 80.4657 80.3579 79.0544 79.609C78.6081 79.3601 78.1543 79.711 77.6594 79.609C75.4721 79.1777 73.013 78.8657 70.746 77.9895L70.5001 76.6853C69.9835 76.7197 69.3447 76.9285 69.0104 76.0304C69.3852 75.3893 69.7888 75.699 70.2 75.5521L70.5001 75.0647L70.6923 75.3893C71.0761 75.4512 71.6607 75.153 72.1906 75.0647C73.081 74.8961 73.8463 74.7412 74.973 74.8961C76.7106 75.1392 78.5104 75.2619 80.247 75.7127C83.4911 76.55 86.8327 78.407 89.7008 78.1443C90.2668 78.0973 90.7791 77.5284 91.2968 77.6511C93.0511 78.1099 94.9244 79.6835 96.6721 79.7764C94.5134 77.9413 92.4204 77.8266 90.3503 77.0088C90.0393 76.8941 89.7271 76.4559 89.4072 76.3688C88.9346 76.2254 88.5035 76.3688 88.0605 76.0304C87.657 75.7345 86.9318 75.3411 86.5172 74.7412C86.327 75.2218 86.0918 74.95 85.8237 74.8961L85.2212 72.7902C84.6309 72.3991 84.2881 72.7765 83.8802 72.9451C83.6295 72.156 83.7913 71.891 83.9296 70.6706C84.1485 70.5215 84.4505 70.9126 84.5276 70.6706L84.1826 69.8723C84.3309 69.4812 84.6946 69.807 84.9257 69.6968L84.8727 69.0431C85.4872 67.942 86.4536 69.4675 87.0195 69.0431C87.467 70.3862 88.4925 70.0409 89.3072 70.5215C89.7698 70.7716 89.9095 71.3106 90.4978 71.1696C91.3035 70.9666 92.3982 70.6569 93.1392 70.5215C93.7097 70.9941 94.2792 71.3519 94.8299 71.4941L94.8795 70.5215C96.7964 70.7578 98.453 71.5756 100.25 72.3097C101.043 72.6216 101.768 73.5335 102.536 73.6C104.136 73.7411 105.895 75.3893 107.713 74.4098L107.566 72.6216L107.369 73.4371L107.118 72.6216C106.529 72.5803 105.792 71.9392 105.177 71.9793L104.926 72.3097L104.633 71.8038C104.143 71.4529 103.556 71.3646 103.037 71.1696C100.642 70.2313 98.0288 68.9892 95.573 67.9087C92.561 66.5989 89.7743 64.5389 86.6657 63.8507C85.7719 61.9869 84.4354 62.69 83.1327 62.3918C82.5973 62.2702 82.0708 62.0477 81.5454 61.8997C79.461 61.2838 77.2715 60.8331 75.2234 61.0751C74.4199 61.1909 73.699 60.4339 72.9294 60.2791C72.406 60.1655 71.8927 60.7516 71.4893 59.7847C71.6246 59.077 71.9412 58.9819 72.2389 58.8132L72.0873 57.8486L72.4368 57.3486C71.5323 57.1192 70.735 57.6468 69.6513 57.5114C68.6599 57.4025 67.8244 57.875 67.1153 57.1937L66.8152 57.6731L66.5173 56.8485L66.7679 55.8976C67.454 55.2347 68.0409 56.0995 68.5093 55.7153C68.8246 55.4721 69.0104 54.48 69.3963 54.5878L69.0104 54.2701C69.2426 53.3261 69.6558 54.0269 69.9986 53.9398C70.4318 53.8388 70.8639 53.3193 71.342 52.9603L71.243 51.1847C71.5431 50.4897 71.9545 50.5298 72.2885 50.5298C75.4576 50.5149 78.8181 50.82 81.8411 50.5298C82.3897 50.4748 82.9017 50.0779 83.3789 50.0435L83.9296 50.1995C84.1637 50.0905 84.3858 49.3955 84.6793 49.3955C84.941 49.3748 85.1663 49.7476 85.374 49.8737C86.1104 48.6327 87.2395 50.2534 88.1089 49.8737C87.9343 48.8082 87.4713 48.8082 87.1624 48.7268C85.9632 48.4572 84.6156 48.7406 83.5317 48.0914C82.8721 47.6876 82.3212 46.9249 81.6893 46.7884L81.4914 45.9729C80.8319 45.0943 79.7722 45.8777 79.0544 45.4946L78.7048 44.8374L78.5059 45.318C77.8308 44.2983 77.3704 45.0748 76.5151 44.9865L76.3141 44.5071C75.395 45.0886 74.3321 44.3717 73.2811 44.5071L73.3317 44.0276L73.1304 44.5071C72.5654 45.0072 72.0873 44.4187 71.6421 44.8374C71.3201 44.8523 71.6246 43.8384 71.342 43.6973L71.1453 44.8374C70.3199 44.7984 69.6558 44.8718 69.159 45.1677C68.9533 45.2228 69.06 44.2708 68.9039 44.1905C68.5852 43.8671 68.531 44.6883 68.2124 44.1905L68.7115 43.3796C69.5832 43.1777 70.7715 43.609 71.7398 43.211L71.5431 44.0276C71.7398 44.3109 71.828 44.0208 72.0379 44.358V43.0561C72.5093 42.7052 73.1644 43.2316 73.7823 43.0561L73.5327 43.6973C73.9208 44.5403 74.0836 44.1756 74.4266 43.8671L73.9339 43.6973V42.8944C74.354 43.1777 75.6433 43.0355 76.2733 43.0561L76.4657 44.0276L76.7163 43.0561C77.267 43.4473 77.7661 42.6719 78.1542 43.0561L78.2553 43.5367C78.441 42.8669 78.7456 43.2649 79.0544 43.211L78.9578 44.1905C79.4335 43.7237 79.9448 41.8266 80.4438 43.3796L80.0976 43.8671C80.2241 44.5208 80.4406 43.9198 80.6485 44.358L80.5965 43.3796C80.8429 43.211 80.8132 43.7099 80.8472 43.8671C81.2002 42.5159 81.9137 43.8132 82.2379 42.7247C82.3897 43.5012 81.8003 44.0965 82.038 45.1677C82.15 44.4406 82.4642 44.3717 82.3896 43.0561C82.6623 43.0206 82.9588 44.4187 83.1865 43.0561C83.4822 43.6308 84.3156 44.0001 84.5276 43.211C84.8386 44.4738 85.0828 43.1972 85.4215 44.0276L85.3246 45.4946C85.5411 44.8844 85.6676 45.9523 85.7719 44.9865H85.5213V43.8671C86.8414 44.4738 88.2232 44.3717 89.75 44.9865L89.6074 46.4649C89.8426 46.6611 89.9514 45.911 89.8493 45.4946L90.325 45.5944L90.3955 45.4946L90.4086 45.6082C91.2825 45.8777 92.1027 46.6531 92.7864 46.1335L92.884 46.9444C93.2382 46.5521 93.7889 46.3514 93.8834 47.6062L94.1296 46.6209L94.4298 47.2816C94.8321 47.511 95.5322 47.1612 95.8237 48.0914C97.8759 48.073 100.057 49.7659 102.29 50.8487L102.639 50.5298L103.037 51.0093C104.071 50.6652 104.873 49.3955 105.871 49.3955C105.364 48.5639 104.603 49.3886 103.935 49.2337C103.737 49.1798 103.527 48.8759 103.236 48.7268C102.868 48.5788 102.495 48.0306 102.093 47.7541C101.681 47.4915 101.242 47.6326 100.845 47.4525C100.637 47.3366 100.409 46.9042 100.201 46.7884C98.9541 46.1209 97.6856 45.5416 96.372 44.9865C96.0698 44.8718 95.7829 44.3717 95.4797 44.1905C94.1725 43.4071 92.7138 43.2856 91.3419 42.7247C91.0121 42.5962 90.6889 42.1638 90.3503 42.0835C89.9667 41.9814 89.5755 42.1168 89.206 41.9149C87.6429 41.0845 86.1302 40.9297 84.7243 40.456C83.9231 40.1807 83.5932 40.2472 83.3789 37.5266C83.0447 37.4991 82.2049 38.4442 81.7917 37.2089C81.2606 36.9451 80.6824 38.3295 80.3482 37.2089C80.046 37.9579 79.57 37.6952 79.4027 36.7157C79.5316 35.7236 80.1251 35.8176 80.3977 36.2294C81.3673 35.7706 82.5138 35.7706 83.3306 36.7157C83.4173 35.8119 83.81 35.9449 84.0308 35.9059V35.2579C82.9425 33.948 80.9648 35.1283 79.6051 32.9754C80.5428 32.9341 81.8046 32.2528 82.9402 32.3205C83.5207 32.3675 84.0669 32.9341 84.6793 32.9754C85.3783 33.0431 86.0851 33.5145 86.8129 33.6246C89.0477 33.9744 90.8132 34.4401 92.6897 34.7647L91.8432 33.6246C90.9626 34.002 90.0348 32.4891 89.005 32.6508L88.6068 32.9754L88.1089 32.4891C87.8781 32.4157 87.6615 32.7391 87.4603 32.6508L86.9657 32.0039L86.7151 32.3205H86.1238V31.6793L85.6719 32.3205L85.1277 31.5165C83.9 31.4155 82.6699 30.943 81.4432 31.0244C80.3327 31.1059 78.9852 30.0174 77.9552 30.2066C77.621 30.2686 77.31 30.7136 76.9658 30.6998C76.348 30.6929 75.6653 30.8891 75.2234 30.2066C73.124 29.7272 71.3893 30.6929 69.6019 30.0392C68.6874 30.444 67.7048 30.3294 66.8646 30.3833L66.8152 29.5666L67.1153 30.0392C67.3208 30.1114 67.1517 29.5334 67.1649 29.2478C67.7387 29.5116 68.5697 28.4586 69.159 29.4037L69.3063 28.9312L69.504 29.9038L69.7009 29.0792C72.295 28.7293 74.1375 28.2637 76.4657 28.7488L76.6633 29.2478C77.2505 29.4106 77.9297 28.9174 78.4563 28.9312L78.8587 29.4037L79.3545 29.5666L79.6051 28.9312C80.1062 29.2432 80.5581 30.0931 80.9462 28.9312C81.364 29.0665 81.3245 29.4038 81.7387 28.9312C81.9521 28.8911 81.8388 29.6274 81.8905 29.7272C82.0959 29.7811 81.8839 29.5047 81.94 29.0792C82.9611 28.789 83.8847 29.7341 84.8276 29.4037C84.5529 28.5791 83.968 28.4323 83.4822 28.2637C81.364 27.5537 78.9554 28.1604 76.6633 27.2899L76.3678 26.4744C75.6116 26.7107 74.8441 25.8401 74.0769 25.8183C73.4825 25.8183 72.8163 26.6155 72.3874 25.6704C72.9184 23.3546 74.2858 26.0145 75.0763 24.3674C74.62 24.0967 74.244 24.5096 73.8759 23.8742C74.2485 22.9497 74.8188 22.9291 75.2772 22.9027C76.147 22.8477 77.0856 23.0358 78.0091 23.0713C80.1855 23.1183 82.7919 23.5634 84.9257 24.0371C86.2412 24.333 87.2977 24.286 88.2617 24.0371C87.0108 22.9027 85.3093 23.2537 83.8317 22.4153C85.3093 22.1193 87.4329 22.7594 89.106 23.7125V24.3674L89.206 23.8742C89.3709 24.0371 89.7314 23.8203 90.0009 24.0371C90.9803 24.8732 92.6489 25.285 93.8834 25.6704C95.7531 26.2439 97.4603 27.2704 99.4015 28.2637C100.849 29.0069 102.093 29.8098 103.285 30.0392L103.737 29.4037C105.398 30.7136 107.039 30.498 108.712 29.4037C107.713 28.4586 106.913 29.6744 105.871 29.0792C106.297 28.547 106.814 28.9851 107.369 28.4323C106.191 27.5537 103.836 27.892 102.59 27.1213C101.831 26.6625 100.781 25.8527 100.102 25.0223C100.892 24.3674 101.949 24.3479 102.836 25.3389L103.236 25.0223C105.803 26.3379 108.839 26.6556 111 24.0371C110.605 23.186 110.119 24.4488 109.605 24.692C108.431 25.2735 107.049 24.934 106.028 25.0223C105.398 24.0566 103.976 24.9547 103.389 23.7125L102.987 24.0371L102.89 23.3879L102.244 23.2331C102.023 23.1046 102.283 23.5496 102.141 23.5496C101.549 22.3155 100.23 23.8536 99.6566 22.2547C99.3721 22.3338 99.1446 22.5988 99.0565 21.7603C98.9092 22.4439 98.496 22.1262 98.264 21.7603L97.8637 22.0918C97.6209 21.9897 97.4462 20.275 97.2681 21.4369L97.0667 20.6271C95.9456 20.3289 93.9515 18.683 92.5896 18.2036C92.4665 18.3171 92.7281 19.1819 92.4883 19.167C92.261 19.167 92.561 18.7082 92.4883 18.2036C92.1729 18.5534 91.8926 17.7436 91.5926 17.5349L92.1927 17.3732C92.9489 17.5349 93.967 18.2036 94.8795 18.3584C95.3035 18.433 95.6872 18.2426 96.0741 18.0201C96.2994 18.1015 96.3555 18.7495 96.5699 18.8516C97.1955 18.7082 97.8572 18.2632 98.21 19.4928L98.4607 19.0133C99.1555 19.6751 99.9075 20.228 100.648 19.9722C100.406 19.3437 99.939 19.331 99.4599 19.167C96.3061 18.1485 92.805 15.4405 89.4072 14.4553C88.7883 14.2672 88.1585 14.7661 87.7604 13.6386C88.2232 12.666 89.0026 13.4975 89.4545 13.8015C89.7698 13.3083 90.2899 13.5113 90.6504 13.1523L90.8965 13.6386C91.5331 13.1122 92.7095 15.2398 93.2337 13.4827C86.3699 10.1415 78.9709 10.3101 72.0379 9.90408C70.9716 9.84444 69.9317 9.73663 68.9039 8.93375C68.2398 7.41286 67.278 7.67093 66.4679 7.29817C64.0564 6.2246 61.7104 2.65408 59.1073 2.911C60.2364 4.70601 62.2611 3.55101 62.7832 7.29817C62.1621 8.47381 61.4664 7.12383 60.5957 7.29817C60.4735 6.52281 60.2473 6.54348 59.9514 6.65817C59.6766 6.12369 59.0808 5.66602 58.7576 6.17872C58.4048 5.1063 57.698 5.46874 57.1618 5.51577C58.2432 5.97456 59.3491 6.38059 60.1977 7.95423C59.7306 8.91195 59.1073 8.35913 58.5566 8.28457C56.1139 7.90722 53.1735 7.74435 50.9411 6.34046C51.1289 5.30704 51.9776 6.44828 52.0831 5.19234C51.8513 5.77386 51.6971 4.65899 51.5412 4.55118L51.0432 4.70603C49.8714 4.659 48.3762 4.3 47.1595 4.70603L46.9088 3.88248C46.0889 4.02356 45.4546 3.78728 44.8247 3.88248L44.6235 3.24134C44.0837 3.30213 43.4879 3.81597 43.2824 2.26182C43.576 1.71587 43.9463 1.40503 44.2287 0.81663C44.5784 0.904947 45.261 0.878581 45.4676 8.88629e-07C43.2922 0.466818 40.6001 0.215629 38.1037 0.97263C35.3084 1.82254 32.4482 2.0588 29.6978 2.911C29.0249 3.13351 28.239 3.47876 27.5554 3.40994C27.0784 3.35604 26.6407 2.68161 26.1604 2.60018C22.8493 1.92461 19.8451 2.90412 16.2166 2.911C15.3294 2.911 14.4235 2.62083 13.5277 2.75503C10.8048 3.15303 8.07753 2.99129 5.71528 2.60018C5.48983 2.56691 5.2436 2.26182 5.01829 2.26182C4.27082 2.26182 3.64093 3.17367 2.77808 3.40994C2.73297 6.6639 1.27976 3.39616 1.03345 6.00323L1.48967 6.17872C1.51611 7.97488 1.21157 10.0131 1.23571 12.3563L1.57984 13.1523H1.18194C1.37651 15.7319 1.53034 19.9309 1.03345 22.0918L1.32916 22.7399C1.24344 23.186 1.08303 23.4418 0.836806 23.3879C0.816958 24.8939 0.213518 27.0341 0.685048 28.0996C-0.014099 28.4116 -0.287824 36.0814 0.391476 37.8569" fill="#100F0D" />
</svg>