<svg preserveAspectRatio="none" viewBox="0 0 106 111" fill="none" xmlns="http://www.w3.org/2000/svg">
    <path fill-rule="evenodd" clip-rule="evenodd" d="M73.6309 106.125C73.4221 106.69 73.0362 107.458 72.7541 107.008L73.1178 106.363C71.4179 104.466 69.329 106.029 67.6937 104.147C66.4476 103.595 64.5654 104.356 63.1544 103.935C62.7194 103.793 62.1699 103.732 61.9654 102.378C62.3885 102.432 62.9139 101.923 63.1544 102.827L63.2544 102.154L63.6171 102.827C66.9235 101.876 70.5598 104.466 74.41 104.357C74.5068 105.636 75.1551 105.003 75.342 105.26C75.0671 106.281 74.1024 106.921 73.6309 106.125V106.125ZM72.4508 107.458V106.791H72.71L72.4508 107.458ZM67.6937 109.429C68.0245 109.088 68.4554 109.157 68.8345 109.015C68.6673 109.954 67.9949 109.788 67.6937 109.429ZM61.3457 93.54L61.4547 92.6634L60.8852 92.2141L61.3457 91.7729C61.0798 89.9919 59.7799 92.1875 59.6459 90.447C61.5843 89.8083 63.0644 91.6897 64.8589 91.5627C64.6017 92.7928 63.9149 91.8676 63.8226 93.316C63.2313 92.929 62.0654 94.9075 61.3457 93.54V93.54ZM55.6173 101.719C57.5557 100.495 59.4107 101.372 61.1908 102.378C59.2644 102.584 57.4306 102.331 55.6173 101.719ZM55.1547 23.9612C55.336 23.2809 55.5503 23.7095 55.8261 23.736C55.6152 24.3482 55.4668 23.8526 55.1547 23.9612ZM51.178 90.8882L51.3329 89.5634C52.3888 90.6572 53.7351 88.9917 54.8449 90.2356C55.1019 90.3384 54.7318 90.6849 54.7898 91.3444L55.4625 92.2141C54.0701 92.3712 52.4098 92.7442 51.178 90.8882V90.8882ZM51.7507 38.5314L51.3856 37.8846L51.7507 38.5314ZM52.4174 37.8846L51.9009 38.1029L52.2649 37.4296L52.4174 37.8846ZM53.3493 37.6606C53.1777 38.6331 52.8515 37.5867 52.6253 38.1029L53.3493 37.6606ZM54.1174 38.5314C53.8768 38.096 53.6988 38.5037 53.4538 37.8846L54.0176 37.4296L54.1174 38.5314ZM46.742 20.2075C46.8571 17.3385 47.8407 19.0121 48.3936 18.005L48.5969 17.3385C49.1395 17.7474 50.4121 17.6042 51.1308 18.2163C51.7975 18.8077 52.8976 18.7049 53.7625 19.3367C54.8912 20.1128 56.5523 21.0726 57.838 21.3094C57.9558 22.1052 57.8678 22.901 58.1985 23.0627C57.081 24.5942 55.2613 21.6362 54.1701 23.5062L54.0701 22.4101C51.645 21.9828 49.0572 20.6568 46.742 20.2075V20.2075ZM49.5265 31.4664C49.9033 30.7179 50.6714 31.0251 50.9208 31.9156C50.377 31.5888 50.067 32.0439 49.5265 31.4664ZM49.009 29.7004H49.5814H49.009ZM48.4463 29.9163L48.7012 29.7004L48.4463 29.9163ZM47.7738 29.9163C47.9397 28.8226 48.1781 29.6715 48.3936 29.7004L47.7738 29.9163ZM47.2045 20.8671L47.3431 21.0726C47.9187 20.889 47.7254 21.6686 47.3431 21.0726L47.2528 21.0853L47.2045 20.8671ZM48.3373 33.0233C48.0483 31.9157 47.1716 33.3028 46.8967 32.1409C46.9265 30.8011 47.7319 32.7853 47.6135 30.8138C48.4528 30.6636 49.135 30.4072 49.5265 32.8061C49.135 33.5338 48.6539 32.0439 48.3373 33.0233ZM47.4617 36.7701C47.5211 35.8784 47.7431 36.852 47.9771 36.5598L47.4617 36.7701ZM47.0451 36.3288H47.41H47.0451ZM46.6376 107.682L46.5805 106.791C46.7946 107.267 46.9155 106.73 47.1494 107.008L46.6376 107.682ZM46.33 38.1029L46.4825 38.3131V37.8846L46.6891 38.7624L46.33 38.1029ZM57.5282 24.6126H58.1985H57.5282ZM57.5282 36.3288H57.7337L57.681 37.2251L57.5282 36.3288ZM57.014 36.7701L57.4261 36.3288L57.014 36.7701ZM57.2183 83.6071L56.8062 83.8393L57.2183 83.6071ZM56.5009 67.2548C56.7689 65.8284 56.289 65.0673 55.9855 65.2705C56.5756 64.842 57.2018 64.9506 57.8888 65.4808C57.5667 67.1532 56.9217 66.0513 56.5009 67.2548V67.2548ZM58.5063 36.1025L58.0503 36.5598L58.5063 36.1025ZM59.9051 80.7162C59.5677 81.4046 60.0282 80.7728 60.0051 81.8319C59.415 81.3769 59.1513 81.3433 58.8668 80.7162C59.1635 80.6157 59.5632 80.4725 59.9051 80.7162ZM59.4909 70.1388L59.2327 69.4643L59.4909 70.1388ZM61.3457 67.48C62.1413 67.0723 63.0831 68.0656 63.9776 68.799L64.0862 70.1388C62.5259 69.4585 61.0567 69.7311 59.4381 68.3509C59.9426 67.1751 60.8303 67.7526 61.3457 67.48ZM59.4909 36.1025L59.6459 36.3288L59.4381 36.9872L59.4909 36.1025ZM60.0535 36.3288L59.6975 36.5598L60.0535 36.3288ZM63.6171 35.2201L63.5183 36.5598L63.6171 35.2201ZM64.3413 81.8319L64.2392 80.9426L64.7575 80.2888L64.5489 81.6148C64.9324 81.4993 65.7609 80.9761 66.2026 81.4046C65.5554 82.4383 64.3797 82.4718 63.6732 82.4984L63.9292 80.9426V82.2674C64.1258 81.9948 63.8512 80.6758 64.0862 80.2888L64.1378 81.8319H64.3413ZM64.6532 79.3984L64.2895 79.8476L64.6532 79.3984ZM66.4588 69.2483C66.0267 67.9293 65.0434 68.9757 64.6017 67.7053C66.0875 66.8275 67.9653 68.6697 69.5025 69.4643C69.8146 69.6295 70.1136 69.3846 70.3861 69.6837C70.9807 70.3837 71.3069 71.988 72.0815 71.6669C71.7509 72.6602 71.0793 72.2259 70.6893 73.0078C72.7057 74.9182 74.6738 73.8232 76.7341 73.0078L76.6277 73.6604C77.2197 74.388 78.0933 74.2852 78.7989 74.552L78.6903 75.8629C78.1935 75.8906 77.9253 75.8629 77.5616 75.6458L77.7098 75.2173C77.4879 74.1836 76.611 75.9934 76.422 74.3326L75.7507 76.0939C76.0144 77.1484 76.7088 76.1147 76.8892 76.9787C76.542 77.6324 76.0056 76.8274 75.5429 77.2016L75.6451 76.3111H75.3902L75.4902 77.8749C75.2563 78.4732 74.7781 77.339 74.41 78.0794C74.4727 78.1625 74.7134 78.8879 74.4627 78.971C74.5354 79.7587 75.1057 78.4189 75.0299 79.8476C74.7034 80.7046 74.0024 80.0983 73.4781 79.8476C73.4781 78.2422 73.9541 79.2748 74.1508 79.3984L73.9453 78.2896C73.1517 78.9421 72.4167 77.2432 71.7784 78.0794L72.3452 78.74L71.8264 79.1812C71.2322 77.2097 70.3631 78.4478 69.5025 77.8749C70.1596 76.4335 71.1277 77.6924 71.5706 76.5363C71.0585 76.6529 70.0651 75.6169 69.3015 75.4356L69.4025 74.1154C69.0004 74.552 68.0092 74.7137 67.4947 74.768C68.1499 73.1579 69.3201 73.2804 70.1751 72.1173C69.475 71.8586 69.1135 70.2 68.4224 69.9078L68.1664 70.5731C66.8707 69.5267 65.2214 71.1506 64.1378 69.6837C64.9512 69.7103 65.5809 68.955 66.4588 69.2483ZM64.4468 35.2201L64.2392 36.1025L64.1378 35.2201H64.4468ZM68.5265 65.7117L68.2103 65.93L68.5265 65.7117ZM69.863 66.5965C69.4838 66.4463 69.1049 66.399 68.8345 65.7117C69.1608 65.8007 69.773 64.7739 69.863 66.5965ZM70.4343 65.4808L70.5388 66.8136L70.074 66.5965L70.4343 65.4808ZM71.3091 67.2548L70.6893 67.0458L71.3091 67.2548ZM72.1387 67.48C71.898 67.1751 71.6145 67.8069 71.3663 67.2548C71.5375 66.9026 72.0342 65.9716 72.1387 67.48ZM72.8102 67.0458L72.2936 67.2548L72.8102 67.0458ZM78.9581 74.9863L79.2131 75.6458L78.8473 75.8629L78.9581 74.9863ZM79.8834 76.0939C79.7031 76.0408 79.5856 75.7336 79.3659 75.8629L79.8834 76.0939ZM81.3252 75.4356L81.2228 76.5363C80.8835 76.0674 80.5382 76.5167 80.1383 76.0939C80.4802 75.3386 80.8592 75.8364 81.3252 75.4356V75.4356ZM81.4352 75.2173L81.891 76.0939C82.8602 74.8234 83.7877 77.0942 84.6294 77.2016C84.5525 78.2029 84.259 77.6578 83.9097 77.8749C83.5174 76.2233 82.058 78.1625 81.6371 76.0939L81.3822 76.5363C81.5932 76.1621 81.2779 75.8629 81.4352 75.2173ZM84.4263 79.6224L84.7821 80.2888L84.4263 79.6224ZM85.8666 77.8749C85.6998 78.0043 85.2183 77.7733 84.8866 77.8749L84.8393 77.2016C85.1569 77.1069 85.6998 76.884 85.8666 77.8749ZM85.1985 73.4294H84.8393H85.1985ZM86.1262 73.4294C85.8776 73.7008 85.4249 74.2598 85.2998 73.2261C85.5216 73.3532 85.8392 73.158 86.1262 73.4294ZM82.7218 79.8476C82.9186 78.971 83.7579 78.9502 84.0097 80.0786C83.6021 80.1676 83.1118 79.6975 82.7218 79.8476ZM83.4427 85.8039L83.7021 86.4692L83.4427 85.8039ZM81.6834 79.6224L81.891 78.74C82.1944 79.3037 82.5734 78.4813 82.6173 79.8476C82.1427 79.9216 81.9766 79.8476 81.6834 79.6224V79.6224ZM81.2779 78.971L81.5373 79.1812L81.2779 78.971ZM80.2934 79.1812L80.9109 78.971L80.2934 79.1812ZM76.3704 78.971L76.6814 79.1812L76.3704 78.971ZM72.9617 80.0786V78.74C73.1178 78.971 73.0958 79.962 73.3782 79.6224L72.9617 80.0786ZM71.3091 80.2888C71.6629 79.5959 72.6179 78.8209 72.7541 79.8476C72.4552 80.3974 71.7486 80.521 71.3091 80.2888ZM69.4025 78.74L69.7618 79.1812L69.4025 78.74ZM67.5432 78.5136C67.9135 77.7941 68.5475 77.488 69.1421 77.8749C68.5959 78.8209 68.1915 78.4732 67.5432 78.5136ZM67.6498 80.9426V80.2888L67.5432 80.9426L67.3895 80.0786L67.3377 80.7162L67.1828 79.8476C66.9037 80.1676 66.7552 79.664 66.5102 80.0786C66.2422 78.032 65.3488 80.0313 65.1708 77.6382C66.2281 77.5827 66.4104 78.6788 67.2334 78.971L67.3895 78.2896C67.3224 79.7726 67.8421 78.7262 67.7498 80.2888C68.0245 80.2692 68.196 80.3974 68.3179 80.5141L68.4224 79.6224C68.941 80.0578 69.5881 80.3431 70.2267 80.2888C70.5684 80.2692 71.0309 79.0449 71.2597 80.5141C70.1751 80.5961 68.7883 81.2752 67.6498 80.9426V80.9426ZM66.4104 81.1736L66.7225 81.4046L66.4104 81.1736ZM63.5687 82.7236C63.2279 82.6289 62.828 82.9407 62.4865 82.9407L61.8644 82.0502C62.0699 82.4163 62.2226 81.6287 62.2775 82.4984L62.7423 82.2674C62.6996 80.9541 62.7194 80.9356 62.7941 79.8476L63.0017 80.7162L62.8425 82.0502C63.006 82.6831 63.1754 80.7994 63.3095 82.2674C63.6071 81.6009 63.2172 81.0234 63.0533 80.9426L63.3654 80.5141L63.2074 79.8476C63.3883 79.4873 63.4916 81.0442 63.7786 80.9426L63.5687 82.7236ZM60.782 70.1388L61.0898 70.5731L60.782 70.1388ZM60.1621 70.1388C60.2733 69.4043 60.5227 70.0164 60.7303 69.9078L60.1621 70.1388ZM61.7094 82.9407L61.3457 81.6148C60.8007 82.5526 60.4699 81.9474 60.1621 82.4984C59.9349 80.2889 60.4995 80.0983 61.0898 80.2888V80.9426C61.3094 79.8477 61.906 79.8199 62.4865 80.0786L62.3249 81.4046C62.0809 81.4716 62.0172 81.5201 61.7094 81.6148V82.9407ZM65.8907 95.3072L65.6335 95.7565C65.4158 96.0013 64.8687 97.1424 64.4468 97.0755C63.8622 96.9796 63.2279 95.6687 62.5853 96.185C63.5732 95.4977 65.0434 95.0369 65.8907 95.3072ZM66.8707 94.8717C66.6927 95.567 66.2575 95.1928 65.994 95.5324C66.2026 94.568 66.5884 94.6546 66.8707 94.8717ZM45.3979 38.3131L45.6046 37.6606L45.3979 38.3131ZM43.7982 102.827V102.154L44.1058 102.61L43.7982 102.827ZM43.2749 36.3288L43.7982 36.5598L43.2749 36.3288ZM42.5609 36.5598C42.6695 35.8784 42.8617 35.8934 43.1277 36.3288L42.5609 36.5598ZM42.5025 37.6606L42.7664 38.1029L42.5025 37.6606ZM41.8367 38.3131L41.8881 37.6606L42.0935 37.8846L41.8367 38.3131ZM41.2168 83.8393V82.9407V83.8393ZM39.3575 19.7594C39.5641 18.8215 40.0399 19.8067 40.5971 19.548C39.651 17.7474 37.0773 20.3034 36.4654 16.679C36.7401 16.3672 36.7842 17.0937 36.9324 17.3385C38.3884 16.8765 40.3036 17.9715 41.6816 18.2163L40.8037 19.3367C41.0388 20.2076 41.5764 19.235 41.9892 19.7594C41.2872 20.5609 40.1003 19.9292 39.3575 19.7594ZM39.5641 77.8749C39.707 77.339 40.0631 77.7733 40.2895 77.6382C40.1487 78.1487 39.7884 77.719 39.5641 77.8749ZM40.1301 37.8846H39.5641C39.7555 37.4631 39.8245 37.9389 40.1301 37.8846ZM39.3004 20.8671L39.5641 21.3094L39.3004 20.8671ZM37.4982 107.008L37.138 106.125C37.4752 105.928 37.4752 106.233 37.8587 105.906L38.0136 107.008H37.4982ZM35.9006 34.7847C35.9786 33.7925 36.2017 34.7846 36.4138 34.5605L35.9006 34.7847ZM35.593 34.3284L35.8476 34.5605L35.593 34.3284ZM34.8139 35.0157L35.1215 35.2201L34.8139 35.0157ZM34.7137 106.791L34.6566 105.906L34.9172 106.574L34.7137 106.791ZM33.9368 37.2251L33.8885 36.3288C34.1963 36.2745 34.3489 36.002 34.6566 36.5598C34.4412 37.3071 34.0961 36.5321 33.9368 37.2251ZM32.3325 36.7701L32.6491 36.3288L32.3325 36.7701ZM30.1173 36.5598L30.48 36.3288L30.1173 36.5598ZM29.1404 36.5598L29.3886 36.1025L29.1404 36.5598ZM27.8922 36.1025C28.2163 35.8172 28.579 36.3288 28.9283 36.3288C28.813 36.6003 28.0194 37.4295 27.8922 36.1025ZM27.1241 36.5598L26.8645 36.3288L27.2241 35.8784L27.1241 36.5598ZM23.7175 35.4511L24.2847 36.1025L23.7175 35.4511ZM21.4442 35.6751L21.3934 35.2201C21.623 33.8999 21.8308 35.7445 22.109 34.7847C22.0649 36.1314 21.7549 35.5527 21.4442 35.6751ZM21.6 75.2173L22.0649 75.4356C21.8033 75.3132 21.7549 75.4622 21.6 75.2173ZM20.6166 74.9863H21.2924H20.6166ZM20.977 32.5751L20.5165 31.9156L20.977 32.5751ZM18.6044 74.552L18.6605 74.3326V73.8844L19.021 74.1154L18.6044 74.552ZM17.8322 94.2134L18.2927 93.9893C18.2629 94.7909 18.0476 93.9212 17.8322 94.2134ZM17.4673 79.1812H17.7253H17.4673ZM17.2123 93.7699C17.4387 93.9212 17.5532 93.8461 17.6771 93.9893L17.2123 93.7699ZM16.9529 33.2416L17.0047 33.4449C17.0386 33.9288 17.2211 32.6294 17.2123 33.8999H16.9529V33.2416ZM17.3123 9.16699L16.6971 9.39223C16.7935 8.37122 17.0717 9.43148 17.3123 9.16699ZM16.1805 6.28301L16.6452 6.96445L16.1805 6.28301ZM15.9202 9.16699L16.2278 9.39223L15.9202 9.16699ZM16.0772 73.8844L15.8684 73.6604L16.0772 73.2261V73.8844ZM17.8804 73.8844L17.3123 73.6604C17.5532 73.538 17.6353 74.0542 17.8804 73.8844ZM15.3004 8.71768H15.5608H15.3004ZM14.375 9.16699L14.1135 8.93599L14.375 8.50056V9.16699ZM14.375 73.0078C13.919 73.762 13.8179 72.2732 14.375 73.0078V73.0078ZM11.6895 6.73345C11.7894 6.01158 12.1268 6.80622 12.3565 6.28301C12.2422 7.64359 12.0411 6.39966 11.6895 6.73345ZM9.51588 7.61588L9.82795 7.39176L9.51588 7.61588ZM7.19622 91.99C6.91166 91.3098 6.53258 91.0037 6.42153 89.5634C6.89848 89.3601 7.28628 89.4618 7.55561 89.7794C7.59835 91.2151 7.11382 90.3996 7.19622 91.99V91.99ZM4.61613 80.2888V79.6224L4.81945 80.0786L4.61613 80.2888ZM73.3782 54.0048L72.8102 54.2369C72.3056 54.4056 72.2344 54.1538 71.7784 54.4391C72.0529 51.659 72.9617 54.2369 73.3782 54.0048ZM72.3452 32.8061L72.2936 33.6759L72.1387 33.0233L72.3452 32.8061ZM73.0135 32.5751H72.5506C72.8067 32.5948 72.8067 32.3499 73.0135 32.5751ZM74.1508 54.2369H73.5266H74.1508ZM73.9453 33.2416V34.1194L73.7902 33.2416H73.9453ZM74.9254 47.8245H74.0463C74.3133 47.7159 74.6133 47.4722 74.9254 47.8245ZM75.2375 33.6759C75.2681 35.2605 74.9044 34.1194 74.7707 33.8999C74.8373 32.9494 75.0299 33.9288 75.2375 33.6759ZM75.2859 48.253H74.9738L75.2859 47.5935V48.253ZM76.6277 47.3625C76.3926 47.8245 75.9846 48.253 75.7023 47.8245C75.8276 46.8924 76.3363 47.5935 76.6277 47.3625ZM77.5616 40.5503C77.3054 42.8141 76.311 41.5009 75.9066 40.7536C76.1958 39.6055 77.3397 39.9382 77.5616 40.5503ZM78.0735 41.1821H77.7098H78.0735ZM78.7461 54.6585C78.4868 55.1598 78.1164 55.1817 77.7704 55.3307L78.7461 54.6585ZM79.2594 35.6751V36.5598L79.3131 35.6751C79.556 36.233 80.1779 35.1785 80.5504 36.1025C80.2428 37.6744 79.556 35.2605 79.4141 36.9872H79.1549L78.9581 36.1025L79.2594 35.6751ZM81.1185 36.1025C81.3526 36.5795 80.7253 36.9872 80.8107 36.1025H81.1185ZM81.891 47.3625C81.5647 48.2252 81.3634 47.3752 80.8625 47.5935C81.1076 46.6013 81.5075 47.2955 81.891 47.3625ZM82.3054 54.2369C82.0735 56.0249 81.5647 54.6839 81.2228 54.6585C80.7184 54.6239 80.1822 55.3041 79.7262 54.4391L79.525 53.1212C79.8164 53.6514 80.0614 53.2506 80.3416 54.0048L80.5031 53.1212C81.0448 53.7264 81.679 53.9909 82.3054 54.2369V54.2369ZM83.3898 47.5935C82.9712 48.3223 82.257 48.417 81.9931 47.3625C82.492 47.1303 82.9275 47.5738 83.3898 47.5935ZM84.4788 47.5935C84.2249 47.873 83.5097 49.0615 83.4427 47.3625C83.8403 47.1915 84.2108 47.9134 84.4788 47.5935ZM77.2472 55.3307L77.5616 54.8745L77.2472 55.3307ZM76.7341 55.1066L77.1989 55.7661L76.7341 55.1066ZM86.026 33.8999L85.7666 33.2416L86.026 33.8999ZM86.2809 33.6759L86.3336 32.8061L86.7941 33.6759L86.9514 33.2416C86.9808 34.7511 86.5161 32.82 86.5436 34.3284H86.1787C85.9215 34.1598 86.2085 32.4585 86.2809 33.6759ZM87.6238 34.1194L87.1633 34.3284L87.1107 33.4449L87.6238 34.1194ZM87.8304 29.7004L87.7832 30.5966L87.5756 29.9163L87.8304 29.7004ZM87.7303 35.0157C87.9853 34.459 88.149 35.5204 88.5029 35.2201L87.7303 35.0157ZM89.3777 29.9163L88.7107 30.5966L89.3777 29.9163ZM89.8423 29.7004L89.8952 30.8138L89.5896 31.2492L89.4347 30.1543C89.6502 30.3448 89.795 30.5967 89.8423 29.7004V29.7004ZM90.6192 31.6904H90.3073H90.6192ZM90.3622 33.6759L90.4622 32.8061L90.8227 33.2416C90.7598 34.2464 90.593 33.5419 90.3622 33.6759V33.6759ZM91.2895 30.1543V30.8138L90.8227 30.5966L91.2895 30.1543ZM92.6817 31.4664L92.2194 30.5966C92.3115 29.8482 92.485 30.5966 92.7346 30.3726L92.7861 31.6904C92.9985 31.5287 92.9985 31.5287 93.1994 31.6904C92.8203 32.3973 92.0478 32.1732 91.3895 31.9156C91.673 30.3448 92.3699 32.0173 92.6817 31.4664ZM95.0585 34.1194L94.9509 35.0157C94.3379 34.5537 93.7521 35.0157 93.2512 34.7847L93.1994 33.6759C93.6456 33.6366 94.6104 33.9542 95.0585 34.1194ZM95.5751 34.1194L95.163 34.5605L95.5751 34.1194ZM93.0938 34.7847C92.7136 34.288 92.538 35.0156 92.2194 34.5605V33.4449C92.6005 33.5488 92.8203 33.0787 93.0938 33.6759V34.7847ZM92.1149 34.5605L91.6544 33.8999C91.5028 34.6287 91.0049 34.4993 90.929 33.2416C91.3568 33.3767 91.7632 33.2681 92.1708 33.6759L92.1149 34.5605ZM89.3259 33.2416C89.5941 32.4515 90.0644 32.8743 90.3622 33.0233L90.3073 33.6759C89.9346 33.3502 89.7358 33.5338 89.3259 33.2416V33.2416ZM86.6941 35.4511C86.9657 34.3284 87.2633 34.8516 87.6777 35.0157C87.4668 36.3289 87.0325 34.9544 86.6941 35.4511ZM85.8666 35.2201L86.5436 35.4511C86.2985 34.9891 85.9962 35.5608 85.8666 35.2201ZM88.605 46.2675H88.0381C88.0171 45.3239 88.6666 44.7441 88.605 46.2675ZM87.1633 52.8972H86.6941H87.1633ZM88.815 52.456H88.4468H88.815ZM90.3622 52.456C90.1983 53.7611 89.3381 52.9792 89.0181 52.8972C89.2634 51.8831 89.7841 52.821 90.3622 52.456ZM90.5698 53.7807L90.1544 54.6585L90.2071 53.7807H90.5698ZM91.1389 50.6738L90.6192 50.9048C90.7323 50.1564 90.929 50.586 91.1389 50.6738ZM68.474 94.6407H68.265H68.474ZM69.8191 93.9893L69.1421 94.4167C69.2047 93.4927 69.5652 93.8126 69.8191 93.9893ZM70.4343 93.9893L69.974 93.7699L70.4343 93.9893ZM73.4781 93.54C73.1956 94.717 72.6914 93.7699 72.2409 93.7699C71.8409 93.7699 71.3849 94.4917 71.0542 93.7699C71.799 93.1127 72.8102 92.7927 73.4781 93.54V93.54ZM72.1387 97.5167C72.275 97.0951 72.4508 96.6065 72.6539 97.0755C72.6475 98.3471 72.3266 97.4093 72.1387 97.5167ZM75.342 98.1969C75.0112 99.2653 74.7134 98.7202 74.2023 98.8438L74.1024 98.1969C74.4441 97.3665 74.9144 98.1496 75.342 98.1969ZM75.8066 98.1969L75.4902 98.6254L75.8066 98.1969ZM79.8834 99.2907C79.4856 99.8694 79.033 100.007 78.6903 99.7273C78.2901 99.4074 77.6132 100.93 77.4583 98.6254C78.3572 99.6303 78.9724 98.5238 79.8834 99.2907V99.2907ZM78.7989 95.3072C79.8262 95.1455 80.9637 95.1455 82.257 95.5324C82.4877 96.9114 83.0867 96.7012 83.4988 97.3007C82.8481 98.503 81.7129 97.2718 80.7582 97.0755C79.956 96.9114 79.3176 96.5649 78.7989 95.9678V95.3072ZM86.5908 98.8438C86.2085 99.1764 85.1954 99.1209 84.8866 97.7419C85.4481 97.9729 86.1458 97.2464 86.5908 98.8438ZM87.9359 99.0747H87.5226H87.9359ZM83.5472 105.26C82.2174 105.003 80.5527 103.881 79.4702 104.806C79.1141 105.112 78.7373 106.553 78.2307 105.906C77.9188 104.372 77.3099 105.486 76.8892 104.147L77.3013 103.711H76.8892C75.7166 101.719 73.4068 103.12 72.1387 100.387C71.7849 100.359 71.3663 101.06 71.2112 99.9595C71.3706 99.1209 71.919 99.904 72.2409 99.2907C70.9807 98.7675 69.7136 99.3265 68.3695 99.4963L68.2103 97.5167C70.1136 95.5324 72.097 98.1092 73.9453 99.4963C74.5068 99.9237 75.1079 99.1429 75.5429 99.2907L76.0099 100.169C76.4144 100.299 76.7012 98.9327 77.1462 99.0747C77.5738 101.372 78.9769 101.079 79.8834 100.169L79.8307 101.277C80.0867 101.251 80.0822 101.494 80.2934 101.277C80.5088 103.079 81.3714 102.107 81.5857 103.935C82.7636 104.689 83.5284 103.303 84.8866 103.473L86.0744 103.044C86.3042 101.602 87.0437 101.794 87.3141 102.827C87.4327 99.367 89.2634 101.902 89.8423 100.169C89.282 99.3866 88.3313 100.454 88.1908 98.8438C88.3733 98.4487 88.7391 99.2307 89.0181 98.6254C88.7666 98.7606 88.6952 97.7962 88.5029 97.5167C87.7303 96.3686 86.6689 97.3007 85.7666 97.0755C85.5294 97.0212 85.0646 97.124 84.9393 95.7565C85.3204 96.029 85.7229 95.8108 86.1262 95.7565C87.6238 95.5532 89.3106 96.6065 90.6192 95.3072C88.8017 94.9676 87.4436 95.1928 85.8666 94.4167C84.7723 95.7703 83.0261 93.9212 81.4352 93.9893C80.9131 94.0009 80.1681 93.8126 79.7262 93.9893C78.8505 94.2885 77.9592 93.3506 77.1989 93.54C76.8198 93.6359 76.3506 93.942 75.9066 93.7699C75.6398 93.6613 75.164 94.084 75.0824 92.6634C75.3606 92.6761 75.7166 93.234 75.855 92.2141C75.8066 90.9355 75.0736 92.4659 74.8748 91.3444L75.1826 90.447C74.6738 90.5417 74.0463 89.4941 73.3782 90.447C73.8485 91.215 74.4882 89.8822 74.822 91.1122C73.3156 91.3917 71.3804 91.6897 69.7136 91.7729C68.931 91.8202 68.0321 92.3712 67.5432 91.5627L67.7498 90.6572C67.4608 90.2356 66.6994 90.4874 66.9235 91.5627C66.5698 91.4045 66.2026 91.833 66.0981 91.5627C66.35 90.7865 66.6806 91.6898 66.7698 90.2356C67.2267 89.9088 67.8235 90.1536 68.1058 89.1222C67.4971 88.0538 66.9917 90.1813 66.5631 89.3451C66.5841 88.7538 66.7598 88.6059 66.5102 88.4477C66.2949 88.122 66.5025 89.6108 66.3532 89.5634C65.7048 89.2781 64.9424 90.6433 64.4468 89.5634L64.5489 88.4477C64.773 88.8762 65.2665 88.8011 65.3698 88.0261C64.3017 87.9591 63.0686 86.7683 61.8148 86.2509C64.1488 83.9398 66.8103 87.3863 69.1421 85.5787C68.4268 85.5256 67.7455 85.2391 67.3377 84.9331C67.6267 83.7226 68.1915 83.7018 68.6773 83.6071C69.7662 83.3831 71.1026 83.5321 72.0815 83.8393L72.3452 83.1578C74.3517 83.2191 76.778 82.0225 78.1792 83.1578C79.556 84.2793 80.9109 85.8582 82.4581 86.0349C82.9853 86.0892 83.4756 87.101 84.0097 87.5768C85.7621 89.1141 87.4558 89.2365 89.171 89.1222C87.9985 87.2846 86.4952 87.3539 85.1469 87.1287C84.7284 87.0467 84.1437 87.1287 83.8018 86.0349C86.0887 86.3525 87.8644 87.6796 90.1062 86.0349C89.9807 84.5519 89.5645 85.1363 89.3777 84.2736C89.1665 84.143 89.4259 84.858 89.2271 84.9331C88.6248 84.612 88.0085 84.374 87.4138 84.2736C87.1017 84.2054 86.6206 84.9469 86.3865 83.6071C87.4227 83.8393 88.0085 84.0079 89.0181 84.2736C89.9501 82.4718 91.1929 83.5528 92.3192 83.6071C93.1839 83.6487 94.0158 82.846 94.9037 83.6071C95.274 82.1715 96.2729 83.8508 96.6036 82.7236C96.1903 82.1241 95.462 82.9003 95.163 81.8319L95.2675 80.9426C93.6697 81.2475 91.5852 81.3433 90.0501 80.0786L89.9974 80.9426L89.738 80.5141L89.9974 79.8476C89.638 79.9146 89.3304 79.4942 88.915 79.6224C88.8589 79.0726 89.1555 78.7585 88.915 78.74C88.6874 78.6915 88.4888 78.8209 88.2457 78.74C87.6567 78.5679 86.8765 78.3993 86.5436 76.9787C87.7009 76.3527 88.528 76.8424 89.8423 75.8629C89.3335 75.5372 88.704 75.7682 88.4468 74.3326C87.8206 73.7008 86.8953 74.3326 86.3336 73.4294C87.0437 72.5377 87.8161 73.7551 88.2919 72.5585C88.149 71.9129 87.5756 72.6128 87.9359 71.6669C86.3381 70.1862 84.1812 72.0353 82.9777 69.2483C81.9306 70.0568 80.7207 68.9284 79.6737 69.4643L79.3659 68.575C76.3659 68.3301 73.2331 67.4269 70.798 65.2705L70.6409 65.93L70.2816 64.5903C68.9894 65.0257 68.1588 62.6533 66.8225 63.2863L66.6135 62.6129C66.161 63.299 65.7676 62.0412 65.2192 62.3946C65.072 61.5653 64.6279 62.0065 64.6017 60.6275C64.8589 59.8259 65.4006 60.2186 65.6335 59.3143L65.738 57.3092C66.2171 58.0634 66.7323 57.3092 67.2334 57.7643V58.8592C69.2827 60.7499 71.8562 56.7571 73.5266 60.6275L73.7342 59.0902C74.7078 58.8869 75.8693 60.4369 76.6277 59.0902L76.322 58.634C76.4802 57.4386 76.8451 58.4365 77.1989 57.9745L77.1462 56.8807L77.4583 55.7661C79.3427 56.7386 81.6647 59.1445 83.3898 57.9745C83.4527 58.7437 83.6624 58.8869 83.9097 58.8592L83.647 57.9745C84.0283 58.1108 84.579 57.5471 84.7384 58.634C85.314 57.6095 86.5348 58.5601 87.2633 57.5471C87.1919 55.7592 87.6963 56.4464 87.9359 55.9902C88.0314 54.61 87.5777 55.5906 87.6238 54.4391L88.0908 55.3307C89.0512 54.1538 90.0623 56.0249 91.0786 56.6497L91.6018 56.4326C91.9369 56.5065 92.2817 57.1799 92.6313 57.3092C94.0532 57.859 95.6488 58.6271 96.763 57.9745C95.4377 57.0644 93.9377 56.9015 92.4742 56.4326C92.2631 54.0048 90.9753 55.8608 90.6675 54.4391C90.7972 52.9572 91.394 53.8004 91.6544 53.3372C91.4379 52.0471 90.7118 54.3386 90.5147 52.6869C92.7675 52.054 94.6104 54.066 97.0157 54.6585C98.2465 54.9692 99.5618 56.3379 100.634 55.5409L100.739 56.2085C102.596 55.3515 104.522 57.6418 106 55.1066C105.304 54.4679 104.247 55.4127 103.731 54.0048C103.044 54.7855 102.284 54.6839 101.77 53.5636L102.126 52.2365C101.828 51.9512 101.812 52.9307 101.564 52.8972L101.203 52.456L100.843 53.1212C100.216 52.3324 99.6869 53.4747 99.0299 52.8972C98.5145 52.4409 98.0585 51.0619 97.5409 50.9048C96.8861 50.7154 96.1507 51.5978 95.5334 50.6657L95.4181 50.6738L95.4751 50.5791L95.2675 50.2522C94.2498 51.6325 92.7422 51.2247 91.7016 50.9048C92.2149 49.654 93.3621 51.0884 93.7707 49.3756C91.139 48.4978 88.182 49.0002 86.1787 48.0427C87.2315 47.2261 88.5611 48.2529 89.8952 47.1303C89.4414 46.5459 89.2128 46.1798 88.658 46.2675L88.9656 43.8409C89.4073 43.8744 89.8237 43.9841 90.0501 44.9347L89.5896 45.8194C90.3479 45.4255 91.2938 46.465 92.0619 45.8194V44.52C92.4115 44.1469 92.9157 44.4588 93.0938 43.3928C91.4236 42.7402 89.728 41.9444 88.1424 41.6372C87.148 41.435 86.4612 41.1821 85.8184 41.4062C85.5359 40.183 84.9789 40.1288 84.5272 39.646C84.7448 38.2658 85.3645 39.9451 85.6139 38.7624C84.5119 36.084 82.9777 38.789 81.9494 35.4511C82.3427 35.4442 82.7602 35.3829 83.0821 35.6751L82.6659 35.0157L82.3625 34.1194C82.188 34.221 82.4966 34.9683 82.257 34.7847C82.0921 34.4047 81.9911 34.6761 81.6834 35.0157L81.5857 34.1194C80.1822 34.0651 77.8394 33.8526 76.0099 32.3499C77.4834 31.046 79.0955 31.9353 80.4547 31.6904L80.6033 32.3499L80.7582 31.6904C81.7316 32.5001 82.6361 31.3508 83.3898 32.5751L83.1866 33.2416C83.5384 32.9748 83.7877 34.3504 84.0667 33.6759C83.8448 33.1596 83.6921 32.4192 83.5976 33.0233C83.6832 31.5888 84.0953 32.5555 84.2151 32.5751C84.5854 32.6294 84.9019 32.8881 85.2998 32.8061L85.4108 34.3284L85.5614 32.8061L85.7666 35.2201C85.4832 35.2825 85.4622 35.4164 85.1985 35.2201C86.3709 36.8521 87.7009 36.2745 88.9656 36.5598C90.8753 36.9872 92.9267 38.1029 94.7949 37.6606C95.7245 37.4296 96.9486 37.5462 97.8993 38.1029C98.1443 38.2311 98.3749 38.7081 98.62 38.7624C99.3981 38.8976 100.033 38.0879 100.739 38.7624C101.99 39.9648 103.623 40.2373 104.922 39.2036C104.377 37.9666 103.315 39.4346 103.01 38.3131C103.604 37.381 103.965 38.2866 104.507 38.1029C104.302 37.5867 104.287 36.8521 104.039 36.9872C103.921 35.5204 104.58 35.7364 104.196 35.6751C103.697 35.6001 102.573 37.2321 102.126 36.7701C101.779 37.9539 100.672 38.8502 100.172 37.4296C100.422 36.68 101.306 37.463 101.255 36.1025H100.79C101.074 35.1242 101.675 35.4915 101.819 33.8999C101.166 34.5398 100.422 34.2072 99.9639 35.2201V34.3284C99.3793 34.8736 98.2365 34.6495 97.6399 34.1194C97.5013 34.3088 97.7575 35.1519 97.5409 35.2201C97.0992 34.459 96.1872 35.8241 95.8872 34.5605C96.2311 32.8881 97.0453 35.1311 97.2753 33.4449C98.1322 33.1596 98.9089 33.4795 99.3397 31.6904C97.0412 31.8337 95.3938 33.0579 93.2512 31.9156L93.5631 31.0251H94.1828C94.3818 32.5001 94.4973 30.7399 94.8509 31.4664L94.9509 30.1543C95.1544 30.2559 94.8743 31.1938 95.106 31.2492L95.3642 31.4664L95.4663 30.3726L95.4181 31.6904C95.7971 31.3509 96.495 32.1478 96.6573 31.0251C96.2915 31.2769 95.9025 29.8008 95.6785 30.8138C95.6345 29.4878 95.4959 29.9314 95.2675 29.4878C95.1772 29.5491 95.3322 30.2421 95.106 30.1543L95.006 29.2777C94.5784 29.653 94.1642 28.6389 93.6662 29.4878C89.8535 27.6456 86.2942 28.952 82.5669 27.0486C82.1317 28.3941 81.5494 27.238 81.0658 27.2657C79.9856 27.3338 78.7901 28.3317 77.5616 27.0486C77.833 25.6406 78.6879 25.9952 79.2131 26.1707C78.3154 24.839 76.9231 24.4636 75.8066 24.839C75.9803 25.9328 76.3738 26.0622 76.7341 26.3879C76.5561 28.2774 75.6935 26.9388 75.5429 25.9478C74.4333 25.8716 73.066 26.3128 72.2409 23.9612C71.3244 24.0155 70.3276 24.7628 69.5554 22.8605C70.1553 22.1387 70.8652 23.0095 71.2597 21.9758C69.339 20.0793 66.9444 19.6785 64.9093 18.6506C64.6434 18.5282 64.2874 17.8086 64.0862 18.8747C64.3938 18.9844 65.4006 19.0387 65.8422 19.9765C65.3335 21.2689 64.773 20.4051 64.2895 20.6361C63.8784 20.8601 63.295 21.3163 62.8425 21.0853C62.371 20.8601 61.9654 19.9569 61.4547 19.3367C60.6732 18.3792 59.8502 19.7328 59.0217 19.7594C58.4624 19.7986 58.104 18.1955 57.7337 18.005C57.4798 17.856 57.1855 18.4473 56.9085 18.4335C56.3998 18.3861 55.8999 17.6458 55.4095 18.4335L55.2041 17.1145C54.0799 18.1817 53.6175 14.8784 52.7296 15.136C52.3735 13.4716 51.6405 13.7696 50.9736 13.5583C50.2944 13.3758 49.4705 11.8038 49.0615 13.7973C49.2956 14.3413 49.7735 13.8447 49.8869 14.8911C49.5616 16.5982 49.0958 15.0401 48.6539 15.136C48.4232 15.1695 48.2263 16.1015 47.9771 16.2297C47.5462 16.4411 47.2375 15.8371 46.8967 14.8911L47.0012 14.0203C46.4737 14.5515 46.0276 13.75 45.5046 13.3481C44.4134 12.5523 43.21 13.1841 42.0935 13.1506C41.8212 13.124 41.1059 11.9667 41.0576 14.0203C41.6773 14.3275 42.5839 13.3954 42.7134 15.7759C41.999 15.9526 41.4025 15.8971 40.442 15.9918L40.1301 14.4626H39.462L38.9972 12.7024C38.0379 11.8465 37.0849 12.2323 36.1556 12.036C35.4007 11.8731 34.6753 9.93393 33.9887 10.9272C33.6731 9.24902 33.25 9.61515 32.7975 9.39223C30.7392 8.29615 28.803 8.49247 26.9647 9.16699C25.889 9.54698 24.779 9.20744 23.6648 9.39223C22.6471 9.52852 21.7263 9.26172 20.7737 9.39223V8.2765C20.5606 8.40586 20.5165 9.24901 20.3134 9.39223L19.9967 8.71768C19.488 10.2076 18.6342 9.86807 18.3452 8.2765L18.6605 7.39176L18.2927 6.73345C19.0463 7.26359 19.9232 6.6572 20.5637 7.17463C20.4131 8.32385 19.9824 6.78079 19.7419 7.848C20.0595 8.24878 20.598 8.9487 20.7737 7.17463L20.8715 8.2765L20.8245 7.17463C21.1362 6.97713 21.6065 6.46661 21.7537 7.39176L21.4955 8.05819C21.711 8.44511 22.0868 8.64379 22.2682 7.848L21.9088 6.96445C24.6033 7.09265 27.4503 5.99079 30.0701 6.96445C29.37 7.48766 28.579 7.60431 27.8922 6.96445C26.791 8.00394 25.6022 6.80619 24.6407 8.50056C27.0021 8.3712 29.6821 7.78792 32.4899 7.39176C31.8655 6.38692 30.7106 7.48766 30.1677 6.73345C30.9492 4.84158 32.1217 5.53569 33.2686 5.63271C32.8799 4.04114 32.2931 5.11994 31.8239 4.75497C30.6514 3.81019 29.0669 4.29872 27.6932 4.29872C24.2549 4.29872 20.4945 3.15645 17.3652 3.40823C15.5454 2.30753 13.341 2.76143 11.2719 2.76143C9.48624 2.76143 7.73031 2.32024 5.90836 2.32024C4.2084 2.32024 2.03931 -2.9003 1.04926 2.32024L1.15579 3.85754L0.952551 4.29872C1.1404 4.35301 1.57232 4.353 1.77548 4.95128C1.74586 6.58328 1.44918 7.09264 1.20749 7.848C0.0228506 17.0463 -0.666083 35.1242 0.952551 44.2959L0.843725 46.4985C0.982272 48.7981 1.27129 50.7812 1.67226 52.456C1.83598 55.8066 1.84702 59.7832 2.08755 62.8497C1.75911 62.8497 1.3569 62.755 0.843725 62.8497C1.2228 63.7945 1.92391 63.3879 2.24033 64.5903L2.34481 67.0458C1.91732 69.2553 1.00096 69.3846 1.04926 73.6604C0.785518 74.2044 0.742642 75.7139 0.434944 76.0939V78.2896L0.896501 79.3984C0.832707 81.0708 1.13497 81.2001 1.15579 82.4984L0.843725 82.9407C1.84702 82.5873 2.05801 84.8106 3.3206 84.2736C3.86226 87.645 4.59744 90.1536 5.96106 90.0104C6.2117 91.1123 6.74356 91.0591 6.94022 92.4382L6.42153 93.316C6.5842 95.3695 7.22916 95.3291 7.40285 97.3007C6.86876 96.7959 6.5842 95.1709 6.11168 95.9678C6.22702 97.8297 6.66881 98.2928 6.88415 99.7273L6.62815 101.508C6.85888 102.107 6.91709 101.277 7.09514 101.06C7.60823 103.446 8.78966 101.855 9.20824 104.806L9.41702 104.147C11.1675 106.73 13.2927 107.805 15.3531 108.565C15.9827 108.79 16.6452 108.546 17.2123 108.79C19.4582 109.788 22.5889 111.095 24.6978 109.891C22.7726 108.708 20.9386 109.979 19.4298 107.458L19.021 108.116C18.2398 106.982 17.4277 109.326 16.6971 107.008L16.9529 106.574C16.798 105.906 16.5003 105.845 16.1805 105.906C15.5608 103.833 14.0794 105.691 13.5444 102.827C13.0641 102.807 12.5389 101.855 12.2565 101.508C11.2049 100.156 10.1104 99.2653 9.36753 96.6412C10.284 97.3007 10.8719 98.2258 11.7894 98.6254C11.3389 97.0951 10.5752 96.9114 10.2928 94.6407C10.5181 94.8717 10.7675 94.9872 10.9609 95.3072C12.085 94.3693 13.2839 96.6677 13.8037 99.7273C13.5927 100.604 13.1102 100.1 12.9762 100.822C13.374 100.856 13.8795 102.181 14.3212 102.154C14.5575 102.154 14.7145 101.482 14.9443 101.277C15.9915 100.324 17.0927 101.345 18.1925 100.822C18.3266 100.156 18.5187 99.7273 18.864 99.9595L19.2772 98.8438C21.3263 98.98 23.2604 98.6451 25.0569 100.387C26.334 99.7747 28.0745 102.154 29.1877 104.357L28.9854 105.906C30.0701 105.486 31.5458 104.594 32.2327 104.588L32.18 105.69C32.4413 105.112 32.8601 107.138 33.0051 105.26L32.4899 104.806C32.6491 104.093 33.139 104.902 33.4172 105.037L33.1645 106.125L33.4745 106.363L33.6294 105.037C34.0413 104.791 34.4457 105.329 34.2975 106.791C34.7392 106.94 35.3434 107.885 35.4818 106.791C35.593 107.538 35.861 107.559 36.1556 107.458L36.0051 105.906C36.2544 106.153 36.5665 105.078 36.673 106.125L36.1556 106.791C36.5807 108.205 37.5313 107.655 38.3245 107.906C38.9676 108.116 39.6751 108.192 40.0817 107.682L39.5641 107.458L39.4092 106.574C39.1081 107.213 38.8148 106.886 38.5853 107.458L38.4259 106.363C38.9258 106.268 39.9202 104.902 40.2895 107.458C40.6234 107.287 41.2652 108.668 41.7334 107.458C41.4738 107.043 40.8837 107.94 40.5971 106.125C41.5411 106.179 42.4123 106.199 43.1761 106.363L43.2289 107.458L43.7453 107.682L43.897 106.363C44.6926 106.546 45.6485 106.553 46.4825 106.791L46.3772 108.116C46.8046 108.436 47.5727 109.865 47.7178 107.458L47.2528 107.008C48.0111 107.342 49.6626 106.765 50.1482 108.116L50.2462 107.239C50.7726 107.111 51.2186 107.763 51.5405 106.574C52.2945 106.635 53.4714 108.014 54.0176 106.791C53.4461 106.69 52.9813 107.056 52.6735 106.125C53.3352 105.607 54.1327 106.492 54.4867 104.357C56.034 105.296 57.5184 104.982 59.1303 106.125L58.9776 107.008C61.7809 108.036 64.4499 105.037 66.7225 107.458C66.0224 108.26 65.1994 109.639 64.6017 110.109H65.1708L65.2192 111C65.24 109.191 65.916 111.258 66.2026 110.109L66.8225 110.775C67.5443 109.191 68.2795 111.047 68.9894 110.34L69.0465 109.015L69.3015 109.429C69.7036 108.28 71.1838 108.796 72.0342 107.458L72.4993 108.79C72.1595 108.471 71.751 109.477 71.3091 109.429C72.0113 111.726 73.0892 108.156 73.6309 109.015L73.4299 109.891C74.0418 109.326 74.7617 108.546 75.3902 109.211C75.5341 108.736 75.7023 108.334 75.9066 108.116L76.1144 108.565C76.4079 107.335 78.078 107.437 78.5911 107.682L77.8671 109.429C78.2307 109.429 78.4715 109.069 78.7989 109.429C79.4702 106.94 80.4231 108.156 81.4789 108.116L81.0658 109.211C81.5494 110.524 82.0649 108.885 82.4581 108.565C82.7746 108.3 83.3317 108.621 83.8018 108.565C85.2579 108.383 86.9237 108.233 88.2457 108.565C88.7391 107.559 89.5347 108.145 90.0501 106.791C87.9457 105.364 85.5843 105.636 83.5472 105.26" fill="#100F0D" />
</svg>