<svg preserveAspectRatio="none" viewBox="0 0 106 111" fill="none" xmlns="http://www.w3.org/2000/svg"><path fill-rule="evenodd" clip-rule="evenodd" d="M73.63 106.125c-.208.565-.594 1.333-.876.883l.364-.645c-1.7-1.897-3.789-.334-5.424-2.216-1.246-.552-3.129.209-4.54-.212-.435-.142-.984-.203-1.189-1.557.423.054.949-.455 1.19.449l.1-.673.362.673c3.307-.951 6.943 1.639 10.793 1.53.097 1.279.745.646.932.903-.275 1.021-1.24 1.661-1.711.865Zm-1.18 1.333v-.667h.26l-.26.667Zm-4.756 1.971c.33-.341.761-.272 1.14-.414-.167.939-.84.773-1.14.414ZM61.346 93.54l.109-.877-.57-.449.46-.441c-.265-1.781-1.565.415-1.7-1.326 1.94-.639 3.42 1.243 5.214 1.116-.257 1.23-.944.305-1.036 1.753-.592-.387-1.758 1.591-2.477.224Zm-5.729 8.179c1.939-1.224 3.794-.347 5.574.659-1.927.206-3.76-.047-5.574-.659Zm-.462-77.758c.181-.68.395-.252.671-.225-.21.612-.36.117-.671.225Zm-3.977 66.927.155-1.325c1.056 1.094 2.402-.571 3.512.673.257.102-.113.449-.055 1.108l.672.87c-1.392.157-3.052.53-4.284-1.326Zm.573-52.357-.365-.646.365.646Zm.666-.646-.516.218.364-.673.152.455Zm.932-.224c-.171.972-.497-.074-.724.442l.724-.442Zm.768.87c-.24-.435-.418-.027-.663-.646l.564-.455.1 1.101Zm-7.375-18.323c.115-2.87 1.099-1.196 1.652-2.203l.203-.666c.542.408 1.815.265 2.534.877.666.592 1.767.489 2.632 1.12 1.128.777 2.79 1.737 4.075 1.973.118.796.03 1.592.36 1.754-1.117 1.531-2.937-1.427-4.028.443l-.1-1.096c-2.425-.427-5.013-1.753-7.328-2.203Zm2.785 11.258c.376-.748 1.144-.44 1.394.45-.544-.327-.854.128-1.395-.45Zm-.518-1.766h.572-.572Zm-.563.216.255-.216-.255.216Zm-.672 0c.166-1.093.404-.244.62-.216l-.62.216Zm-.57-9.049.14.206c.575-.184.381.596 0 0l-.091.012-.048-.218Zm1.133 12.156c-.289-1.107-1.165.28-1.44-.882.03-1.34.835.644.717-1.327.839-.15 1.521-.407 1.913 1.992-.392.728-.873-.762-1.19.217Zm-.875 3.747c.06-.892.281.082.515-.21l-.515.21Zm-.417-.441h.365-.365Zm-.407 71.353-.057-.891c.214.476.334-.061.568.217l-.511.674Zm-.308-69.58.153.211v-.428l.206.877-.359-.66Zm11.198-13.49h.67-.67Zm0 11.717h.206l-.053.896-.153-.896Zm-.514.441.412-.441-.412.441Zm.204 46.837-.412.232.412-.232Zm-.717-16.352c.268-1.427-.212-2.188-.515-1.984.59-.429 1.216-.32 1.903.21-.322 1.672-.967.57-1.388 1.774Zm2.005-31.152-.456.457.456-.458Zm1.4 44.613c-.338.689.122.057.1 1.116-.591-.455-.855-.489-1.14-1.116.297-.1.697-.243 1.04 0ZM59.49 70.14l-.258-.675.258.675Zm1.855-2.659c.795-.408 1.737.586 2.632 1.319l.108 1.34c-1.56-.68-3.03-.408-4.648-1.788.505-1.176 1.392-.598 1.908-.871ZM59.49 36.102l.155.227-.208.658.053-.885Zm.563.227-.357.23.356-.23Zm3.563-1.109-.099 1.34.1-1.34Zm.724 46.612-.102-.89.518-.653-.208 1.326c.383-.116 1.212-.639 1.654-.21-.648 1.033-1.823 1.067-2.53 1.093l.256-1.555v1.324c.197-.272-.078-1.591.157-1.978l.052 1.543h.203Zm.312-2.434-.364.45.364-.45Zm1.806-10.15c-.432-1.319-1.416-.272-1.857-1.543 1.486-.877 3.363.965 4.9 1.76.313.164.612-.08.884.219.595.7.92 2.304 1.696 1.983-.331.993-1.003.559-1.393 1.34 2.017 1.911 3.985.816 6.045 0l-.106.653c.592.728 1.465.625 2.17.892l-.108 1.31c-.496.029-.765 0-1.128-.216l.148-.429c-.222-1.033-1.099.776-1.288-.884l-.671 1.76c.263 1.055.958.022 1.138.886-.347.653-.883-.152-1.346.223l.102-.89h-.255l.1 1.563c-.234.598-.712-.536-1.08.204.063.084.303.809.053.892.072.788.643-.552.567.877-.327.857-1.028.25-1.552 0 0-1.606.476-.573.673-.45l-.206-1.108c-.793.652-1.528-1.047-2.167-.21l.567.66-.519.441c-.594-1.971-1.463-.733-2.323-1.306.657-1.442 1.625-.183 2.068-1.339-.513.117-1.506-.92-2.27-1.1l.102-1.32c-.403.436-1.394.598-1.908.652.655-1.61 1.825-1.488 2.68-2.65-.7-.26-1.061-1.918-1.753-2.21l-.256.665c-1.295-1.046-2.945.578-4.028-.89.813.027 1.443-.728 2.32-.435ZM64.447 35.22l-.208.883-.101-.883h.309Zm4.08 30.492-.317.218.317-.218Zm1.336.885c-.38-.15-.758-.198-1.028-.885.326.089.938-.938 1.028.885Zm.571-1.116.105 1.333-.465-.217.36-1.116Zm.875 1.774-.62-.21.62.21Zm.83.225c-.241-.305-.524.327-.773-.225.171-.352.668-1.283.773.225Zm.671-.434-.516.209.516-.21Zm6.148 7.94.255.66-.366.217.111-.877Zm.925 1.108c-.18-.053-.297-.36-.517-.231l.517.23Zm1.442-.658-.102 1.1c-.34-.469-.685-.02-1.085-.442.342-.755.721-.258 1.187-.658Zm.11-.219.456.877c.97-1.27 1.897 1 2.738 1.108-.077 1-.37.456-.72.673-.392-1.652-1.851.287-2.272-1.781l-.255.442c.211-.374-.104-.673.053-1.319Zm2.991 4.405.356.667-.356-.667Zm1.44-1.747c-.166.13-.648-.102-.98 0l-.047-.673c.318-.095.86-.318 1.028.673Zm-.668-4.446h-.359.36Zm.928 0c-.248.272-.701.83-.826-.203.222.127.54-.068.826.203Zm-3.404 6.419c.197-.877 1.036-.898 1.288.23-.408.09-.898-.38-1.288-.23Zm.72 5.956.26.665-.26-.665Zm-1.759-6.182.208-.882c.303.564.682-.259.726 1.108-.474.074-.64 0-.934-.226Zm-.405-.651.26.21-.26-.21Zm-.985.21.618-.21-.618.21Zm-3.923-.21.311.21-.31-.21Zm-3.408 1.108V78.74c.156.231.134 1.222.416.882l-.416.457Zm-1.653.21c.354-.693 1.309-1.468 1.445-.441-.299.55-1.005.673-1.445.44Zm-1.906-1.549.359.441-.36-.441Zm-1.86-.226c.37-.72 1.004-1.026 1.6-.64-.547.947-.951.6-1.6.64Zm.107 2.429v-.654l-.107.654-.154-.864-.051.637-.155-.868c-.28.32-.428-.184-.673.23-.268-2.046-1.161-.047-1.34-2.44 1.058-.055 1.24 1.04 2.063 1.333l.156-.681c-.067 1.483.453.436.36 1.999.276-.02.447.108.569.225l.104-.892c.519.436 1.166.721 1.805.667.341-.02.804-1.244 1.033.225-1.085.082-2.472.761-3.61.429Zm-1.24.23.313.232-.313-.231Zm-2.841 1.55c-.341-.094-.741.218-1.083.218l-.622-.89c.206.365.359-.422.414.447l.464-.23c-.042-1.314-.023-1.332.052-2.42l.208.868-.16 1.334c.164.633.333-1.25.468.217.297-.666-.093-1.244-.257-1.324l.312-.429-.158-.666c.181-.36.285 1.196.572 1.095l-.21 1.78ZM60.782 70.14l.308.434-.308-.434Zm-.62 0c.111-.735.36-.123.568-.231l-.568.23ZM61.71 82.94l-.363-1.326c-.545.938-.876.332-1.184.883-.227-2.21.337-2.4.928-2.21v.655c.22-1.095.816-1.123 1.396-.864l-.161 1.326c-.244.067-.308.115-.616.21v1.326Zm4.182 12.366-.258.45c-.217.244-.764 1.385-1.186 1.319-.585-.096-1.22-1.407-1.862-.891.988-.687 2.458-1.148 3.306-.878Zm.98-.435c-.178.695-.614.32-.877.66.209-.964.594-.877.877-.66ZM45.398 38.313l.207-.652-.207.652Zm-1.6 64.514v-.673l.308.456-.308.217Zm-.523-66.498.523.23-.523-.23Zm-.714.23c.108-.68.3-.666.567-.23l-.567.23Zm-.059 1.102.264.442-.264-.442Zm-.665.652.051-.652.206.224-.257.428Zm-.62 45.526v-.898.898Zm-1.86-64.08c.207-.938.683.048 1.24-.211-.946-1.8-3.52.755-4.132-2.869.275-.312.32.415.467.66 1.456-.462 3.372.633 4.75.877l-.878 1.12c.235.872.772-.101 1.185.423-.702.802-1.889.17-2.631 0Zm.207 58.116c.143-.536.5-.102.725-.237-.14.51-.5.081-.725.237Zm.566-39.99h-.566c.191-.422.26.054.566 0Zm-.83-17.018.264.442-.264-.442Zm-1.802 86.141-.36-.883c.337-.197.337.108.72-.219l.156 1.102h-.516Zm-1.597-72.223c.078-.992.3 0 .513-.224l-.513.224Zm-.308-.457.255.232-.255-.232Zm-.78.688.308.204-.307-.204Zm-.1 71.775-.056-.885.26.668-.203.217Zm-.776-69.566-.048-.896c.307-.054.46-.327.768.23-.216.748-.56-.027-.72.666Zm-1.604-.455.316-.441-.316.441Zm-2.216-.21.363-.231-.363.23Zm-.977 0 .249-.458-.249.458Zm-1.248-.458c.324-.285.687.227 1.036.227-.115.271-.909 1.1-1.036-.227Zm-.768.458-.26-.231.36-.45-.1.68Zm-3.406-1.109.567.651-.567-.65Zm-2.274.224-.05-.455c.229-1.32.437.525.715-.435-.044 1.346-.354.768-.665.89Zm.156 39.542.465.219c-.262-.123-.31.026-.465-.219Zm-.983-.23h.675-.675Zm.36-42.412-.46-.66.46.66Zm-2.373 41.977.056-.22v-.448l.361.231-.417.437Zm-.772 19.661.46-.224c-.03.802-.244-.068-.46.224Zm-.365-15.032h.258-.258Zm-.255 14.589c.227.151.341.076.465.22l-.465-.22Zm-.26-60.528.053.203c.034.484.216-.816.207.455h-.26v-.658Zm.36-24.075-.615.225c.097-1.02.375.04.615-.225ZM16.18 6.283l.465.681-.465-.681Zm-.26 2.884.308.225-.308-.225Zm.157 64.717-.209-.224.21-.434v.658Zm1.803 0-.568-.224c.241-.122.323.394.568.224ZM15.3 8.718h.26-.26Zm-.925.449-.261-.231.261-.435v.666Zm0 63.84c-.456.755-.557-.734 0 0ZM11.69 6.734c.1-.721.437.073.667-.45-.115 1.36-.316.117-.667.45Zm-2.174.883.312-.224-.312.224ZM7.196 91.99c-.284-.68-.663-.986-.774-2.427.476-.203.864-.101 1.134.216.042 1.436-.442.62-.36 2.211Zm-2.58-11.701v-.667l.203.457-.203.21Zm68.762-26.284-.568.232c-.504.169-.576-.083-1.032.202.275-2.78 1.184-.202 1.6-.434Zm-1.033-21.199-.051.87-.155-.653.206-.217Zm.668-.23h-.462c.256.019.256-.226.462 0Zm1.138 21.66h-.624.624Zm-.206-20.994v.877l-.155-.877h.155Zm.98 14.583h-.879c.267-.11.567-.353.88 0Zm.313-14.15c.03 1.586-.334.444-.467.225.066-.95.259.029.466-.224Zm.048 14.578h-.312l.312-.66v.66Zm1.342-.89c-.235.462-.643.89-.926.462.126-.933.634-.232.926-.463Zm.934-6.813c-.257 2.264-1.251.95-1.655.204.289-1.148 1.433-.816 1.655-.204Zm.511.632h-.363.364Zm.673 13.476c-.26.502-.63.524-.976.673l.976-.673Zm.513-18.983v.885l.054-.885c.243.558.865-.496 1.237.428-.307 1.571-.994-.843-1.136.884h-.26l-.196-.885.301-.427Zm1.86.428c.234.477-.394.884-.308 0h.307Zm.772 11.26c-.326.862-.528.012-1.029.23.246-.992.645-.298 1.029-.23Zm.414 6.874c-.232 1.788-.74.447-1.082.421-.505-.034-1.04.646-1.497-.219l-.201-1.318c.291.53.536.13.817.884l.161-.884c.542.605 1.176.87 1.802 1.116Zm1.085-6.644c-.419.73-1.133.824-1.397-.23.499-.233.934.21 1.397.23Zm1.089 0c-.254.28-.97 1.468-1.036-.23.397-.172.768.55 1.036.23Zm-7.232 7.738.315-.457-.315.457Zm-.513-.224.465.66-.465-.66ZM86.026 33.9l-.26-.658.26.658Zm.255-.224.053-.87.46.87.157-.434c.03 1.51-.435-.422-.407 1.086h-.365c-.258-.168.03-1.87.102-.652Zm1.343.443-.46.21-.053-.884.513.674Zm.206-4.419-.047.897-.207-.68.254-.217Zm-.1 5.316c.255-.557.419.504.773.204l-.773-.204Zm1.648-5.1-.667.68.667-.68Zm.464-.216.053 1.114-.305.435-.155-1.095c.215.19.36.443.407-.454Zm.777 1.99h-.312.312Zm-.257 1.986.1-.87.36.436c-.062 1.004-.229.3-.46.434Zm.928-3.522v.66l-.467-.217.467-.443Zm1.392 1.312-.463-.87c.093-.748.266 0 .516-.223l.051 1.317c.213-.161.213-.161.413 0-.379.707-1.151.483-1.81.226.284-1.571.98.101 1.293-.45Zm2.376 2.653-.107.897c-.613-.462-1.199 0-1.7-.231l-.052-1.11c.447-.038 1.411.28 1.86.444Zm.517 0-.412.441.412-.44Zm-2.481.666c-.38-.497-.556.23-.875-.224v-1.116c.382.104.601-.366.875.23v1.11Zm-.98-.224-.46-.661c-.151.729-.65.6-.725-.658.428.135.834.026 1.242.434l-.056.884Zm-2.788-1.32c.268-.79.738-.367 1.036-.218l-.055.653c-.372-.326-.571-.142-.981-.434Zm-2.632 2.21c.272-1.123.57-.6.984-.435-.211 1.313-.645-.062-.984.435Zm-.827-.23.677.23c-.245-.462-.548.11-.677-.23Zm2.738 11.047h-.567c-.02-.944.629-1.524.567 0Zm-1.442 6.63h-.469.47Zm1.652-.442h-.368.368Zm1.547 0c-.164 1.305-1.024.523-1.344.441.245-1.014.766-.076 1.344-.441Zm.208 1.325-.416.877.053-.877h.363Zm.569-3.107-.52.23c.113-.748.31-.318.52-.23ZM68.474 94.64h-.209.209Zm1.345-.652-.677.428c.063-.924.423-.604.677-.428Zm.615 0-.46-.22.46.22Zm3.044-.449c-.282 1.177-.787.23-1.237.23-.4 0-.856.722-1.187 0 .745-.657 1.756-.977 2.424-.23Zm-1.34 3.977c.137-.422.313-.91.516-.441-.007 1.271-.327.333-.515.44Zm3.204.68c-.33 1.068-.629.523-1.14.647l-.1-.647c.342-.83.812-.047 1.24 0Zm.465 0-.317.428.317-.428Zm4.076 1.094c-.397.578-.85.716-1.193.436-.4-.32-1.077 1.203-1.232-1.102.9 1.005 1.514-.101 2.425.666ZM78.8 95.307a7.619 7.619 0 0 1 3.458.225c.23 1.38.83 1.17 1.242 1.769-.65 1.202-1.786-.03-2.74-.225-.803-.165-1.441-.511-1.96-1.108v-.66Zm7.792 3.537c-.382.332-1.396.277-1.704-1.102.561.23 1.259-.496 1.704 1.102Zm1.345.23h-.413.413Zm-4.389 6.186c-1.33-.257-2.994-1.379-4.077-.454-.356.306-.733 1.747-1.24 1.1-.311-1.534-.92-.42-1.34-1.759l.411-.436h-.412c-1.172-1.992-3.482-.591-4.75-3.324-.354-.028-.773.673-.928-.427.16-.84.708-.056 1.03-.67-1.26-.523-2.527.036-3.871.206l-.16-1.98c1.904-1.984 3.887.593 5.735 1.98.562.428 1.163-.353 1.598-.205l.467.878c.404.13.691-1.236 1.136-1.094.428 2.297 1.83 2.004 2.737 1.094l-.052 1.108c.256-.026.251.217.462 0 .216 1.802 1.078.83 1.293 2.658 1.178.754 1.942-.632 3.3-.462l1.188-.429c.23-1.442.97-1.25 1.24-.217.119-3.46 1.95-.925 2.528-2.658-.56-.782-1.51.285-1.651-1.325.182-.395.548.387.827-.219-.251.136-.323-.829-.515-1.108-.773-1.148-1.834-.216-2.736-.441-.238-.055-.702.048-.828-1.32.381.273.784.055 1.187 0 1.498-.203 3.185.85 4.493-.449-1.817-.34-3.175-.114-4.752-.89-1.095 1.353-2.84-.496-4.432-.428-.522.012-1.267-.176-1.709 0-.876.3-1.767-.638-2.527-.449-.38.096-.848.402-1.292.23-.267-.109-.743.314-.825-1.107.279.013.635.571.773-.449-.048-1.278-.781.252-.98-.87l.308-.897c-.51.095-1.137-.953-1.805 0 .47.768 1.11-.565 1.444.665-1.506.28-3.442.578-5.108.66-.783.048-1.682.6-2.17-.21l.206-.905c-.29-.421-1.05-.17-.826.906-.354-.159-.721.27-.826 0 .252-.776.583.127.672-1.327.457-.327 1.053-.082 1.336-1.114-.609-1.068-1.114 1.06-1.543.223.021-.591.197-.74-.053-.897-.215-.326-.008 1.163-.157 1.115-.648-.285-1.41 1.08-1.906 0l.102-1.115c.224.428.717.353.82-.422-1.067-.067-2.3-1.258-3.554-1.775 2.334-2.311 4.995 1.135 7.327-.672-.715-.053-1.396-.34-1.804-.646.289-1.21.854-1.231 1.34-1.326 1.088-.224 2.425-.075 3.404.232l.263-.681c2.007.061 4.433-1.136 5.834 0 1.377 1.121 2.732 2.7 4.28 2.877.526.054 1.017 1.066 1.55 1.542 1.753 1.537 3.447 1.66 5.162 1.545-1.172-1.837-2.676-1.768-4.024-1.993-.419-.082-1.003 0-1.345-1.094 2.287.318 4.062 1.645 6.304 0-.125-1.483-.541-.899-.728-1.761-.212-.131.048.584-.15.66-.603-.322-1.22-.56-1.814-.66-.312-.069-.793.673-1.028-.667 1.037.232 1.623.4 2.632.667.932-1.802 2.175-.721 3.301-.667.865.042 1.697-.761 2.585 0 .37-1.436 1.369.244 1.7-.883-.414-.6-1.142.176-1.441-.892l.105-.89c-1.598.306-3.683.401-5.218-.863l-.053.864-.259-.429.26-.666c-.36.067-.668-.354-1.083-.226-.056-.55.24-.864 0-.882-.228-.048-.426.08-.67 0-.588-.172-1.369-.34-1.701-1.761 1.157-.626 1.984-.137 3.298-1.116-.508-.326-1.138-.095-1.395-1.53-.626-.632-1.552 0-2.113-.904.71-.891 1.482.326 1.958-.87-.143-.646-.716.054-.356-.892-1.598-1.48-3.755.368-4.958-2.419-1.047.809-2.257-.32-3.304.216l-.308-.889c-3-.245-6.133-1.148-8.568-3.305l-.157.66-.36-1.34c-1.292.436-2.122-1.937-3.459-1.304l-.209-.673c-.452.686-.845-.572-1.394-.218-.147-.83-.591-.389-.617-1.768.257-.801.799-.408 1.031-1.313l.105-2.005c.48.754.994 0 1.495.455v1.095c2.05 1.89 4.623-2.102 6.294 1.768l.207-1.537c.974-.203 2.135 1.347 2.894 0l-.306-.456c.158-1.195.523-.197.877-.66l-.053-1.093.312-1.115c1.885.973 4.207 3.379 5.932 2.209.063.769.272.912.52.884l-.263-.885c.381.137.932-.427 1.091.66.576-1.025 1.797-.074 2.525-1.087-.071-1.788.433-1.1.673-1.557.095-1.38-.358-.4-.312-1.55l.467.89c.96-1.176 1.971.695 2.988 1.32l.523-.217c.335.074.68.747 1.03.876 1.421.55 3.017 1.318 4.131.666-1.325-.91-2.825-1.074-4.289-1.542-.21-2.428-1.499-.572-1.806-1.994.13-1.482.726-.639.986-1.102-.216-1.29-.942 1.002-1.14-.65 2.254-.633 4.096 1.379 6.502 1.971 1.23.311 2.546 1.68 3.618.883l.105.668c1.857-.858 3.783 1.433 5.261-1.102-.696-.64-1.753.306-2.269-1.102-.687.78-1.447.679-1.961-.441l.356-1.328c-.298-.285-.314.695-.562.661l-.361-.441-.36.665c-.627-.789-1.156.354-1.813-.224-.516-.456-.972-1.835-1.49-1.992-.654-.19-1.39.693-2.007-.24l-.115.009.057-.095-.207-.327c-1.018 1.38-2.526.973-3.566.653.513-1.251 1.66.183 2.069-1.53-2.632-.877-5.589-.375-7.592-1.332 1.052-.817 2.382.21 3.716-.913-.454-.584-.682-.95-1.237-.863l.308-2.426c.441.033.858.143 1.084 1.094l-.46.884c.758-.394 1.704.646 2.472 0V44.52c.35-.373.854-.061 1.032-1.127-1.67-.653-3.366-1.449-4.952-1.756-.994-.202-1.68-.455-2.324-.23-.282-1.224-.84-1.278-1.29-1.761.217-1.38.837.3 1.086-.884-1.102-2.678-2.636.027-3.665-3.31.394-.008.811-.07 1.133.223l-.416-.66-.303-.896c-.175.102.134.85-.106.666-.165-.38-.266-.109-.574.23l-.097-.896c-1.404-.054-3.747-.266-5.576-1.77 1.473-1.303 3.085-.414 4.445-.659l.148.66.155-.66c.974.81 1.878-.34 2.632.885l-.203.667c.351-.267.6 1.108.88.434-.222-.516-.375-1.257-.47-.653.086-1.434.498-.468.618-.448.37.054.687.313 1.085.231l.11 1.522.151-1.522.206 2.414c-.284.063-.305.196-.569 0 1.173 1.632 2.503 1.055 3.768 1.34 1.91.427 3.96 1.543 5.829 1.1.93-.23 2.154-.114 3.104.443.245.128.476.605.721.66.778.135 1.413-.675 2.119 0 1.251 1.202 2.884 1.474 4.183.44-.545-1.236-1.607.232-1.912-.89.594-.932.955-.026 1.497-.21-.205-.516-.22-1.25-.468-1.116-.118-1.467.541-1.25.157-1.312-.499-.075-1.623 1.557-2.07 1.095-.347 1.184-1.454 2.08-1.954.66.25-.75 1.134.033 1.083-1.328h-.465c.284-.978.885-.61 1.029-2.202-.653.64-1.397.307-1.855 1.32v-.892c-.585.546-1.727.322-2.324-.209-.139.19.117 1.033-.1 1.101-.44-.761-1.353.604-1.653-.66.344-1.672 1.158.571 1.388-1.115.857-.285 1.634.035 2.065-1.755-2.299.144-3.946 1.368-6.089.226l.312-.89h.62c.199 1.474.314-.286.668.44l.1-1.312c.203.102-.077 1.04.155 1.095l.258.217.102-1.093-.048 1.317c.38-.34 1.077.458 1.24-.665-.367.252-.755-1.224-.98-.211-.043-1.326-.182-.883-.41-1.326-.09.061.064.754-.162.666l-.1-.876c-.428.375-.842-.64-1.34.21-3.813-1.842-7.372-.536-11.1-2.44-.434 1.346-1.017.19-1.5.218-1.08.068-2.276 1.066-3.504-.217.271-1.408 1.126-1.054 1.651-.878-.898-1.332-2.29-1.707-3.406-1.332.173 1.094.567 1.223.927 1.549-.178 1.89-1.04.55-1.191-.44-1.11-.076-2.477.365-3.302-1.987-.917.055-1.913.802-2.686-1.1.6-.722 1.31.148 1.705-.885-1.921-1.897-4.316-2.297-6.35-3.325-.267-.123-.623-.842-.824.224.308.11 1.315.164 1.756 1.102-.508 1.292-1.069.428-1.552.66-.412.223-.995.68-1.448.448-.471-.225-.877-1.128-1.387-1.748-.782-.958-1.605.396-2.433.422-.56.04-.918-1.564-1.288-1.754-.254-.149-.549.442-.826.428-.508-.047-1.008-.787-1.498 0l-.206-1.319c-1.124 1.068-1.587-2.236-2.474-1.978-.356-1.664-1.09-1.366-1.756-1.578-.68-.182-1.503-1.754-1.912.24.234.543.712.047.825 1.093-.325 1.707-.791.15-1.233.245-.23.034-.428.966-.677 1.094-.43.211-.74-.393-1.08-1.339l.104-.87c-.527.53-.973-.271-1.496-.673-1.092-.796-2.295-.164-3.412-.197-.272-.027-.987-1.184-1.035.87.62.306 1.526-.626 1.655 1.755-.714.177-1.31.121-2.271.216l-.312-1.53h-.668l-.465-1.76c-.96-.855-1.912-.47-2.841-.666-.755-.163-1.48-2.102-2.167-1.109-.316-1.678-.739-1.312-1.191-1.535-2.059-1.096-3.995-.9-5.833-.225-1.076.38-2.186.04-3.3.225-1.018.137-1.939-.13-2.891 0V8.277c-.213.129-.258.972-.46 1.115l-.317-.674c-.509 1.49-1.363 1.15-1.652-.441l.316-.885-.368-.659c.753.53 1.63-.076 2.27.442-.15 1.149-.58-.394-.821.673.317.4.856 1.1 1.032-.673l.098 1.102-.047-1.102c.311-.198.782-.708.929.217l-.259.666c.216.387.592.586.773-.21l-.36-.884c2.695.129 5.542-.973 8.162 0-.7.524-1.491.64-2.178 0-1.101 1.04-2.29-.158-3.251 1.537 2.361-.13 5.041-.713 7.849-1.11-.625-1.004-1.78.097-2.322-.658.781-1.891 1.954-1.197 3.1-1.1-.388-1.592-.975-.513-1.444-.878-1.173-.945-2.757-.456-4.13-.456-3.44 0-7.2-1.143-10.329-.89-1.82-1.101-4.024-.648-6.093-.648-1.786 0-3.542-.44-5.364-.44-1.7 0-3.869-5.221-4.859 0l.107 1.537-.203.44c.187.055.62.055.822.653-.03 1.632-.326 2.142-.568 2.897C.023 17.046-.666 35.124.953 44.296l-.11 2.203c.14 2.3.428 4.282.83 5.957.163 3.35.174 7.327.415 10.394-.329 0-.731-.095-1.244 0 .379.944 1.08.538 1.396 1.74l.105 2.456C1.917 69.256 1 69.385 1.049 73.66c-.263.544-.306 2.054-.614 2.434v2.196l.462 1.108c-.064 1.673.238 1.802.259 3.1l-.312.443c1.003-.354 1.214 1.87 2.477 1.333.541 3.371 1.276 5.88 2.64 5.736.25 1.102.783 1.05.98 2.428l-.52.878c.163 2.053.808 2.013.982 3.985-.534-.505-.819-2.13-1.291-1.333.115 1.862.557 2.325.772 3.76l-.256 1.78c.23.599.29-.231.467-.448.513 2.386 1.695.795 2.113 3.746l.209-.659c1.75 2.583 3.876 3.658 5.936 4.418.63.225 1.292-.019 1.86.225 2.245.998 5.376 2.305 7.485 1.101-1.925-1.183-3.76.088-5.268-2.433l-.409.658c-.781-1.134-1.593 1.21-2.324-1.108l.256-.434c-.155-.668-.453-.729-.773-.668-.62-2.073-2.1-.215-2.636-3.079-.48-.02-1.005-.972-1.287-1.319-1.052-1.352-2.147-2.243-2.89-4.867.917.66 1.505 1.585 2.422 1.984-.45-1.53-1.214-1.714-1.496-3.984.225.23.475.346.668.666 1.124-.938 2.323 1.36 2.843 4.42-.211.877-.694.373-.828 1.095.398.034.903 1.359 1.345 1.332.236 0 .393-.672.623-.877 1.047-.953 2.149.068 3.248-.455.135-.666.327-1.095.672-.862l.413-1.116c2.05.136 3.983-.199 5.78 1.543 1.277-.612 3.018 1.767 4.13 3.97l-.202 1.549c1.085-.42 2.56-1.312 3.248-1.318l-.053 1.102c.261-.578.68 1.448.825-.43l-.515-.454c.16-.713.649.096.927.231l-.253 1.088.31.238.155-1.326c.412-.246.817.292.669 1.754.441.149 1.045 1.094 1.184 0 .111.747.379.768.674.667l-.15-1.552c.248.247.56-.828.667.219l-.517.666c.425 1.414 1.375.864 2.169 1.115.643.21 1.35.286 1.757-.224l-.518-.224-.155-.884c-.3.639-.594.312-.824.884l-.16-1.095c.5-.095 1.495-1.461 1.864 1.095.334-.171.976 1.21 1.444 0-.26-.415-.85.482-1.136-1.333.944.054 1.815.074 2.58.238l.052 1.095.516.224.152-1.319c.796.183 1.752.19 2.586.428l-.106 1.325c.428.32 1.196 1.749 1.34-.658l-.464-.45c.758.334 2.41-.243 2.895 1.108l.098-.877c.527-.128.973.524 1.294-.665.755.061 1.931 1.44 2.478.217-.572-.101-1.037.265-1.345-.666.662-.518 1.46.367 1.814-1.768 1.547.939 3.031.625 4.643 1.768l-.152.883c2.803 1.028 5.472-1.971 7.744.45-.7.802-1.523 2.181-2.12 2.651h.569l.048.891c.021-1.809.697.258.984-.891l.62.666c.721-1.584 1.457.272 2.166-.435l.057-1.325.255.414c.403-1.149 1.883-.633 2.733-1.971l.465 1.332c-.34-.319-.748.687-1.19.639.702 2.297 1.78-1.273 2.322-.414l-.201.876c.612-.565 1.332-1.345 1.96-.68.144-.475.312-.877.517-1.095l.207.449c.294-1.23 1.964-1.128 2.477-.883l-.724 1.747c.364 0 .605-.36.932 0 .671-2.489 1.624-1.273 2.68-1.313l-.413 1.095c.483 1.313.999-.326 1.392-.646.317-.265.874.056 1.344 0 1.456-.182 3.122-.332 4.444 0 .493-1.006 1.289-.42 1.804-1.774-2.104-1.427-4.466-1.155-6.503-1.531" fill="#100F0D"/></svg>