<svg viewBox="0 0 115 177" fill="none" xmlns="http://www.w3.org/2000/svg" preserveAspectRatio="none"><path fill-rule="evenodd" clip-rule="evenodd" d="M67.901 166.935c-.273-.223-.675-.575-1.16-.657-.413-.08-1.094.265-1.113-.453 1.13-.094 2.121.162 2.563-.948.658-.129 1.558.054 1.69-.732-.825-.731-1.792.563-2.562-.073-1.256 1.007-2.665-.604-4.025-.068l.411.947c-.346.182-.618-.196-.872-.365l.177-.514c-.314-.632-.475.162-.936.154l-.406-.589c-1.058.054-1.493.054-2.455-.305l-.239.373c-.357-.474-.94-.765-1.21-.068-.277-.197-.551.027-.997-.149-.307.595-1.294.074-1.57.584l.345.581c-2.667.433-5.296.257-7.634 1.388-.112.19 0 .664-.238.671-.78-.035-1.194.385-1.978.366l-.117-.521c-.3.568-.598 1.109-1.459.953l-.121-.359c-1.022.413-1.702-1.42-2.506-.216l.239.575c-.594.116-1.175.244-1.565.597-.568-.259-.83.406-1.12.738-.337.068-.693.141-.637.723.876.083 1.58-.71 2.45-.723.556-.021 1.084.061 1.635 0 1.691-.19 3.417-.854 5.468-.961.79-.305 1.773-.273 2.749-.435.947-.162 1.98-.277 2.799-.155-.846.406-2.051.372-2.92.745-1.524.961-3.595 1.245-5.59 1.612l-.236.216c-.457.089-.947.129-1.17.508.306.711 1.3-.223 1.757.372.22.061.095-.318.344-.223l.06.291c-.537.075-1.104.081-1.347.523.106.263.426.248.65.363.56-.384 1.194-.27 1.86-.296l.528.074c-.353.143-.976.502-1.287.222l-.88.881c.253.388.785.17 1.001-.067l.347.433-.29.137v.595c.323-.365.612-.088.928-.595.338.08.576.277.819.453.112-.257.349-.338.587-.453.982.785 2.821-.597 3.726.162l.82-.083c-.182.339-.824.13-1.346.374l-.518.649c1.408.312 2.4-.04 3.733-.141.13.643.72.27 1.042.657l-.462.526c.239.381.954.015 1.515.13l.176.217c.7-.236 1.049.846 1.859.454.172.006.07.345.298.291.516-.922 2.192-.075 2.912-.515v-.521c-.53-.135-1.296.02-1.579-.441.353-.075.835.036.764-.568-.163-.345-.543.054-.764-.162.177-.522.768-.461 1.23-.434l.232-.433c.457.073 1.053-.02 1.4.217.185-.36.51-.536 1.045-.441l.23-.744c-.163-.373-.61.019-.923-.218v-.291c.47.068.835-.02 1.053-.291l.517.441c.682-.075 1.026-.618 1.69-.74l-.293-.805c-1.307-.047-2.563.909-3.26-.508.956-.019 1.975.013 3.214-.216l.218-.446c-.642-1.26-2.344-.062-3.315-.219l-.177-.514c-.812-.148-1.728-.522-2.097.373.819.115 1.503-.047 1.925.439-.523.09-1.408-.019-1.17.807.294.088.647.115.698.514-.365.061-.674.765-1.053.366-.435.435-1.05.597-1.625.583l.353-.291-.294-.367c.755.345 1.075-.162 1.687-.433v-.521c-.925-.568-2.353-.474-3.558-.737l.525-.51-.291-.656c.342 0 .302-.46.478-.665.552.007.654.576 1.16.665l-.243-.961c-.69-.237-.91-.793-1.797-.664v-.284c1.282.02 2.212-.061 3.143.216l.239-.433c-.976-1.097-2.92.034-4.084-.522.6-.589 1.582-.319 2.393-.373.384-.013.779-.141 1.103-.209.32.433.963.46 1.448.656-.079.482-.34.313-.571.514.465.151.905-.018 1.163.299-.258.563-.753.169-1.163.218-.4.047-.673.324-.994.507.916.365 1.6-.089 2.279-.216l.112-.373.41-.068c.323.5 1.17.331 1.579.732l-.709.432c.356.089.334.624.47.962l.407-.067-.062-1.47c.856.047 1.627.251 2.219.439l.116-.439Zm-28.385-6.67c.686.021 1.324.474 1.973.075l-.06-.664-.75-.157c.234-.216.923-.141 1.174.089v.732l.572-.293-.293-.439c.264-.617.92-.765 1.58-.521l.283-.374.187.374.173-.442c.76-.101 1.448.165 1.922-.284.042-.724-.784-.352-1.057-.663.784.183.922-.589 1.404-.954l.344.365.413-.365-.232-1.098c.369-.304.804-.196 1.17 0 .15-.108.186-.365.408-.372 1.623.189 3.59.163 5.245.217.33.027.75-.264.99.155.536-.25 1.467.176 2.03.359.17.251.468.813.773.439-.548-.906-1.112-1.78-1.989-2.267l-.055-.373c-.336-.169-.775-.195-.76-.805.647.027 1.599-.035 2.153.075 1.07.195 2.596-.347 3.328.514.168-.521.574-.746 1.166-.739l.29.739.293-.665-.466-.074.06-.582c-.45-.42-1.082-.244-1.874-.298-1.193.873-2.625-.372-3.665-.142l.113.372c-.506-.074-.625.345-1.11.278l-.288-.508c-.234.082-.36-.027-.704 0l-.178.67c-.217-.21-.628-.034-.813.068-.203-.25-.417-.447-.812-.284l-.115-.379c-.336.365-.349-.204-.695-.217-.526.183-.936.487-1.466.65-.32-.217-.34-.149-.76-.054-.159-.116-.249-.325-.468-.379-.187 0-.187.237-.404.223-2.677-.392-5.68.617-8.16.372l-.117.435c.284.195.48.521.816.662.212-.04.15-.399.345-.44.673.203 1.26.522 1.993.658-.525.284-1.539-.049-1.695.745l.525.276c-.254-.074-.192.252-.4.225-.304-.3-.627-.068-.88 0-1.08.263-2.89-.183-3.15.582.554.087.883.453 1.576.366l-.23.364c.899.861 2.053-.222 3.197.449-1.175.317-2.556-.043-3.905.148-.45.284-.965.501-1.457.657-.713.223-1.645-.136-2.442.074-.236.054-.435.264-.638.298-.536.054-1.148-.115-1.7-.081.263-.65 1.078-.596 1.226-1.387-.43-.169-.294.406-.528.507-1.183.271-3.812-.284-4.722.961 1.225.672 2.607 0 3.79-.44l.124.278c-.331.189-.552.489-.472 1.185.207.055.446.088.472.358-.207.109-.492.136-.709.231l-.108.59c.47.446 1.135-.069 1.698 0 .858.094 1.911-.122 2.965-.293.194.259.624.246.871.422.13-.176.33-.251.647-.204l.164.514c.41.109.485-.182.708-.31.528-.048.67.371 1.049.528l.117-.732Zm-9.852-13.639c1.417-.257 3.417-.142 4.898-.224.826-.054 1.612-.169 2.4-.223.587-.047 1.172.183 1.737.223 1.013.061 2.552-.162 3.792.061.36.082.31-.047.634-.061.552-.033 1.026.109 1.512.143l.062.298-.344.217c3.65.717 7.1.114 11.24-.299.258-.311.687-.413.987-.643.18.413.63.481 1.183.427l-.126-.737-.285.223-.413-.807c1.535-.366 2.515.53 3.731-.061l.349.142.647-.365-.232-.237c.223-.338.607-.115.987-.129.249-.027.505-.203.748-.223.903-.081 1.834-.081 2.801-.149.137-.516.314-.983.596-1.328.766 0 1.318-.026 2.088.075.495-.433 1.59-.373 2.272-.359.75-.603 1.605-.488 2.446-.746-.283-.148-.528-.209-.806-.507.37.047.892-.094 1.161.075-.042.202-.448.148-.23.432.259.178.846.293 1.043.3l.119-.143c.19-.589-.437-.441-.23-.806h.462c.086-.21.145-.461.355-.522 1.364.049 2.808-.636 3.907-.954l-.876-1.165c-.208.15-.729.542-.932.217l.638-.8c-.4-.494-1.112.373-1.633.428-.215.013-.175-.313-.457-.216-1.045.581-2.548.101-3.565.216l-.353.223c-.588.142-1.296.007-1.98.082a6.162 6.162 0 0 1-2.036-.15c-.39.434-1.375.366-1.686.664v.433c.218.339.761-.088.863.292l.18-.367c.025.359.252.041.467.143.251.141.36.475.637.521.597.116.634-.427.994-.664.404.061.65.305.87.597.348.244.496-.265.763-.23.168.032.223.312.473.297.22-.007.298-.175.571-.217l.475.293.806.073c-.473.164-1.024-.087-1.508.15l-.066.656c-.375.074-.062-.692-.4-.656-.218-.014-.015.514-.238.507-.466-.075-.735.007-1.104-.155-.207-.007-.218.23-.41.23-1.027-.089-2.543.08-3.848.148-.37.014-.77-.115-1.108-.074l-.466.217c-.441.101-.918-.053-1.333.08-.256.151.123.394-.121.509-.292.101-.815-.109-1.226-.074l-.11.589c.43.677 1.71-.074 2.212.433-1.938.427-3.919.237-5.883.374-1.245.561-2.764.079-4.086.654-1.327.029-2.85-.059-4.139.083-1.19.115-2.194.115-3.384 0-.349-.04-.687.101-.936.142-.85.122-1.797-.115-2.623-.074-1.805.081-4.216-.136-5.532.663l-.518-.217c-.353.637-.78.251-1.294.217-.311-.027-.59.149-.927.216-1.205.244-2.887 0-4.192.374-1.12.297-2.72.068-3.843.427-.79.263-1.727.12-2.395.737 1.62.468 4.183-.129 5.768.081Zm30.072-11.668c-.326-.534-1.349-.515-1.808-.148-.452-.496-1.444 0-1.803-.509-.298-.034-.545.244-.755.068-.232-.048-.404.637-.874.528.858.514 1.428 1.408 2.799 1.301v-.799l-.411-.291c.486.345 1.26.04 1.748.291l.232-.359c.267.075.305.446.578.507l.294-.589Zm-29.262-18.12c1.644.299 3.172.345 4.78 0 .641.529 1.891-.161 2.458.38l.283-.162c.159.127.243.357.466.38-.016-.989.675-.483 1.165-.518.768-.046 1.695-.345 2.506-.287.238.011.434.207.638.207.492.034.97-.219 1.412-.276.612.46 1.424-.265 2.153 0 .238.333.876.391 1.167.069 1.8.149 4.058.656 5.296-.069-.223-.058-.408-.173-.698-.15l-.348-.817c.307-.149.615.092.768 0l.055.518c.775-.207 1.09-.092 1.576.368.658-.598 2.02.552 2.43-.368 1.089.127 2.045-.207 3.446-.069.544.644 1.95-.069 2.164 1.093-.384.184-.674-.115-.994-.219-1.26.253-2.547.346-3.843.3-2.035-.092-4.518.299-6.538.437-.523.046-1.104-.276-1.632-.219-.278.023-.54.253-.805.299-1.382.173-3.223-.08-4.263-.299-.446-.103-.96.127-1.39-.149-.861.23-2.36.195-3.155 0-.214.207-.658.149-.766.506.386.725 1.503.115 1.819.955.424.08.996-.035 1.28.23l-.34.517h.801l-.233-.598c.16-.08.415-.08.638-.08.112.264.147.621.414.678l.117-.379c.283-.104.548-.069.694.149.87-.517 1.929.575 2.744-.368.218.299.902-.011 1.108.299l.174-.299c.85.069.965.334 1.578.299.208-.046.113-.448.407-.379.205-.012.121.356.353.299 1.437 0 3.08-.15 4.602-.219l.409.15c1.276-.012 2.37-.23 3.726.069l.188.379c-.824-.057-1.32.081-1.813.288l.294.736c-1.903-.207-3.943.276-5.426-.448-.426.287-.907.218-1.338 0-.223.437-.08 1 .23 1.173.24-.219.794-.058.87.368-.577.104-1.201.138-1.57.518v.736c.38.449.9.334 1.408.656.482-.161 1.422-.242 1.62.368-.609.081-1.819-.219-2.5.207-.442-.368-1.03-.253-1.64-.357-.477-.069-.934-.345-1.46-.448-1.585-.265-3.276-.127-5.061-.276-.583-.069-1.124-.23-1.572-.23-.576.011-1.128.276-1.57.23-.604-.081-1.017-.104-1.761-.15-.5-.046-1.492-.034-1.517.426-.022.552 2.369.978 3.038.966 1.911-.058 4.282.587 6.353.736.896.518 1.918.345 3.205.507.8.448 1.918.529 2.737.954.506-.287 1.322.023 1.749.299.256.035.686-.138.697.207l-.819.15-.108.518c.903.92 3.232.379 4.024 1.024l-.121.655c.227.081.726-.172.76.161-.102.254-.48.185-.76.208l-.12-.369v.369c-.335-.023-.73.184-.867-.208-.951.104-1.755.484-2.74.729l-.399-.15c-.81.277-1.742-.233-2.689-.072-.86.14-1.59.532-2.276 0-1.29.059-2.986.032-4.192-.081l-.36.371c-.472.005-1.001.116-1.459 0-.403-.11-.704-.705-.986-.371l.457.437.068.449c.983.047 1.506-.115 2.148.297l.075.718c1.236 0 2.68.122 3.954.298.492.827 1.353.358 2.395.589.84.203 2.126.069 3.088.216l.523.231c.291.047.56-.083.874-.075.917.014 1.738.434 2.506.582.539.102 1.002-.054 1.464.217.542-.182 1.361.196 1.745-.433.144.04.124.277.345.216l.293-.582c.28.223.555-.162.873-.156.95.434 2.874-.013 3.964.44.192 0 .22-.195.47-.134.75.365 2.188-.122 2.435.873-.267.258-.283.704-.166.962-.249 0-.375.129-.516-.082.256-1.286-1.514-1.286-1.636-.291-.148-.156-.298-.373-.532-.224l.234.888c.42.371.78.371 1.523.366.307.533 1.21.324 1.457.948.481-.041.594.318.932.291.735-.041.695-1.354 1.57-1.328l.178-.866-.466-.577c1.086.163 1.821-.622 2.276-1.482.865.062 1.656-.19 2.33-.211.933-.047 1.99.143 2.555-.676.395.399.954.209.939-.285-.012-.507-.627-.433-.877-.582.457-.245.462-.999.344-1.621-.302.058-.187.415-.116.668-.338.046-.424.349-.694.431-.408.137-.677-.183-1.103-.209-.561-.042-1.089.528-1.462 0 .252-.521.96-.452 1.226-.959.262 0 .388.196.571.069l.075-.575c-2.247-.989-5.132-.241-7.527-.598-.016-.219.238-.265 0-.357-.382.161-.64.46-.987.437l-.234-.207c-.47-.126-.27-.184-.525-.379-.336-.265-.74-.127-1.106-.219.02.828-1.144.875-1.574.656l.289-.288c.219-.034.216.23.356.288l.412-.805c.594-.138 1.197-.875 1.854-1.162.744.172 1.559.23 2.095.655.279-.23.279-.161.645-.08.733-.276 1.437-.299 2.152-.219 1.614.184 3.305.081 5.082.219l.642-.081c-.353 0-.591.138-.642.518.183.449.786-.08 1.042.299l-.06.219c-.78-.242-1.23.069-1.989-.15-.223.644.53.667 1.007.736.689.081 1.377-.161 1.922-.149.21.276.658.241 1.049.299.066-1.15-1.163-.656-1.636-1.104.133-.196.023-.702.239-.806 1.382.219 1.99-.425 3.267-.23.211-.057.267-.333.466-.425.545-.127.662.172 1.101.138.152.138-.236.437.117.437.336-.012.055-.345.106-.656-.6-.598-1.66-.633-2.137-1.403-.51 0-1.335.299-1.633-.138l.11-.656c-.232-.552-1.254-.138-1.461-.736.5-.231.984.184 1.518.149l.056.518c.287 0 .247-.368.591-.288.223-.034.148.334.34.357.344-.437 1.245.414 1.64-.161l-1.16-.656c.233 0 .397-.104.683-.069.223-.644 1.393-.334 1.164-1.323 1.033.023 1.54-.61 2.39-.794.318.092.521.081.654-.218-.29-.414-1.029-.633-1.585-.679-.698-.046-1.422.103-1.914.379-.075-.138.207-.563-.115-.667l-.057.667c-.426.173-1.007-.057-1.28-.287-.493.31-1.073-.138-1.52-.311.122-1.093 1.55-.276 2.33-.655l.289-.955c-.912-.955-2.42-.702-3.671-.737-.963 0-2.579-.23-3.788-.138-.428.035-.881.3-1.168-.149l-.23-1.093c-.834.207-1.39-.115-2.048.23l-.815.138.294.518c-1.698.276-4.168-.127-5.883.276-.285-.621-.527-.886-.527-1.829.477-.092.77-.449 1.044-.806.576.058 1.006-.322 1.755-.368l.461.299c.41-.402.885-.287 1.163-.805.239-.046.711.288.7.069-.528-.506-1.44-.483-1.863.069-.598-.264-1.2.242-1.625-.138-.329.368-.887.529-1.225.138-1.075.46-2.735.805-4.024.598.93-1.173 2.768-.736 4.088-1.403l.63.23.414-.15c1.338.541 2.563-.713 4.13-.23l-.119.817c.276.023.885-.023 1.058-.368-.35-.242-.493-.23-.751-.138l-.064-.38c1.011.115 1.492-.414 2.499-.299.472-.471 1.378-.011 1.693-.713.967.023 2.177-.368 3.214-.299.475.034.87.368 1.23 0l.755.656c-.42.379-.574-.449-.877.138l-.298-.288-.176.368c-.599-.103-1.464-.126-2.042.288l-.172-.207c-.78.126-1.382-.115-2.278 0l-.06.736-.4.276.055.23c.466.035.38-.587.753-.736.537-.219 1.291.138 1.757.299.579-.529 1.108-.184 1.919-.38.159.104.101.472.355.449.27-.115.298-.506.587-.587 1.027.518 2.704.311 3.488-.448.25.759 1.453.345 1.687.218l-.528-.506c.36-.034.42-.15.88-.299l.063.587c1.284-.184 2.5-.184 3.613-.219.031.299.011.644.3.587l.166-.736c.37 0 .578-.15.708.23.14-.587.71-.426 1.212-.656.733-.334 1.12-.667 1.872-.529l.058-.645c-.822-.276-2.39.541-3.212-.31.852-.046 1.479-.035 2.28-.276l.225-.518c.665-.115 1.318-.426 1.64-.725-.2-.138-.5.127-.708.196-.243-.667-.824-.196-1.278-.127-.568.069-1.338-.126-1.691-.23-.781-.195-1.48.161-2.27.161-.962 0-1.847-.195-2.739-.161-.834.046-1.797 0-2.572.23-.297.081-.547.334-.87.357-.394.046-.79-.127-1.165-.069l-.115-.518c-.21.046-.448.081-.587.23l.236.288c-.512.356-1.112-.322-1.573-.518-.082.253-.181.46-.415.518-.356-.288-.563-.874-1.038-.955-.183-.023-.664.265-1.06.219-.434-.046-.904-.023-1.34.149l-.055-.656h-.583c0 .369.287.357.064.656-.392-.379-.717.23-1.28.069-.165-.195-.207-.529-.42-.656h-.586c-.173.702-.853.357-1.57.38-.709.012-1.022.046-1.28-.449-.821.162-2.022-.011-2.958-.218-.693.379-1.6.023-2.228.287l.36.38c-.121.46-.618.276-.936.276-.743.023-1.53-.092-2.278-.069-1.514-.448-3.404-.426-4.956-.587-.066-.184-.022-.506-.233-.517-.956.057-1.923-1.346-2.855-1.53-.293-.058-.082.529-.293.575-.802.242-2.07-.518-3.142-.069l.52.886c-.944-.622-2.453.126-3.383 0-.26.069-.295.402-.527.506-.49-.104-1.08-.081-1.453.149.592.541 1.413.679 2.031.817l.13.575c1.65-.103 2.987.76 4.603.944l.29.886c.407-.081.505.23.756.379.336-.08.97-.115 1.049.357l-.409.069-.108.587c-1.858.575-4.434.632-6.536.816-.36.035-.859-.287-1.104.219l.347.587c-2.39.276-4.76.161-6.815.943l-.117.61c-.485-.046-1.075.069-1.459-.092l-.176.805-.415-.219c-1.014.207-1.906.046-2.855.518-.381.092-.867 0-1.154 0-.638-.011-1.572.207-2.097.161-.486-.069-1.327-.414-1.062.564Zm36.664-15.174c-.312-.207-.671.103-.81.368-.484.138-.978-.195-1.398-.368-1.799.621-4.07-.207-6.234-.288-1.183-.057-2.375-.506-3.326 0l.583.449-.411.357c.523-.058 1.04.644 1.753.805h.576c.81.207 1.655.805 2.329 1.024l.183.506c.506-.012.693.357 1.104.23.37-.115.43-.84.876-.817l-.057-.863c2.03.679 4.004.541 6.057 1.162.536-.391 1.062 0 1.574.081.682.103 1.41.08 2.212.207l.355.23c.616.196 1.331.161 1.978.288.47.092.896.356 1.28.448.563.115.883-.149 1.409-.218.642-.115 1.33.023 1.984.069.254-.391.83-.368 1.225-.587.219.69.704.357 1.1.288.567-.092 1.381.586 1.808 0 0-.403-.296-.817.17-.875.198.253-.201.944.183 1.024.426-.126.075-.656.121-1.093-.435-.241-.87-.667-1.35-.218-.489-.713-1.197-.334-1.866-.299l-.4-.15c-1.01-.08-2.16-.184-3.093-.069-.485-.61-1.64-.391-2.571-.426-.978.553-2.662-.264-4.13-.092-.457.046-.588.299-.936.23l-.406-.23c-.188-.023-.376.138-.588.092-.231-.08-.45-.161-.576-.161-.28-.023-.147.449-.472.357-.212-.38-.607-.196-.806-.506l.57-.955Zm45.527-9.595c-.471-.172-1.144-.414-1.519-.517h-.583l-.34-.219c-1.027-.218-2.055-.287-2.804-.587.25.023.426-.046.528-.23.084-1.139-1.194-.678-.987.08-2.461-.586-4.629-1.161-7.353-1.322-1.112-.506-2.96-.104-4.258-.288-1.817-.276-3.422-.92-5.062-1.185-.298-.046-.649.07-.986 0-.446-.069-.872-.425-1.296-.437-1.428-.057-3.276-.414-4.658-.656l-.294-.218c-.962-.035-2.1.138-2.618-.449l.29-.437c-.521-.184-.978-.345-1.16.288-.562.195-1.196-.53-1.701 0-3.109-.932-6.658-.61-9.614-1.38l-.06-.519c-.518-.184-.993-.414-1.505-.586-.263.069-.338.38-.713.299l-.282-.667c1.72.023 3.461 1 5.015 1.254.386.115.78.655 1.161.345-.563-1.277-1.91-1.22-3.088-1.76l-.356-.276c-.406-.15-.88-.081-1.284-.22-.583-.206-1.106-.69-1.627-.885.313-.31.912-.276 1.11-.725-.198-.195-.344-.46-.649-.517 1.194-.346 3.376.77 4.43-.08l.592.218c.157-.046.035-.484.294-.426.293.472.653 1.001 1.393.725l.293-1.024a.944.944 0 0 0-1.636-.587c-.851-.713-1.666-.748-2.799-.805.31-.357.705-.587.698-1.323-.455-.725-1.17-1.07-1.984-1.024v.219c.253.529 1.11.264 1.463.655-.404.541-1.353.047-1.976.357l-.293-.138c-.036.53.395.08.638.3.207.356.805.206.931.655-1.167.023-2.326-.196-3.382.299-.205-.242-.858-.265-1.057-.3l-.044.588c.311.092.702.092.865.368.592-.138 2.005-.035 2.8.38-.775.207-1.733-.081-2.678-.081l-.18.368c-.443-.368-1.187-.138-1.86-.288-.623-.15-1.283-.736-1.572.07l.528.655c-.693.288-1.994-.403-2.391.219l.517.725c1.084.045 1.69.678 2.744.736.273-.334.598-.173 1.053-.288.445.863 1.67.725 2.152 1.553-1.007.012-1.898-.679-2.916-.828-1.429-.184-3.007-.046-4.373-.656.525 0 1.119.08 1.168-.517-.495-.023-.932-.242-1.336 0v.598c-.784-.035-.837-.161-1.578-.08-.724-.53-1.768-.22-2.325-.875-.689.241-1.302-.564-1.576.069.053.449.397.218.691.218.322.357 1.015.472 1.397.518.217-.034.122.345.347.288.39.115.837-.265.943.15-.358.724-1.164-.38-1.402.517.614.794 2.125.449 2.682 1.323-.693.264-1.638-.092-2.506.357.162 1.3 2.223-.45 2.568.667l-.994.218c.21.38.603.07.994.07.51 0 1.123.183 1.64 0 .25-.081.41-.38.627-.438.962-.218 1.9.898 2.744.288.355.46 1.053.495 1.4.966.822-.15 1.71.161 2.5 0 2.323.782 5.219.207 8.115.794 1.36.288 2.565.449 3.836.518 1.303.448 3.078.448 4.32.586l.455.368c1.097-.16 1.828.415 2.744.22.197.057.192.356.415.367 1.064-.126 1.978-.046 2.857.437.728-.207 1.774.184 2.505.449-.795.184-1.56-.207-2.34-.3-.42-.057-.88.105-1.331 0-.208-.057-.39-.206-.587-.218-.548-.034-1.077.426-1.519.07l-.461.287c-.31-.851-1.234-.483-1.868-.207-.081-.092 0-.403-.238-.3l.415.668c-.334.633-1.358.391-1.923.736l-.344-.15c-.66.311-2.477.472-2.861-.23.982-.356 2.106-.045 2.79-.724.565-.058 1.34.161 1.583-.3-1.148-1.495-3.77.116-5.077-.874h-.815l-.181-.437c-.28-.08-.543-.207-.867-.23-.572.184-.263 1.07-.643 1.392-.265-.552-.962-.15-1.457 0-1.084-.471-2.543-.356-3.847-.506-4.97-.598-10.455-.84-15.386-.805-.764.011-1.51-.058-2.214 0l-.47-.3c-.658.46-1.444.093-2.157.507-.298.034-.85-.265-.928.299.61.851 1.272.08 1.914 0l.477.15c.42-.035 1.08-.104 1.632.069.236.08.454.402.757.437.315.034.638-.173.989-.138.187.023.373.172.587.218.931.15 1.669-.138 2.03.587.212-.08.738-.15.941 0-.035.54-.845.702-1.113.299a8.104 8.104 0 0 1-1.64.357c-.589.057-1.384 0-2.088 0-.894 0-1.821.069-2.448 0-.543-.046-1.19-.668-1.404.08.294.449 1.115.07 1.28.506-1.362.161-2.682.058-4.068.08l-.179.737c-2.56-.126-6.51.219-9.329.506-.203-.425-1.013-.103-1.397-.287-.675.713-1.737-.31-2.507.368l-.404-.53-.402.369c-.252-.138-.557-.518-.894-.288v.368c.223.196.474-.057.764 0 .216.265.715.633.99.357.294.587 1.054.138 1.52.53.28-.254 1.068-.162 1.29.149-.289-.07-.6.092-.88.138-.263.057-.72-.115-.76.299 3.526.76 6.978-.035 10.376.517-.214.426.317.357.176.656-1.93.403-4.304-.103-5.538.725.145.345.36-.046.576-.069.735.92 2.516.219 3.737.437.532.104.91.472 1.342.07.713.436 1.861.126 2.733.448l.466.287c.85.139 1.757-.183 2.627-.069l.47.208c.857.218 1.898-.127 2.801.172 1.651.506 3.879.127 5.76.426.867.333 2.335.299 3.207.368.24.61 1.022.115 1.223.736-.272.276-.612.3-.932.288-2.6-.07-5.123-.058-7.814-.07-.225 0-.512.012-.75 0-3.751-.379-7.559-.057-11.362-.218-.318-.575-.753-.126-1.173-.08-.669.08-1.454-.369-2.041-.357-2.455.046-5.195-.023-7.64.069-2.691.104-5.466-.449-8.155.07-1.024-.15-2.485.137-3.318.448l-1.296.138c1.089.103 2.062-.104 2.81.598.22-.046.224-.357.402-.46l.237.529c1.165.184 2.405.38 3.507.219.31-.058.676-.334 1.1-.369.66-.046 1.377.219 1.748-.15.271.047.485.173.752.231 2.016-.725 4 .08 6.13-.15l.34.495.076-.276c.578-.253 1.865.3 3.013.219a12.781 12.781 0 0 0 2.157-.438c.891.058 1.472-.011 2.05.357.285-.253.974-.345 1.331-.207.524.173.736.138 1.402.069 1.018-.115 2.34.115 3.444.07 2.492-.116 5.357-.024 7.695.149l.642.057c1.215.265 2.462.046 3.433.23.197.035.38.196.587.23.7.058 1.526-.103 2.265 0 .52.058.987.322 1.466.07.618.528 2.227.943 2.74.149l.229.425c-.3 0-.36.3-.466.53-.218-.069-.245-.38-.587-.299l-.113.586c.404.092.84.046 1.221 0v-.817c.48-.149.865-.08 1.34-.207.461.783 1.737.058 2.214.737.232-.472 1.155-.541 1.163.207.384-.058 1.428.057 1.87.368.307-.012.157-.587.47-.575.46-.115.342.494.583.644.384.034 1.254.034 1.512.449 1.033-.058 2.682.391 3.62-.3 1.546.254 2.972.139 4.435.806l.45-.138c1.773.633 4.148.563 6.064 1.173.108-.069.078-.299.305-.23.38.598 1.073.771 1.746.437.02-.794.826-.598 1.166-1.001.947.737 2.304.058 3.198-.31v-.506c-.865-.472-1.918.77-2.673.207-.236.08-.278.402-.587.368-.45-.426-1.104-.414-1.691-.656-.42-.172-.749-.529-1.159-.656-.567-.172-1.17-.161-1.808-.287-.783-.173-1.32-.173-1.984-.299l-.358-.438c-.208.357-.501-.069-.76-.069l-.344.219c-.214.011-.512-.15-.82-.15-.74 0-1.696.334-2.323.15l-.362-.219c-.87-.149-1.806.15-2.545-.149.333-.449 1.128-.219 1.675-.219l.243-.736c1.033.069 2.156-.196 2.967.449.183-.023.077-.403.284-.38 1.259.138 2.267-.495 3.446-.598.279-.012.532.15.815.15.563-.012 1.404-.277 1.81-.357.651-.138 1.554-.104 2.276-.07 1.792.081 4.481.518 6.11.07.629.207 1.049.69 1.874.667.477-.357.749-.966.643-2.06-1.214-.62-2.663-.482-4.086-.356-.323-.679-1.053-.679-1.453-.08l-.238-.23c-1.089.54-2.252-.553-3.43-.15-.857-1.058-2.63-.518-3.919-.345-.523.046-1.161-.127-1.505.276.344.472.982-.15 1.342.357.168-.323.783-.357 1.048-.058-.951.23-1.964.575-3.028.725l-.298-.207c-1.347.644-2.502 0-3.965.356-.369-.034-.651-.299-1.042-.356-.25-.046-.872.172-.993.138l-.764-.138c.133.46.528.172.764.437-1.914.08-4.283-.046-5.951-.955-.25.046-.27.38-.52.437-.357-.276-.783-.057-1.225-.287l.28-.518c-.257-.035-.445-.161-.633-.3-.238-.057-.148.311-.355.3-1.27.253-2.486-.23-3.72-.15-.249-.356-.997-.057-1.114-.586-.298.31-.45-.219-.709-.219-3.71-.426-7.17.173-10.658-.587.214-.31.782-.345.532-1.035 1.241-.702 3.11.161 4.663.31.82.058 1.576.162 2.39.208.642.471 1.631.529 2.556.655.197 0 .042-.437.294-.356.673-.104 1.009.448 1.397-.08.76.839 1.883-.46 2.334.528 1.33.161 2.664-.23 3.905.058l.46.219c.668.103 1.332-.23 1.99-.219l.47.219c.75.184 1.757-.196 2.51-.07l.34-.368c1.985.242 3.777-.253 5.837-.586.335.517 1.52-.104 1.569.586 1.534-.345 3.56-.586 5.353-.287.4.069.749.38 1.128.448.971.161 1.793-.184 2.729.058l.525.449c.638-.311 1.327-.576 2.035-.806.38-.909-.373-1.415-.693-1.91-1.452-.275-2.945-.402-4.49-.506-.287-.034-.795.207-.932-.31 1.217-.357 2.619-.84 4.025-.288.461-.644 1.326.31 1.808-.138.724.127 1.331.403 2.152.426.936.46 2.247.425 3.322.736.971.288 1.896.828 2.859 1.024.43.104.814.092 1.225.218.344.127.673.415 1.044.518 1.128.334 2.408-.16 3.499-.368-.016-1.622-1.221-1.438-2.335-1.818Zm-95.588-8.283-.47-.46h.582c0 .3.005.587.237.599.556.184.45-.472.75-.599.064.23-.004.61.237.599 1.622.046 2.988.402 4.258.586 2.132.31 4.313.127 6.646.357.897.103 2.086.069 3.142.15 1.997.172 3.988 1.161 5.664.874 1.945.471 4.87.46 6.874.886.243-.3 1.247.115 1.514-.357.113-.943-.87-.656-1.397-.736-.649-.104-1.437-.357-2.216-.449-1.303-.15-2.685.126-3.5-.437 1.58.218 3.175-.058 4.597.069 1.16.115 2.41-.046 3.448.23.293.069.54.334.81.437.497.173.87.196 1.287.357.459.207.88.644 1.276.736 1.309.322 2.342-.265 3.441-.437v-.587c-.285-.391-.907.115-1.099-.368.536-.334 1.013.161 1.687-.07-.294-1.46-1.813-.954-2.977-1.172-.573-.115-1.31-.472-1.98-.208-.207-.057-.004.426-.233.357-1.464.587-2.146-1.093-3.437-.517-1.146-.334-2.29-.323-3.382-.22-.764.07-1.526-.149-2.329-.218-2.137-.172-3.993-.011-6.066-.31-.44-.046-.881-.265-1.344-.276-.34-.023-.676.08-.983 0-.69-.173-1.62-.115-2.512-.22-1.519-.183-3.154-.46-4.72-.517-2.384-.08-4.58-.747-6.94-.736-1.357.011-2.925-.161-3.67.587-1.438-.104-3.458-.288-4.83.15-1.27-.323-2.683.16-3.74-.15l-.228 1.104c.287.403.643.161.987.219.9.184 1.453.667 2.212.954.543.208 1.181.162 1.7.357l.344.23c1.205.219 2.148.08 3.331.219.43.057.879.322 1.208.218.333-.08.518-.713.945-.874.43-.172.695.265.876-.357ZM6.633 55.326l-.406.287c.188.345.234-.207.592-.07.258.173.605.254.817.519.101-.185-.071-.702.223-.656.216.011-.102.529.236.506.26-.046.179-.506.472-.506 1.007.851 2.34.851 3.614 1.369l-.177.817c.556.138 1.058.057 1.63.138.812.138 1.756.724 2.445.736.208.011.386-.161.583-.138.309.046.572.31.87.356.797.127 1.65-.414 2.456 0l1.168.093c-.777.494-1.72.241-2.743.437-.572.092-1.137.299-1.7.356-.78.092-1.433-.057-2.027-.15-.474-.068-.925.139-1.402.15-.41.012-.99-.425-1.22.161.816.552 1.914.08 2.68.575.496.058 1.198-.137 1.512.139l.406.15-.517.379c1.265.966 4 .092 5.17 1.162-.633.08-1.455.333-2.132.299-.364-.012-.804-.426-1.007.069l.353.518c.917-.116 1.92.057 2.967.149-.799-.115-1.644.138-2.552.138-1.183 0-2.757-.403-3.21.38.372.207.959.15 1.222.506-.51.023-.963.023-1.402.069.282.955 1.563 1.012 2.388 1.035 1.768.794 3.954-.046 5.545.806.577-.3 1.345-.507 1.919-.23.2.022.095-.323.353-.219.316-.08.4.126.642.15 1.51-.472 2.947.252 4.194.069-.05.368.06.506.354.437.297-.07-.162-.276 0-.357.532-.276 1.23.115 1.624-.299 1.616.587 3.883-.357 5.594.15 1.331-.311 3.534.034 4.84-.357 2.016.057 3.535.736 5.423 1.093l.116.736c.493-.288.917.357 1.343.587-.129.276-.332.448-.588.586-.3.023-.335-.62-.574-.448-.242.046-.216.678-.121.886.38.195.517-.127.755-.3.678.334 1.8-.126 2.163.53.466-.15.768.264 1.104.057.06-.897-.66-.391-1.048-.656.101-.885.874-.402 1.218-.368.415.058 1.12-.264 1.227.368-.324.208-.724.311-.993.599.596.759 2.01.103 2.857.057.211.345.878.253 1.167.07.34.321 1.318.022 1.576.23-.194.402-.64.46-.931.736.013.54.42.31.815.287.567-.034 1.326.15 1.684-.15.02-.77-.744-.563-.987-1.012 1.044-.264 2.126-.564 3.033-.218l.117-.599c-.238-.287-.669-.103-.817.15-.545-.53-1.32-.495-2.263-.587l-.238-.448c-.293.31-.479.023-.708-.138-.881.299-1.453-.161-2.09-.518.97-.08 2.394-.679 3.092.15.207 0 .172-.323.457-.22 1.327.058 3.412.507 4.602.3.98.391 2.192.702 3.387.725.556.356 1.269.333 2.097.38.403 0 .909.091 1.23.057.445-.046.626.057 1.158.15.263.045.532-.024.755 0 .446.057.662.345.876.437h.464c.39.126.79.46 1.177.517.22.023.494-.023.757 0 1.002.46 1.819.564 3.139.806.573.414 1.326.575 2.28.506.956.39 2.055.598 3.203.747 1.402.944 3.437 1.07 5.19 1.231 1.644.518 3.123 1.784 4.955 1.404l.177-.518c.199.184-.161.622.175.599l.059-.68c.724-.126 1.616-.068 1.856-.804-.24-.173-.337-.599-.58-.806-.755.253-1.753-.092-2.501-.276l.06-.448c-.568-.104-.912-.472-1.466-.587l-.058.667c.31.173.956-.08 1.11.288-1.11.563-2.244-.541-3.434-.737-.45-.057-.85.058-1.117-.138-.726.196-1.746-.253-2.669-.38-1.507-.195-2.784-.299-4.2-.724-.639-.196-1.389-.138-2.098-.288-1.975-.471-3.964-1.45-5.949-1.472-1.234-.391-2.141-.817-3.382-1.105l-.474-.448c-.3.092-.587-.196-.927-.288-.351-.092-.943.15-1.049-.368.517 0 1.084.15 1.576-.15.04-.632-.432-.62-.704-.862 1.042 0 2.459.552 3.39 0 .281.218.486.069.694-.15-.475-1-1.998-.092-2.627-.805 1.307-.575 3.236.23 4.779.425l.122.23c.364-.126.867.081 1.225.22l.293-.15c1.652.701 3.645.701 5.064 1.391l.42-.069.222.576c.268.103.65-.104.998-.138.192.034.117.39.349.368.329-.196.598.287.881.368.192.057.465-.046.689 0 .355.08.708.425 1.048.506.212.058.428-.034.642 0 .79.161 1.513.702 2.274.817l.353.575c.956-.035 1.974.368 2.972.437.28.023.648-.08.933 0l.354.23c.286.058.587-.057.871 0 .206.046.42.253.638.3.212.022.429-.104.643-.081.298.034.622.356 1.046.518.638.218 1.322.322 1.808.517.49.161 1.163-.034 1.459.219 1.062-.495 1.938-.805 3.375-.736l.294-.737c2.634.023 4.713.76 6.355 2.06.996.08 2.674.207 2.395-1.185-.152-.702-1.342-.622-1.984-.725-1.241-.207-2.296-.932-3.673-.817-.835-.414-2.901-.196-4.318-.495-.788-.184-1.676-.724-1.98 0 .554.438 1.53.368 2.092.806-1.044.057-2.101.448-3.139 0-.262.15-.902.46-1.174.126.247-.633 1.331-.23 1.579-.874l-.815-1.162c.355-.495.991-.035 1.519-.08.249-.162.249-.541.351-.725.874.115 1.684.644 2.565.506.3-.046.446-.242.754-.23l.411.23c.693.207 1.382.23 2.155.368 1.068.184 2.152.667 3.373.437 1.13-.425 2.607-.402 2.743-2.059-.39-.276-.79-.805-1.392-.943-.409-.104-.912.057-1.351 0-1.042-.184-2.391-.771-3.433-.518-2.066-.46-4.207-.77-6.357-1.242-1.46-.334-3.272-.403-4.493-.737-.333-.092-.72.023-1.042-.08l-.403-.219c-.407-.057-.813.058-1.226 0-2.578-.345-4.947-.587-7.342-.943-.732-.115-1.443 0-2.16-.07-2.138-.275-4.168-1.173-6.294-1.035-1.095-.529-2.32-.287-3.559-.517-.876-.161-1.788-.621-2.688-.575.786-.185 1.512.08 2.172-.15l-1.12-1.243c.592.208.826-.46 1.46-.172l-.062.518c.156-.07.36-.07.587-.058l-.113-.736c.559-.23.983-.587 1.687-.587.41 0 .932.403 1.225 0-.251-.391-.649-.564-1.108-.667 3.742.253 6.775 1.254 10.141 1.484 1.018.69 2.318.299 3.508.564 2.744.667 6.17.54 8.62 1.541.73-.115 1.342.391 2.035.518 1.049.207 2.122.023 3.1.218.203.058.37.254.578.3.293.057.596-.139.936-.139l.404.139c.401-.047.9-.208 1.276-.3.735-.16 1.302-.38 1.991-.368.724.035 1.351.104 2.035-.069 1.015-.713 2.378-1.645 2.099-3.508l-.236-.23c-.934-.3-2.011-.15-3.033-.369-.364-.069-.669-.322-1.039-.437-1.157-.334-2.069-.621-3.259-.518-1.362-.747-3.514-.184-5.134-.506-.254-.057-.446-.241-.704-.299-1.281-.16-2.243-.54-3.332-.725-.34-.057-.72.035-1.042-.08-.558-.184-1.008-.54-1.57-.575-2.398.529-4.633.15-6.889-.15l.126-.587c-1.225-.103-2.582-.23-3.675.07l-.239.287c-4.231-.518-8.317-.667-12.412-1.61.709-.07 1.649.16 2.1-.22l.414.369c.806-.38 2.265-.207 3.256-.15l.294.3c.607-.254 1.143.138 1.519.437.203 0 .454-.242.82-.3.881-.16 2.517.242 2.628-.943-.508-.333-1.63.115-1.875-.529 1.687.012 3.257-.46 4.548-1.15l-.353-.599c.251-.046.192.288.463.219 1.307-.219 2.673.161 4.197-.219.174-.23.218-.62.465-.724.707.402 1.76.506 2.104-.38 1.37.058 2.576.621 4.08.598.646-.023 1.198-.38 1.807-.38.552.012 1.033.311 1.462-.218-.135-.3-.48-.345-.694-.357-1.55-.172-3.397-.046-4.9-.598l.106-.655c-.757 0-1.422.494-2.15.298-.183.208-.35.576-.645.576-.17.023-.313-.253-.58-.357-.263-.115-.74.012-1.115-.08l-.459-.208-.355.07c-.299-.104-.508-.484-.81-.518-.36-.046-.736.207-1.05.15-.218-.047-.277-.323-.531-.15l-.056.356c.212.139.61.415 1.05.518.56.15 1.335-.092 1.513.598-2.35.138-4.247 0-6.646.138-.155.196-.124.633-.345.737-.827-.322-1.779-.357-2.8-.518-.228.011-.237.288-.345.437l-.294-.725-.52.07.52 1.104c-.466.115-1.194.126-1.457-.08.223-.058.46-.093.404-.518-.461-.288-.753-.368-1.284-.138.035-.23.059-.553-.345-.587-.218-.023-.106.357-.294.38-.03-.518-.589-.185-.82-.081.167.15.211.472.472.518-.63.034-1.166 0-1.46-.38-.628.242-1.792.483-2.328-.058-.278.208-.517.104-.755-.08-.603.53-1.828.242-2.618.207l.805-.587v-.724c-.955-.714-2.525-.334-3.492-.806-.117.15-.163.38-.415.368-.516-.31-.883.058-1.505.15-.035.77.684.598 1.048.874-.96.219-2.212-.701-3.326-.517-.687-.346-2.177-.196-3.022-.3-.268-.206-.67-.241-1.117-.207-.23-.299-.782-.195-1.175-.299-.218-.126-.037-.448-.218-.506l-.477.288c-2.823-.541-5.746-.817-8.161-1.76l-.05-.518c-.562-.575-1.548-.449-2.577-.495-.556-.057-.967-.16-1.267-.23a5.915 5.915 0 0 0-2.166-.138v.368c-.512.391-1.487-.126-1.803.426.77.425 1.843.16 2.563.736h.76c1.178.656 2.648.506 4.08.794.394.103.901.38 1.458.23 1.26.76 2.786.748 4.309 1.024.52.092 1.042.414 1.578.518.987.195 2.011.253 2.971.506.278.08.532.38.813.448 1.187.3 2.432.184 3.437.668-.786.103-2.214-.035-3.024.287-1.098-.598-2.901-.563-4.26-.287-1.03-.357-2.23-.852-3.09-.817.283.61 1.157.506 1.517 1.035-2.677.08-5.194.403-7.633.794-.505.092-1.069 0-1.57.08-.556.081-1.079.288-1.635.357-2.259.31-4.58 0-6.764.817l.058.518c2.556.184 5.242.862 7.867.218l.293.288c-1.251.345-2.516.253-3.505.886-.344.046-.565-.07-.865-.08-.682.62-1.859.034-2.334.735l-.218-.299c-1.974.07-3.826.322-5.841.38-1.417.667-3.342.161-4.426.863-.344-.288-.905.057-1.413 0l1.064.586c-.613-.034-1.437.196-2.044-.069-.027-.253.585-.38.291-.517-.24.092-.185.322-.408.08l-.057.506c-.996.265-1.852-.069-2.733.15-.482-.334-1.069.057-1.696 0-.637-.058-1.887-.219-2.571-.069l-.462.23c-1.675.265-3.807.046-5.832.069-2.13.023-4.309-.092-5.949-.299-.72-.104-1.152-.322-1.508.23.643.598 1.652.736 2.733.943.477.576 1.546.392 2.097.886ZM85.97 37.067c-1.053-.322-2.466.656-2.974-.736-1.331-.552-2.772.172-4.029-.219l-.344-.23c-.596-.103-1.104.127-1.746.23-1.62.23-3.009-.138-4.494-.23-.234-.644-1.236 0-1.455-.575.344.011.583-.104.76-.3.527.208 1.286.15 1.748.438l.293-.138c1.199 1.024 2.409-.679 3.66-.15.343-.207.874-.138 1.356-.15l.931-.954-.591-.805c.684-.058 1.492.77 1.867-.288 1.225-.138 2.496.495 3.56.288l-.052-.668-.757-.218c.094-.472.443.023.697.069.4.092.881-.07 1.346-.07v-.655c-1.472-.748-3.467-.633-5.087-1.311.748-.31 1.326.184 1.818-.3-1.017-.057-2.329-1.115-3.439-.367-1.135-.484-3.167-1.22-4.2-.288-1.268-.3-3.014-.196-4.263-.15l-.517-.08.46.736c-1.402-.207-2.533-.046-4.071-.218-.172.471-.674.747-1.225.437v.655c1.088-.287 2.112.38 3.14.38.354-.012.773-.242.935.207-.565.035-1.223.288-1.685.368-.657.115-1.306-.034-1.284.748.964.725 1.88-.518 2.788-.092.238-.138.439-.322.766-.357l.176-.667c1.715.253 3.578.518 5.19 1.116-.912.08-1.216-.253-2.093-.23-.192.127-.029.725-.238.805-.221-.115-.642.012-.768-.218l.234-.518h-.861c-.113.172.192.483-.122.598-1.088-.356-1.984.253-3.326-.161l-.29.53c-1.854.103-3.98.068-5.832-.23-2.249.643-3.757.23-6.176.23l-.406-.599c-.252.012-.365.184-.525.3-1.524-.392-3.352-.426-4.427-1.186.437.161.974.08 1.276.08l.406.22c.4.08 1.014.126 1.52.218.425.069.91.172 1.169.161.58-.069.885-.794 1.457-.518l.172.138c.071.219-.353.334-.06.38.557.276.674-.564 1.235-.518-.294-.77-1.391-.517-1.93-.954.26-.518.899-.116 1.33-.162.995-.08 2.079.07 3.1-.069.594-.069 1.014-.287 1.515-.218.285.046.556.276.872.287.576.035 1.523-.31 1.578-1.23-.289-.23-.783-.22-1.225-.22-.492-.126-1.009-.551-1.636-.655-.947-.195-2.02.08-2.626-.53-.767.242-1.647.139-2.153-.356-1.715-.057-3.41-.138-5.068-.448-.768-.15-1.516-.173-2.4-.288-1.017-.138-2.035-.403-3.081-.506-1.053-.127-2.492-.472-3.504-.736-.512-.139-1.074-.173-1.626-.3-.855-.183-1.775-.38-2.616-.506-1.742-.287-3.108-.15-4.728-.23-.4-.011-.826-.023-1.221-.069-.991-.103-2-.08-2.925-.218-.676-.115-1.283-.622-1.976-.07.274.794 2.055.346 2.212 1.542.219.07.102-.288.294-.23.218.403.629.874 1.108.506.053.403.335.265.649.449.441.253.587.575 1.22.506.663.725 1.978.644 2.446 1.61 1.484.357 3.102 1.22 4.713 1.404.48.046.925-.15 1.276.288.757-.058 1.117.368 1.872.287.278.61 1.216.345 1.53.886-1.6.046-2.786-.54-4.146-.506.014.472.643.138.292.736-.897-.448-2.161-.632-3.148-.368l-.113.437c.26.31.79.426 1.221.506.978.196 2.07.081 2.567.875v.517c.804.242 1.727.323 2.51.587-.185.426-.49.08-.768 0-.492.08-.993.173-1.406.23-1.208.161-2.914-.874-3.435.138-.256-.023-.486-.011-.4.38.228.242.29-.184.524-.15l.408.288c.938-.276 1.834.702 2.865.817l.219.356c-1.336 0-2.345-.575-3.616-.437.026.472.638.645 1.002.806 1.122.471 2.587.506 3.667.816.406.449 1.214.368 1.57.863-1.88-.195-3.08-.138-4.546-.069-.23-.195-.415-.678-.817-.437 0 .426.055.99-.344 1.242.4.3.649.403 1.216.38l.248.506.172-.448.344.517c1.68.391 4.009-.011 5.539.656l.293-.15c1.089.484 2.79.081 3.554.61.148-.069.07-.425.294-.368.552.207 1.048.53 1.22 1.242 1.411.61 2.93 1.093 4.84 1.082l.573.449.241-.507c.461-.069.848.207 1.104.127.289-.322.015-.69-.173-1.012-1.437-.714-3.159-.23-4.657-.737v-.736c.649.092 1.31.15 1.975.23.435-.702 1.1-.77 2.11-.656.177-.092.122-.483.4-.448 1.291.345 2.76.483 4.137.724.093.254.197.495.41.61.279.023.142-.46.47-.368.266.54 1.283.173 1.453.863-1.817.115-3.258-.575-4.834-.38l-.238.61c-.259 0-.537-.046-.638.15.183 1.058 1.682.471 2.269 1.023.232-.034.284.127.525.058.684.518 1.859.472 2.795.817v-.817c.552 0 1.155.046 1.52-.207-.037-.944-.796-.955-1.282-1.323.45-.184.689-.035.987.069.989.402 1.91 0 2.45-.38 1.784.38 3.742.552 5.66.76l.402-.518c.368.034.552-.104.815 0 .141-.104-.036-.587.18-.587.881.403 1.572-.184 2.316-.138.623 0 1.239.391 1.234-.449-1.543-.402-3.742.035-5.123-.598.46-.218.801-.587 1.16-.955.08.23-.03.68.233.68l.649-1.036c1.037-.46 2.322.034 3.543-.219.234-.046.47-.276.708-.299.567-.057 1.08.138 1.574 0 .512-.138 1.35-.368 1.808 0l.466-.207c.962.127 2.242-.023 3.139-.219.278-.057.77-.264.763-.61-.476-.24-1.163-.552-1.573-.126ZM27.39 9.562c.634-.08.709.264 1.163-.15.071.184.062.46.356.368.101-.172-.113-.632.117-.805 1.66.598 4.287.805 5.883.736.733.472 1.922.07 2.975.219.694.092 1.347.264 1.976.287.464.023 1.07-.253 1.331.3-.896.023-1.839.011-2.61.207-.2.287.195.494-.059.598-2.167.023-3.823-.265-5.949-.437l-.218.218c-.208-.38-1.347-.276-1.76-.08.413.38 1.239.437 1.81.23.79.391 1.362.23 2.208.425.121.081.088.334.296.3 1.781-.3 3.324.31 4.95 0 .112.16.127.448.354.448 1.614.161 3.34-.333 4.38.518l.344-.46c.102.38.283 0 .521 0 .36.034 1.018.38 1.343 0 1.675.483 3.498.483 5.36.529 1.948.034 3.953.61 5.767.207.217-.242.548-.334.704-.656.572.3 1.203-.172 1.983-.08.638.103 1.271.322 1.865.38.276.022.607-.23.757.218-.338.138-.885-.012-1.397 0-.283 0-.996-.115-.932.506.41 0 .508.54.76.15l.812.655c.413-.046.631-.632 1.053-.805.389-.15.885.184 1.448.23.737.046 1.406.138 1.865.518l.292-.518c.397-.046.708 0 .878.219l-.231.586c.406.104 1.225.334 1.452-.149-.435-.161-1.033.104-1.163-.288.5.115.642-.184 1.223-.15.194.53.74-.08.989.22l-.35.667c.46.195.76.61 1.058 1.024.532-.288.528.356.872.506.404-.092.585-.012.92 0l.239-.426c.998-.184 1.669.334 2.389.057 1.225.288 2.642.369 4.152.518.445 1.15 2.273.552 3.026 1.323-.395.288-1.457-.264-1.574.368l.406.656c-1.465-.77-3.139-.598-4.953-.656a30.326 30.326 0 0 1-2.795-.299c-.865-.126-1.781.115-2.627-.069-.653-.15-1.701-.368-2.393 0 .692.92 2.373.575 3.144 1.392l-.219.437c-.912.023-1.812-.322-2.759-.218l-.517.218c-.669.08-1.459-.253-2.271-.218-.95.034-1.76.115-2.501.15l-.472-.15c-.612-.012-1.59.126-2.274-.08-.894-.265-2.172-.173-3.26-.288-.5-.058-1.26-.092-1.574-.587h1.518c.435-.713 1.733-.414 2.44-.23l.066-.725c-.717-.391-1.782-.253-2.45 0-.268-.218-.76-.334-.987-.368.227-.495-.07-.955-.358-1.024-.76-.173-1.737 1.473-2.622 1.024-.133-.345-.23-.736-.528-.874-.496.39-.973.828-1.625.667l-.406.357c-1.194-.633-3.315-.587-4.49-.806l.29.725c-.625.575-1.884-.357-2.208.38.298.034.53.16.865.126v.38c.232.069.208-.173.349-.219.85.668 2.775.035 3.437.736-.327.046-.638 0-1.05.058-.058.667-.767.449-1.107.667a5.603 5.603 0 0 1 3.04 1.036c-.845.207-1.671-.564-2.52-.08l.301 1.034c.647.38 1.797.116 2.097.955.895.346 2.12.277 2.914.725.144.84.431.621 1.16.587 1.266.61 3.286.518 4.617 1.254.488-.23 1.04.103 1.16.575l.171-.288c.457.415.998.311 1.58.369.217.023.436.218.699.299 1.134.322 2.035.448 2.805 1.012l-.99.3c.242.482.97.333 1.39.586l-.932.437c.45.713 1.197.195 1.99.368l.171.587c1.115.357 3.318.345 3.197-1.91.375.115.395-.23.638-.287.87.057 1.978.356 2.686-.3l.415-.138c-.499-.195-1.234-.448-1.933-.448-.239 0-.557.38-.694-.058.477-.943 2.047-.506 3.029-.817.567-.586 1.512-1.242 2.45-.724l.643-.817c-.188-.437-.486.057-.755-.138v-.598l-.587-.518c1.196-.023 2.12-.368 3.138-.437.248-1.507-1.538-1.76-2.496-1.312-.334-.253-.687-.46-1.223-.448-.649-.725-2.34.276-2.744-.806.455-.724.81-.15 1.574-.057.874.103 2.137.092 2.854 0 1.733.586 3.291-.173 5.013.356 1.954-.402 4.733-.034 6.768 0 .062.45.546.368.81.587l.294-.138c.943.345 2.146.288 2.684-.161l-.293-.506c-.867.16-1.813-.345-2.57-.219-.764.127-1.183-.15-1.922-.299-.976-.195-2.466-.15-3.148-.23-.578-.058-1.126.3-1.678.161.03-.978 1.024-.748 1.393-1.323 1.124-.126 2.497.058 3.029-.805-.332-.76-1.029.195-1.342-.437l.227-.587c-1.444-.38-2.996-.265-4.532-.219-.656-.425-1.755-.138-2.627-.23-.516-.046-1.026-.253-1.519-.276-1.417-.103-3.03.023-4.657-.31 1.768.034 4.262-.426 6.055-.07.145-.034.125-.276.355-.218.932.127 1.61-.46 2.497-.138.115-.288.726-.518.936-.219l-.172.506c.479.15.22-.667.52-.736 1.272-.333 2.937.046 3.797-.724l-.293-.886c.196-.357.704-.334 1.103-.449.181-.368.177-1 .698-.725l-.29-1.024c-1.73-.897-4.388-.368-6.933-.517-.664.632-1.757-.552-2.45.15-.954-.587-2.055-.369-3.331-.369-3.8-.011-7.57-.414-10.424-.53-1.07-.022-2.214-.068-3.322-.126-.41-.034-.88-.103-1.28-.069-3.19.196-7.46-.333-10.673-.15-.396-.356-.978-.068-1.513-.08-.34 0-.487-.15-.761-.08-.819.253-2.004.276-2.976.31-.629.012-1.413-.425-1.914.196.42.552 1.5.265 1.864.897-2.557-.322-5.371-.506-7.64-.517-2.39-.012-4.996-.472-7.23-.576-.874.714-2.667-.678-3.437.138.395.334 1.183.173 1.342.806Zm20.216 138.446c-.499-.698-1.377-.25-1.914-.074-.081-.143-.157-.278-.417-.224.437.534 1.87.764 2.395.454.223.589 1.353.385 1.813.446.035-.981-1.325-.798-1.877-.602Zm14.585 28.969c.647-.014 1.382.198 1.573-.439-.783.311-1.417-.853-1.573.439Zm-4.896-.886h.344-.344Zm22.498-1.247c-.876-.068-1.98.101-2.74.597.68.386 2.385.318 2.74-.597Zm-25.423.515.18-.515-.233-.141c-.157.135-.166.623.053.656Zm12.827-1.083c-.472-.101-.492.385-.99.284.032.901 1.293.427.99-.284Zm-2.618.054h-.353.353Zm-1.518.087c.315.183.642.686.997.211.011-.589-.783-.495-.997-.211Zm12.125-.303-.06.303h.466c-.002-.27-.183-.303-.406-.303Zm-5.538.216c-.248-.434-1.504-.244-1.457.589l-.29.088c-.108.894 1.155.684 1.808.874l.12-.522-.532-.209.35-.82Zm9.39-1.01c-.92.183-2.263-.12-3.033.867 1.004.413 2.143-.216 3.033-.432v-.435Zm-34.041.144c-.826.027-1.355.039-1.934.432.552.15 1.508.211 2.051-.141.254-.075.764.176.755-.217l-.872-.074Zm-2.687-1.03-.35.651c.531.296.891-.414 1.575-.36.03-.812-.715-.007-1.225-.291Zm31.591-.589.287-.075-.165-.148-.121.223Zm-29.906-.582c-.442-.204-.462.507-1.046.216l1.046-.216Zm30.083-.516.404.149-.404-.149Zm-31.242-.142.587-.081-.525-.216-.062.297Zm39.575-.738-.055-.447.055.447Zm-8.618-.662.055.446-.055-.446Zm-4.439-1.464-.238-.367-.632 1.173c.572-.413 1.316.135 1.919-.223-.038-.659-.705-.961-1.049-.583Zm-25-.738c.224.087.583.277.7-.068-.223-.148-.516-.169-.7.068Zm24.832-1.09-.364.066.364-.066Zm-29.966-.448.296.36.294-.434c-.235-.136-.431-.169-.59.074Zm32.236-.656v.507c.364.014.551.462.874.293v-.868c-.298-.155-.572-.115-.874.068Zm-27.223-.366v-.371c-.243.08-.618.011-.642.371h.642Zm31.309 0c.16.19.611.312.874.143.097-.922-1.16-1.172-.874-.143Zm-33.76-1.111.294.514c.283-.079.475-.284.65-.514-.25-.223-.74-.284-.943 0Zm-3.26-.649h.415l-.298-.442-.117.442Zm25.055-.521.364.155c.43-.623-.395-1.05-.364-.155Zm-17.3 2.715c.26.067.453.256.638.304 2.537.521 3.859-1.281 5.835-.814.185-.352.454-.6.757-.812l.112-2.281-.642-.934c-.826-.054-2.141-.469-3.088-.225l-.528.293-.34-.143-.475.291c-.218.021-.47-.155-.7-.148-1.205.026-2.403.561-3.379 1.171-.675.271-1.702.115-2.042.806.952.263 2.02.264 3.088.216l-.814.813c.481.277 1.042-.156 1.393.223-.022.745-.724.636-1.095.949.086.771.83.432 1.28.291Zm-16.264-4.762.06.225c.264-.34.54.061.93-.225-.151-.852-.666-.148-.99 0Zm21.394-2.207.117.367.056-.299-.173-.068Zm15.618.805c-.375-.201-.916-.074-1.514-.142l-.115-.731c-.543 0-1.154-.074-1.4.298-.384.223-.98-.257-1.103.285.883.84 2.159 1.049 3.611 1.035l.521-.745Zm-16.384-.873-.055.583c.215.053.285-.088.415-.148l-.36-.435Zm11.199.068c.077.596.538.568.993.515-.07-.495-.72-.732-.993-.515Zm-7.923-.21h-.185l-.053.359c.21.047.258-.114.238-.359Zm5.236-.155c.217.155.409.02.409-.291l-.12-.143c-.229-.027-.203.264-.289.434Zm-2.735-.51-.404-.363c.005.269.126.426.404.363Zm1.696-.805c-.15.176-.122.576.108.665l.055-.665h-.163Zm-8.108 0c-.3-.311-1.687-.467-1.687.284.247.284 1.63.388 1.686-.284Zm2.792-.291.07.366.29-.075c0-.256-.126-.345-.36-.291Zm2.047.143c-.243-.508-1.217-.089-1.338.432.225.19.644.13.863.299.216-.177.439-.331.475-.731Zm6.701.068c-.49-.461-1.512-.542-2.035-.366-.499-.136-1.038-.596-1.397-.65-.02.535.324 1.225.75 1.312l.578-.216c.846-.033 1.97 1.098 2.104-.08Zm9.616-1.537-1.104.589c.713.081 1.625-.198 2.446-.225l.064-.276c-.4-.583-1.028.237-1.406-.088Zm-6.349-.074c-.315-.313-.633.222-.415.595.36.074.455-.162.415-.595Zm-25.12-.144c-.224.068-.38-.122-.473 0h.472Zm-1.98-.216c-.27-.143-1.07-.467-1.166.061.417.074.973.426 1.165-.061Zm47.208.874c.369.629.923.019 1.519.081l.34.216c.563.115 1.989-.026 2.333-.148.329-.109.375-.76.591-.882l.285.293c.259-.678-.5-.603-.816-.807-1.137.338-3.618-.305-4.252 1.247Zm-50.652-.874c.543.189 1.607.36 2.101.141-.055-.928-1.832-.547-2.101-.141Zm33.805-.665-1.8.957.517.371c.351.055 1.499-.311 1.865-.447.084-.643-.295-.697-.582-.881Zm-5.711.726c.176-.793-1.044-.183-1.342-.502l-.285.291c-.329.049-.678-.223-1.05-.291-.69-.127-1.605-.346-1.815.068 1.09.765 2.329.88 3.384 1.687.157-.284.602-.075.819 0 .095-.108.176-.264.406-.217l.115-.575c.355.202.523-.306.7-.23l-.058.582.76-.136-.35-.597c1.434 0 2.846-.561 4.016-1.096v-.441c-.344-.034-.598.022-.817.142l-.16-.284c-.02.428-.376.428-.593.583-.926-.644-2.602-.047-3.448-.657l-.282.434c.309.42.117.967.06 1.612-.314-.171-.616.095-.815-.142l.232-.442c.285-.061.203.319.523.211Zm-26.114-3.143v.374l.298-.158-.298-.216Zm-2.45.583v-.583h-.29l.29.583Zm8.403-1.023-.126-.372-.116.372h.242Zm52.63-.812.411.589c.035-.42-.177-.704-.41-.589Zm1.1-.284c-.142.372.258.799.591.582.022-.467-.297-.515-.591-.582Zm-42.253.216c-.272-.304-1.208-.555-1.285.149l.181.284a2.624 2.624 0 0 0 1.104-.433Zm43.712-.813-.058.441c.296-.123.411.087.59 0l-.532-.441Zm-3.55.075v.366c.376.033.49-.257.815-.293.304.237.603.469.987.589l.25-.438.922-.224c-.852-.474-2.104 0-2.974 0Zm-64.47 1.76c2.054-.122 3.825-.474 5.714.082.517-.664 1.34-.204 2.157-.224.859-.034 1.7-.284 2.45-.142.92-.399 2.353-.724 3.371-.954.786-.191 1.713-.049 2.212-.672-.12-.791-1.547-.568-2.033-.507-2.278.258-4.68.068-7.11.284-2.647.266-5.34.683-7.982.962-1.804.183-3.585-.06-5.316.298-1.782.373-3.766.379-5.59.731l-1.043.588c-.02.753 1.108.076 1.448.51 1.534-.102 3.178-.265 4.783-.442.923-.101 1.636.104 2.28.225 1.504.304 2.917-.236 4.314 0 .258-.067.086-.657.344-.739Zm69.188-2.187c.355 0 .741.047.76-.372h-.815l.055.372Zm-46.915-.528c.28.197.876.582 1.224.223l-1.224-.223Zm-7.528-1.097c-.097-.088-.188-.19-.404-.142l-.057.217.461-.075Zm16.728 0c.43.088.627.04.592-.583-.47-.521-1.128-.026-.592.583Zm10.556-1.029-.289-.061.051.284.238-.223Zm17.015-.284-.057.359c.263.134.21-.387.057-.359Zm-.233.359c.074-.387-.146-.392-.4-.359.009.27.141.392.4.359Zm-30.481-.428c.227.32.388.44.353 1.023.735-.067-.02-2.065-.353-1.023Zm14.803-.298c.247.021.283.313.521.367l.768-.367h-1.289Zm-7.636.212.354-.577c-.429-.169-.793-.034-.996.284.267.047.369.279.642.293Zm21.04.291c.39-1.037 1.894-.427 2.68-.801.079-.832-.786-.893-1.276-.947-1.369-.197-3.256-.04-4.422 0l-.357.426c-.28-.142-.493.21-.764.217-.482.061-.914-.244-1.389-.129-1.072.23-2.309.312-3.562.433-.281.449-.842.549-1.33.733-.362.019-.185-.618-.479-.658h-.172l-.176.435c-.726.133-1.051.77-1.98.744-.199-.366-.685-.557-.994-.23h.523l1.226.886c-.215.407-1.029.061-1.343.36-.106.154-.081.488-.293.514-1.879-.71-4.29.575-6.172-.209-.599.284-1.508.183-2.05.352-.131-.082-.162-.319-.407-.285-.687.115-1.775.109-2.384-.15l.057-.364c-.618-.169-1.69-.563-2.212 0v.514c-.644.534-1.83-.013-2.45.589-.25-.142-.386-.4-.461-.739l-.298.583c-.38.15-.382-.263-.462-.291-.644-.209-1.499.089-1.929.514 2.426.787 4.6.211 7.519.441.141-.042.13-.284.357-.23.614.331 2.325.487 2.625-.278 1.254 1.124 3.766-.055 5.183.872-.247.352-.572.341-.931.226l.116.588c.389-.25 1.343.217 1.747-.149l-.532-.076v-.363c.273.338.496-.062.88 0l.062.872c.773.447 1.691-.473 2.09.305-.218.331-.704.162-.81.507.694.299 1.391.59 2.338.59l-.24.589.465.278c-.465.108-1.099-.522-1.752-.21-.172-.095-.153-.44-.406-.44l.708 1.096c-.737.576-1.66-.35-2.393.23l-.349-.304c.13.523.603.603.866.955.44-.108 1.022.047 1.355.291.453-.568 1.781.082 2.39-.432l-.178-1.098c.34-.136.477-.528.578-.955.4-.447 1.46-.061 1.632-.813-.481-.94-1.687.298-2.559-.223.055-.305.369-.312.689-.291.644-.954 1.87-.724 2.689-1.464l-.294-.655c-.4-.102-1.115.54-1.388.141.242-.101.34-.378.273-.88.685-.582 1.985.006 2.923-.29l.232-.672c.664.19 1.114-.31 1.742 0 1.534-.601 3.944.082 5.017-1.158.176.047.011.508.232.503Zm11.143-3.218c.305.866 1.746.359 2.384.441v-.732c-.658.088-1.947-.379-2.384.291Zm-38.83 0c.233-.014.233.258.411.284.279-.155.678-.169.707-.656-.936-.787-1.863.63-2.8.081-.86.359-2.114-.345-2.98.217-.213-.142-.527-.19-.582.223 1.514.407 3.856.691 5.245-.149Zm26.583-1.321.41-.148c-.476-.136-1.511-.359-1.867.291l-.415-.143c-.406.204-1.037.162-1.565.223-.982-.636-2.34.273-3.32-.446-.168.338-.168.148-.41.223.218.468 1.154.102 1.401.658-.223.027-.247.332-.353.515.095.263.115.568.353.662.852.334 1.616-.243 2.563-.446.722-.142 2.08.02 2.45.446l.815-.155c-.161-.738-.837-.799-1.104-1.389.329-.068.885.143 1.042-.291Zm-33.052-.223-.29-.075-.055.441c.248.047.404-.021.345-.366Zm-2.508.149c.208.027.523.164.704 0h-.704Zm-.757 0 .119.074.227-.378-.346-.061v.365Zm.534-1.389c.254.449 1.225.158 1.51-.087-.38.067-.956-.068-1.51.087Zm7.519-.23c-.08.237-.11.69.227.597l-.227-.597Zm-10.848.23.06-.23-.345.075.285.155Zm-1.697.068.41.069.815-.367c-.54.19-1.135-.527-1.225.298Zm19.582-.44-.282-.298.282.298Zm.364-.081.578.081-.46-.359-.118.278Zm-2.395 0c.311.332 1.09.298 1.226-.217l-1.226.217Zm-22.03-.278c-1.632.007-3.625-.365-5.247-.155l-.47.216-.462-.148c-.651-.007-1.331.209-1.801.304.775 1.125 2.338.629 3.852.651 1.792.047 3.428.29 4.825.297.643 0 1.444.285 1.863-.217.095-.805-.942-.799-1.569-.887a7.426 7.426 0 0 0-.991-.061Zm45.584.359c-.417-.561-.932-.061-1.46 0-1.165.122-2.75-.304-3.62.285.577.738 1.581.216 2.391.371.636.13 1.245.367 1.923.226.27.331.865.242 1.17.514.446-.305.854.155 1.218.365.219-.095.473-.149.766-.149.146-.744.967-.636 1.46-.956.134-.194.07-.635.353-.656.492.203.896-.196 1.044-.663-.912.054-1.724.23-2.102.948-.72-.826-2.077-.4-3.143-.285Zm-4.027-1.171c-.388-.271-.607.244-.874.359.42.04.753-.014.874-.359Zm-11.309-.292-.467.144.467-.144Zm18.651.061-.172-.284c-.168.209-.477.223-.82.223l.992.061Zm-40.507.151c-.52-.293-1.002-.875-1.573-1.024-.502-.129-.947.075-1.574.075-3.713-.055-7.848.02-11.6.216-.374-.176-.502-.223-.755.156.492.636 1.693.311 2.503.426.54.083 1.066.143 1.638.231.57.081 1.106.427 1.686.441.963.019 1.87.182 2.852.284 1.7.202 3.462-.156 5.31.087.5.542 1.048.163 1.686.143.982-.028 2.242.216 2.799-.447-.736-.494-2.009-.346-2.972-.588Zm28.39-1.322c-.063-.928-.454-.284-.884-.142l-.405-.284c-.414.406-1.185.365-1.454.94.59 1.301 2.274.17 2.744-.514Zm-20.997-.663v.237h.294l-.294-.237Zm27.342-.068-.11-.433.11.433Zm-6.466-1.172h-.236l.064.373c.258.04.234-.162.172-.373Zm-11.951 0v.373-.373Zm9.735.373c.263.02.395-.101.404-.373l-.404.373Zm-1.51-.373-.302-.061.302.061Zm-10.498.082c.277.115.653.23.819-.082l-.82.082Zm11.138 1.158c.11-.447.323-1.381.11-1.755-.3.198-.697 1.585-.11 1.755Zm7.568-1.755.36.597c-1.113-.251-1.939.04-3.034-.143l-.349.278c-.278-.142-.704-.054-.649.433.716-.033 1.828.359 2.45.162.281.399.866.251 1.288.298.631.047 1.437.496 1.393-.669l-.638-.224c.463-.203 1.147.001 1.225-.806-.587-.149-1.526-.102-2.046.074Zm-19.462-.223c.22-.041.22-.535 0-.583l-.693.366c.274.027.416.075.693.217Zm1.166-.285.06-.223-.638-.075v.217l.578.081Zm-8.684.665c-.349-.577-.952-.658-1.634-.522-.183-.176.272-.481-.106-.508-.245-.196-.128.663-.589.433l.057-.366h-.591l-.175-.298c-.936-.446-2.344-.317-3.492-.583-.313-.073-2.101-.629-2.095.226.552.838 2.02.696 2.793.872l.112.589c1.115-.122 1.676.536 2.749.157.39.447 1.103.508 1.812.575l1.159-.575Zm-14.163-3.014.055.453c.273.007.424-.122.404-.453h-.46Zm47.562-.075.05.224c.263.04.44-.041.415-.372l-.465.148Zm-43.185 1.245.102-.363c-.267-.144-.517-.442-.46-.807-.395-.122-.946-.589-1.282-.142-.684-.271-1.675-.246-2.04.142.577.94 2.201.156 3.21.731.09.223.11.543.47.439Zm46.684-1.975c-.994.406-2.508-.388-2.916.73l.055.224c.735.379 1.61.169 2.454.439.614-.975 1.713.272 2.504-.378l-.12-.65.292-.291c-.172-.063-.311-.3-.519-.366-.653-.218-1.154.04-1.75.292Zm-52.582-.076c.238.177.653.068.587-.373l-.587.373Zm41.443-.507.177.364h.355l.176-.586c-.326-.207-.565-.127-.708.222Zm10.673-.222.06-.369c-.338.277-.968.15-1.168.591.43.27.775-.143 1.108-.222Zm-50.763-.15.408.955.16-.733c.297.047.45-.072.708-.072-.227-.576-.912-.276-1.276-.15Zm51.178-.149.231.08-.119-.449-.112.369Zm5.183-.587-.42.08.42-.08Zm-17.552.149c.016-.264-.081-.379-.293-.368l-.06.368h.353Zm7.124-.437.05-.218-.304.069.254.149Zm1.68-.069c-.05-.425-.556-.276-.764-.518l-.168.438.932.08Zm-40.516-.149c-.638.023-1.508-.84-1.808.069.559.264 1.155.46 1.808.586v-.655Zm2.799.356.239-.287.284.287c.313.115.709-.023 1.113 0 .496.058.967.437 1.459.299l.055-.586c-.987-.138-2.216-.288-2.975-.069-.296-.668-.775-.219-1.46-.3l.42.587c.227-.299.642.161.865.069Zm39.525-.575c-.552.127-1.3-.265-1.691.368l.05.138c.638.184 1.817 0 2.627 0 .294-.379.932.414 1.228-.138-.559-.518-1.365-.817-2.214-.368Zm6.121-.736c-.274-.242-1.272-.633-1.342 0 .27.207 1.185.736 1.342 0Zm-22.56-.368-.06-.219c-.232-.023-.335.104-.34.368.247 0 .316.127.4-.149Zm16.618-.3v.369c.24.08.576.207.807.08a.532.532 0 0 0-.807-.449Zm5.538-.736c1.117 0 2.294.104 2.267-.863-.461-.598-1.163.219-1.804-.092-.317.576-1.41.15-1.757.668.122.483.786.287 1.294.287Zm-46.167-3.808v.369c.247.069.53.207.702 0-.02-.553-.377-.265-.702-.369Zm1.1.369c.388-.035.726.184.88-.219-.335.161-.594-.633-.938-.437l.058.656Zm1.222-2.715c-.083.115-.125.586.124.517.04-.172.146-.552-.124-.517Zm-1.34.069.466.379h.36l.05-.379-.41-.288c-.117.126-.214.311-.466.288Zm36.492-1.461h.298l-.121-.288-.177.288Zm6.134-.449-.075-.437-.23.379.305.058Zm-56.38-.736.06.241.233-.08-.293-.161Zm-1.049.161c1.049.736.689-.99 0 0Zm-8.45-.967.06.449.108-.368-.168-.081Zm-3.437.23c.247.092.497.023.526-.356-.228-.207-.597-.058-.526.356Zm53.566-.23c.058-.471-.101-.69-.415-.713-.13.357 0 .828.415.713Zm-49.431-.575.183.299.232-.368-.415.069Zm74.036.299c.399.196.951.046 1.037-.368-.278-.287-1.006-.115-1.037.368Zm-32.82.069.112.081c.251-.035.287-.345.289-.656-.375-.15-.578.242-.402.575Zm-36.153-.736h-.348.349Zm-1.675.299c-.508-.287-1.24-.518-1.706.069.516.23 1.253.288 1.706-.069Zm62.42-.518c-1.077.288-2.247-.115-3.487.069-.358.783-1.148.311-1.705.587l.532.506c.5-.195 1.245-.356 2.04-.414.788-.092 2.808.345 2.62-.748Zm-58.404-.356-.118.506.237.069-.12-.575Zm-1.866.644c.554-.368 1.298.207 1.64-.357l-.93-.08c-.213-.345-.745-.483-.946 0l.236.437Zm37.95-.713.228.644c.508-.219.85.092 1.28-.288l.058-.448c-.462-.276-1.13-.023-1.565.092Zm18.939 0c-.135-.483-.93-.207-1.226 0 .31.218.74.287 1.166.356l.06-.356Zm-64.699.207c.212.057.31-.127.409 0l-.056-.518-.353.518Zm-.704-.207c.188.195.389.103.649.069l-.65-.069Zm67.332-.23.174.299c.279 0 .358-.242.526-.38l-.7.081Zm-22.092.506-.188-.725c-1.007-.472-.384 1.392.188.725Zm25.701-.506v-.38.38Zm3.393-.38-.302-.069.231.449.07-.38Zm-.532.38h-.995c.357.092.701.011.995 0Zm-1.344-.38c-.362-.126-.908-.127-.939.38.314.161.978.161.939-.38Zm-1.917.38-.119-.449c-.457.104-.892-.115-1.114.368.302.345.88.196 1.233.081Zm-64.764 0 .172-.38c-.093-.253-.689-.288-.927-.127h.117c.066.357.408.357.638.507Zm-2.274-.806-.112.518.35.069.115-.449-.353-.138Zm4.486.299c.254.023.415-.046.355-.379h-.355v.379Zm4.081-.299.409-.08-.409.08Zm-2.624.299c.041-.529-.53-.506-.81-.379-.051.633.476.379.81.379Zm40.577-1.622c-.322.771.837 1.059.638 0-.267.035-.4.092-.638 0Zm18.88-.874c-.624-.011-1.125-.621-1.463.138.404.242 1.102.61 1.579.288l-.115-.426Zm-40.098-.437h-.18l.125.357.055-.357Zm20.287-4.556.055-.368-.349.069.294.299Zm-23.443-.955c.099-.368-.398-.621-.691-.736a2.146 2.146 0 0 0-1.226-.149c.047 1.127 1.303.667 1.916.885Zm37.193-.954.516.149-.516-.149Zm-43.249.069c.647.092 1.175-.046 1.513 0 .653.115 1.666.333 2.04-.357-.639-.92-1.913-.426-3.023-.587-.592-.092-1.21-.368-1.64-.448-.627-.127-1.322-.012-1.867-.219l-1.038.449c-.212.84 1.843.563 2.556.724.546.139 1.073.392 1.46.438Zm-13.178-3.083h.874-.874Zm-7.166-.127 1.515.057c-.263-.609-1.164-.437-1.515-.057Zm47.792-.311.527.081-.527-.081Zm27.986-1.53-.066.299.523.219.181-.368-.117-.15c-.205.023-.338.115-.52 0Zm-12.534-.299c-.234-.034-.36.035-.355.3l.355-.3Zm-.817.368v-.368h-.231l.231.368Zm10.61-.069c.353.173.807.311 1.101.069l-1.102-.069Zm-1.166-.069c-.32-.656-.806.161-1.287 0 .174.368 1.024.403 1.287 0Zm-75.544-1.771-.238-.07v.22l.238-.15ZM80.26 96.9c.161.207.466.15.693.08l-.693-.08Zm6.236-.886.227-.437c-.086-.506-1.269-.598-1.507-.218.015.437.735.62 1.28.655Zm-1.868-.724-.404.069.404-.07Zm-45.407-.23-.283-.07.161.438.122-.368Zm-1.336-.277 1.053.058c-.216-.345-.748-.207-1.053-.058Zm-.061.058-.758.08c.138.15.252.357.46.438l.298-.518Zm-4.956.3.172-.22c-.066-.563-.47-.253-.684-.08l-.596.08c.364.323.75-.195 1.108.22Zm27.16-.887c-.15-.103-.242-.264-.516-.218l.516.218Zm45.642-.218-.695.08.296.288c.207 0 .161-.31.465-.219l.06.805c.36.472 1.675.771 1.565-.437-.314-.61-1.181-.908-1.691-.517Zm-1.17-.3.298.45c.157-.242-.086-.438-.298-.45Zm-73.038-.356h.713-.713Zm74.795-.449c-.143.276-.137.76.181.805.117-.218.208-.84-.181-.805ZM31.809 90.31l.305-.38c-.214-.287-.622-.172-.816.081.218.035.324.207.512.3Zm22.108-1.323-.185.138.293.15-.108-.288Zm-8.11-.736c.693-.195 1.444.034 1.98-.518.29.058.38.346.7.368l.06-.448c-.835 0-1.93-.207-2.795-.207l.055.805Zm-3.497-1.173-.406.287-.234-.287-.068.517c.377-.15.576.346 1.234.207.527.599 1.56.23 2.218.748l.166-.38c-.294-.62-1.16-.529-1.63-.954-.45.402-.86.069-1.28-.138Zm-30.604.437c-1.655-.242-3.048-.748-4.779-.736l-.108.069.046.667c.523.034.88.126 1.523.138.453.403.897.633 1.636.518.658.15 1.98.943 2.45.15-.055-.53-.552-.484-.768-.806Zm29.207.218c-.466-1.495-2.38-1.046-3.733-1.242-.196-.035-.373-.184-.587-.23-1.205-.219-2.799-.07-3.777-.288-2.192-.494-4.666-.322-7.057-.218-1.919.08-4.486-.104-6.177 0-.658.874.67.782 1.398.874.349.046.441.184.755.219 1.099.16 1.874.115 2.567.08.287-.023.603.138.87.15 1.878.069 3.878-.115 5.832.069 2.289.218 4.441.494 6.415.655 1.2.104 2.425.3 3.494-.069Zm40.344-1.69.11-.438h-.583c.106.219.208.426.473.437Zm2.505-2.336.168-.38h-.168v.38Zm-.709.218c-.128-.437-.505-.471-.935-.38l-.35-.666c-.213-.046-.244.15-.456.103-.715-.552-1.676-.115-2.512 0h-.464c.08.805 1.053.668 1.634.645.673.471 1.847.356 2.622.517.163-.057.239-.242.461-.219ZM54.151 79.6l-.072-.368c-.323-.07-.33.253-.572.276.249.126.382-.046.644.092Zm5.239-.449.406-.069-.457-.069.05.138Zm.867-1.392c.592.334 1.336.484 1.817.955.404-.23.993-.218 1.335-.506-.764-.518-2.176-.84-3.152-.449Zm-.346-.356h-.521l.052.356c.146-.506.243.138.585 0l-.116-.356Zm-46.278.138-.291-.138.291.138Zm56.076-.138c.515.874 2.268.862 3.316 1.311l.236.518c.279-.08.208-.587.349-.817l.291.23v-.667l-.401.08c-.874-.678-2.69-1.058-3.79-.655Zm23.788-.817c-.651.103-1.219.38-1.808.368-.282 0-.552-.15-.823-.15-.559.012-1.162.208-1.753.15-.598-.069-1.382-.483-1.801.3.29.068.532.206.757.356.912-.058 2.198.16 3.494.08.645.552 1.782-.057 3.148.288.523.15 1.96.575 2.567.437.35-.069 1.343-.817 1.343-1.254 0-.736-.82-.61-1.343-.863-1.026.426-2.52.092-3.78.288Zm-42.034 3.083-.232-.874c-.523.057-1.166.103-1.576-.15-1.144.265-2.596.104-3.786-.08-2.02-.99-5.029-.633-7.23-1.542-.117-.092-.106-.345-.348-.288-1.866.587-5.095-.103-6.755-.655-2.541.299-5.28-.495-7.828-.449-.22.046-.22.391-.46.449-1.264.16-2.52-.046-3.847-.08-2.708-.07-5.558-.461-8.278-.162.725.69 2.005.587 3.27.748.997.138 2.37-.288 2.5.667-.434.115-.732-.092-1.05-.092l-.406.161-.181-.23c-.38-.138-.684.196-.806.449.583.333 1.148.15 1.806.15l.121.436c.19.138.3-.046.579 0l.12.438c.734.207 1.66-.035 2.442.15l.47.218c.769.115 1.645-.046 2.506 0 2.024.115 3.93.115 5.656.506.426.103.854 0 1.275.069 1.656.299 3.413.287 5.073.46.768.07 1.585-.034 2.095.07 1.12.206 2.314.137 3.382.356 1.029-.23 2.293-1.116 3.21-.426 2.05.058 3.803.644 5.542.357l-.121-.886c.817.218 2.132.575 2.857.23Zm13.056-4.176c.01-.564-.52-.46-.871-.38-.036.53.644.656.871.38Zm12.241-.598-.064.299c.51.172 1.086.702 1.7.299-.117-.966-1.095-.621-1.636-.598Zm-.819.08c-.497-.62-.962-.356-1.51-.299-.404.046-.874-.195-1.406-.218-1.291-.046-2.88-.058-4.075-.288-.914-.195-1.991-.621-2.622-.38.02.806 1.006.633 1.573.817 1.488.506 3.153.644 4.96.806 1.13.103 2.663.736 3.08-.438Zm-12-1.024c.457.08 1.283.3 1.92 0-.275-.667-1.686-.632-1.92 0Zm1.28 3.21c-1.194-.08-1.492-1.277-2.741-1.323-.179-.587-.623-.863-1.106-1.081l.351-.449c-.583-.54-2.022-.368-2.75-.288-.257.046.081.392-.17.438-2.088.483-4.003-.806-6.055-.725-1.19.034-2.305-.53-3.449-.08l.466.517c.912.449 2.101.345 3.152.506 2.003.31 3.844 1.473 5.778 1.979 1.229.322 2.485.46 3.783.667.157-.103.243-.322.46-.368.45.587 1.423.909 2.282.736v-.529Zm-4.549-3.647.815.219.06-.449h-.875v.23Zm36.9-1.173-.055.425c.285.15.318-.483.055-.425Zm-41.096.218a1.19 1.19 0 0 0-1.466-.506v.357c.402.195 1.08.564 1.466.15Zm-46.64-.15v.22c.846.39 2.192.344 2.751-.288-.54-.61-2.146-.357-2.75.069Zm3.332 0c.644.15 1.474.173 2.269.07l.06-.426c-.674-.31-1.583-.264-2.33-.092v.449Zm60.442-.804-.296-.07.06.288.236-.218Zm-.823-.15-.404-.218.404.218ZM0 71.005c0 .794 2.007 1.07 1.625-.138-.561-.103-1.164-.057-1.625.138Zm2.152-.138-.062.587c.382.058.736.161 1.05.3.886-.645-.295-1.485-.988-.887Zm103.055-.517h-.289.289Zm-64.7 0h.52-.52Zm-1.225-.07c-.375-.436-1.422-.31-1.757.07.298.299 1.627.77 1.757-.07Zm-7.057 0 .348.07-.289-.357-.06.288Zm3.322.22c.404.08.93.39 1.046-.22-.329-.598-1.953-.575-2.388-.068.095.54.85.184 1.342.287Zm-9.55-.588v.369c.623.39 2.005.299 2.497-.07.302.323.971.357 1.519.357.494 0 1.304.035 1.284-.517-1.616-.357-3.496-.081-5.3-.139Zm65.566.438c.442-.012.457.517.992.38.086-.311.233-.956-.054-1.105l-.938.725Zm-20.858-.576.512.219c.462.345 1.25.276 1.645.506.23-.38.457-.471.693-.725-.616-.31-2.197-.138-2.85 0Zm-27.87-.15c-.454.081-1.244-.252-1.233.427.413.23 1.104.701 1.461.299l-.227-.725Zm18.601-.149c-.239-.253-.81.092-.764.668.404.195.79-.104.764-.668Zm-54.677.3c-.415-.69-1.245-.3-1.923-.369-.37-.046-.79-.253-1.18-.287-.725-.08-1.462 0-2.082 0-.433-.012-1.113-.345-1.23.425.643.84 1.797.311 2.674.737.496.287.953.61 1.757.506.18-.173.344-.391.582-.506.31.172 1.352.115 1.402-.507Zm39.752-1.462c.27.196.517.415.991.357l.234-.667c-.273-.23-1.245-.3-1.225.31ZM29.72 66.542h.466-.466Zm-4.196-.288c-.351-.011-1.104.058-1.565.15l1.565-.15Zm49.55-.15-.064-.517.064.518Zm.634.576c.219-.265.42-.552.42-1.093-.424-.207-.495.54-.773.725-.002.299.121.414.353.368Zm.234-2.186c-.325.219-.4 0-.755-.08v.299c.329.115.521-.058.755.218v-.437Zm-62.014-.3-.243-.08.243.38v-.3Zm.645.22-.248-.22.248.22Zm3.315-2.198.113.518c.172-.138.154-.53-.113-.518Zm-6.293-2.715.41.288c.06-.334-.196-.288-.41-.288Zm.642-.655h.587-.587Zm-5.37-1.024c.672.529 2.039.575 2.865.287-.314-.851-2.212-.564-2.866-.287Zm91.931-5.96-.176.38.229.15-.053-.53Zm-2.333-.793v.15l.06.068h.117l.057-.069v-.15L96.64 51h-.118l-.06.069Zm-4.188.356c.813.253 2.572.748 3.013-.506-.743-.207-2.097-.736-3.081-.218l.068.724Zm-9.743-.506c.342.115.297-.253.576-.218.179.195-.005.84.349.805l.066-1.024c-.385-.035-.528.069-.991-.08v.517Zm.297-1.392c-.253-.034-.375.08-.353.368h.353v-.368Zm15.274.219c1.318.494.04-1.703 0 0Zm-6.709-1.6c.228.127.813.162.7-.379-.247-.15-.724-.035-.7.38Zm-55.37-1.99.224-.23h-.29l.067.23Zm-.419-.287-.293.437c.267.276.602-.265.293-.437Zm-9.735.218c.263.587 1.085.15 1.64.219.405.035 1.031.334 1.1-.3-.32-.448-1.157-.114-1.636-.08-.254-.287-.973-.437-1.104.161Zm5.477-.299c.243.403.775.276 1.007-.08-.252-.161-.863-.253-1.007.08Zm-7.746.3v-.38c-.364-.3-.85 0-1.461-.07-.057.875 1.066.576 1.461.45Zm58.222-1.542c.693.253 1.66.31 2.4.368.266.011.763.403.803-.23-1.066-.276-2.015-.667-3.203-.575v.437Zm-.75-.3.465-.068c-.267.057-.2-.276-.404-.3l-.062.369Zm-23.082 0c.31.61 1.753.438 2.265.3l-.108-.437c-.916-.184-1.965-.369-2.556.138h.4Zm-10.666.22c-.283-.564-1.448-.979-1.813-.22.568.093 1.327.725 1.813.22Zm-6.135-.438c-.71-.38-1.499-.38-2.492-.53l-.06-.068-.057.299c.724.61 1.839.713 2.684 1.185.33.748.905 1.208 1.859 1.173.616-1.173 2.247-.046 2.912-.736-.16-.76-.903-.483-1.4-.587-1.046-.241-2.307-.701-3.446-.736Zm56.61-1.829.067-.15-.477-.218c-.113.184.137.437.41.368Zm-39.398-.23c.304.046.435-.115.532-.38l-.532.38ZM36.37 41.75c.223.07.294.07.517 0h-.517Zm20.808-.276c.298.058.73.15.876-.08-.313-.127-.715-.392-.876.08Zm-17.486-.31.064-.3-.658.081c.336-.092.259.322.594.219Zm-1.87-.3.345-.206-.4.08.056.127Zm55.843-.206c.216.08.234-.357.055-.369l-.055.368Zm-6.885-.23.532.16-.532-.16Zm-50.066-.725h.248-.248Zm61.977 1.403.159.368.06-.679c-.232 0-.45-.011-.513-.207l.453-.38-.053-.425c-1.132-.288-3.057-.61-4.38-.08.215.402.813.299 1.226.437-.13.23-.283.471-.577.517.826.196 1.672 1.082 2.563.507.323.126.82.253 1.062-.058Zm-67.05-2.002c.35.3.983.08 1.354.08l-1.353-.08Zm58.755-.805-.813.07.813-.07Zm-63.77.3c-.3-.208-.812-.564-1.22-.23.364.16.779.597 1.22.23Zm-1.565-.23v-.277l-.472.276h.472Zm74.374-1.68c.058.322.214.506.521.506v-.576l-.521.07Zm-7.108.08-.585.08c.38.047 1.03.104 1.285-.08h-.7Zm-4.965-.15c.1.507.5.346.937.369.84.046 2.125.31 2.626-.219-.735-.794-2.551-.736-3.563-.15Zm6.24-1.91h-.288.289Zm-.635 0-.234-.068.055.368.18-.3Zm-58.641 0c.501.277 1.442.691 1.923.3-.545-.253-1.378-.46-1.923-.3Zm51.703-.206.466.287.117-.15-.583-.137Zm14.166.207c.359.046.598-.08.587-.506-.252-.346-.704-.046-.764.299-.234-.092-.528.195-.525.655l.114.15c.415.08.376-.414.588-.598Zm-6.354 0c-.02.529.462.345.764.299 1.029.471 2.492.034 3.539.357.253-.323 1.06.057 1.291-.288.066-.679-.283-1.012-.814-1.024-.967-.023-2.592.012-3.031.506-.568-.402-1.12.196-1.749.15Zm-60.208-.207c-.468-.15-1.192-.679-1.585-.219l.126.357c.285-.046.324.218.512.287.287-.345.79.046.947-.425Zm48.372-.817h-.236l-.051.368.287-.368Zm-61.49-1.024c.187.127.198.391.405.437.501.115.653-.322 1.049-.667-.63-.54-1.616-.552-2.45-.506-.998-.253-2.078-.552-3.263-.288.006.288.558.276.35.587-1.008-.702-2.211-.794-3.61-.886l.112.805c.298 0 .466.346.755.438.322.092.728-.047 1.174 0 .42.046.854.299 1.28.38.76.126 1.56.057 2.212.206.42.104.78.322 1.221.161l-.055-.598c-.258.046-.645.115-.817-.299.548-.046 1.142-.115 1.636.23Zm62.128-2.565.247.299.285-.23-.532-.07Zm1.468 0c.298 1.184 1.89.494 2.446 1.242.755.058 1.245-.863.571-1.392-.958.184-2.114-.196-3.017.15ZM65.22 29.06c-.083.173-.14.794.175.668-.027-.265.09-.714-.174-.668Zm-2.626-.218c.814 1.058.441-1.312 0 0Zm-29.6-1.093c-.523.115-1.141-.173-1.404.15.486.23.74.322 1.276.425l.128-.575Zm42.078-.23-.531.23c1.004.552 2.097.16 3.262.506l.647-.667V27.3c-.41-.322-.481.357-.76.449-.368-.713-1.902-.345-2.618-.23Zm-59.05.16-.116-.448c-.133.115-.2.518.117.449Zm47.625-.666c.035.218.121.38.348.356l.062-.357h-.41Zm-10.382-.3c-.23-.264-.634-.287-.516.38.125.092.216.253.463.207l.053-.587Zm5.305-1.46-.643-.22v.3c.274-.012.552.31.643-.08Zm-46.041-.369-.126-.437c-.082.104-.102.518.126.437Zm14.04-.725-.118.438.294.138v-.576h-.177Zm51.709-.678.057.598c.19-.219.314-.495-.057-.598Zm-28.152.092c.24.138.689.632.931.138-.32.023-.653-.357-.931-.138Zm27.565-.368c-.303-.058-.345.195-.466.368h.578l-.112-.368Zm11.549.057.342.08c.3-.643-.38-.713-.342-.08Zm-1.753-.207-.066-.368c-.52-.058-1.362-.403-1.746.138.298.575 1.373.345 1.812.23Zm8.51-.886.294.38-.122-.449-.172.07Zm-4.843 0c-.21-.115-.638-.15-.578.288.216.184.591.046.578-.288Zm-46.158.15c-1.168-.31-2.638-.552-3.618-.437v.218c2.313.817 4.94 1.22 7.454 1.473l.241-.23c.155.207.671.322.931.138-.289-.023-.355-.31-.644-.357l-.34.138c-.642-.356-1.38-.633-2.106-.656-.258-.011-.51.184-.76.162-.377-.058-.728-.334-1.158-.45Zm40.796-.506c.364.092.843-.07 1.335 0-.094-.46-1.099-.242-1.335 0Zm4.196-.23v-.139l-.055-.08h-.117l-.062.08v.139l.062.08h.117l.055-.08ZM46.624 20.49l.232.287.06-.437-.292.15Zm-2.325-.886.106.437.188-.138-.294-.3Zm2.212-.357.062.207h.283l.06-.287-.405.08Zm-2.329.437c-.647-.241-1.872-.909-2.693-.437.192.472.846.334 1.409.357.262.253 1.147.748 1.284.08Zm-26.82-1.173v.218c.236.104.686.254.764-.149-.25 0-.517-.288-.764-.069Zm-.985-.07h-.353.353Zm26.52 0c.623.311 1.696.795 2.378.346l-.16-.437c-.745.518-1.677-.909-2.217.092Zm-2.218-.609v.31c.664.07 1.077.53 1.872.3-.236-.84-1.62-.161-1.872-.61Zm-24.944.518c-1.042-.322-2.698-.53-3.671-.288-.651-.31-1.603-.506-2.228-.138.645.575 1.378.242 2.279.288 1.211.057 2.715.99 3.62.138Zm28.083-1.024c-.265.069-.369-.115-.633-.069l.633.069Zm-1.686-.138c.335.138.891.518 1.053-.08-.259-.035-.892-.23-1.053.08Zm45.529 0 .055-.368h-.172l.117.368Zm-68.955-1.323.172.3-.172-.3Zm51.003-.368v.586c.248.081.248-.667 0-.586Zm-55.023.23-.236-.3c-1.033.127-1.616-.172-2.508-.08.415.438 1.126.829 1.632.449.32-.08.304.241.591.23.795-.495 1.749.564 2.33-.23-.687-.426-1.19-.196-1.809-.069Zm54.73-.598-.3.218.355.08-.055-.298Zm18.766-1.542c.293.058.434-.103.472-.368h-.519l.047.368Zm-64.64.805c-.366-.644-.9-.276-1.401-.276-.548-.023-1.201-.333-1.865-.437-.464-.092-.992.058-1.457 0l-.579-.31c-.631-.15-1.346-.023-1.984 0-1.113.057-2.318-.46-3.031.218.618.173 1.022.61 1.519.15.38.794 1.381.218 2.15.655l-.287.53c.388 0 .51.069.876 0 .106-.184.086-.53.298-.587.481.023.905-.035 1.27-.15.966.495 2.344.207 3.503.288l.989-.08Zm65.46-.805c.224.012.334-.115.345-.368l-.462.08.118.288Zm-29.718-.725c-.389-.069-.314.45-.071.507l.07-.507Zm-43.609-.736c.272-.069.353.092.526.15l.117-.15h-.643Zm12.878-1.323c.212-.046.33.184.473 0h-.473Zm9.089-.587-.283.23.06.357.52-.218-.297-.369Zm-3.492-.138c-.14.207-.003.553.29.438l-.29-.438Zm-1.228.219c.36-.104.927.38 1.002-.08-.176-.173-.792-.23-1.002.08ZM7.746 9.78c.243-.057.618.092.764-.069l-.764.07Zm94.201.15-.293-.368c-.192.172-.239.69 0 .886.238 0 .183-.346.293-.518Zm-93.274-.3v.15l.06.08h.123l.06-.08v-.15l-.06-.068h-.123l-.06.069Zm85.813-.943.757-.069c-.05-.333-.536-.38-.757-.23v.3Zm-1.053 0 .585-.069-.585.07ZM75.489 8.17c-.687-.334-1.919-.334-2.702-.08-.853-.565-2.502-.22-3.716-.22-.198-.022-.121-.39-.355-.367-.455-.058-.73.103-.7.667.74.402 1.784.08 2.74.138.713.046 1.437.529 1.925.08 2.328.242 4.57.357 6.591-.08.258.529.497-.092 1.046 0 .336.633 1.605-.104 1.925.667.391-.127 1.042-.173.866-.805-1.391-.31-2.987-.552-3.837-.15-1.174-.471-2.817-.598-3.783.15Zm20.443-.437c.709.207 1.346.023 1.991 0l-.238-.53c-.45.345-1.351-.31-1.753.3v.23Zm-.643-.23-.803.23c.24.034.81.241.803-.23ZM5.357 7.79c.223.23.603.23.987.23l.475.288.163-.219.36.598c.34-.218.698 0 .874.219.484-.173 1.777-.242 2.031.357-.223.356-.925.103-1.22.368.77 1.035 2.598.506 3.904.955 2.881-.254 7.7.736 10.141-.656-.238-.138-.26-.104-.578-.07-.388-.402-.976-.287-1.514-.298-.33-.012-1.18.057-1.285-.368 1.132-.265 2.41.172 3.377-.507.115.115-.002.495.237.438.203-.012.278-.196.523-.15l-.172-.736c-.7.218-1.192-.46-1.985 0-.238-.07-.305-.345-.583-.368-.335.23-.622.023-.922-.138-.824-.184-2.237-.104-2.98-.587-3.954-.023-8.755.184-12.713.207-.402 0-.987-.23-1.283.15.183.253.64.356.934.368.4.034.859-.058 1.23-.08Zm87.78.38c.426-.035.762-.161.936-.518-.693-.713-1.432-.103-2.45-.15l-.17.45.516.436c-.832.426-1.635-.31-2.558-.437-1.274-.172-2.552.138-3.618.219-.01-.414.43-1.001 0-1.243-.402.426-1.055 1.208-1.625.944l-.178.299c-.217-.253-.705-.092-.753.299.466.16 1.139.069 1.684-.08 1.088.805 2.837.379 4.49.517.746.54 1.898-.035 2.735.138.196-.08.223-.414.475-.426.136.23.468.391.693.138l-.177-.586ZM51.001 6.18c-.263.069-.38.264-.583.31-.273.058-.702-.046-1.174-.092-.808-.034-1.828.115-2.671 0-1.104-.138-2.68-.069-3.675-.218-.7-.093-1.486.046-2.106 0-.259-.012-.468-.208-.691-.208-.298-.011-.663.185-1.003.208-.51.069-1.26-.23-1.386.368.749.586 1.733.276 2.623.38 3.25.344 6.454 1.207 9.499.862.65-.495 1.895-.092 2.686 0 .587.092 1.28.023 1.914 0 .609 0 2.4.38 2.508-.287.145-.863-1.19-.886-1.744-.955-1.28-.15-3.023-.645-4.197-.368Zm-.293-3.659c-.318-.011-.563-.126-.94-.08l.94.08Zm-13.704-.299c-.298-.069-.634-.207-.872 0l.346.518.526-.518Zm.587-.207v.276h.532c.03-.356-.278-.276-.532-.276Zm-2.92.276h.754c-.057-.76-.887-.138-1.275-.506v.955c.24-.058.24-.426.52-.449Zm-5.186-.575-.168.299c-.106-.23-.18-.518-.466-.53l-.06.61c.275.116.62.357.873.277l-.179-.656Zm8.92 1.622c.254.023.493.23.764.288 1.455.276 3.364.115 4.782.15.2.034.231.333.454.356.356-.46.826.046 1.226.138.222-.035.247-.322.46-.357.553.08.961.31 1.29.667.786-.184 1.459.334 2.386.219.212-.058.15.265.36.219 2.691.16 5.856.644 8.808.517.653-.046 1.448-.126 2.086 0 .216.035.51.276.764.288.247.011.445-.127.695-.138.795-.08 1.846 0 2.45.069 1.14.115 2.347-.115 3.492.218-.269.242-.825.127-.922.576.238-.219.445.172.75.23.683.115 1.358-.576 2.102-.53.2.07.075.553.353.53a1.36 1.36 0 0 1 .75.069c.497-.403 1.484-.196 1.98-.599.08.196.08.507.358.46.415.07.837-.31 1.28-.31l.416.15.57-.3c.434.012.529-.149.873-.218.239-.012.404.15.645.15.45.023.991-.3 1.508-.277 2.13.023 4.317-.678 6.247-.598.669-.195 1.382-.702 2.156-.506 1.945-.943 4.56-.713 6.232-2.06.137.047.263.116.472.081l.64-.667-.286-.368c.176-.483.52-.357.743-.805.3.195.72.138.709-.45-.208-.068-.58-.23-.819.081-.709-.54-1.865-.115-2.74-.506-.405.484-.845.08-1.337 0-.826-.138-1.766.138-2.389 0-1.459-.333-2.93.219-4.38.368-.622-.08-1.472.092-2.14.138-.906.07-1.914.737-2.693.23-1.347.61-3.007.3-4.663.576l-.296.16c-3.593.254-7.657.369-11.182.714-2.475-.16-5.215.53-7.583.08-.455.311-1.009.07-1.46.23l-.399.22c-.587-.012-1.159-.645-1.704-.38-.214.115-.289.356-.519.667-1.421.391-3.512-.23-4.894.138-.441-.242-1.231-.058-1.64-.357l-.223.219c-.3-.334-.79-.058-1.225-.08-.426-.024-.84-.415-1.161-.139.002-.61-.804-.471-1.172-.368-.053.058.161.368-.113.437-.41-.092-.611-.287-1.103-.138l-.248-.667c-.507.242-.9-.207-1.11.138.148.207.32.127.543.08.11.46.42-.01.627.45-.877.344-2.294-.311-2.616.425.276.437.651.034 1.047.092Z" fill="#100F0D"/></svg>