<svg preserveAspectRatio="none" viewBox="0 0 73 132" fill="none" xmlns="http://www.w3.org/2000/svg"><path d="M72.225 76.586c-.227-.189-.29.355-.246.95l.353.254-.107-1.204Zm-1.637 16.377.038.119.01 1.01c.396.329.539-.572.448-1.456-.224-.246-.393.036-.496.327Zm-5.145 26.016-.06.29.075.288.08.039.06-.305-.096-.342-.059.03Zm6.132-42.38c.273.26.32-.187.302-.826-.251-.526-.472.276-.302.825Zm-9.7 36.586c.005.395.206.721.37.497l-.37-.497Zm7.365-50.947-.253-.462c-.315.61.3 1.415.253.462Zm-.839 22.066c-.343.782.26 2.603.558 1.415.088-1.058-.218-1.497-.558-1.415Zm-7.372 28.948.336-.209-.336.209Zm.312-43.198-.235.12.263 1.21h.06l-.011-1.098-.077-.232Zm-2.07 41.382-.275.038-.102.491c-.02.587.232 1.109.426.944.193-.156.199-1.264-.049-1.473Zm13.423-18.473.099-.188.097.248-.041.296.12-.529-.018-.118-.257.29Zm-11.713 3.012c-.35-.15-.463.438-.733.54l-.305 1.035.034.7.153.594c.296.44.536.052.671-.303l.078.02.197-2.244-.095-.342Zm11.225-1.237.409.374.191-1.556c-.353-.593-.653.112-.6 1.182Zm-32.419 17.57c.17.102.3.051.28-.559l-.234-.313-.099.059.053.813Zm-.219 2.61-.022.304-.018-.394-.236.171.508.327-.095-.364-.137-.044Zm26.962-7.832c-.181-.543-.365.044-.318.475l.076.342c.217.157.25-.267.242-.817Zm-.097-11.476.004-.304.018.155.035.17-.057-.021Zm.159-.304-.174-.068-.046.677c.174.461.305-.09.22-.609Zm-3.64-27.059.152.543c.227.186.353-.2.34-.566l-.077-.379c-.178-.388-.443-.327-.415.402Zm.228 34.927-.22.535.172.759c.447.238.334-1.249.048-1.294Zm1.632-40.654c-.087-.408-.267-.468-.49-.558l-.22.573-.025.64.215.037-.12.365.115.305c.127.044.14.222.314.222l.26-.669-.05-.915Zm-.078 31.744-.025.55c.169.453.32-.135.201-.581l-.176.03Zm-5.667 6.939.03.854c.25.447.428-.445.245-.892l-.275.038Zm3.479 9.349c.2.378.413.082.362-.67-.168-.73-.523-.082-.362.67Zm-.274 4.447c.25.177.315-.349.224-.788-.246-.477-.393.409-.224.788Zm5.916-35.826-.49-.312-.063.447.098.265-.041.24c.175.81.647.46.496-.64Zm-1.393 8.583c.315.089.449-.966.312-1.815-.546-.298-.694 1.236-.312 1.815Zm1.254 5.326-.025.467.137.358c.245.267.382-.588.245-1.153-.189-.097-.311-.022-.357.328Zm-1.347 23.858c-.284-.224-.397 1.293-.03 1.184.208-.06.245-1.02.03-1.184Zm1.57-26.715.086 1.19c.385.38.507-.722.367-1.489-.234-.288-.334.084-.453.3Zm-27.156 18.512-.094-.446-.06.015-.057-.127c-.265-.149-.39.439-.613.38l-.165.675.308.879c.264.178.312-.357.42-.633l.262-.743Zm25.557-18.065c-.212.178-.392.49-.558.831l.051.916.075.371c.139.268.273.759.466.766l.298-.46.05-1.072-.058-.17-.324-1.182Zm-4.94-2.084-.178.141.31.485-.132-.626Zm.788 22.692-.155-.387-.14.261.295.126Zm-6.662-10.152-.129-1.01-.176-.031.041-.127c-.17-.051-.17.461-.28.58l.053.55.058.173.332.193.1-.328Zm-9.95 5.25.008-.015v.015h-.008Zm.726 1.304.081-.343-.1.052-.012-.782c-.085-.653-.35-.877-.563-.788l.099-.149.005-1.613h-.117l-.236-.872-.059.395.02-.631-.233-.023c-.23-.267-.408.306-.533.714l-.141.901.095 1.472.156.766.215.498c.097-.424.239-.17.432-.193l.067-.343.042.038c.032.632.199.982.504.982l.22-.267.058.186Zm-1.723 5.779-.196-.127-.119.104.019.229-.182.395.056.416c.052.581.3.766.506.654l.02.112.122-.646-.226-1.137Zm11.739-12.719-.14.267-.025.558.533-.216-.192-.527-.176-.082Zm-11.047 7.846-.024.402-.097-.245c-.147.489.109 1.137.309.854.109-.4 0-.944-.188-1.011Zm9.925-3.295.37.402.005-.506-.274-.38-.101.484Zm.378 3.779.357-.126-.357.126Zm-6.083.565c-.442.021-.314 2.082.178 2.008.233-.023.338-.521.285-.974-.058-.551-.27-1.034-.463-1.034Zm6.978 16.726-.24.343.37.341-.13-.684Zm-.649-27.435-.215-.047.052.752c.2.216.245-.364.163-.705Zm-3.122-2.953c.205.363.358-.15.243-.633l-.197-.134-.046.767Zm9.382 4.967c-.197-.118-.34-.082-.359.365.137.581.571.364.36-.365Zm-17.931-1.517.204 1.353c.477-.096.18-2.178-.204-1.353Zm2.542 10.956-.255-.037-.161.526.306.849c.256.045.32-1.012.11-1.338Zm25.841-41.956-.004.589c.197.208.172-.625.004-.59Zm-.733.676-.297.402.01 1.043c.46.773.603-1.243.287-1.445Zm-21.278 37.375-.136-.053-.083.484c.106.834.517 0 .22-.431Zm12.307-23.8-.14.326-.125.939.524.632c-.109-.677.118-1.808-.259-1.896ZM54.82 98.6l-.21-.611c-.162-.26-.343-.238-.472-.282l-.3.752-.004.342-.06.187-.029 1.145.034.549.22-.343c.397.439.59-.021.848-.312l.182-.602-.209-.825Zm-.237 11.52-.238.224-.104.586.528.425-.186-1.235Zm17.273-36.198c.186.208.298-.885.046-.915l-.103.514.057.401Zm-23.51 43.138.214.237.082-.534-.296.297ZM62.34 93.549l.112.715c.144.348.46.311.643.58l-.016-.423.047-.842-.707-.26-.06.186.216.044h-.235ZM32.4 22.039l-.336.512.336-.513Zm-.845.527c-.01-.632-.211-.99-.373-.58-.155 1.546.39 1.793.373.58Zm.128 35.045.134.87.178-.304-.312-.566Zm-2.872-6.917c-.172-.572-.32.38-.198.952l.177-.119.021-.833Zm2.62-10.687c-.137-.803-.57-.29-.355.692.197.096.337-.06.356-.692Zm-1.144 49.527c.18.511.444.305.415-.782l-.156-.714c-.226-.15-.352.47-.336.982l.077.514Zm.631-63.897.155.476.14-.43-.295-.046Zm2.623 35.56-.021-.313-.293-.424c-.313-.081-.49 1.22-.476 2.455l-.197.2.258.907.13-.282.022.06c.396.639.694-.343.71-1.748l-.075-.781-.058-.074ZM21.276 79.114l.115 1.68c.226.194.287-.633.24-1.502l-.355-.178Zm-.486 13.909.003-.857c-.2-.2-.17 1.011-.003.857Zm5.918-73.766c.285.193.391-2.09.026-1.77-.208.185-.243 1.62-.026 1.77Zm17.93 105.47c-.213.64-.026 1.979.192 2.158.173-.664.107-2.3-.192-2.158ZM21.52 91.719l.297-.721-.015-1.538c-.466-.908-.6 2.105-.282 2.26Zm5.564-41.366-.001.438-.02-.245-.037-.232.058.04Zm.017.52.043-.99c-.176-.624-.306.24-.219.976l.176.015Zm4.045-30.813c-.25-.142-.312.646-.219 1.302.248.514.392-.797.219-1.302ZM21.73 85.918l.101-.832-.058-.552c-.188-.23-.294 1.407-.043 1.384Zm.31-5.421c-.274-.253-.32.415-.298 1.34.255.647.47-.613.298-1.34Zm4.486-26.232-.045 1.606.06.245.328 1.577c.213-.386.388-.914.553-1.473l-.055-1.324-.076-.535-.299-.691h-.657l.198.566-.007.029Zm3.772-16.466.219-.924-.135-.802.108-.38c-.044-.728-.464-1.078-.656-.469l-.002.774.236.364c-.07.58.044 1.473.23 1.437Zm-7.847 19.009c.227.276.392-.253.494-.715l-.04-.163-.016-1.458c-.396-.282-.536 1.103-.438 2.336ZM45.75 96.807l.118-.684c-.182-.148-.174-.394-.353.052l-.16 1.273.154 1.338c.185.527.438.162.57-.477l-.132-1.852-.081 1.05h-.178l.062-.7ZM21.318 54.236l-.41-.358-.183 2.342c.355.722.652-.452.593-1.984Zm9.577-27.528c-.204-.482-.413.059-.357 1.116.17 1.012.522-.105.357-1.116Zm-3.965 6.857c.184.753.365-.2.316-.802l-.078-.49c-.22-.12-.249.512-.238 1.292Zm-1.563 20.023-.208.26-.007-.06h-.43l.172.602.12-.296h.087l.026 1.308c.188.06.31-.126.355-.647l.021-.684-.136-.483Zm-.192 14.197c.337-1.346-.274-3.702-.568-1.828-.08 1.584.228 2.066.568 1.828Zm2.84-52.537-.077-.38h-.078l-.061.439.098.462.06-.06.059-.461Zm16.505 22.67-.355.564.214.506.04-.625.08-.059.021-.386Zm-6.983-12.072-.354.343c-.003.899.422 1.212.354-.343ZM36.557.932l.239-.597L36.423 0l.133.932Zm1.38 30.247-.373-.41-.002.758.274.426.1-.774Zm-2.384 18.17.176.713.197-.364c.071-1.785-.397-1.353-.373-.35Zm9.506-38.66-.215-.232-.08.848.295-.616Zm4.898 5.332.018.543.118.09-.078-.179.06-.306.057.247-.038-.247.118-.133-.057-.386.04-.06.157.691c-.004-.765-.122-1.137-.353-1.033l-.042 1.227v-.454Zm-15.793 7.906.274-.186.1-.766c.017-.9-.236-1.525-.428-1.22-.193.32-.195 1.964.054 2.172Zm.336 38.125c-.175-1.124-.596-.215-.453 1.258l.155.49.005-.023.118.544.105-.58h-.153c.197-.202.239-.989.223-1.689Zm5.255 51.667.354.127-.04-.245-.314.118Zm.07-12.591-.136-.692-.057.136-.078-.291-.297.564.035 1.31.06-.142.473-.885Zm-.415-6.032-.239.67-.138.833-.06.082c-.16.944.034 2.053.366 2.163.182-.876.641-.876.539-2.692l-.078-.162h.04l-.08-.462-.096-.32-.254-.112Zm10.514-73.787.04-.074c.054-1.235-.514-1.37-.375.037l.178.32.117-.142-.017-.29.057.149ZM35.318 73.364c.035 1.31.381 1.57.587.766l.06-.826c-.158.039-.088-.513-.116-.78l-.372-.453-.16 1.293Zm5.817-40.684-.081.923.234.96.234.557.22-1.287.04-1.07-.647-.083Zm1.467-5.34h.136l.082-.744c-.109-1.166-.518.239-.218.744Zm-6.987 84.379h.04l-.137-.461-.217.059c-.192.79.012 2.263.27 2.017l.143-1.436-.08.149-.02-.328Zm3.245-88.015.236-.454.1-.908-.53-.356.194 1.718Zm10.715 91.66-.217-.188-.092.857-.211.788.088.967.389.796.197-.045c.196-.164.344-.84.309-1.718l-.315-.788-.148-.669ZM44.35 11.38l-.095-1.383-.392-.952-.197.134c-.194.305-.34 1.353-.3 2.647.084.573.163.787.332 1.034.294.401.63-.41.652-1.48Zm-.734 10.844c.443-.23.303-3.199-.19-2.87-.231.133-.334.915-.28 1.57.063.765.277 1.403.47 1.3Zm-4.119 12.74-.021 1.079.312.49.102-.757-.08-.314.238-.432.176-.206-.037-.387h.078l.12-.834.237-.497.14-.767.158-.438.12-1.139-.075-1.704-.175-.795c-.177.067-.316-.343-.468-.253l-.376.803-.202 1.577-.098.223-.08.61-.199.663c-.19 1.055-.026 2.453.13 3.079Zm9.51-.245-.212-1.874c-.475.357-.167 3.257.211 1.874Zm-2.597-14.86.256-.068.16-.825-.312-1.115c-.255.059-.314 1.621-.104 2.008Zm.403 3.8-.079.506.1-.12.015 1.146c.101 1.035.44 1.212.658.767-.093.594.076 1.219.373 1.219l.037-.609.172.326c.255-.78-.204-1.62-.55-1.13l-.01.06.009-.633.077.082.08-.596-.098-.087c-.032-.93-.2-1.34-.508-1.22l-.216.512-.06-.223Zm1.693-9.273.197.118.117-.24-.018-.288.18-.692-.058-.543c-.056-.848-.304-.989-.51-.744l-.019-.142-.121.967.232 1.564Zm-.666 7.458.022-.61.098.299c.144-.79-.116-1.57-.314-1.087-.105.625.006 1.421.194 1.398ZM37.726 36.927l-.1.52.134 1.392.177-.059-.04.224c.17 0 .166-.7.277-.945l-.056-.789-.058-.216-.334-.127ZM33.755 77.35l.195.567c.263-.686-.197-1.607-.195-.567Zm7.795 25.824.061-1.079-.057-.631-.059.253-.018-.627-.078-.148-.236-.037c-.188-1.033-.272 1.035-.241 2.046-.167.758-.257 1.495-.302 2.662l.352 1.034.351.341c.27-.393.558-.727.5-2.482l-.06-.09-.213-1.242Zm12.144-88.29-.057-1.146c-.17-.067-.301.075-.278.96l.235.319.1-.134ZM32.207 83.471l.017 1.614.077.334.238-.305-.271-1.643h-.06Zm10.554 30.21-.256-.177.001-.313c-.272-.089-.34.542-.297 1.577.212 1.22.715.714.552-1.087ZM53.705 9.825l.138.022.022-.46.016.55.237-.394c.047-1.264-.534-1.628-.51-.178l.097.46Zm-29.259 90.596.254.551c.311-1.012-.308-1.925-.254-.551Zm19.543 25.235c.284.017.155-1.88-.094-1.487-.193.312-.086 1.444.094 1.487Zm-1.421-5.235c-.012.618.07.9.234.862l.06-1.13-.057-.179-.237.447ZM56.305 15.278l.137.854.035.61.08-.223.194.55.02-.222.396-.566-.057-.765-.02-.172c-.135-.52-.408-.863-.628-.46l-.216.133-.002.388.06-.127ZM25.902 75.4l.06-.683-.097-.328.041-.37c-.18-1.103-.651-.412-.496 1.166l.492.215Zm9.567-16.213c-.343-.437-.541.543-.454 1.85l.23 1.557.179-.656.08-.378c.143-.915.154-1.644-.035-2.373Zm-.051 5.133-.1.75c.084.261.136.655.312.596l.083-1.078-.254-.485-.041.217Zm-.287 12.948c.195.32.368-.425.198-.915l-.02.244.059-.437c-.215-.595-.422.49-.237 1.108Zm-.405-10.89.16-1.509c-.31-.892-.578 2.082-.16 1.51Zm1.206 12.586-.159.757c-.06 1.31.133 1.688.349 1.957l.275-.514.007-1.844-.062.692-.058-.156.12-.668c-.115-.485-.278-.224-.472-.224Zm-.435 1.658.158-.908-.117-.103.097-.358c-.09-.207-.128-.579-.292-.512-.177.52-.052 1.94.154 1.88Zm-1.024-6.73-.142 1.04c.02 1.347.748 1.63.59-.378l-.138.289.081-.669c-.081-.445-.211-.216-.391-.283ZM52.423 20.2l.059-.06.057.15c.267.096.39-.819.613-.864l.16-1.026-.31-1.13c-.267-.143-.313.624-.419 1.1l-.257 1.205.097.625Zm-18.401 80.623-.137-.165h.068l-.136-.482-.173-.305c-.16 0-.292.022-.447-.142l-.416.648-.244.825-.103.06c-.281.944.064 2.081.649 2.223.316-.885 1.124-.848.939-2.662Zm-.081 4.967-.239-.692-.105.134-.136-.335c-.198.067-.375.209-.52.573l.065 1.31.104-.134c.189.913.904.208.83-.856Zm-18.36-5.251.208-.58-.207-.416c-.224 0-.247-.26-.552-.224l-.451 1.101.101 1.333c.155.564.472.52.86.624.178-.342.332-.505.384-.945.036-.327-.127-.751.036-.922l-.38.029Zm2.298-7.883-.274-.729c-.4-.186-.617.439-.59.945l.137.528c.316.506.78.342.727-.744Zm30.036 4.968-.139-.095.002-.047.14.099-.003.043Zm.175-.52-.03.059-.148-.87-.291.364-.292.06-.069.2-.103-.082-.162.403.094-1.206-.392-.81-.218.752c-.066.944.153 1.91.453 1.65l-.054.402c.125.796.44 1.577.859 1.472.19-.03.447-.511.485-.937l-.132-1.457Zm-21.497 19.248-.033-.305h.069l-.24-.484-.38.045c-.34.767.023 2.284.477 2.052.214-.118.326-.945.246-1.457l-.14.149Zm-8.145-71.727c.347.103.595-.037.622-.684-.243-.789-1.002-.328-.622.684Zm.085-20.64c-.441-.186-.549.619-.383 1.264.436.552.687-.765.383-1.264Zm27.917 78.92.247-1.576c-.128-.202-.512-.894-.688-.849l-.383.722c-.117.952.283 1.971.824 1.703Zm-15.182-5.609c-.508-.133-.812.819-.66 1.77l.377.805c.492.32.974-.67.765-1.845l-.482-.73ZM17.074 41.629c.246-.014.213-.706.382-.862l-.308-1.035c-.793-.186-.574 1.964-.074 1.897Zm16.193 57.195.175-.588-.138-.484c-.394-.245-.456 1.05-.105 1.05l-.139-.298.07-.312.244.022-.107.61Zm-15.164-68.21c-.358-.482-.727.03-.626 1.072.302 1.041.916-.031.626-1.072Zm.554-1.01-.518-.06.276.475.242-.416ZM2.637 83.65c-.481-.282-.562.394-.521 1.346.449.647.828-.595.521-1.346Zm1.445-25.942c-.699-.32-.94 1.043-.765 2.284.397.303.687-.202.865-.656l-.069-.17c.23.022.09-1.13-.03-1.458Zm37.053 71.489c-.337.306-.145 1.436.173 1.473.495.059.267-1.86-.173-1.473ZM1.915 82.424c-.127-.366-.443-.588-.623-.224-.15.706-.068 1.569.205 1.718.398.185.504-.632.418-1.494Zm4.99 21.367c.024.364.182.565.446.596.547-1.014-.544-1.994-.446-.596ZM2.177 87.682c-.33-.268-.515 1.39-.072 1.368.182-.016.344-.72.175-.826l-.103-.542Zm.058 4.93c-.82-.952-1.048 2.047-.49 2.247.208.06.439-.403.52-.73l-.03-1.516Zm9.72-34.115-.138-.543c-.245-.32-.487-.99-.827-.93-.27.016-.309.483-.518.766l-.075 1.621.105.238c.028.566.376 1.131.582 1.607.373-.372.682-.877.97-1.414l-.099-1.345Zm33.094 52.396c-.184-.662-.016-.78.004-1.619l-.207-.016-.412-.893-.105.372.036-.617c-.21.14-.224-.379-.414-.031-.401-.296-.715.238-.933.656l-.245.892.168 1.479c.176.105.187.529.276.805h.043l.01.163-.038.045-.153-.521c0 .521.116.802.346.802l.085-.281.085.281c.172-.401.422-.149.761-.149.061-.542.299-.675.486-.921l.207-.447ZM9.422 77.507c-.32-1.11-1.147-.462-.866 1.11.205.572.624 1.038.862.265l.104-.669-.171-.342.071-.364ZM7.127 69.34c-.143 1.577.4 2.083.997 1.882.588-1.324-.487-3.741-.997-1.882Zm35.32 60.46c-.374.624-.043 2 .34 2.2.303-.66.183-2.319-.34-2.2ZM10.902 65.54c-.552 0-.776 1.59-.524 2.766.964.26 1.2-2.066.524-2.766Zm26.45 43.734-.376-1.296.106-1.049c-.19-.037-.094-.32-.1-.625l-.105.233-.033-.641-.139-.164-.413-.037c-.332-1.078-.475 1.011-.421 2.022-.291.744-.447 1.482-.525 2.627.18.387.582.349.62 1.055.263-.178.417.246.62.38.474-.38.98-.685.869-2.446l-.102-.059ZM11.449 53.937l-.002.438-.035-.221-.066-.238.103.02Zm-.279.485c.162-.032.21.11.313.028l.072-.989c-.313-.616-.538.215-.385.96Zm-.44-31.603c.5.194.684-2.076.04-1.77-.365.14-.42 1.599-.04 1.77Zm33.205 78.511-.28 1.249.272 1.361c.324.535.77.178 1.003-.454.043-.885-.07-1.398-.236-1.859l-.14 1.063c-.16.03-.21-.126-.311-.029.109-.157-.075-.707.103-.686l.21-.668c-.323-.179-.309-.424-.621.023ZM11.698 36.362l-.135-.49c-.386-.135-.438.469-.418 1.28.325.722.64-.194.553-.79ZM1.32 57.322c-.127-.424-.446-.514-.724-.395-.208.52-.5 1.377-.316 2.342.627.753 1.144-.407 1.04-1.947Zm11.595-37.969.105-.439-.138-.388-.136-.02-.106.445.172.476.103-.074Zm20.927 99.045.621.141-.07-.223-.551.082Zm5.371 6.508c-.193.022-.312.186-.415.402-.018.647.122.913.412.913l.106-1.151-.103-.164Zm-.088-6.306c-.211.132-.295-.553-.449-.202l.001-.312c-.481-.097-.599.527-.522 1.57.378 1.227 1.257.765.97-1.056ZM.463 96.093l.003-.855c-.349-.239-.294.973-.003.855ZM8.64 58.191l.036-.684-.24-.483c-.434-.283-.67 1.012-.42 1.8.333.073.548-.073.624-.633Zm-.356 4.269c-.016-.58.053-1.233-.17-1.695-.68-.41-.88 1.28-.627 2.304.415.343.586-.244.797-.61Zm-7.8-2.32-.173.305-.172-.35.07-.446-.209.833.034.134c.173.216.517-.11.45-.475Zm25.639 8.479-.15.514h-.132l-.035.311.217.06c.113.253.219.498.478.446l.141-1.048c-.12-.216-.274-.596-.448-.513l-.071.23Zm5.952 9.958c-.271.142-.341.685-.348.79-.08 1.182.527 1.479.827 1.092.375-.46.211-2.304-.48-1.882Zm2.755-11-.068.386c.2 0 .318.202.412.447l.276-.215c-.063-.268.25-.944.038-1.078l.035-.529c-.347-1.003-1.05.104-.693.99Zm-1.373-16.883c.54-.081.616-1.293.211-1.822l-.205-.87.104-.15-.14-.162.106-.477c-.166-.787-.708-.497-.788.291l-.015.015.014.014-.006.313.047.038-.058.623.115.47.096 1.45.136-.544.21.633.068.685.035-.365.07-.142Zm-3.271 15.144v.044l-.015-.044h.015Zm-.052.995.052-.178c0 .617.03 1.13.234 1.11l.137-.53.123-1.435-.102-.558-.117-.29-.1-.14-.114-.188-.07-.884-.136.282-.053.55-.02.017-.585-1.214.036-.408-.038-.142.04-.61-.254.052c-.373-.476-.971.075-.889 1.346l.275 1.107-.143 1.229c-.286-.253-.583-.313-.622.23l.172.714c.229.224.418-.29.621-.305.207.47.362 1.435.758 1.072l.103.401-.07.364.135.49.347.099.139-.671-.067-.38-.138-.4.244-.446.102-.284Zm3.108-27.22-.036 1.07c.177.573.328.893.55.513l.175-.75-.137-.328.414-.402.313-.206-.07-.38h.14l.209-.819.415-.476.244-.766.277-.409.21-1.138-.132-1.712-.31-.794c-.313.023-.56-.387-.828-.313-.278.037-.451.543-.66.767-.114.461-.17 1.003-.349 1.569l-.172.208-.14.602-.348.648c-.332 1.034-.04 2.447.235 3.115Zm-.215 30.38-.313 1.185-.175 1.212.756 1.072h.092l-.008.497c.093-.58.2 2.32.31.596l-.25-1.093c.199-.04.522-.158.583-.217l.288-.454.085.105.278-.99.041-.826-.134-1.086-.157-.55c-.208-.163-.327.075-.426.357-.316-.282-.695-.282-.97.193Zm3.226-8.954c-.124.113-.317-.512-.395.88l.173.6c.07-1.353.23-.014.27-1.389.125.156.273.26.437.297l-.017.134c-.161-.253-.332-.305-.352.252l.096.707.353-.34c.117.467.203 1.418.429 1.032l.06.401-.041.38.078.446.194.134.08-.69-.037-.389-.076-.401.137-.446.06-.283.063-.773-.041-.238h.04l-.116-1.093.06-.21-.098.046-.116-.387-.085-1.443-.261-.454-.161-.119a.617.617 0 0 0-.534-.045l-.073-.527.08-.365-.434.416.094.745-.196.349c-.222 1.122-.056 2.24.329 2.773Zm-9.15 16.594c-.277.037-.156-.513-.204-.789l-.656-.475-.28 1.28c.064 1.316.675 1.613 1.035.81l.104-.826Zm.29 8.39c.15-.186.294-.38.486-.485.023-.452.256-1.487.004-1.842l-.106.683-.101-.157.207-.66c-.201-.5-.486-.232-.827-.276l-.279.758c-.102 1.309.237 1.695.616 1.98ZM28.8 48.604c-.276.06-.404.477-.453 1.065.16.134.134.513.206.7l.24.095c.197-.29.382-.475.623-.313l.207.335c.146.06.352-.118.519-.022l.283.52-.025.803.692.305.148.343-.035.47c.235-.21.312.601.587.585l.033.403c.123-.09.175-.328.38-.217l-.034-.602c.16-.023.176-.356.245-.58-.172.06-.004-.379 0-.245l-.341-1.331c-.444-.082-.233-1.072-.516-1.428l-.276-.052-.169-1.332c-.216-1.317-.492-2.715-1.202-2.432-.196.09-.363.394-.505.633l-.252.409-.185.334-.117-.453h-.309l-.14.572c.133-.09.354.06.54 0l-.003.03.067.603-.208.802Zm-.71 34.749c.2.163.133-.328.277-.29.201.186.354.09.485-.18l-.066-.988c-.336-.485-.49-.142-.59.468l.036.386-.141.604Zm-1.884-19.874c-.606-.482-.955.499-.799 1.837l.147.499-.11.305h.121l.086.372.166.372.035-.015-.252.186.085.58h.121l.293.609.052-.289-.101-1.437.08-.282.037-.096.103-.282.182-1.19.007.118c.548.223.686-2.119.302-2.804-.287.06-.409 1.376-.321 2.477l-.234-.96Zm-.562 18.052c.344.364.645-.38.347-.863l-.036.224.106-.47c-.382-.58-.744.49-.417 1.11Zm.647 3.376.279-.894-.206-.096.171-.355c-.161-.209-.227-.596-.516-.514-.31.483-.087 1.904.272 1.859Zm4.63-42.335-.103-.772-.101-.246c-.168-.298-.384-.149-.59-.17l-.171.542.236 1.405c.201.061.16.023.312-.037l-.069.23c.296 0 .289-.744.486-.952Zm20.671-21.054.034.542.207.104-.14-.178.106-.297.103.245-.069-.245.206-.112-.101-.41.07-.058c.212.14.056.706.273.706-.005-.766-.211-1.13-.618-1.04-.137.148-.282.899-.073 1.211l.002-.468Zm4.443 4.343.103.155c.471.126.682-.78 1.074-.802l.278-1.034c-.013-.46-.32-1.063-.548-1.145-.467-.164-.545.61-.73 1.07-.208.529-.471.625-.45 1.191l.17.625.103-.06Zm-4.768 1.227.207-.112-.034-.32.104.179.07-.08c.09-1.258-.908-1.422-.656 0l.309.333Zm11.479-5.793c.166.126.107 1.532.241.884l.067.61.138-.178c.008.303.149.447.346.543l.034-.2c.205.325.627.059.692-.552l-.102-.787-.032-.165c-.24-.527-.721-.907-1.104-.506-.178-.096-.279-.11-.383.127v.364l.103-.14Zm-4.59-.589c.173-.35.004-.928-.102-1.152-.3-.082-.529.05-.485.951.218.27.23.038.414.343l.174-.142Zm-21.77 18.625c.134.2.255.49.414.58l.382-1.25.07-1.071-.271-.663h-.488l-.378.552-.141.9c.018.625.215.669.412.952ZM58.167 15.65l.243.021.034-.454.034.552c.182-.12.24-.015.416-.343.08-1.308-.943-1.688-.898-.26l.171.484Zm-16.441.766-.168-1.399-.69-.974-.345.11c-.345.291-.595 1.332-.525 2.627.15.572.287.81.585 1.056.518.446 1.113-.35 1.143-1.42Zm-1.27 10.777c.778-.179.529-3.148-.337-2.887-.406.142-.585.885-.487 1.555.107.774.487 1.406.824 1.332Zm-1.532 5.056c.165-.142.035-.595.14-.743-.193-1.197-.908.179-.382.72l.242.023Zm9.916-15.022-.211.973.41 1.578c.209.08.364-.306.347.126l.208-.21-.035-.319.314-.655-.104-.557c-.098-.855-.536-1.011-.896-.767l-.033-.17Zm-2.759 11.669-.14.512.173-.134.033 1.162c.18 1.07.79 1.279 1.172.825l.037-.758.138.087.138-.601-.171-.082c-.06-.93-.357-1.354-.895-1.257-.137.142-.198.469-.382.49l-.103-.244Zm-3.11-13.106c-.11-.118-.192-.305-.38-.26l-.139.826c.164.566.658.208.52-.566Zm2.395 9.267c.263.074.29.06.448-.022l.28-.81c.018-.647-.301-1.167-.55-1.152-.449.02-.55 1.604-.178 1.984ZM27.916 42l.345.721.31.044.243-.438.037-.826c-.167-1.3-.997-1.182-.934.499ZM24.91 70.626l.28-1.517c-.547-.899-1.013 2.053-.28 1.517Zm-.722-15.521c-.255-.223-.42.06-.382.885.3.454.583-.194.382-.885Zm-2.618-2.066c-.015.668-.072 1.233.169 1.47.278-.378.442-1.205.625-1.592l-.032-1.315c-.294-.684-.612-.194-.966-.045.219.104.046.803-.003 1.02l.207.462Zm-.95 34.464h-.102c-.201.342.082.9.029 1.591l.139.35c.21.075.338-.03.413-.268l-.479-1.673Zm4.41-37.21c.243 0 .402-1.011.177-1.63-.65-.266-.58 1.607-.177 1.63Zm-1.32 17.21.274.476c.48.044.554-.92.522-1.688l-.421-.505.05-.544-.233.655c-.194.267-.319.854-.192 1.607Zm-4.457-40.988c-.018-.632-.369-.997-.655-.61-.268 1.54.687 1.837.655.61Zm3.815 39.924h.277l.05-.32.174-.281c-.25 0-.35.208-.54.282l-.108-.72-.104-.084-.034-.304-.517-.44-.058.017-.051-.268-.074.327-.06.022-.129.05c-.257.314-.403 1.006-.441 1.72l-.088.29-.086-.29-.12.595.303.044c.137.216.178.648.348.796.654.654 1.147-.177 1.23-1.436h.028Zm.772-38.34c.23.128.256-.066.485-.179l.175-.743c.027-.893-.418-1.54-.756-1.234-.34.282-.339 1.941.096 2.156Zm26.883 92.56-.175 1.213c.113.988.694.483.865-.06-.075-.403-.115-1.019-.308-.951l-.382-.202Zm-28.24-73.81c-.527-.542-.943.111-1.176.715l-.138-.031c.071 1.071-.32 1.883-.32 3.362l.173.47c.615.073.805-.842 1.28-1.072.18-.41.492-.788.522-1.636l-.066-1.01-.276-.797Zm-1.745-20.786c-.222-.627-.618-.18-.59.467.045.975.77.737.59-.467Zm42.456 23.94-.276.29-.142 1.206c.042.579.446 1.174.756 1.078l.488-.79.036-1.07c-.08-.655-.483-.81-.862-.715Zm-43.65 11.573.24.869.312-.266-.551-.603Zm11.952-.424-.14.439-.048.461.007-.133-.047-.017.228-.75Zm.027 2.841.19.305-.14.023-.104.921h.275c-.017-1.465.133.03.138-.981l.16-.52-.137-.195.104-.274-.378-.506.107-1.048-.212.877-.246-.15.027-.364c.213-.179.164-.587.328-.929v-.536c-.197-.32-.282-.714-.585-.684-.23.037-.487.655-.52 1.101-.06.803.31 2.023-.042 2.676.018.975.188 1.623.584 1.607.193-.342.224-1.078.451-1.323Zm-1.746-33.684c-.215-.611-.62-.291-.623.304-.004.914.744 1.256.623-.304Zm1.896 43.3c.296-.408.278-1.494.04-2.067-.411-.284-.82.119-.831.825-.01.55.394 1.398.79 1.241Zm.424-45.36c.064-.283.227-.388.413-.41l.176-.884c-.042-1.131-.766-1.496-.932-.425l.343 1.718ZM18.523 55.796l.105-.313-.38.045.415-.127-.205-1.012c-.261-.438-.814-.281-1.138-.587l.032.619-.073 1.22c.115 1.442 1.235 1.546 1.244.154Zm14.82 12.473c.207-.41.103-1.377-.168-1.719-.167-.059-.382.2-.416.342l-.068.142c-.34.9.263 1.979.652 1.235Zm-6.165-6.776.206.87c.26.08.431-.059.553-.319l-.138-.551.14-.364c-.227-.946-.781-.603-.76.364Zm.83-56.19c.205.103.312-.268.417-.58l-.657-.372c-.017.305.037.84.24.953Zm-2.737 73.497-.244.29.14-.692c-.142-.453-.371-.224-.689-.284l-.244 1.028c.036 1.316 1.317 1.682 1.037-.342Zm-.93-1.718c.15-.343.325-.624.487-.922l.071-.864-.238-1.085-.277-.574c-.47-.2-.678.21-.897.59l-.385 1.725.447.208.38.884.412.038Zm-1.115 4.41c.002.305.14.55.343.588.459-.67-.35-1.622-.343-.588Zm1.713-24.081-.122.05.059-.75-.068-.231c-.6-.49-.628 1.576-.119 1.31l-.07 1.42.15-.29.022.304-.034.87h-.087c.008.774-.085-.81-.07.626l.294-.625-.035-.254.038-.06.04.24c.222.258.41.565.584.906.421-.312.716-.936 1.006-1.553l.173.013-.035-.237-.242-.202.072-.34-.13-.886-.025-.312h-.036c-.091-.387-.217-.699-.46-.73-.27-.06-.524.217-.712.67l-.193.06Zm3.639-3.14c.196.237.344.224.482.446.248-.082.444-.357.486-.93l-.274-1.428c-.27-.207-.422.158-.656.237l-.038 1.675ZM16.822 96.516l-.14.29h-.068l-.035.299c.166-.208.38.401.518-.298l-.276-.291Zm20.062-17.9-.01.163-.023-.075.033-.088Zm-.364.326-.024.425c.199.052.313-.105.43-.3l-.002-.526.032-.06-.037-1.011c-.191-.469-.279-.105-.337.506l.02.386-.082.58Zm16.569-6.796.291-.3h.122l.086.908c-.165-.29-.359-.216-.5-.608Zm-1.358-.604.004-.157.06-.223.019.096h.397l-.48.284Zm-.158 10.516.087-.587.154-.306-.241.893Zm.506 16.602.01.268-.061-.032.051-.236Zm-.936-16.274-.052.133-.05-.118v-.015l.31-.61-.208.61Zm-.141-.052-.194-.037-.024.127.24-.366-.022.276Zm-.116 11.393.007-.207h.062l.05.096-.119.11Zm-.2.447-.107-.104.011-.186-.116-.364.119-.015.285.015-.192.654Zm-.351-11.498.036-.172.202-.245.027-.022.113.149-.378.29Zm-.156-9.922-.222-.327-.275-.58c.213-.715.497.224.653.299l-.156.608Zm.19-.608c.097-.336.271-.276.498-.3l-.342.908-.139-.327-.017-.281Zm-.827 0-.172-.3.123-.304h.171l-.122.604Zm-.463-.604-.087.305-.017-.305-.12.305-.086-.59c.148.19.263-.177.447 0l.12.59-.257-.305Zm-.449.305h-.138l-.207.299h-.205c-.076-.24-.125.83-.138-.604.389.023.553-.157.81-.284l-.122.589Zm-.047 21.315-.139-.408.035-.118.066-.068.158.104-.12.49Zm-1.072-20.735h-.103c-.244.47-.645.208-1.05.327h-.206c.157-1.37.471.037.654-.907.255.326.515.082.79 0l-.085.58Zm-1.533.916h-.1l-.053.325-.345.291c-.013-1.844.17-.23.207-1.205l.07.283.068-.283h.276l-.123.589Zm-1.049 1.212.104-.887h.429c-.155.805-.336.32-.533.887Zm-.12.305-.12-.305.223-.596-.103.9Zm-.551.296c-.165.09-.366-.125-.481 0l-.516-.296-.051-.9c.2.267.45.453.636.595l.033-.307.017.307.037-.307c.076.366.274.307.464.307l-.139.601Zm-1.084-27.37-.07-.305v1.182l-.051-1.494h.087v-1.495h-.104l.005-.32.066-.081.124-.566-.006.67.036-.587.104-.083h.02v-.08l.03-.157.12.617.104-.297v-1.205l.39-.09-.009.03.172.692a.641.641 0 0 0-.428-.133c-.104.505-.103 1.351.074 1.746l-.006.194-.227.26-.02-.61-.032.923-.07-.313-.085-1.197-.052.9h-.12l-.016-.9-.055 1.51c.042 1.383.234-.395.243 1.494l.034-1.205.087.9.136-.617.157 1.228c-.18.38-.37-.09-.57.266l-.068-.877Zm-.293 26.462.045-.34h.012l.064.051.103.596-.224-.307Zm-.172.307-.205.305H42.4l-.054-.9c.239.23.323.23.519 0l-.156.595Zm-.569-.307.19-.289-.19.289Zm-.653-26.157c.008-1.784-.045-.922-.07-1.807-.014-1.413.045.403.053-.61l-.274-.884.136-.626c.201 0 .342.44.499.626l.036.2.003.142-.062 1.398c.125.283.223.892.391.892l.236-.372v-.297l.104-.126.307.542.19.312-.155.305h-.291l-.328.877-.172-.266c-.185.095-.388.207-.603-.306Zm-.194 2.262.143.133-.02.149-.123-.282Zm-.097-.179.086.14-.086-.044v-.096Zm.772 24.381-.137-.596-.069.289-.463-.58-.139.291-.155-.616c.276-.328.697-.075 1.068.616l-.105.596Zm.864-29.306.014.024h-.024l.01-.024Zm-2.43 28.71.157-.29.188-.326.155.616c-.17-.194-.36.134-.5 0Zm.309 8.77-.047-.052.031-.291.016.29v.052Zm-.205-.024H40.5l-.116.581-.084-.61h.207v.03Zm-.46-9.097.081-.265h.24l-.067.905-.193-.26-.06-.38Zm-.16 9.983.036 1.197h-.105l.051-.906-.086-.596v1.502l-.051-1.197v.884c-.087.217-.286 1.243-.292-.593h-.276l.032.72-.048.484h-.034l-.054-1.204v1.494l-.051-.588c-.142.78-.37-.46-.586.298l.036-1.495-.087.29.038.751c-.08-.43-.227-.715-.413-.863l-.003-.178-.004.164-.27-.105-.002-.06h.174l-.086-.913-.07.61-.036-1.23-.033-.892.12 1.22.069-1.22.036.893.017-.893v1.22l.05-1.493.018.884.222-.884v.884l.071-.884-.052-.328.12-.9-.018 1.228.07-.619v-1.494l.051.588h.38c.184 0 .371-.625.584-.3l.086.596.018-.884h.206c.034.655.17-.908.189.588l-.276.296c.014.29.128 0 .12 1.502l.156.306c-.175 1.257-.367-.425-.62.587l.088.908.085-.29.017-.618.017.908.033-.908.02.618c.177-.29.359.253.515.29l-.172.625Zm-1.479 1.495-.054-.134.054-.26v.394Zm-.431 5.987h-.224l.156-.58.103.297.042-.178.077-.12-.154.58Zm-.379.327c-.085-.327-.293.141-.5 0l-.085-.61c.202.06.621.045.705-.298l-.12.907Zm-.536-6.15-.053-.037.053.037Zm-.272 6.454-.08.12.03-.468.255-.283-.205.631Zm-.018-9.027v.132l-.028-.044.028-.088Zm.155-.291.035-.328.033-.587c-.007 1.495.006.973.069.915l.023 1.383-.025-.207-.258-.738.123-.438Zm.224-.328c-.013 1.168.103-.527.068 1.533l.017-1.815.07 1.51-.052 1.19-.12-.29-.008.036-.027-.363.052-1.801Zm.378 0h.05l-.034 1.786-.059.157.043-1.943Zm1.435-8.024.027-.075.053-.616.048.198.106 1.014h-.016l-.017.631-.201-1.152Zm.282.707-.037-.149.037.149Zm.023.073.027.09.005.55-.085-.298.053-.342Zm.457-1.025.018.043-.024-.03.006-.014Zm.213-.446h.086l-.005.178-.023-.06-.138.388.08-.506Zm-3.46 18.95h-.121l-.064.015.058-.165.17-.073-.042.223Zm-.36.275h-.414l.103-.275.138-.305.07-.284.04.864.065-.023-.003.023Zm-.587 0-.189.624h-.326c.03-1.428.11-.194.173-.899l.48-.305-.138.58Zm-.653.624h-.121l-.07.313-.12-.313.017-.296.396-.328-.102.624Zm-.758 0 .033-.624.14.328.19.296h-.363Zm.74-2.402-.103-.58.259-.61-.087.892.155.298c.056-.067.25-1.026.258.61-.202 0-.489 1.236-.654 0l.172-.61Zm-.981 2.106h-.139l-.102-.603c.187.185.23.097.43.275l-.19.328Zm-.585-.328-.07-.275h.396l-.326.275Zm-.207-.275h-.155l-.068-.305-.225.305c-.06-.692-.131.558-.155-.894.245.32.472-.022.724.59l-.121.304Zm-.928 0-.036.9-.053.312c-.126-1.362-.269.892-.463-.313l-.104.61-.24.305-.053-.602-.23.728-.29-1.235-.1-.164.05-.14.243-.126.31-.275.103.275.534-.864.329-.304.309.588-.309.305Zm-1.74 2.394-.044-.17.055.141-.011.03Zm-.172 0-.105-.617.097.104.125.32-.117.193Zm-.206 0L29.85 95l-.135-.312h-.156l-.173.312h-.138c.016-1.391-.044.433-.051-.601l-.137.601-.155-.601-.156.601-.086-.312-.066.365-.05-.514-.207.141c.138-.475.038-1.278.418-1.278-.13-.647.132-1.317.417-1.33l.379.266c.327.112.368-.171.553-.253l.014.023-.064.186.187.193c-.185.386-.373.751-.279 1.287l.153.275-.077.64Zm-1.463.62h-.002l.012-.128-.01.127Zm10.258-27.372-.076-.276h.1l-.024.276Zm.327-13.24V53.49l.018.604h.173l-.191.601Zm-3.494 1.22-.017-.854.006-.015.026.059-.015.81Zm4.975-7.824-.019-.922c-.182.253-.196-.09-.325.617l-.032-.163.037-.624c.2-.15.06-.611.208-.916l-.135-.238.274-.127.071-.757-.27-.254.026-1.026-.032-.022.042-.388h-.137l-.103.493-.034.281-.347-.431.018-.03-.238-.29h-.004l.03-.09-.078-.148.06-.475-.063-.216c.304-.082.546-.245.843 0l.19 1.518.104-.298c.017 1.286.193-.193.19 1.502-.098.415-.244-.074-.24 2.082h.273c-.039 1.435-.244-.03-.31.922Zm18.52 52.33.241-.922c.33-.484.564-2.565.847-3.867l.104.112h.002l.427.022.006-.67-.114-.358-.09-1.024-.032.073.037-.891.122-.603c.027-2.737.14-3.95.224-5.705.063-3.2.094-6.976.103-11.135l.052-2.416c.001-3.139-.002-4.508.035-6.918.01-3.063-.035-5.206-.035-8.106-.046-1.316-.071-2.99-.103-4.523l-.173-2.7a99.137 99.137 0 0 0-.671-4.193c-.178-.127-.336-1.443-.464-1.51-.222-.06-.386-.297-.604-.923l-.069.306c-.235-.551-.378-.975-.637-.885-.3-1.056-.619-1.771-.962-2.143-.162-1.24-.496-.037-.724-.9-.17.551-.347-.72-.5 0l-.395-.886-.36-1.204c-.359-.014-.724-1.36-1.07-.594-.449-1.258-.85-.366-1.308-1.198-.29.044-.597-.105-.842 0-.814-1.31-1.462 1.459-2.272.58-.138.252-.32-.089-.534 0-.283-.744-.608-.03-.879 0l-.152-.298-.141.298-.066-.298-.07.298c-.3.089-.61.327-.861.618-.439.016-.703.075-1.135.594h-.276l-.293.312c-.592.552-1.204 1.191-1.755.892l-.073.24-.017-.023-.066-.217-.035.023-.538-1.844-.02-.625.043-.677-.177-.796c-.326.075-.494.79-.766 1.071l-.158-.55-.08.744-.16.99-.318 1.339.005.385a.704.704 0 0 1-.429-.364c-.355.335-.723-.854-1.153 0l-.258 1.8-.081.223-.027-.044.194-.885.001-.55.057-.284.026-1.68-.037-.78c-.16-.388-.136.415-.219.579-.4-.461-.59.305-.846.834l-.18.965.213 1.11.059.221c-.266.21-.496.514-.77.715l-.24-.32-.136-.186-.128.41-.222.602-.198.683.03.247c-.17.342-.388.602-.457 1.107l.064 1.316-.071 1.615.234 1.347-.013 1.486.272.41.277-.944.051.625c-.212.267-.247.862-.108 1.374.222.298.395.924.69.924.16-.023.23-.366.414-.351v-.304c.174.074.208-.194.278-.342l-.137-.171.208-.21-.001.38c.116-.356.107-1.025.347-1.1l.311.18.173-.15c-.01-.44.094-.617.281-.594l.052.273.065-.245.087.03v-.03l.124.536.103-.587h.206l.345.587.068-.587.104.587.016.12h-.034l-.136.6-.036-.103-.068.589c-.118-.566-.238.237-.449 0l-.149.311-.292-.997c-.215-.52-.447.224-.357 1.176l.051.222-.078.505-.018-.586-.104.894h-.532l-.225.296.052.289.086.604.053-.604.086.299.068.601h-.12l-.173.62-.31-.315c-.012 1.726.079.06.086 1.043l-.227-.336-.047.06.034-1.368-.206-.305-.018.906-.07-1.205-.015.9-.07-.9-.053.9-.153-.296v-1.19l-.086.297-.018.893h-.086l.035-1.19-.104.586-.033-1.799c.017 1.406-.062.863-.07.32l-.017.894c-.348-.291-.464-.084-.792.585l-.464.604v1.212l-.088.297-.033-.908-.017.907-.087-.593-.058.133.041-.08-.018-.218-.139-.185.042-.387c-.08-.953-.115-1.793-.368-1.881l-.393.648-.158-.544v-.016h-.014l-.041-.044.016-.186-.065.023.08-.379c-.16-.046.04-.47-.102-.618l-.07.053-.188-.373-.006-.037-.173.09-.185.11-.038 1.54.275.334.2-.075.229.648.068-.587.107.401-.062 2.418.106.275-.24.148-.007.32c-.25-.32-.544-.573-.648-1.197-.38-.528-.787.186-.625 1.175l.378.944.01.067.034 1.368.16-.252.1 1.324.517-.26-.171-.074.244-.299c-.047-.757.358-1.099.556-1.546-.185-.157-.032-.425.036-.618l-.277-.036-.159-.328h.009l.068-.29h.175l.066.164.078-.164c.218-.059.425-.172.61-.298l.018-.914.017.914.24-.305.07.305.052-1.525.035.907V54.39l.05 1.525h.086l.07-1.525.016.62-.05.905.137-.313-.034-.907.017-.305.052 1.212.016-.907.052 1.22h.12l.035-1.821v1.212l.103.297.087-.908.015-.906.121-.3v1.52l.07-.915-.017.915h.086l-.035-1.22h.068l-.016 1.517.19-.61c.26.766.258.446.498.313l.07.593.05-.907.017.907.02-.593.044.52-.21 1.011.019.812-.13.06h-.208l-.136.601.292.29.191-.796-.053 1.703c.008.99.105 1.622.33 1.57l.258-1.346.155.408.14-.676-.078-.15.06-.311-.216-.5.062-1.07-.12.922-.196-.267.18-1.191-.08.44-.04.55.2-.99v-.312l.016-.067h-.016v-.148l-.053-.186v-.284l.379.313-.017.893h.327l.156.603-.277.893h.223l.122.906.205.632h-.188l-.053 1.17h-.17c.01 1.613-.093 1.188-.139 1.813l.025.142.022.408.005.647-.208.602-.033-.884-.068.58-.171.61h-.036l-.035-.908c.037 2.06-.175-.245-.138 1.816.005.995.06-1.287.052.282l.377-.037c-.188-.067-.389.037-.477.356l.044.469-.286.633-.072-.223-.067.617-.052-.32-.037 1.518-.325.311.035.581h-.104l-.034-.892-.172.61.12.282-.138.327h-.086l.448.29.086-1.198.12.581h.364l.033.93c.299.364.641.014.929.587l-.224 1.212-.068-.608-.07.608c-.15-.119-.352-.157-.517.283-.25-.022-.405-.26-.602.306.39.215.752.349 1.137 0l.064.676h-.126l-.198.795.026.64h-.042l-.12-.594.086-.305h-.19l.017.601h-.12l-.069-.908-.069.908.017-.908-.086.908c-.444-.125-.746.245-1.118.297l-.052-.593c-.285.564-.378.34-.603.593l-.051.9h-.035l-.034.297.103.596h-.173l-.154.32v.305h.173l.085.284.07-.284h.12l.086.284.138-.59.105-.915.153-.296c.17.058.225-.543.361-.61.166.417.226-.29.395 0l.104.61.38-.305.033.601-.017-.906.345.305.309.305.172.61h.069l.035.602c-.258.566-.49.083-.807.305l-.139.587-.053-.587-.121.587c.047.85.165-.75.174.909h-.174l-.051-.588v.884l-.087.61c.032-1.815-.076.224-.102-.906l.086-.588.086-.32h-.189l-.069 1.204-.155-.884-.052 1.174-.086-.885-.172.885-.017-.586-.103.586-.069-.29-.07.61-.137.29-.155-.29-.017.892-.033-.892-.035.619-.07.884h.105c0 1.993-.145.148-.155 1.51h.014l-.078.788-.313-.03v-.312l-.119.15-.018.072.079-.601-.057-.849-.311-.973-.413-.565-.176.127-.048 3.54.155.706.43.826.018.802-.18-.075-.24.522h-.027l-.004.022-.21-.544c-.171.864-.29.158-.482.901l-.052-.9-.207.284-.069.906c-.266-.603-.591-.238-.844-.29l-.067.596.342.601c-.199-.142-.379-.059-.553.082l-.138.104-.003.015c-.224.223-.44.573-.663.683l-.158.916c-.421.32-.871 1.719-1.377 1.503l-.232-.574c.145-.497.141-1.204-.16-1.911-.159.066-.166-.17-.24-.274-.203.066-.473.066-.726.23l-.103-.304-.241.118.242-.364.07-.29-.17-.945c-.13-.403-.387-.99-.758-.93-.318.044-.535.646-.557 1.399l-.552-.06v-.305l-.207.133-.033.068.138-.59-.101-.86c-.2-.231-.293-.752-.551-.997-.234-.194-.592-.015-.723-.61l-.31.126-.156 2.745-.068.596.121-.06.025.23.274.736c.229.268.66.41.758.855l-.076 2.44.172.401.892 2.276-.044.113-.11.23h-.204l-.07-.609-.153.304-.069.305h-.035l-.122-.609-.102.609-.104-.609h-.377l.05-.908-.085.908h-.362l-.069-.908.052.908c-.194-.194-.337.46-.482-.307l-.086.307-.223.304-.121-.611-.363.307c-.186-.068-.213.304-.36 0-.192.438-.378-.254-.655.609-.456-.111-1.155.118-1.619.296l-.085-.296c-.203 1.07-.4.014-.62 0l-.206.296-.12-.296-.223.296-.088-.296-.223-.305-.139.601-.12-.296-.068.296h-.481l-.122-.296c-.386.178-.765.542-.998.6l-.122-.6-.033.6h-.103l-.087.292c.331.818.719-.596 1.24.298l.138-.59.38.292c.18.029.256.09.429 0l.05.892.174-.594.085.594.035-.892.103.298h.07l-.052-.298.102.892h.225l.034-.892.206.298.035.594.156-.594.102.594h.034l.053-.594c.032 1.495.002-.238.05 0l.035.594c.233-.193.395.067.551 0l.155-.275.258.275h.07l.017-.892.103.892c.258-.638.605-.037.79-.594.274.401.702.119.932 0l.034.32.051-.32c.164.082.317.378.483.32.476-.223 1.397-.017 1.979.274l.086-.275c.512.364 1.139-.185 1.686-.617l.155.067-.141 1.115.205.892c.215.075.345.343.62.284.222-.32.437-.81.418-1.503l-.205-.788-.116-.156.25.089c.267-.291.597-.35.898-.596.384-.296.683-.944 1.015-1.212.167-.119.327.082.48 0l.294-.312c.63.172 1.368 1.547 2.082 2.12l.087-.291.138.29c.778-.163 1.517-1.368 2.27-2.194l.196.105.12-.41c.163-.154.325-.281.492-.363l.016.608.213.79c.243.268.463-.483.449-1.435l.392.2.122.892c.217-.282.426-.543.551-.601l.17.29c.184-.09.39-.254.62-.581.313.247.785-.12 1.187.29.233.462.483.684.81.602l.085-.312h.329c.164-.766.296.118.447 0l.12 1.524.389-.14.123.246.02.199.099-.126.148.046.248-.522c.22-.282.44-.608.642-1.227.11.193.376.126.55-.29h.191c.393-.892.809-1.116 1.231-1.205l-.013.715.55 1.458.448-.059c.329-.143.68-1.102.627-1.905l.13-.67c.197.103.391.232.588.387l.013.074-.061.156.02.075-.38 1.517-.02.544-.1 1.048.205 1.777-.004.06-.079.022-.022.269.242.288.159.551.1.038.41.423c.258.008.33-.69.512-1.004l.048.21-.018.236c-.178.41-.346.857-.38.976l-.035.542-.176 1.055c.12 1.244.465 2.255.892 3.013l.172.023c.175.446.484.751.724.46.403.046.548-.526.801-.854l.067 1.174.172.587c.178.045.316.328.47.343l.377-.417.207-1.033.099-.104.08-.401.203-.379c.194-.678.034-1.69-.12-2.151l.025-.721-.31-.446-.103.483.076.245-.238.216-.176.082.036.283-.078-.023-.123.536-.239.253-.143.498-.07.089c.069-.706.323-.967.55-1.316l-.035-.618-.276.298c-.06-.662.164-1.659-.065-2.328l.038-.298c-.3-.245-.204-.81-.414-.966l-.034.453-.21.12.04-.685h-.15l-.03-.64.049-1.093-.148-1.048-.308-1.072.068-.922-.172-.424c.153.186.507.491.722.313.178.988.338.343.516.297l.086.305h.453l.208.2.046.09.255.29c-.221.126-.249.774-.047 1.169l.113.601-.06.075.08.149-.064.305.455-.305c-.127-.149-.253-.937-.09-1.094l-.112-.424c.174.32.342.566.502.447l.464.906.172.067-.01.135c.115.922.266 1.942.671 1.844l.358-.49.172-.32.274-.053c.127.536.231.29.43.305l.428 1.198.207-.274.19.899c.363.112.77.997 1.067.291l.137.303ZM39.25 81.776l-.223.282.032 1.228h.122l.086-.61v-.618l-.017-.282Zm-22.962 2.41-.156.29-.07-.594-.308.593-.172-.288-.275 1.189-.103.304.05.291.224-.29.086-.893.378-.313h.329l.155.313-.138-.602Zm.963 12.33.155.589.172-.298-.327-.291Zm18.487-31.274.259.596.017-.596.171-.312.054.312.118-.921-.257-.3.034-1.196c-.166-.178-.249.938-.378.29-.016 1.696.147.224.137 1.815l-.155.312ZM24.17 81.165l.395-.601c-.169.193-.282-.387-.395.601Zm.085-36.375c.543.752 1.034.08 1.532-.626l-.446.306-.104-.587h-.498c-.197.765-.343-.06-.484.907Zm.86 1.197h-.411l-.155.61.395.884.31-.884-.14-.61ZM23.24 59.842l.154-.632.14-1.502c-.22-.119-.409.21-.568.305l-.086 1.197h-.31l-.105.632c.195.008.526-.06.775 0Zm13.977 7.774c-.007 1.457-.006-.344-.051 0l-.017.608-.018.305c.065-.186.183.572.172-.913h-.086Zm.551-11.7-.24-.313-.087.312-.052.305c.194.038.327.12.482.298-.001-1.457-.039-.402-.103-.603Zm-.19 11.7.173.32c.041.26.163 1.197.156-.32h-.33Zm-2.907-18.03.137.588.082-.647h.018l.073-1.13c-.342-.432-.582.266-.435.893l-.1.297h.224ZM20.21 42.67l.053.305c.208 0 .308-.445.534-.305.272.447.598.402.912.602l.224.612.326-.298h.26l-.07-.314h-.172l-.139-.602c.152-.691.374-.119.552-.304.007-1.6-.135-.655-.206-.923-.276.312-.512-.372-.775.312a1.654 1.654 0 0 0-1.43.61l-.171-.61c-.181.67-.427.142-.636.306l-.087.914c.317-.714.633-.036.825-.305Zm-.808 17.427.14-.587c-.128.675-.244-1.355-.277.333l.137.254Zm-1.704 24.09.103-.595h-.172l.053.884-.019.61.035-.898Zm2.014-39.1.12-.616h-.24l.12.617ZM17.94 94.399l.051-.596h-.207l.156.596Zm1.944-27.363.07-.915-.173.61.104.305Zm15.768 7.825-.106.296-.186-.296h-.018l.035.593.275-.593ZM24.325 42.038l-.069-.284c-.448-.542-.745.796-.418 1.421.226.083.348-.082.485-.178l.022-.49c.242.333.452.467.738.467.009-1.569-.129-.55-.171-1.22h-.224l-.363.284Zm-4.681 53.268.361-.307h-.31l-.051.307Zm.327-13.53-.139-.61-.051.892.19-.282Zm1.91 13.53V95h-.086l-.309.307c.143.787.215-.35.396 0Zm5.715-48.71-.446.29.446-.29ZM24.84 91.989h.363l.12-.915c-.105.239-.148.208-.327.327l-.155.588Zm2.188-47.824h.084c-.11-.705-.23-.147-.395-.281h-.033l.119.587h.155l.07-.306ZM16.114 94.398l.26-.596-.26.596Zm9.09-.893h.275l.172-.313-.223-.624-.224.937Zm-3.839-33.41.086.299.155.327-.19.609.121.29.328-1.778-.345-.333-.017.333h-.207l.07.254Zm-4.434 10.436c.005.601.062 1.093.414 1.093l.242-.529.211-1.405-.931-.714.064.952-.161.424.16.179Zm3.505-12.823.138.596.189-.596-.006-.157.025-.067-.002.224.258-.297-.2-.275.002-.052-.013.037-.013-.015-.028.14-.036.105-.066-.215-.04-.075.041-.44-.12.826.018.142.047.022-.006.097h-.188Zm2.117 35.484-.207.915c.172.046.215.386.362-.305l.154-.61h-.31Zm7.539-35.179.293-.305-.293.305Zm1.24-4.523-.43.604.43-.604Zm.946-5.093c-.06.17-.184-1.168-.208.266l.208-.266Zm-1.067-2.723-.104-.297h-.102l-.052.297h.258ZM26.873 65.54l-.086.58.241-.58h-.155Zm.98-7.832-.034-.297-.413.297-.19-.602-.052.305h-.033c-.004 1.658.095 1.538.19 1.486l.223-.884h.085c.67 0 1.196-.096 1.825 0l.018-.305.017.305c.214.164.399.119.585-.305-.55-.438-1.273-.356-1.911-.297l-.31.297Zm.412-13.544-.049.306.05.617.137.29c.195-.023.364-.483.535-.907.193-.172.327.46.481-.306l.024.18.018.899.382-.022-.102-1.102-.13.023c-.467-.528-.824-.788-1.242.328l-.104-.306Zm4.614 15.678h.207l-.05-.333-.31-.299.153.632Zm-4.732-13.245h-.087l-.172-.313-.069.313-.206.572.534-.572Zm-.707 17.724-.017 1.799c.038-.99.234.692.223-1.19l-.206-.61Zm9.158 9.022-.138.905-.051.612c.15-.671.437-.06.618-1.192l-.102-.325-.104-.916.104-.58h-.172l.137-.305-.069-2.098-.017.908h-.24c.03-.93.201.527.206-.908-.197.581-.507-.222-.62 2.098.226-.142.454.082.567.305l-.361 1.19-.153.306h.153l.448-.589-.206.589ZM16.39 63.74l.223-.915c-.076-.305-.22-.826-.223.915Zm-1.378 12.614.171-.305h-.43l.26.305Zm1.05 6.032-.103.29-.12.29.222-.58Zm-1.447-1.822.037.907.223-.58-.26-.327Zm2.067-20.722h-.052l-.172.254h.052l.172-.254Zm-1.479 20.722h-.277.277Zm.825-9.923c-.2-1.07-.406-.067-.585-.616l.034.93.31-.314.121.617.12-.617Zm-.379-6.62.139-.905h-.242l.103.906Zm.379 8.406-.258.327.258-.327Zm-1.05 5.139c-.018 1.667-.054-.58-.119 0v1.502-.61l-.173.321.086.884.24-.595-.034-1.502Zm-.93 16.54h.209l-.396-.6.188.6Zm17.964-48.462-.107-.23.107.23Zm-.029-2.975c-.385.163-.745.767-1.135.916l.07.885.103-.306h.24l.334-.58-.16.5c-.046.706.116.787.298 1.003l-.3 1.197-.101-.297v.297h.447l.29.313h.242l-.033-.529.181.09-.024.692.097.476c.35.051.46-.88.73-1.14l.245-1.002.032-.097.003-.297h1.146l.054 1.115c-.268.036-.541-.023-.761.379l.258.313.242.572.258.312h.189l.087-.884h.051l.017.29.069-1.213-.24.171.004-1.398-.126.082.19-.646.396.281-.12-.58-.155-.313-.07.314c-.466-.06-.833.119-1.222 0l-.155.58-.005-.023.032-1.562-.065-.78c-.282-.425-.238.408-.383.565-.575-.41-.906.021-1.252.467l.002-.163ZM14.652 85.971l-.258-.29h-.034l.293.29ZM14.947 95l-.38-.312.38.312Zm-.688-14.726-.243-.32-.24.32.361.29.204.329-.082-.619Zm-.433-1.815-.05-1.212-.207-.282v-.61l-.155-.305-.173-.305-.102.305h-.07l-.034.305.275 1.212.034-.602c.002 1.494.112 1.049.122 2.403l.016-1.212.017 1.212.138.586-.104-1.495v-.892l.156.305.137.587Zm.396-.587.155.284.138-.59-.293.306Zm-.413-.305h.122l.153-.32-.275.32Zm-.034-1.517h.172l.207-.305-.328-.588.037-1.197c-.116.06-.152-.885-.312-.616l-.378-1.197h-.328l-.207-.3-.034-.304v.305c.257 1.116.492 1.33.706 2.708.165-.663.312 1.032.466 1.494Zm1.48-3.622c-.404.126-.704.454-1.136-.281-.25.221-.356-.314-.533-1.505-.182.878-.325-.64-.517.313l.361 1.192.38.608c.252.283.506.589.776.589l.118.905.087-.289.033-.922.087.631.138-.631.206-.61Zm.172-25.83-.137.572h.24l-.103-.572Zm1.085 5.414.155.586c.045-.81.207.418.206-1.217l-.361.631Zm-1.926-3.348c.002 1.607.07.253.118.924l.017-.596.226-.328c-.113-.415-.178.134-.361 0ZM12.277 61.62l.087.299h.102l-.19-.3Zm21.876-20.178-.292.312h-.067l-.034.306.343.305h.104l.102-.923-.051-.29-.105.29Zm-15.541 1.532c-.012-1.465-.077-.631-.156-.61l-.085-.304-.017.305-.207.61h.465Zm-1.551 4.812h-.085l-.034-.617.017.312h-.345l.087.305.19-.305v.61l.17-.305Zm1.826-2.7-.224.588.224-.587Zm-.275 13.538.085-.611h-.343c-.003 1.592.16.105.258.61Zm-5.233-12.34-.087.313.069.884c.185-.178.26.484.5.305.26 1.354.557-1.055.842 0l-.189-.617-.206-.282c.182-1.428.433-.156.568-.603l.103.602c.113-2.379.333-1.344.534-1.8l-.035 1.198.154.602c.018-1.428-.063.595-.05-.899l.102.297-.034.602h.31l-.087 1.51.31.267.052-1.182-.034.61-.052-.61-.172-.595.19-.899h-.207c-.02-.974-.148-.046-.137-1.517h.259l.221-.587.052 1.493c.16.454.305.24.432 0l.12-.29-.035-1.501h.241l.051 1.502.156.29-.05-1.792c.17-.254.357-.15.514-.61l.259-.61c-.353.4-.71-.551-.999-.305-.417-1.117-.742.638-1.171.914l-.102-.61v-1.212c-.25-.163-.614-.023-.911.602l-.053.915-.259.305v.909l-.137.281-.071-.893-.342.314-.12 1.205h-.156l-.172-.907-.137.907c-.039-.907-.176-1.413-.207 0 .056.364.149-.462.173 1.494Zm-.637 17.456h.189l.19.58h-.156l-.24-.58h.017Zm.412.58h.034c.466.119.89 2.513 1.343 1.8l.415.61-.156.588-.156-.283h-.294c-.252-.625-.52-.819-.824-1.793h-.224l-.154-.312.016-.61Zm1.067-6.612v.916l.07-.611h-.018l.052 1.496-.327-.299.19-.586-.206-.32-.052-.291-.155-.602c.126.051.27.38.446.297Zm1.257-7.534h.035l.206.93-.377.276.136-1.206Zm-2.841 14.147L13 65.54c.36.186.626.751.93 1.19l.052 1.205c-.238.23-.4-.877-.603-1.205l-.104.588-.516-.283c.176.58.406.35.55 1.494l-.069.604c.25.765.497.86.758 1.219l.413.906.07-.304.12.588.102-.284.051.284c.167-.245.324.365.45-.9h.119l-.086-.29.086-.327c-.022-1.123-.143.55-.171-.892l.258-.305.068-1.51c.333.645.464-.485.757 0l.068-.283h.345c.312-.857.74.825 1.05-.305-.35-.566-.939-.833-1.307-.61l-.052-.878h-.155l-.052.877-.137-.877-.035.877h-.19l-.051-.877-.069.596-.361-.907h-.327l-.275.311-.139-.618.104-.884.43.58.018-.908.084.909.07-.909h.088l.136-.587h-.448l-.084.587c-.163.328-.237.023-.38-.296h-.155l-.12-.9h.378V60.72h.24l.088 1.494h.155l.032-.885.242-.609-.069-.625c.173-.447.4-.008.569-.587.063 1.457.24 1.323.362.885l-.104-.885.155-.612h.19l.085-.884c.163-.075.256 1.622.379 0-.23-.424-.471-.93-.67-.305l-.02-.9-.032.9-.535-.297-.172.602.068.61-.29.274-.069-.884c-.314-.037-.543.044-.776.29l-.086-.595h.205l.122-1.19-.224-.603-.1-.64.036-.028.016-.328c.29-.624.53.127.788-.825V53.2h.172l.103.893.103-.604.207-.585h.207l-.292-1.525.223-.894c.168.469.371.618.517 0-.468-.64-1.007-.074-1.464-.9l-.051 1.518H14.6l-.053-.618-.188-.9-.052.588-.207-.587h-.207l-.222-.305-.448.305h-.122l-.068.587c-.005-.172-.186-1.377-.224 0l.086.93c-.176-.096-.337.11-.466.907-.178-.32-.344-.944-.497-.32l.257.602.24.612.087 1.189-.137-.305c-.09.72-.177-.797-.24.906.248-.305.457 1.592.67.907l.053.916c.25-.172.466.305.705.893l.137.602c-.161-.588-.394-.29-.67-.907l.137.602.171 1.19-.051.312.087-.313.034.612.119.587c-.143-.246-.153.491-.326.298v1.226h-.499l-.085.595-.086-1.204.05 1.204-.104.305.19.892-.035.909Zm3.822-2.701-.017-.29h-.171l.155.589h.205c-.011-1.392-.172-.3-.172-.3Zm-1.17-6.017-.155-.297c-.054 1.071-.274-.797-.274 1.212l.309-.298.015.588.053-.29.052-.916Zm20.95-14.742.085-.601-.224.602-.415-.32-.308 1.212c.197.142.35-.66.516-.312l.224-.29.122-.29Zm.015 2.724.225-.314.102.314.362-.61c-.214-1.221-.474.729-.704-.306l-.088.305-.07.297.173.314Zm1.808-2.143.051-.9h-.549l-.06-.863c-.201-.244-.243.692-.16 1.115l.165.009.001.059h.156l.242.29.085-.29h.051l.018.58" fill="#100F0D"/></svg>