<svg preserveAspectRatio="none" viewBox="0 0 73 132" fill="none" xmlns="http://www.w3.org/2000/svg">
    <path d="M72.2247 76.5857C71.998 76.3975 71.9347 76.9412 71.9788 77.5369L72.3322 77.7897L72.2247 76.5857ZM70.5875 92.9626L70.6258 93.0815L70.6361 94.0928C71.0321 94.4206 71.175 93.5202 71.0837 92.6359C70.8599 92.39 70.6906 92.6717 70.5875 92.9626ZM65.4433 118.979L65.3829 119.269L65.458 119.557L65.5375 119.596L65.5979 119.291L65.5022 118.949L65.4433 118.979ZM71.5754 76.5984C71.8478 76.8593 71.8949 76.4125 71.8773 75.773C71.6255 75.2465 71.4046 76.0489 71.5754 76.5984ZM61.8744 113.185C61.8803 113.58 62.0805 113.906 62.2454 113.682L61.8744 113.185ZM69.2403 62.2383L68.9871 61.7765C68.672 62.386 69.2875 63.1907 69.2403 62.2383ZM68.4011 84.3043C68.0581 85.0858 68.6617 86.9075 68.9591 85.7185C69.0475 84.661 68.7412 84.2223 68.4011 84.3043ZM61.0293 113.252L61.365 113.043L61.0293 113.252ZM61.3414 70.0538L61.1059 70.1739L61.3694 71.3849H61.4283L61.418 70.2859L61.3414 70.0538ZM59.2714 111.436L58.996 111.474L58.8944 111.965C58.8738 112.552 59.1256 113.074 59.32 112.909C59.5128 112.753 59.5187 111.645 59.2714 111.436ZM72.6944 92.9626L72.793 92.7755L72.8902 93.0226L72.849 93.3193L72.9697 92.7905L72.9506 92.6717L72.6944 92.9626ZM60.9807 95.9745C60.6318 95.8244 60.5184 96.4132 60.2475 96.5159L59.9427 97.5503L59.9766 98.2499L60.1297 98.8445C60.4257 99.2843 60.6656 98.8964 60.8011 98.5408L60.8791 98.5616L61.0764 96.3174L60.9807 95.9745ZM72.2056 94.7381L72.6149 95.1122L72.8063 93.556C72.4529 92.9626 72.1526 93.6679 72.2056 94.7381ZM39.7875 112.308C39.9571 112.41 40.0879 112.359 40.0673 111.749L39.8331 111.436L39.7342 111.495L39.7875 112.308ZM39.5681 114.918L39.5457 115.222L39.5276 114.828L39.2917 114.999L39.7995 115.326L39.7049 114.962L39.5681 114.918ZM66.5298 107.086C66.3487 106.543 66.1647 107.13 66.2118 107.561L66.2884 107.903C66.5048 108.06 66.5372 107.636 66.5298 107.086ZM66.4327 95.6097L66.4371 95.3061L66.4547 95.4608L66.4901 95.6317L66.4327 95.6097ZM66.5917 95.3061L66.4179 95.238L66.3723 95.9145C66.546 96.3762 66.6771 95.8244 66.5917 95.3061V95.3061ZM62.9521 68.2472L63.1038 68.7897C63.3305 68.9756 63.4571 68.59 63.4439 68.224L63.3673 67.8454C63.1892 67.4575 62.9242 67.5176 62.9521 68.2472V68.2472ZM63.1803 103.174L62.9595 103.709L63.1318 104.468C63.5793 104.706 63.466 103.219 63.1803 103.174ZM64.8117 62.5199C64.7248 62.1124 64.5452 62.0524 64.3228 61.9624L64.102 62.535L64.077 63.1745L64.2919 63.2115L64.1727 63.5774L64.2875 63.8822C64.4141 63.9261 64.4274 64.1039 64.6011 64.1039L64.8617 63.4354L64.8117 62.5199ZM64.7336 94.2636L64.7086 94.8131C64.8779 95.2668 65.0296 94.6792 64.9103 94.2325L64.7336 94.2636ZM59.0667 101.203L59.0976 102.057C59.3479 102.504 59.5246 101.612 59.342 101.165L59.0667 101.203ZM62.5458 110.552C62.746 110.93 62.9595 110.634 62.908 109.882C62.7401 109.152 62.3853 109.8 62.5458 110.552ZM62.2719 114.999C62.5222 115.176 62.587 114.65 62.4957 114.211C62.2498 113.734 62.1026 114.62 62.2719 114.999ZM68.1876 79.1728L67.6988 78.8611L67.6355 79.3079L67.7327 79.5734L67.6915 79.8135C67.8667 80.6228 68.3393 80.2729 68.1876 79.1728V79.1728ZM66.7949 87.756C67.1099 87.8449 67.2439 86.7898 67.107 85.9413C66.5608 85.6434 66.4135 87.1765 66.7949 87.756ZM68.0493 93.0815L68.0242 93.549L68.1612 93.9069C68.4056 94.1736 68.5425 93.3193 68.4055 92.7536C68.2171 92.6566 68.0949 92.7317 68.0493 93.0815V93.0815ZM66.7021 116.94C66.4179 116.716 66.3046 118.233 66.6712 118.124C66.8802 118.064 66.9171 117.104 66.7021 116.94ZM68.2716 90.2254L68.3584 91.4145C68.7427 91.7943 68.8649 90.693 68.725 89.9264C68.4909 89.6378 68.3908 90.0095 68.2716 90.2254ZM41.1165 108.737L41.0218 108.291L40.9623 108.306L40.9048 108.179C40.6396 108.03 40.5148 108.618 40.2919 108.559L40.1274 109.234L40.4348 110.113C40.699 110.291 40.7473 109.756 40.8547 109.48L41.1165 108.737ZM66.6727 90.6722C66.4606 90.85 66.281 91.1628 66.1146 91.5033L66.1662 92.4188L66.2413 92.7905C66.3797 93.0584 66.5136 93.549 66.7065 93.556L67.0054 93.0953L67.0555 92.024L66.9966 91.8532L66.6727 90.6722ZM61.7331 88.5884L61.5549 88.7292L61.8656 89.2141L61.7331 88.5884ZM62.5208 111.28L62.3662 110.893L62.2263 111.154L62.5208 111.28ZM55.8586 101.128L55.7305 100.118L55.5538 100.087L55.595 99.9596C55.4257 99.9088 55.4257 100.421 55.3153 100.54L55.3683 101.09L55.4257 101.263L55.7584 101.456L55.8586 101.128ZM45.9087 106.378L45.9165 106.363V106.378H45.9087ZM46.6352 107.682L46.7161 107.339L46.6163 107.391L46.6042 106.609C46.519 105.956 46.2538 105.732 46.0405 105.821L46.1396 105.672L46.1446 104.059H46.0275L45.7925 103.187L45.7332 103.582L45.7538 102.951L45.5197 102.928C45.2899 102.661 45.1119 103.234 44.9871 103.642L44.8459 104.543L44.9414 106.015L45.0972 106.781L45.3115 107.279C45.4087 106.855 45.5508 107.109 45.7437 107.086L45.8108 106.743L45.8529 106.781C45.8846 107.413 46.0517 107.763 46.3572 107.763L46.5766 107.496L46.6352 107.682ZM44.9121 113.461L44.716 113.334L44.597 113.438L44.6159 113.667L44.4343 114.062L44.4903 114.478C44.542 115.059 44.7906 115.244 44.9963 115.132L45.0153 115.244L45.1384 114.598L44.9121 113.461ZM56.6507 100.742L56.5108 101.009L56.4858 101.567L57.0187 101.351L56.8273 100.824L56.6507 100.742ZM45.6041 108.588L45.5799 108.99L45.4828 108.745C45.3364 109.234 45.592 109.882 45.7917 109.599C45.9009 109.199 45.7926 108.655 45.6041 108.588V108.588ZM55.5288 105.293L55.8998 105.695L55.9042 105.189L55.6304 104.809L55.5288 105.293ZM55.9071 109.072L56.2635 108.946L55.9071 109.072ZM49.824 109.637C49.3817 109.658 49.51 111.719 50.0023 111.645C50.2346 111.622 50.3396 111.124 50.2871 110.671C50.2286 110.12 50.0178 109.637 49.824 109.637V109.637ZM56.8023 126.363L56.5623 126.706L56.9319 127.047L56.8023 126.363ZM56.153 98.9276L55.9381 98.8814L55.9896 99.6329C56.1898 99.8488 56.2355 99.2693 56.153 98.9276V98.9276ZM53.031 95.9745C53.2359 96.3381 53.3892 95.8244 53.2738 95.3419L53.0775 95.208L53.031 95.9745ZM62.4133 100.942C62.216 100.824 62.0732 100.86 62.054 101.307C62.191 101.888 62.6253 101.671 62.4133 100.942ZM44.4818 99.4251L44.6858 100.778C45.1634 100.682 44.8656 98.5997 44.4818 99.4251ZM47.0241 110.381L46.7685 110.344L46.6076 110.87L46.914 111.719C47.1697 111.764 47.2334 110.707 47.0241 110.381V110.381ZM72.8652 68.4249L72.8608 69.0137C73.058 69.2215 73.033 68.3892 72.8652 68.4249ZM72.132 69.1014L71.8346 69.5032L71.8449 70.5456C72.3057 71.3191 72.4485 69.3035 72.132 69.1014V69.1014ZM50.8543 106.476L50.7183 106.423L50.635 106.907C50.7407 107.741 51.152 106.907 50.8543 106.476ZM63.1612 82.6765L63.0213 83.0021L62.8962 83.9406L63.4203 84.5733C63.3114 83.8956 63.5381 82.7654 63.1612 82.6765V82.6765ZM54.8191 98.5997L54.6086 97.989C54.4466 97.7293 54.2655 97.7512 54.1374 97.7073L53.8371 98.4589L53.8327 98.8006L53.7723 98.9876L53.7443 100.133L53.7782 100.682L53.9976 100.339C54.3951 100.778 54.588 100.318 54.8456 100.027L55.0282 99.4251L54.8191 98.5997ZM54.5821 110.12L54.3436 110.344L54.2405 110.93L54.7676 111.355L54.5821 110.12ZM71.8552 73.9224C72.0407 74.1302 72.1526 73.0369 71.9008 73.0069L71.7977 73.5206L71.8552 73.9224ZM48.3446 117.06L48.5589 117.297L48.6406 116.763L48.3446 117.06ZM62.3396 93.549L62.4516 94.2636C62.5958 94.6123 62.9124 94.5753 63.095 94.8443L63.0787 94.4206L63.1259 93.579L62.4192 93.3193L62.3588 93.5052L62.5752 93.549H62.3396ZM32.4 22.0383L32.0636 22.5509L32.4 22.0383ZM31.5549 22.5659C31.5455 21.9344 31.3439 21.5765 31.1821 21.9864C31.0272 23.5322 31.5712 23.7792 31.5549 22.5659ZM31.6831 57.6112L31.8174 58.4817L31.9948 58.177L31.6831 57.6112ZM28.811 50.6938C28.6389 50.1224 28.4918 51.0748 28.6131 51.6463L28.7895 51.5274L28.811 50.6938ZM31.4318 40.0072C31.294 39.2037 30.8612 39.7163 31.0755 40.6987C31.2734 40.7945 31.413 40.6398 31.4318 40.0072ZM30.2871 89.5339C30.4679 90.0453 30.7313 89.8386 30.702 88.7523L30.5461 88.0377C30.3198 87.8888 30.1942 88.5076 30.2097 89.0202L30.2871 89.5339ZM30.918 25.6367L31.0729 26.1135L31.2123 25.6829L30.918 25.6367ZM33.5405 61.1969L33.5198 60.8841L33.2273 60.4604C32.914 60.3785 32.7367 61.6795 32.7513 62.9148L32.5542 63.1156L32.8115 64.0219L32.9424 63.7402L32.9639 63.7991C33.3598 64.4386 33.6575 63.4574 33.6747 62.0524L33.599 61.2708L33.5405 61.1969ZM21.2764 79.1139L21.3908 80.7936C21.6173 80.9875 21.6782 80.161 21.6302 79.2917L21.2764 79.1139ZM20.7901 93.0226L20.7928 92.166C20.593 91.9651 20.6223 93.1773 20.7901 93.0226ZM26.7082 19.2572C26.9933 19.45 27.099 17.1666 26.7341 17.4863C26.5258 17.6722 26.4914 19.1072 26.7082 19.2572ZM44.6384 124.727C44.4249 125.367 44.6118 126.706 44.8302 126.885C45.0032 126.221 44.9371 124.585 44.6384 124.727ZM21.52 91.7192L21.8169 90.9977L21.8015 89.46C21.3358 88.5515 21.2024 91.5645 21.52 91.7192ZM27.0844 50.3533L27.0826 50.7909L27.0638 50.5461L27.0258 50.314L27.0844 50.3533ZM27.1007 50.8739L27.1439 49.8834C26.9682 49.2589 26.8382 50.1224 26.9252 50.8589L27.1007 50.8739ZM31.146 20.0596C30.8963 19.9176 30.8345 20.7061 30.9274 21.3618C31.1752 21.8755 31.319 20.5652 31.146 20.0596ZM21.7301 85.9182L21.8315 85.0858L21.7731 84.534C21.5855 84.3042 21.4786 85.9413 21.7301 85.9182ZM22.0398 80.4969C21.7661 80.2441 21.7198 80.9125 21.7421 81.8361C21.9968 82.4837 22.2128 81.2242 22.0398 80.4969ZM26.5258 54.2646L26.481 55.8715L26.5404 56.1163L26.8693 57.6932C27.0819 57.3065 27.2574 56.7789 27.4217 56.2202L27.3668 54.896L27.291 54.3615L26.9924 53.67H26.3347L26.5327 54.2357L26.5258 54.2646ZM30.2983 37.7988L30.5169 36.8752L30.3818 36.0729L30.4903 35.693C30.4455 34.9646 30.0264 34.6148 29.8335 35.2243L29.8317 35.9978L30.0676 36.3615C29.9979 36.9421 30.1123 37.8346 30.2983 37.7988V37.7988ZM22.4505 56.8078C22.6776 57.0837 22.843 56.5549 22.9446 56.0932L22.9057 55.9304L22.8894 54.4723C22.4926 54.1895 22.353 55.5748 22.4505 56.8078ZM45.7496 96.8068L45.8684 96.1234C45.686 95.9745 45.6943 95.7286 45.5146 96.1754L45.3545 97.4476L45.5094 98.7856C45.6938 99.3132 45.9465 98.9484 46.0792 98.3088L45.9474 96.4571L45.8657 97.5064H45.6885L45.7496 96.8068ZM21.3177 54.2357L20.9072 53.8778L20.7246 56.2202C21.0802 56.9417 21.3771 55.7676 21.3177 54.2357ZM30.8955 26.708C30.6907 26.2255 30.4816 26.7669 30.5384 27.8243C30.7089 28.8356 31.0601 27.7193 30.8955 26.708ZM26.9302 33.5654C27.1136 34.3181 27.2954 33.3657 27.2462 32.7631L27.168 32.2724C26.9485 32.1535 26.9192 32.785 26.9302 33.5654ZM25.3674 53.5881L25.1591 53.8478L25.1521 53.7889H24.7218L24.8939 54.3904L25.0145 54.0937H25.0996H25.1013L25.1273 55.4017C25.3148 55.4617 25.4372 55.2758 25.4816 54.7552L25.5031 54.0706L25.3674 53.5881ZM25.1754 67.7854C25.5118 66.4393 24.901 64.083 24.6072 65.9567C24.5273 67.5406 24.8353 68.0232 25.1754 67.7854ZM28.0156 15.2479L27.9383 14.8681H27.86L27.7988 15.3068L27.897 15.7686L27.957 15.7085L28.0156 15.2479ZM44.5203 37.9176L44.1651 38.4822L44.3791 38.9878L44.4198 38.3632L44.4999 38.3044L44.5203 37.9176ZM37.5367 25.8457L37.183 26.1885C37.1797 27.0878 37.6048 27.4007 37.5367 25.8457ZM36.5565 0.93167L36.7957 0.334832L36.4231 -6.07513e-07L36.5565 0.93167ZM37.9362 31.1792L37.5643 30.7694L37.5618 31.5267L37.8362 31.9527L37.9362 31.1792ZM35.5528 49.3489L35.7293 50.0624L35.9255 49.6976C35.997 47.9128 35.5287 48.3446 35.5528 49.3489ZM45.0593 10.689L44.8441 10.4569L44.7631 11.3055L45.0593 10.689ZM49.9567 16.0214L49.9755 16.564L50.0935 16.654L50.0151 16.4751L50.0746 16.1691L50.1322 16.4162L50.0935 16.1691L50.2123 16.0364L50.1546 15.6496L50.1943 15.5896L50.3517 16.2811C50.3483 15.5157 50.2295 15.144 49.9988 15.2479L49.9567 16.4751V16.0214ZM34.1637 23.927L34.4383 23.7411L34.5371 22.9746C34.5553 22.0741 34.3022 21.4496 34.1095 21.7543C33.9166 22.0741 33.9149 23.7192 34.1637 23.927V23.927ZM34.5003 62.0524C34.3245 60.928 33.9038 61.8365 34.0465 63.3096L34.2015 63.7991L34.2067 63.7771L34.3253 64.3209L34.4296 63.7402H34.2773C34.4743 63.5393 34.5156 62.752 34.5003 62.0524V62.0524ZM39.7548 113.719L40.1086 113.846L40.069 113.601L39.7548 113.719ZM39.8246 101.128L39.6894 100.436L39.6317 100.572L39.5535 100.281L39.2573 100.845L39.2917 102.155L39.3528 102.013L39.8246 101.128ZM39.4097 95.096L39.1713 95.7655L39.0326 96.5991L38.9724 96.681C38.8131 97.6254 39.0068 98.7337 39.3391 98.8445C39.5207 97.9683 39.9802 97.9682 39.8779 96.1523L39.7995 95.9895H39.8393L39.7608 95.5278L39.6644 95.208L39.4097 95.096ZM49.924 21.3087L49.9634 21.2348C50.0178 19.9996 49.4496 19.8657 49.589 21.2718L49.7665 21.5915L49.8844 21.4496L49.867 21.1598L49.924 21.3087ZM35.3178 73.3636C35.353 74.6739 35.6992 74.9337 35.9048 74.1302L35.9659 73.3036C35.8068 73.3428 35.8773 72.791 35.8489 72.5243L35.4773 72.0706L35.3178 73.3636ZM41.1345 32.6799L41.0535 33.6035L41.2876 34.5628L41.5218 35.1204L41.7422 33.8332L41.7826 32.7631L41.1345 32.6799ZM42.6019 27.3395H42.738L42.8198 26.5961C42.7113 25.4301 42.3024 26.835 42.6019 27.3395ZM35.6149 111.719H35.6553L35.5184 111.258L35.3015 111.317C35.1088 112.107 35.3127 113.58 35.5718 113.334L35.7137 111.898L35.6338 112.047L35.6149 111.719ZM38.8596 23.7042L39.0955 23.2505L39.1962 22.3419L38.6659 21.9864L38.8596 23.7042ZM49.5745 115.364L49.3576 115.176L49.2663 116.033L49.0546 116.821L49.1432 117.788L49.5315 118.584L49.7285 118.539C49.9247 118.375 50.0728 117.699 50.0375 116.821L49.7226 116.033L49.5745 115.364ZM44.3509 11.3805L44.2562 9.99747L43.8638 9.04506L43.6674 9.17899C43.4731 9.48376 43.3276 10.532 43.3671 11.8261C43.4505 12.3987 43.5298 12.6135 43.6985 12.8605C43.9928 13.2611 44.3294 12.4507 44.3509 11.3805V11.3805ZM43.6166 22.2242C44.0601 21.9933 43.9205 19.0252 43.4274 19.3531C43.1958 19.487 43.0935 20.2686 43.1477 20.9231C43.2097 21.6885 43.424 22.3269 43.6166 22.2242V22.2242ZM39.4983 34.9646L39.4768 36.0429L39.7891 36.5335L39.8908 35.7762L39.8116 35.4622L40.0491 35.0304L40.2247 34.8238L40.1876 34.437H40.266L40.3865 33.6035L40.6233 33.1059L40.7627 32.3394L40.921 31.9007L41.0407 30.7624L40.9657 29.0585L40.791 28.2631C40.6137 28.33 40.4752 27.9202 40.3229 28.0103L39.9468 28.8126L39.7452 30.3895L39.6473 30.6135L39.5672 31.2231L39.3684 31.8857C39.1782 32.9409 39.3425 34.3389 39.4983 34.9646V34.9646ZM49.0073 34.7187L48.7956 32.845C48.3205 33.2018 48.6286 36.1017 49.0073 34.7187ZM46.4106 19.8587L46.6671 19.7906L46.8271 18.9663L46.5147 17.8512C46.2599 17.91 46.2013 19.472 46.4106 19.8587V19.8587ZM46.8143 23.6592L46.7351 24.1648L46.8349 24.0447L46.8504 25.1911C46.951 26.2255 47.2893 26.4032 47.5078 25.9576C47.415 26.5522 47.5838 27.1767 47.8807 27.1767L47.9177 26.5683L48.0905 26.8939C48.3446 26.1135 47.8857 25.2731 47.5406 25.7637L47.5303 25.8237L47.5389 25.1911L47.6164 25.2731L47.6956 24.6774L47.5983 24.5896C47.5657 23.6591 47.3977 23.2505 47.0905 23.3694L46.8737 23.8819L46.8143 23.6592ZM48.5072 14.3855L48.7043 14.5044L48.8214 14.2643L48.8033 13.9757L48.9824 13.2842L48.9247 12.7405C48.8686 11.8931 48.6208 11.7523 48.4152 11.997L48.3963 11.855L48.2749 12.8224L48.5072 14.3855ZM47.841 21.8444L47.8626 21.2348L47.9607 21.5326C48.1052 20.743 47.8454 19.9626 47.6474 20.4464C47.5415 21.0709 47.6525 21.8675 47.841 21.8444V21.8444ZM37.7261 36.9271L37.6263 37.4478L37.7598 38.8389L37.9371 38.78L37.8975 39.004C38.0678 39.004 38.0625 38.3044 38.1744 38.0585L38.1177 37.27L38.0601 37.0541L37.7261 36.9271ZM33.7548 77.3499L33.9502 77.9167C34.2129 77.231 33.7531 76.3097 33.7548 77.3499ZM41.5503 103.174L41.6112 102.095L41.5536 101.464L41.495 101.717L41.4771 101.09L41.3986 100.942L41.1627 100.905C40.9753 99.8719 40.8908 101.94 40.9219 102.951C40.7549 103.709 40.6654 104.446 40.6198 105.613L40.9718 106.647L41.3231 106.988C41.5932 106.595 41.8808 106.261 41.8222 104.506L41.7628 104.416L41.5503 103.174ZM53.6943 14.8831L53.6369 13.7379C53.4665 13.6709 53.3358 13.8129 53.359 14.6972L53.5941 15.017L53.6943 14.8831ZM32.2074 83.4719L32.2235 85.0858L32.3011 85.4195L32.5387 85.1147L32.2676 83.4719H32.2074ZM42.7612 113.682L42.5047 113.505L42.5064 113.192C42.2337 113.103 42.1657 113.734 42.2087 114.769C42.4213 115.989 42.9239 115.483 42.7612 113.682V113.682ZM53.7046 9.82549L53.843 9.84742L53.8651 9.38677L53.8812 9.93744L54.1183 9.54263C54.1654 8.27852 53.5838 7.91486 53.6089 9.36484L53.7046 9.82549ZM24.4463 100.421L24.7003 100.972C25.0111 99.9596 24.3923 99.0465 24.4463 100.421ZM43.9887 125.656C44.2734 125.673 44.1443 123.776 43.8946 124.169C43.702 124.481 43.8095 125.613 43.9887 125.656ZM42.5675 120.421C42.5564 121.039 42.6372 121.321 42.8016 121.283L42.8628 120.153L42.8051 119.974L42.5675 120.421ZM56.3047 15.2779L56.4416 16.1322L56.4769 16.7417L56.5564 16.5189L56.7508 17.0696L56.7714 16.8468L57.1674 16.2811L57.11 15.5157L57.0909 15.3437C56.9554 14.8242 56.6816 14.4814 56.4622 14.8831L56.2458 15.017L56.2443 15.4049L56.3047 15.2779ZM25.9017 75.4012L25.9621 74.7178L25.8647 74.3899L25.9063 74.0194C25.7262 72.9169 25.2545 73.6084 25.4104 75.1865L25.9017 75.4012ZM35.4695 59.1882C35.1258 58.7507 34.928 59.7309 35.0148 61.0388L35.2447 62.595L35.4238 61.9393L35.5038 61.5606C35.6466 60.6463 35.6579 59.9167 35.4695 59.1882V59.1882ZM35.4178 64.3209L35.3187 65.0713C35.4022 65.3322 35.4539 65.7258 35.6295 65.667L35.7128 64.5887L35.459 64.1039L35.4178 64.3209ZM35.1311 77.2691C35.3256 77.5889 35.4988 76.8443 35.3292 76.3536L35.3091 76.5984L35.3677 76.1608C35.1535 75.5663 34.9461 76.6503 35.1311 77.2691ZM34.7258 66.3793L34.8866 64.8704C34.5759 63.978 34.3084 66.9519 34.7258 66.3793ZM35.9316 78.965L35.7731 79.7223C35.7137 81.0314 35.9057 81.4101 36.1219 81.679L36.3972 81.1653L36.4041 79.3206L36.3421 80.0132L36.2837 79.8574L36.4041 79.1889C36.2887 78.7041 36.126 78.965 35.9316 78.965V78.965ZM35.4969 80.6227L35.6553 79.7154L35.5382 79.6115L35.6354 79.2536C35.5452 79.0469 35.5072 78.6752 35.3429 78.7421C35.1665 79.2616 35.2912 80.6828 35.4969 80.6227V80.6227ZM34.4726 73.8924L34.3306 74.9337C34.3505 76.2798 35.0787 76.5626 34.9219 74.555L34.7834 74.8436L34.8644 74.1752C34.7825 73.7296 34.6526 73.9593 34.4726 73.8924V73.8924ZM52.4234 20.2005L52.482 20.1416L52.5395 20.2905C52.8065 20.3875 52.9285 19.472 53.1516 19.427L53.3116 18.4007L53.0011 17.2705C52.7351 17.1285 52.6894 17.895 52.5834 18.3718L52.3261 19.5759L52.4234 20.2005ZM34.0218 100.824L33.8848 100.659H33.9528L33.817 100.177L33.6438 99.8719C33.4847 99.8719 33.3521 99.8939 33.1971 99.7299L32.7806 100.378L32.5369 101.203L32.4337 101.263C32.153 102.207 32.4982 103.344 33.0827 103.486C33.3985 102.601 34.2067 102.638 34.0218 100.824V100.824ZM33.9408 105.791L33.7023 105.099L33.5973 105.233L33.4605 104.898C33.2625 104.965 33.0861 105.107 32.9406 105.471L33.006 106.781L33.1103 106.647C33.2987 107.56 34.014 106.855 33.9408 105.791V105.791ZM15.5804 100.54L15.7886 99.9596L15.582 99.544C15.3584 99.544 15.3349 99.2843 15.0303 99.3201L14.5785 100.421L14.6801 101.754C14.835 102.318 15.1517 102.274 15.5408 102.378C15.718 102.036 15.872 101.873 15.9237 101.433C15.9599 101.106 15.7973 100.682 15.9599 100.511L15.5804 100.54ZM17.8794 92.6567L17.6047 91.9282C17.2043 91.7423 16.9884 92.3669 17.0159 92.8726L17.1521 93.4012C17.4679 93.9069 17.9325 93.743 17.8794 92.6567ZM47.915 97.6254L47.7765 97.5296L47.7783 97.4834L47.9177 97.5815L47.915 97.6254ZM48.0905 97.1047L48.0596 97.1636L47.9124 96.2943L47.6207 96.6579L47.3289 96.7179L47.26 96.9188L47.1568 96.8357L46.995 97.2386L47.0889 96.0334L46.6973 95.223L46.4786 95.9745C46.4133 96.9188 46.6318 97.8851 46.9321 97.6254L46.8779 98.0271C47.0026 98.8225 47.3177 99.6041 47.7369 99.499C47.9264 99.469 48.1845 98.9876 48.2223 98.5616L48.0905 97.1047ZM26.5929 116.353L26.5604 116.048H26.629L26.3881 115.564L26.0086 115.609C25.6695 116.376 26.0318 117.893 26.4863 117.661C26.6997 117.543 26.8125 116.716 26.7324 116.204L26.5929 116.353ZM18.4481 44.6261C18.795 44.7288 19.043 44.5892 19.0705 43.9415C18.827 43.1531 18.0678 43.6136 18.4481 44.6261ZM18.5332 23.9858C18.092 23.8 17.9842 24.6046 18.1504 25.25C18.5858 25.8018 18.8373 24.4845 18.5332 23.9858ZM46.4501 102.906L46.6973 101.33C46.5689 101.128 46.1852 100.436 46.0087 100.481L45.6256 101.203C45.5094 102.155 45.9087 103.174 46.4501 102.906ZM31.2684 97.2975C30.7597 97.1636 30.4558 98.116 30.6073 99.0672L30.9851 99.8719C31.4775 100.192 31.9586 99.2023 31.7503 98.0271L31.2684 97.2975ZM17.0736 41.628C17.3198 41.6142 17.2871 40.9215 17.4558 40.7656L17.1477 39.7313C16.355 39.5454 16.5736 41.695 17.0736 41.628ZM33.2668 98.8225L33.4425 98.2349L33.3037 97.7512C32.9105 97.5065 32.8485 98.8006 33.1989 98.8006L33.0603 98.5027L33.1309 98.191L33.3736 98.213L33.2668 98.8225ZM18.103 30.6135C17.745 30.1309 17.3757 30.6424 17.4773 31.6848C17.7794 32.7262 18.3931 31.6536 18.103 30.6135ZM18.6574 29.6022L18.1391 29.5422L18.4146 30.0178L18.6574 29.6022ZM2.63719 83.6497C2.15589 83.368 2.07492 84.0445 2.11556 84.9957C2.5649 85.6434 2.94446 84.4012 2.63719 83.6497ZM4.08226 57.7083C3.38336 57.3885 3.14146 58.7507 3.3171 59.9917C3.71374 60.2953 4.00393 59.7897 4.18208 59.336L4.11318 59.1663C4.34227 59.1882 4.20358 58.0361 4.08226 57.7083V57.7083ZM41.1345 129.197C40.7979 129.503 40.9899 130.633 41.3076 130.67C41.8032 130.729 41.5751 128.81 41.1345 129.197ZM1.91503 82.4237C1.78752 82.0577 1.47157 81.8361 1.2918 82.1997C1.1428 82.9062 1.22378 83.7686 1.49674 83.9175C1.89515 84.1034 2.00101 83.286 1.91503 82.4237V82.4237ZM6.90453 103.791C6.92867 104.155 7.08695 104.356 7.35108 104.387C7.89848 103.373 6.80721 102.393 6.90453 103.791ZM2.17739 87.6821C1.84627 87.4143 1.66208 89.0721 2.10525 89.0502C2.28693 89.034 2.44932 88.3298 2.27986 88.2236L2.17739 87.6821ZM2.23525 92.6128C1.41488 91.6604 1.18682 94.6585 1.74453 94.8593C1.95286 94.9182 2.18357 94.4564 2.26514 94.1297L2.23525 92.6128ZM11.955 58.4968L11.8166 57.9541C11.572 57.6332 11.3301 56.9648 10.9903 57.0237C10.7199 57.0398 10.6813 57.5074 10.4721 57.7902L10.3971 59.4111L10.5023 59.6489C10.5305 60.2146 10.8783 60.7802 11.0841 61.2559C11.4567 60.8841 11.7656 60.3785 12.0541 59.8417L11.955 58.4968ZM45.0489 110.893C44.8647 110.231 45.0334 110.113 45.0533 109.274L44.8459 109.258L44.4343 108.365L44.3294 108.737L44.3646 108.12C44.1555 108.26 44.1409 107.741 43.9507 108.089C43.5495 107.793 43.2363 108.327 43.0177 108.745L42.7733 109.637L42.941 111.116C43.1175 111.221 43.1278 111.645 43.2175 111.921H43.2596L43.2706 112.084L43.2321 112.129L43.0788 111.608C43.0781 112.129 43.1951 112.41 43.4255 112.41L43.51 112.129L43.5951 112.41C43.7665 112.009 44.0171 112.261 44.3562 112.261C44.4171 111.719 44.6548 111.586 44.8423 111.34L45.0489 110.893ZM9.42202 77.5069C9.10253 76.3975 8.27465 77.0451 8.55616 78.6163C8.76095 79.1889 9.18012 79.6553 9.41775 78.8818L9.52185 78.2134L9.35061 77.8706L9.42202 77.5069ZM7.12729 69.3404C6.98447 70.9173 7.52672 71.423 8.12404 71.2222C8.71208 69.898 7.63685 67.4806 7.12729 69.3404ZM42.4478 129.8C42.0726 130.424 42.4039 131.8 42.7879 132C43.09 131.34 42.9703 129.681 42.4478 129.8ZM10.9008 65.54C10.349 65.54 10.1252 67.1308 10.3765 68.306C11.3413 68.5669 11.5779 66.2396 10.9008 65.54ZM37.3517 109.274L36.9748 107.978L37.0815 106.929C36.8913 106.892 36.9868 106.609 36.9808 106.304L36.8757 106.537L36.8431 105.896L36.7045 105.732L36.2906 105.695C35.9592 104.617 35.8162 106.706 35.8697 107.717C35.5787 108.461 35.4228 109.199 35.3454 110.344C35.5253 110.731 35.9272 110.693 35.9642 111.399C36.2285 111.221 36.3817 111.645 36.5858 111.779C37.059 111.399 37.5643 111.094 37.454 109.333L37.3517 109.274ZM11.4481 53.9367L11.4463 54.3754L11.4111 54.1537L11.3447 53.9159L11.4481 53.9367ZM11.1692 54.4215C11.331 54.3904 11.3784 54.5324 11.4818 54.4504L11.5541 53.4611C11.2415 52.8446 11.0161 53.6758 11.1692 54.4215V54.4215ZM10.7294 22.8187C11.2285 23.0127 11.4129 20.743 10.769 21.0489C10.4041 21.1898 10.3481 22.6478 10.7294 22.8187ZM43.9335 101.33L43.6546 102.579L43.9257 103.94C44.2503 104.475 44.696 104.118 44.9293 103.486C44.9723 102.601 44.8595 102.088 44.6926 101.627L44.5523 102.69C44.3931 102.72 44.3431 102.564 44.2415 102.661C44.3509 102.504 44.1667 101.954 44.3448 101.975L44.5549 101.307C44.2321 101.128 44.246 100.883 43.9335 101.33ZM11.6976 36.3615L11.5626 35.872C11.177 35.7369 11.1253 36.3407 11.1451 37.1511C11.4704 37.8738 11.7846 36.9583 11.6976 36.3615ZM1.32022 57.3215C1.19271 56.8978 0.873515 56.8078 0.595544 56.9267C0.388096 57.4474 0.0964361 58.304 0.279738 59.2691C0.907088 60.0218 1.42357 58.8615 1.32022 57.3215ZM12.9146 19.3531L13.0197 18.9144L12.8821 18.5265L12.746 18.5057L12.6402 18.9513L12.8116 19.427L12.9146 19.3531ZM33.8417 118.398L34.4633 118.539L34.3926 118.316L33.8417 118.398ZM39.2134 124.906C39.0198 124.928 38.901 125.092 38.7976 125.308C38.7797 125.955 38.92 126.221 39.2099 126.221L39.3159 125.07L39.2134 124.906ZM39.1248 118.6C38.9139 118.732 38.8296 118.047 38.6763 118.398L38.6772 118.086C38.196 117.989 38.0781 118.613 38.1548 119.656C38.5328 120.883 39.4123 120.421 39.1248 118.6ZM0.463036 96.0934L0.466422 95.238C0.117044 94.999 0.171961 96.2112 0.463036 96.0934ZM8.63963 58.1908L8.67586 57.5074L8.43646 57.0237C8.00183 56.7408 7.76686 58.0361 8.01641 58.8234C8.34871 58.8973 8.56396 58.7507 8.63963 58.1908V58.1908ZM8.28422 62.4599C8.26773 61.8804 8.33664 61.227 8.11461 60.7652C7.4347 60.3554 7.23403 62.0455 7.48712 63.0695C7.90201 63.4123 8.07339 62.8247 8.28422 62.4599ZM0.484531 60.1406L0.311391 60.4454L0.138539 60.0956L0.20833 59.6489L0 60.4824L0.0342987 60.6163C0.206559 60.8322 0.550785 60.5054 0.484531 60.1406V60.1406ZM26.123 68.6189L25.9724 69.1326H25.8407L25.8063 69.4443L26.0233 69.5032C26.1358 69.7572 26.2418 70.0019 26.5009 69.95L26.642 68.9017C26.5215 68.6858 26.3684 68.306 26.1937 68.3892L26.123 68.6189ZM32.0748 78.5771C31.8037 78.7191 31.7339 79.2617 31.727 79.3667C31.6462 80.5489 32.2538 80.8456 32.5542 80.4588C32.9287 79.9982 32.7651 78.1546 32.0748 78.5771ZM34.8299 67.5775L34.7619 67.9632C34.9626 67.9632 35.0803 68.1652 35.1741 68.4099L35.4496 68.1952C35.3867 67.9274 35.7 67.2509 35.4883 67.117L35.5235 66.5882C35.1759 65.585 34.4726 66.6921 34.8299 67.5775V67.5775ZM33.4571 50.6938C33.9967 50.613 34.0733 49.4009 33.668 48.8722L33.463 48.0017L33.5673 47.8528L33.4278 47.69L33.5335 47.2132C33.3667 46.4259 32.8254 46.7157 32.7445 47.5041L32.7298 47.5191L32.7436 47.533L32.7383 47.8458L32.7847 47.884L32.7272 48.5073L32.8424 48.9772L32.938 50.4272L33.074 49.8834L33.284 50.5161L33.3522 51.2007L33.3873 50.8358L33.4571 50.6938ZM30.1855 65.8378V65.8817L30.1709 65.8378H30.1855ZM30.1338 66.833L30.1855 66.6552C30.1864 67.2717 30.2157 67.7854 30.4196 67.7646L30.5573 67.2358L30.6796 65.7997L30.578 65.2421L30.4608 64.9524L30.3612 64.8115L30.2468 64.6245L30.177 63.7402L30.0409 64.0219L29.9884 64.5726L29.9688 64.5887L29.3825 63.3754L29.4186 62.9667L29.3809 62.8247L29.4204 62.2152L29.1674 62.2671C28.7945 61.7915 28.1957 62.3422 28.2783 63.6132L28.5527 64.7203L28.4099 65.9486C28.1243 65.6958 27.8272 65.6358 27.7876 66.1784L27.9598 66.893C28.1888 67.117 28.378 66.6032 28.5811 66.5882C28.7877 67.0581 28.9426 68.0232 29.3385 67.6595L29.4419 68.0613L29.3713 68.4249L29.5072 68.9156L29.8541 69.0137L29.9926 68.3429L29.9255 67.9632L29.7878 67.5637L30.0315 67.117L30.1338 66.833ZM33.2419 39.6124L33.2058 40.6837C33.3831 41.2563 33.5344 41.5761 33.7557 41.1963L33.9314 40.4459L33.7944 40.118L34.2083 39.7163L34.5209 39.5096L34.4511 39.1298H34.5905L34.7999 38.3113L35.2145 37.8346L35.459 37.0691L35.7361 36.6604L35.9462 35.5222L35.8137 33.8101L35.5038 33.0159C35.1906 33.039 34.9443 32.6292 34.6759 32.703C34.3985 32.74 34.2248 33.2456 34.0157 33.4696C33.9021 33.9314 33.8468 34.4728 33.6671 35.0385L33.4948 35.2474L33.3547 35.8489L33.0069 36.4965C32.6746 37.5309 32.9673 38.944 33.2419 39.6124V39.6124ZM33.0266 69.9938L32.7143 71.1782L32.5387 72.3904L33.2953 73.4618H33.3873L33.3786 73.9593C33.4724 73.3786 33.5784 76.2797 33.6886 74.555L33.439 73.4618C33.6378 73.4225 33.9614 73.3036 34.0218 73.2447L34.3099 72.791L34.3951 72.8961L34.6733 71.9067L34.7145 71.0802L34.5795 69.9938L34.4227 69.4443C34.2152 69.2815 34.0964 69.5193 33.9967 69.801C33.6808 69.5193 33.3022 69.5193 33.0266 69.9938V69.9938ZM36.2526 61.0388C36.1286 61.152 35.9359 60.5274 35.8585 61.9185L36.0313 62.5199C36.1011 61.1658 36.2604 62.5049 36.3007 61.13C36.4263 61.2858 36.5744 61.3898 36.738 61.4267L36.7208 61.5606C36.5599 61.3078 36.3894 61.2559 36.3688 61.8135L36.4652 62.5199L36.8181 62.1794C36.9352 62.647 37.0211 63.5982 37.2468 63.2115L37.3069 63.6132L37.2657 63.993L37.3439 64.4386L37.5385 64.5726L37.6186 63.8822L37.5815 63.4943L37.5048 63.0925L37.6419 62.6469L37.7021 62.3641L37.7648 61.5906L37.7236 61.3528H37.7639L37.6477 60.2596L37.7072 60.0506L37.6099 60.0956L37.4937 59.7089L37.4086 58.2659L37.1478 57.8121L36.9868 57.6932C36.8172 57.5893 36.6296 57.5893 36.4533 57.6482L36.38 57.1206L36.4592 56.7558L36.0263 57.1715L36.1201 57.9172L35.9238 58.2659C35.7017 59.388 35.8677 60.5055 36.2526 61.0388V61.0388ZM27.1025 77.6327C26.8261 77.6697 26.9467 77.1202 26.8993 76.8443L26.2427 76.3686L25.9629 77.6489C26.0274 78.965 26.6377 79.2616 26.9984 78.4582L27.1025 77.6327ZM27.3934 86.0232C27.5424 85.8374 27.6869 85.6434 27.8789 85.5384C27.9021 85.0858 28.1353 84.0514 27.8831 83.6959L27.7773 84.3793L27.6758 84.2223L27.8831 83.5619C27.6817 83.0621 27.397 83.3299 27.056 83.2861L26.7771 84.0445C26.6755 85.3525 27.0139 85.7393 27.3934 86.0232ZM28.7999 48.6043C28.5243 48.6632 28.3962 49.0811 28.347 49.6687C28.5072 49.8026 28.4813 50.1824 28.5527 50.3683L28.7937 50.4641C28.9901 50.1744 29.1751 49.9885 29.4161 50.1513L29.6227 50.4861C29.769 50.5461 29.9747 50.3683 30.1416 50.4641L30.4248 50.9848L30.3999 51.7871L31.0919 52.0919L31.2398 52.4347L31.2054 52.9046C31.4395 52.6945 31.5171 53.5061 31.7915 53.4899L31.8252 53.8928C31.9482 53.8027 31.9998 53.5649 32.2055 53.6758L32.1712 53.0743C32.3313 53.0512 32.3467 52.7176 32.4155 52.4948C32.2444 52.5537 32.4122 52.115 32.4155 52.2489L32.0748 50.9178C31.6315 50.8358 31.8423 49.8465 31.5592 49.4898L31.283 49.4378L31.1142 48.1056C30.8983 46.7895 30.6221 45.3915 29.9118 45.6743C29.7156 45.7632 29.5487 46.068 29.4075 46.307L29.1552 46.7156L28.9701 47.0504L28.8531 46.5968H28.544L28.404 47.1694C28.5371 47.0793 28.7575 47.2294 28.9435 47.1694L28.9408 47.1993L29.0081 47.802L28.7999 48.6043ZM28.0906 83.353C28.2893 83.5158 28.2231 83.0251 28.3669 83.0621C28.5682 83.2491 28.7206 83.1521 28.8525 82.8831L28.7861 81.8949C28.4504 81.4101 28.2962 81.753 28.1957 82.3625L28.2318 82.7492L28.0906 83.353ZM26.2056 63.4793C25.5997 62.9967 25.2512 63.978 25.407 65.316L25.5542 65.8147L25.444 66.1195H25.5653L25.6513 66.4924L25.8175 66.8641L25.8519 66.8491L25.5997 67.035L25.685 67.6157H25.8063L26.0988 68.224L26.1505 67.9354L26.0498 66.4981L26.1299 66.2165L26.1669 66.1195L26.2702 65.8378L26.4517 64.6476L26.4587 64.7665C27.007 64.9893 27.1446 62.647 26.7608 61.9624C26.4741 62.0213 26.3521 63.3384 26.4398 64.4386L26.2056 63.4793ZM25.6443 81.5313C25.988 81.8949 26.2891 81.1515 25.9905 80.6678L25.9551 80.8917L26.0611 80.4219C25.6789 79.8424 25.3175 80.9125 25.6443 81.5313ZM26.2908 84.9069L26.5697 84.0133L26.364 83.9175L26.5354 83.5619C26.3736 83.353 26.3081 82.9663 26.0187 83.0482C25.709 83.5308 25.9319 84.9519 26.2908 84.9069V84.9069ZM30.9205 42.5723L30.8182 41.8L30.7166 41.5541C30.5487 41.2563 30.3327 41.4052 30.1279 41.3833L29.9557 41.9259L30.1924 43.3308C30.393 43.392 30.3516 43.3539 30.504 43.2939L30.4352 43.5248C30.7313 43.5248 30.7235 42.7801 30.9205 42.5723V42.5723ZM51.592 21.5176L51.6255 22.0603L51.833 22.1641L51.6927 21.9864L51.7994 21.6885L51.9017 21.9344L51.833 21.6885L52.0394 21.5766L51.938 21.1679L52.0086 21.109C52.2203 21.2487 52.0644 21.8155 52.2806 21.8155C52.2761 21.049 52.0696 20.6841 51.6626 20.7742C51.5257 20.9231 51.3811 21.6735 51.5903 21.9864L51.592 21.5176ZM56.0352 25.8607L56.1383 26.0165C56.6094 26.1424 56.82 25.2361 57.2116 25.2142L57.4899 24.1798C57.4766 23.7192 57.1704 23.1166 56.9422 23.0346C56.4755 22.8707 56.3974 23.6453 56.2119 24.1048C56.0043 24.6335 55.7408 24.7305 55.7629 25.2961L55.9322 25.9207L56.0352 25.8607ZM51.2667 27.0878L51.4739 26.9759L51.4396 26.6561L51.5438 26.835L51.6135 26.7542C51.7047 25.497 50.7055 25.3331 50.9577 26.7542L51.2667 27.0878ZM62.746 21.2949C62.9124 21.4207 62.8535 22.8268 62.9875 22.1791L63.0537 22.7887L63.1921 22.6109C63.1995 22.9145 63.3408 23.0577 63.5381 23.1535L63.572 22.9538C63.7766 23.2793 64.1992 23.0127 64.264 22.402L64.1624 21.6147L64.13 21.4496C63.89 20.9231 63.4085 20.5433 63.0257 20.9439C62.8476 20.8481 62.7475 20.8331 62.643 21.0709V21.4346L62.746 21.2949ZM58.1568 20.7061C58.3291 20.3563 58.1598 19.7779 58.0538 19.554C57.7549 19.472 57.5252 19.6047 57.5694 20.5052C57.7873 20.7742 57.7991 20.5433 57.9831 20.8481L58.1568 20.7061ZM36.386 39.3307C36.5203 39.5304 36.6407 39.8214 36.7998 39.9102L37.1821 38.6611L37.2527 37.5898L36.9808 36.9271H36.4927L36.1149 37.479L35.9737 38.3794C35.9917 39.004 36.189 39.0479 36.386 39.3307V39.3307ZM58.1671 15.6496L58.4101 15.6715L58.4439 15.2167L58.4778 15.7686C58.6604 15.6496 58.7178 15.7535 58.8944 15.4257C58.974 14.1177 57.9507 13.7379 57.9963 15.1659L58.1671 15.6496ZM41.7259 16.4162L41.558 15.017L40.8677 14.0426L40.5226 14.1535C40.1782 14.4444 39.9279 15.4845 39.9984 16.7798C40.1473 17.3524 40.2849 17.5902 40.5826 17.8361C41.1009 18.2817 41.6957 17.4863 41.7259 16.4162ZM40.4563 27.1929C41.2344 27.014 40.9847 24.0447 40.1189 24.3056C39.7127 24.4476 39.5344 25.1911 39.6317 25.8607C39.7392 26.6353 40.1189 27.2668 40.4563 27.1929ZM38.9242 32.2493C39.0885 32.1073 38.9585 31.6536 39.0635 31.5059C38.8708 30.3087 38.1564 31.6848 38.6823 32.2263L38.9242 32.2493ZM48.8404 17.2266L48.6287 18.1998L49.0391 19.7779C49.2475 19.8587 49.4032 19.472 49.386 19.9037L49.5936 19.6948L49.559 19.375L49.8725 18.7204L49.7691 18.1628C49.6709 17.3085 49.2329 17.1516 48.8731 17.3963L48.8404 17.2266ZM46.081 28.8957L45.9415 29.4083L46.1144 29.2743L46.1472 30.4357C46.3261 31.5059 46.9364 31.7148 47.3186 31.2611L47.3556 30.5027L47.4941 30.5904L47.6319 29.9889L47.4607 29.907C47.4003 28.9776 47.1042 28.5528 46.5664 28.6498C46.4286 28.7918 46.3685 29.1185 46.1842 29.1405L46.081 28.8957ZM42.9712 15.7905C42.861 15.6716 42.7792 15.4846 42.5916 15.5307L42.4523 16.3561C42.6158 16.9218 43.1097 16.564 42.9712 15.7905ZM45.3657 25.0572C45.629 25.1311 45.6558 25.1161 45.814 25.0353L46.0938 24.2248C46.112 23.5783 45.7926 23.0577 45.5439 23.0727C45.0954 23.0935 44.9948 24.6774 45.3657 25.0572ZM27.9168 41.9997L28.2609 42.7213L28.5708 42.7652L28.8136 42.3265L28.8506 41.501C28.6836 40.2011 27.8538 40.3189 27.9168 41.9997ZM24.9102 70.6264L25.1909 69.1095C24.6427 68.2102 24.177 71.1621 24.9102 70.6264ZM24.1882 55.105C23.9325 54.8822 23.7673 55.165 23.8062 55.9904C24.1056 56.4441 24.3888 55.7965 24.1882 55.105ZM21.5699 53.0385C21.5553 53.7069 21.4976 54.2715 21.7386 54.5093C22.0166 54.1306 22.181 53.3041 22.3643 52.9173L22.3324 51.6024C22.0381 50.9178 21.7198 51.4084 21.366 51.5574C21.5846 51.6613 21.4116 52.3597 21.3633 52.5767L21.5699 53.0385ZM20.6205 87.5032H20.5181C20.3168 87.8449 20.5999 88.4025 20.5465 89.094L20.6859 89.4438C20.8969 89.5189 21.0242 89.4138 21.099 89.176L20.6205 87.5032ZM25.0299 50.2933C25.2735 50.2933 25.4319 49.282 25.2072 48.6632C24.5564 48.3965 24.6271 50.2702 25.0299 50.2933ZM23.7097 67.5037L23.9842 67.9793C24.4635 68.0232 24.5376 67.0581 24.5058 66.2915L24.085 65.7859L24.1357 65.2421L23.9023 65.8967C23.708 66.1645 23.5831 66.751 23.7097 67.5037ZM19.253 26.5152C19.2348 25.8826 18.8845 25.5178 18.598 25.9057C18.3302 27.4457 19.2847 27.7424 19.253 26.5152ZM23.0684 66.4393H23.3446L23.3954 66.1195L23.5685 65.8378C23.319 65.8378 23.2199 66.0456 23.0288 66.1195L22.9212 65.3991L22.8171 65.316L22.7826 65.0124L22.2663 64.5726L22.2077 64.5887L22.1569 64.3209L22.0828 64.6476L22.0235 64.6695L21.8944 64.7203C21.6372 65.0343 21.4908 65.7258 21.4528 66.4393L21.3651 66.7302L21.2791 66.4393L21.1585 67.035L21.4615 67.0788C21.5992 67.2947 21.6397 67.7265 21.81 67.8754C22.4641 68.5288 22.9574 67.6976 23.04 66.4393H23.0684ZM23.8405 28.0991C24.0703 28.2273 24.0961 28.0333 24.325 27.9202L24.4998 27.1767C24.5273 26.2843 24.0824 25.6367 23.744 25.9426C23.4041 26.2255 23.405 27.8844 23.8405 28.0991V28.0991ZM50.7227 120.659L50.548 121.872C50.6607 122.86 51.2417 122.355 51.4129 121.812C51.3381 121.409 51.2984 120.793 51.1049 120.861L50.7227 120.659ZM22.4823 46.8496C21.9556 46.307 21.5398 46.9604 21.3074 47.5642L21.1688 47.533C21.2402 48.6043 20.8486 49.4159 20.8486 50.8947L21.0217 51.3646C21.6372 51.4385 21.8272 50.523 22.3015 50.2933C22.4814 49.8835 22.7938 49.5048 22.824 48.6574L22.7577 47.6461L22.4823 46.8496ZM20.7385 26.0627C20.5156 25.4358 20.1204 25.8826 20.1489 26.5302C20.193 27.5046 20.9175 27.2668 20.7385 26.0627ZM63.1936 50.0024L62.9183 50.2933L62.7755 51.4985C62.8182 52.078 63.2216 52.6726 63.5322 52.5767L64.0196 51.7871L64.0564 50.717C63.9754 50.0624 63.5734 49.9065 63.1936 50.0024V50.0024ZM19.5447 61.5756L19.7848 62.4449L20.0955 62.1794L19.5447 61.5756ZM31.4956 61.152L31.3561 61.5906L31.3079 62.0524L31.3148 61.9185L31.2684 61.9024L31.4956 61.152ZM31.5231 63.993L31.7133 64.2978L31.573 64.3209L31.4688 65.2421H31.7442C31.727 63.7771 31.8767 65.2721 31.8819 64.2608L32.0428 63.7402L31.9052 63.5462L32.0094 63.2715L31.6306 62.7659L31.7375 61.7176L31.5258 62.595L31.2803 62.4449L31.307 62.0813C31.5205 61.9023 31.4714 61.4937 31.635 61.152L31.6359 60.6163C31.4377 60.2954 31.3535 59.9017 31.0496 59.9317C30.8199 59.9686 30.5626 60.5874 30.5297 61.033C30.4704 61.8365 30.8405 63.0556 30.4885 63.709C30.5065 64.6845 30.6761 65.3322 31.072 65.316C31.2649 64.9743 31.2959 64.2378 31.5231 63.993V63.993ZM29.7768 30.3087C29.5624 29.698 29.157 30.0178 29.1543 30.6135C29.15 31.5267 29.8981 31.8695 29.7768 30.3087ZM31.6727 73.6084C31.9688 73.2009 31.9508 72.1145 31.7124 71.5419C31.3018 71.2579 30.8931 71.6608 30.8818 72.3674C30.8716 72.9169 31.276 73.7654 31.6727 73.6084ZM32.0972 28.2481C32.1608 27.9664 32.3236 27.8613 32.5101 27.8394L32.6859 26.9551C32.6437 25.8237 31.9199 25.4589 31.7537 26.5302L32.0972 28.2481ZM18.5231 55.7965L18.6282 55.4836L18.2476 55.5286L18.6634 55.4017L18.4577 54.3904C18.1968 53.9517 17.6435 54.1087 17.3198 53.8028L17.3516 54.4215L17.2793 55.6418C17.3938 57.0837 18.5135 57.1876 18.5231 55.7965V55.7965ZM33.3435 68.2702C33.55 67.8604 33.4458 66.893 33.1747 66.5513C33.0078 66.4924 32.7934 66.751 32.7591 66.893L32.6911 67.035C32.3501 67.9355 32.9543 69.0137 33.3435 68.2702V68.2702ZM27.1782 61.4937L27.3839 62.3641C27.6439 62.4449 27.8152 62.3052 27.9373 62.0455L27.7988 61.4937L27.9383 61.13C27.7119 60.1845 27.1576 60.5274 27.1782 61.4937ZM28.0087 5.30468C28.2129 5.40743 28.3195 5.03572 28.4246 4.72402L27.7678 4.35227C27.7513 4.65704 27.8048 5.19154 28.0087 5.30468ZM25.271 78.8011L25.0273 79.0908L25.1676 78.3993C25.0248 77.9456 24.7958 78.1754 24.4783 78.1153L24.2337 79.1428C24.2699 80.4588 25.5507 80.8248 25.271 78.8011ZM24.3413 77.0833C24.4902 76.7404 24.666 76.4587 24.8284 76.1608L24.899 75.2973L24.6607 74.2121L24.3845 73.6384C23.9145 73.4386 23.7062 73.8485 23.4867 74.2271L23.1018 75.9531L23.5488 76.1608L23.9282 77.0452L24.3413 77.0833ZM23.2259 81.4932C23.2275 81.798 23.3661 82.0438 23.5694 82.0808C24.028 81.4101 23.2199 80.4588 23.2259 81.4932ZM24.9387 57.4115L24.8165 57.4623L24.8759 56.7119L24.8078 56.481C24.208 55.9904 24.1797 58.0569 24.6891 57.7902L24.6186 59.2102L24.769 58.9204L24.7908 59.2252L24.7571 60.0956H24.6701C24.6779 60.8691 24.585 59.2841 24.6003 60.7214L24.8939 60.0956L24.8587 59.8417L24.8974 59.7828L24.9378 60.0218C25.1591 60.2804 25.3466 60.5874 25.5214 60.928C25.9423 60.6163 26.2375 59.9917 26.5267 59.3753L26.7004 59.3879L26.6652 59.1513L26.4233 58.9493L26.4947 58.6087L26.3649 57.7233L26.34 57.4115H26.3038C26.2125 57.0236 26.0869 56.712 25.8432 56.6819C25.5731 56.6219 25.3198 56.8978 25.1323 57.3515L24.9387 57.4115ZM28.5778 54.2715C28.7739 54.5093 28.922 54.4955 29.0596 54.7183C29.3085 54.6363 29.5038 54.3615 29.546 53.7889L29.2722 52.3597C29.0012 52.1531 28.8497 52.5179 28.6157 52.5975L28.5778 54.2715ZM16.8215 96.5159L16.6828 96.8068H16.6139L16.5788 97.1047C16.7448 96.8969 16.9583 97.5064 17.0969 96.8068L16.8215 96.5159ZM36.8844 78.6163L36.8739 78.7791L36.8515 78.704L36.8844 78.6163ZM36.5203 78.9419L36.4961 79.3667C36.695 79.4187 36.8085 79.2617 36.9256 79.0677L36.924 78.5413L36.9558 78.4813L36.9188 77.4699C36.7277 77.0012 36.64 77.3649 36.5822 77.9756L36.6011 78.3623L36.5203 78.9419ZM53.0889 72.1457L53.3805 71.8467H53.5018L53.5883 72.7541C53.4226 72.4632 53.229 72.5382 53.0889 72.1457V72.1457ZM51.7307 71.5419L51.7348 71.3849L51.7951 71.1621L51.814 71.2579H52.2108L51.7307 71.5419ZM51.573 82.0577L51.66 81.4713L51.814 81.1653L51.573 82.0577ZM52.0792 98.6598L52.0886 98.9276L52.0275 98.8964L52.0792 98.6598ZM51.1428 82.3856L51.0911 82.5195L51.0419 82.4006L51.0403 82.3856L51.3501 81.7761L51.1428 82.3856ZM51.0016 82.3337L50.8078 82.2967L50.7837 82.4237L51.024 82.0577L51.0016 82.3337ZM50.8863 93.7268L50.8932 93.5202H50.955L51.005 93.616L50.8863 93.7268ZM50.6856 94.1736L50.5789 94.0697L50.5902 93.8838L50.4739 93.5202L50.5926 93.5052L50.8776 93.5202L50.6856 94.1736ZM50.3346 82.6765L50.3707 82.5045L50.5728 82.2586L50.6004 82.2366L50.7131 82.3856L50.3346 82.6765ZM50.1787 72.7541L49.9567 72.4274L49.6821 71.8467C49.8954 71.1321 50.1787 72.0707 50.3346 72.1457L50.1787 72.7541ZM50.3689 72.1457C50.4662 71.8098 50.64 71.8698 50.8673 71.8467L50.5247 72.7541L50.3861 72.4274L50.3689 72.1457ZM49.5418 72.1457L49.3697 71.8467L49.4926 71.5419H49.6641L49.5418 72.1457ZM49.0787 71.5419L48.9917 71.8467L48.9746 71.5419L48.8541 71.8467L48.769 71.2579C48.9169 71.4461 49.0322 71.0801 49.2164 71.2579L49.3354 71.8467L49.0787 71.5419ZM48.6304 71.8467H48.4925L48.2852 72.1457H48.0795C48.0038 71.9067 47.9548 72.9769 47.9417 71.5419C48.3307 71.565 48.4953 71.3849 48.7516 71.2579L48.6304 71.8467ZM48.583 93.1623L48.4443 92.7536L48.4788 92.6359L48.545 92.5678L48.7027 92.6717L48.583 93.1623ZM47.5106 72.4274H47.4081C47.1645 72.8961 46.7625 72.6352 46.3581 72.7541H46.1515C46.309 71.3849 46.6232 72.791 46.8056 71.8467C47.0612 72.1734 47.3212 71.9286 47.5966 71.8467L47.5106 72.4274ZM45.9785 73.3428H45.8771L45.8254 73.6684L45.4803 73.9593C45.4672 72.1145 45.6505 73.7296 45.6867 72.7541L45.7565 73.0369L45.8254 72.7541H46.1007L45.9785 73.3428ZM44.9293 74.555L45.0327 73.6684H45.462C45.3071 74.4731 45.1256 73.9882 44.9293 74.555ZM44.8087 74.8598L44.6883 74.555L44.9121 73.9593L44.8087 74.8598ZM44.258 75.1564C44.0926 75.2465 43.8922 75.0306 43.7768 75.1564L43.2614 74.8598L43.2097 73.9593C43.4101 74.2272 43.6606 74.413 43.8456 74.555L43.8793 74.2479L43.8964 74.555L43.9326 74.2479C44.0093 74.6139 44.2072 74.555 44.3965 74.555L44.258 75.1564ZM43.1743 47.7858L43.1046 47.481V48.6632L43.053 47.1694H43.1399V45.6743H43.0365L43.041 45.3546L43.1072 45.2726L43.2312 44.7069L43.2251 45.3765L43.2614 44.7901L43.3646 44.7069H43.3845V44.6261L43.4145 44.4703L43.5349 45.0867L43.6392 44.7901V43.5848L44.0281 43.4948L44.0203 43.5248L44.1917 44.2174C44.072 44.1193 43.931 44.0835 43.7639 44.0835C43.6596 44.5892 43.6607 45.4354 43.8379 45.8302L43.8319 46.0242L43.6047 46.2839L43.5857 45.6743L43.553 46.5968L43.4832 46.2839L43.3981 45.0867L43.3465 45.9872H43.2251L43.2097 45.0867L43.1554 46.5968C43.1966 47.9798 43.3895 46.2019 43.3981 48.0906L43.4316 46.8865L43.5187 47.7858L43.6546 47.1694L43.8122 48.3965C43.6322 48.7763 43.4429 48.3076 43.2422 48.6632L43.1743 47.7858ZM42.8808 74.2479L42.9264 73.9074H42.9376L43.0022 73.9593L43.1046 74.555L42.8808 74.2479ZM42.7087 74.555L42.5039 74.8598H42.3998L42.3463 73.9593C42.5847 74.1891 42.669 74.1891 42.8646 73.9593L42.7087 74.555ZM42.1405 74.2479L42.3307 73.9593L42.1405 74.2479ZM41.4874 48.0906C41.495 46.307 41.4416 47.1694 41.4177 46.2839C41.403 44.8709 41.4625 46.6868 41.4703 45.6743L41.1956 44.7901L41.3315 44.1643C41.533 44.1643 41.6742 44.6031 41.8307 44.7901L41.8669 44.9898L41.8703 45.1318L41.8076 46.5298C41.9332 46.8126 42.0312 47.4222 42.1991 47.4222L42.435 47.0504L42.4358 46.7526L42.5391 46.6267L42.8463 47.1694L43.0365 47.481L42.8808 47.7858H42.59L42.2621 48.6632L42.0898 48.3965C41.9048 48.4923 41.7025 48.6043 41.4874 48.0906V48.0906ZM41.2929 50.3533L41.4357 50.4861L41.4169 50.635L41.2929 50.3533ZM41.1956 50.1743L41.2816 50.314L41.1956 50.2702V50.1743ZM41.9676 74.555L41.8307 73.9593L41.762 74.2479L41.2989 73.6684L41.1604 73.9593L41.0046 73.3428C41.2815 73.015 41.7025 73.2678 42.0726 73.9593L41.9676 74.555ZM42.8317 45.2495L42.8463 45.2726H42.8222L42.8317 45.2495ZM40.4029 73.9593L40.5588 73.6684L40.7473 73.3428L40.9021 73.9593C40.7316 73.7654 40.5423 74.0932 40.4029 73.9593ZM40.711 82.7285L40.6636 82.6765L40.6954 82.3856L40.711 82.6765V82.7285ZM40.5062 82.7054H40.5002L40.3839 83.2861L40.2997 82.6765H40.5071L40.5062 82.7054ZM40.0464 73.6084L40.1274 73.3428H40.3677L40.2997 74.2479L40.1068 73.9882L40.0464 73.6084ZM39.8864 83.5908L39.9217 84.788H39.8168L39.8684 83.8817L39.7823 83.2861V84.788L39.7306 83.5908V84.4751C39.6436 84.6922 39.4449 85.7184 39.4388 83.8817H39.1626L39.1953 84.6021L39.1471 85.0858H39.1127L39.0594 83.8817V85.3756L39.0077 84.788C38.8665 85.5684 38.6376 84.3274 38.4225 85.0858L38.4578 83.5908L38.3715 83.8817L38.4086 84.6321C38.3294 84.2015 38.1822 83.9175 37.9964 83.7686L37.993 83.5908L37.9887 83.7547L37.7192 83.6497L37.7174 83.5908H37.8905L37.8046 82.6765L37.7348 83.2861L37.6994 82.0577L37.666 81.1653L37.7854 82.3856L37.8545 81.1653L37.8905 82.0577L37.9078 81.1653V82.3856L37.9586 80.8917L37.9756 81.7761L38.1978 80.8917V81.7761L38.2691 80.8917L38.2168 80.5639L38.3372 79.6634L38.3191 80.8917L38.3897 80.273V78.7791L38.4404 79.3667H38.82C39.0042 79.3667 39.191 78.7422 39.4036 79.0677L39.4896 79.6634L39.5079 78.7791H39.7135C39.7479 79.4337 39.8846 77.8706 39.9029 79.3667L39.6273 79.6634C39.6413 79.9532 39.7548 79.6634 39.7479 81.1653L39.9029 81.4713C39.7281 82.7284 39.5361 81.0464 39.2839 82.0577L39.3708 82.9663L39.4562 82.6765L39.4733 82.0577L39.4896 82.9663L39.5233 82.0577L39.5422 82.6765C39.7203 82.3856 39.902 82.9293 40.0578 82.9663L39.8864 83.5908ZM38.407 85.0858L38.3527 84.9519L38.407 84.6921V85.0858ZM37.9756 91.0727H37.752L37.9078 90.4921L38.0111 90.7899L38.0532 90.6121L38.1298 90.4921L37.9756 91.0727ZM37.5971 91.3995C37.5117 91.0728 37.3044 91.5415 37.097 91.3995L37.0117 90.7899C37.214 90.85 37.6332 90.835 37.7174 90.4921L37.5971 91.3995ZM37.0607 85.2497L37.0083 85.2128L37.0607 85.2497ZM36.7888 91.7042L36.7087 91.8231L36.7398 91.3556L36.9936 91.0727L36.7888 91.7042ZM36.7707 82.6765L36.7716 82.8092L36.7432 82.7654L36.7707 82.6765ZM36.9256 82.3856L36.9609 82.0577L36.9936 81.4713C36.9868 82.9663 36.9996 82.4444 37.0625 82.3856L37.0856 83.7686L37.0607 83.5619L36.8034 82.8243L36.9256 82.3856ZM37.1495 82.0577C37.1373 83.226 37.2527 81.5313 37.2183 83.5908L37.2355 81.7761L37.3044 83.2861L37.2527 84.4751L37.1322 84.1865L37.1252 84.2223L37.0978 83.8587L37.1495 82.0577ZM37.5281 82.0577H37.5788L37.5445 83.8436L37.4851 84.0007L37.5281 82.0577ZM38.963 74.0344L38.9905 73.9593L39.0429 73.3428L39.0911 73.5414L39.1971 74.555H39.1806L39.1642 75.1865L38.963 74.0344ZM39.2445 74.7409L39.2075 74.592L39.2445 74.7409ZM39.2676 74.8136L39.2953 74.9036L39.3003 75.4532L39.2152 75.1564L39.2676 74.8136ZM39.7255 73.7885L39.7427 73.8323L39.7187 73.8023L39.7255 73.7885ZM39.9381 73.3428H40.0241L40.0191 73.5206L39.9965 73.4618L39.858 73.8485L39.9381 73.3428ZM36.4789 92.293H36.3568L36.2929 92.308L36.3508 92.1429L36.5219 92.0702L36.4789 92.293ZM36.1174 92.5678H35.7036L35.8068 92.293L35.9453 91.9882L36.0141 91.7042L36.0546 92.5678L36.1201 92.5447L36.1174 92.5678ZM35.5313 92.5678L35.342 93.1923H35.0157C35.0468 91.7642 35.1258 92.9984 35.1889 92.293L35.669 91.9882L35.5313 92.5678ZM34.878 93.1923H34.7567L34.6878 93.5052L34.5672 93.1923L34.5837 92.8956L34.9805 92.5678L34.878 93.1923ZM34.1197 93.1923L34.1534 92.5678L34.2928 92.8956L34.4821 93.1923H34.1197ZM34.8601 90.7899L34.7567 90.2104L35.0157 89.5997L34.9287 90.4921L35.0837 90.7899C35.1404 90.723 35.3342 89.7636 35.342 91.3995C35.1404 91.3995 34.853 92.6359 34.6878 91.3995L34.8601 90.7899ZM33.8788 92.8956H33.7403L33.6378 92.293C33.8246 92.4777 33.8685 92.39 34.0681 92.5678L33.8788 92.8956ZM33.2935 92.5678L33.2238 92.293H33.6197L33.2935 92.5678ZM33.087 92.293H32.932L32.8639 91.9882L32.6394 92.293C32.5783 91.6015 32.5078 92.8506 32.4844 91.3995C32.7289 91.7192 32.9562 91.3775 33.2082 91.9882L33.087 92.293ZM32.159 92.293L32.1229 93.1923L32.0704 93.5052C31.944 92.1429 31.8011 94.3975 31.6073 93.1923L31.5025 93.8019L31.2622 94.1066L31.2105 93.5052L30.98 94.2325L30.6907 92.9984L30.5892 92.8344L30.64 92.6948L30.8826 92.5678L31.1935 92.293L31.2959 92.5678L31.8304 91.7042L32.159 91.3995L32.468 91.9882L32.159 92.293ZM30.4187 94.6873L30.3749 94.5164L30.4301 94.6584L30.4187 94.6873ZM30.2468 94.6873L30.1416 94.0697L30.239 94.1736L30.3638 94.4933L30.2468 94.6873ZM30.0409 94.6873L29.8498 94.999L29.7147 94.6873H29.5589L29.3861 94.999H29.2482C29.2636 93.6079 29.2044 95.4319 29.1966 94.3976L29.0596 94.999L28.9048 94.3976L28.7491 94.999L28.6629 94.6873L28.5966 95.0521L28.5476 94.5384L28.3401 94.6792C28.4778 94.2036 28.378 93.4012 28.7575 93.4012C28.6285 92.7536 28.89 92.084 29.1751 92.0702L29.5537 92.3369C29.8807 92.4489 29.9221 92.166 30.1072 92.0841L30.121 92.1071L30.0565 92.293L30.2441 92.4858C30.0589 92.8725 29.8713 93.2373 29.9653 93.773L30.1184 94.0477L30.0409 94.6873ZM28.5778 95.3061H28.576L28.5881 95.1791L28.5778 95.3061ZM38.8355 67.9354L38.7598 67.6595H38.8596L38.8355 67.9354ZM39.1626 54.6952V53.4899L39.1806 54.0937H39.3537L39.1626 54.6952ZM35.669 55.9154L35.6519 55.0611L35.6579 55.0461L35.6835 55.105L35.669 55.9154ZM40.6439 48.0906L40.6251 47.1694C40.4434 47.4222 40.4295 47.0793 40.2997 47.7858L40.2677 47.623L40.3047 46.9985C40.5053 46.8496 40.3659 46.3878 40.5132 46.083L40.3779 45.8452L40.6517 45.7182L40.723 44.9609L40.4528 44.7069L40.4787 43.6806L40.4469 43.6587L40.489 43.2708H40.3521L40.2489 43.7638L40.2152 44.0454L39.8684 43.6136L39.8864 43.5848L39.6482 43.2939H39.6436L39.6739 43.2038L39.5956 43.0561L39.6566 42.5805L39.593 42.3646C39.8968 42.2826 40.1388 42.1198 40.4356 42.3646L40.6251 43.8826L40.7299 43.5848C40.7472 44.8708 40.9227 43.392 40.9194 45.0867C40.822 45.5023 40.6758 45.0129 40.6791 47.1694H40.9529C40.9141 48.6043 40.7093 47.1382 40.6439 48.0906V48.0906ZM59.1639 100.421L59.4053 99.499C59.7351 99.0153 59.9692 96.9339 60.2519 95.6317L60.3565 95.7436H60.3579L60.7849 95.7655L60.7908 95.096L60.6774 94.7381L60.5876 93.7141L60.5552 93.7869L60.592 92.8956L60.7142 92.293C60.7407 89.5558 60.8541 88.3425 60.938 86.5877C61.0013 83.3888 61.0323 79.6115 61.0411 75.4532L61.0926 73.0369C61.0941 69.898 61.0911 68.5288 61.1279 66.1195C61.1382 63.0556 61.0926 60.9129 61.0926 58.013C61.047 56.6969 61.0219 55.023 60.9896 53.4899L60.8173 50.7909C60.6038 49.222 60.3756 47.884 60.1459 46.5968C59.9678 46.4698 59.8102 45.1537 59.6821 45.0867C59.4598 45.0279 59.2964 44.79 59.0785 44.1643L59.0093 44.4703C58.7737 43.9185 58.6309 43.4947 58.3718 43.5848C58.0714 42.5285 57.7534 41.8139 57.4104 41.4422C57.2484 40.2012 56.9142 41.4052 56.686 40.5417C56.5152 41.0935 56.3385 39.8213 56.1869 40.5417L55.7908 39.6562L55.4301 38.4521C55.0723 38.4383 54.7072 37.0922 54.3612 37.8576C53.9122 36.6004 53.5102 37.4916 53.0534 36.6604C52.7624 36.7043 52.4562 36.5554 52.2108 36.6604C51.3966 35.3502 50.7485 38.1185 49.9394 37.24C49.8008 37.4916 49.6192 37.1511 49.4048 37.24C49.1217 36.4965 48.7972 37.21 48.5262 37.24L48.3739 36.9421L48.2328 37.24L48.1672 36.9421L48.0974 37.24C47.7971 37.3289 47.4863 37.5667 47.236 37.8576C46.797 37.8738 46.5327 37.9326 46.1007 38.4521H45.8254L45.5319 38.7639C44.9396 39.3157 44.3276 39.9552 43.7768 39.6562L43.7044 39.8952L43.6873 39.8733L43.621 39.6562L43.5857 39.6794L43.0479 37.8346L43.0289 37.21L43.0711 36.5335L42.8939 35.7369C42.5683 35.8119 42.3998 36.5266 42.1277 36.8082L41.9701 36.2587L41.8901 37.0022L41.7309 37.9927L41.4124 39.3307L41.4169 39.7163C41.2533 39.6562 41.0959 39.5685 40.9881 39.3515C40.6334 39.6874 40.2652 38.4983 39.8347 39.3515L39.5765 41.1524L39.4956 41.3752L39.469 41.3313L39.6628 40.4459L39.6644 39.8952L39.7212 39.6124L39.747 37.9326L39.71 37.1511C39.55 36.7643 39.5741 37.5667 39.4914 37.7306C39.0919 37.27 38.901 38.0365 38.6454 38.5653L38.4655 39.5304L38.6781 40.6398L38.7367 40.8615C38.4706 41.0704 38.2408 41.3752 37.9664 41.5761L37.7261 41.2563L37.5911 41.0704L37.4627 41.4802L37.2407 42.0817L37.0426 42.7652L37.0728 43.0122C36.9032 43.3539 36.6846 43.6137 36.6158 44.1193L36.6804 45.4354L36.6089 47.0504L36.8431 48.3965L36.83 49.8834L37.1021 50.2933L37.3794 49.3489L37.4302 49.9735C37.2183 50.2413 37.1829 50.8358 37.3224 51.3484C37.5445 51.6462 37.7174 52.272 38.0111 52.272C38.1728 52.2489 38.2417 51.906 38.4259 51.921L38.4267 51.6174C38.5997 51.6913 38.6342 51.4235 38.7038 51.2746L38.5671 51.1037L38.7752 50.8947L38.7736 51.2746C38.8898 50.9178 38.8811 50.2494 39.1212 50.1743L39.432 50.3533L39.6049 50.2032C39.5956 49.7645 39.6988 49.5868 39.8864 49.6099L39.9381 49.8834L40.0026 49.6375L40.0905 49.6687V49.6375L40.2137 50.1743L40.3169 49.5868H40.5226L40.8677 50.1743L40.9364 49.5868L41.0398 50.1743L41.0561 50.2933H41.0218L40.8865 50.8947L40.8505 50.7909L40.7816 51.3796C40.6636 50.8139 40.5441 51.6174 40.3331 51.3796L40.1844 51.6913L39.8924 50.6938C39.6766 50.1743 39.4448 50.9178 39.5354 51.8702L39.586 52.0919L39.5079 52.5975L39.4896 52.0111L39.3864 52.9046H38.8537L38.6289 53.2013L38.6806 53.4899L38.7667 54.0937L38.82 53.4899L38.9061 53.7889L38.974 54.3904H38.8537L38.6806 55.0091L38.3715 54.6952C38.3587 56.421 38.45 54.7552 38.4568 55.7376L38.2296 55.4017L38.1832 55.4617L38.2168 54.0937L38.0111 53.7889L37.993 54.6952L37.9225 53.4899L37.9078 54.3904L37.8389 53.4899L37.7854 54.3904L37.6323 54.0937V52.9046L37.5463 53.2013L37.5281 54.0937H37.4421L37.4774 52.9046L37.3732 53.4899L37.3396 51.6913C37.357 53.0974 37.2785 52.5537 37.2691 52.0111L37.2527 52.9046C36.905 52.6137 36.7888 52.8215 36.4609 53.4899L35.997 54.0937V55.3059L35.9092 55.6025L35.8764 54.6952L35.8585 55.6025L35.7723 55.0091L35.7137 55.1419L35.7551 55.0611L35.737 54.8441L35.5985 54.6594L35.6397 54.2715C35.5606 53.3191 35.5253 52.4786 35.2715 52.3909L34.8789 53.0385L34.7207 52.4948V52.4786H34.7067L34.6655 52.4347L34.6818 52.2489L34.6173 52.272L34.6965 51.8933C34.5371 51.8471 34.7377 51.4235 34.5949 51.2746L34.5251 51.3277L34.3367 50.9548L34.3306 50.9178L34.1576 51.0079L33.9726 51.1187L33.9349 52.6587L34.2102 52.9924L34.4107 52.9173L34.6388 53.565L34.7067 52.9785L34.8136 53.3791L34.7523 55.7965L34.8583 56.0724L34.618 56.2202L34.6111 56.54C34.3608 56.2202 34.0671 55.9673 33.9632 55.3428C33.5826 54.8152 33.1765 55.5287 33.3383 56.518L33.7161 57.4623L33.7255 57.5293L33.76 58.8973L33.9202 58.6445L34.0209 59.9687L34.5371 59.7089L34.366 59.635L34.6096 59.336C34.5631 58.5787 34.9685 58.237 35.1665 57.7902C34.9813 57.6332 35.1336 57.3654 35.2017 57.1715L34.9246 57.1357L34.7662 56.8078H34.7747L34.8429 56.518H35.0184L35.0837 56.6819L35.1619 56.518C35.3798 56.4591 35.5865 56.346 35.7723 56.2202L35.7896 55.3059L35.8068 56.2202L36.0469 55.9154L36.1174 56.2202L36.169 54.6952L36.2036 55.6025V54.3904L36.2544 55.9154H36.3403L36.41 54.3904L36.4256 55.0091L36.3757 55.9154L36.5133 55.6025L36.4789 54.6952L36.4961 54.3904L36.5479 55.6025L36.5643 54.6952L36.6158 55.9154H36.7362L36.7707 54.0937V55.3059L36.8739 55.6025L36.9609 54.6952L36.9764 53.7889L37.097 53.4899V55.0091L37.1666 54.0937L37.1495 55.0091H37.2355L37.2012 53.7889H37.2691L37.2527 55.3059L37.4421 54.6952C37.7021 55.4617 37.7012 55.1419 37.9412 55.0091L38.0111 55.6025L38.0619 54.6952L38.0781 55.6025L38.0971 55.0091L38.1419 55.5286L37.9326 56.54L37.9507 57.3515L37.8207 57.4115H37.6134L37.4774 58.013L37.7691 58.3039L37.9602 57.5074L37.9069 59.2102C37.9147 60.1995 38.0117 60.8322 38.2365 60.7802L38.4948 59.4341L38.6504 59.8417L38.7907 59.1663L38.7116 59.0162L38.7727 58.7045L38.5557 58.2058L38.6179 57.1357L38.4981 58.0569L38.3019 57.7902L38.4825 56.5988L38.4026 57.0398L38.3623 57.5893L38.5619 56.5988V56.2871L38.5781 56.2202H38.5619V56.0724L38.5093 55.8865V55.6025L38.888 55.9154L38.8708 56.8078H38.9388H39.1979L39.3537 57.4115L39.0774 58.3039H39.3003L39.4216 59.2102L39.6273 59.8417H39.4388L39.3864 61.0111H39.2152C39.2262 62.625 39.123 62.2002 39.0774 62.8247L39.1024 62.9667L39.1239 63.3754L39.129 64.0219L38.9209 64.6245L38.888 63.7402L38.82 64.3209L38.6489 64.9305H38.6127L38.5781 64.0219C38.6152 66.0826 38.4026 63.7771 38.4404 65.8378C38.4447 66.833 38.5008 64.5506 38.4921 66.1195L38.8692 66.0826C38.6806 66.0156 38.4802 66.1195 38.3916 66.4393L38.4363 66.908L38.1497 67.5406L38.0781 67.3178L38.0111 67.9354L37.9586 67.6157L37.9225 69.1326L37.5971 69.4443L37.6323 70.025H37.5281L37.4937 69.1326L37.3215 69.7421L37.4421 70.025L37.3044 70.3517H37.2183L37.666 70.6414L37.752 69.4443L37.8717 70.025H38.1298H38.2356L38.2691 70.9543C38.5679 71.3191 38.9104 70.9693 39.1979 71.5419L38.974 72.7541L38.9061 72.1457L38.8355 72.7541C38.6859 72.6352 38.4836 72.5971 38.3191 73.0369C38.0687 73.015 37.9138 72.7771 37.7174 73.3428C38.1065 73.5575 38.4689 73.6915 38.8537 73.3428L38.9182 74.0194H38.7925L38.5937 74.8136L38.6205 75.4532H38.5781L38.4578 74.8598L38.5438 74.555H38.3545L38.3715 75.1564H38.2504L38.1822 74.2479L38.1134 75.1564L38.1298 74.2479L38.0445 75.1564C37.6003 75.0306 37.2975 75.4012 36.9256 75.4532L36.8739 74.8598C36.589 75.4243 36.4961 75.2003 36.2714 75.4532L36.2199 76.3536H36.1855L36.151 76.6503L36.2544 77.246H36.0812L35.9272 77.5658V77.8706H36.1004L36.1855 78.1546L36.2544 77.8706H36.3757L36.4609 78.1546L36.5986 77.5658L36.7037 76.6503L36.8568 76.3536C37.0272 76.4125 37.0822 75.8111 37.2183 75.7441C37.3845 76.1608 37.4438 75.4532 37.6134 75.7441L37.7174 76.3536L38.0971 76.0488L38.1298 76.6503L38.1134 75.7441L38.4578 76.0488L38.7667 76.3536L38.9388 76.9643H39.0077L39.0429 77.5658C38.7847 78.1315 38.5534 77.6489 38.2356 77.8706L38.0971 78.4582L38.0445 77.8706L37.9225 78.4582C37.9696 79.3078 38.0884 77.7078 38.0971 79.3667H38.0445H37.9225L37.8717 78.7791V79.6634L37.7854 80.273C37.8165 78.4582 37.709 80.4969 37.6831 79.3667L37.7691 78.7791L37.8545 78.4582H37.666L37.5971 79.6634L37.4421 78.7791L37.3904 79.9532L37.3044 79.0677L37.1322 79.9532L37.1151 79.3667L37.0117 79.9532L36.943 79.6634L36.8739 80.273L36.7362 80.5639L36.5814 80.273L36.5643 81.1653L36.5306 80.273L36.4961 80.8917L36.4256 81.7761H36.5306C36.5306 83.7686 36.386 81.9238 36.3757 83.2861H36.3902L36.3121 84.0745L35.9988 84.0445V83.7317L35.88 83.8817L35.8618 83.9545L35.9409 83.353L35.8842 82.5045L35.5727 81.5313L35.1604 80.9656L34.9839 81.0926L34.9356 84.6321L35.0907 85.3386L35.5217 86.1652L35.5391 86.9675L35.3599 86.8925L35.1182 87.4143H35.0915L35.088 87.4363L34.878 86.8925C34.7067 87.756 34.5873 87.0496 34.3962 87.793L34.3436 86.8925L34.137 87.1765L34.0681 88.0827C33.8022 87.4801 33.4769 87.845 33.2238 87.793L33.1565 88.3887L33.4992 88.9901C33.3003 88.8481 33.1204 88.9312 32.9458 89.0721L32.8081 89.176L32.8046 89.191C32.5808 89.4138 32.3657 89.7636 32.1419 89.8744L31.9844 90.7899C31.5626 91.1109 31.1126 92.5089 30.6073 92.293L30.3749 91.7192C30.5196 91.2217 30.516 90.5152 30.2157 89.8075C30.0565 89.8744 30.0487 89.6378 29.9747 89.5339C29.7724 89.5997 29.5021 89.5997 29.249 89.7636L29.1459 89.46L28.9048 89.5778L29.1467 89.2141L29.2164 88.9232L29.0468 87.9789C28.9168 87.576 28.6604 86.9895 28.2893 87.0495C27.971 87.0934 27.754 87.6949 27.7316 88.4476L27.18 88.3887V88.0827L26.9734 88.2155L26.9398 88.2836L27.0784 87.6949L26.9769 86.8337C26.7762 86.6028 26.6842 86.0821 26.426 85.8373C26.1919 85.6434 25.8338 85.8223 25.7029 85.2266L25.3924 85.3525L25.2374 88.0977L25.1694 88.6935L25.29 88.6334L25.3148 88.8631L25.5894 89.5997C25.8175 89.8675 26.2487 90.0095 26.3468 90.4551L26.2711 92.8956L26.4434 93.2962L27.3348 95.5716L27.291 95.6848L27.1817 95.9145H26.9769L26.9071 95.3061L26.7539 95.6097L26.6851 95.9145H26.6498L26.5284 95.3061L26.426 95.9145L26.3219 95.3061H25.9447L25.9949 94.3976L25.9104 95.3061H25.6161H25.548L25.4793 94.3976L25.5308 95.3061C25.3372 95.1121 25.1935 95.7656 25.0488 94.999L24.9628 95.3061L24.7397 95.6097L24.6186 94.999L24.2561 95.3061C24.0703 95.238 24.0426 95.6097 23.8955 95.3061C23.7037 95.7436 23.5177 95.0521 23.2406 95.9145C22.7853 95.8036 22.0855 96.0334 21.6224 96.2112L21.537 95.9145C21.3342 96.9858 21.1379 95.9295 20.9175 95.9145L20.7109 96.2112L20.5903 95.9145L20.3676 96.2112L20.2797 95.9145L20.0568 95.6097L19.9182 96.2112L19.7985 95.9145L19.7298 96.2112H19.506H19.2486L19.1273 95.9145C18.7407 96.0934 18.3622 96.457 18.1289 96.5159L18.0075 95.9145L17.9739 96.5159H17.8707L17.7844 96.8068C18.115 97.6253 18.5025 96.2112 19.0231 97.1047L19.1618 96.5159L19.5412 96.8068C19.7211 96.8357 19.7977 96.8969 19.9708 96.8068L20.0216 97.6992L20.1953 97.1047L20.2797 97.6992L20.315 96.8068L20.4184 97.1047H20.4879L20.4363 96.8068L20.5381 97.6992H20.7626L20.7969 96.8068L21.0035 97.1047L21.0379 97.6992L21.1937 97.1047L21.2962 97.6992H21.3299L21.383 97.1047C21.415 98.5997 21.3848 96.8669 21.4331 97.1047L21.4684 97.6992C21.7008 97.5064 21.8626 97.7662 22.0192 97.6992L22.1743 97.4245L22.4315 97.6992H22.502L22.5185 96.8068L22.6217 97.6992C22.8799 97.0608 23.2275 97.6623 23.4126 97.1047C23.6856 97.5064 24.1142 97.2236 24.3438 97.1047L24.3776 97.4245L24.4292 97.1047C24.5927 97.1867 24.7459 97.4834 24.912 97.4245C25.388 97.2017 26.3089 97.4083 26.8908 97.6992L26.9769 97.4245C27.489 97.7881 28.1156 97.2386 28.6629 96.8068L28.8179 96.8738L28.6767 97.989L28.8816 98.8814C29.0967 98.9564 29.2275 99.2243 29.5021 99.1654C29.7242 98.8445 29.9386 98.355 29.9196 97.6623L29.7147 96.8738L29.5985 96.7179L29.8498 96.8068C30.1157 96.5159 30.4463 96.4571 30.7468 96.2112C31.1306 95.9145 31.4302 95.2669 31.7622 94.999C31.9286 94.8801 32.0885 95.081 32.2426 94.999L32.5362 94.6873C33.1652 94.8593 33.9038 96.2342 34.618 96.8068L34.705 96.5159L34.8429 96.8068C35.6208 96.6429 36.3601 95.4377 37.1133 94.6123L37.3087 94.7173L37.4293 94.3075C37.5925 94.1528 37.7543 94.0258 37.9207 93.9439L37.9371 94.5522L38.1497 95.3419C38.393 95.6097 38.6134 94.8593 38.5987 93.9069L38.9905 94.1066L39.1127 94.999C39.3296 94.7173 39.5389 94.4564 39.6644 94.3976L39.8347 94.6873C40.018 94.5984 40.2247 94.4345 40.4546 94.1066C40.7668 94.3537 41.2386 93.9877 41.6405 94.3976C41.8739 94.8593 42.1242 95.081 42.4504 94.999L42.5365 94.6873H42.8646C43.0289 93.9208 43.1614 94.8051 43.312 94.6873L43.4316 96.2112L43.8208 96.0715L43.9438 96.3174L43.9645 96.5159L44.0627 96.3901L44.2114 96.4363L44.4594 95.9145C44.6798 95.6316 44.8993 95.3061 45.1014 94.6873C45.2116 94.8801 45.4767 94.8132 45.6514 94.3976H45.8425C46.235 93.5052 46.6506 93.2812 47.0733 93.1923L47.0604 93.9069L47.6104 95.365L48.058 95.3061C48.3868 95.1629 48.7379 94.2036 48.6853 93.4012L48.8152 92.7317C49.0116 92.8344 49.2061 92.9626 49.4032 93.1184L49.4162 93.1923L49.3549 93.3481L49.3757 93.4232L48.9944 94.9401L48.9746 95.4839L48.8747 96.5321L49.0795 98.3088L49.0761 98.3688L48.997 98.3908L48.9755 98.6598L49.2173 98.9484L49.3757 99.499L49.4755 99.5371L49.8853 99.9596C50.1435 99.9677 50.2165 99.2693 50.3982 98.9564L50.4462 99.1654L50.4275 99.402C50.2501 99.8119 50.0823 100.259 50.0488 100.378L50.0125 100.92L49.837 101.975C49.9567 103.219 50.3018 104.23 50.7286 104.988L50.9009 105.011C51.0756 105.457 51.3847 105.762 51.6255 105.471C52.0284 105.517 52.1729 104.945 52.426 104.617L52.4932 105.791L52.6653 106.378C52.8434 106.423 52.9811 106.706 53.1352 106.721L53.5117 106.304L53.7193 105.271L53.8179 105.167L53.8989 104.766L54.1006 104.387C54.295 103.709 54.1345 102.697 53.9814 102.236L54.0064 101.515L53.6957 101.069L53.5927 101.552L53.6692 101.797L53.4313 102.013L53.2548 102.095L53.291 102.378L53.2127 102.355L53.0897 102.891L52.8511 103.144L52.7083 103.642L52.6386 103.731C52.7066 103.025 52.9605 102.764 53.1877 102.415L53.1533 101.797L52.8768 102.095C52.8177 101.433 53.0413 100.436 52.8124 99.7668L52.8495 99.469C52.5507 99.2243 52.6463 98.6597 52.4363 98.5027L52.4019 98.9564L52.1919 99.0754L52.2314 98.3908H52.0818L52.0516 97.7512L52.1006 96.6579L51.9525 95.6097L51.6454 94.5384L51.7133 93.616L51.5412 93.1923C51.6943 93.3781 52.0481 93.683 52.2625 93.5052C52.4415 94.4934 52.6006 93.848 52.7789 93.8019L52.8649 94.1066H53.3185L53.5264 94.3075L53.5721 94.3976L53.8268 94.6873C53.6059 94.8131 53.578 95.4608 53.7797 95.8556L53.893 96.4571L53.8327 96.5321L53.9122 96.681L53.8489 96.9858L54.3038 96.681C54.1772 96.5321 54.0506 95.7436 54.214 95.5866L54.1021 95.1629C54.2758 95.4839 54.4437 95.7286 54.6042 95.6097L55.0679 96.5159L55.2402 96.5829L55.2299 96.7179C55.3447 97.6403 55.4964 98.6597 55.9013 98.5616L56.259 98.0721L56.4313 97.7512L56.7051 97.6992C56.8318 98.2349 56.9363 97.989 57.135 98.004L57.5635 99.2023L57.7696 98.9276L57.9595 99.8269C58.3232 99.9389 58.7296 100.824 59.027 100.118L59.1639 100.421ZM39.2496 81.7761L39.0266 82.0577L39.0594 83.2861H39.1806L39.2669 82.6765V82.0577L39.2496 81.7761ZM16.2878 84.1865L16.1319 84.4751L16.0623 83.8817L15.7543 84.4751L15.582 84.1865L15.3067 85.3756L15.2042 85.6804L15.2541 85.9713L15.4778 85.6804L15.564 84.788L15.9418 84.4751H16.2706L16.4264 84.788L16.2878 84.1865ZM17.2509 96.5159L17.4059 97.1047L17.578 96.8068L17.2509 96.5159ZM35.7379 65.2421L35.997 65.8378L36.0141 65.2421L36.1855 64.9305L36.2387 65.2421L36.3568 64.3209L36.1004 64.0219L36.1338 62.8247C35.9677 62.6469 35.8851 63.7633 35.7561 63.1156C35.7396 64.8115 35.9032 63.3385 35.8928 64.9305L35.7379 65.2421ZM24.171 81.1653L24.566 80.5639C24.3973 80.7567 24.2838 80.1771 24.171 81.1653ZM24.2561 44.7901C24.7992 45.5416 25.2899 44.8708 25.7882 44.1643L25.3416 44.4703L25.2383 43.8826H24.7397C24.5428 44.648 24.3973 43.8226 24.2561 44.7901V44.7901ZM25.1159 45.9872H24.7046L24.5504 46.5968L24.9448 47.481L25.2554 46.5968L25.1159 45.9872ZM23.2406 59.8417L23.3954 59.2102L23.5341 57.7083C23.3154 57.5894 23.126 57.9172 22.9668 58.013L22.8808 59.2102H22.5702L22.4659 59.8417C22.6606 59.8497 22.9917 59.7828 23.2406 59.8417ZM37.2183 67.6157C37.2106 69.0726 37.2122 67.2716 37.1666 67.6157L37.1495 68.224L37.1322 68.5288C37.1966 68.343 37.3147 69.1014 37.3044 67.6157H37.2183ZM37.7691 55.9154L37.5281 55.6025L37.4421 55.9154L37.3904 56.2202C37.5842 56.2583 37.7174 56.3402 37.8717 56.518C37.8708 55.0611 37.833 56.1163 37.7691 55.9154ZM37.5788 67.6157L37.752 67.9354C37.7932 68.1952 37.9147 69.1326 37.9078 67.6157H37.5788ZM34.6715 49.5868L34.8091 50.1743L34.8909 49.5267H34.9091L34.9821 48.3965C34.6404 47.9648 34.4004 48.6632 34.5466 49.2901L34.447 49.5868H34.6715ZM20.2099 42.6693L20.2633 42.9741C20.4708 42.9741 20.5706 42.5285 20.7969 42.6693C21.069 43.1161 21.3953 43.0711 21.7093 43.2708L21.9332 43.8826L22.2594 43.5848H22.5185L22.4496 43.2708H22.2766L22.138 42.6693C22.2903 41.9778 22.5124 42.5504 22.6899 42.3646C22.6966 40.7657 22.5546 41.71 22.484 41.4422C22.2077 41.7539 21.9718 41.0704 21.7093 41.7539C21.2567 41.71 20.6921 41.867 20.2797 42.3646L20.1076 41.7539C19.9269 42.4246 19.6806 41.8958 19.4724 42.0598L19.3854 42.9741C19.7021 42.2595 20.0181 42.9383 20.2099 42.6693V42.6693ZM19.4018 60.0956L19.5412 59.5092C19.414 60.1845 19.2977 58.1539 19.265 59.8417L19.4018 60.0956ZM17.6976 84.1865L17.8009 83.5908H17.6288L17.6821 84.4751L17.6633 85.0858L17.6976 84.1865ZM19.7117 45.0867L19.8323 44.4703H19.592L19.7117 45.0867ZM17.9403 94.3976L17.9911 93.8019H17.7844L17.9403 94.3976ZM19.8845 67.035L19.9536 66.1195L19.7806 66.7302L19.8845 67.035ZM35.6519 74.8598L35.5459 75.1564L35.3599 74.8598H35.342L35.3772 75.4532L35.6519 74.8598ZM24.325 42.0378L24.2561 41.7539C23.8076 41.2124 23.5108 42.5504 23.8378 43.175C24.0643 43.2581 24.1856 43.093 24.3232 42.9972L24.3447 42.5066C24.5866 42.8402 24.7967 42.9741 25.0834 42.9741C25.0919 41.4052 24.9541 42.4246 24.912 41.7539H24.6875L24.325 42.0378ZM19.6437 95.3061L20.0051 94.999H19.6953L19.6437 95.3061ZM19.9708 81.7761L19.8323 81.1653L19.7806 82.0577L19.9708 81.7761ZM21.8816 95.3061V94.999H21.7953L21.4864 95.3061C21.6294 96.0934 21.7008 94.9551 21.8816 95.3061V95.3061ZM27.5957 46.5968L27.1498 46.8865L27.5957 46.5968ZM24.8415 91.9882H25.2037L25.3234 91.0727C25.2193 91.3117 25.1763 91.2806 24.9971 91.3995L24.8415 91.9882ZM27.0293 44.1643H27.1135C27.0034 43.459 26.8831 44.0166 26.7176 43.8826H26.6851L26.8038 44.4703H26.9595L27.0293 44.1643ZM16.1139 94.3976L16.3738 93.8019L16.1139 94.3976ZM25.2037 93.5052H25.4793L25.6513 93.1923L25.4276 92.5678L25.2037 93.5052ZM21.3651 60.0956L21.4511 60.3935L21.6061 60.7214L21.4168 61.3297L21.537 61.6195L21.8651 59.8417L21.52 59.5092L21.5027 59.8417H21.2962L21.3651 60.0956ZM16.9308 70.5306C16.9359 71.1321 16.9926 71.6239 17.3446 71.6239L17.5874 71.0952L17.7984 69.6902L16.867 68.9756L16.9308 69.928L16.7699 70.3517L16.9308 70.5306ZM20.4363 57.7083L20.5741 58.3039L20.7626 57.7083L20.7575 57.5512L20.7823 57.4843L20.7798 57.7083L21.0379 57.4115L20.8375 57.1357L20.84 57.0837L20.8271 57.1206L20.8143 57.1056L20.7859 57.2465L20.7496 57.3515L20.6843 57.1357L20.6438 57.0606L20.6852 56.6219L20.5646 57.4473L20.5827 57.5893L20.63 57.6112L20.6241 57.7083H20.4363ZM22.5528 93.1923L22.3462 94.1066C22.5185 94.1528 22.5606 94.4934 22.7078 93.8019L22.8618 93.1923H22.5528ZM30.0917 58.013L30.3853 57.7083L30.0917 58.013ZM31.3329 53.4899L30.9015 54.0937L31.3329 53.4899ZM32.2778 48.3965C32.2176 48.5674 32.0936 47.2294 32.0704 48.6632L32.2778 48.3965ZM31.2105 45.6743L31.1072 45.3765H31.0049L30.9532 45.6743H31.2105ZM26.8736 65.54L26.7876 66.1195L27.0293 65.54H26.8736ZM27.8538 57.7083L27.8202 57.4115L27.4071 57.7083L27.2169 57.1056L27.1654 57.4115H27.1318C27.1283 59.0693 27.2265 58.9493 27.3211 58.8973L27.5449 58.013H27.6302C28.3007 58.013 28.8264 57.9172 29.4547 58.013L29.4728 57.7083L29.4902 58.013C29.7044 58.1769 29.8885 58.1319 30.0745 57.7083C29.5253 57.2696 28.8023 57.3515 28.1637 57.4115L27.8538 57.7083ZM28.2661 44.1643L28.2172 44.4703L28.2661 45.0867L28.404 45.3765C28.5993 45.3545 28.768 44.894 28.9392 44.4703C29.1319 44.2983 29.2664 44.9297 29.4204 44.1643L29.4436 44.3444L29.4625 45.2426L29.8439 45.2207L29.7422 44.1193L29.6123 44.1424C29.145 43.6137 28.7877 43.3539 28.3703 44.4703L28.2661 44.1643ZM32.8803 59.8417H33.087L33.0371 59.5092L32.7272 59.2102L32.8803 59.8417ZM28.1481 46.5968H28.0613L27.8893 46.2839L27.8202 46.5968L27.6137 47.1694L28.1481 46.5968ZM27.4408 64.3209L27.4235 66.1195C27.4623 65.1301 27.6576 66.8122 27.6474 64.9305L27.4408 64.3209ZM36.5986 73.3428L36.4609 74.2479L36.41 74.8598C36.5608 74.189 36.8474 74.7998 37.0281 73.6684L36.9256 73.3428L36.8222 72.4274L36.9256 71.8467H36.7536L36.8913 71.5419L36.8222 69.4443L36.8053 70.3517H36.5643C36.5959 69.4212 36.7664 70.8792 36.7707 69.4443C36.5736 70.025 36.2636 69.2215 36.151 71.5419C36.3766 71.3999 36.6046 71.6239 36.7183 71.8467L36.3568 73.0369L36.2036 73.3428H36.3568L36.8053 72.7541L36.5986 73.3428ZM16.391 63.7402L16.6139 62.8247C16.5383 62.5199 16.3946 61.9993 16.391 63.7402ZM15.0131 76.3536L15.1843 76.0488H14.754L15.0131 76.3536ZM16.0623 82.3856L15.9599 82.6765L15.8394 82.9663L16.0623 82.3856ZM14.6163 80.5639L14.6525 81.4713L14.8762 80.8917L14.6163 80.5639ZM16.6828 59.8417H16.6312L16.4591 60.0956H16.5107L16.6828 59.8417ZM15.2042 80.5639H14.927H15.2042ZM16.0287 70.6414C15.8291 69.5713 15.6234 70.5745 15.4435 70.025L15.4778 70.9543L15.7886 70.6414L15.9091 71.2579L16.0287 70.6414ZM15.65 64.0219L15.7886 63.1156H15.5467L15.65 64.0219ZM16.0287 72.4274L15.7706 72.7541L16.0287 72.4274ZM14.9787 77.5658C14.9614 79.2328 14.9245 76.9851 14.86 77.5658V79.0677V78.4582L14.6868 78.7791L14.773 79.6634L15.0131 79.0677L14.9787 77.5658ZM14.0499 94.1066H14.2575L13.8616 93.5052L14.0499 94.1066ZM32.0128 45.6443L31.9061 45.4146L32.0128 45.6443ZM31.9844 42.6693C31.5989 42.8321 31.2391 43.4359 30.8492 43.5848L30.9198 44.4703L31.0221 44.1643H31.2622L31.5963 43.5848L31.4352 44.0835C31.3904 44.7901 31.5523 44.8709 31.7339 45.0867L31.4345 46.2839L31.3329 45.9872V46.2839H31.4H31.7796L32.0704 46.5968H32.3115L32.2787 46.068L32.4602 46.158L32.4364 46.8496L32.5327 47.3263C32.8822 47.3771 32.9932 46.4466 33.2625 46.1869L33.5079 45.1837L33.5396 45.0867L33.5431 44.7901H34.6887L34.7429 45.9052C34.4752 45.941 34.2015 45.8822 33.982 46.2839L34.2403 46.5968L34.4821 47.1694L34.7395 47.481H34.9287L35.0157 46.5968H35.0674L35.0837 46.8865L35.1526 45.6743L34.9123 45.8452L34.9168 44.4472L34.7912 44.5291L34.9805 43.8826L35.3772 44.1643L35.2569 43.5848L35.1018 43.2708L35.032 43.5848C34.5656 43.5248 34.199 43.7037 33.81 43.5848L33.6552 44.1643L33.6497 44.1424L33.6825 42.5805L33.6172 41.8C33.3348 41.3752 33.3787 42.2076 33.2341 42.3646C32.6591 41.9559 32.3277 42.3865 31.9817 42.8321L31.9844 42.6693ZM14.6525 85.9713L14.3943 85.6804H14.3598L14.6525 85.9713ZM14.946 94.999L14.5655 94.6873L14.946 94.999ZM14.2575 80.273L14.0147 79.9532L13.7745 80.273L14.1361 80.5639L14.34 80.8917L14.2575 80.273ZM13.8253 78.4582L13.7745 77.246L13.568 76.9643V76.3536L13.4131 76.0488L13.24 75.7441L13.1377 76.0488H13.068L13.0343 76.3536L13.3089 77.5658L13.3434 76.9643C13.3451 78.4582 13.4553 78.0126 13.4648 79.3667L13.481 78.1546L13.4982 79.3667L13.6359 79.9532L13.5318 78.4582V77.5658L13.6876 77.8706L13.8253 78.4582ZM14.2214 77.8706L14.376 78.1546L14.514 77.5658L14.2214 77.8706ZM13.8082 77.5658H13.9295L14.0826 77.246L13.8082 77.5658ZM13.7745 76.0488H13.9458L14.1533 75.7441L13.8253 75.1564L13.8616 73.9593C13.746 74.0194 13.71 73.0738 13.5499 73.3428L13.172 72.1457H12.8441L12.6367 71.8467L12.6032 71.5419V71.8467C12.8596 72.963 13.0947 73.1777 13.3089 74.555C13.4741 73.8923 13.6213 75.587 13.7745 76.0488V76.0488ZM15.2541 72.4274C14.8495 72.5532 14.5501 72.8811 14.1181 72.1457C13.8676 72.3674 13.7616 71.8317 13.5851 70.6414C13.4027 71.5188 13.2597 70.0019 13.068 70.9543L13.4293 72.1457L13.8082 72.7541C14.0611 73.0369 14.3151 73.3428 14.5845 73.3428L14.7032 74.2479L14.7902 73.9593L14.8229 73.0369L14.9099 73.6684L15.0484 73.0369L15.2541 72.4274ZM15.4264 46.5968L15.2886 47.1694H15.5294L15.4264 46.5968ZM16.5107 52.0111L16.6665 52.5975C16.7114 51.7871 16.8732 53.0154 16.8723 51.3796L16.5107 52.0111ZM14.5845 48.6632C14.587 50.2702 14.6552 48.916 14.7032 49.5868L14.7197 48.991L14.946 48.6632C14.8332 48.2476 14.7678 48.7971 14.5845 48.6632ZM12.2768 61.6195L12.3638 61.9185H12.4665L12.2768 61.6195ZM34.1534 41.4422L33.8614 41.7539H33.7944L33.76 42.0598L34.1026 42.3646H34.2067L34.3091 41.4422L34.2575 41.1524L34.1534 41.4422ZM18.6117 42.9741C18.5995 41.5091 18.535 42.3426 18.4559 42.3646L18.3708 42.0598L18.3535 42.3646L18.1469 42.9741H18.6117ZM17.0608 47.7858H16.9763L16.942 47.1694L16.9592 47.481H16.6139L16.701 47.7858L16.8903 47.481V48.0906L17.0608 47.7858ZM18.887 45.0867L18.6634 45.6743L18.887 45.0867ZM18.6117 58.6237L18.6968 58.013H18.3535C18.3508 59.605 18.5135 58.118 18.6117 58.6237ZM13.3785 46.2839L13.2917 46.5968L13.3606 47.481C13.5457 47.3032 13.6213 47.9648 13.8616 47.7858C14.1213 49.14 14.4176 46.7307 14.7032 47.7858L14.514 47.1694L14.3082 46.8865C14.4898 45.4585 14.7412 46.7307 14.8762 46.2839L14.9787 46.8865C15.0923 44.5072 15.3117 45.5416 15.5132 45.0867L15.4778 46.2839L15.6321 46.8865C15.65 45.4585 15.569 47.481 15.582 45.9872L15.6845 46.2839L15.65 46.8865H15.9599L15.8729 48.3965L16.1836 48.6632L16.2353 47.481L16.2008 48.0906L16.1493 47.481L15.9772 46.8865L16.1665 45.9872H15.9599C15.9408 45.0128 15.8118 45.941 15.8229 44.4703H16.082L16.3033 43.8826L16.355 45.3765C16.5141 45.8302 16.6597 45.6154 16.7869 45.3765L16.9066 45.0867L16.8723 43.5848H17.1132L17.164 45.0867L17.3198 45.3765L17.2691 43.5848C17.4402 43.3308 17.627 43.4359 17.7844 42.9741L18.0428 42.3646C17.6899 42.7652 17.3327 41.8139 17.0443 42.0598C16.6269 40.9434 16.3024 42.6982 15.8729 42.9741L15.7706 42.3646V41.1524C15.5202 40.9885 15.1568 41.1293 14.86 41.7539L14.8074 42.6693L14.5483 42.9741V43.8826L14.4106 44.1643L14.34 43.2708L13.9975 43.5848L13.8778 44.7901H13.7222L13.5499 43.8826L13.4131 44.7901C13.3744 43.8827 13.2368 43.377 13.2057 44.7901C13.2624 45.1537 13.3545 44.3283 13.3785 46.2839V46.2839ZM12.7418 63.7402H12.931L13.1212 64.3209H12.9647L12.7246 63.7402H12.7418ZM13.154 64.3209H13.1883C13.654 64.4386 14.0783 66.8329 14.5311 66.1195L14.946 66.7302L14.7902 67.3178L14.6344 67.035H14.34C14.0879 66.4104 13.8201 66.2165 13.5156 65.2421H13.2917L13.1377 64.9305L13.154 64.3209ZM14.2214 57.7083V58.6237L14.2901 58.013H14.273L14.3247 59.5092L13.9975 59.2102L14.1886 58.6237L13.982 58.3039L13.9295 58.013L13.7745 57.4115C13.9011 57.4623 14.0456 57.7902 14.2214 57.7083V57.7083ZM15.4778 50.1743H15.5132L15.7189 51.1037L15.3419 51.3796L15.4778 50.1743ZM12.6367 64.3209L13 65.54C13.3597 65.7258 13.6257 66.2915 13.9295 66.7302L13.982 67.9354C13.7437 68.1652 13.5828 67.0581 13.3785 66.7302L13.2753 67.3178L12.759 67.035C12.9355 67.6157 13.1651 67.3848 13.3089 68.5288L13.24 69.1326C13.4906 69.898 13.7368 69.9938 13.9975 70.3517L14.4106 71.2579L14.4812 70.9543L14.6009 71.5419L14.7032 71.2579L14.754 71.5419C14.9209 71.2972 15.0776 71.9067 15.2042 70.6414H15.323L15.2367 70.3517L15.323 70.025C15.3006 68.9017 15.1801 70.5745 15.1516 69.1326L15.4099 68.8278L15.4778 67.3178C15.8109 67.9631 15.9418 66.8329 16.2353 67.3178L16.3033 67.035H16.6484C16.9601 66.1784 17.3885 67.8604 17.6976 66.7302C17.3473 66.1645 16.7594 65.8967 16.391 66.1195L16.3394 65.2421H16.1836L16.1319 66.1195L15.9951 65.2421L15.9599 66.1195H15.7706L15.7189 65.2421L15.65 65.8378L15.2886 64.9305H15.1516H14.9614L14.6868 65.2421L14.5483 64.6245L14.6525 63.7402L15.0819 64.3209L15.1001 63.4123L15.1843 64.3209L15.2541 63.4123H15.3419L15.4778 62.8247H15.0303L14.946 63.4123C14.7833 63.7402 14.7092 63.4354 14.5655 63.1156H14.4106L14.2901 62.2152H14.6689V60.7214H14.9099L14.9968 62.2152H15.1516L15.1843 61.3297L15.4264 60.7214L15.3573 60.0956C15.5303 59.6488 15.7575 60.0876 15.9255 59.5092C15.9891 60.9661 16.1665 60.8321 16.2878 60.3935L16.1836 59.5092L16.3394 58.8973H16.5287L16.6139 58.013C16.7768 57.938 16.8697 59.635 16.9926 58.013C16.7637 57.5893 16.5219 57.0837 16.3223 57.7083L16.3033 56.8078L16.2706 57.7083L15.736 57.4115L15.564 58.013L15.6321 58.6237L15.3419 58.8973L15.273 58.013C14.9589 57.976 14.7298 58.0569 14.4968 58.3039L14.4106 57.7083H14.6163L14.7376 56.518L14.514 55.9154L14.414 55.2758L14.4501 55.247L14.4657 54.9191C14.7557 54.2946 14.9959 55.0461 15.2541 54.0937V53.2013H15.4264L15.5294 54.0937L15.6321 53.4899L15.8394 52.9046H16.0459L15.7543 51.3796L15.9772 50.4861C16.145 50.9548 16.348 51.1037 16.4935 50.4861C16.0262 49.8465 15.4873 50.4122 15.0303 49.5868L14.9787 51.1037H14.6009L14.5483 50.4861L14.3598 49.5868L14.3082 50.1743L14.1007 49.5868H13.8941L13.6721 49.282L13.2237 49.5868H13.1023L13.0343 50.1743C13.0292 50.0023 12.8476 48.7971 12.8098 50.1743L12.8958 51.1037C12.7203 51.0079 12.5592 51.2145 12.4301 52.0111C12.2521 51.6913 12.0859 51.0667 11.9326 51.6913L12.19 52.2928L12.4301 52.9046L12.5171 54.0937L12.3802 53.7889C12.2899 54.5093 12.2029 52.9924 12.1392 54.6952C12.388 54.3904 12.5972 56.2871 12.8098 55.6025L12.8631 56.518C13.1128 56.346 13.3295 56.8228 13.568 57.4115L13.7048 58.013C13.5439 57.4254 13.3107 57.7232 13.0343 57.1056L13.172 57.7083L13.3434 58.8973L13.2917 59.2102L13.3785 58.8973L13.4131 59.5092L13.5318 60.0956C13.389 59.8497 13.3786 60.5874 13.2057 60.3935V61.6195H12.7073L12.6221 62.2152L12.5359 61.0111L12.5859 62.2152L12.4825 62.5199L12.6727 63.4123L12.6367 64.3209ZM16.4591 61.6195L16.4418 61.3297H16.2706L16.4264 61.9185H16.6312C16.62 60.5274 16.4591 61.6195 16.4591 61.6195ZM15.2886 55.6025L15.1335 55.3059C15.0802 56.3772 14.86 54.5093 14.86 56.518L15.169 56.2202L15.1843 56.8078L15.2367 56.518L15.2886 55.6025ZM36.2387 40.8615L36.324 40.26L36.1004 40.8615L35.6853 40.5417L35.3772 41.7539C35.5743 41.8959 35.7268 41.0935 35.8928 41.4422L36.1174 41.1524L36.2387 40.8615ZM36.2544 43.5848L36.4789 43.2708L36.5814 43.5848L36.943 42.9741C36.7286 41.7538 36.4695 43.7037 36.2387 42.6693L36.151 42.9741L36.0812 43.2708L36.2544 43.5848ZM38.0619 41.4422L38.1134 40.5417H37.5643L37.5032 39.6794C37.3026 39.4346 37.2614 40.3708 37.3439 40.7945L37.5092 40.8026L37.5101 40.8615H37.666L37.9078 41.1524L37.993 40.8615H38.0445L38.0619 41.4422" fill="#100F0D" />
</svg>