<svg viewBox="0 0 950 240" xmlns="http://www.w3.org/2000/svg" preserveAspectRatio="none" fill="currentColor" fill-rule="evenodd" clip-rule="evenodd" stroke-linejoin="round" stroke-miterlimit="2"><path d="M51.575 229.366c0-.215.453-.892 1.006-1.503.957-1.058.945-1.16-.245-2.089-1.338-1.043-1.841-4.056-1.065-6.375.522-1.557 1.365-1.68 2.344-.343.398.545 1.107.818 1.618.622.718-.276.9-1.278.865-4.77-.061-6.039-.766-6.993-4.855-6.571-3.272.338-4.543-.542-2.833-1.961 1.135-.942 2.768-4.441 2.37-5.082-.172-.28-1.443-.846-2.824-1.257-1.38-.411-3.112-.983-3.85-1.271-2.911-1.135-5.507-.088-5.167 2.085.184 1.177 2.67 3.324 3.358 2.9.394-.243.553-.19.36.12-.188.306-.113.929.169 1.384.312.506.254 1.138-.15 1.625-.48.578-.486 1.075-.026 1.813.924 1.479-.996 2.477-5.453 2.835-2.79.224-3.853.083-4.54-.603-1.49-1.491-4.955-3.447-5.505-3.107-.284.176-.416.916-.295 1.646.169 1.016-.328 1.702-2.121 2.926-1.288.88-2.347 2.062-2.354 2.627-.03 2.328-3.438 4.792-5.146 3.719-.61-.383-.404-.928.928-2.467 1.464-1.692 1.73-2.522 1.848-5.77.092-2.517.457-4.146 1.085-4.842.977-1.084 1.386-2.29 1.376-4.058-.003-.561.175-1.022.395-1.024.22 0 1.279-.825 2.35-1.829 2.135-2 1.79-2.811-1.2-2.828-1.118-.006-1.494-.25-1.274-.825.374-.973-.692-1.797-1.22-.944-.453.734-1.464.781-1.464.067 0-.289.946-1.084 2.102-1.766 3.419-2.017 7.76-5.936 7.456-6.729-.155-.405-.904-1.069-1.664-1.476-.796-.426-8.125 12.129-7.946 11.663.208-.543.016-.696-.585-.465-.493.189-1.036.709-1.207 1.155-.436 1.136 2.745-10.634.488-10.719-1.038-.039-8.846 7.357-9.513 7.715-1.09.583-3.834.468-4.925-.206-.23-.142-7.058 11.908-6.771 10.632.653-2.907.432-4.419-.871-5.941-1.238-1.445-.888-1.992.723-1.131.648.347 1.76.631 2.473.631 1.368 0 8.392-3.109 8.907-3.943.412-.666-.28-1.607-1.517-2.063-.644-.238-1.021-.988-1.021-2.034 0-2.127 1.299-3.93 2.499-3.469 1.136.435 8.832-8.139 8.374-9.333-.234-.611-7.577 6.252-9.427 6.252H4.958l.178-3.064c.16-2.757.322-3.084 1.622-3.267.795-.112 1.794-.703 2.222-1.313.446-.638 7.879-8.245 8.81-8.245 2.207 0-3.903 6.662-5.251 5.314-.627-.627-.98-1.398-.785-1.714.195-.316-.542-.949-1.64-1.408-1.505-.629-2.222-1.447-2.93-3.343-1.585-4.242-1.732-5.45-.761-6.256.873-.724 4.1-.587 6.332.269 1.714.658 1.215-1.418-.792-3.293-.997-.931-2.063-1.693-2.37-1.693-.305 0-.393-.262-.194-.583.198-.321.039-.584-.355-.584-.393 0-.573-.142-.4-.315.174-.174 1.277.251 2.45.943 2.156 1.272 6.448 1.676 7.425.699.53-.531-1.528-4.856-2.625-5.518-2.852-1.721-2.91-1.891-1.3-3.806 1.655-1.966 1.882-3.076.84-4.117-.51-.511-.51-.874-.001-1.487.832-1.003-.556-2.391-2.961-2.962-1.047-.249-1.722-.878-1.96-1.829-.265-1.056-.757-1.45-1.808-1.45-1.912 0-19.59-2.556-17.266-3.739 2.313-1.178 1.812-1.998-2.055-3.36-4.028-1.419-5.357-2.682-5.084-4.837.147-1.162-.16-2.056-.96-2.802-1.171-1.091-1.17-1.096.479-1.441 1.839-.384 5.386-.786 11.706-1.325 3.043-.26 4.47-.15 5.127.395.745.618 1.499.614 4.159-.025 3.672-.88 4.513-1.999 2.592-3.448-1.162-.876-1.205-1.065-.394-1.737 1.255-1.043.967-3.519-.641-5.491-.74-.907-1.345-2.008-1.345-2.447 0-.439-.476-1.141-1.057-1.56-2.674-1.93-1.111-2.622 2.516-1.114 3.427 1.425 4.809 1.456 5.233.121.41-1.291-.068-3.563-.75-3.563-.341-.001-.418-1.988-.175-4.505.103-1.065 1.66-.252 2 1.043.209.799.806 1.127 2.052 1.127.967 0 2.239.181 2.827.401.92.346.963.272.309-.534-.646-.795-.58-.993.437-1.316.659-.209 1.198-.638 1.198-.952 0-.315.722-1.234 1.605-2.043 1.069-.98 1.363-1.571.88-1.77-.55-.227-.514-.509.147-1.169.478-.479.9-1.574.937-2.434.109-2.536.166-2.689 1.53-4.157.72-.773 1.455-1.871 1.636-2.44.18-.569-16.57 2.851-16.146 3.014.424.162.928-.114 1.119-.614.222-.577 1.076-.909 2.339-.909 1.65 0 2.11-.291 2.698-1.708.39-.94 1.078-1.851 1.53-2.025.452-.173.822-.873.822-1.555 0-.681.522-1.902 1.159-2.713.638-.81 1.04-1.667.893-1.904-.146-.237.373-.309 1.154-.16.839.161 1.802-.112 2.358-.667.517-.517 1.403-.94 1.97-.94 1.155 0 2.387-2.249 2.387-4.355 0-1.787.983-2.106 3.427-1.113 1.083.44 2.02.8 2.084.8.345 0 3.827-3.377 3.827-3.711 0-.218-.656-.232-1.46-.031-1.017.256-1.461.127-1.467-.426-.007-.622-.126-.608-.552.066-.464.733-.601.708-.94-.171-.216-.567-.24-1.185-.051-1.374.189-.188.096-.807-.208-1.373-.445-.833-.27-1.101.92-1.399.809-.204 1.314-.625 1.12-.936-.191-.312.176-.567.818-.567 1.3 0 2.252-1.092 1.457-1.67-.863-.627-.853-1.831.015-1.831 1.388 0-20.936-7.299-20.247-9.387.359-1.088.503-2.576.32-3.307-.254-1.012.079-1.634 1.403-2.612 1.112-.822 1.737-1.804 1.737-2.726 0-1.012.32-1.442 1.077-1.442.592 0 1.529-.499 2.08-1.109.553-.61 1.884-1.274 2.958-1.476 1.486-.279 2.098-.781 2.558-2.1.332-.954.883-1.734 1.223-1.734.34 0 1.039-1.051 1.553-2.335.907-2.268 1.013-2.334 3.727-2.334 2.263 0 3.129-.315 4.569-1.66.977-.913 3.237-2.119 5.02-2.68 1.786-.561 3.393-1.259 3.573-1.55.18-.291 1.106-.53 2.057-.53 1.277 0 1.902-.38 2.393-1.459.366-.802.954-1.459 1.306-1.459.353 0 .97-.525 1.37-1.167.4-.642-7.658 31.497-7.217 31.497.993 0 1.556-1.926.876-2.999-.621-.981-.68-2.416-.083-2.065.24.142 1.028.035 1.75-.238 1.534-.58 1.898-3.452.438-3.452-.967 0-1.2-1.482-.317-2.027.307-.19.41-.73.229-1.202-.181-.471-.022-.856.352-.856s.493-.304.264-.674c-.23-.371-.163-.517.148-.325.66.408 4.868-3.173 4.868-4.144 0-.584 14.513-6.125 13.743-6.046-.751.078-4.67-1.604-4.67-2.004 0-.249.723-.361 1.606-.25.882.111 1.276.085.875-.057-.401-.143-.73-.606-.73-1.03 0-1.017 1.839-1.698 2.35-.87.22.356 1.45.788 2.736.96 2.862.384 5.294-1.189 4.087-2.643-.612-.737-.314-.787 2.209-.372 6.08 1.002 29.439.919 29.489-1.76.017-.853.13-.834.876.152.47.623.857.901.857.618 0-.283.378-.005.84.618.463.623.703 1.702.533 2.398-.213.872.049 1.456.843 1.881 1.32.706 5.215.712 6.593.01.579-.295 1.412-.138 2.2.415 1.525 1.068 6.279 1.634 6.789.808.199-.322.07-.586-.287-.586-1.458 0-4.422-2.639-4.197-3.736.126-.611-.192-1.346-.707-1.634-1.23-.689-1.184-1.459.13-2.162.724-.387 1.983-.317 3.939.219 1.58.434 2.48.834 1.999.888-.554.062-.622.201-.185.379.83.339 4.27-1.352 4.27-2.1 0-.292.722-.379 1.605-.195.883.185 2.393.403 3.356.484.963.081 27.808 3.891 28.014 3.925.206.034.537.711.736 1.504.44 1.756 1.657 2.458 4.726 2.729l2.334.206.013-2.335c.007-1.284-.24-2.512-.55-2.73-.36-.252-.34-.888.052-1.751.436-.959.43-1.648-.02-2.36-1.104-1.745.2-2.158 4.179-1.323 2.02.424 4.04 1.074 4.486 1.444 1.414 1.174 8.473-.581 8.473-2.106 0-.472-.786-1.305-1.747-1.852-.961-.546-1.75-1.206-1.751-1.466-.002-.26-.248-.321-.547-.136-.3.184-.732.031-.962-.342-.292-.472.044-.589 1.106-.386.839.16 1.6.104 1.692-.124.285-.711 4.543-1.282 4.543-.609 0 .886 2.197 2.945 3.142 2.945.444 0 .945.525 1.113 1.167.167.642.75 1.167 1.297 1.167.666 0 .876.304.639.923-.195.508-.355 1.164-.355 1.459 0 .295-.544.536-1.21.536-1.79 0-3.173 1.563-2.307 2.608.377.453 1.01.699 1.41.546.399-.153 1.439.092 2.312.545 1.472.764 1.5.846.399 1.134-1.77.463-1.436 2.036.709 3.344 2.272 1.385 3.614 1.507 3.145.285-.26-.674.129-.875 1.688-.875 1.365 0 2.025-.272 2.025-.833 0-1.484 2.89-3.281 4.592-2.854 1.649.413 4.745 3.183 4.745 4.244 0 .39 1.1.626 2.773.595 1.524-.029 5.983-.017 9.908.025 6.204.068 13.582-.753 13.582-1.51 0-.138-.526-.776-1.168-1.418-.642-.642-1.167-1.43-1.167-1.751 0-.88 1.908-.7 3.359.316 1.21.848 1.384.789 3.03-1.021.96-1.057 1.755-2.118 1.764-2.359.009-.241.296-.437.636-.437s.467.244.282.543c-.185.299-.041.725.32.948.464.287.424.551-.137.907-1.355.859 1.467.613 3.707-.322 3.115-1.302 5.736 10.985 4.008 9.853-1.627-1.066-1.81-3.155-.268-3.062.55.033 1.509.646 2.13 1.363.62.716 2.076-4.64 2.264-4.827.187-.188.927.069 1.643.571l1.302.912-1.594.607c-.877.333-2.635 6.395-2.935 6.395-.3 0-.546.627-.546 1.393 0 1.193 1.15-4.345 3.275-4.037 1.365.198 3.189.162 4.055-.08 1.792-.5 9.177 7.895 10.762 5.293 1.043-1.713 1.04-1.748-.242-2.46-1.275-.709-1.267-.723.38-.743 2.023-.025 6.946-4.511 7.985-7.274 1.715-4.562 2.54-5.606 4.92-6.225 3.176-.825 5.55-1.879 5.55-2.463 0-1.331 5.129-4.779 8.17-5.492 3.514-.824 4.667-.732 4.678.375.006.61.155.698.438.259.25-.389 2.099-.674 4.439-.687 3.112-.016 4.269.221 5.166 1.057.844.785 1.694.99 3.138.756 1.09-.177 3.538-.016 5.439.359 3.348.658 3.585.62 7.429-1.196 3.003-1.419 4.91-1.912 7.826-2.025 2.975-.115 3.856.037 3.856.663 0 .446-.26.65-.578.454-.357-.22-.434.182-.203 1.047.207.772.379 1.864.384 2.426.012 1.585 2.832 1.349 3.49-.292.292-.722.546-1.022.566-.666.02.357 1.458.795 3.195.974 1.737.179 3.835.77 4.663 1.313 1.603 1.05 2.993 4.867 2.483 6.817-.34 1.299 1.123 2.108 2.08 1.15.45-.45.97-.454 1.792-.014.763.409 3.07.465 6.768.166 3.085-.249 8.385-.441 11.776-.427l6.165.027 4.444 2.698c3.569 2.166 2.93-10.607 5.07-10.607 1.823 0 2.622-.231 2.522-.73-.187-.935 1.878-.61 3.11.491.544.485 2.172.822 3.973.822 3.353 0 8.366 1.07 7.975 1.703-.403.652 7.943.614 10.475-.048 3.623-.947 10.612-4.449 11.784-5.904.58-.721 1.814-1.899 2.74-2.617 1.576-1.222 1.734-1.241 2.422-.3.633.866.5 1.15-.956 2.035-1.446.88-1.965 1.874-1.792 3.434.039.353-10.92 5.935-13.028 6.636-.64.213-4.052.522-7.583.687-3.53.165-6.535.416-6.676.557-.753.754 1.473 1.593 4.303 1.621 2.123.021 3.03.229 2.65.608-.316.317-.576.761-.576.986 0 .737 3.17 1.475 4.906 1.141l1.696-.325-1.404-.7c-.772-.384-1.93-.833-2.571-.997-.642-.164.145-.163 1.75 0 1.605.165 3.81.581 4.9.925 2.37.748 9.922.15 10.938-.866.223-.224.953-.415 1.622-.425.669-.01 1.725-.404 2.349-.875.623-.471 1.542-.859 2.042-.861.5 0 1.644-.386 2.54-.854 1.399-.729 1.678-.733 1.948-.028.38.992-1.436 3.642-2.818 4.111-.545.185-2.047.378-3.337.429-1.29.052-2.053.275-1.696.495.357.221.488.822.29 1.336-.278.727-1.22.934-4.246.934-2.771 0-4.412.316-5.71 1.097-1 .603-2.818 1.416-4.04 1.807-2.002.64-5.04-6.63-4.878-5.024.267 2.663 1.514 3.155 5.773 2.275 1.988-.41 4.239-1.156 5.004-1.657.935-.613 2.146-.81 3.696-.602 1.268.17 3.234.1 4.368-.156 3.419-.771 2.858.354-.73 1.46-1.838.568-3.605 1.23-3.926 1.473-.321.242-2.29.901-4.377 1.465-5.1 1.378-5.602 2.019-1.583 2.019 6.054 0 28.419-14.092 30.733-16.714.532-.604 1.53-1.098 2.215-1.098 1.789 0 7.07 11.393 7.07 10.332 0-.577.33-.76.945-.524.519.199 2.292-.061 3.939-.579 4.05-1.272 6.614-.605 8.134 2.115.618 1.106 5.143-14.002 5.829-13.315.685.687-4.576 10.996-3.997 11.84 1.742 2.537 13.35-29.316 20.536-29.325 4.248-.005 8.343.396 12.107 1.186 6.01 1.26 8.012 1.192 13.28-.454 3.945-1.232 8.766-1.404 14.036-.5 2.2.377 4.866.557 5.924.399 3.782-.563 7.444-.192 7.283.738-.058.335-.894 1.043-1.856 1.574-.963.531-1.62 1.075-1.46 1.209.409.34-1.53 2.202-2.292 2.202-.344 0-.625.254-.625.564 0 .837-2.175 1.844-4.102 1.899-.932.027-1.577.239-1.433.472.487.787-8.16.496-11.208-.378-1.666-.477-4.018-1.54-5.228-2.361-2.068-1.403-2.48-1.468-6.893-1.087-2.582.224-6.014.748-7.628 1.167-4.14 1.073-10.275 1.048-13.552-.055-3.8-1.279-17.367 28.37-18.427 26.608-1.222-2.031-3.355.371-5.284-.84-2.414-1.515-.84-17.281-5.44-12.763-3.198 3.142-10.194 13.179-9.534 13.587.659.407 3.867-15.822 2.304-14.992-2.856 1.516-5.996 4.683-5.478 5.522.3.486.114.576-.614.296-2.276-.873-3.533 2.152-1.668 4.017.538.539 1.014 1.542 1.057 2.23.042.688.276 1.842.518 2.564.334.991.218 1.313-.473 1.313-.503 0-.914-.306-.914-.681 0-.374-.187-.494-.415-.265-.23.228.362 1.041 1.313 1.807 1.558 1.255 1.652 1.517.958 2.657-.885 1.453 7.14-7.287 9.677-5.997 1.957.996-4.142 9.416-4.818 8.321-.24-.388.166-.385 1.2.008 1.526.581 4.944-.119 6.354-1.3.305-.256 1.404-.465 2.442-.465 1.038 0 2.627-.295 3.53-.656 1.793-.717 6.684-.714 7.174.005.168.245 1.566.793 3.106 1.217 2.266.623 3.063.629 4.178.032 1.152-.617 1.599-.583 2.728.208.743.52 7.4-15.145 8.332-15.145 1.497 0 1.6.11.904.949-.71.857-.544.927 1.692.713 1.879-.179 2.409-.05 2.186.532-.162.423.094.918.57 1.1.477.183.866.698.866 1.145 0 .849 2.174 1.075 4.453.464 1.175-.315 1.196-.43.377-2.071-.894-1.793-.52-3.175.445-1.648.299.472.547.621.552.332.006-.29.5.038 1.099.729 1.472 1.698 3.2 1.581 6.818-.46 8.158-4.604 21.272-5.84 21.272-2.005 0 .468.609.804 1.459.804.858 0 1.459-.335 1.459-.813 0-.944 1.587-1.721 1.859-.91.1.3.84.553 1.643.562 8.33.096 12.292-.175 16.97-1.162 8.428-1.779 19.77-1.272 22.277.995.846.766 2.227.906 7.594.769 3.607-.092 7.74-.188 9.185-.214 2.473-.043 9.164 1.078 11.088 1.859.482.196 9.148.388 19.259.427 19.438.075 37.054.569 37.848 1.059.26.162 4.13.27 8.597.24 4.467-.03 22.172-.105 39.345-.168 33.627-.122 37.096-.175 36.708-.564-.14-.139-5.108-.672-11.04-1.184a3294.43 3294.43 0 0 1-13.121-1.15c-1.284-.12-8.637-.283-16.341-.362-7.703-.079-14.794-.311-15.757-.516-1.71-.364-1.688-.389.988-1.079 1.506-.389 4.133-.712 5.836-.718 1.704-.006 5.46-.401 8.35-.88 5.353-.886 14.66-.823 32.682.222 7.78.451 19.072.378 28.888-.188 5.55-.319 11.57-.548 31.223-1.185 14.764-.479 35.427-1.409 40.268-1.812 4.15-.346 4.627.132 1.272 1.276-1.181.403-1.922 1.084-2.038 1.872-.156 1.05-.714 1.3-3.648 1.632-1.905.215-3.464.596-3.464.845s-1.38.648-3.064.886c-1.685.237-2.67.556-2.19.708.483.152 1.322.836 1.866 1.52.916 1.151 1.454 1.23 7.295 1.077 3.468-.092 9.589-.354 13.6-.584 4.013-.23 9.265-.213 11.673.037 2.54.265 5.479.218 7.003-.111 1.445-.312 4.99-.969 7.879-1.459 2.889-.491 6.959-1.187 9.046-1.547 2.086-.36 4.318-.631 4.96-.603 2.093.093 6.908-1.247 11.655-3.242 4.652-1.956 6.493-2.406 5.897-1.442-.174.282-1.23.945-2.344 1.474-3.45 1.637-2.153 2.537 3.79 2.632 5.904.094 7.184.408 6.708 1.649-.23.597-.058.76.55.527 1.088-.418 1.173.559.105 1.2-.735.442-2.9 4.29-2.581 4.591.082.077 1.613.322 3.404.543l3.259.403 2.45-2.935c1.45-1.729 3.27-3.202 4.43-3.586 1.09-.358 2.32-1.06 2.73-1.56.63-.759.57-1.043-.36-1.723-1.83-1.341.04-2.248 4.22-2.042.73.036 1.32.428 1.32.873 0 1.056 2.52 2.693 4.15 2.693 1.21 0 1.23-.057.29-1.09-.94-1.039-.89-1.133.93-1.974 1.06-.485 2.95-1.066 4.22-1.29 1.62-.288 2.05-.554 1.47-.911-.62-.385-.42-.651.83-1.129 1.1-.416 1.54-.915 1.32-1.492-.39-1.013-.31-1.034 1.48-.359 1.67.627 3.98-.16 3.98-1.35 0-.908 2.81-2.66 4.27-2.66.45 0 1.45-.485 2.22-1.079.76-.593 2.11-1.254 2.99-1.47.89-.215 1.61-.649 1.61-.964 0-.315.66-.573 1.46-.573.8 0 1.46.203 1.46.451 0 .518-3.13 2.198-5.18 2.783-2.4.683-.11 1.442 3.19 1.058 1.89-.219 3.47-.081 4.33.379 1.35.724 1.35.726.17 1.675-1.73 1.383-2.08 3.454-.71 4.188.61.328 1.12.981 1.12 1.451 0 1.056-2.5 1.125-6.28.173-2.04-.514-2.76-.516-2.93-.007-.12.371-.92 1.466-1.77 2.433-1.2 1.372-2.02 1.758-3.74 1.758-1.38 0-2.15.256-2.06.682.08.375-.46.996-1.2 1.38l-1.34.7 1.43 1.702c3.52 4.181 1.39 5.409-4.35 2.511-3.3-1.667-7.94-4.454-8.69-5.219-.35-.355-1.45-.664-3.73-1.046-1.57-.263-1.67-.176-1.31 1.223.27 1.098.09 1.669-.65 2.103-.92.535-.89.599.29.615 1.76.024 1.67.969-.15 1.424-1.13.285-1.46.741-1.46 2.055 0 1.537-.22 1.723-2.48 2.074-3.89.606-4.56.904-4.39 1.95.14.825-.44.989-3.68 1.055-3.325.068-4.06.289-5.39 1.618-1.874 1.875-2.964 3.812-2.438 4.336.459.457 3.986.645 17.798.947 5.62.122 10.95.506 11.85.853.91.347 1.89.63 2.19.63 1.41 0 .33 1.074-1.35 1.341-1.04.166-2.95.56-4.23.876-1.28.316-8.35.738-15.7.938-11.746.32-13.453.486-14.103 1.375-.407.557-.666 1.087-.575 1.178.342.341 3.057.79 6.11 1.011 3.654.263 5.358 1.441 4.158 2.881-.548.661-.565.905-.06.905.38 0 .53.263.33.584-.2.321-1.12.583-2.044.583-1.39 0-1.66.227-1.56 1.313.242 2.644 1.1 3.267 4.934 3.586 2.01.167 3.87.435 4.13.596.44.27 5.03.36 12.92.254 1.77-.024 4 .018 4.96.093.97.075 3.07.044 4.67-.069 1.65-.116 2.92.042 2.93.367.01.314.22.9.47 1.301.56.88-.34.938-2.95.191-1.03-.296-1.85-.362-1.82-.146.26 1.932-.28 2.958-1.94 3.644-1.02.422-1.57.861-1.22.977.44.146.45.848.04 2.333-.5 1.795-.42 2.242.46 2.888.95.693.89.764-.67.767-.95 0-2.68.27-3.85.595-3.62 1.006-6.97 1.099-7.32.204-.17-.458-1.09-.786-2.14-.765-1.62.032-1.69.095-.58.543.69.278 1.41.763 1.61 1.077.48.784-.21 2.427-1.03 2.433-.56.005-2.39 2.972-1.97 3.194.08.04.78.343 1.57.671 1.29.54 1.17.606-1.17.679-4.9.153-9.23.81-10.248 1.554-.716.524-1.031 1.592-1.06 3.595-.032 2.145-.314 3.009-1.142 3.496-1.6.939-.598 1.284 5 1.725 3.44.271 5.12.19 5.39-.26.5-.806 3.06-.862 3.54-.077.58.928 2.94.27 2.85-.792-.05-.605.37-.954 1.16-.96.69-.005 1.63-.249 2.1-.543.67-.428.53-.677-.73-1.252-.87-.395-1.58-1.054-1.58-1.465 0-.571 1-.666 4.23-.402 2.33.19 4.39.58 4.58.866.19.286 1.1.726 2.04.978 1.11.3 1.71.845 1.73 1.58.01.618.38 1.837.81 2.71.92 1.843.1 3.373-1.79 3.373-.6 0-1.09.394-1.09.876 0 .481.26.875.58.875.99 0 .65 3.265-.44 4.233-.56.501-2.17 1.219-3.58 1.594-4.33 1.152-7.3 3.659-7.9 6.666l-.34 1.696-13.567-.346c-11.032-.281 10.537 5.942 9.347 6.607-.91.511-3.27.825-6.29.838-4.602.02-4.852.088-5.381 1.48-.305.802-.94 1.459-1.41 1.459-1.36 0-1.781 1.275-.686 2.075.616.45 2.135.636 3.956.484 2.34-.196 3.11-.033 3.71.785.63.857 1.74 1.046 6.55 1.112 6.46.088 10.06 1.231 10.06 3.197 0 1.067-.84 1.39-3.1 1.194-.58-.05-.9.154-.72.454.32.52-.7.718-7.75 1.496-1.71.188-4.33.828-5.84 1.423l-2.727 1.081 2.338.368c5.99.943 12.03 2.143 13.39 2.658 2.03.775 1.88 1.566-.28 1.417-6.9-.478-25.774-.863-26.772-.546-.673.214-1.508.918-1.854 1.564-.502.939-.414 1.339.439 1.985.933.708.3.823-5.061.919-3.37.061-6.522.05-7.003-.025-.482-.075-4.842-.148-9.69-.163-6.251-.018-9.9.248-12.547.916-5.144 1.297-9.628 3.067-9.278 3.663.16.273-.374.574-1.19.669-.814.095-1.827.727-2.25 1.405l-.77 1.232 6.045-.392c3.324-.216 8.276-.912 11.005-1.548 9.56-2.229 11.678-2.522 13.036-1.802 1.32.701 8.623.649 8.19-.058-.45-.737 5.797-.771 12.914-.07 3.852.38 7.792.688 8.754.686 1.732-.004 1.722-.016-.583-1.051-1.284-.576-2.572-.91-2.862-.742-.291.168-.361.035-.157-.295.347-.562 2.117-.851 10.464-1.71 3.83-.394 7.12.589 6.59 1.969-.18.462-.32 1.213-.32 1.668 0 .455-.38.827-.84.827-1.66 0-1.54 1.208.29 2.741 1.84 1.555 1.85 1.563.53 2.052-.73.269-2.81.445-4.62.391-1.81-.054-4.28.225-5.48.621-1.85.611-2.123.912-1.79 1.981.21.693.43 1.32.49 1.393.06.073 1.91.387 4.1.697 2.19.311 4.26.842 4.6 1.181.79.783.35.823-9.547.87-7.067.033-8.015.159-9.098 1.205-1.83 1.765-2.186 3.209-.794 3.209.632 0 1.149.307 1.149.681 0 .375-.16.522-.354.327-.365-.365-1.201.206-3.176 2.166-.634.63-1.14.824-1.14.438 0-.381-.277-.694-.617-.694-.34 0-.456.263-.257.584.198.321.084.584-.255.584-.372 0-.49-.785-.298-1.991.189-1.192.049-2.157-.351-2.404-.87-.537-3.473.863-3.473 1.867 0 .427-.554.777-1.23.777-.831 0-1.125.273-.907.84.22.575-.327 1.055-1.728 1.518-2.146.708-3.78 3.07-2.8 4.049.297.297 3.362.723 6.812.946 3.45.223 6.272.584 6.272.802 0 .218.786.281 1.747.14.96-.141 2.73-.072 3.93.153 2.03.381 2.098.458.965 1.087-.67.373-1.104 1.006-.963 1.407.174.5-.436.73-1.934.73-4.44 0-1.002.949 3.988 1.101 2.13.064 3.22 1.233 1.15 1.233-.57 0-1.503.545-2.073 1.211-.907 1.059-1.486 1.17-4.653.889-1.99-.177-6.702-.485-10.473-.685-5.985-.317-6.857-.247-6.857.55 0 1.881-2.117 2.241-6.117 1.041-3.198-.959-3.867-1.007-4.44-.317-.456.549-1.963.813-4.641.813-5.587 0-6.48.472-3.451 1.827 1.339.6 3.04 1.091 3.782 1.091.74 0 1.434.226 1.54.503.236.609 6.323 1.249 6.323.666 0-.226 1.616-.459 3.59-.519 1.975-.059 3.76-.212 3.968-.34.207-.128.71-.027 1.117.225.437.27-.687.607-2.738.821-3.78.395-6.666 1.438-6.176 2.231.17.274-.117.498-.636.498-.52 0-.8.234-.623.52.176.286-.596.691-1.717.902-1.218.228-2.037.723-2.037 1.231 0 .683-1.078.849-5.51.849-3.084 0-5.67.26-5.874.59-.236.381-3.192.457-8.351.215l-7.986-.375-6.42 2.471c-3.531 1.359-33.23-2.859-36.208-1.874-7.458 2.465-6.446 3.139 3.503 2.333 6.048-.489 42.128 5.526 44.085 5.934.16.034-.09.302-.555.597-1.02.645-30.555-5.06-41.91-4.674-13.392.456-16.923 1-16.923 2.609 0 1.203-2.128 1.427-19.771 2.085-10.904.407-22.111 1.312-28.844 2.329-3.146.475-5.903.822-6.128.771-.415-.094-8.307.584-11.496.989-2.177.276-21.887.448-39.685.346-7.383-.042-14.08.048-14.882.2-7.707 1.461-39.311 2.721-46.688 1.863a389.504 389.504 0 0 1-4.67-.583c-4.036-.531-23.42-1.211-30.93-1.085-3.691.062-8.454.399-10.583.748-7.395 1.214-49.871.527-56.328-.911-1.74-.388-10.825 1.134-12.167 2.038-.321.216-2.816.432-5.545.48-2.728.048-6.445.247-8.261.443-2.995.323-3.335.243-3.686-.863-.471-1.482-2.735-1.619-5.234-.316-1.79.933-5.81.631-13.611-1.023-2.416-.512-3.377-.488-4.503.115-1.573.842-1.43 1.547.485 2.392.863.381-.438.481-4.175.322-3.754-.159-5.647-.012-6.137.478-.576.577-9.13 1.633-12.654 1.563-4.17-.083-14.963-1.358-17.683-2.089-1.861-.5-4.29-.909-5.398-.909-1.57 0-5.752 1.682-8.412 3.383-.148.095.067.711.479 1.37 1.018 1.631.583 1.875-2.516 1.41-1.735-.26-2.653-.689-2.653-1.238 0-.585-.681-.839-2.245-.839-1.235 0-3.053-.404-4.041-.897-1.934-.964-6.98-.865-7.638.151-.206.317-1.557.727-3.001.911-1.444.184-3.283.482-4.085.664-4.438 1.001-8.438.462-14.212-1.914l-5.751-2.367-3.004 1.213a232.313 232.313 0 0 1-5.63 2.176c-1.444.531-2.89 1.121-3.21 1.312-.321.192-1.568.666-2.772 1.054-2.295.74-2.906 1.719-1.167 1.871.562.049 1.372.116 1.8.15.43.034 1.086.453 1.46.932.456.585 1.702.864 3.785.849 1.708-.013 3.217.156 3.352.376 1.13 1.828-15.083 1.121-26.321-1.147-4.803-.969-10.603-1.91-12.888-2.09-5.214-.411-10.275-1.356-10.697-1.997-1.315-1.998-8.007-2.715-9.841-1.055-.66.596-2.064.975-3.616.975-1.397 0-3.346.242-4.331.539-3.446 1.036-7.7 1.541-9.7 1.152-4.01-.782-10.872-1.062-11.467-.467-.96.96-3.771-.013-3.401-1.178.536-1.688-2.305-2.244-6.988-1.367-2.247.42-4.173 1.02-4.28 1.334-.107.314-.663.57-1.235.57-.572 0-1.69.512-2.484 1.137-1.272 1-1.884 1.073-5.125.615-3.194-.451-3.99-.363-6.003.664-2.447 1.249-2.535 1.242-7.145-.515-4.947-1.887-6.528-2.007-9.523-.726-1.498.641-3.774 1.146-5.058 1.122-2.131-.039-4.992-.06-11.81-.084-3.747-.014-4.992.526-6.416 2.778-1.548 2.45-1.228 2.696 3.656 2.812 1.754.042 3.19.273 3.19.514a.468.468 0 0 1-.438.46c-.795.04-5.073.586-7.003.895-1.104.176-1.897.648-1.897 1.129 0 1.283-4.243 2.131-10.135 2.025-13.81-.249-29.627-19.849-31.728-19.193-.963.301-3.326.725-5.252.943-1.926.218-3.794.63-4.152.914-.358.285-2.49.58-4.74.658l-4.087.14 1.383 1.285c.76.707 1.383 1.516 1.383 1.799 0 1.279-4.934 2.033-15.08 2.304-9.961.266-10.682.359-10.425 1.342.198.757-.16 1.183-1.262 1.507-2.286.671-2.391.64-3.177-.942-.651-1.311-1.127-1.477-4.687-1.633-3.746-.164-4.123-.058-6.892 1.931-2.875 2.066-5.637 2.562-5.295.951.09-.421-.37-.905-1.021-1.076-.651-.17-1.184-.541-1.184-.825 0-.628-4.698-.621-10.213.017-2.247.259-4.348.27-4.67.023-.781-.601-10.993.065-10.38.677.264.264 1.526.725 2.805 1.024 2.132.499 2.179.55.573.611-4.04.154-5.765 1.431-2.903 2.149 1.883.473 2.978 2.305 1.677 2.804-1.68.644-3.735.377-3.735-.486 0-.937-2.005-1.77-2.912-1.21-1.22.754-.616 3.014 1.003 3.751 1.422.648 1.483.787.57 1.297-.56.314-.86.83-.665 1.145.669 1.083-1.052 2.273-3.286 2.273-1.615 0-2.471.343-3.102 1.245-.742 1.059-.992 1.124-1.671.438-.44-.444-.973-1.267-1.185-1.829-.525-1.385-3.991-1.571-5.545-.297-.93.763-8.67.181-9.773-.735-.977-.811-2.882.082-3.788 1.775-.34.634-1.002 1.154-1.472 1.154-.471 0-.855.52-.855 1.156 0 .746-.517 1.286-1.46 1.522-.802.201-1.458.706-1.458 1.121 0 .416-.827 1.044-1.838 1.396-2.158.752-2.248.762-2.248.249v-.001zm10.247-9.802c.817-.618.898-.862.292-.876-1.29-.028 1.18-1.728 2.543-1.751 1.73-.028.89-.4-1.858-.821-2.447-.375-2.488-.353-2.366 1.249.068.896-.074 1.951-.316 2.343-.603.975.329.897 1.705-.144zm12.95.489c.723-.194 1.314-.673 1.314-1.066 0-.856-2.33-1.994-3.356-1.639-.401.138-.73.529-.73.868 0 .339-.46.966-1.02 1.392-.922.7-.851.776.729.786.963.006 2.342-.148 3.064-.341zm.996-4.258c.205-.332 1.062-.332 2.219 0 1.037.297 1.945.54 2.02.54.588 0 1.912-3.812 1.589-4.575-.225-.533-.441-2.085-.478-3.449-.053-1.922-.293-2.481-1.064-2.481-.547 0-1.651-.298-2.452-.664-2.105-.959-5.823.797-5.284 2.496.276.87.059 1.25-.848 1.487-1.577.413-1.546 1.013.093 1.812l1.313.641-1.33.396c-1.03.307-1.243.677-.948 1.638.209.682.414 1.267.454 1.3 1.565 1.275 4.166 1.749 4.716.859zm-37.033-8.156c2.013-1.458 2.297-3.129.49-2.875-.844.118-1.311-.083-1.223-.526.174-.884-3.16-2.693-3.612-1.96-.18.291-.167.947.029 1.457.2.522.058.928-.324.928-.375 0-.52.263-.32.584.198.321.086.583-.251.583-.753 0-.552 2.46.25 3.07.81.615 3.217 0 4.96-1.261zm22.76-5.018c1.44-.823 1.427-.835-1.002-.855-1.954-.017-2.393.16-2.126.855.415 1.08 1.239 1.08 3.129 0zm-27.783-2.966c.663-1.726.405-2.561-.667-2.165-2.028.748-2.628 3.088-.792 3.088.608 0 1.265-.415 1.459-.923zm-3.731-1.703c0-.482-.262-.876-.583-.876-.321 0-.584.394-.584.876 0 .481.263.875.584.875.32 0 .583-.394.583-.875zm178.718 14.86c5.03-.088 5.588-.327 6.167-2.632.264-1.054.209-1.554-.147-1.334-.314.194-4.62.624-9.57.956-4.948.331-9.391.694-9.872.807-.482.113 5.024-12.803 3.832-12.558-1.193.246-2.464.803-2.825 1.238-.548.66-6.247 13.968.253 13.8 4.282-.11 9.755-.235 12.162-.277zm15.54-.022c.042-.02.412-.849.824-1.842.618-1.492.61-1.889-.048-2.295-.437-.271-1.068-.323-1.401-.116-.334.206-1.66.386-2.946.399-1.974.02-2.368.229-2.526 1.34-.112.787.18 1.456.726 1.666.502.192.758.601.569.907-.253.409 3.942.356 4.803-.06v.001zm-177.59-27.659c1.48-1.12 3.187-1.113 4.802.018 1.677 1.175 5.009.898 5.262-.437.105-.554-7.34 11.799-8.177 11.25-1.672-1.096-5.586-1.669-5.586-.819a.562.562 0 0 1-.566.553c-.31 0-.41-.404-.22-.899.19-.495.116-.857-.164-.806-2.373.433-3.124-1.581-.936-2.511l1.594-.678-1.523-.21c-1.585-.218-3.271-2.502-2.622-3.553.205-.331 1.544-.482 3.01-.339 2.735.268 5.15-.548 4.794-1.618-.112-.338-1.507-.688-3.1-.777-1.591-.089-3.683-.34-4.648-.558-2.02-.457-3.671.676-5.01 3.433-.452.934-1.216 1.878-1.698 2.098a65.79 65.79 0 0 0-2.18 1.075c-.718.371-2.031.676-2.918.678-.887.002-2.401.526-3.364 1.164-.963.637-1.454 1.161-1.09 1.163.363.002 1.48.843 2.484 1.87 1.49 1.525 9.577-11.163 13.51-10.351 6.144 1.27 6.97 1.295 8.346.254zm270.134 18.402c.363-.364-.022-1.108-1.083-2.092-1.798-1.667-2.28-1.828-2.826-.944-.2.321-1.512.584-2.918.584-3.121 0-3.885.959-1.99 2.496 1.16.941 2.003 1.086 4.829.83 1.883-.17 3.677-.564 3.988-.874zm3.969-1.212c0-.281.854-.687 1.897-.903 1.808-.374 1.844-.432.764-1.24-1.731-1.295-3.407-1.114-2.953.319.259.815.105 1.167-.51 1.167-.484 0-1.042.263-1.24.584-.2.321.18.584.84.584.66 0 1.202-.23 1.202-.511zm88.275-.444c.886-.169 1.479-.52 1.319-.78-.161-.259.625-.644 1.745-.854 1.12-.21 2.038-.602 2.038-.871 0-.958-2.618-1.158-3.926-.3-.73.478-1.327.738-1.327.578 0-.16-.722-.024-1.605.302l-1.604.593 1.604-1.405c.883-.773 1.605-1.638 1.605-1.924 0-.666-2.858-1.928-4.377-1.933-.642-.002-1.982-.166-2.977-.366-1.316-.264-2.62.047-4.774 1.139-3.713 1.881-3.978 2.319-2.004 3.314.872.44 2.026 1.237 2.566 1.771.784.777 1.486.876 3.5.497 1.388-.261 2.982-.652 3.543-.87.596-.231 1.022-.127 1.022.25 0 .356-.394.646-.876.646-.481 0-.875.284-.875.63 0 .398.699.494 1.897.26 1.043-.203 2.62-.508 3.506-.677zm-359.658-8.223c.86-.492 1.1-.84.584-.847-1.502-.022-3.502.667-3.502 1.206 0 .75 1.246.597 2.918-.359zm312.66 6.593c2.749-.553 8.313-2.991 8.32-3.647.012-.909-6.326-3.258-7.951-2.948-.885.17-1.18.005-.97-.541.535-1.393-1.972-1.203-5.507.417-1.361.623-2.74 1.133-3.064 1.133a.589.589 0 0 0-.59.584c0 .321-.657.583-1.46.583-.802 0-1.458.263-1.458.584 0 .321.262.584.583.584.32 0 .584.262.584.583 0 .321-.772.584-1.716.584-1.777 0-2.816.822-1.82 1.438.314.194 2.436.448 4.717.564 2.28.117 4.327.394 4.547.615.362.363 2.144.199 5.786-.533zm9.789-2.084c.198-.321-.034-.584-.515-.584-.482 0-1.038.263-1.236.584-.2.321.033.583.514.583.482 0 1.038-.262 1.237-.583zm-22.413-3.116c1.796-.854 3.462-1.553 3.7-1.553.24 0 1.104-.525 1.92-1.167l1.484-1.167-2.85-.121-5.477-.229c-1.445-.06-4.15-.531-6.011-1.047-5.681-1.574-7.827-.945-7.747 2.272.036 1.478-.161 1.729-1.27 1.612-.722-.077-1.313.12-1.313.438 0 .317.59.584 1.313.593.722.009 2.757.53 4.523 1.157 4.072 1.448 7.509 1.217 11.728-.788zm27.373 1.365c.682-.441.52-.568-.73-.575-.882-.005-1.604.254-1.604.575 0 .738 1.192.738 2.334 0zm84.83-.558c.387-.387.23-.969-.465-1.739-.576-.636-1.227-2.021-1.447-3.077-.347-1.67-.624-1.912-2.12-1.854-2.427.094-8.61 1.407-9.306 1.976-.321.263-1.934.209-3.583-.118-2.691-.534-3.122-.473-4.183.588-1.395 1.395-1.106 1.864 1.15 1.864 1.082 0 1.655-.303 1.655-.875 0-.482.394-.876.875-.876.5 0 .876.525.876 1.222 0 1.136.215 1.194 3.064.821 2.746-.36 2.949-.315 1.954.439-1.222.926-.874 1.339 1.885 2.236 1.92.625 8.849.189 9.645-.607zm-412.822-8.422c0-.653-.756-.617-2.715.127-1.224.466-1.426.739-.821 1.113.859.531 3.536-.408 3.536-1.24zm378.347 7.451c3.763-1.89 3.788-1.914 2.736-2.579-.628-.397-.31-.552 1.184-.576 1.124-.019 2.916-.499 3.984-1.068 2.707-1.444 1.41-2.299-3.254-2.147-2.006.066-3.648.057-3.648-.019s.854-.713 1.897-1.417c1.043-.703 1.37-1.112.729-.908-3.001.952-11.895 4.664-12.85 5.363-1.591 1.163-.513 1.729 1.638.86 7.2-2.909 7.419-2.962 7.419-1.814 0 .587.328 1.2.73 1.362.4.162-.07.315-1.044.341-2.211.057-8.046 2.073-8.312 2.871-.186.558 1.379.973 4.414 1.173.733.048 2.703-.601 4.377-1.442zm48.414-1.561c1.843-.768 3.178-1.568 2.967-1.779-.211-.211-1.6-.383-3.087-.383-1.488 0-2.954-.25-3.26-.554-.304-.305-1.611-.723-2.903-.929-1.85-.296-2.652-.13-3.774.778-1.155.935-1.291 1.316-.72 2.005.388.467.533 1.022.322 1.234-.211.211.069.384.623.384.613 0 .844.263.59.674-.681 1.103 5.433.156 9.242-1.43zm-7.882.1c.396-.399.866-.579 1.046-.399.18.18-.144.506-.72.725-.831.317-.898.25-.326-.326zm46.636-2.726c1.237-.656 3.104-1.541 4.147-1.966 2.565-1.046 2.399-1.862-.292-1.439-4.83.76-6.994.978-11.494 1.156-2.806.111-5.406.556-6.451 1.104l-1.75.918 2.183.409c1.2.226 2.58.258 3.063.072.559-.214.88.004.88.6 0 .794.57.891 3.732.637 2.1-.168 4.715-.82 5.982-1.491zm126.266-.073c10.874-.806 50.739-1.335 59.077-.784 4.622.306 8.886.211 13.13-.291 3.459-.409 7.994-.772 10.08-.806 7.207-.12 18.976-1.202 21.302-1.959 3.08-1.002 11.807-1.656 20.138-1.509 3.693.065 8.026-.184 9.629-.553 4.045-.932 11.96-1.345 11.96-.625 0 .317.46.489 1.022.382.562-.108 2.773-.363 4.913-.567 7.22-.689 23.305-3.231 24.3-3.84.706-.431-.683-.521-4.847-.315-3.21.158-11.351.444-18.092.634-11.406.322-15.326.605-28.305 2.044-13.821 1.532-17.213 1.612-46.104 1.093-14.97-.269-23.48.265-24.767 1.552-1.372 1.372-32.815 1.666-46.433.433-18.023-1.631-42.02-1.042-42.02 1.032 0 .292-.722.566-1.604.61-1.284.064-1.354.128-.352.325.69.134 1.377.716 1.528 1.292.335 1.28 2.742 1.702 12.392 2.172 3.852.188 7.063.394 7.135.459.22.198 7.635-.165 15.918-.779zM48.31 183.042c-.422-.169-.925-.148-1.12.046-.193.194.152.332.767.307.68-.028.818-.167.353-.353zm546.672 6.623c.14-.141-.722-.256-1.918-.256s-2.023.244-1.84.543c.314.506 3.185.286 3.758-.287zm-47.936-.402c-.284-.866-3.943-1.352-3.943-.523 0 .706 1.029 1.146 2.82 1.206.843.029 1.27-.232 1.123-.683zm41.419.304c-1.211-.127-3.05-.125-4.085.005-1.036.128-.046.232 2.202.229 2.246-.003 3.094-.108 1.883-.234zm-550.77-8.655c.615-.259.543-.328-.243-.233-.615.074-1.226.529-1.358 1.011-.153.563-.066.646.244.233.265-.353.876-.808 1.357-1.011zm530.414 7.601c7.367-.169 9.707-1.039 4.454-1.657-3.568-.419-9.32-1.953-14.09-3.756-2.254-.853-3.618-1.029-5.421-.699-2.927.535-3.331.88-2.374 2.033.608.733.577.89-.174.89-.502 0-1.075-.263-1.273-.584-.527-.852-3.977-.713-5.24.211-.986.72-.822.834 1.769 1.222 1.933.29 3.299.906 4.226 1.906 1.334 1.44 1.498 1.467 6.435 1.032 2.786-.246 8.046-.515 11.688-.598zm-72.861-.837c0-.311-.394-.414-.876-.229-.481.185-.875.439-.875.565 0 .126.394.23.875.23.482 0 .876-.255.876-.566zm43.583-.135c1.066-.386 1.938-.891 1.938-1.123 0-.232-3.433-.426-7.63-.43-6.463-.007-7.524.115-6.951.806.429.517 2.202.888 4.856 1.015 2.299.111 4.556.253 5.014.317.459.064 1.707-.2 2.773-.585zm-218.518-2.02c-.402-.162-1.058-.162-1.46 0-.401.162-.072.294.73.294.802 0 1.13-.132.73-.294zm106.653-4.376c0-.668-1.01-.616-2.39.123-1.654.885-.79 1.815.952 1.022.79-.36 1.438-.876 1.438-1.145zm53.248-1.216c1.89-.665 1.894-.672.444-1.064-1.386-.376-5.174-.196-8.025.38-.722.145-1.313.688-1.313 1.205 0 .803.507.882 3.496.544 1.922-.218 4.352-.697 5.398-1.065zm41.004-5.11c.198-.321-.18-.584-.841-.584s-1.202.263-1.202.584c0 .321.379.583.84.583.464 0 1.005-.262 1.203-.583zm276.336-4.117c18.752-1.443 21.038-2.531 4.375-2.083-15.204.409-20.716.966-20.716 2.092 0 .606 4.046 1.082 6.712.789.963-.106 5.296-.465 9.629-.798zm130.698-1.236c-.422-.168-.925-.147-1.12.047-.193.193.152.331.767.306.68-.028.818-.166.353-.353zm-429.887-23.351c2.737-1.403 2.13-2.019-1.108-1.125-1.18.326-2.837.457-3.682.292-.91-.177-2.014.068-2.704.601-1.012.78-1.051.983-.292 1.516 1.184.832 4.83.231 7.786-1.284zm5.783 1.244c1.203-.335 2.188-.858 2.188-1.164 0-1.182-6.266-.165-7.85 1.274-.774.705 2.992.631 5.662-.11zm169.3-1.643c1.024-.403 1.027-.467.058-1.272-1.52-1.262-17.768-1.624-17.768-.395 0 1.134 3.187 1.616 8.082 1.223 2.838-.228 3.647-.145 3.007.31-.662.47-.091.615 2.334.59 1.766-.017 3.695-.223 4.288-.456zM515.13 143.53c2.202-.654 4.558-.862 7.714-.679 4.764.275 4.97-.006 1.356-1.848-1.9-.969-2.685-1.045-5.8-.557-1.981.31-4.39.796-5.353 1.078-.962.283-2.742.681-3.955.885-2.395.403-2.507 1.477-.127 1.216.8-.088 1.456.066 1.456.343 0 .73 1.13.625 4.709-.438zm199.078-2.375c-.421-.169-.924-.148-1.118.046-.194.194.15.332.766.306.68-.028.818-.166.352-.352zm4.56-.309c0-.253-.672-.46-1.494-.46-.821 0-1.341.246-1.156.547.402.649 2.65.575 2.65-.087zm-695.926-1.402c-.264-2.411-2.124-3.206-4.107-1.756-1.034.756-.961.877 1.2 2.017 2.97 1.566 3.107 1.554 2.907-.261zm711.935.866c8.334-1.04 8.056-1.772-.544-1.433-7.7.303-8.906.44-12.547 1.422-3.102.837 6.407.844 13.09.011zm68.577-3.77c.842-.886.645-.932-2.59-.611-1.926.191-5.53.519-8.01.73-2.8.239-4.371.607-4.144.973.232.376 2.803.458 7.098.228 5.146-.276 6.949-.587 7.646-1.32zm6.164-.823c-.198-.321-.87-.583-1.493-.583-.624 0-1.133.262-1.133.583 0 .321.672.584 1.493.584.847 0 1.338-.253 1.133-.584zm-273.864-2.409c-.76-.723-7.141-1.281-7.141-.625 0 .332.328.731.729.889 1.12.438 6.9.201 6.412-.264zm65.226-.527c0-1.015-1.633-1.302-4.53-.798l-2.765.482 3.21.364c1.765.2 3.406.407 3.647.459.24.052.438-.176.438-.507zm-152.337-.543c1.036-.655.717-.795-3.957-1.736-2.476-.498-3.412-.456-4.668.209-1.17.618-1.348.91-.696 1.139 2.616.922 8.116 1.15 9.32.388zm413.798 5.482c5.355-.727 6.772-1.326 4.869-2.056-.452-.173-28.162-6.037-31.79-5.533-3.628.505-7.822.918-9.32.918-1.791 0-2.991.321-3.503.938-.708.853-.305.912 4.45.654 2.878-.155 32.164 5.504 35.294 5.079zm41.29.092c0-.987-.371-1.101-3.1-.949-6.802.378-7.245 2.046-.548 2.062 3.213.008 3.648-.125 3.648-1.113zm7.708.387c-1.403-.449-2.104-.433-2.597.06-.512.511-.044.661 1.92.616l2.598-.06-1.921-.616zm-371.355-6.884c.48-1.255.006-1.553-1.773-1.107-1.754.44-2 1.215-.506 1.605 1.76.461 1.924.425 2.279-.498zm114.17-.078c.265-.163 2.928-.271 5.92-.24 4.259.045 5.6-.14 6.19-.85.68-.818-.282-.872-9.7-.543-6.868.24-11.22.654-12.682 1.207-1.225.464-2.43.718-2.676.565-.247-.153-1.215-.046-2.15.238-1.075.326 1.304.406 6.459.218 4.488-.164 8.376-.432 8.64-.595zm-62.612-.544c0-.125-.92-.228-2.042-.228-1.124 0-2.043.21-2.043.466 0 .257.919.359 2.043.228 1.123-.131 2.042-.341 2.042-.466zm106.07-.073c-1.525-.121-4.02-.121-5.544 0-1.525.12-.277.218 2.772.218s4.297-.098 2.772-.218zm-64.371-.705c-.305-.302-2.46-.681-4.786-.841-3.431-.236-4.231-.132-4.231.55 0 .664 1.007.841 4.785.841 2.997 0 4.579-.206 4.232-.55zm-175.476-.523c.57-.362.477-.712-.396-1.503-1.207-1.092-2.195-.977-5.763.673-1.722.797-2.016.793-2.931-.035-.674-.61-1.304-.744-1.863-.398-.737.455-.735.558.013.799.473.153 1.253.409 1.735.569 1.444.482 8.406.402 9.205-.105zm148.367-.094c0-.321-.541-.584-1.201-.584-.661 0-1.04.263-.841.584.198.321.739.583 1.2.583.464 0 .842-.262.842-.583zm116.586-.838c.606-.606-4.814-.32-5.701.301-.64.448-.035.534 2.248.321 1.718-.161 3.272-.441 3.453-.622zm-132.927-1.022c2.087-.32 4.188-.669 4.669-.776a59.108 59.108 0 0 1 1.167-.247c.16-.029-.062-.278-.495-.552-1.31-.83-10.951-.801-12.293.037l-1.192.744 1.207.646c1.557.834 2.357.851 6.937.148zm-60.986-2.196c3.31-1.583 3.406-1.686 1.75-1.877-.962-.111-2.67.12-3.793.514-1.123.394-3.167.998-4.54 1.344-1.374.345-2.344.878-2.154 1.184.687 1.112 5.245.504 8.737-1.165zm-532.541-4.009c.594-.716.485-1.066-.61-1.951-1.301-1.055-3.397-1.162-6.912-.352l-1.397.322 1.333.933c1.286.901 3.94 1.736 5.912 1.86.523.033 1.276-.332 1.674-.812zm40.004-6.092c-.212-.343-1.092-.592-1.956-.555-1.21.052-1.302.132-.403.348.642.155 1.413.514 1.712.798.692.657 1.156.232.647-.591zm859.05 7.598c.17-.519-.615-.729-2.727-.729-2.781 0-3.531.408-2.55 1.389.677.677 5.016.134 5.277-.66zM50.543 109.185c0-1.299-3.443-4.735-4.384-4.374-.4.153-1 .005-1.334-.329-.79-.79-5.577-.724-5.845.08-.114.34-.578.619-1.033.619-1.103 0-1.05 2.035.099 3.788.885 1.351 1.182 1.409 6.71 1.313 5.029-.087 5.787-.231 5.787-1.097zm493.995-14.28c.467-.754-1.994-2.374-3.606-2.374-1.5 0-1.58.194-.725 1.789.634 1.185 3.704 1.6 4.33.585zm70.64-1.499c0-.321-.721-.667-1.604-.768-1.171-.135-1.605.073-1.605.768 0 .695.434.903 1.605.768.883-.101 1.605-.447 1.605-.768zm-56.648-1.395c.523-.846-2.568-2.515-4.658-2.515-1.064 0-2.918.324-4.12.721-2.032.671-2.108.776-1.094 1.517 1.228.899 9.347 1.126 9.872.277zm357.503-6.254a7.16 7.16 0 0 0-3.793 0c-1.661.479-1.425.548 1.897.548 3.32 0 3.557-.069 1.896-.548zm27.87-2.265c0-.321-.51-.584-1.13-.584-.63 0-1.3.263-1.5.584-.2.331.29.583 1.13.583.83 0 1.5-.262 1.5-.583zM515.529 58.314c2.076-.556 1.574-1.581-.566-1.153-2.241.448-3.583 1.525-1.885 1.513.626-.005 1.729-.167 2.45-.36zm-92.647-1.383c0-.321-.394-.584-.876-.584h-1.313c-.24 0-.525.263-.632.584-.107.321.484.584 1.313.584s1.508-.263 1.508-.584zm519.33-1.368c1.27-1.023 4.75-1.035 4.75-.017 0 .984 2.96.643 6.33-.728 1.08-.438 2.19-.652 2.48-.475.29.177.52.045.52-.296 0-.339.4-.618.88-.618s.87-.518.87-1.167c0-1.323.1-1.313-13.57-1.405-8.23-.055-9.108.214-6.89 2.114.81.689 1.21.769 1.41.276.16-.381.31-.233.33.328.03.562-.35 1.022-.83 1.022-.49 0-.87.524-.87 1.213 0 1.064.23 1.164 1.89.808 1.05-.223 2.26-.698 2.7-1.055zm-319.307-1.916c1.708-.458 1.107-1.383-.903-1.391-.864-.005-2.884-.416-4.49-.917-7.48-2.334-21.083-.946-14.21 1.45 2.343.816 6.63.821 9.255.01 2.83-.875 5.887-.732 6.944.325.974.974 1.449 1.047 3.404.523zm63.58-.286c-1.45-.844-19.567-1.453-18.782-.632.84.879 3.087 1.1 11.964 1.179 5.788.051 7.597-.094 6.818-.547zm-120.626-.453c.799-.222 1.193-.555.875-.74-.318-.185-1.628-.005-2.912.401-1.757.556-1.974.739-.875.741.802 0 2.112-.179 2.912-.402zm-533.944-2.55c.264 0 .343-.525.176-1.167-.225-.857-.016-1.171.784-1.18.599-.007 1.746-.527 2.548-1.154.802-.628 1.787-1.148 2.189-1.155.4-.007.729-.231.729-.498 0-.266.657-.836 1.459-1.265.803-.43 1.459-1.105 1.459-1.501 0-.865 3.03-2.001 5.34-2.001 1.243 0 1.663-.279 1.663-1.105 0-1.414-1.632-2.053-2.795-1.094-.714.59-.946.592-1.142.01-.135-.401-.88-.729-1.656-.729-.775 0-1.44.328-1.477.729a12.01 12.01 0 0 1-.203 1.313c-.075.321-.176.978-.225 1.459-.067.658-.991.911-3.715 1.016-2.873.112-3.898.415-4.933 1.459-.72.726-1.713 1.658-2.21 2.071-1.281 1.068-1.118 2.416.358 2.962 1.079.399 1.12.52.292.838-.533.205-.97.671-.97 1.036 0 .366.416.506.924.31.508-.194 1.14-.354 1.405-.354zm898.362 1.55c2.557-.981.054-1.397-8.414-1.397-6.15 0-9.338.21-9.338.615 0 .379 1.45.567 3.798.491 2.09-.068 3.972.05 4.183.261.483.483 8.527.507 9.77.03zm-416.353-1.284c0-.26-1.031-.926-2.29-1.482-1.26-.556-3.558-2.179-5.107-3.608-2.965-2.734-.191-19.558-2.023-18.578-1.107.593-1.104.641.148 2.335 1.088 1.471-1.79 18.302.447 18.302 2.416 0 2.537.067 1.495.832-1.1.808-1.091.847.327 1.375.802.299 1.853.692 2.334.873 1.359.512 4.669.477 4.669-.049zm138.897-1.272c1.347-.083 1.369-.129.292-.592-1.617-.695-18.475-.695-19.55 0-.628.406.033.583 2.334.626 1.765.033 4.523.235 6.128.449 1.605.213 4.362.212 6.128 0 1.765-.215 3.866-.431 4.668-.481v-.002zm63.176.773c-.402-.162-1.058-.162-1.46 0-.401.162-.072.294.73.294.802 0 1.13-.132.73-.294zm26.804.018c2.014-.333 2.113-.447 1.589-1.825-.307-.809-.486-1.527-.397-1.595 1.34-1.031 3.367-1.256 9.419-1.043 3.897.136 7.45.366 7.897.511 1.336.431.19 1.037-2.734 1.446-1.511.211 4.818.419 14.066.462 11.12.051 16.69-.121 16.45-.508-.2-.322-.964-.434-1.701-.25-.82.206-2.081-.114-3.25-.825-1.051-.639-2.244-1.034-2.651-.878-.407.156-.94-.038-1.182-.431-.33-.534.059-.62 1.546-.341 1.472.276 1.73.221.997-.213-.556-.328-2.078-.411-3.466-.189-2.113.338-2.288.465-1.198.868.703.26 1.257.809 1.23 1.221-.035.586-.11.59-.34.019-.161-.401-.775-.73-1.363-.73-.59 0-1.17-.294-1.29-.654-.126-.381-2.038-.738-4.57-.853a484.09 484.09 0 0 1-8.44-.471c-15.145-1.009-23.38-1.067-25.497-.18-1.938.813-2.228.813-2.9.005-.63-.759-1.792-.836-7.475-.498-10.134.603-29.191.46-37.02-.277-7.71-.726-10.41-.459-9.048.895.533.531 2.74.923 6.304 1.121 3.015.167 5.588.41 5.717.539.129.129-.697.409-1.836.622-2.018.379-2.802 1.205-1.34 1.412 6.14.87 8.938 1.064 12.11.841 2.086-.147 5.238-.275 7.003-.285 7.677-.044 8.747.097 9.765 1.286.929 1.085 1.717 1.167 11.228 1.161 5.627-.005 11.196-.167 12.377-.362v-.001zm-195.863-1.448c.616-.997-1.008-1.724-2.96-1.324-2.242.461-2.723.758-2.308 1.43.473.765 4.783.678 5.268-.106zm-15.98-1.598c2.096.125 8.738-1.262 10.379-2.167 1.33-.734.987-.786-3.485-.527-2.73.159-5.75.523-6.712.811-.963.288-2.473.683-3.356.879-1.1.243-1.604.724-1.604 1.526 0 1.108.092 1.123 1.714.285.944-.488 2.322-.851 3.064-.807zm35.952-.277c2.57-1.057 3.05-1.481 2.862-2.534-.204-1.147-.085-1.208 1.289-.656 1.82.731 6.456.621 7.416-.176.378-.314.912-.509 1.187-.435 1.23.336 3.125-.84 3.125-1.94 0-1.09-.238-1.15-3.064-.763-1.685.23-3.72.691-4.523 1.024-.802.333-1.721.541-2.042.462-.321-.078-2.291-.28-4.377-.447-2.087-.167-4.043-.539-4.348-.826-.933-.879-3.408-.637-3.05.298.467 1.214-1.713 3.012-2.68 2.211-1.348-1.12-9.21-1.028-12.683.148l-2.626.888 2.334-.285a79.856 79.856 0 0 0 4.184-.634c1.53-.289 2.083-.074 3.21 1.249 1.795 2.109 6.529 4.197 8.864 3.911 1.009-.124 3.224-.797 4.922-1.495zm28.84 1.295c-1.044-.916-4.7-1.689-7.99-1.689-3.863 0-4.731.342-3.778 1.49.412.496 2.415.697 6.39.642 3.186-.044 5.605-.243 5.378-.443zm236.238.03c1.444-.207 2.232-.447 1.75-.533-.481-.086-1.072-.126-1.313-.088-.24.038-.372-.259-.291-.66.08-.401-.18-.665-.577-.586-.432.086-.666-.383-.583-1.167.13-1.239-.097-1.32-4.168-1.484-4.141-.166-4.294-.125-3.982 1.067.243.929.107 1.157-.54.91-.473-.183-.72-.102-.546.179.488.79-1.256 1.958-3.641 2.438-2.683.541 10.079.47 13.89-.076zm-6.566-3.273c.4-.161 1.058-.161 1.459 0 .4.162.073.295-.73.295-.802 0-1.13-.133-.73-.295zm-379.087 2.906c-.421-.168-.924-.148-1.118.046-.194.194.15.332.766.307.68-.028.818-.166.352-.353zm72.169-.485c.664-.664-.89-1.45-2.864-1.45-2.407 0-3.32 1.387-1.278 1.943.975.265 3.709-.06 4.142-.493zm318.152.335c0-.689-1.138-1.425-1.556-1.007-.418.418.319 1.556 1.007 1.556.302 0 .55-.247.55-.549zm6.712-.618c-.198-.321-.105-.584.209-.584.313 0 .678.326.81.724.17.511.564.402 1.336-.369.602-.602 1.184-.825 1.294-.495.236.706 2.479.243 2.479-.511 0-.284-1.03-.516-2.287-.516-1.258 0-2.768-.173-3.356-.385-.588-.211-.874-.17-.636.092.592.653-.708 2.123-1.464 1.655-.353-.218-.433-.093-.192.299.229.37.81.673 1.292.673s.713-.262.515-.583zm20.134.02c1.445-.021 3.02-.297 3.502-.613 1.56-1.025-.548-1.729-4.368-1.458-1.921.137-5.018.303-6.883.371-1.864.067-3.528.346-3.697.619-.168.273-.548.347-.843.164-.295-.182-.384.067-.197.553.276.719 1.23.84 5.1.643 2.618-.132 5.942-.258 7.386-.279zm46.105-1.499c3.489-.437 7.403-1.817 6.816-2.405-.202-.202-4.025-.024-8.497.396-6.573.617-8.07.921-7.812 1.59.467 1.218 2.509 1.794 4.519 1.275.97-.25 3.209-.636 4.974-.856zm-119.785-.056c2.462-.66 1.322-1.391-1.75-1.123-1.686.147-3.261.28-3.502.295-.241.016-.438.291-.438.612 0 .639 3.602.775 5.69.216zm137.147-.035c-.562-.147-1.481-.147-2.042 0-.562.147-.103.267 1.02.267 1.124 0 1.584-.12 1.022-.267zm-88.562-1.349c0-1.205-1.946-1.684-2.592-.638-.18.291.198.392.84.224.813-.212 1.169-.018 1.169.638 0 .519.13.944.292.944.16 0 .29-.526.29-1.168zm-208.083-.651c.323-.301-1.498-.496-4.377-.468-4.673.045-4.84.089-3.181.856 1.817.839 6.495.599 7.558-.388zm42.048-.187c-5.31-3.191-5.645-3.291-10.683-3.192-3.19.063-4.97.34-5.147.8-.188.49-1.902.671-5.643.595-6.334-.127-7.654.177-5.214 1.203 2.257.949 6.788 1.307 7.043.557.109-.321 1.948-.882 4.085-1.247 3.354-.572 4.087-.533 5.346.286 2.558 1.663 4.86 2.279 8.754 2.341l3.794.06-2.335-1.403zm139.335 1.036c-.401-.162-1.057-.162-1.46 0-.4.161-.072.294.73.294.803 0 1.132-.133.73-.294zm6.274-.198c0-.321-.853-.565-1.896-.542-1.59.034-1.708.122-.73.542 1.612.693 2.626.693 2.626 0zm4.085.125c0-.253-.787-.52-1.75-.593-.963-.074-1.751.133-1.751.459s.788.593 1.75.593c.964 0 1.75-.207 1.75-.459zm11.964-.125c.2-.325-.235-.579-.987-.574-1.084.007-1.176.119-.472.574 1.086.702 1.026.702 1.459 0zm-220.784-.982c-.421-.168-.925-.148-1.12.046-.193.194.152.332.767.307.68-.028.818-.167.353-.353zm232.718-.577c.143-.125-.58-.163-1.605-.085-1.027.078-1.866.354-1.866.613 0 .432 2.87-.005 3.47-.528zM483.744 6.967c.309-.923.957 17.677.958 18.596 0 .378.892.671 2.042.671 2.543 0 2.58-.491.146-1.884-1.043-.597-2.46-1.592-3.146-2.21-1.937-1.744-4.843-1.215-6.207 1.131-.602 1.034-.928 2.151-.724 2.48.523.846 6.638-17.907 6.93-18.784zm36.125 35.559c-.421-.169-.924-.148-1.118.046-.194.193.15.331.766.306.68-.028.818-.166.352-.352zm82.872 0c-.421-.169-.925-.148-1.12.046-.193.193.152.331.767.306.68-.028.819-.166.353-.352zm273.229-1.648c2.13-1.111 2.659-1.095 3.998.117 1.032.934 1.07.929.676-.096-.288-.752-.206-.955.267-.662.376.232.683.174.683-.128 0-.876-2.14-1.204-6.026-.924-7.716.557-10.362 1.215-8.234 2.048 1.94.76 6.889.556 8.636-.355zm33.45-.051c3.053-.314 4.373-1.21 4.673-3.171.235-1.542-1.411-1.698-4.697-.447-1.74.663-3.095.88-3.502.561-1.952-1.53-6.566-1.146-9.525.794l-1.54 1.009 1.279.684c.704.377 1.14.825.969.996-.341.341 7.535.069 12.343-.426zM492.99 23.503c.424-.604 1.292-1.23 1.93-1.392.946-.239.885-.306-.326-.361-.82-.038-1.842.26-2.274.662-.464.43-.634.457-.415.065.225-.401-.261-.791-1.227-.986-.88-.177-2.36-.507-3.288-.733l-1.69-.411 1.324 1.323c1.28 1.28 3.965 2.919 4.794 2.927.222 0 .75-.491 1.173-1.094zM601.61 39.62c-.401-.162-1.058-.162-1.46 0-.4.162-.072.294.73.294.803 0 1.132-.132.73-.294zm317.335-.489c-.353-.706-4.143-.417-4.961.378-.38.369.436.504 2.334.386 1.699-.105 2.796-.425 2.627-.764zm-341.833-.367c-.363-.362-2.582-.772-4.932-.91-3.945-.233-4.186-.183-3.14.658 1.382 1.111 9.174 1.354 8.072.252zM432.11 36.881l1.35-.749-2.257-1.565c-2.231-1.546-3.922-1.867-6.372-1.21-1.19.319-1.204.392-.256 1.34 2.96 2.96 5.046 3.565 7.535 2.184zm425.555-6.466c4.146-.526 11.427-1.263 14.153-1.433 1.082-.068 1.159-.186.437-.675-1.075-.729-23.953-.154-26.614.669-2.65.819-3.813 1.002-9.137 1.439-2.645.217-4.941.519-5.101.671-.337.318 23.202-.283 26.262-.671zm-329.25-.348c.907-.016.907-.056 0-.584-1.08-.63-2.822-.18-2.822.727 0 .321.415.424.923.229a6.692 6.692 0 0 1 1.896-.372h.003zm118.278-.534c.32-.232 6.23-.469 13.13-.528 6.902-.058 13.04-.261 13.642-.451.602-.19 1.283-.039 1.514.334.316.512 2.422.528 8.535.065 4.464-.338 8.773-.607 9.575-.598 1.349.015 1.38.075.42.804-.907.689-.924.832-.132 1.135 1.012.389 19.553-.063 23.628-.576 2.393-.301 2.52-.396 1.514-1.133-1.66-1.213-6.947-2.602-11.014-2.895-17.763-1.276-33.008-1.638-38.635-.918-10.006 1.281-24.103 1.501-29.83.466-9.325-1.685-33.805-2.419-37.577-1.126-3.271 1.122-6.95 1.003-12.107-.393-2.647-.717-5.384-1.219-6.082-1.116-1.915.282-1.973 1.554-.09 1.943.906.187 2.595.59 3.753.896 4.37 1.153 10.032 1.289 13.718.329 5.275-1.374 14.055-1.697 17.525-.644 1.559.473 3.403.863 4.099.866.695.005 1.352.259 1.459.567.176.508 4.508 1.012 9.824 1.142 1.298.032 2.677.596 3.786 1.549 1.6 1.377 2.03 1.467 5.252 1.102 1.93-.219 3.772-.588 4.093-.82zm116.429-.077c4.333-.345 9.717-.643 11.963-.663 5.485-.047 7.72-.94 2.627-1.05-2.087-.045-4.32-.192-4.961-.326-3.683-.771-27.477.064-44.938 1.577-.641.056 2.379.39 6.712.742 8.868.721 17.04.641 28.597-.28zM579.98 27.352c-.421-.169-.924-.148-1.118.046-.194.194.15.332.766.306.68-.028.818-.166.352-.352zm-1.276-2.111c0-1.376-1.367-2.159-3.764-2.156l-2.364.005 1.75 1.435c1.886 1.545 4.378 1.954 4.378.718v-.002zm319.657-.229c-.567-.148-1.355-.139-1.75.021s.069.281 1.032.269c.963-.012 1.286-.142.718-.29zm6.95-.763c.475 0 .723-.227.55-.505-.41-.666-3.257-.11-3.257.635 0 .318.415.419.923.224.507-.195 1.31-.354 1.785-.354zm-474.86-1.728c1.294-.818.425-1.273-2.643-1.383-1.667-.06-2.856.172-3.001.586-.384 1.087 4.169 1.73 5.645.797zm5.568-.616c.2-.326.617-.438.924-.249.306.19 1.404.15 2.44-.089 1.855-.428 1.86-.44.423-.86-1.606-.47-5.836-.687-5.836-.299 0 .134.16.659.355 1.167.404 1.054 1.156 1.2 1.694.33zm475.847-2.775c.202-.32 1.446-.704 2.764-.855 1.318-.15 2.665-.439 2.993-.642.908-.561 1.28-2.613.527-2.9-1.88-.718-13.796 1.963-13.796 3.104 0 .273-.59.687-1.313.92-1.13.363-.947.513 1.313 1.076 2.744.682 6.882.295 7.512-.703zm-465.64.096c0-.126-.394-.229-.875-.229-.482 0-.876.254-.876.565 0 .311.394.414.876.229.48-.185.875-.439.875-.565zm370.292-2.557c.205-.331-.03-.429-.55-.23-1.01.388-1.195.807-.356.807.302 0 .71-.26.906-.577zm23.057-.029c.48-.096-1.357-.339-4.086-.539-5.951-.436-17.508-.041-17.508.598 0 .413 19.512.359 21.594-.059zm-385.18-1.145c0-.321 5.887-9.641 5.387-9.641-.501 0-7.043 9.32-6.845 9.641.199.321.608.583.91.583.302 0 .549-.262.549-.583zm469.409-1.435c-.167-1.88.906-3.231 2.602-3.275.87-.023 2.11-.267 2.752-.543.915-.393.656-.51-1.202-.542-1.303-.023-2.878.344-3.502.816-.623.471-1.551.865-2.063.875-.512.01-1.402.539-1.978 1.175-.872.964-.92 1.308-.286 2.072 1.095 1.32 3.807.894 3.677-.578zm-518.987 7.968c-.421-.168-.925-.148-1.12.046-.193.194.152.332.767.307.68-.028.819-.166.353-.353zM456.023 4.22c0-.825-4.83 14.705-5.911 14.705-1.03 0-1.43 1.177-.662 1.946.55.549 6.573-16.088 6.573-16.651zm89.999 8.418c1.777-.494 1.82-1.306.115-2.156-.701-.349-1.791-1.103-2.422-1.674-.876-.793-1.671-.948-3.36-.654-5.688.99-7.044 2.833-2.312 3.142 1.907.124 2.727.431 2.727 1.021 0 .907 2.579 1.065 5.252.321zm-149.945 6.206c-2.623-1.205-4.792-1.018-4.792.412 0 .642.847.825 3.647.787l3.648-.049-2.503-1.15zm66.2-.356c-.89-3.191-12.671 21.5-13.167 21.5-.781 0 10.913-23 11.764-21.638.894 1.432 1.79 1.52 1.404.138zm303.764-6.719c0-.123-.526-.361-1.168-.529-.642-.167-1.167-.067-1.167.224 0 .291.525.529 1.167.529s1.168-.101 1.168-.224zM586.538 9.951c-.025-.321-1.164-.997-2.531-1.502-2.068-.764-2.945-.802-5.208-.228-3.7.938-4.02 2.467-.57 2.716 3.616.26 8.36-.303 8.309-.986zM379.7 41.739c-1.15-.743-3.501-.743-3.501 0 0 .321 12.569-24.568 13.773-24.573 1.627-.006-9.621 24.994-10.272 24.573zm10.505-1.055c0-.26-.354-.956-.786-1.548-.545-.745-.914-.869-1.202-.403-.582.942-2.097.84-2.097-.141 0-1.018-1.27-1.522-3.841-1.522-2.062 0-2.335.311-1.473 1.673.758 1.195 9.399 2.98 9.399 1.941zm32.282-3.326c2.225-1.11 3.373-1.096 1.893.023-1.447 1.094-.842 1.088 1.807-.018 2.65-1.108 3.703-1.109 3.703-.005 0 .587.428.791 1.313.627.723-.135 1.773-.265 2.335-.289 1.745-.074 1.12-1.066-.876-1.392-3.792-.618-5.976-1.337-5.724-1.885.604-1.316-2.607-2.085-7.455-1.785-5.108.315-6.121.028-10.313-2.923-5.187-3.653-21.633-8.469-22.75-6.662-.203.328-.156.599.103.601.26 0 1.523.67 2.807 1.487 2.467 1.568 2.03 1.561-3.344-.054-2.796-.84-3.631-.885-5.106-.274-2.065.855-2.186 1.405-.605 2.759 1.245 1.066 5.79 2.601 6.466 2.183.39-.241 2.227-.037 13.094 1.45 12.898 1.766 14.728 2.352 10.65 3.408-1.041.271-1.975.908-2.073 1.417-.14.723.815 1.121 4.376 1.822 4.923.968 6.983.864 9.699-.491v.001zm-53.155-2.155c.177-.531 1.04-.554 3.574-.095 1.838.333 3.453.424 3.59.202.332-.537-5.753-3.492-7.191-3.492-.622 0-1.944.163-2.938.361-1.63.326-1.742.485-1.153 1.605 1.097 2.085 3.607 2.95 4.118 1.419zm12.703-2.218c0-.321-.541-.583-1.202-.583-.661 0-1.04.262-.841.583.198.321.739.584 1.202.584.462 0 .84-.263.84-.584zm-190.84-2.334c0-.321-.246-.584-.548-.584-.302 0-.711.263-.91.584-.198.321.049.584.55.584.5 0 .909-.263.909-.584zm165.138-2.224c.358-.786.518-1.561.356-1.723-.563-.563-4.71-.426-4.613.153.054.321.185.978.292 1.459.13.584-.341.938-1.41 1.061-1.497.172-1.995.689-1.316 1.368.158.159 1.582.023 3.164-.301 2.169-.444 3.036-.94 3.527-2.017zm8.777 2.295c0-.99-1.707-1.914-2.86-1.548-1.71.542-.845 2.061 1.172 2.061.928 0 1.688-.231 1.688-.513zM93.788 28.061c1.906-.734 1.824-1.021-.291-1.021-2.504 0-21.302-1.132-21.302-.336 0 1.049 18.872 2.405 21.593 1.357zm41.282-5.026c-.422-.169-.925-.148-1.12.046-.193.193.152.331.767.306.68-.028.818-.166.353-.353v.001zm66.566 2.623c1.198-1.197-5.11-1.861-10.002-1.052-2.316.383-2.871 1.119-1.167 1.548 1.343.338 10.753-.079 11.169-.496zm36.092-.08c-.568-.148-1.356-.139-1.751.021-.395.16.069.281 1.032.269.963-.012 1.287-.143.719-.29zm120.963-1.117c0-.99-.83-1.036-2.506-.138-1.231.659-1.234.685-.108 1.086 1.46.521 2.614.103 2.614-.948zm-93.085.456c1.488-.264 2.334-.728 2.334-1.279 0-.701-1.02-.869-5.364-.88-2.951-.008-5.555-.206-5.788-.438-.232-.233-1.58-.423-2.994-.423-2.14 0-2.537.172-2.366 1.021.155.769.672.976 2.089.838 1.143-.112 2.243.175 2.797.729.982.982 5.108 1.174 9.292.432zm-34.032-1.084c-.421-.169-.924-.148-1.118.046-.194.194.15.331.766.306.68-.028.818-.166.352-.352zm9.812-.128c0-.784-3.241-1.767-4.63-1.404-1.351.354-1.581 1.098-.476 1.544 1.272.513 5.106.408 5.106-.14zm114.144-.326 1.642-.851-2.596-1.178c-1.428-.648-2.925-1.184-3.326-1.191-.886-.016-.947 1.409-.126 2.943.72 1.347 2.169 1.438 4.406.277zm-45.65-2.698c2.756-1.316 4.057-1.656 4.842-1.265.59.294 2.059.587 3.262.651 1.865.098 2.189-.064 2.189-1.099 0-2.898.118 1.7-.958 3.441-.2.321-3.95-6.932-4.871-6.932-.921 0-2.085.411-2.588.913-.502.502-1.374.855-1.938.784-.564-.071-1.813.183-2.776.564-.963.38-2.08.807-2.481.948-.401.141-.73 1.052-.73 2.025 0 2.318 1.146 2.312 6.05-.03zm14.962-1.668c0-.792-1.03-1.312-1.403-.709-.35.565.156 1.258.916 1.258.268 0 .487-.247.487-.549zm17.752.195c1.537-.59 1.036-1.396-.866-1.396-.984 0-2.297-.272-2.918-.605-.854-.457-1.13-.414-1.13.176 0 1.802 2.527 2.741 4.914 1.825zM181.84 16.79c-.02-.457-4.066-2.523-4.066-2.076 0 .141.27.764.604 1.385.57 1.068 3.504 1.654 3.462.691zm10.524-.792c0-.286-.263-.521-.584-.521-.321 0-.584.278-.584.618 0 .34-.303.431-.673.202-.408-.252-.516-.161-.273.232.442.716 2.114.296 2.114-.531zm-8.645.248c-.421-.169-.925-.148-1.12.046-.192.194.152.332.767.306.68-.028.819-.166.353-.352zm157.463-.185c0-.321-.46-.58-1.021-.575-.873.008-.894.091-.146.575 1.102.712 1.167.712 1.167 0zm35.814-.359c4.043-.667 7.29 6.671 7.29 5.597 0-.636-.545-1.233-1.313-1.437-1.692-.449-9.191 1.893-9.191 2.872 0 .991-1.691-6.092.004-6.444.76-.157 2.205-.422 3.21-.588zm-119.852-.072c0-.13-.378-.613-.84-1.074-.84-.841-1.875-.166-1.263.824.299.485 2.103.699 2.103.25zm-126.27-5.071c0-.339-.262-.455-.583-.257-.321.198-.583.477-.583.618 0 .142.262.258.583.258.32 0 .584-.279.584-.619zm257.95 8.391c-.243-1.261-1.931-1.165-1.83.104.044.561-.153 1.021-.438 1.021-.285 0-.52.257-.52.571 0 .345.588.304 1.483-.104.846-.385 1.406-1.069 1.305-1.592zM183.61 11.97c0-.92-3.177-1.601-4.672-1.001l-1.456.584 1.926.435c1.06.24 2.07.58 2.246.755.423.424 1.956-.182 1.956-.773zm10.97-2.446c1.052-1.05.847-2.092-.494-2.518a2.217 2.217 0 0 0-2.89 2.123c0 1.268 2.25 1.531 3.385.395zm212.759 7.633c-.198-.321-.623-.584-.944-.584-.321 0-.422.263-.223.584.198.321.623.584.944.584.32 0 .42-.263.223-.584zM183.026 7.89c0-.321-.51-.583-1.133-.583s-1.295.262-1.493.583c-.205.331.286.584 1.133.584.82 0 1.493-.263 1.493-.584zm5.398.197c-.401-.161-1.057-.161-1.46 0-.4.162-.072.295.73.295.803 0 1.132-.133.73-.295zm210.703 4.468c.176-.285-.268-.675-.986-.868-1.924-.516-2.182-.455-2.182.509 0 .952 2.619 1.248 3.168.359zm-4.766 12.067c.179-.94-5.27-3.249-6.245-2.646-.288.178-1.193.069-2.011-.242-2.167-.824-2.502.326-.41 1.408.958.495 2.299.9 2.98.9.68 0 1.645.408 2.144.907 1.096 1.096 3.31.892 3.542-.327zm16.768-14.031c0-.24-1.047-.437-2.331-.437s-2.335.236-2.335.525c0 .289 1.049.486 2.332.438 1.282-.048 2.332-.285 2.334-.526zm-76.086 11.968c3.936-1.386 6.93-2.784 6.93-3.235 0-1.526-5.176-1.433-8.298.148-3.705 1.876-4.09 2.248-3.31 3.189.846 1.018 1.542 1.003 4.678-.102zm-33.484-4.137c.722-.194 1.313-.652 1.313-1.019 0-.367.657-1.376 1.459-2.241 1.739-1.875 1.858-2.792.363-2.792-1.24 0-2.606 1.356-1.988 1.974.224.224-.183.561-.904.75-.721.188-1.701 1.097-2.178 2.019-.935 1.809-.65 2.002 1.935 1.309zm26.572-8.161c.532-.533-1.34-3.143-2.253-3.143-.68 0-1.996 1.681-1.996 2.547 0 .257 1.457.648 3.258.875.348.043.794-.082.99-.279zm5.36-2.376c2.278-1.086 2.462-1.46 1.227-2.485-.596-.495-1.421-.532-2.878-.129-1.124.31-2.155.452-2.291.316-.137-.137-.592.165-1.011.671-.65.782-.575.968.5 1.249.695.182 1.264.562 1.264.846 0 .762.88.633 3.19-.468zM-2.53 203.08c-.047-.623.357-1.27.897-1.438.54-.169.26-.221-.622-.117-.883.105-1.605-.069-1.605-.385 0-.325-.741-.428-1.698-.236-1.246.249-1.795.087-2.062-.609-.2-.521-.096-1.215.23-1.542.964-.963 2.804-1.006 3.162-.073.182.474.88.863 1.55.863.672 0 1.059.262.86.583-.198.321.049.617.55.657 1.688.135 1.978.217 2.457.696.494.495-1.958 2.697-3.028 2.72-.333.007-.644-.497-.691-1.119zM-.485 97.181c-.317-.832-.25-.899.327-.327.399.396.578.867.398 1.047-.18.179-.506-.144-.725-.72zm970.838-20.335-1.41-.394 1.64-1.075c1.53-1.008 1.76-1.016 3.63-.126 1.09.522 1.83 1.21 1.63 1.528-.4.641-3.31.677-5.49.067zm2.28-18.749c-.48-.311-1.45-.569-2.15-.574-.99-.007-1.23-.29-1.04-1.255.13-.685.34-1.348.47-1.474.43-.432 5.08 2.367 4.89 2.944-.29.853-1.17 1-2.17.359zm23.21-10.945c-.36-1.407.92-2.631 1.82-1.732.84.844.85 2.757.01 2.757-.37 0-.49-.45-.3-1.022.34-.956.31-.955-.44.014-.77.989-.82.988-1.08-.017h-.01zm-965.85-3.485c-.528-.847-.497-1.07.152-1.07.45 0 .82.481.82 1.07 0 .588-.07 1.069-.152 1.069-.083 0-.452-.481-.82-1.069zm926.15-8.402c.39-.399.86-.578 1.04-.399.18.18-.14.506-.72.726-.83.316-.89.249-.32-.327zm31.38-10.277c-.65-.16-1.87-.786-2.72-1.391-.85-.604-1.94-1.099-2.41-1.099-.47 0-1.19-.394-1.59-.875-.4-.482-1.26-.876-1.92-.876-.65 0-1.04-.153-.85-.34.19-.187 1.87-.146 3.75.091 1.87.238 3.07.544 2.67.681-1.02.349-.91 1.319.15 1.319.48 0 .87.263.87.584 0 .321.59.587 1.31.591 2.06.013 3.96.658 3.61 1.226-.34.546-.97.566-2.87.089zm-5.06-8.319c-2.15-.164-4.07-.473-4.28-.686-.21-.214-.1-.93.26-1.592.83-1.555 4.12-2.47 5.16-1.436.41.411.67.866.58 1.011-.09.145.47.812 1.24 1.483s1.3 1.288 1.17 1.37c-.13.082-1.99.015-4.13-.15zm22.68-5.626c-.2-.202-1.74-.815-3.42-1.363-2.75-.897-3.06-1.166-3.06-2.68 0-1.443.29-1.746 2.02-2.129 2.45-.545 4.8-.091 4.48.867-.13.388.77 1.702 2 2.919 1.23 1.218 2.24 2.335 2.24 2.483 0 .41-3.84.322-4.26-.097zm-493.38-2.24c-1.027-.354-2.056-.832-2.285-1.061-.23-.23-.833-.414-1.342-.409-.81.008-.815.079-.048.575.48.311.613.565.292.565-.748 0-2.89-2.3-3.38-3.629-.443-1.199.482-1.383 1.162-.231.494.836 2.985 2.381 3.969 2.462.32.027 1.493.437 2.605.912 2.45 1.048 1.65 1.719-.972.816zM38.334 36.612c-.405-.49-.591-1.036-.412-1.215.447-.446 2.76.845 2.76 1.541 0 .875-1.525.663-2.347-.326zM517.28 2.827c-2.96-.327-2.787-1.339.227-1.339 1.527 0 2.664-.338 3.089-.92.605-.828.819-.803 2.107.241.789.639 1.254 1.343 1.035 1.564-.53.53-3.732.755-6.458.454zm476.363-1.144c0-.535-.17-.799-.38-.587-.22.212-.76-.149-1.22-.802-.55-.791-1.2-1.069-1.95-.832-1 .318-1.1.085-.95-2.282.17-2.661 1-4.526 1-2.238 0 .724.84 1.876 2.04 2.788 1.12.855 1.9 1.768 1.74 2.03-.16.263.24.645.88.85 1.52.483 1.53 2.046.01 2.046-.7 0-1.17-.389-1.17-.973zM33.677 31.054c0-.336.787-1.058 1.747-1.605.96-.546 1.749-1.428 1.75-1.96.004-.829.522-.921 3.653-.652 6.07.523 6.502 2.418.634 2.787-1.425.09-3.058.586-3.628 1.102-1.155 1.045-4.156 1.282-4.156.328zm494.33-32.088c-1.17-.679-1.235-.858-.423-1.169.527-.202 2.112-.209 3.524-.016 1.412.194 3.322.089 4.245-.233 1.45-.506 1.689-.437 1.76.511.05.669-.3 1.097-.903 1.1-.541.005-2.298.141-3.903.307-1.913.198-3.393.026-4.3-.5zm325.668-3.645c-.98-.504-1.144-.805-.584-1.061.43-.196-.072-.271-1.115-.167-1.232.123-1.897-.066-1.897-.542 0-.402-.46-.829-1.021-.948-.562-.12.215-.227 1.725-.238 1.51-.011 2.613.196 2.45.46-.163.264.11.323.609.132s.906-.611.906-.932c0-.332.63-.426 1.459-.218.959.24 1.459.122 1.459-.345 0-.554.156-.556.7-.012.902.902 2.424.922 1.87.025-.282-.455-.037-.576.749-.37.74.194 1.409-.082 1.83-.756.863-1.382.413-1.604-3.578-1.765-2.371-.096-3.322-.365-3.322-.94 0-.743 3.252-2.323 4.21-2.046.23.066 1.806-.254 3.503-.71 1.696-.457 2.624-.848 2.063-.869-.562-.021-1.022-.26-1.022-.53s1.727-.548 3.837-.616c5.367-.174 7.688-.525 9.8-1.482 1.006-.456 3.422-.999 5.368-1.207 4.412-.471 5.654-1.141 4.194-2.261-.562-.43-1.022-.888-1.022-1.017 0-.129 1.51-.1 3.356.064 4.537.404 10.73-.286 12.97-1.445 2.102-1.086 6.027-1.639 5.492-.773-.32.518 2.409.344 6.779-.432 1.134-.202.97.005-.73.921-1.203.649-2.188 1.428-2.188 1.73 0 .302 1.322.725 2.937.939 3.25.432 3.268.802.079 1.739-1.177.346-2.075.937-1.994 1.313.098.458-.913.684-3.053.684-1.758 0-4.188.374-5.398.831-1.21.457-3.513 1.025-5.118 1.263-1.605.237-3.181.487-3.502.555-.321.069-2.16.448-4.085.844-1.926.395-3.784.947-4.13 1.226-.345.279-1.527.634-2.626.788-9.234 1.294-11.48 1.693-12.45 2.211-1.072.571-1.074.616-.05 1.19 1.534.858 10.189.617 14.136-.395 1.853-.474 6.257-1.422 9.788-2.107 3.53-.684 7.715-1.617 9.298-2.074 1.583-.457 3.015-.83 3.182-.83.168 0-1.495 1.182-3.694 2.626-2.2 1.444-4.55 2.63-5.225 2.634-1.685.01-8.212 2.099-9.827 3.145-.726.471-2.896 1.009-4.822 1.196-1.926.188-4.946.492-6.712.677-6.627.692-24.176.621-25.585-.105zm104.368-2.576v-1.032c0-.241.33-.438.73-.438.4 0 .93-.262 1.17-.583.29-.386.59-.374.87.034.25.339 1.03 1.02 1.75 1.512 1.27.863 1.21.899-1.6.998-1.66.059-2.92-.153-2.92-.491zm-316.36-3.229c-.75-.749-3.266-1.324-6.936-1.584-1.048-.075-3.12-1.934-3.266-2.932-.061-.413.557-.752 1.425-.783 1.97-.07 6.295-.697 11.453-1.66 4.353-.813 21.579-.802 26.103.016 1.372.249 3.413.522 4.536.609 3.774.291 5.843.898 5.427 1.593-.224.374.01.333.539-.095.77-.624 1.067-.619 1.673.03.432.463 1.48.686 2.53.54l1.795-.249-1.344 1.19c-1.33 1.177-4.896 1.429-6.47.456-.356-.221-.951-.214-1.32.014-.37.229-3.067.454-5.994.501-2.927.047-5.627.274-6 .505-1.142.705-11.262 1.004-11.262.332 0-.33-.437-.164-.971.371-.631.631-1.516.861-2.53.659-.857-.172-2.288.067-3.181.529-2.11 1.095-5.09 1.075-6.207-.042zm210.293-.67c-.96-.387-.944-2.531.018-2.531.412 0 .803.656.869 1.459.066.802.058 1.438-.018 1.413a32.413 32.413 0 0 1-.87-.341zm-157.184-.433c-.133-.13-1.556-.376-3.161-.548-1.605-.171-3.55-.545-4.321-.831-1.348-.499-1.307-.559 1.033-1.495 2.603-1.042 4.96-1.185 9.854-.597 2.906.349 4.346 1.373 1.93 1.373-.622 0-1.294.262-1.493.583-.198.321-.017.588.404.593.555.006.524.163-.112.574-.871.563-3.67.799-4.134.348zm122.606-.952c0-1.032.163-1.1 1.246-.521.995.533 1.083.77.437 1.179-1.257.797-1.683.63-1.683-.658zm9.337.604c0-.32.41-.583.91-.583s.748.263.549.583c-.198.321-.608.584-.91.584-.302 0-.55-.263-.55-.584zm5.107.188c-1.48-.396-1.253-1.174.437-1.498.803-.153 1.459-.072 1.459.18s2.21.412 4.912.357c3.6-.075 4.765.075 4.362.559-.542.653-9.086.961-11.17.402zm16.34-.022c-1.494-.226-2.364-1.916-.986-1.916.34 0 .455.262.257.583-.198.321.034.584.515.584.48 0 1.038-.263 1.236-.584.198-.321.64-.583.98-.583.425 0 .416.248-.028.783-.357.43-.477.956-.266 1.167.21.211.275.345.14.297-.133-.048-.964-.197-1.847-.331zm-260.296-.822c.396-.399.867-.578 1.046-.398.18.179-.144.506-.72.725-.831.317-.898.25-.326-.327zm216.089.073c-.526-.34-.598-.57-.181-.575.383-.005.858.254 1.056.575.448.724.246.724-.875 0zm3.064.124c-2.22-.347-1.453-1.146.854-.892 1.192.132 2.253.325 2.357.429.349.349-1.881.67-3.211.463zm4.23-.124c-.198-.321-.081-.584.258-.584.34 0 .618.263.618.584 0 .321-.116.583-.257.583-.142 0-.42-.262-.618-.583zm1.46.134c0-.326.394-.744.875-.929.482-.185.876-.245.876-.134 0 .111-.394.529-.876.929-.504.419-.875.475-.875.134zm145.904-.058c0-.323-1.18-.766-2.63-.982-1.44-.217-2.63-.575-2.63-.796 0-.552 5.24-1.552 6.9-1.317 1.88.267 1.6 3.222-.33 3.497-.72.103-1.31-.078-1.31-.402zm-367.961-.653c-.205-.331.029-.429.549-.229 1.01.387 1.196.806.357.806-.302 0-.71-.26-.906-.577zm209.636-.179c-.167-.435.159-.79.766-.836.58-.044 1.2.297 1.376.756.208.541-.063.836-.766.836-.597 0-1.217-.34-1.376-.756zm-22.904-1.023c-.208-.336-.815-.565-1.348-.508-1.398.15-4.733-.694-5.101-1.29-.38-.613.188-.678 4.707-.534 3.487.11 4.544.684 3.977 2.161-.358.931-1.702 1.034-2.235.171zm7.55-.191c-.572-1.493-.191-1.561 3.18-.573 3.456 1.013 3.824 1.57.55.831-1.343-.303-2.352-.255-2.737.13-.423.424-.726.305-.992-.388zm-155.477-.038c0-.142.263-.42.584-.618.32-.199.584-.083.584.257s-.263.618-.584.618c-.321 0-.584-.116-.584-.257zm151.445-.91c-.198-.321-.083-.584.258-.584.34 0 .618.263.618.584 0 .321-.116.583-.258.583-.141 0-.42-.262-.618-.583zm28.305-.607c0-.377-.394-.534-.875-.349-.545.209-.876-.005-.876-.563 0-1.01 2.85-.966 3.692.058.314.38.587.329.78-.148.163-.403.537-.584.83-.403.774.478.655 1.233-.195 1.239-.401.005-1.321.196-2.043.429-.856.275-1.313.184-1.313-.263zm-758.6 27.027c-.2-.323.059-.75.574-.948 1.118-.428 1.74.044 1.203.913-.484.784-1.304.8-1.777.035zm751.709-27.487c-1.761-.249-1.348-1.379.703-1.928 1.23-.329 1.544-.245 1.315.35-.208.544.134.735 1.119.627.867-.095 1.42.145 1.42.616 0 .739-1.123.822-4.557.335zM215.423 10.236c-.205-.332.038-.761.54-.953.5-.193.912-.863.912-1.49 0-.626.267-.974.593-.772.326.201.42.647.208.99-.212.342.19 1.058.895 1.589 1.276.962 1.273.966-.747 1.102-1.116.075-2.196-.134-2.401-.466zm761.03-33.465c-1.02-.743-.99-.811.48-1.181.87-.219 2.13-.088 2.85.297 1.25.671 1.26.702.14 1.141-1.7.662-2.28.619-3.47-.257zM208.38 7.839c-.222-.36-1.435-1.115-2.695-1.679l-2.29-1.026 2.216-.366c1.22-.202 3.16-.369 4.312-.373 1.164-.005 3.703-.81 5.71-1.812 2.446-1.223 3.844-1.626 4.324-1.248 1.553 1.222 10.604 1.696 17.927.938 4.67-.483 11.677-.576 12.343-.165.758.469-2.016.933-8.55 1.433-6.272.479-6.98.696-6.026 1.845.66.797.415.856-2.158.516-1.597-.211-3.803-.117-4.902.207-1.27.375-2.241.388-2.667.034-.37-.307-2.622-.568-5.006-.582a459.454 459.454 0 0 1-7.971-.125c-3.958-.109-4.782.227-3.715 1.513.436.525.482.969.124 1.191-.315.194-.754.059-.976-.301zm661.935-34.441c-.262-1.003-.661-1.183-2.135-.967-.996.146-1.916.097-2.044-.109-.127-.206-1.727-.21-3.555-.009-2.771.305-18.641.277-27.384-.048a134.245 134.245 0 0 0-4.961-.065c-5.161.041-6.39-.051-6.136-.463.142-.229 1.095-.441 2.119-.47 1.023-.029 2.017-.283 2.209-.565.424-.621 5.31-.619 4.926.005-.393.637 1.879.203 2.807-.536 1.2-.957 3.797-1.285 17.612-2.225 7.007-.477 15.017-1.296 17.8-1.818 2.782-.523 5.585-1.017 6.227-1.098 7.174-.905 12.613-2.07 19.504-4.178.455-.139 1.027.068 1.269.46.69 1.117-1.853 3.39-3.805 3.402-.94.006-3.566.912-5.836 2.014-2.271 1.102-5.442 2.161-7.047 2.353-3.864.462-6.903.991-7.435 1.294-.758.432.975 1.815 2.024 1.615.555-.105 1.155.045 1.334.334.189.306.886.312 1.666.016 1.379-.525 3.297.118 2.262.757-.684.423-4.045.959-8.101 1.291-2.666.219-3.033.11-3.32-.987v-.003zm1.679.127c-.181-.294 0-.667.404-.829.442-.179.328-.314-.29-.342-.56-.025-1.02.348-1.02.829 0 .482.278.876.618.876.34 0 .47-.24.288-.534zm13.162-1.266c-.77-.308-1.237-.72-1.041-.917.637-.637 3.314-.7 3.314-.078 0 .378.308.348.823-.08.573-.475.94-.494 1.208-.062a.74.74 0 0 0 1.018.23c.39-.241.464-.118.192.322-.243.393-.8.576-1.24.408-.437-.169-.952-.055-1.141.252-.421.681-1.295.66-3.133-.075zM452.389 10.986c.384-.178.565-.668.404-1.087-.185-.482.312-.88 1.346-1.078.902-.173 1.702-.254 1.779-.178.416.407-1.512 2.025-2.766 2.322-.803.19-1.146.199-.763.021zm355.996-40.374c-.18-.291.199-.392.84-.224 1.364.356 1.536.753.328.753-.462 0-.988-.238-1.168-.529zm5.785-7.562c-.766-.766-.101-1.684 1.219-1.684 1.095 0 1.403.236 1.154.884-.251.656-.146.731.404.293.897-.716 3.23-1.188 9.788-1.977 5.87-.707 4.5-.644 13.13-.599 3.853.021 7.459.031 8.014.024.556-.007 1.162-.259 1.348-.559.426-.689 6.122-.703 7.204-.017.467.295 1.575.281 2.627-.034 2.325-.696 4.584-1.008 8.238-1.135 1.605-.056 5.938-.49 9.629-.965 8.484-1.092 10.519-1.225 10.175-.668-.151.244-1.65.841-3.328 1.325-3.04.877-5.146 1.21-11.807 1.865-1.926.19-4.553.566-5.837.837-1.283.271-4.583.511-7.332.533-2.75.023-6.21.267-7.688.544-1.48.276-2.987.318-3.351.093-.364-.225-1.843-.02-3.286.455-1.81.596-3.022.694-3.906.314-.705-.302-2.858-.443-4.784-.313-1.926.13-6.39.34-9.921.466-3.531.126-7.544.311-8.918.411-1.374.1-2.621.058-2.772-.093zM347.81.114c0-.321.115-.583.257-.583.142 0 .42.262.618.583.198.321.083.584-.257.584s-.618-.263-.618-.584z" fill-rule="nonzero"/></svg>