<svg viewBox="0 0 100 114" fill="none" xmlns="http://www.w3.org/2000/svg" preserveAspectRatio="none"><path fill-rule="evenodd" clip-rule="evenodd" d="M97.022 24.896c.193.8-.096 1.75.144 2.38l.362-.292c-.062-.928-.275-2.67-.506-2.088Zm-75.345 87.97c1.323.679 2.877 1.444 3.984 1.004-2.788-.528-5.51-1.329-7.388-5.214.604 3.154 2.095 3.519 3.404 4.21Zm68.599-53.564c.08-.535.386.306.65-.026l.07-.788c-.184-.216-.497-1.336-.723-.508.255.204-.217 1.249.002 1.322Zm3.521-10.731c-.794-1.418-.643.203 0 0Zm4.474-2.862c.482-.468.781-2.982.646-4.786-.002 2.352-.264 3.776-.646 4.786Zm1.512-7.193.217.236c-.366-1.721-.752-2.73-.217-.236Zm-8.538-13.599.504.237c.313.115.535.285.724.224.204-.054-.657-.848-1.228-.461Zm-.441-7.377c.346.306.645.788 1.007 1.01-.184-.725-.794-1.273-1.007-1.01Zm-.806-6.569-.726-1.024c.276.049.575 1.39.726 1.024ZM2.621 43.628l.648.054c-.318-.522-.515-.407-.648-.054ZM90.657 19.39c-.679-.17-1.136.475-1.731.604-.204-1.675-1.405.054-1.664-2.027 1.227.122 2.585-.252 3.395 1.423Zm-3.915 46.676c-.377-.141-.617.22-.94.306.417-.955-.287-.325-.287-1.314.275.84 1.185-.68 1.227 1.008Zm.28-7.673-.794-.23.794.23Zm-.031 31.971.076.244h.14c-.307 2.604-2.098 2.096-2.446 5.405-1.347 1.375-2.346 4.018-3.897 4.663.315.786.825-.799 1.156-.054-2.326 2.163-4.962.501-7.732.854 2.075-1.112 4.678-2.237 6.571-3.973 1.139-1.036 2.28-1.842 3.318-3.586.3-.508.54-1.403.866-1.885.676-.962 1.393.204 1.948-1.668ZM45.456 104.4c8.17-2.427 17.208-.421 25.945-2.258 2.257-.481 4.512.224 6.72.231-2.88 1.674-6.103 2.081-9.03 3.545 3.965-.372 7.894-3.159 12.135-3.404-10.644 9.668-24.864 6.618-35.77 1.886Zm2.026 1.783c.151-.605.604-.109.87-.285-.148.609-.601.115-.87.285Zm-10.477-3.39c-2.778.06-6.173 1.132-8.894-.075-.306.286.38.264.07.536-.958.102-1.806-.229-2.454-1.281 7.641-.068 17.57-4.36 25.444-.929-4.805 1.268-9.468 1.647-14.166 1.749Zm-9.471 1.268c.628-.449 1.757-.467 2.388-.049-.788-.053-1.833.116-2.388.049Zm-9.842-.95-.214-.78c2.712.183 6.139.949 9.12 1.736-2.948.685-6.172.075-8.906-.956Zm2.896-1.872c-.24.807-1.161-.162-.291.014l.29-.014Zm3.837 1.554c-.55-.096-1.252-.116-1.665-.244.342-.4 2.435-.604 2.46.223.172.699-.536.061-.795.021Zm2.312-1.892c-.195.617-.699.108-1.01.284.093-.359.688-.724 1.01-.284Zm-9.696-2.013c-.333-.252-.739-.984-.867-2.366 3.064 1.634 6.913 1.518 10.057 1.213.495-.04.957-.501 1.443-.285.537.246 1.031 1.2 1.59 1.289.622.108 1.268-.448 1.88-.557 3.613-.678 7.355-.57 10.988.503-4.017.31-8.964 2.053-13.517 1.383-1.09-.143-1.685-.51-2.53-1.533-.287.393.31 1.098.075 1.322-.446-.407-1.382 1.01-1.374-1.037-.228-.04-.03 1.478-.366 1.058-2.29-1.058-5.3.602-7.379-.99ZM38.237 5.012c-.417 1.66-1.352 1.444-2.02 2.169.265-1.152 1.294-1.81 2.02-2.169Zm4.836 94.445c-.391-.034-.3-.177-.65-.245l.65.245Zm33.45-2.563c-3.92 2.705-8.901 4.569-14.083 4.279l-.071-.265c4.829-.915 9.503-2.427 14.154-4.014Zm-2.816-2.522c1.71-.976 3.37-2.854 5.12-3.653 1.808-.815 3.635-1.167 5.417-2.604.446.373-.322.983-.216.794-2.72 4.643-6.95 5.51-10.543 6.8-3.84 1.382-8.236 2.732-11.986 3.381 4.187-1.863 8.253-2.453 12.208-4.718Zm4.392-72.832c-.253.475-1.359.454-1.374.068.397-.623.948-.155 1.374-.068Zm6.983 44.866-.432.029.432-.029ZM1.37 30.05l.637-.204-.637.204Zm95.373 2.535c-.828-.731-1.263-2.92-2.172-3.342.52-.86 1.378.915 1.73.176l.072-.793c-1.552-.393-3.06-.482-4.403-.055.228-1.66-1.157-1.606-1.516-2.826.217-.096.555.264.575-.55-.875-2.155-2.33-2.128-3.613-2.745l.07-.794c.29-.447.332 1.377.505.501v-.785c1.138-.04 3.129-3.81 4.187.068-.626-.068-1.516.508-2.09 1.416.965-.365 2.217-1.43 2.743.929-.093-1.314.086-1.62.288-1.858-.548-.894-1.307-1.959-1.806-2.82-.657-1.138-1.614-.889-2.606-1.471a41.368 41.368 0 0 1-2.31-1.485c-.48-.324-1.644-1.647-1.231-2.06C74.099 11.113 62.114 8.218 50.5 6.497c-4.118-.623-7.92-1.411-11.906-.433 1.079-3.072 2.92-2.178 4.474-2.516 2.113-.44 5.335-.353 8.158.013 5.52.732 10.86 2.252 15.876 2.583.138.007 1.083.176.65-.026-1.18-.572-2.951-1.324-4.183-1.675-.876-.266-1.577-1.228-2.383-1.763-2.35-1.573-4.995-1.424-7.725-1.837-6.662-1.018-13.895-2.346-18.979 4.27-.164 1.404-.528 2.108-.861 2.93-4.074.053-8.646 1.842-12.694 2.59-.38.066-1.127.563-1.007.542-.97.204-2.055-.366-3.103.012-.018.009-2.499.76-3.741.517l.142-.53C9.873 12.34 7.1 9.23 4.032 10.965c.642.469 1.13 1.505 1.5 2.97-.304.577-.636.461-1.003.224.302 1.186 1.168.31 1.498 1.383-.28 1.153.218 1.315 0 2.908-1.493-.129-3.96-.183-5.665.115.441.279.987.23 1.176 1.457-.508-.026-.908.373-1.187 1.188l.479 1.39-.83.677c.666.162 1.33.379 1.882 1.004l-.502.23c.269.44.59.65.85 1.124-.18.206-.381.32-.641.206.095 1.776-.455 1.971-.641 3.374.335 2.57 1.5 1.228 2.126 2.306-.375 1.322-1.256.711-1.853 1.153l.707.603-.437 2.854c.346 0 .65.142.857.603-.2.135-.14 1.248-.357 1.302l.208 1.6c-.224.576-.752-.02-.79 1.248.333.908 1.097.285 1.36 1.443-.108.217-.727.746-.361 1.024.157-.555.362-.95.646-1.017l.286 1.614c1.11-.082.945.588 1.582-.448l.142.8c1.709.441 2.173-.11 3.964 1.18-.604.88-1.414.773-1.873 1.267.266.184.739-.4.79.564-.413.577-.977.624-1.445 1.01.326.053.575.38.58 1.606-.474-.427-.382 1.234-.653 1.559-.493.163-.95-.746-1.225.488-.26.537.397-.55.433.279l-.362 1.573c1.354.813 2.927.644 4.327 1.18.706.25 1.485.642 2.024 1.599-.228-.047-.532.183-.65-.27.049 1.592.666 1.09 1.008 1.606-1.605 1.707-4.454.148-5.997 1.192l.215 1.587c1.13-.054 2.138 1.498 3.252.624-.453.806.095.99.146 2.109-.987.203-2.055-1.275-2.319 1.796.406 1.614 1.023 2.468 1.591 3.47l-.504.53c.282.867.287 1.124.14 2.637.473.584 1.154.4 1.596 1.078-.646 2.955-2.102 1.89-3.262 2.311.22.353.643-.047.723.813-.386.441-.428 2.123-.799 2.618l.657.555-.295-.277c1.212.482 2.82 1.75 4.128 2.719-.107 1.294-.708.745-1.014 1.307l.361 2.386c1.267.117 3.349-.595 4.414 1.085 1.017-.69 2.838-.04 4.194-.27l-.068 2.638c1.447 2.453 2.496 6.352 4.485 6.814-1.594.208-2.872-2.15-4.341-1.534.976.122 1.531 1.79 2.317 2.624-2.301-1.09-5.34.508-6.731-3.925-.233 1.294.266 1.26.144 1.851l-.362.515c.498.325 1.013.548 1.303 1.593l-.07 1.058-.51.264c.667 2.224 1.883 2.461 2.826 3.689-.506.011-.814-.497-1.16.007l.363.527c-.217.387-.544-.541-.725 0l.075.522c-.377-1.016-.79.522-.941 1.858.688 2.169 1.775 1.533 2.752 1.838.739.243 1.518 1.118 2.241 1.05 5.41-.657 11.649-2.36 17.137-1.41l-.14.542c.917.027 1.645.075 2.455.197 6.775 1.065 13.481 4.645 20.17 5.674 5.633.869 11.522.292 16.83-2.535l.58-.806c2.49-2.117 5.1-3.424 7.146-6.923.688-1.179 1.37-3.058 2.017-3.789 1.001-1.113 2.224-1.465 3.322-2.28 1.782-1.28 3.462-2.351 4.765-3.647-2.677.083-5.21 3.995-7.659 4.848.309-1.477 1.237-2 1.23-3.749l-.366-1.308.29-.007-.22-.786c.22-.204.678 1.146.504-.027l-.574-.23c.109-1.296-.213-.991-.222-1.838-.287-.162-.546-.446-.506-1.837l-.65-.23.794-.034c.229-.196.096-.7.07-1.323.316.183.565-.738.795-.04-.137 1.275-.503 1.708-.503 3.464.395.014.453-1.194.867-1.098.012.346-.295.806-.07 1.058.27-1.987 1.053-1.615 1.513-1.118l-.362-2.374c.497-.637 1.008.04 1.159.217-.085-.57.865-.793 1.151-1.64-.417-.056-.596-.97-.87-1.547.622-.21.8-2.045 1.516-1.919-.162-1.084-.57-1.24-.654-2.615l.363-1.336c-.603-.936-1.373-1.173-1.453-3.355-.815.995-1.824-1.174-2.745-1.472.408-.184 1.01.312 1.298-.32l-.142-.779.357.501-.073-1.314.433-.55c-.127-1.552-.642-3.084-.87-3.39l.652 3.14c-.31-1.417-1.22-.583-1.518-2.041l.362-.285c-.905-.555-2.164-1.064-2.534-4.378.362-.977 1.012.406 1.227-.063l.433-1.598c.463 1.056.9 3.708 1.515 2.575.28.719.54 1.546.944 1.797.1-1.438.264-1.005.579-1.607-.841.663-1.185-2.257-2.244-2.8l-.362 1.071c-.459-3.124-.723-2.135-1.664-3.098 1.247.21 2.015-1.579 3.105-.4-.094-1.323-1.003-2.684-1.156-1.269-.114-1.003-.535-2.242-.795-1.816.306.536.581 1.2.723 2.36-.315.08-.594.31-.865.548-.091-1.681-.63-1.715-.945-2.596.355-.34-.291-1.07-.145-2.365l.433-.544-.217-.522c.741-.746.965-.216 1.515-1.396l-.29-.25.719-1.092c-.693.17-.83-1.173-1.299.068-.559-.929-1.202-2.963-1.446-4.163.643-.15 1.14-.956 1.726-.61l.076 1.587c.152.101-.156-1.641.073-1.858.956-.469 1.316 2.711 2.097 2.013-1.034-2.067-1.955-4.57-3.544-4.59.896-.177 1.758-.501 2.596-.908l.005 1.315c.854 2.204 1.251 5.342 2.101 6.516-.248-1.818-.956-1.94-1.09-4.183.511-.13.98 1.307 1.372.738-.23-1.586-.408-3.417-.872-4.725.692-.312 1.791.814 1.95-1.41-.35-.203-.676-.494-.87-1.275.538.088.982-.163 1.37-.596l.366 1.309c.517-1.52.835 1.767 1.374.996l-.295-1.052c.13-1.036.472-1.294.794-1.619.224.217.213 1.328.438 1.56.177-.76.432-1.235.792-1.357-.01-1.593.066-1.633.428-2.129-.65-1.301-1.46-1.992-2.168-3.085.612-.588 1.236 1.73 1.806.197Zm-77.31 75.809c2.693.556 4.917-.299 7.742-.096-2.368-.406-5.656-.345-7.742.096Zm8.683-.38c.477.074 1.42.122 1.807-.292l-1.227.014c-.815-.014-1.512.129-.58.278Zm3.11-.332c.266-.169.718.332.865-.278-.269.17-.721-.327-.866.278Zm19.005-2.651c-.229.026-.52.026-.795.033-1.558.097.042.645.795-.033Zm1.882-.319c-.245.02-.482 0-.795.027-1.434.109.089.644.795-.027Zm.361-.013c.404-.19 1.008.319 1.303-.312-.413.19-1.017-.319-1.303.312Zm3.034-.631c-.244.014-.484 0-.794.034-1.436.102.093.63.794-.034Zm.071-.006c.386-.176.963.311 1.227-.313-.386.191-.96-.305-1.227.313Zm1.518-.319c.268-.184.721.319.866-.299-.267.177-.72-.311-.866.299Zm28.395-1.423c2.412-.482 4.805.528 7.08-.326-2.153-.332-5.218-.189-7.08.326Zm-27.316 1.11c.315-.169.823.319 1.016-.29-.315.182-.815-.313-1.017.29Zm35.882-20.263c.335.807.728 1.383 1.232 1.532-.369-.48-.802-2.136-1.232-1.532Zm-1.671-11.817c-.031.835.067 1.18.286 1.045.036-.821-.062-1.167-.286-1.045Zm-.652-1.289-.504.043v.522l.504-.565Zm2.092-.623-1.012.576c.291.529.926.903 1.012-.576Zm-.36-1.83-.434-.772c.24-.102.078 1.302.435.772Zm-2.531-2.8.29.787-.29-.788Zm.137-3.172-.288-.245.288.245Zm-1.445-1.783.575.237-.575-.237Zm2.886-.13c.108.414.281.543.51.509l-.51-.508Zm-.36-.507-.22-1.31.22 1.31Zm-.508-1.303c-.389-.602-.628-1.525-1.081-1.002.373.094.826 1.348 1.08 1.002Zm1.515-2.446c-.09.894.194 2.385.433 2.894-.05-1.086-.417-1.39-.22-2.645l-.213-.249Zm-.075-.788c.295-.087.269.163.433.238.783.36.004-.99-.433-.238Zm-1.594-5.2c-.244.691-.647-.467-.865.57.288.074.733.956 1.007.217-.334.237.1-.705-.142-.787Zm6.128-8.487c.375-.835 1.14-.503 1.445-.868-.402-.59-1.452.007-1.445.868Zm-6.81-20.02c-.356-.101-1.186.318-1.3.59.367-.054.469.026.72-.041.173-.04.914-.461.58-.549Zm-4.992-6.115c.564-.164 1.225.02 1.587-.867-.48.31-1.4.4-1.587.867Z" fill="#100F0D"/></svg>