<svg viewBox="0 0 100 114" fill="none" xmlns="http://www.w3.org/2000/svg" preserveAspectRatio="none">
    <path fill-rule="evenodd" clip-rule="evenodd" d="M97.0218 24.8963C97.2148 25.6956 96.9264 26.6457 97.1661 27.2757L97.5278 26.9843C97.4658 26.0561 97.2526 24.3135 97.0218 24.8963ZM21.6772 112.866C23 113.545 24.5535 114.31 25.6609 113.87C22.8733 113.342 20.1505 112.541 18.273 108.656C18.8766 111.81 20.3679 112.175 21.6772 112.866ZM90.2755 59.3023C90.3551 58.7668 90.6615 59.6075 90.9256 59.2759L90.9967 58.4881C90.8124 58.2716 90.4994 57.1521 90.2731 57.9802C90.5283 58.184 90.0558 59.2286 90.2755 59.3023ZM93.7973 48.5708C93.0029 47.153 93.1537 48.7735 93.7973 48.5708V48.5708ZM98.2712 45.7088C98.7528 45.2412 99.0525 42.727 98.9169 40.9234C98.9148 43.2752 98.6528 44.6987 98.2712 45.7088ZM99.7826 38.5164L100 38.7525C99.634 37.0307 99.2475 36.0218 99.7826 38.5164ZM91.2451 24.917L91.749 25.1543C92.062 25.2694 92.2839 25.4387 92.4725 25.3777C92.6766 25.3236 91.8155 24.53 91.2451 24.917ZM90.8037 17.5403C91.1499 17.8456 91.4494 18.3281 91.8111 18.5504C91.6268 17.8248 91.0167 17.2766 90.8037 17.5403ZM89.998 10.971L89.2724 9.94713C89.5476 9.9955 89.8471 11.3373 89.998 10.971ZM2.6208 43.6277L3.26884 43.6818C2.95146 43.16 2.75405 43.2752 2.6208 43.6277ZM90.6572 19.3911C89.978 19.2218 89.5211 19.8657 88.926 19.9946C88.7219 18.3201 87.5214 20.0488 87.2617 17.9676C88.4891 18.0897 89.8471 17.7165 90.6572 19.3911V19.3911ZM86.7424 66.0675C86.3653 65.9258 86.1255 66.2863 85.8015 66.3727C86.2186 65.4179 85.5152 66.0479 85.5152 65.0586C85.7904 65.8982 86.7002 64.3791 86.7424 66.0675ZM87.0219 58.3937L86.2275 58.1633L87.0219 58.3937ZM86.991 90.365L87.0665 90.6092H87.2062C86.9 93.2132 85.1092 92.7053 84.7606 96.0141C83.4136 97.3893 82.4151 100.032 80.8638 100.677C81.179 101.463 81.6893 99.8781 82.0199 100.623C79.694 102.786 77.0579 101.124 74.2881 101.477C76.363 100.365 78.9663 99.2401 80.8592 97.5044C81.9977 96.4679 83.1384 95.6617 84.177 93.918C84.4765 93.4101 84.7164 92.5152 85.0427 92.0327C85.7193 91.071 86.4361 92.2365 86.991 90.365ZM45.4561 104.4C53.6252 101.973 62.664 103.979 71.401 102.142C73.658 101.661 75.9126 102.366 78.121 102.373C75.2404 104.047 72.0181 104.454 69.0907 105.918C73.0564 105.546 76.9846 102.759 81.2255 102.514C70.5822 112.182 56.3615 109.132 45.4561 104.4V104.4ZM47.4823 106.183C47.6332 105.578 48.0859 106.074 48.3522 105.898C48.2035 106.507 47.7508 106.013 47.4823 106.183ZM37.0053 102.793C34.2269 102.853 30.8316 103.925 28.1107 102.718C27.8047 103.004 28.4902 102.982 28.1818 103.254C27.223 103.356 26.3751 103.025 25.7274 101.973C33.3681 101.905 43.2967 97.6127 51.1706 101.044C46.366 102.312 41.7035 102.691 37.0053 102.793ZM27.5336 104.061C28.1618 103.612 29.2914 103.594 29.9215 104.012C29.1338 103.959 28.0887 104.128 27.5336 104.061V104.061ZM17.6918 103.111L17.4783 102.331C20.1905 102.514 23.6169 103.28 26.5973 104.067C23.6501 104.752 20.4257 104.142 17.6918 103.111V103.111ZM20.5878 101.239C20.3481 102.046 19.4269 101.077 20.2968 101.253L20.5878 101.239ZM24.4246 102.793C23.8744 102.697 23.173 102.677 22.7603 102.549C23.102 102.149 25.1947 101.945 25.2192 102.772C25.3922 103.471 24.6843 102.833 24.4246 102.793ZM26.737 100.901C26.5418 101.518 26.038 101.009 25.7274 101.185C25.8204 100.826 26.4153 100.461 26.737 100.901ZM17.0412 98.8876C16.7083 98.6365 16.3022 97.9041 16.1735 96.522C19.2383 98.1563 23.0865 98.04 26.2312 97.7348C26.7257 97.6956 27.1876 97.2338 27.6736 97.4503C28.2107 97.6956 28.7054 98.6504 29.2647 98.739C29.8863 98.8473 30.5318 98.291 31.1446 98.1816C34.7572 97.5044 38.499 97.6127 42.1317 98.6849C38.1151 98.9959 33.1684 100.738 28.6145 100.068C27.5249 99.9253 26.9302 99.558 26.0845 98.5352C25.7983 98.928 26.3951 99.6328 26.16 99.8574C25.7139 99.4497 24.7776 100.867 24.7863 98.8197C24.5576 98.7794 24.7554 100.298 24.4202 99.8781C22.13 98.8197 19.1209 100.48 17.0412 98.8876V98.8876ZM38.2371 5.01212C37.8198 6.67288 36.8854 6.45631 36.2176 7.18073C36.4817 6.02903 37.5113 5.3703 38.2371 5.01212ZM43.0728 99.4566C42.682 99.4232 42.7731 99.2804 42.4225 99.2124L43.0728 99.4566ZM76.5228 96.8941C72.6038 99.5994 67.6216 101.463 62.4399 101.173L62.3688 100.908C67.1978 99.9933 71.8716 98.4811 76.5228 96.8941V96.8941ZM73.7069 94.3718C75.4177 93.3963 77.0779 91.5179 78.8265 90.7186C80.6351 89.9043 82.4616 89.5519 84.2437 88.1146C84.6897 88.4877 83.9218 89.0982 84.0283 88.9093C81.3076 93.5518 77.0779 94.419 73.4848 95.709C69.6456 97.091 65.2494 98.4408 61.4989 99.0903C65.6865 97.2269 69.7519 96.6372 73.7069 94.3718V94.3718ZM78.0986 21.5402C77.8458 22.0147 76.7403 21.994 76.7249 21.6082C77.1222 20.9851 77.6726 21.4527 78.0986 21.5402ZM85.0825 66.4061L84.6497 66.4349L85.0825 66.4061ZM1.36921 30.049L2.00609 29.8452L1.36921 30.049ZM96.7423 32.5839C95.9144 31.8526 95.4794 29.6632 94.5696 29.2417C95.0891 28.3814 95.9478 30.1573 96.3008 29.4179L96.3717 28.6255C94.8204 28.2316 93.3113 28.143 91.9687 28.5702C92.1974 26.9095 90.8124 26.9636 90.4529 25.7439C90.6704 25.6484 91.0078 26.0077 91.0276 25.1946C90.1534 23.0386 88.6977 23.0662 87.4149 22.4489L87.4858 21.6554C87.7744 21.2085 87.8166 23.0317 87.9896 22.1564V21.371C89.1281 21.3306 91.1186 17.5611 92.1774 21.4389C91.5514 21.3709 90.6615 21.9468 90.0868 22.8555C91.0521 22.4904 92.3039 21.425 92.8297 23.7837C92.7366 22.4696 92.9162 22.1645 93.1183 21.9261C92.5701 21.0323 91.8111 19.967 91.3117 19.1067C90.655 17.9676 89.6984 18.2175 88.7064 17.6348C87.9896 17.2155 87.0884 16.6259 86.3964 16.1503C85.9169 15.8255 84.7517 14.5033 85.1646 14.0898C74.0995 11.1127 62.1136 8.21843 50.5005 6.49663C46.3816 5.87355 42.5801 5.08581 38.5944 6.06361C39.6729 2.99201 41.5148 3.88575 43.0685 3.5483C45.181 3.1072 48.4033 3.19471 51.2261 3.56096C56.7454 4.29344 62.0869 5.81251 67.1024 6.1442C67.2399 6.15111 68.1854 6.32041 67.7527 6.11771C66.572 5.54646 64.801 4.7944 63.5693 4.44313C62.6929 4.17708 61.9917 3.21546 61.1859 2.67991C58.8357 1.10668 56.1907 1.25638 53.4609 0.842919C46.7989 -0.175189 39.5662 -1.5031 34.4821 5.11345C34.318 6.51738 33.9539 7.22104 33.6209 8.04221C29.5466 8.09634 24.9749 9.88496 20.9271 10.6324C20.5476 10.6992 19.7999 11.1956 19.9197 11.1749C18.95 11.3787 17.8646 10.8086 16.8171 11.1875C16.7995 11.1956 14.3184 11.9476 13.0756 11.7035L13.2177 11.1749C9.87325 12.3404 7.10141 9.22963 4.03232 10.9641C4.67369 11.4328 5.16189 12.4694 5.53252 13.9332C5.22839 14.5114 4.89557 14.395 4.52939 14.1578C4.83123 15.344 5.6967 14.4688 6.02728 15.541C5.74773 16.6939 6.24483 16.8563 6.02728 18.4491C4.5338 18.3201 2.06612 18.2659 0.361744 18.5642C0.803387 18.8429 1.34926 18.7934 1.53786 20.0211C1.02964 19.9946 0.630226 20.3943 0.350599 21.2085L0.829895 22.5986L0 23.2758C0.665721 23.4382 1.3293 23.6548 1.88183 24.2801L1.38034 24.5105C1.64892 24.9504 1.97068 25.16 2.23029 25.6345C2.0505 25.8395 1.84857 25.9547 1.5889 25.8395C1.68434 27.6155 1.13405 27.8112 0.947605 29.214C1.28268 31.7846 2.44781 30.4417 3.07357 31.5197C2.69852 32.8419 1.81757 32.2315 1.22058 32.6726L1.92847 33.2761L1.49132 36.1301C1.83744 36.1301 2.14142 36.2717 2.34782 36.7335C2.14815 36.8683 2.2081 37.9808 1.99055 38.035L2.19919 39.6347C1.97509 40.2105 1.44692 39.6151 1.4091 40.8831C1.7421 41.7907 2.5055 41.1676 2.76959 42.3262C2.66087 42.5427 2.04159 43.0725 2.40777 43.3501C2.56543 42.795 2.76959 42.3999 3.05363 42.3331L3.33989 43.9466C4.44951 43.8649 4.28526 44.5352 4.92216 43.4987L5.06414 44.2991C6.77298 44.7402 7.23674 44.1897 9.0278 45.4784C8.42408 46.3595 7.61404 46.2524 7.1547 46.7464C7.42102 46.9296 7.89375 46.3468 7.94478 47.3096C7.53199 47.8866 6.96834 47.9339 6.50001 48.3197C6.82627 48.3727 7.07482 48.6998 7.07929 49.9263C6.60649 49.4991 6.6976 51.1598 6.42686 51.4846C5.9341 51.6481 5.47702 50.7394 5.20178 51.9729C4.94219 52.5096 5.59904 51.4236 5.63462 52.2516L5.27277 53.8248C6.62653 54.6379 8.19996 54.4687 9.60028 55.0042C10.3061 55.2553 11.0849 55.6469 11.6241 56.6039C11.3957 56.5567 11.0918 56.787 10.974 56.3333C11.0228 57.9261 11.6398 57.4239 11.9816 57.9399C10.377 59.6467 7.52759 58.0884 5.98521 59.1319L6.20044 60.719C7.33008 60.6648 8.33763 62.2173 9.45164 61.3432C8.99887 62.1494 9.54698 62.3325 9.5981 63.452C8.6106 63.6547 7.54313 62.177 7.27904 65.2475C7.68511 66.8622 8.30205 67.7156 8.8702 68.7175L8.36639 69.2473C8.64826 70.1146 8.65275 70.3725 8.50628 71.8847C8.97892 72.4686 9.6602 72.2856 10.1018 72.9628C9.45606 75.918 8.00023 74.8538 6.83958 75.2742C7.05926 75.6266 7.48319 75.227 7.56301 76.0873C7.17697 76.5284 7.13474 78.2099 6.76409 78.7052L7.42102 79.2603L7.12586 78.9827C8.33763 79.4653 9.9464 80.7322 11.2537 81.7019C11.1471 82.9964 10.5456 82.4471 10.2396 83.0091L10.6011 85.3954C11.8684 85.5117 13.95 84.8 15.0151 86.4803C16.0316 85.7893 17.8535 86.44 19.2094 86.2097L19.1407 88.8482C20.5878 91.3013 21.6374 95.1999 23.6258 95.6617C22.0324 95.8702 20.7541 93.5115 19.2848 94.1277C20.2614 94.2497 20.8163 95.9174 21.602 96.7524C19.3006 95.6617 16.2624 97.2603 14.8709 92.8274C14.6379 94.1208 15.1372 94.0873 15.0151 94.6782L14.6534 95.193C15.1507 95.5178 15.6656 95.7412 15.9562 96.7858L15.8851 97.8442L15.3769 98.1079C16.0427 100.332 17.2588 100.569 18.2021 101.797C17.6959 101.808 17.3877 101.3 17.0412 101.804L17.4053 102.331C17.1879 102.718 16.8615 101.79 16.6796 102.331L16.755 102.853C16.3777 101.837 15.9649 103.375 15.814 104.711C16.502 106.88 17.5894 106.244 18.566 106.549C19.305 106.792 20.084 107.667 20.8073 107.599C26.2178 106.942 32.4559 105.239 37.9441 106.189L37.8041 106.731C38.7209 106.758 39.4488 106.806 40.2587 106.928C47.0341 107.993 53.7404 111.573 60.4291 112.602C66.0616 113.471 71.9513 112.894 77.2596 110.067L77.8389 109.261C80.3287 107.144 82.9389 105.837 84.9849 102.338C85.6728 101.159 86.3542 99.2804 87.0021 98.549C88.003 97.4365 89.2257 97.084 90.3244 96.2698C92.1065 94.9891 93.7862 93.918 95.0891 92.6224C92.4125 92.7053 89.8782 96.6165 87.4303 97.4699C87.739 95.9934 88.6666 95.4705 88.6599 93.7211L88.2937 92.4128L88.5843 92.4058L88.3647 91.6204C88.5843 91.4165 89.0416 92.7663 88.8684 91.5927L88.2937 91.3624C88.4025 90.0667 88.0807 90.3719 88.0717 89.5254C87.7855 89.363 87.5258 89.0786 87.5657 87.6885L86.9156 87.4581L87.7101 87.4235C87.9387 87.2277 87.8055 86.7245 87.7809 86.1014C88.0961 86.2845 88.3447 85.3632 88.5754 86.0611C88.438 87.3361 88.0717 87.769 88.0717 89.5254C88.4667 89.5392 88.5245 88.3311 88.9394 88.4267C88.9505 88.7734 88.6443 89.2329 88.8684 89.4851C89.1392 87.4984 89.9225 87.8704 90.382 88.3668L90.0203 85.9931C90.5172 85.3562 91.0276 86.0335 91.1786 86.2097C91.0943 85.6407 92.0441 85.4173 92.3304 84.5696C91.9133 84.5143 91.7335 83.5999 91.4605 83.0229C92.0819 82.8133 92.2593 80.9775 92.9764 81.1042C92.8142 80.0204 92.4058 79.8649 92.3217 78.4886L92.6853 77.1527C92.0819 76.2175 91.3117 75.9802 91.2319 73.7978C90.4174 74.7928 89.4078 72.6241 88.4867 72.3258C88.8951 72.1416 89.4965 72.638 89.7851 72.0068L89.643 71.2271L90.0001 71.7281L89.9271 70.414L90.3596 69.8646C90.2331 68.3121 89.7184 66.7804 89.4898 66.474L90.1423 69.6136C89.8317 68.197 88.9218 69.0308 88.6243 67.5727L88.986 67.2883C88.0807 66.7332 86.8224 66.2241 86.4518 62.9095C86.8135 61.9329 87.4636 63.3161 87.679 62.8473L88.1115 61.2488C88.5754 62.3049 89.0127 64.9572 89.6274 63.824C89.9071 64.5426 90.1666 65.3696 90.5707 65.6206C90.6705 64.1833 90.8348 64.6163 91.1499 64.014C90.3086 64.6774 89.9647 61.7567 88.9062 61.2131L88.5445 62.2853C88.085 59.1607 87.8209 60.15 86.88 59.1872C88.1274 59.3979 88.8951 57.6082 89.9847 58.7864C89.8915 57.4642 88.9816 56.1029 88.8286 57.5184C88.7153 56.5152 88.2937 55.276 88.0341 55.7021C88.3402 56.2377 88.6154 56.9022 88.7575 58.062C88.4421 58.1426 88.1628 58.3729 87.8922 58.6102C87.8009 56.9287 87.2617 56.8953 86.9465 56.0142C87.3017 55.6745 86.6559 54.9443 86.8024 53.6486L87.2351 53.105L87.0176 52.5833C87.759 51.837 87.9831 52.3668 88.5334 51.1874L88.2428 50.9364L88.9618 49.8446C88.2693 50.015 88.1317 48.6721 87.6635 49.9125C87.1043 48.9842 86.4607 46.9503 86.2166 45.7502C86.8602 45.6005 87.3571 44.7943 87.9429 45.1398L88.0185 46.7269C88.1715 46.8282 87.8633 45.0857 88.0917 44.8692C89.0481 44.4004 89.4078 47.5803 90.189 46.8824C89.1546 44.8151 88.2339 42.3124 86.6448 42.2917C87.5414 42.1155 88.4025 41.7906 89.2411 41.3841L89.2457 42.6994C90.0999 44.9026 90.4972 48.041 91.3473 49.2146C91.0988 47.3972 90.3909 47.2751 90.2577 45.0316C90.768 44.9026 91.2362 46.3387 91.6292 45.7698C91.3982 44.1839 91.2208 42.3527 90.757 41.0455C91.4494 40.7334 92.548 41.8586 92.7077 39.6347C92.3571 39.432 92.0307 39.1406 91.8379 38.3597C92.3747 38.4484 92.8186 38.1974 93.207 37.7643L93.5732 39.0726C94.0903 37.5535 94.4075 40.8405 94.9469 40.0689L94.6517 39.0174C94.7826 37.9808 95.1245 37.7228 95.4462 37.3981C95.6703 37.6146 95.6592 38.726 95.8835 38.9575C96.0609 38.1973 96.316 37.7229 96.6758 37.6008C96.6668 36.008 96.7423 35.9677 97.104 35.4724C96.4536 34.171 95.6438 33.48 94.9358 32.387C95.5483 31.7985 96.1719 34.1169 96.7423 32.5839V32.5839ZM19.4315 108.393C22.1254 108.949 24.3492 108.094 27.1743 108.297C24.8063 107.891 21.5176 107.952 19.4315 108.393V108.393ZM28.1153 108.013C28.5924 108.087 29.5355 108.135 29.9215 107.721L28.6945 107.735C27.8801 107.721 27.183 107.864 28.1153 108.013ZM31.2243 107.681C31.4906 107.512 31.9431 108.013 32.0898 107.403C31.8212 107.573 31.3687 107.076 31.2243 107.681ZM50.2297 105.03C50.001 105.056 49.7104 105.056 49.4353 105.063C47.8775 105.16 49.4774 105.708 50.2297 105.03ZM52.1116 104.711C51.8675 104.731 51.6299 104.711 51.3171 104.738C49.8835 104.847 51.4058 105.382 52.1116 104.711ZM52.4732 104.698C52.8773 104.508 53.4809 105.017 53.7761 104.386C53.3631 104.576 52.7595 104.067 52.4732 104.698ZM55.5071 104.067C55.263 104.081 55.0232 104.067 54.7126 104.101C53.2766 104.203 54.8057 104.731 55.5071 104.067ZM55.578 104.061C55.9642 103.885 56.5413 104.372 56.8053 103.748C56.4193 103.939 55.8442 103.443 55.578 104.061ZM57.096 103.742C57.3644 103.558 57.8171 104.061 57.9615 103.443C57.6952 103.62 57.2425 103.132 57.096 103.742ZM85.4909 102.319C87.9031 101.837 90.2955 102.847 92.5701 101.993C90.4175 101.661 87.3527 101.804 85.4909 102.319ZM58.1745 103.429C58.4896 103.26 58.9976 103.748 59.191 103.139C58.8757 103.321 58.3764 102.826 58.1745 103.429ZM94.0571 83.1657C94.392 83.9731 94.785 84.5489 95.2886 84.6975C94.9202 84.2172 94.4874 82.5622 94.0571 83.1657ZM92.3858 71.3492C92.3547 72.1842 92.4525 72.5297 92.6723 72.3938C92.7077 71.5726 92.6099 71.2271 92.3858 71.3492ZM91.7335 70.0604L91.2297 70.1031V70.6248L91.7335 70.0604ZM93.8262 69.4374L92.8142 70.0132C93.105 70.5418 93.7397 70.9161 93.8262 69.4374ZM93.4667 67.6073L93.0318 66.8345C93.2711 66.7332 93.1096 68.1371 93.4667 67.6073ZM90.9345 64.8063L91.2253 65.5942L90.9345 64.8063ZM91.0723 61.6345L90.7837 61.3904L91.0723 61.6345ZM89.6274 59.8517L90.2023 60.089L89.6274 59.8517ZM92.5125 59.7228C92.621 60.1362 92.7942 60.2652 93.0229 60.2306L92.5125 59.7228ZM92.153 59.2148L91.9333 57.9053L92.153 59.2148ZM91.6446 57.9123C91.2562 57.3099 91.0167 56.3874 90.5639 56.9102C90.9367 57.0035 91.3895 58.2578 91.6446 57.9123ZM93.1603 55.466C93.0694 56.3597 93.3535 57.8512 93.593 58.3603C93.5421 57.2742 93.1759 56.9701 93.3735 55.7148L93.1603 55.466ZM93.085 54.6783C93.38 54.5907 93.3535 54.8407 93.5176 54.9155C94.3012 55.276 93.5222 53.9262 93.085 54.6783ZM91.4914 49.4783C91.2473 50.1693 90.8437 49.0107 90.6261 50.0484C90.9145 50.1221 91.3586 51.0043 91.6334 50.2649C91.2986 50.5022 91.7335 49.5601 91.4914 49.4783ZM97.6187 40.9914C97.9938 40.1564 98.7595 40.4881 99.0636 40.123C98.6618 39.5333 97.6121 40.1299 97.6187 40.9914ZM90.8082 20.9713C90.4529 20.8699 89.623 21.2892 89.5098 21.561C89.876 21.5068 89.978 21.5874 90.2288 21.5195C90.402 21.4792 91.143 21.0588 90.8082 20.9713ZM85.8171 14.8557C86.3807 14.6922 87.0419 14.8753 87.4038 13.9885C86.9245 14.2995 86.0034 14.3881 85.8171 14.8557Z" fill="#100F0D" />
</svg>